<?xml version="1.0" encoding="UTF-8" standalone="no"?>
<!-- Created with Inkscape (http://www.inkscape.org/) -->

<svg
   xmlns:dc="http://purl.org/dc/elements/1.1/"
   xmlns:cc="http://creativecommons.org/ns#"
   xmlns:rdf="http://www.w3.org/1999/02/22-rdf-syntax-ns#"
   xmlns:svg="http://www.w3.org/2000/svg"
   xmlns="http://www.w3.org/2000/svg"
   xmlns:sodipodi="http://sodipodi.sourceforge.net/DTD/sodipodi-0.dtd"
   xmlns:inkscape="http://www.inkscape.org/namespaces/inkscape"
   id="svg2"
   version="1.1"
   inkscape:version="0.91 r13725"
   width="1357.5"
   height="1357.5"
   viewBox="0 0 1357.5 1357.5"
   sodipodi:docname="blaster-jaw-bg.svg">
  <metadata
     id="metadata8">
    <rdf:RDF>
      <cc:Work
         rdf:about="">
        <dc:format>image/svg+xml</dc:format>
        <dc:type
           rdf:resource="http://purl.org/dc/dcmitype/StillImage" />
        <dc:title />
      </cc:Work>
    </rdf:RDF>
  </metadata>
  <defs
     id="defs6" />
  <sodipodi:namedview
     pagecolor="#ffffff"
     bordercolor="#666666"
     borderopacity="1"
     objecttolerance="10"
     gridtolerance="10"
     guidetolerance="10"
     inkscape:pageopacity="0"
     inkscape:pageshadow="2"
     inkscape:window-width="1280"
     inkscape:window-height="751"
     id="namedview4"
     showgrid="false"
     inkscape:zoom="0.69539594"
     inkscape:cx="676.84218"
     inkscape:cy="414.90179"
     inkscape:window-x="0"
     inkscape:window-y="29"
     inkscape:window-maximized="1"
     inkscape:current-layer="svg2"
     showguides="false" />
  <path
     style="fill:#000000;fill-opacity:1;fill-rule:evenodd;stroke:#000000;stroke-width:1px;stroke-linecap:butt;stroke-linejoin:miter;stroke-opacity:1"
     d="m 405.52438,747.77542 46.89589,-100.8598 449.22434,-1.43803 45.3968,98.60389 58.14129,212.20824 L 862.81781,1128.8533 655.74153,1266.9041 510.50054,1160.4899 398.33422,1010.9348 349.44121,826.86705 Z"
     id="path4135"
     inkscape:connector-curvature="0"
     sodipodi:nodetypes="ccccccccccc" />
  <path
     style="fill:#ffffff;fill-opacity:1"
     d="m 691.00678,1311.0337 c 7.03126,-3.4183 23.67725,-12.4709 37.24417,-18.0373 13.5669,-5.5663 29.41403,-12.5098 35.21579,-15.4296 26.60884,-13.3916 41.78616,-20.6832 57.41487,-50.2229 4.22428,-7.9842 13.4182,-19.7153 16.70252,-24.2046 3.28432,-4.4895 8.05274,-15.5463 11.83928,-21.4644 20.35543,-31.8126 43.92875,-58.1638 72.22544,-77.2083 5.53391,-3.7244 15.10757,-10.243 18.78919,-13.2427 3.68162,-2.9995 12.17115,-8.1651 18.86561,-12.1 10.70279,-6.2911 15.2119,-11.7524 37.36242,-34.1407 47.44213,-47.9514 71.97113,-76.92768 82.88483,-98.36967 7.5721,-14.87669 24.2491,-59.38404 26.9921,-72.82521 0.7762,-3.80309 2.7694,-21.09176 3.7663,-29.09824 0.9969,-8.00648 1.6706,-16.49709 2.1602,-18.86805 0.6071,-2.93833 1.8184,-11.87152 0.9005,-11.3006 -3.3374,-0.35072 -8.6938,4.41077 -10.5614,7.25595 -7.454,11.47597 -17.7816,25.42633 -24.2549,30.34324 -7.5131,5.7066 -15.3956,12.55741 -26.3312,15.31215 -4.2899,1.08068 -6.8052,3.06948 -10.8621,4.85891 -8.9293,3.93861 -11.4721,3.07511 -17.0254,-5.78151 -8.9833,-14.32686 -13.4927,-22.84319 -17.634,-50.04335 -5.8313,-38.30004 -14.34081,-136.76508 -10.88668,-146.45355 1.02156,-2.8654 0.17348,-5.7224 -1.75683,-4.11001 -1.59579,1.41559 -4.33189,7.03456 -4.77217,7.52907 -2.43904,-1.51714 -19.4442,37.30853 -25.55397,55.43283 -7.67409,22.7648 -27.49187,24.80245 -10.37142,77.59602 11.51632,35.51236 6.18066,71.00352 3.74578,82.27998 -0.67646,3.13297 4.71573,28.33626 4.07352,38.43139 -1.16741,18.35124 -2.34215,12.82847 -6.99189,20.53646 -2.79333,4.63061 3.81421,15.81434 2.86143,12.58542 -0.88934,-3.01382 -3.64384,-5.14766 -11.19594,-17.75955 -4.34201,-7.25106 -6.70601,-12.75458 -7.24955,-16.87726 -0.47132,-3.57495 -7.46869,-9.53972 -8.02647,-8.63138 1.74974,-5.81985 -1.50736,-4.85742 -4.83816,13.74138 -12.12876,45.85826 -18.0598,55.886 -35.76569,106.45968 -10.18473,29.0909 -19.50257,49.1586 -23.01122,53.0998 -2.77596,3.1181 -0.90019,-0.1225 -2.31482,-3.8674 -0.93151,-2.4659 -4.08174,-47.401 -5.21127,-92.96763 -0.0463,-1.8685 -12.59969,47.30963 -21.55237,74.61983 -7.22688,22.0454 -30.59024,55.2851 -57.87035,97.697 -4.08923,6.3574 -5.58847,10.1832 -7.50591,13.7746 -3.80719,7.1307 -1.8235,9.3575 -4.38013,6.6449 -1.36913,-1.4526 -1.97591,6.77 -0.0683,-5.8007 2.73868,-18.0468 8.80153,-54.59 1.35678,-63.5809 l -3.93708,-24.7654 -6.18592,27.2971 c -1.36838,6.0384 -9.98354,14.0684 -11.10985,19.8697 -4.19563,21.6107 -12.62356,29.5848 -29.54472,47.936 -3.53082,3.8292 -5.18039,9.6279 -9.87972,15.3718 -8.33785,10.1909 -4.16194,15.5787 -7.23764,12.483 -2.30244,-2.3172 -1.32331,-5.7955 2.34908,-10.6415 3.03274,-4.0016 0.66261,-5.8089 -0.72567,-9.3642 -0.84342,-2.1598 -0.6378,-13.6005 -8.08541,-26.4061 l -16.40483,-43.1742 -19.47231,62.8055 c -5.1998,16.7713 -9.61123,83.1615 -8.03138,92.0801 1.81648,10.2547 9.8505,4.3911 8.49395,25.8668 -0.74763,11.8356 25.73359,15.5931 21.93216,13.0485 l -3.14637,-2.106 z"
     id="path3334"
     inkscape:connector-curvature="0"
     sodipodi:nodetypes="ssssssscssssssccssssssccssssssssccssscsssssscsssssscscsssscs" />
  <path
     sodipodi:nodetypes="ssssssscssssssccssssssccssssssssccssscsssssscsssssscscsssscs"
     inkscape:connector-curvature="0"
     id="path3350"
     d="m 664.375,1305.5059 c -6.98817,-3.3755 -23.53218,-12.3148 -37.01595,-17.8114 -13.48377,-5.4967 -29.23378,-12.3531 -35,-15.2365 -26.4458,-13.2239 -41.53012,-28.4572 -57.06304,-57.627 -4.19841,-7.8844 -10.30416,-17.9624 -13.56836,-22.3956 -3.26419,-4.4332 -9.014,-12.8416 -12.77735,-18.6854 -20.23069,-31.4143 -47.70199,-59.9459 -75.8253,-78.752 -5.5,-3.6779 -12.99377,-9.1106 -16.65284,-12.0728 -3.65906,-2.9621 -12.09656,-8.5649 -18.75,-12.4506 -10.63721,-6.2123 -15.11867,-10.0992 -37.13346,-32.2072 -47.15143,-47.3512 -70.51961,-74.96066 -81.3664,-96.13425 -7.52561,-14.69045 -25.111,-62.65708 -27.83726,-75.93001 -0.77138,-3.75548 -2.7524,-13.29689 -3.74318,-21.20314 -0.99078,-7.90625 -1.6604,-16.29059 -2.14714,-18.63186 -0.60321,-2.90155 -1.80701,-11.72292 -0.89476,-11.15913 3.31692,-0.34635 6.49675,8.61563 8.35278,11.42519 7.40849,11.33232 19.81647,27.23808 26.2502,32.09344 7.46703,5.63516 15.30122,9.20516 26.16972,11.92541 4.26379,1.06716 11.05125,3.38606 15.08326,5.15309 8.8746,3.8893 11.40182,3.03662 16.92104,-5.70913 8.92817,-14.14752 13.41004,-28.23735 17.52598,-55.09701 5.79558,-37.8206 9.96522,-132.923 6.53228,-142.4902 -1.0153,-2.82952 -0.1724,-5.65075 1.7461,-4.05854 1.58594,1.39786 4.30534,6.9465 4.7429,7.43481 2.42406,-1.49815 19.32503,36.8415 25.39737,54.73893 7.62707,22.47981 8.02898,44.37236 1.73257,94.375 -4.60627,36.58049 -6.1428,70.11469 -3.72285,81.25 0.67234,3.09375 1.74466,13.78125 2.38294,23.75 1.16026,18.12151 2.3278,23.31811 6.94904,30.9296 2.77623,4.57264 3.35525,3.54615 4.3022,0.35764 0.88388,-2.97611 3.6215,-5.08322 11.12733,-17.53724 4.31539,-7.16029 6.66492,-12.59491 7.20512,-16.66599 0.46844,-3.5302 2.42066,-11.55034 2.97503,-10.65337 -1.73902,-5.747 1.49812,-4.7966 4.80852,13.56936 12.05444,45.28419 16.5199,63.7066 34.11732,113.6473 10.1223,28.7267 22.24149,57.7734 25.72862,61.6652 2.75897,3.0791 5.18235,2.7191 6.58831,-0.9789 0.9258,-2.435 2.6275,-41.8375 3.75012,-86.8336 0.046,-1.8452 8.23484,21.1568 17.13265,48.125 7.18259,21.7695 30.22414,64.5333 57.3371,106.4143 4.06417,6.2778 8.9486,14.3158 10.8543,17.8622 3.78385,7.0415 6.45728,8.8856 8.99824,6.2069 1.36074,-1.4345 1.2492,-4.3201 -0.64676,-16.7334 -2.72191,-17.8209 -4.26141,-54.1928 -2.77769,-65.625 l 1.05451,-8.125 3.28959,10.625 c 1.80929,5.8437 4.20549,15.3122 5.3249,21.0409 4.16993,21.3401 13.21003,38.3377 30.02751,56.4591 3.50918,3.7812 10.20169,11.5156 14.87223,17.1875 8.28675,10.0634 11.2107,11.8694 14.26756,8.8125 2.28832,-2.2883 1.82049,-4.7189 -1.82939,-9.5041 -3.01415,-3.9517 -3.18507,-4.7322 -1.8053,-8.243 0.83825,-2.1328 5.36393,-15.2225 10.05708,-29.088 l 10.24066,-37.6131 -0.35391,23.8631 c -0.25713,17.3372 2.98338,59.5279 1.41321,68.3351 -1.80535,10.1263 -3.72647,24.4182 -2.37824,45.625 0.74305,11.6875 1.16647,24.9414 0.94094,29.4531 l -0.41005,8.9656 z"
     style="fill:#ababab;fill-opacity:1" />
  <path
     inkscape:connector-curvature="0"
     id="path3348"
     d="m 671.91311,1325.5701 c -3.98984,-2.7075 -13.69517,-8.1235 -28.98604,-16.1753 -1.95363,-1.0288 -9.17707,-4.3459 -16.05207,-7.3717 -6.875,-3.0256 -17.28125,-7.616 -23.125,-10.2007 -23.49034,-10.3901 -47.77256,-26.2984 -56.34401,-36.913 -7.26558,-8.9976 -14.02269,-19.6542 -21.73887,-34.2844 -7.43885,-14.1043 -18.13737,-29.8818 -32.91162,-48.5359 -4.60928,-5.8197 -11.67349,-14.8339 -15.69824,-20.0315 -10.83862,-13.9971 -37.11921,-38.907 -52.06361,-49.3481 -7.21526,-5.041 -16.03585,-11.2285 -19.60131,-13.75 -3.56547,-2.5215 -11.35952,-7.6774 -17.32012,-11.4576 -8.62517,-5.4701 -15.0955,-11.3389 -31.69676,-28.75 -11.47262,-12.0323 -24.46812,-26.3769 -28.87889,-31.8769 -4.41077,-5.5 -11.76415,-14.2188 -16.34083,-19.375 -14.67596,-16.53441 -31.22824,-41.81073 -41.03108,-62.65688 -6.96131,-14.80354 -17.89886,-45.67022 -21.44331,-60.51484 -3.00514,-12.58595 -6.32866,-42.05428 -6.05826,-53.71633 0.16143,-6.9628 -0.38874,-9.98226 -2.61345,-14.34306 -4.98644,-9.77423 -7.52083,-18.96075 -7.65455,-27.74582 -0.14102,-9.26345 1.80934,-13.94267 6.4216,-15.40655 4.66945,-1.48202 5.89997,1.18894 6.49801,14.10449 0.43955,9.49286 1.3129,13.9805 3.98879,20.49611 6.5325,15.90628 26.22026,44.36685 38.04601,54.99922 6.39628,5.75081 18.6138,12.70977 29.27159,16.67278 5.72955,2.13048 6.05196,2.12794 8.47711,-0.0668 3.74439,-3.38862 9.29533,-13.86842 12.22095,-23.07232 5.44938,-17.14356 8.91041,-38.43621 12.69891,-78.125 1.44375,-15.125 3.25033,-32.94671 4.01462,-39.6038 1.02261,-8.90718 1.01986,-14.51931 -0.01,-21.25 -0.77002,-5.03041 -1.67188,-18.7087 -2.00413,-30.3962 -0.33226,-11.6875 -1.22926,-24.51813 -1.99334,-28.51249 -2.20115,-11.50697 -1.50628,-12.31646 5.23688,-6.10082 12.73967,11.74301 33.97044,45.25331 44.50014,70.23831 2.75253,6.53125 7.29117,20.03125 10.08587,30 4.44046,15.83926 5.12503,20.01665 5.42835,33.125 0.31658,13.68099 -0.0551,16.64876 -4.22737,33.75 -7.10074,29.10477 -9.0341,50.11356 -7.99478,86.875 0.47621,16.84375 1.25853,33.14517 1.73848,36.22539 l 0.87263,5.6004 8.66524,-20.6004 c 4.76588,-11.33022 9.08424,-21.09377 9.59638,-21.69676 1.16191,-1.36811 12.50955,21.06615 17.544,34.68446 2.06617,5.58905 9.082,27.88066 15.5907,49.53691 13.47515,44.8354 30.67986,97.5 31.85178,97.5 0.43337,0 1.16445,-13.6406 1.62462,-30.3125 0.8243,-29.8644 2.82921,-58.10416 4.44585,-62.62119 1.1906,-3.32665 10.24105,16.57309 29.88455,65.70919 13.56395,33.9287 18.83361,45.4151 30.91465,67.3852 15.08323,27.4299 25.31217,44.201 26.33498,43.1782 0.3248,-0.3248 -0.10437,-7.334 -0.95385,-15.5759 -1.21818,-11.8201 -1.22322,-17.721 -0.0239,-27.9367 1.79785,-15.3133 8.76101,-45.4991 10.14946,-43.9987 3.50315,3.7855 15.44174,37.0948 19.41625,54.1724 3.96311,17.0285 5.44111,21.1159 12.2041,33.75 5.39714,10.0825 10.1046,16.9013 15.76466,22.8353 4.43837,4.6532 8.49712,8.0282 9.01943,7.5 0.52231,-0.5282 3.81531,-7.4291 7.31777,-15.3353 6.28255,-14.1819 11.17599,-31.3225 18.19988,-63.75 1.86142,-8.5938 3.78191,-16.0633 4.26776,-16.5989 1.33138,-1.4678 13.16019,32.3496 18.26714,52.2239 5.5417,21.5661 11.83904,41.875 12.98455,41.875 0.47109,0 5.66702,-4.9219 11.54652,-10.9375 14.66362,-15.0032 20.5142,-26.7294 28.7411,-57.6052 4.83598,-18.1496 7.62283,-25.942 13.39499,-37.4542 5.40849,-10.7869 7.47353,-13.9035 8.00563,-12.0824 0.39438,1.3499 1.9497,10.3292 3.45627,19.9543 2.4392,15.5833 2.65388,20.4356 1.96009,44.3043 -0.44035,15.1493 -0.3079,26.2915 0.30461,25.625 0.59606,-0.6486 9.57186,-15.6918 19.94623,-33.4293 l 18.86247,-32.2499 14.28901,-39.0001 c 7.85895,-21.45 16.97564,-46.5337 20.2593,-55.7414 3.28367,-9.20767 7.23332,-18.20767 8.777,-19.99994 l 2.80669,-3.25866 0.67605,3.125 c 2.8877,13.34836 4.53504,35.8929 4.55213,62.2979 0.0113,16.9366 0.537,30.3785 1.23086,31.4521 0.66645,1.0312 1.22034,1.5119 1.23086,1.0681 0.01,-0.4438 6.12259,-18.1989 13.58238,-39.4558 7.45977,-21.2569 18.76132,-55.20625 25.11455,-75.44308 10.47597,-33.37022 25.25381,-72.41927 27.40615,-72.41927 0.46986,0 2.4419,6.89062 4.38232,15.3125 1.94041,8.42187 5.28221,19.53125 7.4262,24.6875 l 3.89816,9.375 0.84051,-5 c 0.46228,-2.75 1.54704,-17.9375 2.41058,-33.75 l 1.57008,-28.75 -3.98377,-30 c -2.19106,-16.5 -5.08763,-37.3125 -6.43682,-46.25 -3.78474,-25.07153 -2.88405,-31.91146 8.23014,-62.5 13.06866,-35.96769 19.60601,-49.73699 30.13501,-63.47185 6.85446,-8.94151 11.16974,-13.16321 18.55459,-18.15221 5.2925,-3.57551 10.1591,-6.50094 10.8146,-6.50094 0.6556,0 -0.5497,2.16723 -2.6784,4.81606 l -3.8703,4.81607 -0.6067,22.37143 c -0.3337,12.30429 -1.2262,26.43062 -1.9833,31.39183 -1.0117,6.63036 -0.9989,12.59194 0.048,22.5 0.7836,7.41379 2.5595,25.01086 3.9464,39.10461 5.3739,54.60971 10.8012,79.54333 20.7904,95.51304 4.2266,6.75711 4.7714,7.18071 8.3225,6.4705 7.785,-1.557 29.5023,-13.32811 35.316,-19.14174 12.457,-12.45701 30.9355,-40.35802 36.7998,-55.56475 3.0874,-8.00578 3.7394,-11.52928 3.7394,-20.20867 0,-12.44549 1.6434,-15.13627 7.3068,-11.96353 7.7604,4.34751 7.4085,19.52641 -0.9084,39.18015 -3.6296,8.5774 -4.6552,12.48616 -4.2098,16.04481 0.7578,6.05345 -1.7638,34.61532 -4.2096,47.68298 -2.9388,15.70104 -16.0579,53.39279 -24.8387,71.36221 -9.0477,18.51584 -24.3096,42.1512 -35.5146,55 -4.1969,4.8125 -12.2542,14.37505 -17.9052,21.25005 -5.651,6.875 -19.6429,22.3438 -31.0931,34.375 -16.77257,17.6237 -22.93867,23.211 -31.72764,28.75 -6,3.7813 -15.21013,9.9921 -20.46695,13.8021 -5.25682,3.8099 -14.64425,10.4007 -20.86099,14.6465 -12.1114,8.2713 -40.5135,36.1766 -50.5609,49.6764 -3.07008,4.125 -8.77486,11.4375 -12.67729,16.25 -13.22532,16.3096 -26.8861,36.4549 -33.5686,49.5031 -8.48849,16.5745 -17.54456,30.0497 -25.56895,38.0457 -12.51607,12.472 -35.80991,25.7881 -72.91414,41.6821 -22.87773,9.8 -33.92411,15.3886 -43.84792,22.1837 -4.3861,3.0032 -8.95583,5.4604 -10.15495,5.4604 -1.19913,0 -4.28883,-1.431 -6.86599,-3.18 z m 20.2314,-19.8747 c 6.72676,-3.7426 20.66799,-10.1636 30.98049,-14.269 64.3108,-25.6019 78.73114,-36.6338 99.89802,-76.4242 4.51459,-8.4867 11.24108,-19.4121 14.94774,-24.2788 3.70668,-4.8666 9.13177,-12.7859 12.05574,-17.5984 9.94195,-16.3632 25.94801,-35.213 44.67791,-52.6157 10.06859,-9.3551 21.19345,-18.8561 24.72193,-21.1132 3.52846,-2.2571 12.07604,-8.3167 18.99458,-13.4656 6.91857,-5.149 17.27604,-12.1037 23.01664,-15.4549 8.64895,-5.0491 14.82837,-10.4957 36.06244,-31.786 42.713,-42.82609 56.635,-58.50974 71.1727,-80.17871 10.2671,-15.30355 18.0738,-32.02028 27.9935,-59.94276 9.0385,-25.44233 10.2355,-30.32913 13.274,-54.19313 1.4005,-11 2.7954,-21.82812 3.0996,-24.0625 0.3041,-2.23437 0.1252,-4.0625 -0.3977,-4.0625 -0.523,0 -3.7207,4.05385 -7.1061,9.00855 -19.9781,29.23904 -32.1265,39.29385 -53.9496,44.65246 -5.3413,1.31155 -11.9397,3.55562 -14.6632,4.98682 -2.7235,1.43118 -5.9351,2.60217 -7.1369,2.60217 -5.3275,0 -16.7622,-18.45027 -20.9237,-33.76095 -9.87716,-36.33999 -18.06036,-154.81157 -11.99996,-173.72925 1.79407,-5.60024 -2.60322,-0.58855 -9.18645,10.46999 -20.56144,34.53919 -27.42482,52.86072 -31.48004,84.03486 -2.26744,17.43071 -2.30591,19.31331 -0.49814,24.375 1.86564,5.22369 3.32994,14.63753 7.40815,47.62615 2.72326,22.02851 3.82098,62.49005 1.93885,71.46618 -0.84845,4.04633 -1.96634,15.01508 -2.48421,24.375 -0.91534,16.5433 -1.36368,18.46225 -6.67855,28.58521 -1.8149,3.45675 -3.8596,3.00027 -4.44128,-0.9915 -0.23871,-1.63818 -1.97806,-5.25036 -3.86523,-8.0271 -7.12529,-10.48391 -10.70924,-17.74673 -12.61505,-25.56415 -1.08207,-4.4385 -2.57037,-8.271 -3.30732,-8.51665 -0.77008,-0.25669 -3.0209,5.82152 -5.29272,14.29279 -9.51078,35.46427 -13.30359,48.18308 -22.547,75.60912 -17.8269,52.894 -23.83049,68.6703 -35.93974,94.4428 -2.08727,4.4424 -5.81611,5.4089 -7.23434,1.875 -0.48283,-1.2031 -1.41337,-21.0312 -2.06786,-44.0625 -0.65449,-23.0312 -1.49375,-42.7187 -1.86504,-43.75 -0.66717,-1.8531 -4.35546,7.8378 -16.88871,44.375 -7.7628,22.6303 -11.78094,31.6293 -22.88344,51.25 -10.21523,18.0527 -29.69113,50.5679 -34.44118,57.5 -1.88439,2.75 -6.33178,9.9219 -9.8831,15.9375 -6.04043,10.2319 -8.84504,12.7459 -10.76097,9.6459 -0.43905,-0.7104 0.0937,-7.0385 1.18393,-14.0625 3.0119,-19.4052 4.2502,-42.6849 3.17034,-59.6021 -0.53465,-8.376 -1.23854,-15.4955 -1.56422,-15.8211 -1.1455,-1.1455 -7.12837,17.7976 -9.68183,30.655 -3.78407,19.0536 -11.39355,35.2539 -22.90002,48.7533 -3.53786,4.1505 -11.72077,13.7783 -18.18423,21.3949 -8.9731,10.574 -12.37203,13.7598 -14.375,13.4737 -3.85263,-0.5502 -3.90609,-5.026 -0.11388,-9.5328 l 3.26308,-3.8779 -4.93517,-13.482 c -6.28246,-17.1624 -13.18329,-38.617 -15.90057,-49.4345 -1.1636,-4.6323 -2.552,-8.4224 -3.08535,-8.4224 -0.53334,0 -1.59811,3.6085 -2.36614,8.0189 -1.15242,6.6177 -13.27537,44.23 -19.01133,58.984 -1.36147,3.502 -1.18483,4.3012 1.82173,8.243 3.64988,4.7853 4.11771,7.2158 1.82939,9.5041 -3.05686,3.0569 -5.98081,1.2509 -14.26756,-8.8125 -4.67054,-5.6719 -11.36305,-13.4062 -14.87223,-17.1875 -16.81748,-18.1214 -25.85759,-35.119 -30.02751,-56.4591 -1.11941,-5.7287 -3.51561,-15.1971 -5.3249,-21.0409 l -3.28959,-10.625 -1.05451,8.125 c -1.48372,11.4322 0.0558,47.8041 2.77769,65.625 1.89596,12.4133 2.0075,15.2989 0.64676,16.7334 -2.54096,2.6787 -5.21439,0.8346 -8.99824,-6.2069 -1.9057,-3.5464 -6.79014,-11.5844 -10.8543,-17.8622 -27.11296,-41.881 -50.15451,-84.6448 -57.3371,-106.4143 -8.89781,-26.9682 -17.08661,-49.9702 -17.13265,-48.125 -1.12262,44.9961 -2.82432,84.3986 -3.75012,86.8336 -1.40596,3.698 -3.82934,4.058 -6.58831,0.9789 -8.9349,-9.9718 -45.34627,-113.34371 -58.97417,-167.42782 -4.24371,-16.84172 -5.58107,-20.32128 -6.87395,-17.88468 -0.54718,1.03125 -1.37662,4.38189 -1.84318,7.44587 -0.83914,5.51068 -5.22138,14.33724 -12.34054,24.85588 -2.0201,2.98472 -4.06305,6.88557 -4.5399,8.66855 -1.23599,4.62155 -2.86806,4.60967 -5.6924,-0.0414 -4.62105,-7.60987 -5.78876,-12.80715 -6.94904,-30.92891 -0.63828,-9.96875 -1.7106,-20.65625 -2.38294,-23.75 -2.41995,-11.13531 -0.88342,-44.66951 3.72285,-81.25 3.95214,-31.38561 5.31092,-56.27221 3.81739,-69.91702 -2.17864,-19.90403 -10.99581,-42.25588 -28.49088,-72.22537 -6.72506,-11.52022 -10.44947,-16.08305 -8.32708,-10.20165 3.39357,9.40407 -1.39922,104.81157 -7.15065,142.34404 -4.11594,26.85966 -8.59782,40.94949 -17.52598,55.09701 -5.51922,8.74575 -8.04644,9.59843 -16.92104,5.70913 -4.03201,-1.76703 -10.98717,-4.12311 -15.45592,-5.23575 -12.64304,-3.14787 -23.09086,-8.73122 -31.06808,-16.60286 -7.47156,-7.37272 -19.73273,-22.99622 -25.6764,-32.71754 l -3.43916,-5.625 0.60857,6.875 c 0.95815,10.82452 4.41842,36.19732 5.96011,43.70314 2.72626,13.27293 20.31165,61.23956 27.83726,75.93001 10.84679,21.17359 34.21498,48.78305 81.3664,96.13427 22.01479,22.108 26.49625,25.9949 37.13346,32.2072 6.65344,3.8857 15.09094,9.4885 18.75,12.4506 3.65907,2.9622 11.15284,8.3949 16.65284,12.0728 28.12331,18.8061 55.59461,47.3377 75.8253,78.752 3.76335,5.8438 9.51316,14.2522 12.77735,18.6854 3.2642,4.4332 9.36995,14.5112 13.56836,22.3956 15.53292,29.1698 30.61724,44.4031 57.06304,57.627 5.76622,2.8834 21.31345,9.6584 34.54938,15.0556 23.22384,9.4701 43.52028,19.0549 48.71657,23.006 1.375,1.0455 2.90252,1.9188 3.39451,1.9407 0.49198,0.021 6.39823,-3.0224 13.125,-6.7649 z"
     style="fill:#000000" />
</svg>
