<?xml version="1.0" encoding="UTF-8" standalone="no"?>
<!-- Created with Inkscape (http://www.inkscape.org/) -->

<svg
   xmlns:dc="http://purl.org/dc/elements/1.1/"
   xmlns:cc="http://creativecommons.org/ns#"
   xmlns:rdf="http://www.w3.org/1999/02/22-rdf-syntax-ns#"
   xmlns:svg="http://www.w3.org/2000/svg"
   xmlns="http://www.w3.org/2000/svg"
   xmlns:sodipodi="http://sodipodi.sourceforge.net/DTD/sodipodi-0.dtd"
   xmlns:inkscape="http://www.inkscape.org/namespaces/inkscape"
   id="svg2"
   version="1.1"
   inkscape:version="0.91 r13725"
   width="1357.5"
   height="1357.5"
   viewBox="0 0 1357.5 1357.5"
   sodipodi:docname="blaster-head-fiery.svg">
  <metadata
     id="metadata8">
    <rdf:RDF>
      <cc:Work
         rdf:about="">
        <dc:format>image/svg+xml</dc:format>
        <dc:type
           rdf:resource="http://purl.org/dc/dcmitype/StillImage" />
        <dc:title></dc:title>
      </cc:Work>
    </rdf:RDF>
  </metadata>
  <defs
     id="defs6" />
  <sodipodi:namedview
     pagecolor="#ffffff"
     bordercolor="#666666"
     borderopacity="1"
     objecttolerance="10"
     gridtolerance="10"
     guidetolerance="10"
     inkscape:pageopacity="0"
     inkscape:pageshadow="2"
     inkscape:window-width="1280"
     inkscape:window-height="751"
     id="namedview4"
     showgrid="false"
     showguides="false"
     inkscape:zoom="0.49171919"
     inkscape:cx="517.0012"
     inkscape:cy="659.26258"
     inkscape:window-x="0"
     inkscape:window-y="29"
     inkscape:window-maximized="1"
     inkscape:current-layer="svg2" />
  <path
     inkscape:connector-curvature="0"
     id="path3348"
     d="m 707.47435,1118.5113 c -0.0141,-0.9 -0.85096,-10.0738 -1.85968,-20.3863 -1.00872,-10.3125 -1.85075,-24.0937 -1.87117,-30.625 -0.0879,-28.0729 -7.53458,-51.6872 -20.20208,-64.0625 -4.39346,-4.29211 -6.87787,-4.28502 -11.78088,0.034 -7.8118,6.8808 -11.29672,13.1714 -16.42788,29.6539 -4.4981,14.449 -5.14591,18.1386 -5.84504,33.29 -0.56501,12.2448 -0.22336,21.6571 1.21406,33.447 1.10017,9.0239 1.81391,16.9662 1.58609,17.6497 -0.91005,2.7301 -16.05407,-24.2315 -23.32925,-41.5341 -9.46631,-22.5139 -24.69148,-65.1534 -31.5042,-88.2304 -6.02637,-20.41345 -7.42681,-24.16175 -8.72708,-23.35813 -2.16172,1.33602 -6.24575,18.48269 -8.04752,33.78713 -1.04886,8.9093 -1.91213,23.6187 -1.91838,32.6875 -0.006,9.0688 -0.51018,16.7971 -1.11987,17.1739 -3.53687,2.1859 -23.25108,-33.6723 -37.4059,-68.0376 -8.57663,-20.82253 -14.58595,-47.21474 -16.02372,-70.3744 -0.46094,-7.42466 -1.26385,-13.04966 -1.78425,-12.5 -2.98145,3.14907 -9.07931,25.772 -12.9642,48.09689 -8.03934,46.19886 -8.59649,49.14452 -9.48953,50.17112 -0.48735,0.56024 -8.76365,-18.84601 -18.39176,-43.125 C 466.48867,914.2079 463.7838,906.3164 461.95279,895 c -2.08909,-12.91136 -4.16035,-21.21806 -4.3541,-17.46188 -0.20684,4.00978 -5.10793,52.10039 -5.85615,57.46188 l -0.785,5.625 -12.95578,-26.70736 c -12.73556,-26.25337 -13.11656,-27.3011 -22.41385,-61.63607 -8.53967,-31.53715 -9.58316,-36.65113 -10.7465,-52.66763 -2.26806,-31.22619 -5.68075,-54.55203 -9.91525,-67.77128 C 388.66363,712.29231 371.99114,680.89926 359.4268,665 c -3.53141,-4.46875 -7.887,-10.375 -9.67908,-13.125 -1.79207,-2.75 -7.46027,-9.5772 -12.59598,-15.17154 -5.13573,-5.59435 -11.20794,-12.90685 -13.49382,-16.25 C 321.37204,617.1103 313.56294,606.5 306.30435,596.875 c -14.51703,-19.24981 -34.24654,-50.36691 -37.70398,-59.46615 -3.21158,-8.45217 -6.93063,-23.76784 -9.1565,-37.70789 -2.33023,-14.59376 -2.69117,-68.25139 -0.58515,-86.98791 1.71802,-15.28445 5.32924,-33.87614 9.38912,-48.33805 5.46446,-19.4653 22.41491,-44.68306 55.40011,-82.42065 23.03525,-26.35409 37.75312,-41.76801 45.10205,-47.2351 16.44087,-12.23084 43.16458,-34.63443 55.01837,-46.12419 3.10387,-3.00854 8.29668,-8.84506 11.53959,-12.97006 3.2429,-4.125 9.42214,-11.47562 13.73162,-16.33474 4.30948,-4.8591 10.53971,-12.03097 13.84496,-15.9375 10.01141,-11.83264 12.95951,-8.20437 5.25606,6.4687 -2.39766,4.56695 -6.12984,12.52229 -8.29372,17.67854 -4.25717,10.14429 -19.78613,35.31539 -30.46122,49.375 -3.65401,4.8125 -11.27996,16.0625 -16.94655,25 -5.6666,8.9375 -14.07603,21.875 -18.68763,28.75 -11.17125,16.65417 -13.60279,21.68926 -15.59669,32.29672 -4.22464,22.47478 -3.33906,44.36303 2.45986,60.79894 2.3264,6.59372 10.80591,20.15195 12.30206,19.67025 0.57294,-0.18446 2.22435,-3.13225 3.6698,-6.55065 1.44545,-3.4184 4.11724,-8.46526 5.93733,-11.21526 1.82007,-2.75 5.44925,-10.625 8.06481,-17.5 5.67348,-14.91269 15.25341,-32.6917 27.27846,-50.625 6.67445,-9.95379 13.98728,-18.28348 30.2663,-34.47486 C 493.93473,237.36271 511.05909,224.0753 555,195.6222 575.22241,182.52756 582.50754,176.8968 606.25,156.01046 625.31701,139.23714 630.70905,133.55277 643.96576,116.25 658.0973,97.805391 662.3337,88.341009 671.24234,55.3125 L 674.02388,45 l 4.81488,0 c 4.62049,0 4.86912,0.214482 6.15838,5.3125 4.1485,16.404204 10.84432,37.44572 13.82265,43.4375 9.03841,18.18342 27.53816,40.27642 51.511,61.5161 24.58743,21.7842 28.63771,24.87409 57.79421,44.09025 45.14448,29.75335 64.625,45.41482 90.85802,73.04584 18.95769,19.96797 38.01427,50.35083 47.88647,76.34781 2.4802,6.53125 5.85897,13.84375 7.50837,16.25 1.6494,2.40625 4.47413,7.60937 6.27717,11.5625 1.80303,3.95312 3.65888,7.18257 4.12411,7.17656 1.81094,-0.0234 10.58675,-15.32317 12.70915,-22.15714 4.40769,-14.19249 5.40134,-24.94845 3.91051,-42.33027 -2.04104,-23.79666 -3.32551,-27.22975 -18.89505,-50.50165 -5.2895,-7.90625 -14.00769,-21.40625 -19.37376,-30 -5.36607,-8.59375 -11.56123,-17.875 -13.76701,-20.625 -4.54487,-5.66618 -14.99905,-20.96376 -22.76963,-33.31871 -2.8776,-4.57529 -7.58521,-13.85654 -10.46136,-20.625 -2.87614,-6.76847 -6.28079,-13.80583 -7.56588,-15.63859 -4.79148,-6.8335 -3.99181,-15.02394 1.05815,-10.83781 1.10812,0.91856 5.11562,5.60761 8.90555,10.42011 3.78994,4.8125 10.0644,12.125 13.94324,16.25 3.87884,4.125 9.34223,10.6197 12.14086,14.43266 7.15435,9.74735 30.41082,30.47543 61.11305,54.469 23.29374,18.20393 71.77374,73.24054 88.70434,100.70124 5.3869,8.73726 13.9061,28.75019 16.6644,39.1471 6.9778,26.30181 8.9572,44.98306 8.9464,84.43236 -0.01,33.41531 -1.9298,49.94429 -8.2727,71.19264 -5.2757,17.67366 -24.9477,48.4495 -61.6692,96.47823 -2.4613,3.21926 -8.4127,10.29428 -13.2252,15.72227 -16.254,18.33279 -28.69395,35.29034 -41.47462,56.5363 -12.06004,20.04804 -12.98803,22.0962 -17.76813,39.21599 -5.04265,18.06006 -5.04376,18.06909 -6.46574,52.2427 l -1.42222,34.17951 -11.00684,31.25 c -6.05375,17.1875 -11.98184,34.62009 -13.17351,38.73908 -2.38333,8.23792 -17.52233,44.30496 -19.3916,46.19842 -0.73676,0.74629 -1.17286,0.51406 -1.17375,-0.625 -7.6e-4,-0.99687 -1.12514,-10.53125 -2.49859,-21.1875 -1.37345,-10.65625 -2.50644,-23.3125 -2.51774,-28.125 -0.0319,-13.5922 -1.81108,-13.76174 -4.36016,-0.41549 -2.60866,13.65834 -21.79767,70.5625 -29.08874,86.26135 -5.21803,11.2353 -12.1305,22.27914 -13.94476,22.27914 -0.57271,0 -1.44535,-5.48438 -1.9392,-12.1875 -2.67118,-36.25693 -5.40735,-54.45519 -10.38376,-69.0625 -5.61558,-16.4834 -5.4494,-16.6541 -7.90994,8.125 -1.68999,17.01909 -7.78454,39.56177 -18.92493,70 -5.86688,16.0298 -8.61921,21.4702 -18.97115,37.5 -6.65976,10.3125 -12.567,18.914 -13.1272,19.1144 -2.10578,0.7532 -10.08242,-53.90606 -10.08242,-69.08902 0,-7.39377 -0.44444,-9.41512 -2.47394,-11.25179 -1.98438,-1.79585 -2.58869,-1.89603 -3.05382,-0.50624 -0.31894,0.95296 -2.54434,8.48265 -4.94534,16.73265 -5.93819,20.404 -29.44505,88.8354 -34.89405,101.5808 -4.48474,10.4899 -15.18681,29.7165 -17.25133,30.9924 -0.62233,0.3847 -1.14306,-0.037 -1.15717,-0.9369 z M 445.86624,900.33629 c -0.31693,-1.21621 -0.59708,-0.52379 -0.62255,1.53871 -0.0255,2.0625 0.23382,3.05758 0.57623,2.21129 0.3424,-0.84629 0.36324,-2.53379 0.0464,-3.75 z M 289.855,338.62864 C 290.65074,336.34599 290.67359,335 289.9166,335 c -1.48868,0 -6.15555,7.48374 -6.16192,9.88124 -0.007,2.7801 4.5965,-1.93872 6.10032,-6.2526 z m 49.63337,-64.55694 c -0.86687,-0.86686 -3.23837,0.89444 -3.23837,2.40513 0,0.82887 0.71722,0.73403 1.90521,-0.2519 1.04786,-0.86965 1.64779,-1.8386 1.33316,-2.15323 z M 556.36583,208.99694 C 554.65165,208.42555 550,211.0691 550,212.61465 c 0,0.70217 1.70844,0.26749 3.79652,-0.96598 2.08809,-1.23346 3.24428,-2.42673 2.5693,-2.65173 z M 459.6721,158.605 c 1.44131,-3.81845 1.42212,-3.85149 -0.97595,-1.68126 -1.34539,1.21755 -2.44615,2.9703 -2.44615,3.895 0,3.0127 1.91756,1.77223 3.4221,-2.21374 z"
     style="fill:#fefefe" />
  <path
     inkscape:connector-curvature="0"
     id="path3346"
     d="m 707.47435,1118.5113 c -0.0141,-0.9 -0.85096,-10.0738 -1.85968,-20.3863 -1.00872,-10.3125 -1.85075,-24.0937 -1.87117,-30.625 -0.0879,-28.0729 -7.53458,-51.6872 -20.20208,-64.0625 -4.39346,-4.29211 -6.87787,-4.28502 -11.78088,0.034 -7.8118,6.8808 -11.29672,13.1714 -16.42788,29.6539 -4.4981,14.449 -5.14591,18.1386 -5.84504,33.29 -0.56501,12.2448 -0.22336,21.6571 1.21406,33.447 1.10017,9.0239 1.81391,16.9662 1.58609,17.6497 -0.91005,2.7301 -16.05407,-24.2315 -23.32925,-41.5341 -9.46631,-22.5139 -24.69148,-65.1534 -31.5042,-88.2304 -6.02637,-20.41345 -7.42681,-24.16175 -8.72708,-23.35813 -2.16172,1.33602 -6.24575,18.48269 -8.04752,33.78713 -1.04886,8.9093 -1.91213,23.6187 -1.91838,32.6875 -0.006,9.0688 -0.51018,16.7971 -1.11987,17.1739 -3.53687,2.1859 -23.25108,-33.6723 -37.4059,-68.0376 -8.57663,-20.82253 -14.58595,-47.21474 -16.02372,-70.3744 -0.46094,-7.42466 -1.26385,-13.04966 -1.78425,-12.5 -2.98145,3.14907 -9.07931,25.772 -12.9642,48.09689 -8.03934,46.19886 -8.59649,49.14452 -9.48953,50.17112 -0.48735,0.56024 -8.76365,-18.84601 -18.39176,-43.125 C 466.48867,914.2079 463.7838,906.3164 461.95279,895 c -2.08909,-12.91136 -4.16035,-21.21806 -4.3541,-17.46188 -0.20684,4.00978 -5.10793,52.10039 -5.85615,57.46188 l -0.785,5.625 -12.95578,-26.70736 c -12.73556,-26.25337 -13.11656,-27.3011 -22.41385,-61.63607 -8.53967,-31.53715 -9.58316,-36.65113 -10.7465,-52.66763 -2.26806,-31.22619 -5.68075,-54.55203 -9.91525,-67.77128 C 388.66363,712.29231 371.99114,680.89926 359.4268,665 c -3.53141,-4.46875 -7.887,-10.375 -9.67908,-13.125 -1.79207,-2.75 -7.46027,-9.5772 -12.59598,-15.17154 -5.13573,-5.59435 -11.20794,-12.90685 -13.49382,-16.25 C 321.37204,617.1103 313.56294,606.5 306.30435,596.875 c -14.51703,-19.24981 -34.24654,-50.36691 -37.70398,-59.46615 -3.21158,-8.45217 -6.93063,-23.76784 -9.1565,-37.70789 -2.33023,-14.59376 -2.69117,-68.25139 -0.58515,-86.98791 1.71802,-15.28445 5.32924,-33.87614 9.38912,-48.33805 5.46446,-19.4653 22.41491,-44.68306 55.40011,-82.42065 23.03525,-26.35409 37.75312,-41.76801 45.10205,-47.2351 16.44087,-12.23084 43.16458,-34.63443 55.01837,-46.12419 3.10387,-3.00854 8.29668,-8.84506 11.53959,-12.97006 3.2429,-4.125 9.42214,-11.47562 13.73162,-16.33474 4.30948,-4.8591 10.53971,-12.03097 13.84496,-15.9375 10.01141,-11.83264 12.95951,-8.20437 5.25606,6.4687 -2.39766,4.56695 -6.12984,12.52229 -8.29372,17.67854 -4.25717,10.14429 -19.78613,35.31539 -30.46122,49.375 -3.65401,4.8125 -11.27996,16.0625 -16.94655,25 -5.6666,8.9375 -14.07603,21.875 -18.68763,28.75 -11.17125,16.65417 -13.60279,21.68926 -15.59669,32.29672 -4.22464,22.47478 -3.33906,44.36303 2.45986,60.79894 2.3264,6.59372 10.80591,20.15195 12.30206,19.67025 0.57294,-0.18446 2.22435,-3.13225 3.6698,-6.55065 1.44545,-3.4184 4.11724,-8.46526 5.93733,-11.21526 1.82007,-2.75 5.44925,-10.625 8.06481,-17.5 5.67348,-14.91269 15.25341,-32.6917 27.27846,-50.625 6.67445,-9.95379 13.98728,-18.28348 30.2663,-34.47486 C 493.93473,237.36271 511.05909,224.0753 555,195.6222 575.22241,182.52756 582.50754,176.8968 606.25,156.01046 625.31701,139.23714 630.70905,133.55277 643.96576,116.25 658.0973,97.805391 662.3337,88.341009 671.24234,55.3125 L 674.02388,45 l 4.81488,0 c 4.62049,0 4.86912,0.214482 6.15838,5.3125 4.1485,16.404204 10.84432,37.44572 13.82265,43.4375 9.03841,18.18342 27.53816,40.27642 51.511,61.5161 24.58743,21.7842 28.63771,24.87409 57.79421,44.09025 45.14448,29.75335 64.625,45.41482 90.85802,73.04584 18.95769,19.96797 38.01427,50.35083 47.88647,76.34781 2.4802,6.53125 5.85897,13.84375 7.50837,16.25 1.6494,2.40625 4.47413,7.60937 6.27717,11.5625 1.80303,3.95312 3.65888,7.18257 4.12411,7.17656 1.81094,-0.0234 10.58675,-15.32317 12.70915,-22.15714 4.40769,-14.19249 5.40134,-24.94845 3.91051,-42.33027 -2.04104,-23.79666 -3.32551,-27.22975 -18.89505,-50.50165 -5.2895,-7.90625 -14.00769,-21.40625 -19.37376,-30 -5.36607,-8.59375 -11.56123,-17.875 -13.76701,-20.625 -4.54487,-5.66618 -14.99905,-20.96376 -22.76963,-33.31871 -2.8776,-4.57529 -7.58521,-13.85654 -10.46136,-20.625 -2.87614,-6.76847 -6.28079,-13.80583 -7.56588,-15.63859 -4.79148,-6.8335 -3.99181,-15.02394 1.05815,-10.83781 1.10812,0.91856 5.11562,5.60761 8.90555,10.42011 3.78994,4.8125 10.0644,12.125 13.94324,16.25 3.87884,4.125 9.34223,10.6197 12.14086,14.43266 7.15435,9.74735 30.41082,30.47543 61.11305,54.469 23.29374,18.20393 71.77374,73.24054 88.70434,100.70124 5.3869,8.73726 13.9061,28.75019 16.6644,39.1471 6.9778,26.30181 8.9572,44.98306 8.9464,84.43236 -0.01,33.41531 -1.9298,49.94429 -8.2727,71.19264 -5.2757,17.67366 -24.9477,48.4495 -61.6692,96.47823 -2.4613,3.21926 -8.4127,10.29428 -13.2252,15.72227 -16.254,18.33279 -28.69395,35.29034 -41.47462,56.5363 -12.06004,20.04804 -12.98803,22.0962 -17.76813,39.21599 -5.04265,18.06006 -5.04376,18.06909 -6.46574,52.2427 l -1.42222,34.17951 -11.00684,31.25 c -6.05375,17.1875 -11.98184,34.62009 -13.17351,38.73908 -2.38333,8.23792 -17.52233,44.30496 -19.3916,46.19842 -0.73676,0.74629 -1.17286,0.51406 -1.17375,-0.625 -7.6e-4,-0.99687 -1.12514,-10.53125 -2.49859,-21.1875 -1.37345,-10.65625 -2.50644,-23.3125 -2.51774,-28.125 -0.0319,-13.5922 -1.81108,-13.76174 -4.36016,-0.41549 -2.60866,13.65834 -21.79767,70.5625 -29.08874,86.26135 -5.21803,11.2353 -12.1305,22.27914 -13.94476,22.27914 -0.57271,0 -1.44535,-5.48438 -1.9392,-12.1875 -2.67118,-36.25693 -5.40735,-54.45519 -10.38376,-69.0625 -5.61558,-16.4834 -5.4494,-16.6541 -7.90994,8.125 -1.68999,17.01909 -7.78454,39.56177 -18.92493,70 -5.86688,16.0298 -8.61921,21.4702 -18.97115,37.5 -6.65976,10.3125 -12.567,18.914 -13.1272,19.1144 -2.10578,0.7532 -10.08242,-53.90606 -10.08242,-69.08902 0,-7.39377 -0.44444,-9.41512 -2.47394,-11.25179 -1.98438,-1.79585 -2.58869,-1.89603 -3.05382,-0.50624 -0.31894,0.95296 -2.54434,8.48265 -4.94534,16.73265 -5.93819,20.404 -29.44505,88.8354 -34.89405,101.5808 -4.48474,10.4899 -15.18681,29.7165 -17.25133,30.9924 -0.62233,0.3847 -1.14306,-0.037 -1.15717,-0.9369 z m 20.17215,-63.106 c 16.72913,-45.6315 28.52304,-79.94104 30.64714,-89.1553 2.30082,-9.9809 4.60791,-13.75 8.41645,-13.75 8.00762,0 13.37112,15.76333 15.73663,46.25 0.72015,9.2812 1.66677,19.9299 2.1036,23.6636 l 0.79424,6.7886 8.74484,-18.0386 c 16.75334,-34.55834 30.55265,-81.19524 34.00159,-114.9136 0.4571,-4.46875 1.40908,-9.98525 2.11555,-12.2589 1.07898,-3.47259 1.80873,-4.07249 4.56169,-3.75 2.56589,0.30057 3.5254,1.33349 4.42067,4.7589 0.62891,2.40625 3.59467,11.27207 6.59059,19.70184 7.60763,21.40596 11.72051,42.15177 11.72051,59.11953 0,3.16908 0.37261,6.13458 0.82804,6.59001 1.65638,1.65637 25.39786,-63.27836 30.43475,-83.24133 8.08418,-32.04054 9.96802,-36.80829 13.94125,-35.28362 2.0444,0.78451 5.345,23.40873 6.88512,47.19466 0.43469,6.71334 1.00509,11.99132 1.26758,11.72885 0.58581,-0.58583 22.03772,-68.61422 26.27075,-83.30994 2.21906,-7.70388 3.0424,-13.54613 2.99475,-21.25 -0.0879,-14.21315 2.04682,-40.5633 4.38723,-54.15373 3.48005,-20.20816 14.53733,-47.53888 28.83307,-71.26792 6.7735,-11.2431 24.89125,-34.7651 36.74336,-47.70335 5.6681,-6.1875 12.8894,-14.6829 16.0473,-18.87868 3.158,-4.19576 12.4951,-16.00826 20.7491,-26.25 29.867,-37.05938 37.5651,-52.2136 43.005,-84.65888 2.2795,-13.59575 2.7071,-21.39888 2.8083,-51.25 0.1113,-32.86153 -0.1022,-36.46427 -3.1983,-53.96244 -1.8246,-10.3125 -4.1247,-21.94853 -5.1111,-25.85783 -4.6584,-18.46048 -15.0443,-39.0255 -26.3964,-52.26717 -3.2417,-3.78125 -9.013,-11.09375 -12.8253,-16.25 -15.9603,-21.58725 -48.80879,-56.8786 -62.58986,-67.24451 -16.46459,-12.38439 -26.30878,-21.295 -51.27258,-46.41012 -23.99907,-24.14455 -34.92757,-36.68922 -40.05105,-45.97403 -2.48022,-4.49467 -2.57766,-4.5475 -1.83766,-0.99634 0.42979,2.0625 1.50402,4.59375 2.3872,5.625 0.88317,1.03125 4.12254,7.21875 7.19857,13.75 6.09199,12.93487 24.07639,40.57595 35.26465,54.19989 3.87303,4.71617 8.53148,11.18492 10.35212,14.375 1.82065,3.19006 5.65945,9.17511 8.53067,13.30011 28.40664,40.81087 32.15256,47.52567 35.09661,62.91281 2.65749,13.88948 2.28272,39.82049 -0.75891,52.50808 -2.96657,12.37458 -16.16242,38.36611 -20.11536,39.62072 -2.68076,0.85084 -6.1189,-1.26101 -6.1189,-3.7585 0,-0.84466 -1.35824,-4.09025 -3.0183,-7.2124 -1.66006,-3.12215 -4.4859,-9.74519 -6.27965,-14.71787 -7.97264,-22.10202 -29.15173,-60.72217 -44.38906,-80.94364 -7.45722,-9.89646 -21.6194,-24.10868 -41.31997,-41.46591 -10.0257,-8.83318 -36.20392,-26.57384 -77.15438,-52.28658 -36.45851,-22.89225 -62.37647,-45.17085 -85.01965,-73.08131 -12.73039,-15.69174 -19.57725,-27.10652 -22.87606,-38.1379 -0.87375,-2.921875 -1.92149,-5.303244 -2.32829,-5.291931 -1.2317,0.03425 -9.12929,21.626811 -9.13636,24.979431 -0.0222,10.59165 -8.07579,52.20446 -14.1799,73.26845 -3.4654,11.9584 -3.8723,12.59584 -24.33675,38.1256 -7.92737,9.88952 -19.64019,24.85639 -26.02852,33.2597 -6.38832,8.40332 -21.73695,25.84083 -34.10807,38.75 -43.00805,44.87865 -64.03761,73.1038 -71.53719,96.0148 -1.69272,5.1712 -5.77981,25.16448 -5.78614,28.30466 -0.004,2.11285 4.33247,4.76922 10.90586,6.68015 10.65762,3.09825 22.83529,9.23294 40.92549,20.61681 25.72077,16.18565 42.33711,31.61676 60.54473,56.22603 8.81519,11.91454 25.3933,39.46869 29.03971,48.26632 2.84006,6.85216 3.96316,7.90537 5.60211,5.25348 0.50444,-0.81619 1.37705,-25.42556 1.93914,-54.6875 1.25106,-65.12926 2.63209,-95.70989 5.28165,-116.9535 1.11471,-8.9375 3.17987,-25.53125 4.58926,-36.875 1.40939,-11.34375 3.09303,-24.7261 3.74143,-29.73856 0.6484,-5.01245 1.17891,-11.69615 1.17891,-14.85266 0,-3.1565 1.10689,-12.5554 2.45975,-20.88644 1.35286,-8.33104 3.32856,-21.61609 4.39043,-29.52234 3.48984,-25.98394 6.87288,-43.79685 8.90773,-46.90241 1.46161,-2.23071 1.92038,-5.50838 1.69909,-12.13919 -0.16672,-4.99587 -0.22526,-10.06777 -0.13008,-11.2709 0.26989,-3.41114 2.67308,-2.5683 2.67308,0.9375 0,1.71875 0.5625,3.125 1.25,3.125 0.6875,0 1.25,-1.45312 1.25,-3.22916 0,-2.03368 0.57846,-3.03226 1.5625,-2.69729 1.13727,0.38714 1.4388,3.47779 1.10797,11.35683 -0.35366,8.42268 -0.007,11.50711 1.55967,13.89897 2.02872,3.09623 5.32449,20.36714 8.95374,46.92065 1.0806,7.90625 3.05628,21.24394 4.39042,29.63931 1.33414,8.39538 2.42499,17.67663 2.4241,20.625 -10e-4,5.36934 0.55883,10.42377 5.02944,45.36069 8.38741,65.54583 8.60419,70.13105 12.29185,260 0.64094,33 1.46314,60.84375 1.82711,61.875 0.88823,2.51655 2.28508,81.32272 2.53691,143.125 l 0.20375,50 5.93128,13.42602 c 7.3976,16.74524 7.70526,22.33974 2.04386,37.16545 -4.61185,12.07722 -9.6689,17.59607 -19.49112,21.27103 -7.43649,2.78235 -9.65057,2.3987 -8.42585,-1.46001 0.55167,-1.73817 -0.19879,-3.55183 -2.43589,-5.88685 -3.73406,-3.89753 -8.0101,-15.7086 -11.95265,-33.01505 -1.51928,-6.66908 -3.19935,-12.12559 -3.7335,-12.12559 -0.53417,0 -1.27732,4.64062 -1.65145,10.3125 -0.60693,9.20097 -2.15728,18.93386 -9.133,57.33587 -2.08657,11.48678 -2.25605,39.41552 -0.24673,40.65736 0.61985,0.38308 3.19826,0.73006 5.72979,0.77106 5.63959,0.0914 7.7278,1.56439 7.7278,5.45126 0,2.11275 0.70436,2.97195 2.43639,2.97195 3.17652,0 7.58559,5.8995 13.08722,17.5111 7.95575,16.7913 11.94989,37.4916 12.0144,62.2669 0.0264,10.1204 0.41283,13.9546 1.26018,12.5023 0.6722,-1.1521 6.34144,-16.0583 12.59831,-33.125 z M 785.625,723.86115 c -7.27949,-3.398 -21.13975,-18.12544 -24.96844,-26.53063 -5.03897,-11.06212 -6.35885,-23.80961 -4.72497,-45.63417 1.11362,-14.87531 2.19651,-21.13247 5.38178,-31.09689 8.93519,-27.95174 20.18223,-47.21741 40.12563,-68.73336 5.7398,-6.19239 14.09225,-15.70493 18.561,-21.13895 10.96706,-13.33601 40.81452,-40.80179 53.125,-48.88586 10.87855,-7.14377 18.1359,-10.46215 37.93347,-17.34489 14.99082,-5.21165 25.89519,-6.05319 29.32512,-2.26315 7.22181,7.98001 12.13455,41.81409 12.09471,83.29635 -0.0225,23.41894 -0.55133,27.3466 -6.82903,50.7204 -4.96293,18.47859 -22.88283,51.72695 -36.88798,68.44159 -16.85985,20.12161 -20.40965,22.50947 -47.2661,31.79486 -7.84794,2.71336 -19.38129,7.18309 -25.62967,9.93274 -6.24838,2.74966 -15.60866,5.96681 -20.80061,7.14925 -8.00601,1.82331 -9.68792,2.66557 -11.07264,5.54494 -1.71881,3.57406 -7.31968,7.15552 -11.1177,7.10917 -1.23726,-0.0151 -4.49957,-1.07774 -7.24957,-2.3614 z m 78.00271,-94.04767 c 3.05154,-8.75363 0.0113,-22.99886 -8.30871,-38.92894 -8.06671,-15.44543 -16.42328,-18.45304 -33.1315,-11.92441 -3.95779,1.54647 -4.25741,3.74981 -1.43801,10.57472 2.70341,6.54418 5.02726,8.91874 9.69262,9.90414 5.05987,1.06874 11.53465,5.00427 12.78952,7.77381 0.53883,1.18921 1.29777,6.0997 1.68653,10.9122 l 0.70684,8.75 6.78664,3.4375 c 3.73266,1.89062 7.47451,3.4375 8.31522,3.4375 0.84072,0 2.1461,-1.77144 2.90085,-3.93652 z M 445.86624,900.33629 c -0.31693,-1.21621 -0.59708,-0.52379 -0.62255,1.53871 -0.0255,2.0625 0.23382,3.05758 0.57623,2.21129 0.3424,-0.84629 0.36324,-2.53379 0.0464,-3.75 z M 557.19784,649.4216 c 5.10386,-5.79829 9.99631,-18.98355 11.28444,-30.41181 0.8393,-7.44624 -6.54954,-22.16323 -14.56875,-29.01783 -7.56419,-6.46567 -20.59902,-12.73846 -25.45518,-12.24985 C 523.3545,578.25564 520,584.47255 520,593.418 l 0,6.582 10.3125,0.005 c 11.71715,0.005 17.54427,2.48323 19.80159,8.42039 2.54591,6.69626 -1.88305,18.15161 -10.00258,25.8713 -2.12382,2.01925 -3.86151,4.61995 -3.86151,5.77934 0,1.15937 2.10937,4.98308 4.6875,8.49713 6.17101,8.41124 9.45279,8.58255 16.26034,0.84877 z M 289.855,338.62864 C 290.65074,336.34599 290.67359,335 289.9166,335 c -1.48868,0 -6.15555,7.48374 -6.16192,9.88124 -0.007,2.7801 4.5965,-1.93872 6.10032,-6.2526 z m 49.63337,-64.55694 c -0.86687,-0.86686 -3.23837,0.89444 -3.23837,2.40513 0,0.82887 0.71722,0.73403 1.90521,-0.2519 1.04786,-0.86965 1.64779,-1.8386 1.33316,-2.15323 z M 556.36583,208.99694 C 554.65165,208.42555 550,211.0691 550,212.61465 c 0,0.70217 1.70844,0.26749 3.79652,-0.96598 2.08809,-1.23346 3.24428,-2.42673 2.5693,-2.65173 z M 459.6721,158.605 c 1.44131,-3.81845 1.42212,-3.85149 -0.97595,-1.68126 -1.34539,1.21755 -2.44615,2.9703 -2.44615,3.895 0,3.0127 1.91756,1.77223 3.4221,-2.21374 z"
     style="fill:#ffbc30;fill-opacity:1" />
  <path
     sodipodi:nodetypes="cssscssscsssscsssssssssscsssssssssssssssssssssssssssssssssssscssssssssssssssssssssssssscsssssscssscsssssssssscsssssccssssscssssssssssscssssscsssscssssssssssssssssssssssscssssscsssssssssssssssssssscsscsscscsssssssssccssssssssssssssssssssssssssssssscsssssssscssssssssssscc"
     inkscape:connector-curvature="0"
     id="path3344"
     d="m 707.47435,1118.5113 c -0.0141,-0.9 -0.85096,-10.0738 -1.85968,-20.3863 -1.00872,-10.3125 -1.85075,-24.0937 -1.87117,-30.625 -0.0879,-28.0729 -7.53458,-51.6872 -20.20208,-64.0625 -4.39346,-4.29211 -6.87787,-4.28502 -11.78088,0.034 -7.8118,6.8808 -11.29672,13.1714 -16.42788,29.6539 -4.4981,14.449 -5.14591,18.1386 -5.84504,33.29 -0.56501,12.2448 -0.22336,21.6571 1.21406,33.447 1.10017,9.0239 1.81391,16.9662 1.58609,17.6497 -0.91005,2.7301 -16.05407,-24.2315 -23.32925,-41.5341 -9.46631,-22.5139 -24.69148,-65.1534 -31.5042,-88.2304 -6.02637,-20.41345 -7.42681,-24.16175 -8.72708,-23.35813 -2.16172,1.33602 -6.24575,18.48269 -8.04752,33.78713 -1.04886,8.9093 -1.91213,23.6187 -1.91838,32.6875 -0.006,9.0688 -0.51018,16.7971 -1.11987,17.1739 -3.53687,2.1859 -23.25108,-33.6723 -37.4059,-68.0376 -8.57663,-20.82253 -14.58595,-47.21474 -16.02372,-70.3744 -0.46094,-7.42466 -1.26385,-13.04966 -1.78425,-12.5 -2.98145,3.14907 -9.07931,25.772 -12.9642,48.09689 -8.03934,46.19886 -8.59649,49.14452 -9.48953,50.17112 -0.48735,0.56024 -8.76365,-18.84601 -18.39176,-43.125 C 466.48867,914.2079 463.7838,906.3164 461.95279,895 c -2.08909,-12.91136 -4.16035,-21.21806 -4.3541,-17.46188 -0.20684,4.00978 -5.10793,52.10039 -5.85615,57.46188 l -0.785,5.625 -12.95578,-26.70736 c -12.73556,-26.25337 -13.11656,-27.3011 -22.41385,-61.63607 -8.53967,-31.53715 -9.58316,-36.65113 -10.7465,-52.66763 -2.26806,-31.22619 -5.68075,-54.55203 -9.91525,-67.77128 C 388.66363,712.29231 371.99114,680.89926 359.4268,665 c -3.53141,-4.46875 -7.887,-10.375 -9.67908,-13.125 -1.79207,-2.75 -7.46027,-9.5772 -12.59598,-15.17154 -5.13573,-5.59435 -11.20794,-12.90685 -13.49382,-16.25 C 321.37204,617.1103 313.56294,606.5 306.30435,596.875 c -14.51703,-19.24981 -34.24654,-50.36691 -37.70398,-59.46615 -3.21158,-8.45217 -6.93063,-23.76784 -9.1565,-37.70789 -2.33023,-14.59376 -2.69117,-68.25139 -0.58515,-86.98791 1.71802,-15.28445 5.32924,-33.87614 9.38912,-48.33805 5.46446,-19.4653 22.41491,-44.68306 55.40011,-82.42065 23.03525,-26.35409 37.75312,-41.76801 45.10205,-47.2351 16.44087,-12.23084 43.16458,-34.63443 55.01837,-46.12419 3.10387,-3.00854 8.29668,-8.84506 11.53959,-12.97006 3.2429,-4.125 9.42214,-11.47562 13.73162,-16.33474 4.30948,-4.8591 10.53971,-12.03097 13.84496,-15.9375 10.01141,-11.83264 12.95951,-8.20437 5.25606,6.4687 -2.39766,4.56695 -6.12984,12.52229 -8.29372,17.67854 -4.25717,10.14429 -19.78613,35.31539 -30.46122,49.375 -3.65401,4.8125 -11.27996,16.0625 -16.94655,25 -5.6666,8.9375 -14.07603,21.875 -18.68763,28.75 -11.17125,16.65417 -13.60279,21.68926 -15.59669,32.29672 -4.22464,22.47478 -3.33906,44.36303 2.45986,60.79894 2.3264,6.59372 10.80591,20.15195 12.30206,19.67025 0.57294,-0.18446 2.22435,-3.13225 3.6698,-6.55065 1.44545,-3.4184 4.11724,-8.46526 5.93733,-11.21526 1.82007,-2.75 5.44925,-10.625 8.06481,-17.5 5.67348,-14.91269 15.25341,-32.6917 27.27846,-50.625 6.67445,-9.95379 13.98728,-18.28348 30.2663,-34.47486 C 493.93473,237.36271 511.05909,224.0753 555,195.6222 575.22241,182.52756 582.50754,176.8968 606.25,156.01046 625.31701,139.23714 630.70905,133.55277 643.96576,116.25 658.0973,97.805391 662.3337,88.341009 671.24234,55.3125 L 674.02388,45 l 4.81488,0 c 4.62049,0 4.86912,0.214482 6.15838,5.3125 4.1485,16.404204 10.84432,37.44572 13.82265,43.4375 9.03841,18.18342 27.53816,40.27642 51.511,61.5161 24.58743,21.7842 28.63771,24.87409 57.79421,44.09025 45.14448,29.75335 64.625,45.41482 90.85802,73.04584 18.95769,19.96797 38.01427,50.35083 47.88647,76.34781 2.4802,6.53125 5.85897,13.84375 7.50837,16.25 1.6494,2.40625 4.47413,7.60937 6.27717,11.5625 1.80303,3.95312 3.65888,7.18257 4.12411,7.17656 1.81094,-0.0234 10.58675,-15.32317 12.70915,-22.15714 4.40769,-14.19249 5.40134,-24.94845 3.91051,-42.33027 -2.04104,-23.79666 -3.32551,-27.22975 -18.89505,-50.50165 -5.2895,-7.90625 -14.00769,-21.40625 -19.37376,-30 -5.36607,-8.59375 -11.56123,-17.875 -13.76701,-20.625 -4.54487,-5.66618 -14.99905,-20.96376 -22.76963,-33.31871 -2.8776,-4.57529 -7.58521,-13.85654 -10.46136,-20.625 -2.87614,-6.76847 -6.28079,-13.80583 -7.56588,-15.63859 -4.79148,-6.8335 -3.99181,-15.02394 1.05815,-10.83781 1.10812,0.91856 5.11562,5.60761 8.90555,10.42011 3.78994,4.8125 10.0644,12.125 13.94324,16.25 3.87884,4.125 9.34223,10.6197 12.14086,14.43266 7.15435,9.74735 30.41082,30.47543 61.11305,54.469 23.29374,18.20393 71.77374,73.24054 88.70434,100.70124 5.3869,8.73726 13.9061,28.75019 16.6644,39.1471 6.9778,26.30181 8.9572,44.98306 8.9464,84.43236 -0.01,33.41531 -1.9298,49.94429 -8.2727,71.19264 -5.2757,17.67366 -24.9477,48.4495 -61.6692,96.47823 -2.4613,3.21926 -8.4127,10.29428 -13.2252,15.72227 -16.254,18.33279 -28.69395,35.29034 -41.47462,56.5363 -12.06004,20.04804 -12.98803,22.0962 -17.76813,39.21599 -5.04265,18.06006 -5.04376,18.06909 -6.46574,52.2427 l -1.42222,34.17951 -11.00684,31.25 c -6.05375,17.1875 -11.98184,34.62009 -13.17351,38.73908 -2.38333,8.23792 -17.52233,44.30496 -19.3916,46.19842 -0.73676,0.74629 -1.17286,0.51406 -1.17375,-0.625 -7.6e-4,-0.99687 -1.12514,-10.53125 -2.49859,-21.1875 -1.37345,-10.65625 -2.50644,-23.3125 -2.51774,-28.125 -0.0319,-13.5922 -1.81108,-13.76174 -4.36016,-0.41549 -2.60866,13.65834 -21.79767,70.5625 -29.08874,86.26135 -5.21803,11.2353 -12.1305,22.27914 -13.94476,22.27914 -0.57271,0 -1.44535,-5.48438 -1.9392,-12.1875 -2.67118,-36.25693 -5.40735,-54.45519 -10.38376,-69.0625 -5.61558,-16.4834 -5.4494,-16.6541 -7.90994,8.125 -1.68999,17.01909 -7.78454,39.56177 -18.92493,70 -5.86688,16.0298 -8.61921,21.4702 -18.97115,37.5 -6.65976,10.3125 -12.567,18.914 -13.1272,19.1144 -2.10578,0.7532 -10.08242,-53.90606 -10.08242,-69.08902 0,-7.39377 -0.44444,-9.41512 -2.47394,-11.25179 -1.98438,-1.79585 -2.58869,-1.89603 -3.05382,-0.50624 -0.31894,0.95296 -2.54434,8.48265 -4.94534,16.73265 -5.93819,20.404 -29.44505,88.8354 -34.89405,101.5808 -4.48474,10.4899 -15.18681,29.7165 -17.25133,30.9924 -0.62233,0.3847 -1.14306,-0.037 -1.15717,-0.9369 z m 20.17215,-63.106 c 16.72913,-45.6315 28.52304,-79.94104 30.64714,-89.1553 2.30082,-9.9809 4.60791,-13.75 8.41645,-13.75 8.00762,0 13.37112,15.76333 15.73663,46.25 0.72015,9.2812 1.66677,19.9299 2.1036,23.6636 l 0.79424,6.7886 8.74484,-18.0386 c 16.75334,-34.55834 30.55265,-81.19524 34.00159,-114.9136 0.4571,-4.46875 1.40908,-9.98525 2.11555,-12.2589 1.07898,-3.47259 1.80873,-4.07249 4.56169,-3.75 2.56589,0.30057 3.5254,1.33349 4.42067,4.7589 0.62891,2.40625 3.59467,11.27207 6.59059,19.70184 7.60763,21.40596 11.72051,42.15177 11.72051,59.11953 0,3.16908 0.37261,6.13458 0.82804,6.59001 1.65638,1.65637 25.39786,-63.27836 30.43475,-83.24133 8.08418,-32.04054 9.96802,-36.80829 13.94125,-35.28362 2.0444,0.78451 5.345,23.40873 6.88512,47.19466 0.43469,6.71334 1.00509,11.99132 1.26758,11.72885 0.58581,-0.58583 22.03772,-68.61422 26.27075,-83.30994 2.21906,-7.70388 3.0424,-13.54613 2.99475,-21.25 -0.0879,-14.21315 2.04682,-40.5633 4.38723,-54.15373 3.48005,-20.20816 14.53733,-47.53888 28.83307,-71.26792 6.7735,-11.2431 24.89125,-34.7651 36.74336,-47.70335 5.6681,-6.1875 12.8894,-14.6829 16.0473,-18.87868 3.158,-4.19576 12.4951,-16.00826 20.7491,-26.25 29.867,-37.05938 37.5651,-52.2136 43.005,-84.65888 2.2795,-13.59575 2.7071,-21.39888 2.8083,-51.25 0.1113,-32.86153 -0.1022,-36.46427 -3.1983,-53.96244 -1.8246,-10.3125 -4.1247,-21.94853 -5.1111,-25.85783 -4.6584,-18.46048 -15.0443,-39.0255 -26.3964,-52.26717 -3.2417,-3.78125 -9.013,-11.09375 -12.8253,-16.25 -15.9603,-21.58725 -48.80879,-56.8786 -62.58986,-67.24451 -16.46459,-12.38439 -26.30878,-21.295 -51.27258,-46.41012 -23.99907,-24.14455 -34.92757,-36.68922 -40.05105,-45.97403 -2.48022,-4.49467 -2.57766,-4.5475 -1.83766,-0.99634 0.42979,2.0625 1.50402,4.59375 2.3872,5.625 0.88317,1.03125 4.12254,7.21875 7.19857,13.75 6.09199,12.93487 24.07639,40.57595 35.26465,54.19989 3.87303,4.71617 8.53148,11.18492 10.35212,14.375 1.82065,3.19006 5.65945,9.17511 8.53067,13.30011 28.40664,40.81087 32.15256,47.52567 35.09661,62.91281 2.65749,13.88948 2.28272,39.82049 -0.75891,52.50808 -2.96657,12.37458 -16.16242,38.36611 -20.11536,39.62072 -2.68076,0.85084 -6.1189,-1.26101 -6.1189,-3.7585 0,-0.84466 -1.35824,-4.09025 -3.0183,-7.2124 -1.66006,-3.12215 -4.4859,-9.74519 -6.27965,-14.71787 -7.97264,-22.10202 -29.15173,-60.72217 -44.38906,-80.94364 -7.45722,-9.89646 -21.6194,-24.10868 -41.31997,-41.46591 -10.0257,-8.83318 -36.20392,-26.57384 -77.15438,-52.28658 -36.45851,-22.89225 -62.37647,-45.17085 -85.01965,-73.08131 -12.73039,-15.69174 -19.57725,-27.10652 -22.87606,-38.1379 -0.87375,-2.921875 -1.92149,-5.303244 -2.32829,-5.291931 -1.2317,0.03425 -9.12929,21.626811 -9.13636,24.979431 -0.0222,10.59165 -8.07579,52.20446 -14.1799,73.26845 -3.4654,11.9584 -3.8723,12.59584 -24.33675,38.1256 -7.92737,9.88952 -19.64019,24.85639 -26.02852,33.2597 -6.38832,8.40332 -21.73695,25.84083 -34.10807,38.75 -43.00805,44.87865 -64.03761,73.1038 -71.53719,96.0148 -1.69272,5.1712 -5.77981,25.16448 -5.78614,28.30466 -0.004,2.11285 4.33247,4.76922 10.90586,6.68015 10.65762,3.09825 22.83529,9.23294 40.92549,20.61681 25.72077,16.18565 42.33711,31.61676 60.54473,56.22603 8.81519,11.91454 25.3933,39.46869 29.03971,48.26632 2.84006,6.85216 3.96316,7.90537 5.60211,5.25348 0.50444,-0.81619 1.37705,-25.42556 1.93914,-54.6875 1.25106,-65.12926 2.63209,-95.70989 5.28165,-116.9535 1.11471,-8.9375 3.17987,-25.53125 4.58926,-36.875 1.40939,-11.34375 3.09303,-24.7261 3.74143,-29.73856 0.6484,-5.01245 1.17891,-11.69615 1.17891,-14.85266 0,-3.1565 1.10689,-12.5554 2.45975,-20.88644 1.35286,-8.33104 3.32856,-21.61609 4.39043,-29.52234 3.48984,-25.98394 6.87288,-43.79685 8.90773,-46.90241 1.46161,-2.23071 1.92038,-5.50838 1.69909,-12.13919 -0.16672,-4.99587 -0.22526,-10.06777 -0.13008,-11.2709 0.26989,-3.41114 2.67308,-2.5683 2.67308,0.9375 0,1.71875 0.5625,3.125 1.25,3.125 0.6875,0 1.25,-1.45312 1.25,-3.22916 0,-2.03368 0.57846,-3.03226 1.5625,-2.69729 1.13727,0.38714 1.4388,3.47779 1.10797,11.35683 -0.35366,8.42268 -0.007,11.50711 1.55967,13.89897 2.02872,3.09623 5.32449,20.36714 8.95374,46.92065 1.0806,7.90625 3.05628,21.24394 4.39042,29.63931 1.33414,8.39538 2.42499,17.67663 2.4241,20.625 -10e-4,5.36934 0.55883,10.42377 5.02944,45.36069 8.38741,65.54583 8.60419,70.13105 12.29185,260 0.64094,33 1.46314,60.84375 1.82711,61.875 0.88823,2.51655 2.28508,81.32272 2.53691,143.125 l 0.20375,50 5.93128,13.42602 c 7.3976,16.74524 7.70526,22.33974 2.04386,37.16545 -4.61185,12.07722 -9.6689,17.59607 -19.49112,21.27103 -7.43649,2.78235 -9.65057,2.3987 -8.42585,-1.46001 0.55167,-1.73817 -0.19879,-3.55183 -2.43589,-5.88685 -3.73406,-3.89753 -8.0101,-15.7086 -11.95265,-33.01505 -1.51928,-6.66908 -3.19935,-12.12559 -3.7335,-12.12559 -0.53417,0 -1.27732,4.64062 -1.65145,10.3125 -0.60693,9.20097 -2.15728,18.93386 -9.133,57.33587 -2.08657,11.48678 -2.25605,39.41552 -0.24673,40.65736 0.61985,0.38308 3.19826,0.73006 5.72979,0.77106 5.63959,0.0914 7.7278,1.56439 7.7278,5.45126 0,2.11275 0.70436,2.97195 2.43639,2.97195 3.17652,0 7.58559,5.8995 13.08722,17.5111 7.95575,16.7913 11.94989,37.4916 12.0144,62.2669 0.0264,10.1204 0.41283,13.9546 1.26018,12.5023 0.6722,-1.1521 6.34144,-16.0583 12.59831,-33.125 z M 785.625,723.86115 c -7.27949,-3.398 -21.13975,-18.12544 -24.96844,-26.53063 -5.03897,-11.06212 -6.35885,-23.80961 -4.72497,-45.63417 1.11362,-14.87531 2.19651,-21.13247 5.38178,-31.09689 8.93519,-27.95174 20.18223,-47.21741 40.12563,-68.73336 5.7398,-6.19239 14.09225,-15.70493 18.561,-21.13895 10.96706,-13.33601 40.81452,-40.80179 53.125,-48.88586 10.87855,-7.14377 18.1359,-10.46215 37.93347,-17.34489 14.99082,-5.21165 25.89519,-6.05319 29.32512,-2.26315 7.22181,7.98001 12.13455,41.81409 12.09471,83.29635 -0.0225,23.41894 -0.55133,27.3466 -6.82903,50.7204 -4.96293,18.47859 -22.88283,51.72695 -36.88798,68.44159 -16.85985,20.12161 -20.40965,22.50947 -47.2661,31.79486 -7.84794,2.71336 -19.38129,7.18309 -25.62967,9.93274 -6.24838,2.74966 -15.60866,5.96681 -20.80061,7.14925 -8.00601,1.82331 -9.68792,2.66557 -11.07264,5.54494 -1.71881,3.57406 -7.31968,7.15552 -11.1177,7.10917 -1.23726,-0.0151 -4.49957,-1.07774 -7.24957,-2.3614 z m 57.2227,-67.61475 c 6.54185,-2.44762 11.01539,-6.21049 14.85655,-12.4964 C 861.13467,638.13624 865,626.26054 865,621.33478 c 0,-10.61775 -10.65251,-36.21684 -17.22085,-41.38351 -7.72303,-6.07492 -17.34904,-5.37727 -32.15415,2.33039 -10.40156,5.41514 -12.64395,7.65285 -15.05471,15.02335 -2.35672,7.20524 -1.8855,10.68581 2.13941,15.80266 l 2.76401,3.51388 1.32565,-5.45908 c 1.95939,-8.0689 7.14935,-11.16495 18.69799,-11.15423 13.53366,0.0125 19.39876,4.91547 19.42916,16.24176 0.0176,6.55097 -4.94652,16.5541 -10.09857,20.34953 -1.81338,1.33588 -5.18393,2.52378 -7.49012,2.63977 -4.86025,0.24444 -5.89586,2.68859 -3.54448,8.36533 1.52053,3.67091 9.03382,11.14537 11.20326,11.14537 0.63779,0 4.17079,-1.12663 7.8511,-2.5036 z m -295.20939,0.21223 c 8.27176,-3.5457 13.94974,-10.86345 17.37085,-22.38754 4.83669,-16.2924 4.77239,-19.12506 -0.6779,-29.86297 -5.49227,-10.82065 -11.9475,-16.98149 -24.26491,-23.15837 -13.75034,-6.89545 -25.46984,-4.89704 -30.71021,5.23672 -2.40224,4.64543 -2.37663,14.08115 0.051,18.77561 2.252,4.3549 3.74495,4.64085 5.64954,1.0821 2.03866,-3.80929 8.77792,-6.14483 17.71571,-6.1395 17.00426,0.01 22.86677,10.64667 14.12105,25.62032 -6.08543,10.41893 -13.89432,15.29044 -20.70458,12.91636 -4.86155,-1.69473 -7.19242,0.22166 -8.25828,6.78985 -1.12394,6.92598 0.36623,10.83023 4.92552,12.9049 5.19024,2.3618 17.12221,1.50599 24.78225,-1.77748 z"
     style="fill:#ababab;fill-opacity:1" />
  <path
     inkscape:connector-curvature="0"
     id="path3342"
     d="m 707.47435,1118.5113 c -0.0141,-0.9 -0.85096,-10.0738 -1.85968,-20.3863 -1.00872,-10.3125 -1.85075,-24.0937 -1.87117,-30.625 -0.0879,-28.0729 -7.53458,-51.6872 -20.20208,-64.0625 -4.39346,-4.29211 -6.87787,-4.28502 -11.78088,0.034 -7.8118,6.8808 -11.29672,13.1714 -16.42788,29.6539 -4.4981,14.449 -5.14591,18.1386 -5.84504,33.29 -0.56501,12.2448 -0.22336,21.6571 1.21406,33.447 1.10017,9.0239 1.81391,16.9662 1.58609,17.6497 -0.91005,2.7301 -16.05407,-24.2315 -23.32925,-41.5341 -9.46631,-22.5139 -24.69148,-65.1534 -31.5042,-88.2304 -6.02637,-20.41345 -7.42681,-24.16175 -8.72708,-23.35813 -2.16172,1.33602 -6.24575,18.48269 -8.04752,33.78713 -1.04886,8.9093 -1.91213,23.6187 -1.91838,32.6875 -0.006,9.0688 -0.51018,16.7971 -1.11987,17.1739 -3.53687,2.1859 -23.25108,-33.6723 -37.4059,-68.0376 -8.57663,-20.82253 -14.58595,-47.21474 -16.02372,-70.3744 -0.46094,-7.42466 -1.26385,-13.04966 -1.78425,-12.5 -2.98145,3.14907 -9.07931,25.772 -12.9642,48.09689 -8.03934,46.19886 -8.59649,49.14452 -9.48953,50.17112 -0.48735,0.56024 -8.76365,-18.84601 -18.39176,-43.125 C 466.48867,914.2079 463.7838,906.3164 461.95279,895 c -2.08909,-12.91136 -4.16035,-21.21806 -4.3541,-17.46188 -0.20684,4.00978 -5.10793,52.10039 -5.85615,57.46188 l -0.785,5.625 -12.95578,-26.70736 c -12.73556,-26.25337 -13.11656,-27.3011 -22.41385,-61.63607 -8.53967,-31.53715 -9.58316,-36.65113 -10.7465,-52.66763 -2.26806,-31.22619 -5.68075,-54.55203 -9.91525,-67.77128 C 388.66363,712.29231 371.99114,680.89926 359.4268,665 c -3.53141,-4.46875 -7.887,-10.375 -9.67908,-13.125 -1.79207,-2.75 -7.46027,-9.5772 -12.59598,-15.17154 -5.13573,-5.59435 -11.20794,-12.90685 -13.49382,-16.25 C 321.37204,617.1103 313.56294,606.5 306.30435,596.875 c -14.51703,-19.24981 -34.24654,-50.36691 -37.70398,-59.46615 -3.21158,-8.45217 -6.93063,-23.76784 -9.1565,-37.70789 -2.33023,-14.59376 -2.69117,-68.25139 -0.58515,-86.98791 1.71802,-15.28445 5.32924,-33.87614 9.38912,-48.33805 5.46446,-19.4653 22.41491,-44.68306 55.40011,-82.42065 23.03525,-26.35409 37.75312,-41.76801 45.10205,-47.2351 16.44087,-12.23084 43.16458,-34.63443 55.01837,-46.12419 3.10387,-3.00854 8.29668,-8.84506 11.53959,-12.97006 3.2429,-4.125 9.42214,-11.47562 13.73162,-16.33474 4.30948,-4.8591 10.53971,-12.03097 13.84496,-15.9375 10.01141,-11.83264 12.95951,-8.20437 5.25606,6.4687 -2.39766,4.56695 -6.12984,12.52229 -8.29372,17.67854 -4.25717,10.14429 -19.78613,35.31539 -30.46122,49.375 -3.65401,4.8125 -11.27996,16.0625 -16.94655,25 -5.6666,8.9375 -14.07603,21.875 -18.68763,28.75 -11.17125,16.65417 -13.60279,21.68926 -15.59669,32.29672 -4.22464,22.47478 -3.33906,44.36303 2.45986,60.79894 2.3264,6.59372 10.80591,20.15195 12.30206,19.67025 0.57294,-0.18446 2.22435,-3.13225 3.6698,-6.55065 1.44545,-3.4184 4.11724,-8.46526 5.93733,-11.21526 1.82007,-2.75 5.44925,-10.625 8.06481,-17.5 5.67348,-14.91269 15.25341,-32.6917 27.27846,-50.625 6.67445,-9.95379 13.98728,-18.28348 30.2663,-34.47486 C 493.93473,237.36271 511.05909,224.0753 555,195.6222 575.22241,182.52756 582.50754,176.8968 606.25,156.01046 625.31701,139.23714 630.70905,133.55277 643.96576,116.25 658.0973,97.805391 662.3337,88.341009 671.24234,55.3125 L 674.02388,45 l 4.81488,0 c 4.62049,0 4.86912,0.214482 6.15838,5.3125 4.1485,16.404204 10.84432,37.44572 13.82265,43.4375 9.03841,18.18342 27.53816,40.27642 51.511,61.5161 24.58743,21.7842 28.63771,24.87409 57.79421,44.09025 45.14448,29.75335 64.625,45.41482 90.85802,73.04584 18.95769,19.96797 38.01427,50.35083 47.88647,76.34781 2.4802,6.53125 5.85897,13.84375 7.50837,16.25 1.6494,2.40625 4.47413,7.60937 6.27717,11.5625 1.80303,3.95312 3.65888,7.18257 4.12411,7.17656 1.81094,-0.0234 10.58675,-15.32317 12.70915,-22.15714 4.40769,-14.19249 5.40134,-24.94845 3.91051,-42.33027 -2.04104,-23.79666 -3.32551,-27.22975 -18.89505,-50.50165 -5.2895,-7.90625 -14.00769,-21.40625 -19.37376,-30 -5.36607,-8.59375 -11.56123,-17.875 -13.76701,-20.625 -4.54487,-5.66618 -14.99905,-20.96376 -22.76963,-33.31871 -2.8776,-4.57529 -7.58521,-13.85654 -10.46136,-20.625 -2.87614,-6.76847 -6.28079,-13.80583 -7.56588,-15.63859 -4.79148,-6.8335 -3.99181,-15.02394 1.05815,-10.83781 1.10812,0.91856 5.11562,5.60761 8.90555,10.42011 3.78994,4.8125 10.0644,12.125 13.94324,16.25 3.87884,4.125 9.34223,10.6197 12.14086,14.43266 7.15435,9.74735 30.41082,30.47543 61.11305,54.469 23.29374,18.20393 71.77374,73.24054 88.70434,100.70124 5.3869,8.73726 13.9061,28.75019 16.6644,39.1471 6.9778,26.30181 8.9572,44.98306 8.9464,84.43236 -0.01,33.41531 -1.9298,49.94429 -8.2727,71.19264 -5.2757,17.67366 -24.9477,48.4495 -61.6692,96.47823 -2.4613,3.21926 -8.4127,10.29428 -13.2252,15.72227 -16.254,18.33279 -28.69395,35.29034 -41.47462,56.5363 -12.06004,20.04804 -12.98803,22.0962 -17.76813,39.21599 -5.04265,18.06006 -5.04376,18.06909 -6.46574,52.2427 l -1.42222,34.17951 -11.00684,31.25 c -6.05375,17.1875 -11.98184,34.62009 -13.17351,38.73908 -2.38333,8.23792 -17.52233,44.30496 -19.3916,46.19842 -0.73676,0.74629 -1.17286,0.51406 -1.17375,-0.625 -7.6e-4,-0.99687 -1.12514,-10.53125 -2.49859,-21.1875 -1.37345,-10.65625 -2.50644,-23.3125 -2.51774,-28.125 -0.0319,-13.5922 -1.81108,-13.76174 -4.36016,-0.41549 -2.60866,13.65834 -21.79767,70.5625 -29.08874,86.26135 -5.21803,11.2353 -12.1305,22.27914 -13.94476,22.27914 -0.57271,0 -1.44535,-5.48438 -1.9392,-12.1875 -2.67118,-36.25693 -5.40735,-54.45519 -10.38376,-69.0625 -5.61558,-16.4834 -5.4494,-16.6541 -7.90994,8.125 -1.68999,17.01909 -7.78454,39.56177 -18.92493,70 -5.86688,16.0298 -8.61921,21.4702 -18.97115,37.5 -6.65976,10.3125 -12.567,18.914 -13.1272,19.1144 -2.10578,0.7532 -10.08242,-53.90606 -10.08242,-69.08902 0,-7.39377 -0.44444,-9.41512 -2.47394,-11.25179 -1.98438,-1.79585 -2.58869,-1.89603 -3.05382,-0.50624 -0.31894,0.95296 -2.54434,8.48265 -4.94534,16.73265 -5.93819,20.404 -29.44505,88.8354 -34.89405,101.5808 -4.48474,10.4899 -15.18681,29.7165 -17.25133,30.9924 -0.62233,0.3847 -1.14306,-0.037 -1.15717,-0.9369 z m 20.17215,-63.106 c 16.72913,-45.6315 28.52304,-79.94104 30.64714,-89.1553 2.30082,-9.9809 4.60791,-13.75 8.41645,-13.75 8.00762,0 13.37112,15.76333 15.73663,46.25 0.72015,9.2812 1.66677,19.9299 2.1036,23.6636 l 0.79424,6.7886 8.74484,-18.0386 c 16.75334,-34.55834 30.55265,-81.19524 34.00159,-114.9136 0.4571,-4.46875 1.40908,-9.98525 2.11555,-12.2589 1.07898,-3.47259 1.80873,-4.07249 4.56169,-3.75 2.56589,0.30057 3.5254,1.33349 4.42067,4.7589 0.62891,2.40625 3.59467,11.27207 6.59059,19.70184 7.60763,21.40596 11.72051,42.15177 11.72051,59.11953 0,3.16908 0.37261,6.13458 0.82804,6.59001 1.65638,1.65637 25.39786,-63.27836 30.43475,-83.24133 8.08418,-32.04054 9.96802,-36.80829 13.94125,-35.28362 2.0444,0.78451 5.345,23.40873 6.88512,47.19466 0.43469,6.71334 1.00509,11.99132 1.26758,11.72885 0.58581,-0.58583 22.03772,-68.61422 26.27075,-83.30994 2.21906,-7.70388 3.0424,-13.54613 2.99475,-21.25 -0.0879,-14.21315 2.04682,-40.5633 4.38723,-54.15373 3.48005,-20.20816 14.53733,-47.53888 28.83307,-71.26792 6.7735,-11.2431 24.89125,-34.7651 36.74336,-47.70335 5.6681,-6.1875 12.8894,-14.6829 16.0473,-18.87868 3.158,-4.19576 12.4951,-16.00826 20.7491,-26.25 29.867,-37.05938 37.5651,-52.2136 43.005,-84.65888 2.2795,-13.59575 2.7071,-21.39888 2.8083,-51.25 0.1113,-32.86153 -0.1022,-36.46427 -3.1983,-53.96244 -1.8246,-10.3125 -4.1247,-21.94853 -5.1111,-25.85783 -4.6584,-18.46048 -15.0443,-39.0255 -26.3964,-52.26717 -3.2417,-3.78125 -9.013,-11.09375 -12.8253,-16.25 -15.9603,-21.58725 -48.80879,-56.8786 -62.58986,-67.24451 -16.46459,-12.38439 -26.30878,-21.295 -51.27258,-46.41012 -23.99907,-24.14455 -34.92757,-36.68922 -40.05105,-45.97403 -2.48022,-4.49467 -2.57766,-4.5475 -1.83766,-0.99634 0.42979,2.0625 1.50402,4.59375 2.3872,5.625 0.88317,1.03125 4.12254,7.21875 7.19857,13.75 6.09199,12.93487 24.07639,40.57595 35.26465,54.19989 3.87303,4.71617 8.53148,11.18492 10.35212,14.375 1.82065,3.19006 5.65945,9.17511 8.53067,13.30011 28.40664,40.81087 32.15256,47.52567 35.09661,62.91281 2.65749,13.88948 2.28272,39.82049 -0.75891,52.50808 -2.96657,12.37458 -16.16242,38.36611 -20.11536,39.62072 -2.68076,0.85084 -6.1189,-1.26101 -6.1189,-3.7585 0,-0.84466 -1.35824,-4.09025 -3.0183,-7.2124 -1.66006,-3.12215 -4.4859,-9.74519 -6.27965,-14.71787 -7.97264,-22.10202 -29.15173,-60.72217 -44.38906,-80.94364 -7.45722,-9.89646 -21.6194,-24.10868 -41.31997,-41.46591 -10.0257,-8.83318 -36.20392,-26.57384 -77.15438,-52.28658 C 752.63013,176.13946 726.71217,153.86086 704.06899,125.9504 691.3386,110.25866 684.49174,98.84388 681.19293,87.8125 680.31918,84.890625 679.26958,82.5 678.86049,82.5 c -0.40909,0 -2.05458,3.796875 -3.65663,8.4375 -5.27741,15.2869 -13.16078,27.15716 -34.57886,52.0666 -5.94186,6.91044 -33.37371,30.55417 -48.125,41.47931 -3.78125,2.80048 -17.28125,11.56473 -30,19.4761 -37.41316,23.2719 -59.31419,38.20454 -70.95258,48.37713 -17.2216,15.05262 -38.04102,36.29653 -44.26091,45.16336 -17.04231,24.29482 -36.35335,62.09715 -49.15397,96.22131 -2.0588,5.4884 -5.82052,8.18503 -9.02529,6.46988 -3.52553,-1.88679 -16.10613,-25.93809 -19.08634,-36.48879 -5.55124,-19.65272 -4.48395,-53.0955 2.24457,-70.33184 2.22495,-5.69964 8.97965,-16.9102 18.43555,-30.59693 8.20818,-11.88076 17.33117,-25.56964 20.27331,-30.41973 2.94214,-4.8501 8.9869,-13.32371 13.4328,-18.83025 10.51089,-13.01842 28.38866,-40.0967 32.5929,-49.3663 1.8166,-4.0053 3.56387,-7.84485 3.88281,-8.53235 0.31894,-0.6875 -1.20814,0.71875 -3.39351,3.125 -29.40261,32.37435 -60.62005,62.24828 -81.86434,78.34111 -15.54927,11.7788 -42.64034,40.86469 -63.16331,67.81429 -4.48983,5.89578 -12.02545,15.47678 -16.74584,21.29111 -12.88979,15.877 -19.76512,33.42639 -25.9194,66.15963 -3.61315,19.21757 -3.94562,23.28974 -4.45127,54.51886 -0.51454,31.77816 -0.35574,34.95501 2.71797,54.375 4.63965,29.3136 7.15013,36.0389 20.99875,56.25336 6.3597,9.28309 16.0631,22.38969 21.5631,29.12578 5.5,6.73608 13.49004,16.74995 17.75564,22.25304 4.2656,5.50308 12.73397,15.48032 18.81859,22.17166 36.69908,40.35842 60.91441,84.93848 66.98648,123.32116 2.41107,15.24071 4.43857,40.24271 4.35879,53.75 -0.0606,10.25794 1.28714,15.87265 11.40161,47.5 2.19864,6.875 6.52302,20.9375 9.60972,31.25 7.73872,25.85465 7.74426,25.86204 7.96583,10.625 0.105,-7.21875 1.12743,-20.4375 2.27212,-29.375 l 2.08122,-16.25 3.75,0 c 3.50521,0 3.92619,0.53038 6.44918,8.125 1.48453,4.46875 4.9757,16.84375 7.75812,27.5 4.03281,15.44501 25.97141,77.47039 28.18426,79.68322 0.28999,0.28999 0.85489,-2.75447 1.25533,-6.76548 2.98069,-29.8557 4.93199,-38.83588 13.17859,-60.6497 2.77723,-7.34634 5.04952,-14.44934 5.04952,-15.78445 0,-3.45193 3.16406,-5.65167 6.81222,-4.73604 3.75616,0.94274 4.65638,4.00539 7.54394,25.66528 4.85006,36.38078 15.97146,72.7474 32.69758,106.92007 l 7.32126,14.9578 0.82341,-9.9578 c 3.8899,-47.04186 5.4681,-54.85712 12.67569,-62.7704 5.81971,-6.38952 12.04052,-1.69677 14.5309,10.96155 2.01022,10.21775 36.85306,109.40495 41.09466,116.98425 0.7478,1.3362 1.38451,-3.6701 1.86675,-14.6777 0.90465,-20.6494 5.20996,-40.2002 11.9367,-54.2056 5.18663,-10.7988 10.61631,-18.125 13.433,-18.125 0.97014,0 1.76389,-1.05612 1.76389,-2.34695 0,-3.45345 2.4966,-4.94089 8.125,-4.84071 6.0308,0.10737 8.125,1.51611 8.125,5.46571 0,2.11275 0.70436,2.97195 2.43639,2.97195 3.17652,0 7.58558,5.8995 13.08722,17.5111 7.95575,16.7913 11.94989,37.4916 12.0144,62.2669 0.0264,10.1204 0.41283,13.9546 1.26018,12.5023 0.6722,-1.1521 6.34144,-16.0583 12.59831,-33.125 z M 643.9322,931.14371 c -9.45674,-4.72558 -12.64471,-8.757 -17.72104,-22.40948 -5.34131,-14.36518 -4.80942,-21.1318 2.96564,-37.72792 l 5.67744,-12.11868 0.67978,-84.75632 c 0.37388,-46.61597 1.23513,-96.28756 1.91388,-110.38131 0.67875,-14.09375 1.27671,-39.96875 1.32879,-57.5 0.0521,-17.53125 0.6428,-37.5 1.31269,-44.375 0.66988,-6.875 1.76218,-36.125 2.42732,-65 1.5268,-66.28147 2.9128,-95.71721 5.4737,-116.25 1.11471,-8.9375 3.17988,-25.53125 4.58926,-36.875 1.40939,-11.34375 3.09303,-24.7261 3.74143,-29.73856 0.6484,-5.01245 1.17891,-11.69615 1.17891,-14.85266 0,-3.1565 1.10689,-12.5554 2.45975,-20.88644 1.35286,-8.33104 3.32856,-21.61609 4.39043,-29.52234 3.48985,-25.98394 6.87288,-43.79685 8.90773,-46.90241 1.46162,-2.23071 1.92038,-5.50838 1.69909,-12.13919 -0.16672,-4.99587 -0.22526,-10.06777 -0.13007,-11.2709 0.26988,-3.41114 2.67307,-2.5683 2.67307,0.9375 0,1.71875 0.5625,3.125 1.25,3.125 0.6875,0 1.25,-1.45312 1.25,-3.22916 0,-2.03368 0.57846,-3.03226 1.5625,-2.69729 1.13728,0.38714 1.4388,3.47779 1.10798,11.35683 -0.35367,8.42268 -0.008,11.50711 1.55966,13.89897 2.02872,3.09623 5.32449,20.36714 8.95374,46.92065 1.0806,7.90625 3.05628,21.24394 4.39042,29.63931 1.33414,8.39538 2.42499,17.67663 2.4241,20.625 -10e-4,5.36934 0.55883,10.42377 5.02944,45.36069 8.38741,65.54583 8.60419,70.13105 12.29185,260 0.64094,33 1.46314,60.84375 1.82711,61.875 0.88823,2.51655 2.28508,81.32273 2.53691,143.125 l 0.20375,50 5.93128,13.42603 c 7.3976,16.74523 7.70526,22.33973 2.04386,37.16545 -4.61185,12.07721 -9.6689,17.59606 -19.49112,21.27102 -7.43649,2.78235 -9.65057,2.3987 -8.42585,-1.46001 0.55125,-1.73686 -0.19655,-3.54949 -2.42317,-5.87358 -3.76542,-3.93025 -7.22621,-13.29853 -11.44461,-30.98031 -1.66661,-6.98577 -3.70475,-14.18185 -4.52917,-15.99129 -1.44085,-3.16232 -1.65138,-2.86371 -5.42965,7.7014 -6.15384,17.20787 -15.54052,37.35674 -18.85293,40.4686 -1.65886,1.55841 -3.0161,3.74793 -3.0161,4.86558 0,2.02167 -2.27355,5.03211 -3.80035,5.03211 -0.44019,0 -4.27304,-1.73532 -8.51745,-3.85629 z m -83.612,-204.96607 c -5.00984,-1.061 -7.36329,-2.93699 -8.28336,-6.60284 -0.58185,-2.31829 -2.32697,-3.2111 -9.76641,-4.99656 -4.98189,-1.19565 -14.98391,-4.65479 -22.22671,-7.68698 -7.2428,-3.03217 -18.79372,-7.51723 -25.66872,-9.9668 -25.18761,-8.97432 -29.15086,-11.49881 -42.41204,-27.0153 -10.94355,-12.8047 -15.72343,-19.99253 -26.95508,-40.53416 -2.25545,-4.125 -5.40059,-9.75 -6.9892,-12.5 -1.5886,-2.75 -5.19686,-13.4375 -8.01832,-23.75 -4.47917,-16.37139 -5.22152,-20.97004 -5.8518,-36.25 -1.35452,-32.83792 3.65539,-80.18663 9.71443,-91.81114 3.91725,-7.51541 10.81708,-8.17707 28.746,-2.75665 16.60863,5.02127 30.34869,10.93463 40.51601,17.43705 10.0566,6.4316 41.19673,34.25031 50.91996,45.48881 3.61903,4.18302 12.94394,14.70118 20.72205,23.3737 7.77811,8.67253 17.36078,20.54948 21.29483,26.39323 7.94692,11.80461 17.26666,32.05064 22.348,48.54841 3.17187,10.29826 3.33778,12.16855 3.39989,38.32659 l 0.0653,27.5 -4.59793,9.375 c -3.57634,7.29202 -6.4925,11.05791 -13.125,16.94943 -4.68989,4.16592 -9.29655,8.037 -10.23701,8.60238 -3.10839,1.86869 -9.47839,2.74763 -13.59486,1.87583 z m -12.68189,-69.71901 c 8.27176,-3.5457 13.94974,-10.86345 17.37085,-22.38754 4.83669,-16.2924 4.77239,-19.12506 -0.6779,-29.86297 -5.49227,-10.82065 -11.9475,-16.98149 -24.26491,-23.15837 -13.75034,-6.89545 -25.46984,-4.89704 -30.71021,5.23672 -2.40224,4.64543 -2.37663,14.08115 0.051,18.77561 2.252,4.3549 3.74495,4.64085 5.64954,1.0821 2.03866,-3.80929 8.77792,-6.14483 17.71571,-6.1395 17.00426,0.01 22.86677,10.64667 14.12105,25.62032 -6.08543,10.41893 -13.89432,15.29044 -20.70458,12.91636 -4.86155,-1.69473 -7.19242,0.22166 -8.25828,6.78985 -1.12394,6.92598 0.36623,10.83023 4.92552,12.9049 5.19024,2.3618 17.12221,1.50599 24.78225,-1.77748 z M 785.625,723.86115 c -7.27949,-3.398 -21.13975,-18.12544 -24.96844,-26.53063 -5.03897,-11.06212 -6.35885,-23.80961 -4.72497,-45.63417 1.11362,-14.87531 2.19651,-21.13247 5.38178,-31.09689 8.93519,-27.95174 20.18223,-47.21741 40.12563,-68.73336 5.7398,-6.19239 14.09225,-15.70493 18.561,-21.13895 10.96706,-13.33601 40.81452,-40.80179 53.125,-48.88586 10.87855,-7.14377 18.1359,-10.46215 37.93347,-17.34489 14.99082,-5.21165 25.89519,-6.05319 29.32512,-2.26315 7.22181,7.98001 12.13455,41.81409 12.09471,83.29635 -0.0225,23.41894 -0.55133,27.3466 -6.82903,50.7204 -4.96293,18.47859 -22.88283,51.72695 -36.88798,68.44159 -16.85985,20.12161 -20.40965,22.50947 -47.2661,31.79486 -7.84794,2.71336 -19.38129,7.18309 -25.62967,9.93274 -6.24838,2.74966 -15.60866,5.96681 -20.80061,7.14925 -8.00601,1.82331 -9.68792,2.66557 -11.07264,5.54494 -1.71881,3.57406 -7.31968,7.15552 -11.1177,7.10917 -1.23726,-0.0151 -4.49957,-1.07774 -7.24957,-2.3614 z m 57.2227,-67.61475 c 6.54185,-2.44762 11.01539,-6.21049 14.85655,-12.4964 C 861.13467,638.13624 865,626.26054 865,621.33478 c 0,-10.61775 -10.65251,-36.21684 -17.22085,-41.38351 -7.72303,-6.07492 -17.34904,-5.37727 -32.15415,2.33039 -10.40156,5.41514 -12.64395,7.65285 -15.05471,15.02335 -2.35672,7.20524 -1.8855,10.68581 2.13941,15.80266 l 2.76401,3.51388 1.32565,-5.45908 c 1.95939,-8.0689 7.14935,-11.16495 18.69799,-11.15423 13.53366,0.0125 19.39876,4.91547 19.42916,16.24176 0.0176,6.55097 -4.94652,16.5541 -10.09857,20.34953 -1.81338,1.33588 -5.18393,2.52378 -7.49012,2.63977 -4.86025,0.24444 -5.89586,2.68859 -3.54448,8.36533 1.52053,3.67091 9.03382,11.14537 11.20326,11.14537 0.63779,0 4.17079,-1.12663 7.8511,-2.5036 z"
     style="fill:#db1513;fill-opacity:1" />
  <path
     inkscape:connector-curvature="0"
     id="path3340"
     d="m 707.47435,1118.5113 c -0.0141,-0.9 -0.85096,-10.0738 -1.85968,-20.3863 -1.00872,-10.3125 -1.85075,-24.0937 -1.87117,-30.625 -0.0879,-28.0729 -7.53458,-51.6872 -20.20208,-64.0625 -4.39346,-4.29211 -6.87787,-4.28502 -11.78088,0.034 -7.8118,6.8808 -11.29672,13.1714 -16.42788,29.6539 -4.4981,14.449 -5.14591,18.1386 -5.84504,33.29 -0.56501,12.2448 -0.22336,21.6571 1.21406,33.447 1.10017,9.0239 1.81391,16.9662 1.58609,17.6497 -0.91005,2.7301 -16.05407,-24.2315 -23.32925,-41.5341 -9.46631,-22.5139 -24.69148,-65.1534 -31.5042,-88.2304 -6.02637,-20.41345 -7.42681,-24.16175 -8.72708,-23.35813 -2.16172,1.33602 -6.24575,18.48269 -8.04752,33.78713 -1.04886,8.9093 -1.91213,23.6187 -1.91838,32.6875 -0.006,9.0688 -0.51018,16.7971 -1.11987,17.1739 -3.53687,2.1859 -23.25108,-33.6723 -37.4059,-68.0376 -8.57663,-20.82253 -14.58595,-47.21474 -16.02372,-70.3744 -0.46094,-7.42466 -1.26385,-13.04966 -1.78425,-12.5 -2.98145,3.14907 -9.07931,25.772 -12.9642,48.09689 -8.03934,46.19886 -8.59649,49.14452 -9.48953,50.17112 -0.48735,0.56024 -8.76365,-18.84601 -18.39176,-43.125 C 466.48867,914.2079 463.7838,906.3164 461.95279,895 c -2.08909,-12.91136 -4.16035,-21.21806 -4.3541,-17.46188 -0.20684,4.00978 -5.10793,52.10039 -5.85615,57.46188 l -0.785,5.625 -12.95578,-26.70736 c -12.73556,-26.25337 -13.11656,-27.3011 -22.41385,-61.63607 -8.53967,-31.53715 -9.58316,-36.65113 -10.7465,-52.66763 -2.26806,-31.22619 -5.68075,-54.55203 -9.91525,-67.77128 C 388.66363,712.29231 371.99114,680.89926 359.4268,665 c -3.53141,-4.46875 -7.887,-10.375 -9.67908,-13.125 -1.79207,-2.75 -7.46027,-9.5772 -12.59598,-15.17154 -5.13573,-5.59435 -11.20794,-12.90685 -13.49382,-16.25 C 321.37204,617.1103 313.56294,606.5 306.30435,596.875 c -14.51703,-19.24981 -34.24654,-50.36691 -37.70398,-59.46615 -3.21158,-8.45217 -6.93063,-23.76784 -9.1565,-37.70789 -2.33023,-14.59376 -2.69117,-68.25139 -0.58515,-86.98791 1.71802,-15.28445 5.32924,-33.87614 9.38912,-48.33805 5.46446,-19.4653 22.41491,-44.68306 55.40011,-82.42065 23.03525,-26.35409 37.75312,-41.76801 45.10205,-47.2351 16.44087,-12.23084 43.16458,-34.63443 55.01837,-46.12419 3.10387,-3.00854 8.29668,-8.84506 11.53959,-12.97006 3.2429,-4.125 9.42214,-11.47562 13.73162,-16.33474 4.30948,-4.8591 10.53971,-12.03097 13.84496,-15.9375 10.01141,-11.83264 12.95951,-8.20437 5.25606,6.4687 -2.39766,4.56695 -6.12984,12.52229 -8.29372,17.67854 -4.25717,10.14429 -19.78613,35.31539 -30.46122,49.375 -3.65401,4.8125 -11.27996,16.0625 -16.94655,25 -5.6666,8.9375 -14.07603,21.875 -18.68763,28.75 -11.17125,16.65417 -13.60279,21.68926 -15.59669,32.29672 -4.22464,22.47478 -3.33906,44.36303 2.45986,60.79894 2.3264,6.59372 10.80591,20.15195 12.30206,19.67025 0.57294,-0.18446 2.22435,-3.13225 3.6698,-6.55065 1.44545,-3.4184 4.11724,-8.46526 5.93733,-11.21526 1.82007,-2.75 5.44925,-10.625 8.06481,-17.5 5.67348,-14.91269 15.25341,-32.6917 27.27846,-50.625 6.67445,-9.95379 13.98728,-18.28348 30.2663,-34.47486 C 493.93473,237.36271 511.05909,224.0753 555,195.6222 575.22241,182.52756 582.50754,176.8968 606.25,156.01046 625.31701,139.23714 630.70905,133.55277 643.96576,116.25 658.0973,97.805391 662.3337,88.341009 671.24234,55.3125 L 674.02388,45 l 4.81488,0 c 4.62049,0 4.86912,0.214482 6.15838,5.3125 4.1485,16.404204 10.84432,37.44572 13.82265,43.4375 9.03841,18.18342 27.53816,40.27642 51.511,61.5161 24.58743,21.7842 28.63771,24.87409 57.79421,44.09025 45.14448,29.75335 64.625,45.41482 90.85802,73.04584 18.95769,19.96797 38.01427,50.35083 47.88647,76.34781 2.4802,6.53125 5.85897,13.84375 7.50837,16.25 1.6494,2.40625 4.47413,7.60937 6.27717,11.5625 1.80303,3.95312 3.65888,7.18257 4.12411,7.17656 1.81094,-0.0234 10.58675,-15.32317 12.70915,-22.15714 4.40769,-14.19249 5.40134,-24.94845 3.91051,-42.33027 -2.04104,-23.79666 -3.32551,-27.22975 -18.89505,-50.50165 -5.2895,-7.90625 -14.00769,-21.40625 -19.37376,-30 -5.36607,-8.59375 -11.56123,-17.875 -13.76701,-20.625 -4.54487,-5.66618 -14.99905,-20.96376 -22.76963,-33.31871 -2.8776,-4.57529 -7.58521,-13.85654 -10.46136,-20.625 -2.87614,-6.76847 -6.28079,-13.80583 -7.56588,-15.63859 -4.79148,-6.8335 -3.99181,-15.02394 1.05815,-10.83781 1.10812,0.91856 5.11562,5.60761 8.90555,10.42011 3.78994,4.8125 10.0644,12.125 13.94324,16.25 3.87884,4.125 9.34223,10.6197 12.14086,14.43266 7.15435,9.74735 30.41082,30.47543 61.11305,54.469 23.29374,18.20393 71.77374,73.24054 88.70434,100.70124 5.3869,8.73726 13.9061,28.75019 16.6644,39.1471 6.9778,26.30181 8.9572,44.98306 8.9464,84.43236 -0.01,33.41531 -1.9298,49.94429 -8.2727,71.19264 -5.2757,17.67366 -24.9477,48.4495 -61.6692,96.47823 -2.4613,3.21926 -8.4127,10.29428 -13.2252,15.72227 -16.254,18.33279 -28.69395,35.29034 -41.47462,56.5363 -12.06004,20.04804 -12.98803,22.0962 -17.76813,39.21599 -5.04265,18.06006 -5.04376,18.06909 -6.46574,52.2427 l -1.42222,34.17951 -11.00684,31.25 c -6.05375,17.1875 -11.98184,34.62009 -13.17351,38.73908 -2.38333,8.23792 -17.52233,44.30496 -19.3916,46.19842 -0.73676,0.74629 -1.17286,0.51406 -1.17375,-0.625 -7.6e-4,-0.99687 -1.12514,-10.53125 -2.49859,-21.1875 -1.37345,-10.65625 -2.50644,-23.3125 -2.51774,-28.125 -0.0319,-13.5922 -1.81108,-13.76174 -4.36016,-0.41549 -2.60866,13.65834 -21.79767,70.5625 -29.08874,86.26135 -5.21803,11.2353 -12.1305,22.27914 -13.94476,22.27914 -0.57271,0 -1.44535,-5.48438 -1.9392,-12.1875 -2.67118,-36.25693 -5.40735,-54.45519 -10.38376,-69.0625 -5.61558,-16.4834 -5.4494,-16.6541 -7.90994,8.125 -1.68999,17.01909 -7.78454,39.56177 -18.92493,70 -5.86688,16.0298 -8.61921,21.4702 -18.97115,37.5 -6.65976,10.3125 -12.567,18.914 -13.1272,19.1144 -2.10578,0.7532 -10.08242,-53.90606 -10.08242,-69.08902 0,-7.39377 -0.44444,-9.41512 -2.47394,-11.25179 -1.98438,-1.79585 -2.58869,-1.89603 -3.05382,-0.50624 -0.31894,0.95296 -2.54434,8.48265 -4.94534,16.73265 -5.93819,20.404 -29.44505,88.8354 -34.89405,101.5808 -4.48474,10.4899 -15.18681,29.7165 -17.25133,30.9924 -0.62233,0.3847 -1.14306,-0.037 -1.15717,-0.9369 z m 20.17215,-63.106 c 16.72913,-45.6315 28.52304,-79.94104 30.64714,-89.1553 2.30082,-9.9809 4.60791,-13.75 8.41645,-13.75 8.00762,0 13.37112,15.76333 15.73663,46.25 0.72015,9.2812 1.66677,19.9299 2.1036,23.6636 l 0.79424,6.7886 8.74484,-18.0386 c 16.75334,-34.55834 30.55265,-81.19524 34.00159,-114.9136 0.4571,-4.46875 1.40908,-9.98525 2.11555,-12.2589 1.07898,-3.47259 1.80873,-4.07249 4.56169,-3.75 2.56589,0.30057 3.5254,1.33349 4.42067,4.7589 0.62891,2.40625 3.59467,11.27207 6.59059,19.70184 7.60763,21.40596 11.72051,42.15177 11.72051,59.11953 0,3.16908 0.37261,6.13458 0.82804,6.59001 1.65638,1.65637 25.39786,-63.27836 30.43475,-83.24133 8.08418,-32.04054 9.96802,-36.80829 13.94125,-35.28362 2.0444,0.78451 5.345,23.40873 6.88512,47.19466 0.43469,6.71334 1.00509,11.99132 1.26758,11.72885 0.58581,-0.58583 22.03772,-68.61422 26.27075,-83.30994 2.21906,-7.70388 3.0424,-13.54613 2.99475,-21.25 -0.0879,-14.21315 2.04682,-40.5633 4.38723,-54.15373 3.48005,-20.20816 14.53733,-47.53888 28.83307,-71.26792 6.7735,-11.2431 24.89125,-34.7651 36.74336,-47.70335 5.6681,-6.1875 12.8894,-14.6829 16.0473,-18.87868 3.158,-4.19576 12.4951,-16.00826 20.7491,-26.25 29.867,-37.05938 37.5651,-52.2136 43.005,-84.65888 2.2795,-13.59575 2.7071,-21.39888 2.8083,-51.25 0.1113,-32.86153 -0.1022,-36.46427 -3.1983,-53.96244 -1.8246,-10.3125 -4.1247,-21.94853 -5.1111,-25.85783 -4.6584,-18.46048 -15.0443,-39.0255 -26.3964,-52.26717 -3.2417,-3.78125 -9.013,-11.09375 -12.8253,-16.25 -15.9603,-21.58725 -48.80879,-56.8786 -62.58986,-67.24451 -16.46459,-12.38439 -26.30878,-21.295 -51.27258,-46.41012 -23.99907,-24.14455 -34.92757,-36.68922 -40.05105,-45.97403 -2.48022,-4.49467 -2.57766,-4.5475 -1.83766,-0.99634 0.42979,2.0625 1.50402,4.59375 2.3872,5.625 0.88317,1.03125 4.12254,7.21875 7.19857,13.75 6.09199,12.93487 24.07639,40.57595 35.26465,54.19989 3.87303,4.71617 8.53148,11.18492 10.35212,14.375 1.82065,3.19006 5.65945,9.17511 8.53067,13.30011 28.40664,40.81087 32.15256,47.52567 35.09661,62.91281 2.65749,13.88948 2.28272,39.82049 -0.75891,52.50808 -2.96657,12.37458 -16.16242,38.36611 -20.11536,39.62072 -2.68076,0.85084 -6.1189,-1.26101 -6.1189,-3.7585 0,-0.84466 -1.35824,-4.09025 -3.0183,-7.2124 -1.66006,-3.12215 -4.4859,-9.74519 -6.27965,-14.71787 -7.97264,-22.10202 -29.15173,-60.72217 -44.38906,-80.94364 -7.45722,-9.89646 -21.6194,-24.10868 -41.31997,-41.46591 -10.0257,-8.83318 -36.20392,-26.57384 -77.15438,-52.28658 C 752.63013,176.13946 726.71217,153.86086 704.06899,125.9504 691.3386,110.25866 684.49174,98.84388 681.19293,87.8125 680.31918,84.890625 679.26958,82.5 678.86049,82.5 c -0.40909,0 -2.05458,3.796875 -3.65663,8.4375 -5.27741,15.2869 -13.16078,27.15716 -34.57886,52.0666 -5.94186,6.91044 -33.37371,30.55417 -48.125,41.47931 -3.78125,2.80048 -17.28125,11.56473 -30,19.4761 -37.41316,23.2719 -59.31419,38.20454 -70.95258,48.37713 -17.2216,15.05262 -38.04102,36.29653 -44.26091,45.16336 -17.04231,24.29482 -36.35335,62.09715 -49.15397,96.22131 -2.0588,5.4884 -5.82052,8.18503 -9.02529,6.46988 -3.52553,-1.88679 -16.10613,-25.93809 -19.08634,-36.48879 -5.55124,-19.65272 -4.48395,-53.0955 2.24457,-70.33184 2.21547,-5.67536 9.01992,-16.98611 18.43555,-30.64468 8.20818,-11.90702 17.65007,-25.96006 20.98198,-31.22897 3.3319,-5.26891 9.44483,-13.80806 13.58427,-18.97587 13.1656,-16.43636 31.27516,-44.93346 34.79367,-54.75111 1.15169,-3.21357 1.00936,-3.1612 -2.66416,0.98007 -2.13448,2.40625 -13.53131,14.41996 -25.32633,26.69713 -21.99786,22.89712 -38.84643,38.31248 -56.44546,51.64398 -15.54927,11.7788 -42.64034,40.86469 -63.16331,67.81429 -4.48983,5.89578 -12.02545,15.47678 -16.74584,21.29111 -12.92537,15.92083 -20.4821,35.50928 -26.5426,68.80349 -3.35781,18.44652 -3.52732,21.17204 -3.53754,56.875 -0.01,33.62507 0.28653,39.17914 2.86588,53.75 4.50788,25.46539 7.3114,32.53928 20.56031,51.87836 6.3597,9.28309 16.0631,22.38969 21.5631,29.12578 5.5,6.73608 13.49004,16.74995 17.75564,22.25304 4.2656,5.50308 12.73397,15.48032 18.81859,22.17166 36.69908,40.35842 60.91441,84.93848 66.98648,123.32116 2.41106,15.24071 4.43856,40.24271 4.35879,53.75 -0.0606,10.25794 1.28714,15.87265 11.40161,47.5 2.19864,6.875 6.52301,20.9375 9.60971,31.25 7.73873,25.85465 7.74427,25.86204 7.96584,10.625 0.105,-7.21875 1.12743,-20.4375 2.27212,-29.375 l 2.08122,-16.25 3.75,0 c 3.50521,0 3.92619,0.53038 6.44918,8.125 1.48453,4.46875 4.9757,16.84375 7.75812,27.5 4.03281,15.44501 25.97141,77.47039 28.18426,79.68322 0.28999,0.28999 0.85489,-2.75447 1.25533,-6.76548 2.98069,-29.8557 4.93199,-38.83588 13.17859,-60.6497 2.77723,-7.34634 5.04952,-14.44934 5.04952,-15.78445 0,-3.45193 3.16406,-5.65167 6.81222,-4.73604 3.75616,0.94274 4.65638,4.00539 7.54394,25.66528 4.85006,36.38078 15.97146,72.7474 32.69758,106.92007 l 7.32126,14.9578 0.82341,-9.9578 c 3.8899,-47.04186 5.4681,-54.85712 12.67569,-62.7704 5.81971,-6.38952 12.04052,-1.69677 14.5309,10.96155 2.01022,10.21775 36.85306,109.40495 41.09466,116.98425 0.7478,1.3362 1.38451,-3.6701 1.86675,-14.6777 0.90465,-20.6494 5.20996,-40.2002 11.9367,-54.2056 5.18663,-10.7988 10.61631,-18.125 13.433,-18.125 0.97014,0 1.76389,-1.05612 1.76389,-2.34695 0,-3.45345 2.4966,-4.94089 8.125,-4.84071 6.0308,0.10737 8.125,1.51611 8.125,5.46571 0,2.11275 0.70436,2.97195 2.43639,2.97195 3.17652,0 7.58558,5.8995 13.08722,17.5111 7.95575,16.7913 11.94989,37.4916 12.0144,62.2669 0.0264,10.1204 0.41283,13.9546 1.26018,12.5023 0.6722,-1.1521 6.34144,-16.0583 12.59831,-33.125 z M 643.9322,931.14371 c -9.45674,-4.72558 -12.64471,-8.757 -17.72104,-22.40948 -5.34131,-14.36518 -4.80942,-21.1318 2.96564,-37.72792 l 5.67744,-12.11868 0.67978,-84.75632 c 0.37388,-46.61597 1.23513,-96.28756 1.91388,-110.38131 0.67875,-14.09375 1.27671,-39.96875 1.32879,-57.5 0.0521,-17.53125 0.6428,-37.5 1.31269,-44.375 0.66988,-6.875 1.76218,-36.125 2.42732,-65 1.5268,-66.28147 2.9128,-95.71721 5.4737,-116.25 1.11471,-8.9375 3.17988,-25.53125 4.58926,-36.875 1.40939,-11.34375 3.09303,-24.7261 3.74143,-29.73856 0.6484,-5.01245 1.17891,-11.69615 1.17891,-14.85266 0,-3.1565 1.10689,-12.5554 2.45975,-20.88644 1.35286,-8.33104 3.32856,-21.61609 4.39043,-29.52234 3.48985,-25.98394 6.87288,-43.79685 8.90773,-46.90241 1.46162,-2.23071 1.92038,-5.50838 1.69909,-12.13919 -0.16672,-4.99587 -0.22526,-10.06777 -0.13007,-11.2709 0.26988,-3.41114 2.67307,-2.5683 2.67307,0.9375 0,1.71875 0.5625,3.125 1.25,3.125 0.6875,0 1.25,-1.45312 1.25,-3.22916 0,-2.03368 0.57846,-3.03226 1.5625,-2.69729 1.13728,0.38714 1.4388,3.47779 1.10798,11.35683 -0.35367,8.42268 -0.008,11.50711 1.55966,13.89897 2.02872,3.09623 5.32449,20.36714 8.95374,46.92065 1.0806,7.90625 3.05628,21.24394 4.39042,29.63931 1.33414,8.39538 2.42499,17.67663 2.4241,20.625 -10e-4,5.36934 0.55883,10.42377 5.02944,45.36069 8.38741,65.54583 8.60419,70.13105 12.29185,260 0.64094,33 1.46314,60.84375 1.82711,61.875 0.88823,2.51655 2.28508,81.32273 2.53691,143.125 l 0.20375,50 5.93128,13.42603 c 7.3976,16.74523 7.70526,22.33973 2.04386,37.16545 -4.61185,12.07721 -9.6689,17.59606 -19.49112,21.27102 -7.43649,2.78235 -9.65057,2.3987 -8.42585,-1.46001 0.55125,-1.73686 -0.19655,-3.54949 -2.42317,-5.87358 -3.76542,-3.93025 -7.22621,-13.29853 -11.44461,-30.98031 -1.66661,-6.98577 -3.70475,-14.18185 -4.52917,-15.99129 -1.44085,-3.16232 -1.65138,-2.86371 -5.42965,7.7014 -6.15384,17.20787 -15.54052,37.35674 -18.85293,40.4686 -1.65886,1.55841 -3.0161,3.74793 -3.0161,4.86558 0,2.02167 -2.27355,5.03211 -3.80035,5.03211 -0.44019,0 -4.27304,-1.73532 -8.51745,-3.85629 z m -83.612,-204.96607 c -5.00984,-1.061 -7.36329,-2.93699 -8.28336,-6.60284 -0.58185,-2.31829 -2.32697,-3.2111 -9.76641,-4.99656 -4.98189,-1.19565 -14.98391,-4.65479 -22.22671,-7.68698 -7.2428,-3.03217 -18.79372,-7.51723 -25.66872,-9.9668 -25.18761,-8.97432 -29.15086,-11.49881 -42.41204,-27.0153 -10.94355,-12.8047 -15.72343,-19.99253 -26.95508,-40.53416 -2.25545,-4.125 -5.40059,-9.75 -6.9892,-12.5 -1.5886,-2.75 -5.19686,-13.4375 -8.01832,-23.75 -4.47917,-16.37139 -5.22152,-20.97004 -5.8518,-36.25 -1.35452,-32.83792 3.65539,-80.18663 9.71443,-91.81114 3.91725,-7.51541 10.81708,-8.17707 28.746,-2.75665 16.60863,5.02127 30.34869,10.93463 40.51601,17.43705 10.0566,6.4316 41.19673,34.25031 50.91996,45.48881 3.61903,4.18302 12.94394,14.70118 20.72205,23.3737 7.77811,8.67253 17.36078,20.54948 21.29483,26.39323 7.94692,11.80461 17.26666,32.05064 22.348,48.54841 3.17187,10.29826 3.33778,12.16855 3.39989,38.32659 l 0.0653,27.5 -4.59793,9.375 c -3.57634,7.29202 -6.4925,11.05791 -13.125,16.94943 -4.68989,4.16592 -9.29655,8.037 -10.23701,8.60238 -3.10839,1.86869 -9.47839,2.74763 -13.59486,1.87583 z m -12.68189,-69.71901 c 8.27176,-3.5457 13.94974,-10.86345 17.37085,-22.38754 4.83669,-16.2924 4.77239,-19.12506 -0.6779,-29.86297 -5.51394,-10.86332 -12.0252,-17.05753 -24.26491,-23.08337 -10.80715,-5.32056 -19.36583,-6.13097 -25.90934,-2.45331 -5.96582,3.35299 -9.22016,8.01443 -14.98837,21.46899 -3.82356,8.91862 -4.51723,11.97814 -4.64428,20.48457 -0.12475,8.35304 0.38388,11.13229 3.08834,16.875 1.78074,3.78125 4.6754,8.57422 6.43259,10.65105 3.31017,3.91233 12.35134,9.02821 19.0052,10.75399 5.82696,1.51131 18.23491,0.27676 24.58782,-2.44641 z M 525.625,638.47097 c -5.59529,-1.94962 -6.9337,-3.38376 -10.82197,-11.59597 -4.2535,-8.98359 -4.44696,-13.25853 -0.86244,-19.05837 C 517.37264,602.26345 522.86269,600 532.9,600 c 18.12459,0 23.59946,13.459 11.75347,28.8938 -6.93292,9.03329 -12.51962,11.84512 -19.02847,9.57718 z m 260,85.39018 c -7.27949,-3.398 -21.13975,-18.12544 -24.96844,-26.53063 -5.03897,-11.06212 -6.35885,-23.80961 -4.72497,-45.63417 1.11362,-14.87531 2.19651,-21.13248 5.38178,-31.09689 8.93519,-27.95174 20.18223,-47.21741 40.12563,-68.73336 5.7398,-6.19239 14.09225,-15.70493 18.561,-21.13895 10.96706,-13.33601 40.81452,-40.80179 53.125,-48.88586 10.87855,-7.14377 18.1359,-10.46215 37.93347,-17.34489 14.99082,-5.21165 25.89519,-6.05319 29.32512,-2.26315 7.22181,7.98001 12.13455,41.81409 12.09471,83.29635 -0.0225,23.41894 -0.55133,27.3466 -6.82903,50.7204 -4.96293,18.47859 -22.88283,51.72695 -36.88798,68.44159 -16.85985,20.12161 -20.40965,22.50947 -47.2661,31.79486 -7.84794,2.71336 -19.38129,7.18309 -25.62967,9.93274 -6.24838,2.74966 -15.60866,5.96681 -20.80061,7.14925 -8.00601,1.82331 -9.68792,2.66557 -11.07264,5.54493 -1.71881,3.57407 -7.31968,7.15553 -11.1177,7.10918 -1.23726,-0.0151 -4.49957,-1.07774 -7.24957,-2.3614 z m 57.2227,-67.61475 c 6.54185,-2.44763 11.01539,-6.21049 14.85655,-12.4964 C 861.13467,638.13624 865,626.26054 865,621.33477 c 0,-10.61775 -10.65251,-36.21683 -17.22085,-41.3835 -7.56864,-5.95348 -17.17768,-5.37573 -31.48599,1.89313 -11.06937,5.62342 -15.64322,10.04611 -19.84506,19.18919 -5.39855,11.74708 -6.31648,22.35037 -2.9026,33.52868 4.47976,14.6684 12.01356,21.36943 25.8295,22.9744 12.86675,1.49472 16.57377,1.29094 23.4727,-1.29027 z m -19.83181,-17.43841 c -5.49053,-1.29334 -6.18102,-1.87817 -11.27072,-9.54613 -7.51305,-11.31889 -7.10748,-21.79142 1.03617,-26.75661 5.6929,-3.47096 20.04138,-3.51204 25.25937,-0.0724 7.85165,5.17585 9.22628,15.2476 3.49259,25.58989 -5.10074,9.20059 -10.9015,12.57915 -18.51741,10.78518 z"
     style="fill:#000000" />
</svg>
