<?xml version="1.0" encoding="UTF-8" standalone="no"?>
<!-- Created with Inkscape (http://www.inkscape.org/) -->

<svg
   xmlns:dc="http://purl.org/dc/elements/1.1/"
   xmlns:cc="http://creativecommons.org/ns#"
   xmlns:rdf="http://www.w3.org/1999/02/22-rdf-syntax-ns#"
   xmlns:svg="http://www.w3.org/2000/svg"
   xmlns="http://www.w3.org/2000/svg"
   xmlns:sodipodi="http://sodipodi.sourceforge.net/DTD/sodipodi-0.dtd"
   xmlns:inkscape="http://www.inkscape.org/namespaces/inkscape"
   id="svg2"
   version="1.1"
   inkscape:version="0.91 r13725"
   width="1357.5"
   height="1357.5"
   viewBox="0 0 1357.5 1357.5"
   sodipodi:docname="blaster-jaw-silhouette-blur.svg">
  <metadata
     id="metadata8">
    <rdf:RDF>
      <cc:Work
         rdf:about="">
        <dc:format>image/svg+xml</dc:format>
        <dc:type
           rdf:resource="http://purl.org/dc/dcmitype/StillImage" />
        <dc:title></dc:title>
      </cc:Work>
    </rdf:RDF>
  </metadata>
  <defs
     id="defs6">
    <filter
       inkscape:collect="always"
       style="color-interpolation-filters:sRGB"
       id="filter4133"
       x="-0.037233445"
       width="1.0744669"
       y="-0.048166137"
       height="1.0963323">
      <feGaussianBlur
         inkscape:collect="always"
         stdDeviation="13.854602"
         id="feGaussianBlur4135" />
    </filter>
  </defs>
  <sodipodi:namedview
     pagecolor="#ffffff"
     bordercolor="#666666"
     borderopacity="1"
     objecttolerance="10"
     gridtolerance="10"
     guidetolerance="10"
     inkscape:pageopacity="0"
     inkscape:pageshadow="2"
     inkscape:window-width="1280"
     inkscape:window-height="751"
     id="namedview4"
     showgrid="false"
     inkscape:zoom="0.69539594"
     inkscape:cx="525.24863"
     inkscape:cy="307.68226"
     inkscape:window-x="0"
     inkscape:window-y="29"
     inkscape:window-maximized="1"
     inkscape:current-layer="svg2" />
  <path
     style="fill:#000000;fill-opacity:1;filter:url(#filter4133)"
     d="M 349.78711 638.41016 C 348.39229 638.46856 348.67744 641.53102 349.98438 648.36328 C 350.74845 652.35764 351.64626 665.1875 351.97852 676.875 C 352.31077 688.5625 353.2124 702.24107 353.98242 707.27148 C 355.01228 714.00217 355.0148 719.6143 353.99219 728.52148 C 353.2279 735.17857 351.42227 753 349.97852 768.125 C 346.19002 807.81379 342.72868 829.10644 337.2793 846.25 C 334.35368 855.4539 328.80298 865.93365 325.05859 869.32227 C 322.63344 871.51701 322.31158 871.51915 316.58203 869.38867 C 305.92424 865.42566 293.70487 858.46761 287.30859 852.7168 C 275.48284 842.08443 255.79617 813.62308 249.26367 797.7168 C 246.58778 791.20119 245.71494 786.71356 245.27539 777.2207 C 244.67735 764.30515 243.44679 761.63517 238.77734 763.11719 C 234.16508 764.58107 232.21445 769.25999 232.35547 778.52344 C 232.48919 787.30851 235.02333 796.4953 240.00977 806.26953 C 242.23448 810.63033 242.78448 813.64853 242.62305 820.61133 C 242.35265 832.27338 245.6765 861.74217 248.68164 874.32812 C 252.22609 889.17274 263.16369 920.04021 270.125 934.84375 C 279.92784 955.6899 296.48029 980.96559 311.15625 997.5 C 315.73293 1002.6562 323.08532 1011.375 327.49609 1016.875 C 331.90686 1022.375 344.90238 1036.7197 356.375 1048.752 C 372.97626 1066.1631 379.4471 1072.0319 388.07227 1077.502 C 394.03287 1081.2822 401.82711 1086.4375 405.39258 1088.959 C 408.95804 1091.4805 417.77888 1097.668 424.99414 1102.709 C 439.93854 1113.1501 466.21802 1138.0595 477.05664 1152.0566 C 481.08139 1157.2542 488.14658 1166.2701 492.75586 1172.0898 C 507.53011 1190.7439 518.22912 1206.5207 525.66797 1220.625 C 533.38415 1235.2552 540.14067 1245.9126 547.40625 1254.9102 C 555.9777 1265.5248 580.25966 1281.4322 603.75 1291.8223 C 609.59375 1294.407 620 1298.9978 626.875 1302.0234 C 633.75 1305.0492 640.9741 1308.3657 642.92773 1309.3945 C 658.21711 1317.4455 667.92154 1322.8625 671.91211 1325.5703 L 671.91406 1325.5703 C 674.49095 1327.3189 677.58038 1328.75 678.7793 1328.75 C 679.97842 1328.75 684.54749 1326.2923 688.93359 1323.2891 C 698.8574 1316.494 709.90352 1310.9055 732.78125 1301.1055 C 769.88548 1285.2115 793.17924 1271.8958 805.69531 1259.4238 C 813.7197 1251.4278 822.77714 1237.9534 831.26562 1221.3789 C 837.94813 1208.3307 851.60866 1188.1846 864.83398 1171.875 C 868.73641 1167.0625 874.43969 1159.75 877.50977 1155.625 C 887.55717 1142.1252 915.96087 1114.2205 928.07227 1105.9492 C 934.28901 1101.7034 943.67482 1095.1126 948.93164 1091.3027 C 954.18846 1087.4927 963.40039 1081.2813 969.40039 1077.5 C 978.18936 1071.961 984.35438 1066.3737 1001.127 1048.75 C 1012.5772 1036.7188 1026.5697 1021.25 1032.2207 1014.375 C 1037.8717 1007.5 1045.9281 997.9375 1050.125 993.125 C 1057.8593 984.25605 1067.5258 970.24845 1075.748 956.33203 C 1076.4158 955.21999 1077.0687 954.10031 1077.7051 952.97266 C 1080.6385 947.86701 1083.3413 942.83044 1085.6406 938.125 C 1094.4214 920.15558 1107.5397 882.46471 1110.4785 866.76367 C 1112.8329 854.18419 1115.2481 827.3053 1114.75 819.91016 C 1114.8996 818.67441 1115.0474 817.43405 1115.1973 816.19922 C 1115.3125 815.56048 1115.1885 814.94972 1114.9297 814.42383 C 1115.4698 811.6952 1116.7014 808.22727 1118.8984 803.03516 C 1127.2153 783.38142 1127.567 768.20298 1119.8066 763.85547 C 1114.1432 760.68273 1112.5 763.37287 1112.5 775.81836 C 1112.5 784.49775 1111.8472 788.02156 1108.7598 796.02734 C 1102.8955 811.23407 1084.4179 839.13479 1071.9609 851.5918 C 1066.1472 857.40543 1044.4295 869.17737 1036.6445 870.73438 C 1033.0934 871.44459 1032.5489 871.02078 1028.3223 864.26367 C 1018.3331 848.29396 1012.9052 823.35971 1007.5312 768.75 C 1006.1443 754.65625 1004.3695 737.05832 1003.5859 729.64453 C 1002.539 719.73647 1002.5254 713.77489 1003.5371 707.14453 C 1004.2942 702.18332 1005.1858 688.0582 1005.5195 675.75391 L 1006.127 653.38281 L 1009.998 648.56641 C 1012.1267 645.91758 1013.3314 643.75 1012.6758 643.75 C 1012.0203 643.75 1007.1538 646.67449 1001.8613 650.25 C 994.47648 655.239 990.1611 659.46083 983.30664 668.40234 C 972.77764 682.1372 966.24054 695.90731 953.17188 731.875 C 942.05769 762.46354 941.15667 769.30347 944.94141 794.375 C 946.2906 803.3125 949.18785 824.125 951.37891 840.625 L 955.36133 870.625 L 953.79297 899.375 C 952.92943 915.1875 951.84314 930.375 951.38086 933.125 L 950.54102 938.125 L 946.64258 928.75 C 944.49859 923.59375 941.15721 912.48437 939.2168 904.0625 C 937.27638 895.64062 935.30384 888.75 934.83398 888.75 C 932.68164 888.75 917.9037 927.7997 907.42773 961.16992 C 901.0745 981.40675 889.77422 1015.3544 882.31445 1036.6113 C 874.85466 1057.8682 868.74047 1075.6246 868.73047 1076.0684 C 868.71995 1076.5122 868.16645 1076.0312 867.5 1075 C 866.80614 1073.9264 866.28083 1060.4854 866.26953 1043.5488 C 866.25244 1017.1438 864.6045 994.59836 861.7168 981.25 L 861.04102 978.125 L 858.23438 981.38281 C 856.6907 983.17508 852.7407 992.17514 849.45703 1001.3828 C 846.17337 1010.5905 837.05817 1035.675 829.19922 1057.125 L 814.91016 1096.125 L 796.04688 1128.375 C 785.67251 1146.1125 776.69762 1161.1561 776.10156 1161.8047 C 775.48905 1162.4712 775.35653 1151.329 775.79688 1136.1797 C 776.49066 1112.311 776.27514 1107.4583 773.83594 1091.875 C 772.32937 1082.2499 770.77329 1073.2698 770.37891 1071.9199 C 769.84681 1070.0988 767.78154 1073.217 762.37305 1084.0039 C 756.60089 1095.5161 753.8145 1103.3074 748.97852 1121.457 C 740.75162 1152.3328 734.9019 1164.0593 720.23828 1179.0625 C 714.35878 1185.0781 709.1625 1190 708.69141 1190 C 707.5459 1190 701.24873 1169.6911 695.70703 1148.125 C 690.60008 1128.2507 678.77083 1094.4326 677.43945 1095.9004 C 676.9536 1096.436 675.03329 1103.9062 673.17188 1112.5 C 666.14798 1144.9275 661.25521 1162.0681 654.97266 1176.25 C 651.4702 1184.1562 648.17661 1191.0577 647.6543 1191.5859 C 647.13199 1192.1141 643.07314 1188.7391 638.63477 1184.0859 C 632.97471 1178.1519 628.26823 1171.3325 622.87109 1161.25 C 616.1081 1148.6159 614.62913 1144.5285 610.66602 1127.5 C 606.69151 1110.4224 594.75315 1077.1136 591.25 1073.3281 C 589.86155 1071.8277 582.89746 1102.0129 581.09961 1117.3262 C 579.90029 1127.5419 579.90682 1133.4436 581.125 1145.2637 C 581.97448 1153.5056 582.40292 1160.515 582.07812 1160.8398 C 581.05531 1161.8626 570.82737 1145.0901 555.74414 1117.6602 C 543.6631 1095.6901 538.39207 1084.2041 524.82812 1050.2754 C 505.18463 1001.1393 496.13396 981.23976 494.94336 984.56641 C 493.32672 989.08344 491.32235 1017.3231 490.49805 1047.1875 C 490.03788 1063.8594 489.30642 1077.5 488.87305 1077.5 C 487.70113 1077.5 470.49663 1024.8354 457.02148 980 C 450.51278 958.34375 443.49781 936.05194 441.43164 930.46289 C 436.39719 916.84458 425.04863 894.41119 423.88672 895.7793 C 423.37458 896.38229 419.0569 906.14439 414.29102 917.47461 L 405.625 938.07617 L 404.75195 932.47461 C 404.272 929.39439 403.48988 913.09375 403.01367 896.25 C 401.97435 859.48856 403.90903 838.47977 411.00977 809.375 C 415.18204 792.27376 415.55291 789.30599 415.23633 775.625 C 414.93301 762.51665 414.24905 758.33926 409.80859 742.5 C 407.01389 732.53125 402.47519 719.03125 399.72266 712.5 C 389.19296 687.515 367.96233 654.00473 355.22266 642.26172 C 352.48325 639.73662 350.74146 638.3702 349.78711 638.41016 z "
     id="path3334" />
</svg>
