<?xml version="1.0" encoding="UTF-8" standalone="no"?>
<!-- Created with Inkscape (http://www.inkscape.org/) -->

<svg
   xmlns:dc="http://purl.org/dc/elements/1.1/"
   xmlns:cc="http://creativecommons.org/ns#"
   xmlns:rdf="http://www.w3.org/1999/02/22-rdf-syntax-ns#"
   xmlns:svg="http://www.w3.org/2000/svg"
   xmlns="http://www.w3.org/2000/svg"
   xmlns:sodipodi="http://sodipodi.sourceforge.net/DTD/sodipodi-0.dtd"
   xmlns:inkscape="http://www.inkscape.org/namespaces/inkscape"
   id="svg2"
   version="1.1"
   inkscape:version="0.91 r13725"
   width="1357.5"
   height="1357.5"
   viewBox="0 0 1357.5 1357.5"
   sodipodi:docname="blaster-head.svg">
  <metadata
     id="metadata8">
    <rdf:RDF>
      <cc:Work
         rdf:about="">
        <dc:format>image/svg+xml</dc:format>
        <dc:type
           rdf:resource="http://purl.org/dc/dcmitype/StillImage" />
        <dc:title />
      </cc:Work>
    </rdf:RDF>
  </metadata>
  <defs
     id="defs6" />
  <sodipodi:namedview
     pagecolor="#ffffff"
     bordercolor="#666666"
     borderopacity="1"
     objecttolerance="10"
     gridtolerance="10"
     guidetolerance="10"
     inkscape:pageopacity="0"
     inkscape:pageshadow="2"
     inkscape:window-width="1280"
     inkscape:window-height="751"
     id="namedview4"
     showgrid="false"
     showguides="false"
     inkscape:zoom="0.35"
     inkscape:cx="545.01322"
     inkscape:cy="576.7862"
     inkscape:window-x="0"
     inkscape:window-y="29"
     inkscape:window-maximized="1"
     inkscape:current-layer="svg2" />
  <path
     inkscape:connector-curvature="0"
     id="path3348"
     d="m 707.47435,1118.5113 c -0.0141,-0.9 -0.85096,-10.0738 -1.85968,-20.3863 -1.00872,-10.3125 -1.85075,-24.0937 -1.87117,-30.625 -0.0879,-28.0729 -7.53458,-51.6872 -20.20208,-64.0625 -4.39346,-4.29211 -6.87787,-4.28502 -11.78088,0.034 -7.8118,6.8808 -11.29672,13.1714 -16.42788,29.6539 -4.4981,14.449 -5.14591,18.1386 -5.84504,33.29 -0.56501,12.2448 -0.22336,21.6571 1.21406,33.447 1.10017,9.0239 1.81391,16.9662 1.58609,17.6497 -0.91005,2.7301 -16.05407,-24.2315 -23.32925,-41.5341 -9.46631,-22.5139 -24.69148,-65.1534 -31.5042,-88.2304 -6.02637,-20.41345 -7.42681,-24.16175 -8.72708,-23.35813 -2.16172,1.33602 -6.24575,18.48269 -8.04752,33.78713 -1.04886,8.9093 -1.91213,23.6187 -1.91838,32.6875 -0.006,9.0688 -0.51018,16.7971 -1.11987,17.1739 -3.53687,2.1859 -23.25108,-33.6723 -37.4059,-68.0376 -8.57663,-20.82253 -14.58595,-47.21474 -16.02372,-70.3744 -0.46094,-7.42466 -1.26385,-13.04966 -1.78425,-12.5 -2.98145,3.14907 -9.07931,25.772 -12.9642,48.09689 -8.03934,46.19886 -8.59649,49.14452 -9.48953,50.17112 -0.48735,0.56024 -8.76365,-18.84601 -18.39176,-43.125 C 466.48867,914.2079 463.7838,906.3164 461.95279,895 c -2.08909,-12.91136 -4.16035,-21.21806 -4.3541,-17.46188 -0.20684,4.00978 -5.10793,52.10039 -5.85615,57.46188 l -0.785,5.625 -12.95578,-26.70736 c -12.73556,-26.25337 -13.11656,-27.3011 -22.41385,-61.63607 -8.53967,-31.53715 -9.58316,-36.65113 -10.7465,-52.66763 -2.26806,-31.22619 -5.68075,-54.55203 -9.91525,-67.77128 C 388.66363,712.29231 371.99114,680.89926 359.4268,665 c -3.53141,-4.46875 -7.887,-10.375 -9.67908,-13.125 -1.79207,-2.75 -7.46027,-9.5772 -12.59598,-15.17154 -5.13573,-5.59435 -11.20794,-12.90685 -13.49382,-16.25 C 321.37204,617.1103 313.56294,606.5 306.30435,596.875 c -14.51703,-19.24981 -34.24654,-50.36691 -37.70398,-59.46615 -3.21158,-8.45217 -6.93063,-23.76784 -9.1565,-37.70789 -2.33023,-14.59376 -2.69117,-68.25139 -0.58515,-86.98791 1.71802,-15.28445 5.32924,-33.87614 9.38912,-48.33805 5.46446,-19.4653 22.41491,-44.68306 55.40011,-82.42065 23.03525,-26.35409 37.75312,-41.76801 45.10205,-47.2351 16.44087,-12.23084 43.16458,-34.63443 55.01837,-46.12419 3.10387,-3.00854 8.29668,-8.84506 11.53959,-12.97006 3.2429,-4.125 9.42214,-11.47562 13.73162,-16.33474 4.30948,-4.8591 10.53971,-12.03097 13.84496,-15.9375 10.01141,-11.83264 12.95951,-8.20437 5.25606,6.4687 -2.39766,4.56695 -6.12984,12.52229 -8.29372,17.67854 -4.25717,10.14429 -19.78613,35.31539 -30.46122,49.375 -3.65401,4.8125 -11.27996,16.0625 -16.94655,25 -5.6666,8.9375 -14.07603,21.875 -18.68763,28.75 -11.17125,16.65417 -13.60279,21.68926 -15.59669,32.29672 -4.22464,22.47478 -3.33906,44.36303 2.45986,60.79894 2.3264,6.59372 10.80591,20.15195 12.30206,19.67025 0.57294,-0.18446 2.22435,-3.13225 3.6698,-6.55065 1.44545,-3.4184 4.11724,-8.46526 5.93733,-11.21526 1.82007,-2.75 5.44925,-10.625 8.06481,-17.5 5.67348,-14.91269 15.25341,-32.6917 27.27846,-50.625 6.67445,-9.95379 13.98728,-18.28348 30.2663,-34.47486 C 493.93473,237.36271 511.05909,224.0753 555,195.6222 575.22241,182.52756 582.50754,176.8968 606.25,156.01046 625.31701,139.23714 630.70905,133.55277 643.96576,116.25 658.0973,97.805391 662.3337,88.341009 671.24234,55.3125 L 674.02388,45 l 4.81488,0 c 4.62049,0 4.86912,0.214482 6.15838,5.3125 4.1485,16.404204 10.84432,37.44572 13.82265,43.4375 9.03841,18.18342 27.53816,40.27642 51.511,61.5161 24.58743,21.7842 28.63771,24.87409 57.79421,44.09025 45.14448,29.75335 64.625,45.41482 90.85802,73.04584 18.95769,19.96797 38.01427,50.35083 47.88647,76.34781 2.4802,6.53125 5.85897,13.84375 7.50837,16.25 1.6494,2.40625 4.47413,7.60937 6.27717,11.5625 1.80303,3.95312 3.65888,7.18257 4.12411,7.17656 1.81094,-0.0234 10.58675,-15.32317 12.70915,-22.15714 4.40769,-14.19249 5.40134,-24.94845 3.91051,-42.33027 -2.04104,-23.79666 -3.32551,-27.22975 -18.89505,-50.50165 -5.2895,-7.90625 -14.00769,-21.40625 -19.37376,-30 -5.36607,-8.59375 -11.56123,-17.875 -13.76701,-20.625 -4.54487,-5.66618 -14.99905,-20.96376 -22.76963,-33.31871 -2.8776,-4.57529 -7.58521,-13.85654 -10.46136,-20.625 -2.87614,-6.76847 -6.28079,-13.80583 -7.56588,-15.63859 -4.79148,-6.8335 -3.99181,-15.02394 1.05815,-10.83781 1.10812,0.91856 5.11562,5.60761 8.90555,10.42011 3.78994,4.8125 10.0644,12.125 13.94324,16.25 3.87884,4.125 9.34223,10.6197 12.14086,14.43266 7.15435,9.74735 30.41082,30.47543 61.11305,54.469 23.29374,18.20393 71.77374,73.24054 88.70434,100.70124 5.3869,8.73726 13.9061,28.75019 16.6644,39.1471 6.9778,26.30181 8.9572,44.98306 8.9464,84.43236 -0.01,33.41531 -1.9298,49.94429 -8.2727,71.19264 -5.2757,17.67366 -24.9477,48.4495 -61.6692,96.47823 -2.4613,3.21926 -8.4127,10.29428 -13.2252,15.72227 -16.254,18.33279 -28.69395,35.29034 -41.47462,56.5363 -12.06004,20.04804 -12.98803,22.0962 -17.76813,39.21599 -5.04265,18.06006 -5.04376,18.06909 -6.46574,52.2427 l -1.42222,34.17951 -11.00684,31.25 c -6.05375,17.1875 -11.98184,34.62009 -13.17351,38.73908 -2.38333,8.23792 -17.52233,44.30496 -19.3916,46.19842 -0.73676,0.74629 -1.17286,0.51406 -1.17375,-0.625 -7.6e-4,-0.99687 -1.12514,-10.53125 -2.49859,-21.1875 -1.37345,-10.65625 -2.50644,-23.3125 -2.51774,-28.125 -0.0319,-13.5922 -1.81108,-13.76174 -4.36016,-0.41549 -2.60866,13.65834 -21.79767,70.5625 -29.08874,86.26135 -5.21803,11.2353 -12.1305,22.27914 -13.94476,22.27914 -0.57271,0 -1.44535,-5.48438 -1.9392,-12.1875 -2.67118,-36.25693 -5.40735,-54.45519 -10.38376,-69.0625 -5.61558,-16.4834 -5.4494,-16.6541 -7.90994,8.125 -1.68999,17.01909 -7.78454,39.56177 -18.92493,70 -5.86688,16.0298 -8.61921,21.4702 -18.97115,37.5 -6.65976,10.3125 -12.567,18.914 -13.1272,19.1144 -2.10578,0.7532 -10.08242,-53.90606 -10.08242,-69.08902 0,-7.39377 -0.44444,-9.41512 -2.47394,-11.25179 -1.98438,-1.79585 -2.58869,-1.89603 -3.05382,-0.50624 -0.31894,0.95296 -2.54434,8.48265 -4.94534,16.73265 -5.93819,20.404 -29.44505,88.8354 -34.89405,101.5808 -4.48474,10.4899 -15.18681,29.7165 -17.25133,30.9924 -0.62233,0.3847 -1.14306,-0.037 -1.15717,-0.9369 z M 445.86624,900.33629 c -0.31693,-1.21621 -0.59708,-0.52379 -0.62255,1.53871 -0.0255,2.0625 0.23382,3.05758 0.57623,2.21129 0.3424,-0.84629 0.36324,-2.53379 0.0464,-3.75 z M 289.855,338.62864 C 290.65074,336.34599 290.67359,335 289.9166,335 c -1.48868,0 -6.15555,7.48374 -6.16192,9.88124 -0.007,2.7801 4.5965,-1.93872 6.10032,-6.2526 z m 49.63337,-64.55694 c -0.86687,-0.86686 -3.23837,0.89444 -3.23837,2.40513 0,0.82887 0.71722,0.73403 1.90521,-0.2519 1.04786,-0.86965 1.64779,-1.8386 1.33316,-2.15323 z M 556.36583,208.99694 C 554.65165,208.42555 550,211.0691 550,212.61465 c 0,0.70217 1.70844,0.26749 3.79652,-0.96598 2.08809,-1.23346 3.24428,-2.42673 2.5693,-2.65173 z M 459.6721,158.605 c 1.44131,-3.81845 1.42212,-3.85149 -0.97595,-1.68126 -1.34539,1.21755 -2.44615,2.9703 -2.44615,3.895 0,3.0127 1.91756,1.77223 3.4221,-2.21374 z"
     style="fill:#fefefe" />
  <path
     inkscape:connector-curvature="0"
     id="path3346"
     d="m 707.47435,1118.5113 c -0.0141,-0.9 -0.85096,-10.0738 -1.85968,-20.3863 -1.00872,-10.3125 -1.85075,-24.0937 -1.87117,-30.625 -0.0879,-28.0729 -7.53458,-51.6872 -20.20208,-64.0625 -4.39346,-4.29211 -6.87787,-4.28502 -11.78088,0.034 -7.8118,6.8808 -11.29672,13.1714 -16.42788,29.6539 -4.4981,14.449 -5.14591,18.1386 -5.84504,33.29 -0.56501,12.2448 -0.22336,21.6571 1.21406,33.447 1.10017,9.0239 1.81391,16.9662 1.58609,17.6497 -0.91005,2.7301 -16.05407,-24.2315 -23.32925,-41.5341 -9.46631,-22.5139 -24.69148,-65.1534 -31.5042,-88.2304 -6.02637,-20.41345 -7.42681,-24.16175 -8.72708,-23.35813 -2.16172,1.33602 -6.24575,18.48269 -8.04752,33.78713 -1.04886,8.9093 -1.91213,23.6187 -1.91838,32.6875 -0.006,9.0688 -0.51018,16.7971 -1.11987,17.1739 -3.53687,2.1859 -23.25108,-33.6723 -37.4059,-68.0376 -8.57663,-20.82253 -14.58595,-47.21474 -16.02372,-70.3744 -0.46094,-7.42466 -1.26385,-13.04966 -1.78425,-12.5 -2.98145,3.14907 -9.07931,25.772 -12.9642,48.09689 -8.03934,46.19886 -8.59649,49.14452 -9.48953,50.17112 -0.48735,0.56024 -8.76365,-18.84601 -18.39176,-43.125 C 466.48867,914.2079 463.7838,906.3164 461.95279,895 c -2.08909,-12.91136 -4.16035,-21.21806 -4.3541,-17.46188 -0.20684,4.00978 -5.10793,52.10039 -5.85615,57.46188 l -0.785,5.625 -12.95578,-26.70736 c -12.73556,-26.25337 -13.11656,-27.3011 -22.41385,-61.63607 -8.53967,-31.53715 -9.58316,-36.65113 -10.7465,-52.66763 -2.26806,-31.22619 -5.68075,-54.55203 -9.91525,-67.77128 C 388.66363,712.29231 371.99114,680.89926 359.4268,665 c -3.53141,-4.46875 -7.887,-10.375 -9.67908,-13.125 -1.79207,-2.75 -7.46027,-9.5772 -12.59598,-15.17154 -5.13573,-5.59435 -11.20794,-12.90685 -13.49382,-16.25 C 321.37204,617.1103 313.56294,606.5 306.30435,596.875 c -14.51703,-19.24981 -34.24654,-50.36691 -37.70398,-59.46615 -3.21158,-8.45217 -6.93063,-23.76784 -9.1565,-37.70789 -2.33023,-14.59376 -2.69117,-68.25139 -0.58515,-86.98791 1.71802,-15.28445 5.32924,-33.87614 9.38912,-48.33805 5.46446,-19.4653 22.41491,-44.68306 55.40011,-82.42065 23.03525,-26.35409 37.75312,-41.76801 45.10205,-47.2351 16.44087,-12.23084 43.16458,-34.63443 55.01837,-46.12419 3.10387,-3.00854 8.29668,-8.84506 11.53959,-12.97006 3.2429,-4.125 9.42214,-11.47562 13.73162,-16.33474 4.30948,-4.8591 10.53971,-12.03097 13.84496,-15.9375 10.01141,-11.83264 12.95951,-8.20437 5.25606,6.4687 -2.39766,4.56695 -6.12984,12.52229 -8.29372,17.67854 -4.25717,10.14429 -19.78613,35.31539 -30.46122,49.375 -3.65401,4.8125 -11.27996,16.0625 -16.94655,25 -5.6666,8.9375 -14.07603,21.875 -18.68763,28.75 -11.17125,16.65417 -13.60279,21.68926 -15.59669,32.29672 -4.22464,22.47478 -3.33906,44.36303 2.45986,60.79894 2.3264,6.59372 10.80591,20.15195 12.30206,19.67025 0.57294,-0.18446 2.22435,-3.13225 3.6698,-6.55065 1.44545,-3.4184 4.11724,-8.46526 5.93733,-11.21526 1.82007,-2.75 5.44925,-10.625 8.06481,-17.5 5.67348,-14.91269 15.25341,-32.6917 27.27846,-50.625 6.67445,-9.95379 13.98728,-18.28348 30.2663,-34.47486 C 493.93473,237.36271 511.05909,224.0753 555,195.6222 575.22241,182.52756 582.50754,176.8968 606.25,156.01046 625.31701,139.23714 630.70905,133.55277 643.96576,116.25 658.0973,97.805391 662.3337,88.341009 671.24234,55.3125 L 674.02388,45 l 4.81488,0 c 4.62049,0 4.86912,0.214482 6.15838,5.3125 4.1485,16.404204 10.84432,37.44572 13.82265,43.4375 9.03841,18.18342 27.53816,40.27642 51.511,61.5161 24.58743,21.7842 28.63771,24.87409 57.79421,44.09025 45.14448,29.75335 64.625,45.41482 90.85802,73.04584 18.95769,19.96797 38.01427,50.35083 47.88647,76.34781 2.4802,6.53125 5.85897,13.84375 7.50837,16.25 1.6494,2.40625 4.47413,7.60937 6.27717,11.5625 1.80303,3.95312 3.65888,7.18257 4.12411,7.17656 1.81094,-0.0234 10.58675,-15.32317 12.70915,-22.15714 4.40769,-14.19249 5.40134,-24.94845 3.91051,-42.33027 -2.04104,-23.79666 -3.32551,-27.22975 -18.89505,-50.50165 -5.2895,-7.90625 -14.00769,-21.40625 -19.37376,-30 -5.36607,-8.59375 -11.56123,-17.875 -13.76701,-20.625 -4.54487,-5.66618 -14.99905,-20.96376 -22.76963,-33.31871 -2.8776,-4.57529 -7.58521,-13.85654 -10.46136,-20.625 -2.87614,-6.76847 -6.28079,-13.80583 -7.56588,-15.63859 -4.79148,-6.8335 -3.99181,-15.02394 1.05815,-10.83781 1.10812,0.91856 5.11562,5.60761 8.90555,10.42011 3.78994,4.8125 10.0644,12.125 13.94324,16.25 3.87884,4.125 9.34223,10.6197 12.14086,14.43266 7.15435,9.74735 30.41082,30.47543 61.11305,54.469 23.29374,18.20393 71.77374,73.24054 88.70434,100.70124 5.3869,8.73726 13.9061,28.75019 16.6644,39.1471 6.9778,26.30181 8.9572,44.98306 8.9464,84.43236 -0.01,33.41531 -1.9298,49.94429 -8.2727,71.19264 -5.2757,17.67366 -24.9477,48.4495 -61.6692,96.47823 -2.4613,3.21926 -8.4127,10.29428 -13.2252,15.72227 -16.254,18.33279 -28.69395,35.29034 -41.47462,56.5363 -12.06004,20.04804 -12.98803,22.0962 -17.76813,39.21599 -5.04265,18.06006 -5.04376,18.06909 -6.46574,52.2427 l -1.42222,34.17951 -11.00684,31.25 c -6.05375,17.1875 -11.98184,34.62009 -13.17351,38.73908 -2.38333,8.23792 -17.52233,44.30496 -19.3916,46.19842 -0.73676,0.74629 -1.17286,0.51406 -1.17375,-0.625 -7.6e-4,-0.99687 -1.12514,-10.53125 -2.49859,-21.1875 -1.37345,-10.65625 -2.50644,-23.3125 -2.51774,-28.125 -0.0319,-13.5922 -1.81108,-13.76174 -4.36016,-0.41549 -2.60866,13.65834 -21.79767,70.5625 -29.08874,86.26135 -5.21803,11.2353 -12.1305,22.27914 -13.94476,22.27914 -0.57271,0 -1.44535,-5.48438 -1.9392,-12.1875 -2.67118,-36.25693 -5.40735,-54.45519 -10.38376,-69.0625 -5.61558,-16.4834 -5.4494,-16.6541 -7.90994,8.125 -1.68999,17.01909 -7.78454,39.56177 -18.92493,70 -5.86688,16.0298 -8.61921,21.4702 -18.97115,37.5 -6.65976,10.3125 -12.567,18.914 -13.1272,19.1144 -2.10578,0.7532 -10.08242,-53.90606 -10.08242,-69.08902 0,-7.39377 -0.44444,-9.41512 -2.47394,-11.25179 -1.98438,-1.79585 -2.58869,-1.89603 -3.05382,-0.50624 -0.31894,0.95296 -2.54434,8.48265 -4.94534,16.73265 -5.93819,20.404 -29.44505,88.8354 -34.89405,101.5808 -4.48474,10.4899 -15.18681,29.7165 -17.25133,30.9924 -0.62233,0.3847 -1.14306,-0.037 -1.15717,-0.9369 z m 20.17215,-63.106 c 16.72913,-45.6315 28.52304,-79.94104 30.64714,-89.1553 2.30082,-9.9809 4.60791,-13.75 8.41645,-13.75 8.00762,0 13.37112,15.76333 15.73663,46.25 0.72015,9.2812 1.66677,19.9299 2.1036,23.6636 l 0.79424,6.7886 8.74484,-18.0386 c 16.75334,-34.55834 30.55265,-81.19524 34.00159,-114.9136 0.4571,-4.46875 1.40908,-9.98525 2.11555,-12.2589 1.07898,-3.47259 1.80873,-4.07249 4.56169,-3.75 2.56589,0.30057 3.5254,1.33349 4.42067,4.7589 0.62891,2.40625 3.59467,11.27207 6.59059,19.70184 7.60763,21.40596 11.72051,42.15177 11.72051,59.11953 0,3.16908 0.37261,6.13458 0.82804,6.59001 1.65638,1.65637 25.39786,-63.27836 30.43475,-83.24133 8.08418,-32.04054 9.96802,-36.80829 13.94125,-35.28362 2.0444,0.78451 5.345,23.40873 6.88512,47.19466 0.43469,6.71334 1.00509,11.99132 1.26758,11.72885 0.58581,-0.58583 22.03772,-68.61422 26.27075,-83.30994 2.21906,-7.70388 3.0424,-13.54613 2.99475,-21.25 -0.0879,-14.21315 2.04682,-40.5633 4.38723,-54.15373 3.48005,-20.20816 14.53733,-47.53888 28.83307,-71.26792 6.7735,-11.2431 24.89125,-34.7651 36.74336,-47.70335 5.6681,-6.1875 12.8894,-14.6829 16.0473,-18.87868 3.158,-4.19576 12.4951,-16.00826 20.7491,-26.25 29.867,-37.05938 37.5651,-52.2136 43.005,-84.65888 2.2795,-13.59575 2.7071,-21.39888 2.8083,-51.25 0.1113,-32.86153 -0.1022,-36.46427 -3.1983,-53.96244 -1.8246,-10.3125 -4.1247,-21.94853 -5.1111,-25.85783 -4.6584,-18.46048 -15.0443,-39.0255 -26.3964,-52.26717 -3.2417,-3.78125 -9.013,-11.09375 -12.8253,-16.25 -15.9603,-21.58725 -48.80879,-56.8786 -62.58986,-67.24451 -16.46459,-12.38439 -26.30878,-21.295 -51.27258,-46.41012 -23.99907,-24.14455 -34.92757,-36.68922 -40.05105,-45.97403 -2.48022,-4.49467 -2.57766,-4.5475 -1.83766,-0.99634 0.42979,2.0625 1.50402,4.59375 2.3872,5.625 0.88317,1.03125 4.12254,7.21875 7.19857,13.75 6.09199,12.93487 24.07639,40.57595 35.26465,54.19989 3.87303,4.71617 8.53148,11.18492 10.35212,14.375 1.82065,3.19006 5.65945,9.17511 8.53067,13.30011 28.40664,40.81087 32.15256,47.52567 35.09661,62.91281 2.65749,13.88948 2.28272,39.82049 -0.75891,52.50808 -2.96657,12.37458 -16.16242,38.36611 -20.11536,39.62072 -2.68076,0.85084 -6.1189,-1.26101 -6.1189,-3.7585 0,-0.84466 -1.35824,-4.09025 -3.0183,-7.2124 -1.66006,-3.12215 -4.4859,-9.74519 -6.27965,-14.71787 -7.97264,-22.10202 -29.15173,-60.72217 -44.38906,-80.94364 -7.45722,-9.89646 -21.6194,-24.10868 -41.31997,-41.46591 -10.0257,-8.83318 -36.20392,-26.57384 -77.15438,-52.28658 -36.45851,-22.89225 -62.37647,-45.17085 -85.01965,-73.08131 -12.73039,-15.69174 -19.57725,-27.10652 -22.87606,-38.1379 -0.87375,-2.921875 -1.92149,-5.303244 -2.32829,-5.291931 -1.2317,0.03425 -9.12929,21.626811 -9.13636,24.979431 -0.0222,10.59165 -8.07579,52.20446 -14.1799,73.26845 -3.4654,11.9584 -3.8723,12.59584 -24.33675,38.1256 -7.92737,9.88952 -19.64019,24.85639 -26.02852,33.2597 -6.38832,8.40332 -21.73695,25.84083 -34.10807,38.75 -43.00805,44.87865 -64.03761,73.1038 -71.53719,96.0148 -1.69272,5.1712 -5.77981,25.16448 -5.78614,28.30466 -0.004,2.11285 4.33247,4.76922 10.90586,6.68015 10.65762,3.09825 22.83529,9.23294 40.92549,20.61681 25.72077,16.18565 42.33711,31.61676 60.54473,56.22603 8.81519,11.91454 25.3933,39.46869 29.03971,48.26632 2.84006,6.85216 3.96316,7.90537 5.60211,5.25348 0.50444,-0.81619 1.37705,-25.42556 1.93914,-54.6875 1.25106,-65.12926 2.63209,-95.70989 5.28165,-116.9535 1.11471,-8.9375 3.17987,-25.53125 4.58926,-36.875 1.40939,-11.34375 3.09303,-24.7261 3.74143,-29.73856 0.6484,-5.01245 1.17891,-11.69615 1.17891,-14.85266 0,-3.1565 1.10689,-12.5554 2.45975,-20.88644 1.35286,-8.33104 3.32856,-21.61609 4.39043,-29.52234 3.48984,-25.98394 6.87288,-43.79685 8.90773,-46.90241 1.46161,-2.23071 1.92038,-5.50838 1.69909,-12.13919 -0.16672,-4.99587 -0.22526,-10.06777 -0.13008,-11.2709 0.26989,-3.41114 2.67308,-2.5683 2.67308,0.9375 0,1.71875 0.5625,3.125 1.25,3.125 0.6875,0 1.25,-1.45312 1.25,-3.22916 0,-2.03368 0.57846,-3.03226 1.5625,-2.69729 1.13727,0.38714 1.4388,3.47779 1.10797,11.35683 -0.35366,8.42268 -0.007,11.50711 1.55967,13.89897 2.02872,3.09623 5.32449,20.36714 8.95374,46.92065 1.0806,7.90625 3.05628,21.24394 4.39042,29.63931 1.33414,8.39538 2.42499,17.67663 2.4241,20.625 -10e-4,5.36934 0.55883,10.42377 5.02944,45.36069 8.38741,65.54583 8.60419,70.13105 12.29185,260 0.64094,33 1.46314,60.84375 1.82711,61.875 0.88823,2.51655 2.28508,81.32272 2.53691,143.125 l 0.20375,50 5.93128,13.42602 c 7.3976,16.74524 7.70526,22.33974 2.04386,37.16545 -4.61185,12.07722 -9.6689,17.59607 -19.49112,21.27103 -7.43649,2.78235 -9.65057,2.3987 -8.42585,-1.46001 0.55167,-1.73817 -0.19879,-3.55183 -2.43589,-5.88685 -3.73406,-3.89753 -8.0101,-15.7086 -11.95265,-33.01505 -1.51928,-6.66908 -3.19935,-12.12559 -3.7335,-12.12559 -0.53417,0 -1.27732,4.64062 -1.65145,10.3125 -0.60693,9.20097 -2.15728,18.93386 -9.133,57.33587 -2.08657,11.48678 -2.25605,39.41552 -0.24673,40.65736 0.61985,0.38308 3.19826,0.73006 5.72979,0.77106 5.63959,0.0914 7.7278,1.56439 7.7278,5.45126 0,2.11275 0.70436,2.97195 2.43639,2.97195 3.17652,0 7.58559,5.8995 13.08722,17.5111 7.95575,16.7913 11.94989,37.4916 12.0144,62.2669 0.0264,10.1204 0.41283,13.9546 1.26018,12.5023 0.6722,-1.1521 6.34144,-16.0583 12.59831,-33.125 z M 785.625,723.86115 c -7.27949,-3.398 -21.13975,-18.12544 -24.96844,-26.53063 -5.03897,-11.06212 -6.35885,-23.80961 -4.72497,-45.63417 1.11362,-14.87531 2.19651,-21.13247 5.38178,-31.09689 8.93519,-27.95174 20.18223,-47.21741 40.12563,-68.73336 5.7398,-6.19239 14.09225,-15.70493 18.561,-21.13895 10.96706,-13.33601 40.81452,-40.80179 53.125,-48.88586 10.87855,-7.14377 18.1359,-10.46215 37.93347,-17.34489 14.99082,-5.21165 25.89519,-6.05319 29.32512,-2.26315 7.22181,7.98001 12.13455,41.81409 12.09471,83.29635 -0.0225,23.41894 -0.55133,27.3466 -6.82903,50.7204 -4.96293,18.47859 -22.88283,51.72695 -36.88798,68.44159 -16.85985,20.12161 -20.40965,22.50947 -47.2661,31.79486 -7.84794,2.71336 -19.38129,7.18309 -25.62967,9.93274 -6.24838,2.74966 -15.60866,5.96681 -20.80061,7.14925 -8.00601,1.82331 -9.68792,2.66557 -11.07264,5.54494 -1.71881,3.57406 -7.31968,7.15552 -11.1177,7.10917 -1.23726,-0.0151 -4.49957,-1.07774 -7.24957,-2.3614 z m 78.00271,-94.04767 c 3.05154,-8.75363 0.0113,-22.99886 -8.30871,-38.92894 -8.06671,-15.44543 -16.42328,-18.45304 -33.1315,-11.92441 -3.95779,1.54647 -4.25741,3.74981 -1.43801,10.57472 2.70341,6.54418 5.02726,8.91874 9.69262,9.90414 5.05987,1.06874 11.53465,5.00427 12.78952,7.77381 0.53883,1.18921 1.29777,6.0997 1.68653,10.9122 l 0.70684,8.75 6.78664,3.4375 c 3.73266,1.89062 7.47451,3.4375 8.31522,3.4375 0.84072,0 2.1461,-1.77144 2.90085,-3.93652 z M 445.86624,900.33629 c -0.31693,-1.21621 -0.59708,-0.52379 -0.62255,1.53871 -0.0255,2.0625 0.23382,3.05758 0.57623,2.21129 0.3424,-0.84629 0.36324,-2.53379 0.0464,-3.75 z M 557.19784,649.4216 c 5.10386,-5.79829 9.99631,-18.98355 11.28444,-30.41181 0.8393,-7.44624 -6.54954,-22.16323 -14.56875,-29.01783 -7.56419,-6.46567 -20.59902,-12.73846 -25.45518,-12.24985 C 523.3545,578.25564 520,584.47255 520,593.418 l 0,6.582 10.3125,0.005 c 11.71715,0.005 17.54427,2.48323 19.80159,8.42039 2.54591,6.69626 -1.88305,18.15161 -10.00258,25.8713 -2.12382,2.01925 -3.86151,4.61995 -3.86151,5.77934 0,1.15937 2.10937,4.98308 4.6875,8.49713 6.17101,8.41124 9.45279,8.58255 16.26034,0.84877 z M 289.855,338.62864 C 290.65074,336.34599 290.67359,335 289.9166,335 c -1.48868,0 -6.15555,7.48374 -6.16192,9.88124 -0.007,2.7801 4.5965,-1.93872 6.10032,-6.2526 z m 49.63337,-64.55694 c -0.86687,-0.86686 -3.23837,0.89444 -3.23837,2.40513 0,0.82887 0.71722,0.73403 1.90521,-0.2519 1.04786,-0.86965 1.64779,-1.8386 1.33316,-2.15323 z M 556.36583,208.99694 C 554.65165,208.42555 550,211.0691 550,212.61465 c 0,0.70217 1.70844,0.26749 3.79652,-0.96598 2.08809,-1.23346 3.24428,-2.42673 2.5693,-2.65173 z M 459.6721,158.605 c 1.44131,-3.81845 1.42212,-3.85149 -0.97595,-1.68126 -1.34539,1.21755 -2.44615,2.9703 -2.44615,3.895 0,3.0127 1.91756,1.77223 3.4221,-2.21374 z"
     style="fill:#7bd7fc" />
  <path
     sodipodi:nodetypes="cssscssscsssscsssssssssscsssssssssssssssssssssssssssssssssssscssssssssssssssssssssssssscsssssscssscsssssssssscsssssccssssscssssssssssscssssscsssscssssssssssssssssssssssscssssscsssssssssssssssssssscsscsscscsssssssssccssssssssssssssssssssssssssssssscsssssssscssssssssssscc"
     inkscape:connector-curvature="0"
     id="path3344"
     d="m 707.47435,1118.5113 c -0.0141,-0.9 -0.85096,-10.0738 -1.85968,-20.3863 -1.00872,-10.3125 -1.85075,-24.0937 -1.87117,-30.625 -0.0879,-28.0729 -7.53458,-51.6872 -20.20208,-64.0625 -4.39346,-4.29211 -6.87787,-4.28502 -11.78088,0.034 -7.8118,6.8808 -11.29672,13.1714 -16.42788,29.6539 -4.4981,14.449 -5.14591,18.1386 -5.84504,33.29 -0.56501,12.2448 -0.22336,21.6571 1.21406,33.447 1.10017,9.0239 1.81391,16.9662 1.58609,17.6497 -0.91005,2.7301 -16.05407,-24.2315 -23.32925,-41.5341 -9.46631,-22.5139 -24.69148,-65.1534 -31.5042,-88.2304 -6.02637,-20.41345 -7.42681,-24.16175 -8.72708,-23.35813 -2.16172,1.33602 -6.24575,18.48269 -8.04752,33.78713 -1.04886,8.9093 -1.91213,23.6187 -1.91838,32.6875 -0.006,9.0688 -0.51018,16.7971 -1.11987,17.1739 -3.53687,2.1859 -23.25108,-33.6723 -37.4059,-68.0376 -8.57663,-20.82253 -14.58595,-47.21474 -16.02372,-70.3744 -0.46094,-7.42466 -1.26385,-13.04966 -1.78425,-12.5 -2.98145,3.14907 -9.07931,25.772 -12.9642,48.09689 -8.03934,46.19886 -8.59649,49.14452 -9.48953,50.17112 -0.48735,0.56024 -8.76365,-18.84601 -18.39176,-43.125 C 466.48867,914.2079 463.7838,906.3164 461.95279,895 c -2.08909,-12.91136 -4.16035,-21.21806 -4.3541,-17.46188 -0.20684,4.00978 -5.10793,52.10039 -5.85615,57.46188 l -0.785,5.625 -12.95578,-26.70736 c -12.73556,-26.25337 -13.11656,-27.3011 -22.41385,-61.63607 -8.53967,-31.53715 -9.58316,-36.65113 -10.7465,-52.66763 -2.26806,-31.22619 -5.68075,-54.55203 -9.91525,-67.77128 C 388.66363,712.29231 371.99114,680.89926 359.4268,665 c -3.53141,-4.46875 -7.887,-10.375 -9.67908,-13.125 -1.79207,-2.75 -7.46027,-9.5772 -12.59598,-15.17154 -5.13573,-5.59435 -11.20794,-12.90685 -13.49382,-16.25 C 321.37204,617.1103 313.56294,606.5 306.30435,596.875 c -14.51703,-19.24981 -34.24654,-50.36691 -37.70398,-59.46615 -3.21158,-8.45217 -6.93063,-23.76784 -9.1565,-37.70789 -2.33023,-14.59376 -2.69117,-68.25139 -0.58515,-86.98791 1.71802,-15.28445 5.32924,-33.87614 9.38912,-48.33805 5.46446,-19.4653 22.41491,-44.68306 55.40011,-82.42065 23.03525,-26.35409 37.75312,-41.76801 45.10205,-47.2351 16.44087,-12.23084 43.16458,-34.63443 55.01837,-46.12419 3.10387,-3.00854 8.29668,-8.84506 11.53959,-12.97006 3.2429,-4.125 9.42214,-11.47562 13.73162,-16.33474 4.30948,-4.8591 10.53971,-12.03097 13.84496,-15.9375 10.01141,-11.83264 12.95951,-8.20437 5.25606,6.4687 -2.39766,4.56695 -6.12984,12.52229 -8.29372,17.67854 -4.25717,10.14429 -19.78613,35.31539 -30.46122,49.375 -3.65401,4.8125 -11.27996,16.0625 -16.94655,25 -5.6666,8.9375 -14.07603,21.875 -18.68763,28.75 -11.17125,16.65417 -13.60279,21.68926 -15.59669,32.29672 -4.22464,22.47478 -3.33906,44.36303 2.45986,60.79894 2.3264,6.59372 10.80591,20.15195 12.30206,19.67025 0.57294,-0.18446 2.22435,-3.13225 3.6698,-6.55065 1.44545,-3.4184 4.11724,-8.46526 5.93733,-11.21526 1.82007,-2.75 5.44925,-10.625 8.06481,-17.5 5.67348,-14.91269 15.25341,-32.6917 27.27846,-50.625 6.67445,-9.95379 13.98728,-18.28348 30.2663,-34.47486 C 493.93473,237.36271 511.05909,224.0753 555,195.6222 575.22241,182.52756 582.50754,176.8968 606.25,156.01046 625.31701,139.23714 630.70905,133.55277 643.96576,116.25 658.0973,97.805391 662.3337,88.341009 671.24234,55.3125 L 674.02388,45 l 4.81488,0 c 4.62049,0 4.86912,0.214482 6.15838,5.3125 4.1485,16.404204 10.84432,37.44572 13.82265,43.4375 9.03841,18.18342 27.53816,40.27642 51.511,61.5161 24.58743,21.7842 28.63771,24.87409 57.79421,44.09025 45.14448,29.75335 64.625,45.41482 90.85802,73.04584 18.95769,19.96797 38.01427,50.35083 47.88647,76.34781 2.4802,6.53125 5.85897,13.84375 7.50837,16.25 1.6494,2.40625 4.47413,7.60937 6.27717,11.5625 1.80303,3.95312 3.65888,7.18257 4.12411,7.17656 1.81094,-0.0234 10.58675,-15.32317 12.70915,-22.15714 4.40769,-14.19249 5.40134,-24.94845 3.91051,-42.33027 -2.04104,-23.79666 -3.32551,-27.22975 -18.89505,-50.50165 -5.2895,-7.90625 -14.00769,-21.40625 -19.37376,-30 -5.36607,-8.59375 -11.56123,-17.875 -13.76701,-20.625 -4.54487,-5.66618 -14.99905,-20.96376 -22.76963,-33.31871 -2.8776,-4.57529 -7.58521,-13.85654 -10.46136,-20.625 -2.87614,-6.76847 -6.28079,-13.80583 -7.56588,-15.63859 -4.79148,-6.8335 -3.99181,-15.02394 1.05815,-10.83781 1.10812,0.91856 5.11562,5.60761 8.90555,10.42011 3.78994,4.8125 10.0644,12.125 13.94324,16.25 3.87884,4.125 9.34223,10.6197 12.14086,14.43266 7.15435,9.74735 30.41082,30.47543 61.11305,54.469 23.29374,18.20393 71.77374,73.24054 88.70434,100.70124 5.3869,8.73726 13.9061,28.75019 16.6644,39.1471 6.9778,26.30181 8.9572,44.98306 8.9464,84.43236 -0.01,33.41531 -1.9298,49.94429 -8.2727,71.19264 -5.2757,17.67366 -24.9477,48.4495 -61.6692,96.47823 -2.4613,3.21926 -8.4127,10.29428 -13.2252,15.72227 -16.254,18.33279 -28.69395,35.29034 -41.47462,56.5363 -12.06004,20.04804 -12.98803,22.0962 -17.76813,39.21599 -5.04265,18.06006 -5.04376,18.06909 -6.46574,52.2427 l -1.42222,34.17951 -11.00684,31.25 c -6.05375,17.1875 -11.98184,34.62009 -13.17351,38.73908 -2.38333,8.23792 -17.52233,44.30496 -19.3916,46.19842 -0.73676,0.74629 -1.17286,0.51406 -1.17375,-0.625 -7.6e-4,-0.99687 -1.12514,-10.53125 -2.49859,-21.1875 -1.37345,-10.65625 -2.50644,-23.3125 -2.51774,-28.125 -0.0319,-13.5922 -1.81108,-13.76174 -4.36016,-0.41549 -2.60866,13.65834 -21.79767,70.5625 -29.08874,86.26135 -5.21803,11.2353 -12.1305,22.27914 -13.94476,22.27914 -0.57271,0 -1.44535,-5.48438 -1.9392,-12.1875 -2.67118,-36.25693 -5.40735,-54.45519 -10.38376,-69.0625 -5.61558,-16.4834 -5.4494,-16.6541 -7.90994,8.125 -1.68999,17.01909 -7.78454,39.56177 -18.92493,70 -5.86688,16.0298 -8.61921,21.4702 -18.97115,37.5 -6.65976,10.3125 -12.567,18.914 -13.1272,19.1144 -2.10578,0.7532 -10.08242,-53.90606 -10.08242,-69.08902 0,-7.39377 -0.44444,-9.41512 -2.47394,-11.25179 -1.98438,-1.79585 -2.58869,-1.89603 -3.05382,-0.50624 -0.31894,0.95296 -2.54434,8.48265 -4.94534,16.73265 -5.93819,20.404 -29.44505,88.8354 -34.89405,101.5808 -4.48474,10.4899 -15.18681,29.7165 -17.25133,30.9924 -0.62233,0.3847 -1.14306,-0.037 -1.15717,-0.9369 z m 20.17215,-63.106 c 16.72913,-45.6315 28.52304,-79.94104 30.64714,-89.1553 2.30082,-9.9809 4.60791,-13.75 8.41645,-13.75 8.00762,0 13.37112,15.76333 15.73663,46.25 0.72015,9.2812 1.66677,19.9299 2.1036,23.6636 l 0.79424,6.7886 8.74484,-18.0386 c 16.75334,-34.55834 30.55265,-81.19524 34.00159,-114.9136 0.4571,-4.46875 1.40908,-9.98525 2.11555,-12.2589 1.07898,-3.47259 1.80873,-4.07249 4.56169,-3.75 2.56589,0.30057 3.5254,1.33349 4.42067,4.7589 0.62891,2.40625 3.59467,11.27207 6.59059,19.70184 7.60763,21.40596 11.72051,42.15177 11.72051,59.11953 0,3.16908 0.37261,6.13458 0.82804,6.59001 1.65638,1.65637 25.39786,-63.27836 30.43475,-83.24133 8.08418,-32.04054 9.96802,-36.80829 13.94125,-35.28362 2.0444,0.78451 5.345,23.40873 6.88512,47.19466 0.43469,6.71334 1.00509,11.99132 1.26758,11.72885 0.58581,-0.58583 22.03772,-68.61422 26.27075,-83.30994 2.21906,-7.70388 3.0424,-13.54613 2.99475,-21.25 -0.0879,-14.21315 2.04682,-40.5633 4.38723,-54.15373 3.48005,-20.20816 14.53733,-47.53888 28.83307,-71.26792 6.7735,-11.2431 24.89125,-34.7651 36.74336,-47.70335 5.6681,-6.1875 12.8894,-14.6829 16.0473,-18.87868 3.158,-4.19576 12.4951,-16.00826 20.7491,-26.25 29.867,-37.05938 37.5651,-52.2136 43.005,-84.65888 2.2795,-13.59575 2.7071,-21.39888 2.8083,-51.25 0.1113,-32.86153 -0.1022,-36.46427 -3.1983,-53.96244 -1.8246,-10.3125 -4.1247,-21.94853 -5.1111,-25.85783 -4.6584,-18.46048 -15.0443,-39.0255 -26.3964,-52.26717 -3.2417,-3.78125 -9.013,-11.09375 -12.8253,-16.25 -15.9603,-21.58725 -48.80879,-56.8786 -62.58986,-67.24451 -16.46459,-12.38439 -26.30878,-21.295 -51.27258,-46.41012 -23.99907,-24.14455 -34.92757,-36.68922 -40.05105,-45.97403 -2.48022,-4.49467 -2.57766,-4.5475 -1.83766,-0.99634 0.42979,2.0625 1.50402,4.59375 2.3872,5.625 0.88317,1.03125 4.12254,7.21875 7.19857,13.75 6.09199,12.93487 24.07639,40.57595 35.26465,54.19989 3.87303,4.71617 8.53148,11.18492 10.35212,14.375 1.82065,3.19006 5.65945,9.17511 8.53067,13.30011 28.40664,40.81087 32.15256,47.52567 35.09661,62.91281 2.65749,13.88948 2.28272,39.82049 -0.75891,52.50808 -2.96657,12.37458 -16.16242,38.36611 -20.11536,39.62072 -2.68076,0.85084 -6.1189,-1.26101 -6.1189,-3.7585 0,-0.84466 -1.35824,-4.09025 -3.0183,-7.2124 -1.66006,-3.12215 -4.4859,-9.74519 -6.27965,-14.71787 -7.97264,-22.10202 -29.15173,-60.72217 -44.38906,-80.94364 -7.45722,-9.89646 -21.6194,-24.10868 -41.31997,-41.46591 -10.0257,-8.83318 -36.20392,-26.57384 -77.15438,-52.28658 -36.45851,-22.89225 -62.37647,-45.17085 -85.01965,-73.08131 -12.73039,-15.69174 -19.57725,-27.10652 -22.87606,-38.1379 -0.87375,-2.921875 -1.92149,-5.303244 -2.32829,-5.291931 -1.2317,0.03425 -9.12929,21.626811 -9.13636,24.979431 -0.0222,10.59165 -8.07579,52.20446 -14.1799,73.26845 -3.4654,11.9584 -3.8723,12.59584 -24.33675,38.1256 -7.92737,9.88952 -19.64019,24.85639 -26.02852,33.2597 -6.38832,8.40332 -21.73695,25.84083 -34.10807,38.75 -43.00805,44.87865 -64.03761,73.1038 -71.53719,96.0148 -1.69272,5.1712 -5.77981,25.16448 -5.78614,28.30466 -0.004,2.11285 4.33247,4.76922 10.90586,6.68015 10.65762,3.09825 22.83529,9.23294 40.92549,20.61681 25.72077,16.18565 42.33711,31.61676 60.54473,56.22603 8.81519,11.91454 25.3933,39.46869 29.03971,48.26632 2.84006,6.85216 3.96316,7.90537 5.60211,5.25348 0.50444,-0.81619 1.37705,-25.42556 1.93914,-54.6875 1.25106,-65.12926 2.63209,-95.70989 5.28165,-116.9535 1.11471,-8.9375 3.17987,-25.53125 4.58926,-36.875 1.40939,-11.34375 3.09303,-24.7261 3.74143,-29.73856 0.6484,-5.01245 1.17891,-11.69615 1.17891,-14.85266 0,-3.1565 1.10689,-12.5554 2.45975,-20.88644 1.35286,-8.33104 3.32856,-21.61609 4.39043,-29.52234 3.48984,-25.98394 6.87288,-43.79685 8.90773,-46.90241 1.46161,-2.23071 1.92038,-5.50838 1.69909,-12.13919 -0.16672,-4.99587 -0.22526,-10.06777 -0.13008,-11.2709 0.26989,-3.41114 2.67308,-2.5683 2.67308,0.9375 0,1.71875 0.5625,3.125 1.25,3.125 0.6875,0 1.25,-1.45312 1.25,-3.22916 0,-2.03368 0.57846,-3.03226 1.5625,-2.69729 1.13727,0.38714 1.4388,3.47779 1.10797,11.35683 -0.35366,8.42268 -0.007,11.50711 1.55967,13.89897 2.02872,3.09623 5.32449,20.36714 8.95374,46.92065 1.0806,7.90625 3.05628,21.24394 4.39042,29.63931 1.33414,8.39538 2.42499,17.67663 2.4241,20.625 -10e-4,5.36934 0.55883,10.42377 5.02944,45.36069 8.38741,65.54583 8.60419,70.13105 12.29185,260 0.64094,33 1.46314,60.84375 1.82711,61.875 0.88823,2.51655 2.28508,81.32272 2.53691,143.125 l 0.20375,50 5.93128,13.42602 c 7.3976,16.74524 7.70526,22.33974 2.04386,37.16545 -4.61185,12.07722 -9.6689,17.59607 -19.49112,21.27103 -7.43649,2.78235 -9.65057,2.3987 -8.42585,-1.46001 0.55167,-1.73817 -0.19879,-3.55183 -2.43589,-5.88685 -3.73406,-3.89753 -8.0101,-15.7086 -11.95265,-33.01505 -1.51928,-6.66908 -3.19935,-12.12559 -3.7335,-12.12559 -0.53417,0 -1.27732,4.64062 -1.65145,10.3125 -0.60693,9.20097 -2.15728,18.93386 -9.133,57.33587 -2.08657,11.48678 -2.25605,39.41552 -0.24673,40.65736 0.61985,0.38308 3.19826,0.73006 5.72979,0.77106 5.63959,0.0914 7.7278,1.56439 7.7278,5.45126 0,2.11275 0.70436,2.97195 2.43639,2.97195 3.17652,0 7.58559,5.8995 13.08722,17.5111 7.95575,16.7913 11.94989,37.4916 12.0144,62.2669 0.0264,10.1204 0.41283,13.9546 1.26018,12.5023 0.6722,-1.1521 6.34144,-16.0583 12.59831,-33.125 z M 785.625,723.86115 c -7.27949,-3.398 -21.13975,-18.12544 -24.96844,-26.53063 -5.03897,-11.06212 -6.35885,-23.80961 -4.72497,-45.63417 1.11362,-14.87531 2.19651,-21.13247 5.38178,-31.09689 8.93519,-27.95174 20.18223,-47.21741 40.12563,-68.73336 5.7398,-6.19239 14.09225,-15.70493 18.561,-21.13895 10.96706,-13.33601 40.81452,-40.80179 53.125,-48.88586 10.87855,-7.14377 18.1359,-10.46215 37.93347,-17.34489 14.99082,-5.21165 25.89519,-6.05319 29.32512,-2.26315 7.22181,7.98001 12.13455,41.81409 12.09471,83.29635 -0.0225,23.41894 -0.55133,27.3466 -6.82903,50.7204 -4.96293,18.47859 -22.88283,51.72695 -36.88798,68.44159 -16.85985,20.12161 -20.40965,22.50947 -47.2661,31.79486 -7.84794,2.71336 -19.38129,7.18309 -25.62967,9.93274 -6.24838,2.74966 -15.60866,5.96681 -20.80061,7.14925 -8.00601,1.82331 -9.68792,2.66557 -11.07264,5.54494 -1.71881,3.57406 -7.31968,7.15552 -11.1177,7.10917 -1.23726,-0.0151 -4.49957,-1.07774 -7.24957,-2.3614 z m 57.2227,-67.61475 c 6.54185,-2.44762 11.01539,-6.21049 14.85655,-12.4964 C 861.13467,638.13624 865,626.26054 865,621.33478 c 0,-10.61775 -10.65251,-36.21684 -17.22085,-41.38351 -7.72303,-6.07492 -17.34904,-5.37727 -32.15415,2.33039 -10.40156,5.41514 -12.64395,7.65285 -15.05471,15.02335 -2.35672,7.20524 -1.8855,10.68581 2.13941,15.80266 l 2.76401,3.51388 1.32565,-5.45908 c 1.95939,-8.0689 7.14935,-11.16495 18.69799,-11.15423 13.53366,0.0125 19.39876,4.91547 19.42916,16.24176 0.0176,6.55097 -4.94652,16.5541 -10.09857,20.34953 -1.81338,1.33588 -5.18393,2.52378 -7.49012,2.63977 -4.86025,0.24444 -5.89586,2.68859 -3.54448,8.36533 1.52053,3.67091 9.03382,11.14537 11.20326,11.14537 0.63779,0 4.17079,-1.12663 7.8511,-2.5036 z m -295.20939,0.21223 c 8.27176,-3.5457 13.94974,-10.86345 17.37085,-22.38754 4.83669,-16.2924 4.77239,-19.12506 -0.6779,-29.86297 -5.49227,-10.82065 -11.9475,-16.98149 -24.26491,-23.15837 -13.75034,-6.89545 -25.46984,-4.89704 -30.71021,5.23672 -2.40224,4.64543 -2.37663,14.08115 0.051,18.77561 2.252,4.3549 3.74495,4.64085 5.64954,1.0821 2.03866,-3.80929 8.77792,-6.14483 17.71571,-6.1395 17.00426,0.01 22.86677,10.64667 14.12105,25.62032 -6.08543,10.41893 -13.89432,15.29044 -20.70458,12.91636 -4.86155,-1.69473 -7.19242,0.22166 -8.25828,6.78985 -1.12394,6.92598 0.36623,10.83023 4.92552,12.9049 5.19024,2.3618 17.12221,1.50599 24.78225,-1.77748 z"
     style="fill:#ced4d8;fill-opacity:1" />
  <path
     inkscape:connector-curvature="0"
     id="path3342"
     d="m 707.47435,1118.5113 c -0.0141,-0.9 -0.85096,-10.0738 -1.85968,-20.3863 -1.00872,-10.3125 -1.85075,-24.0937 -1.87117,-30.625 -0.0879,-28.0729 -7.53458,-51.6872 -20.20208,-64.0625 -4.39346,-4.29211 -6.87787,-4.28502 -11.78088,0.034 -7.8118,6.8808 -11.29672,13.1714 -16.42788,29.6539 -4.4981,14.449 -5.14591,18.1386 -5.84504,33.29 -0.56501,12.2448 -0.22336,21.6571 1.21406,33.447 1.10017,9.0239 1.81391,16.9662 1.58609,17.6497 -0.91005,2.7301 -16.05407,-24.2315 -23.32925,-41.5341 -9.46631,-22.5139 -24.69148,-65.1534 -31.5042,-88.2304 -6.02637,-20.41345 -7.42681,-24.16175 -8.72708,-23.35813 -2.16172,1.33602 -6.24575,18.48269 -8.04752,33.78713 -1.04886,8.9093 -1.91213,23.6187 -1.91838,32.6875 -0.006,9.0688 -0.51018,16.7971 -1.11987,17.1739 -3.53687,2.1859 -23.25108,-33.6723 -37.4059,-68.0376 -8.57663,-20.82253 -14.58595,-47.21474 -16.02372,-70.3744 -0.46094,-7.42466 -1.26385,-13.04966 -1.78425,-12.5 -2.98145,3.14907 -9.07931,25.772 -12.9642,48.09689 -8.03934,46.19886 -8.59649,49.14452 -9.48953,50.17112 -0.48735,0.56024 -8.76365,-18.84601 -18.39176,-43.125 C 466.48867,914.2079 463.7838,906.3164 461.95279,895 c -2.08909,-12.91136 -4.16035,-21.21806 -4.3541,-17.46188 -0.20684,4.00978 -5.10793,52.10039 -5.85615,57.46188 l -0.785,5.625 -12.95578,-26.70736 c -12.73556,-26.25337 -13.11656,-27.3011 -22.41385,-61.63607 -8.53967,-31.53715 -9.58316,-36.65113 -10.7465,-52.66763 -2.26806,-31.22619 -5.68075,-54.55203 -9.91525,-67.77128 C 388.66363,712.29231 371.99114,680.89926 359.4268,665 c -3.53141,-4.46875 -7.887,-10.375 -9.67908,-13.125 -1.79207,-2.75 -7.46027,-9.5772 -12.59598,-15.17154 -5.13573,-5.59435 -11.20794,-12.90685 -13.49382,-16.25 C 321.37204,617.1103 313.56294,606.5 306.30435,596.875 c -14.51703,-19.24981 -34.24654,-50.36691 -37.70398,-59.46615 -3.21158,-8.45217 -6.93063,-23.76784 -9.1565,-37.70789 -2.33023,-14.59376 -2.69117,-68.25139 -0.58515,-86.98791 1.71802,-15.28445 5.32924,-33.87614 9.38912,-48.33805 5.46446,-19.4653 22.41491,-44.68306 55.40011,-82.42065 23.03525,-26.35409 37.75312,-41.76801 45.10205,-47.2351 16.44087,-12.23084 43.16458,-34.63443 55.01837,-46.12419 3.10387,-3.00854 8.29668,-8.84506 11.53959,-12.97006 3.2429,-4.125 9.42214,-11.47562 13.73162,-16.33474 4.30948,-4.8591 10.53971,-12.03097 13.84496,-15.9375 10.01141,-11.83264 12.95951,-8.20437 5.25606,6.4687 -2.39766,4.56695 -6.12984,12.52229 -8.29372,17.67854 -4.25717,10.14429 -19.78613,35.31539 -30.46122,49.375 -3.65401,4.8125 -11.27996,16.0625 -16.94655,25 -5.6666,8.9375 -14.07603,21.875 -18.68763,28.75 -11.17125,16.65417 -13.60279,21.68926 -15.59669,32.29672 -4.22464,22.47478 -3.33906,44.36303 2.45986,60.79894 2.3264,6.59372 10.80591,20.15195 12.30206,19.67025 0.57294,-0.18446 2.22435,-3.13225 3.6698,-6.55065 1.44545,-3.4184 4.11724,-8.46526 5.93733,-11.21526 1.82007,-2.75 5.44925,-10.625 8.06481,-17.5 5.67348,-14.91269 15.25341,-32.6917 27.27846,-50.625 6.67445,-9.95379 13.98728,-18.28348 30.2663,-34.47486 C 493.93473,237.36271 511.05909,224.0753 555,195.6222 575.22241,182.52756 582.50754,176.8968 606.25,156.01046 625.31701,139.23714 630.70905,133.55277 643.96576,116.25 658.0973,97.805391 662.3337,88.341009 671.24234,55.3125 L 674.02388,45 l 4.81488,0 c 4.62049,0 4.86912,0.214482 6.15838,5.3125 4.1485,16.404204 10.84432,37.44572 13.82265,43.4375 9.03841,18.18342 27.53816,40.27642 51.511,61.5161 24.58743,21.7842 28.63771,24.87409 57.79421,44.09025 45.14448,29.75335 64.625,45.41482 90.85802,73.04584 18.95769,19.96797 38.01427,50.35083 47.88647,76.34781 2.4802,6.53125 5.85897,13.84375 7.50837,16.25 1.6494,2.40625 4.47413,7.60937 6.27717,11.5625 1.80303,3.95312 3.65888,7.18257 4.12411,7.17656 1.81094,-0.0234 10.58675,-15.32317 12.70915,-22.15714 4.40769,-14.19249 5.40134,-24.94845 3.91051,-42.33027 -2.04104,-23.79666 -3.32551,-27.22975 -18.89505,-50.50165 -5.2895,-7.90625 -14.00769,-21.40625 -19.37376,-30 -5.36607,-8.59375 -11.56123,-17.875 -13.76701,-20.625 -4.54487,-5.66618 -14.99905,-20.96376 -22.76963,-33.31871 -2.8776,-4.57529 -7.58521,-13.85654 -10.46136,-20.625 -2.87614,-6.76847 -6.28079,-13.80583 -7.56588,-15.63859 -4.79148,-6.8335 -3.99181,-15.02394 1.05815,-10.83781 1.10812,0.91856 5.11562,5.60761 8.90555,10.42011 3.78994,4.8125 10.0644,12.125 13.94324,16.25 3.87884,4.125 9.34223,10.6197 12.14086,14.43266 7.15435,9.74735 30.41082,30.47543 61.11305,54.469 23.29374,18.20393 71.77374,73.24054 88.70434,100.70124 5.3869,8.73726 13.9061,28.75019 16.6644,39.1471 6.9778,26.30181 8.9572,44.98306 8.9464,84.43236 -0.01,33.41531 -1.9298,49.94429 -8.2727,71.19264 -5.2757,17.67366 -24.9477,48.4495 -61.6692,96.47823 -2.4613,3.21926 -8.4127,10.29428 -13.2252,15.72227 -16.254,18.33279 -28.69395,35.29034 -41.47462,56.5363 -12.06004,20.04804 -12.98803,22.0962 -17.76813,39.21599 -5.04265,18.06006 -5.04376,18.06909 -6.46574,52.2427 l -1.42222,34.17951 -11.00684,31.25 c -6.05375,17.1875 -11.98184,34.62009 -13.17351,38.73908 -2.38333,8.23792 -17.52233,44.30496 -19.3916,46.19842 -0.73676,0.74629 -1.17286,0.51406 -1.17375,-0.625 -7.6e-4,-0.99687 -1.12514,-10.53125 -2.49859,-21.1875 -1.37345,-10.65625 -2.50644,-23.3125 -2.51774,-28.125 -0.0319,-13.5922 -1.81108,-13.76174 -4.36016,-0.41549 -2.60866,13.65834 -21.79767,70.5625 -29.08874,86.26135 -5.21803,11.2353 -12.1305,22.27914 -13.94476,22.27914 -0.57271,0 -1.44535,-5.48438 -1.9392,-12.1875 -2.67118,-36.25693 -5.40735,-54.45519 -10.38376,-69.0625 -5.61558,-16.4834 -5.4494,-16.6541 -7.90994,8.125 -1.68999,17.01909 -7.78454,39.56177 -18.92493,70 -5.86688,16.0298 -8.61921,21.4702 -18.97115,37.5 -6.65976,10.3125 -12.567,18.914 -13.1272,19.1144 -2.10578,0.7532 -10.08242,-53.90606 -10.08242,-69.08902 0,-7.39377 -0.44444,-9.41512 -2.47394,-11.25179 -1.98438,-1.79585 -2.58869,-1.89603 -3.05382,-0.50624 -0.31894,0.95296 -2.54434,8.48265 -4.94534,16.73265 -5.93819,20.404 -29.44505,88.8354 -34.89405,101.5808 -4.48474,10.4899 -15.18681,29.7165 -17.25133,30.9924 -0.62233,0.3847 -1.14306,-0.037 -1.15717,-0.9369 z m 20.17215,-63.106 c 16.72913,-45.6315 28.52304,-79.94104 30.64714,-89.1553 2.30082,-9.9809 4.60791,-13.75 8.41645,-13.75 8.00762,0 13.37112,15.76333 15.73663,46.25 0.72015,9.2812 1.66677,19.9299 2.1036,23.6636 l 0.79424,6.7886 8.74484,-18.0386 c 16.75334,-34.55834 30.55265,-81.19524 34.00159,-114.9136 0.4571,-4.46875 1.40908,-9.98525 2.11555,-12.2589 1.07898,-3.47259 1.80873,-4.07249 4.56169,-3.75 2.56589,0.30057 3.5254,1.33349 4.42067,4.7589 0.62891,2.40625 3.59467,11.27207 6.59059,19.70184 7.60763,21.40596 11.72051,42.15177 11.72051,59.11953 0,3.16908 0.37261,6.13458 0.82804,6.59001 1.65638,1.65637 25.39786,-63.27836 30.43475,-83.24133 8.08418,-32.04054 9.96802,-36.80829 13.94125,-35.28362 2.0444,0.78451 5.345,23.40873 6.88512,47.19466 0.43469,6.71334 1.00509,11.99132 1.26758,11.72885 0.58581,-0.58583 22.03772,-68.61422 26.27075,-83.30994 2.21906,-7.70388 3.0424,-13.54613 2.99475,-21.25 -0.0879,-14.21315 2.04682,-40.5633 4.38723,-54.15373 3.48005,-20.20816 14.53733,-47.53888 28.83307,-71.26792 6.7735,-11.2431 24.89125,-34.7651 36.74336,-47.70335 5.6681,-6.1875 12.8894,-14.6829 16.0473,-18.87868 3.158,-4.19576 12.4951,-16.00826 20.7491,-26.25 29.867,-37.05938 37.5651,-52.2136 43.005,-84.65888 2.2795,-13.59575 2.7071,-21.39888 2.8083,-51.25 0.1113,-32.86153 -0.1022,-36.46427 -3.1983,-53.96244 -1.8246,-10.3125 -4.1247,-21.94853 -5.1111,-25.85783 -4.6584,-18.46048 -15.0443,-39.0255 -26.3964,-52.26717 -3.2417,-3.78125 -9.013,-11.09375 -12.8253,-16.25 -15.9603,-21.58725 -48.80879,-56.8786 -62.58986,-67.24451 -16.46459,-12.38439 -26.30878,-21.295 -51.27258,-46.41012 -23.99907,-24.14455 -34.92757,-36.68922 -40.05105,-45.97403 -2.48022,-4.49467 -2.57766,-4.5475 -1.83766,-0.99634 0.42979,2.0625 1.50402,4.59375 2.3872,5.625 0.88317,1.03125 4.12254,7.21875 7.19857,13.75 6.09199,12.93487 24.07639,40.57595 35.26465,54.19989 3.87303,4.71617 8.53148,11.18492 10.35212,14.375 1.82065,3.19006 5.65945,9.17511 8.53067,13.30011 28.40664,40.81087 32.15256,47.52567 35.09661,62.91281 2.65749,13.88948 2.28272,39.82049 -0.75891,52.50808 -2.96657,12.37458 -16.16242,38.36611 -20.11536,39.62072 -2.68076,0.85084 -6.1189,-1.26101 -6.1189,-3.7585 0,-0.84466 -1.35824,-4.09025 -3.0183,-7.2124 -1.66006,-3.12215 -4.4859,-9.74519 -6.27965,-14.71787 -7.97264,-22.10202 -29.15173,-60.72217 -44.38906,-80.94364 -7.45722,-9.89646 -21.6194,-24.10868 -41.31997,-41.46591 -10.0257,-8.83318 -36.20392,-26.57384 -77.15438,-52.28658 C 752.63013,176.13946 726.71217,153.86086 704.06899,125.9504 691.3386,110.25866 684.49174,98.84388 681.19293,87.8125 680.31918,84.890625 679.26958,82.5 678.86049,82.5 c -0.40909,0 -2.05458,3.796875 -3.65663,8.4375 -5.27741,15.2869 -13.16078,27.15716 -34.57886,52.0666 -5.94186,6.91044 -33.37371,30.55417 -48.125,41.47931 -3.78125,2.80048 -17.28125,11.56473 -30,19.4761 -37.41316,23.2719 -59.31419,38.20454 -70.95258,48.37713 -17.2216,15.05262 -38.04102,36.29653 -44.26091,45.16336 -17.04231,24.29482 -36.35335,62.09715 -49.15397,96.22131 -2.0588,5.4884 -5.82052,8.18503 -9.02529,6.46988 -3.52553,-1.88679 -16.10613,-25.93809 -19.08634,-36.48879 -5.55124,-19.65272 -4.48395,-53.0955 2.24457,-70.33184 2.22495,-5.69964 8.97965,-16.9102 18.43555,-30.59693 8.20818,-11.88076 17.33117,-25.56964 20.27331,-30.41973 2.94214,-4.8501 8.9869,-13.32371 13.4328,-18.83025 10.51089,-13.01842 28.38866,-40.0967 32.5929,-49.3663 1.8166,-4.0053 3.56387,-7.84485 3.88281,-8.53235 0.31894,-0.6875 -1.20814,0.71875 -3.39351,3.125 -29.40261,32.37435 -60.62005,62.24828 -81.86434,78.34111 -15.54927,11.7788 -42.64034,40.86469 -63.16331,67.81429 -4.48983,5.89578 -12.02545,15.47678 -16.74584,21.29111 -12.88979,15.877 -19.76512,33.42639 -25.9194,66.15963 -3.61315,19.21757 -3.94562,23.28974 -4.45127,54.51886 -0.51454,31.77816 -0.35574,34.95501 2.71797,54.375 4.63965,29.3136 7.15013,36.0389 20.99875,56.25336 6.3597,9.28309 16.0631,22.38969 21.5631,29.12578 5.5,6.73608 13.49004,16.74995 17.75564,22.25304 4.2656,5.50308 12.73397,15.48032 18.81859,22.17166 36.69908,40.35842 60.91441,84.93848 66.98648,123.32116 2.41107,15.24071 4.43857,40.24271 4.35879,53.75 -0.0606,10.25794 1.28714,15.87265 11.40161,47.5 2.19864,6.875 6.52302,20.9375 9.60972,31.25 7.73872,25.85465 7.74426,25.86204 7.96583,10.625 0.105,-7.21875 1.12743,-20.4375 2.27212,-29.375 l 2.08122,-16.25 3.75,0 c 3.50521,0 3.92619,0.53038 6.44918,8.125 1.48453,4.46875 4.9757,16.84375 7.75812,27.5 4.03281,15.44501 25.97141,77.47039 28.18426,79.68322 0.28999,0.28999 0.85489,-2.75447 1.25533,-6.76548 2.98069,-29.8557 4.93199,-38.83588 13.17859,-60.6497 2.77723,-7.34634 5.04952,-14.44934 5.04952,-15.78445 0,-3.45193 3.16406,-5.65167 6.81222,-4.73604 3.75616,0.94274 4.65638,4.00539 7.54394,25.66528 4.85006,36.38078 15.97146,72.7474 32.69758,106.92007 l 7.32126,14.9578 0.82341,-9.9578 c 3.8899,-47.04186 5.4681,-54.85712 12.67569,-62.7704 5.81971,-6.38952 12.04052,-1.69677 14.5309,10.96155 2.01022,10.21775 36.85306,109.40495 41.09466,116.98425 0.7478,1.3362 1.38451,-3.6701 1.86675,-14.6777 0.90465,-20.6494 5.20996,-40.2002 11.9367,-54.2056 5.18663,-10.7988 10.61631,-18.125 13.433,-18.125 0.97014,0 1.76389,-1.05612 1.76389,-2.34695 0,-3.45345 2.4966,-4.94089 8.125,-4.84071 6.0308,0.10737 8.125,1.51611 8.125,5.46571 0,2.11275 0.70436,2.97195 2.43639,2.97195 3.17652,0 7.58558,5.8995 13.08722,17.5111 7.95575,16.7913 11.94989,37.4916 12.0144,62.2669 0.0264,10.1204 0.41283,13.9546 1.26018,12.5023 0.6722,-1.1521 6.34144,-16.0583 12.59831,-33.125 z M 643.9322,931.14371 c -9.45674,-4.72558 -12.64471,-8.757 -17.72104,-22.40948 -5.34131,-14.36518 -4.80942,-21.1318 2.96564,-37.72792 l 5.67744,-12.11868 0.67978,-84.75632 c 0.37388,-46.61597 1.23513,-96.28756 1.91388,-110.38131 0.67875,-14.09375 1.27671,-39.96875 1.32879,-57.5 0.0521,-17.53125 0.6428,-37.5 1.31269,-44.375 0.66988,-6.875 1.76218,-36.125 2.42732,-65 1.5268,-66.28147 2.9128,-95.71721 5.4737,-116.25 1.11471,-8.9375 3.17988,-25.53125 4.58926,-36.875 1.40939,-11.34375 3.09303,-24.7261 3.74143,-29.73856 0.6484,-5.01245 1.17891,-11.69615 1.17891,-14.85266 0,-3.1565 1.10689,-12.5554 2.45975,-20.88644 1.35286,-8.33104 3.32856,-21.61609 4.39043,-29.52234 3.48985,-25.98394 6.87288,-43.79685 8.90773,-46.90241 1.46162,-2.23071 1.92038,-5.50838 1.69909,-12.13919 -0.16672,-4.99587 -0.22526,-10.06777 -0.13007,-11.2709 0.26988,-3.41114 2.67307,-2.5683 2.67307,0.9375 0,1.71875 0.5625,3.125 1.25,3.125 0.6875,0 1.25,-1.45312 1.25,-3.22916 0,-2.03368 0.57846,-3.03226 1.5625,-2.69729 1.13728,0.38714 1.4388,3.47779 1.10798,11.35683 -0.35367,8.42268 -0.008,11.50711 1.55966,13.89897 2.02872,3.09623 5.32449,20.36714 8.95374,46.92065 1.0806,7.90625 3.05628,21.24394 4.39042,29.63931 1.33414,8.39538 2.42499,17.67663 2.4241,20.625 -10e-4,5.36934 0.55883,10.42377 5.02944,45.36069 8.38741,65.54583 8.60419,70.13105 12.29185,260 0.64094,33 1.46314,60.84375 1.82711,61.875 0.88823,2.51655 2.28508,81.32273 2.53691,143.125 l 0.20375,50 5.93128,13.42603 c 7.3976,16.74523 7.70526,22.33973 2.04386,37.16545 -4.61185,12.07721 -9.6689,17.59606 -19.49112,21.27102 -7.43649,2.78235 -9.65057,2.3987 -8.42585,-1.46001 0.55125,-1.73686 -0.19655,-3.54949 -2.42317,-5.87358 -3.76542,-3.93025 -7.22621,-13.29853 -11.44461,-30.98031 -1.66661,-6.98577 -3.70475,-14.18185 -4.52917,-15.99129 -1.44085,-3.16232 -1.65138,-2.86371 -5.42965,7.7014 -6.15384,17.20787 -15.54052,37.35674 -18.85293,40.4686 -1.65886,1.55841 -3.0161,3.74793 -3.0161,4.86558 0,2.02167 -2.27355,5.03211 -3.80035,5.03211 -0.44019,0 -4.27304,-1.73532 -8.51745,-3.85629 z m -83.612,-204.96607 c -5.00984,-1.061 -7.36329,-2.93699 -8.28336,-6.60284 -0.58185,-2.31829 -2.32697,-3.2111 -9.76641,-4.99656 -4.98189,-1.19565 -14.98391,-4.65479 -22.22671,-7.68698 -7.2428,-3.03217 -18.79372,-7.51723 -25.66872,-9.9668 -25.18761,-8.97432 -29.15086,-11.49881 -42.41204,-27.0153 -10.94355,-12.8047 -15.72343,-19.99253 -26.95508,-40.53416 -2.25545,-4.125 -5.40059,-9.75 -6.9892,-12.5 -1.5886,-2.75 -5.19686,-13.4375 -8.01832,-23.75 -4.47917,-16.37139 -5.22152,-20.97004 -5.8518,-36.25 -1.35452,-32.83792 3.65539,-80.18663 9.71443,-91.81114 3.91725,-7.51541 10.81708,-8.17707 28.746,-2.75665 16.60863,5.02127 30.34869,10.93463 40.51601,17.43705 10.0566,6.4316 41.19673,34.25031 50.91996,45.48881 3.61903,4.18302 12.94394,14.70118 20.72205,23.3737 7.77811,8.67253 17.36078,20.54948 21.29483,26.39323 7.94692,11.80461 17.26666,32.05064 22.348,48.54841 3.17187,10.29826 3.33778,12.16855 3.39989,38.32659 l 0.0653,27.5 -4.59793,9.375 c -3.57634,7.29202 -6.4925,11.05791 -13.125,16.94943 -4.68989,4.16592 -9.29655,8.037 -10.23701,8.60238 -3.10839,1.86869 -9.47839,2.74763 -13.59486,1.87583 z m -12.68189,-69.71901 c 8.27176,-3.5457 13.94974,-10.86345 17.37085,-22.38754 4.83669,-16.2924 4.77239,-19.12506 -0.6779,-29.86297 -5.49227,-10.82065 -11.9475,-16.98149 -24.26491,-23.15837 -13.75034,-6.89545 -25.46984,-4.89704 -30.71021,5.23672 -2.40224,4.64543 -2.37663,14.08115 0.051,18.77561 2.252,4.3549 3.74495,4.64085 5.64954,1.0821 2.03866,-3.80929 8.77792,-6.14483 17.71571,-6.1395 17.00426,0.01 22.86677,10.64667 14.12105,25.62032 -6.08543,10.41893 -13.89432,15.29044 -20.70458,12.91636 -4.86155,-1.69473 -7.19242,0.22166 -8.25828,6.78985 -1.12394,6.92598 0.36623,10.83023 4.92552,12.9049 5.19024,2.3618 17.12221,1.50599 24.78225,-1.77748 z M 785.625,723.86115 c -7.27949,-3.398 -21.13975,-18.12544 -24.96844,-26.53063 -5.03897,-11.06212 -6.35885,-23.80961 -4.72497,-45.63417 1.11362,-14.87531 2.19651,-21.13247 5.38178,-31.09689 8.93519,-27.95174 20.18223,-47.21741 40.12563,-68.73336 5.7398,-6.19239 14.09225,-15.70493 18.561,-21.13895 10.96706,-13.33601 40.81452,-40.80179 53.125,-48.88586 10.87855,-7.14377 18.1359,-10.46215 37.93347,-17.34489 14.99082,-5.21165 25.89519,-6.05319 29.32512,-2.26315 7.22181,7.98001 12.13455,41.81409 12.09471,83.29635 -0.0225,23.41894 -0.55133,27.3466 -6.82903,50.7204 -4.96293,18.47859 -22.88283,51.72695 -36.88798,68.44159 -16.85985,20.12161 -20.40965,22.50947 -47.2661,31.79486 -7.84794,2.71336 -19.38129,7.18309 -25.62967,9.93274 -6.24838,2.74966 -15.60866,5.96681 -20.80061,7.14925 -8.00601,1.82331 -9.68792,2.66557 -11.07264,5.54494 -1.71881,3.57406 -7.31968,7.15552 -11.1177,7.10917 -1.23726,-0.0151 -4.49957,-1.07774 -7.24957,-2.3614 z m 57.2227,-67.61475 c 6.54185,-2.44762 11.01539,-6.21049 14.85655,-12.4964 C 861.13467,638.13624 865,626.26054 865,621.33478 c 0,-10.61775 -10.65251,-36.21684 -17.22085,-41.38351 -7.72303,-6.07492 -17.34904,-5.37727 -32.15415,2.33039 -10.40156,5.41514 -12.64395,7.65285 -15.05471,15.02335 -2.35672,7.20524 -1.8855,10.68581 2.13941,15.80266 l 2.76401,3.51388 1.32565,-5.45908 c 1.95939,-8.0689 7.14935,-11.16495 18.69799,-11.15423 13.53366,0.0125 19.39876,4.91547 19.42916,16.24176 0.0176,6.55097 -4.94652,16.5541 -10.09857,20.34953 -1.81338,1.33588 -5.18393,2.52378 -7.49012,2.63977 -4.86025,0.24444 -5.89586,2.68859 -3.54448,8.36533 1.52053,3.67091 9.03382,11.14537 11.20326,11.14537 0.63779,0 4.17079,-1.12663 7.8511,-2.5036 z"
     style="fill:#0078b2" />
  <path
     style="fill:#000000"
     d="m 673.54102,44.869141 c -6.18999,22.088059 -10.90025,45.472297 -24.89475,64.212269 -10.77947,15.10195 -22.77233,29.33558 -36.92726,41.40894 -17.56557,15.7061 -35.35067,31.25586 -55.44295,43.70386 -28.60452,18.4547 -57.13731,37.51467 -81.43231,61.55774 -15.43716,15.1043 -31.23457,30.3043 -42.3259,49.04147 -9.96635,15.52408 -18.4194,32.06266 -24.89512,49.30697 -3.32493,8.76877 -9.19524,16.23323 -12.59148,24.96797 -0.7498,1.09655 -1.26038,3.2716 -2.41602,3.69922 -5.04004,-5.55991 -8.62183,-12.33769 -11.53125,-19.21875 -7.01702,-20.96108 -6.09601,-43.8712 -1.41294,-65.23948 3.48877,-13.42979 13.02704,-24.35667 20.20853,-36.05884 11.42123,-17.5086 22.36253,-35.36122 34.9739,-52.06004 10.74086,-15.77371 21.29932,-31.88582 28.60132,-49.59315 2.97223,-7.53089 8.2838,-14.27277 9.54716,-22.39615 0.42638,-1.85195 -1.65825,-3.15336 -3.15234,-1.98437 -6.47467,4.25284 -10.51426,11.21599 -15.86274,16.68257 -9.32615,10.12983 -17.66384,21.10112 -26.76974,31.38761 -13.45272,13.82606 -28.58235,25.87833 -43.46217,38.12359 -9.37334,7.69064 -19.62415,14.39007 -27.83872,23.42576 -19.60324,20.43124 -38.37488,41.68186 -56.00853,63.83735 -12.53619,16.38159 -25.2955,33.34605 -31.73511,53.1964 -6.44921,23.36766 -10.82961,47.4697 -11.00318,71.77165 -0.27287,21.37909 -0.55573,42.85206 1.63808,64.14419 2.32763,13.81083 4.99893,27.73139 10.17492,40.79416 8.99448,17.6519 20.24518,34.05922 31.56442,50.28411 8.7799,11.86632 17.53617,23.76233 26.3152,35.62695 8.55144,10.65284 18.55568,20.13919 25.99033,31.6693 8.0168,10.30611 15.72618,20.88382 21.98728,32.37561 10.59126,19.11534 20.68971,39.1591 23.91992,61.00118 3.63318,20.06757 4.66975,40.42747 6.68594,60.68657 2.84381,19.03549 8.90492,37.39669 13.70487,55.9926 3.60034,14.15578 8.83117,27.83379 15.46326,40.84417 5.5244,11.42633 11.07609,22.84016 16.61097,34.2617 2.90373,-21.29092 4.7408,-42.7182 6.82617,-64.10352 3.15324,11.76453 3.76985,24.1175 8.27149,35.55273 9.27895,25.53312 19.39841,50.77515 30.1069,75.74125 1.19858,2.06919 1.65417,4.87628 3.50442,6.43649 2.0003,-1.87232 1.62081,-5.32635 2.44858,-7.84387 5.66138,-28.57665 8.65064,-57.94647 17.95365,-85.57811 0.58964,-1.54743 1.16821,-3.1225 2.05871,-4.52724 1.73211,10.53216 1.59003,21.3042 3.57617,31.81836 3.46106,22.38026 10.3122,44.15832 19.95121,64.63559 7.8992,17.06745 15.87688,34.27145 26.56408,49.80995 1.45638,1.4794 3.00226,4.9243 5.50229,4.1326 1.50825,-4.4732 0.89931,-9.5112 1.24805,-14.2031 0.2446,-22.4156 1.49591,-45.26259 8.31055,-66.66996 0.44573,-0.58839 0.76264,-2.9773 1.71679,-2.55274 3.92065,7.96214 5.62072,16.8886 8.43466,25.31542 9.37334,29.91198 19.85931,59.51338 31.90966,88.45728 5.98339,12.9854 12.30417,25.9472 20.42521,37.7488 0.43665,0.9068 2.46466,2.7443 2.78711,0.8223 -0.76343,-14.5902 -3.68282,-29.0041 -3.06166,-43.6639 0.1996,-12.7751 0.93954,-25.6395 5.25307,-37.7912 3.5782,-11.7302 7.42791,-24.4052 17.46317,-32.3393 2.22228,-2.3632 6.1939,-4.00384 8.82199,-1.3853 11.9662,10.4335 17.1691,26.4514 19.95246,41.6398 2.80515,15.379 1.52544,31.1352 3.19395,46.6729 0.82798,9.6201 1.75847,19.3072 2.68366,28.8689 0.97393,1.8885 2.91099,-0.2615 3.46094,-1.3965 9.15735,-14.1407 16.52911,-29.4271 21.86256,-45.4131 12.06999,-33.9304 23.89102,-67.9938 33.89916,-102.58688 1.14595,-0.46308 2.50321,1.62629 3.23437,2.46875 2.12112,5.3015 0.62631,11.25986 1.51563,16.91016 1.80053,19.60737 4.26343,39.21377 8.38672,58.47657 0.44047,0.9917 0.63922,4.4882 2.38672,3.4121 8.2423,-11.2313 15.84095,-22.9728 22.74838,-35.0753 7.75379,-14.8378 12.59403,-30.96874 17.92043,-46.78041 5.69855,-17.7066 10.0633,-35.92367 11.28805,-54.53612 0.4861,-3.1428 0.42787,-6.64378 1.64275,-9.53005 3.26258,6.52826 5.18751,13.75539 7.12782,20.76738 5.38295,22.14761 5.99195,45.04327 8.44878,67.63897 0.52381,1.19642 0.009,4.39101 1.92926,4.25186 4.06257,-3.06019 6.12884,-8.11057 8.81054,-12.31641 9.45385,-17.04134 14.99516,-35.8551 21.51953,-54.125 5.36612,-16.21104 10.91893,-32.50041 14.34766,-49.20703 0.26375,-0.57035 0.63708,-2.67618 1.12891,-2.37109 1.17923,7.21643 0.45665,14.62735 1.49438,21.88644 1.19859,12.7051 2.96988,25.52041 4.48413,38.07645 1.69851,1.31932 2.71788,-1.88618 3.34953,-2.977 7.98417,-17.30382 15.43966,-34.91056 21.02157,-53.15386 6.81413,-20.27463 14.07717,-40.39509 21.10937,-60.58985 1.11708,-21.84131 1.35161,-43.79719 3.20495,-65.55321 1.53414,-11.72636 5.25342,-23.08039 8.80546,-34.30163 4.84088,-12.59896 12.76118,-23.88241 19.69577,-35.42183 12.04514,-19.26907 26.51538,-36.9055 41.60208,-53.8713 13.4702,-16.22103 25.7112,-33.43963 37.8977,-50.63744 11.0983,-16.39667 22.6119,-32.87277 29.7992,-51.4482 7.9763,-23.19522 9.3695,-47.94284 9.285,-72.28002 0.153,-27.90273 -0.683,-56.15667 -8.0736,-83.2351 -3.7975,-14.6073 -9.8695,-28.59869 -17.0877,-41.82548 -13.6085,-21.49447 -30.3047,-40.83808 -47.0964,-59.87252 -15.7827,-17.46071 -32.06712,-34.69521 -51.03441,-48.76839 -17.24312,-14.04715 -34.78882,-27.9666 -49.82422,-44.42941 -6.95788,-9.38212 -15.1808,-17.96407 -22.8669,-26.84309 -5.16463,-5.79196 -9.43986,-12.41579 -15.11357,-17.72917 -1.74655,-1.81753 -4.73824,-0.4803 -4.53125,2.03125 -0.3664,6.70887 5.15059,11.61384 7.25641,17.57717 5.57478,12.80862 11.39957,25.60037 19.48981,37.05926 6.87528,10.84307 14.61463,21.10152 22.04747,31.52326 11.61382,17.78816 22.84852,35.85215 34.69068,53.50828 5.989,8.87333 10.53786,18.89912 11.40563,29.68365 2.07444,16.93508 3.18564,34.50464 -2.14686,50.99255 -2.53957,8.31473 -6.82517,16.04864 -11.93455,23.05817 -1.31929,2.13448 -2.08998,-1.60921 -2.87895,-2.47689 -2.8661,-6.46483 -6.45341,-12.54872 -9.98657,-18.65076 -5.53536,-11.53633 -9.41155,-23.81406 -15.66506,-35.02494 -12.42766,-23.78304 -28.38538,-45.7784 -47.78914,-64.3676 -27.75358,-28.32884 -61.27243,-49.88132 -94.16073,-71.64891 -20.33306,-13.21202 -38.47545,-29.43564 -56.0955,-45.98739 C 723.49984,128.75443 708.4823,112.10728 698.67383,92.25 692.6526,77.447812 688.76655,61.911 684.37109,46.589844 682.78871,43.244318 678.14027,44.978168 675.33789,44.5 c -0.464,0.22596 -1.79854,-0.435107 -1.79687,0.369141 z m 5.56836,38.783203 c 2.47407,6.755451 4.63914,13.69705 8.46223,19.868936 10.68974,17.83237 24.59901,33.54754 39.27368,48.1901 22.16192,21.90314 48.10775,39.41595 74.54941,55.68621 21.42188,13.86056 43.24333,27.27482 63.22957,43.18955 15.606,13.96009 31.67098,27.98703 44.27343,44.84982 15.29903,21.73826 28.25,45.17937 39.02418,69.49663 3.77354,9.24775 7.03896,18.75048 11.74001,27.61299 1.2139,2.37304 0.86545,5.86191 3.90647,6.96123 2.59702,1.53142 5.65002,0.0672 6.95752,-2.44053 7.26003,-10.6228 12.7012,-22.47623 16.76709,-34.66298 3.52363,-13.54027 3.45809,-27.73716 2.9518,-41.63004 -0.5082,-13.04371 -3.52318,-26.17173 -10.51821,-37.3309 -11.41217,-19.41872 -25.53452,-37.08537 -37.10273,-56.40412 -7.45244,-10.5517 -16.01655,-20.27768 -22.97446,-31.17791 -8.98009,-13.23582 -17.35403,-26.89853 -24.0589,-41.42783 -1.70123,-4.08738 -5.12018,-7.34921 -5.77797,-11.86123 7.90806,14.33806 19.97415,25.75575 31.04899,37.61111 20.06724,20.37044 39.98935,41.1342 63.14112,58.07611 17.62189,15.07386 33.16439,32.51526 48.25519,50.08035 9.8849,11.65713 18.5729,24.25583 28.5,35.87696 13.4936,18.02226 22.395,39.39371 25.9536,61.62022 3.0853,15.46829 5.8134,31.09807 5.4699,46.92273 -0.1761,20.65353 0.6566,41.41884 -1.528,61.96886 -2.5354,20.00302 -7.3121,40.10855 -18.2186,57.35414 -14.1658,22.95683 -32.5431,42.87789 -48.6864,64.39764 -11.0916,13.58971 -23.4182,26.13901 -33.8828,40.24723 -10.37859,13.12611 -19.74404,27.08597 -27.0198,42.18449 -10.45327,21.10993 -18.85768,43.65616 -20.73578,67.31423 -1.77555,15.42199 -2.44553,30.99528 -2.69085,46.47243 -1.1406,13.33139 -6.50951,25.7768 -10.06276,38.56179 -6.03358,19.29718 -12.02722,38.62127 -18.38365,57.80585 -1.78232,-18.26659 -2.27349,-36.79657 -6.5293,-54.72071 -0.16486,-2.01421 -1.91324,-4.04131 -4.04883,-2.95312 -3.67052,2.73018 -4.21872,7.86557 -5.77822,11.88718 -4.54189,15.76448 -7.9893,31.8536 -13.61692,47.29044 -6.75423,19.42433 -13.33862,39.04274 -21.77645,57.78773 -1.20485,2.93023 -1.0697,-2.20144 -1.20536,-3.38332 0.0863,-24.47656 -7.1275,-48.21808 -15.41947,-70.98892 -1.73976,-4.09186 -2.23204,-8.66839 -4.36764,-12.56772 -2.06576,-2.52214 -7.41969,-2.60385 -8.10352,1.23633 -3.07187,10.44852 -2.85135,21.52841 -5.23228,32.13579 -7.08437,37.63188 -19.75156,74.19968 -37.14622,108.30641 -1.60724,4.2771 -2.59242,4.8779 -2.62982,-0.1228 -2.49901,-20.1105 -1.87564,-40.959 -8.46238,-60.37409 -1.74439,-4.51819 -4.62293,-10.7234 -10.34766,-10.58594 -5.0455,0.60584 -6.35156,6.65698 -7.63281,10.65235 -5.38484,20.96167 -13.23046,41.18738 -20.29038,61.62698 -7.69316,21.2642 -15.23507,42.5994 -23.58462,63.6015 -0.98455,-10.7208 -0.15387,-21.6207 -1.55519,-32.3565 -2.0371,-19.6265 -7.49012,-39.4099 -18.90379,-55.73136 -1.62091,-2.225 -3.89431,-4.21824 -6.76172,-4.26758 -1.62253,-1.70317 -0.15671,-4.91978 -2.36719,-6.47461 -3.51277,-2.40578 -8.33821,-1.99072 -12.30664,-1.14453 -2.59786,0.60961 -3.55265,3.29715 -3.58398,5.66602 -0.78689,1.46397 -3.01651,0.86075 -3.98047,2.35547 -6.53693,6.66419 -10.4621,15.43939 -13.98047,23.96479 -6.80539,17.8462 -8.75283,37.0829 -9.50183,56.0051 -0.23393,1.4173 -0.16612,5.1541 -0.89466,4.9071 -10.37876,-25.5549 -19.17478,-51.8138 -28.30476,-77.8708 -4.85158,-14.37993 -10.00012,-28.6986 -13.705,-43.42026 -1.3804,-4.00741 -4.29075,-9.43624 -9.32031,-8.71484 -4.9825,1.47238 -7.79913,6.62824 -9.83351,11.0555 -4.35757,12.2684 -4.68941,25.48899 -6.16603,38.3087 -0.75216,8.2506 -1.42396,16.5082 -2.10789,24.7647 -12.57986,-24.6036 -23.41954,-50.21047 -30.47508,-76.93676 -5.23746,-18.55497 -8.00612,-37.62984 -10.65679,-56.68682 -1.03127,-4.03549 -0.85629,-9.34943 -4.57516,-12.03266 -3.53128,-2.11016 -9.02436,0.26621 -8.82031,4.68359 -3.3087,13.47616 -9.81168,26.12582 -12.85742,39.76758 -3.47965,13.88752 -4.15843,28.25213 -6.19336,42.36914 -8.45279,-20.0868 -15.28915,-40.88159 -22.31502,-61.53471 -5.85064,-16.42376 -8.91481,-33.70673 -15.01701,-50.03756 -0.71378,-2.66704 -3.51769,-3.54605 -5.99219,-3.1582 -4.28472,-1.41124 -3.3942,3.0599 -3.94507,5.89095 -2.31851,16.07847 -3.68194,32.4285 -3.90649,48.58561 0.0491,2.58342 -0.8747,-0.43589 -1.1875,-1.2207 -6.89375,-21.91463 -13.37388,-43.97345 -20.41308,-65.83488 -3.40005,-10.99433 -6.8491,-22.21011 -6.14747,-33.84276 -0.61659,-19.40067 -2.04667,-38.87103 -5.70117,-57.95322 -7.68826,-34.77575 -25.88774,-66.31482 -47.35557,-94.35961 -13.12741,-17.18627 -28.70158,-32.33462 -41.61978,-49.70284 -15.46057,-19.26112 -31.19388,-38.47898 -43.82348,-59.77153 -8.43816,-14.71055 -10.62964,-31.92766 -13.18086,-48.41703 -1.9197,-19.83943 -0.97529,-39.87193 -1.1668,-59.79782 -0.16149,-14.08569 0.90295,-28.07126 3.85362,-41.82767 4.5082,-23.94731 10.90426,-48.78765 27.01536,-67.78324 14.9002,-18.6427 29.02263,-37.94725 45.31416,-55.43775 12.45933,-13.69509 25.57397,-26.90734 40.54392,-37.84339 27.85967,-22.32734 52.04459,-48.74221 76.42077,-74.70769 1.20802,-1.11242 -1.07247,3.28728 -1.50947,4.34343 -10.39618,20.12605 -23.59307,38.72361 -37.54191,56.541 -10.24559,14.15158 -19.30159,29.12619 -29.41219,43.37356 -7.0955,10.72454 -14.88917,21.24346 -19.68426,33.25972 -5.46049,17.20924 -6.02337,35.65076 -4.43939,53.51958 0.82829,10.69177 4.06971,21.02461 8.93416,30.54596 3.81676,7.34983 7.16466,15.23905 12.78453,21.42079 3.65153,2.52638 7.83616,-1.14319 9.27735,-4.49024 12.6298,-32.62912 27.72582,-64.50447 47.02961,-93.79536 9.01523,-13.54601 21.13773,-24.67123 32.65461,-36.09418 12.03812,-11.86311 25.22093,-22.5391 39.31954,-31.8825 24.96942,-17.30005 51.45942,-32.27762 76.46187,-49.51141 16.14461,-12.42956 31.86393,-25.49378 46.4328,-39.7517 12.69678,-14.91029 26.19253,-29.84507 33.91211,-48.099611 1.91205,-4.444423 3.0943,-9.191609 5.33399,-13.494141 l 0.23047,0.416016 z m -3.125,92.119136 c -2.64792,0.85589 -1.34218,4.73893 -1.69195,6.73436 -0.27902,6.77145 1.67736,14.30554 -2.11079,20.42385 -4.17674,13.80119 -5.68039,28.2515 -7.87745,42.46268 -2.08813,17.73582 -5.90048,35.26966 -7.29052,53.09396 -0.58724,16.46934 -3.70257,32.77615 -5.42375,49.17054 -2.95308,23.54994 -6.25272,47.09191 -7.07124,70.84072 -2.43744,47.74627 -2.10674,95.63006 -4.92688,143.33639 -2.00354,30.43433 -0.88479,60.97081 -2.22913,91.43429 -2.17632,55.42238 -2.13305,110.90229 -2.69482,166.35722 -0.24601,13.1836 0.0668,26.49391 -0.52636,39.59881 -4.70687,11.15951 -12.09425,22.06386 -11.94032,34.61945 0.57184,9.12631 4.26552,17.76343 8.27053,25.86656 4.26378,8.47801 13.51835,12.31383 21.77635,15.7643 3.12878,-0.27691 4.3825,-3.94904 4.8164,-6.5957 1.90884,-3.20491 4.89952,-5.66206 6.35634,-9.19602 7.36802,-13.65985 12.7163,-28.26517 18.15343,-42.76101 0.60446,-2.42627 1.51027,0.0165 1.86914,1.10546 4.93987,14.45878 6.28243,30.26935 13.82831,43.76334 1.66716,2.80171 5.63257,5.15737 3.92755,8.90854 -0.75057,2.30888 1.94061,3.41617 3.77734,2.69922 9.06373,-1.92267 17.79671,-7.17462 21.95448,-15.7279 3.86795,-7.9692 7.5786,-16.5742 7.30529,-25.60413 -1.02371,-11.56238 -7.44589,-21.68414 -11.61814,-32.2729 -0.58319,-11.24305 -0.16715,-22.69911 -0.36785,-34.0237 -0.26976,-51.9065 -0.52611,-103.82759 -2.27737,-155.70853 -1.52211,-19.28031 -1.40141,-38.74119 -1.99814,-58.10527 -1.38783,-61.91089 -1.97622,-123.85033 -4.61356,-185.72565 -1.47068,-39.69601 -7.82994,-78.97306 -12.31352,-118.37044 -0.63483,-8.38545 -0.84926,-16.84134 -2.32066,-25.17187 -4.18351,-24.81888 -6.46962,-49.9577 -11.88915,-74.55794 -0.46141,-3.46138 -2.35512,-6.40529 -3.39458,-9.63988 -1.26064,-7.03887 0.8521,-14.31727 -0.72852,-21.29687 -0.50138,-1.93938 -3.21571,-1.16904 -3.10351,0.67383 -0.29065,1.19006 0.20812,3.51051 -0.97071,4.05469 -1.28021,-1.6674 0.20961,-5.66633 -2.65624,-6.1504 z M 423.82422,458.27344 c -5.54258,-0.17514 -10.07617,4.09614 -11.55469,9.20898 -4.90939,15.33753 -6.17055,31.55408 -7.62826,47.50972 -1.34698,20.00813 -2.15719,40.25036 0.58227,60.17443 2.72825,13.79236 6.53608,27.4349 11.65732,40.53265 10.33855,18.48797 19.75523,37.81469 34.01223,53.72073 7.01281,8.5405 14.93527,16.85725 25.40659,21.04703 14.79998,6.27339 30.2136,11.03461 44.94309,17.45221 8.77199,3.69281 17.90523,6.3844 27.06582,8.88354 3.90522,0.73759 3.05261,5.59536 6.04102,7.45508 5.78968,3.87695 13.77629,3.4296 19.85351,0.45508 8.89203,-7.21869 18.52011,-14.53931 23.30464,-25.30654 1.44666,-3.71567 4.26273,-7.12023 4.8649,-11.0333 -0.28356,-17.54678 0.4651,-35.13638 -0.70183,-52.65488 -1.56797,-11.75686 -6.34401,-22.80434 -10.80561,-33.70184 -6.04915,-14.14655 -13.55009,-27.76394 -23.62303,-39.46945 -11.55023,-14.16022 -24.03457,-27.51937 -36.10157,-41.22852 -14.31527,-14.43452 -29.40081,-28.19787 -45.58302,-40.52058 -15.2569,-10.19833 -32.84397,-16.35532 -50.46385,-21.06926 -3.68971,-0.85701 -7.46201,-1.6039 -11.26953,-1.45508 z m 508.04492,1.12304 c -13.38541,0.76301 -25.82407,6.43371 -38.23074,11.02215 -15.80325,6.05281 -29.26424,16.61512 -41.66687,27.88445 -13.92744,12.35826 -27.28772,25.41652 -39.00161,39.91726 -12.33771,14.0545 -25.74479,27.41509 -35.18624,43.71929 -9.13408,15.45407 -15.88639,32.36202 -19.96852,49.83539 -2.40903,14.01998 -3.38595,28.33549 -2.86008,42.55506 0.55977,11.76066 3.6551,23.91026 11.64836,32.89661 5.74201,6.68758 11.8011,13.69023 19.88289,17.56628 3.53323,1.6854 7.77405,2.88034 11.35547,0.58398 3.43882,-1.56824 5.95712,-4.49402 7.70703,-7.74804 4.61788,-3.4918 10.87943,-3.27169 16.1358,-5.40817 13.7484,-4.44441 26.71151,-10.98661 40.44955,-15.42848 12.78489,-4.43894 26.38988,-8.84784 35.80492,-19.14041 18.28044,-18.59868 31.66885,-41.39702 42.2816,-65.06591 5.68463,-12.8228 8.99762,-26.57212 11.50196,-40.32617 1.98159,-15.59406 1.21306,-31.39164 0.85993,-47.06513 -0.99454,-18.57226 -2.04953,-37.46329 -7.67478,-55.31296 -1.51639,-4.32521 -3.71432,-9.86711 -9.04648,-10.24887 -1.31893,-0.21289 -2.65802,-0.26219 -3.99219,-0.23633 z m -96.33203,117.00391 c 7.07494,-0.41414 13.75459,3.9503 16.81173,10.19059 5.8489,10.41833 10.66791,21.77333 12.11991,33.72152 -0.21683,7.96297 -3.36296,15.63544 -6.87695,22.64844 -5.80337,11.01041 -19.06993,16.40535 -31.05178,14.79295 -9.21069,-0.54725 -19.65729,-1.97118 -25.75326,-9.78564 -8.65546,-11.43776 -11.10649,-27.30416 -6.26665,-40.76007 2.78487,-8.6683 7.85847,-17.10804 16.07308,-21.62746 7.66666,-4.41859 15.9304,-8.77793 24.94392,-9.18033 z m -312.39063,0.51172 c 10.29969,0.37113 19.95355,5.7047 28.2168,11.69727 7.96963,6.30531 13.47111,15.60709 16.31206,25.33105 1.30103,7.96821 -2.10478,15.98302 -4.33435,23.56591 -3.15959,9.54256 -10.69077,18.20531 -20.93247,20.06902 -8.65782,1.88812 -18.25522,2.67018 -26.295,-1.8148 -6.27437,-2.9097 -12.35638,-6.97841 -15.35687,-13.42132 -3.89602,-6.16776 -6.33693,-13.30113 -5.74361,-20.71031 -0.43986,-8.06796 1.91533,-15.9096 5.41337,-23.12711 3.47583,-7.92971 7.62544,-17.37789 16.43882,-20.52721 2.00971,-0.72481 4.14845,-1.05478 6.28125,-1.0625 z m 301.50586,22.47851 c -6.55011,0.049 -14.32293,1.76171 -17.35742,8.30274 -3.8137,8.37475 0.83135,17.59625 5.75977,24.41406 2.12548,3.67241 5.47527,6.73186 9.85547,7.18946 6.29457,1.8773 12.91101,-1.51331 16.37115,-6.81099 5.32033,-7.0872 8.8486,-17.42959 3.83978,-25.60112 -3.13344,-5.53409 -9.69393,-7.42988 -15.66601,-7.47266 -0.93379,-0.036 -1.86851,-0.0449 -2.80274,-0.0215 z m -293.58984,0.13672 c -6.79103,-0.024 -14.53956,2.09102 -17.88281,8.58204 -3.34371,4.8773 -2.49916,11.2089 -0.0436,16.26242 2.55442,5.44164 4.8478,12.39117 11.31895,14.20828 5.35225,2.59862 11.65356,0.42877 15.56054,-3.69922 6.04744,-6.09671 12.09887,-14.04548 11.30665,-23.12305 -0.62978,-7.0187 -7.56667,-11.40535 -14.08688,-11.97623 -2.04318,-0.29042 -4.11303,-0.31312 -6.17289,-0.25424 z"
     id="path3340"
     inkscape:connector-curvature="0" />
</svg>
