<?xml version="1.0" encoding="UTF-8" standalone="no"?>
<!-- Created with Inkscape (http://www.inkscape.org/) -->

<svg
   xmlns:dc="http://purl.org/dc/elements/1.1/"
   xmlns:cc="http://creativecommons.org/ns#"
   xmlns:rdf="http://www.w3.org/1999/02/22-rdf-syntax-ns#"
   xmlns:svg="http://www.w3.org/2000/svg"
   xmlns="http://www.w3.org/2000/svg"
   xmlns:sodipodi="http://sodipodi.sourceforge.net/DTD/sodipodi-0.dtd"
   xmlns:inkscape="http://www.inkscape.org/namespaces/inkscape"
   id="svg2"
   version="1.1"
   inkscape:version="0.91 r13725"
   width="1357.5"
   height="1357.5"
   viewBox="0 0 1357.5 1357.5"
   sodipodi:docname="blaster-jaw.svg">
  <metadata
     id="metadata8">
    <rdf:RDF>
      <cc:Work
         rdf:about="">
        <dc:format>image/svg+xml</dc:format>
        <dc:type
           rdf:resource="http://purl.org/dc/dcmitype/StillImage" />
        <dc:title />
      </cc:Work>
    </rdf:RDF>
  </metadata>
  <defs
     id="defs6" />
  <sodipodi:namedview
     pagecolor="#ffffff"
     bordercolor="#666666"
     borderopacity="1"
     objecttolerance="10"
     gridtolerance="10"
     guidetolerance="10"
     inkscape:pageopacity="0"
     inkscape:pageshadow="2"
     inkscape:window-width="1280"
     inkscape:window-height="751"
     id="namedview4"
     showgrid="false"
     inkscape:zoom="0.49497475"
     inkscape:cx="342.48922"
     inkscape:cy="362.57289"
     inkscape:window-x="0"
     inkscape:window-y="29"
     inkscape:window-maximized="1"
     inkscape:current-layer="svg2" />
  <path
     style="fill:#ced4d8;fill-opacity:1"
     d="m 691.00678,1311.0337 c 7.03126,-3.4183 23.67725,-12.4709 37.24417,-18.0373 13.5669,-5.5663 29.41403,-12.5098 35.21579,-15.4296 26.60884,-13.3916 41.78616,-20.6832 57.41487,-50.2229 4.22428,-7.9842 13.4182,-19.7153 16.70252,-24.2046 3.28432,-4.4895 8.05274,-15.5463 11.83928,-21.4644 20.35543,-31.8126 43.92875,-58.1638 72.22544,-77.2083 5.53391,-3.7244 15.10757,-10.243 18.78919,-13.2427 3.68162,-2.9995 12.17115,-8.1651 18.86561,-12.1 10.70279,-6.2911 15.2119,-11.7524 37.36242,-34.1407 47.44213,-47.9514 71.97113,-76.92768 82.88483,-98.36967 7.5721,-14.87669 24.2491,-59.38404 26.9921,-72.82521 0.7762,-3.80309 2.7694,-21.09176 3.7663,-29.09824 0.9969,-8.00648 1.6706,-16.49709 2.1602,-18.86805 0.6071,-2.93833 1.8184,-11.87152 0.9005,-11.3006 -3.3374,-0.35072 -8.6938,4.41077 -10.5614,7.25595 -7.454,11.47597 -17.7816,25.42633 -24.2549,30.34324 -7.5131,5.7066 -15.3956,12.55741 -26.3312,15.31215 -4.2899,1.08068 -6.8052,3.06948 -10.8621,4.85891 -8.9293,3.93861 -11.4721,3.07511 -17.0254,-5.78151 -8.9833,-14.32686 -13.4927,-22.84319 -17.634,-50.04335 -5.8313,-38.30004 -14.34081,-136.76508 -10.88668,-146.45355 1.02156,-2.8654 0.17348,-5.7224 -1.75683,-4.11001 -1.59579,1.41559 -4.33189,7.03456 -4.77217,7.52907 -2.43904,-1.51714 -19.4442,37.30853 -25.55397,55.43283 -7.67409,22.7648 -27.49187,24.80245 -10.37142,77.59602 11.51632,35.51236 6.18066,71.00352 3.74578,82.27998 -0.67646,3.13297 4.71573,28.33626 4.07352,38.43139 -1.16741,18.35124 -2.34215,12.82847 -6.99189,20.53646 -2.79333,4.63061 3.81421,15.81434 2.86143,12.58542 -0.88934,-3.01382 -3.64384,-5.14766 -11.19594,-17.75955 -4.34201,-7.25106 -6.70601,-12.75458 -7.24955,-16.87726 -0.47132,-3.57495 -7.46869,-9.53972 -8.02647,-8.63138 1.74974,-5.81985 -1.50736,-4.85742 -4.83816,13.74138 -12.12876,45.85826 -18.0598,55.886 -35.76569,106.45968 -10.18473,29.0909 -19.50257,49.1586 -23.01122,53.0998 -2.77596,3.1181 -0.90019,-0.1225 -2.31482,-3.8674 -0.93151,-2.4659 -4.08174,-47.401 -5.21127,-92.96763 -0.0463,-1.8685 -12.59969,47.30963 -21.55237,74.61983 -7.22688,22.0454 -30.59024,55.2851 -57.87035,97.697 -4.08923,6.3574 -5.58847,10.1832 -7.50591,13.7746 -3.80719,7.1307 -1.8235,9.3575 -4.38013,6.6449 -1.36913,-1.4526 -1.97591,6.77 -0.0683,-5.8007 2.73868,-18.0468 8.80153,-54.59 1.35678,-63.5809 l -3.93708,-24.7654 -6.18592,27.2971 c -1.36838,6.0384 -9.98354,14.0684 -11.10985,19.8697 -4.19563,21.6107 -12.62356,29.5848 -29.54472,47.936 -3.53082,3.8292 -5.18039,9.6279 -9.87972,15.3718 -8.33785,10.1909 -4.16194,15.5787 -7.23764,12.483 -2.30244,-2.3172 -1.32331,-5.7955 2.34908,-10.6415 3.03274,-4.0016 0.66261,-5.8089 -0.72567,-9.3642 -0.84342,-2.1598 -0.6378,-13.6005 -8.08541,-26.4061 l -16.40483,-43.1742 -19.47231,62.8055 c -5.1998,16.7713 -9.61123,83.1615 -8.03138,92.0801 1.81648,10.2547 9.8505,4.3911 8.49395,25.8668 -0.74763,11.8356 25.73359,15.5931 21.93216,13.0485 l -3.14637,-2.106 z"
     id="path3334"
     inkscape:connector-curvature="0"
     sodipodi:nodetypes="ssssssscssssssccssssssccssssssssccssscsssssscsssssscscsssscs" />
  <path
     sodipodi:nodetypes="ssssssscssssssccssssssccssssssssccssscsssssscsssssscscsssscs"
     inkscape:connector-curvature="0"
     id="path3350"
     d="m 664.375,1305.5059 c -6.98817,-3.3755 -23.53218,-12.3148 -37.01595,-17.8114 -13.48377,-5.4967 -29.23378,-12.3531 -35,-15.2365 -26.4458,-13.2239 -41.53012,-28.4572 -57.06304,-57.627 -4.19841,-7.8844 -10.30416,-17.9624 -13.56836,-22.3956 -3.26419,-4.4332 -9.014,-12.8416 -12.77735,-18.6854 -20.23069,-31.4143 -47.70199,-59.9459 -75.8253,-78.752 -5.5,-3.6779 -12.99377,-9.1106 -16.65284,-12.0728 -3.65906,-2.9621 -12.09656,-8.5649 -18.75,-12.4506 -10.63721,-6.2123 -15.11867,-10.0992 -37.13346,-32.2072 -47.15143,-47.3512 -70.51961,-74.96066 -81.3664,-96.13425 -7.52561,-14.69045 -25.111,-62.65708 -27.83726,-75.93001 -0.77138,-3.75548 -2.7524,-13.29689 -3.74318,-21.20314 -0.99078,-7.90625 -1.6604,-16.29059 -2.14714,-18.63186 -0.60321,-2.90155 -1.80701,-11.72292 -0.89476,-11.15913 3.31692,-0.34635 6.49675,8.61563 8.35278,11.42519 7.40849,11.33232 19.81647,27.23808 26.2502,32.09344 7.46703,5.63516 15.30122,9.20516 26.16972,11.92541 4.26379,1.06716 11.05125,3.38606 15.08326,5.15309 8.8746,3.8893 11.40182,3.03662 16.92104,-5.70913 8.92817,-14.14752 13.41004,-28.23735 17.52598,-55.09701 5.79558,-37.8206 9.96522,-132.923 6.53228,-142.4902 -1.0153,-2.82952 -0.1724,-5.65075 1.7461,-4.05854 1.58594,1.39786 4.30534,6.9465 4.7429,7.43481 2.42406,-1.49815 19.32503,36.8415 25.39737,54.73893 7.62707,22.47981 8.02898,44.37236 1.73257,94.375 -4.60627,36.58049 -6.1428,70.11469 -3.72285,81.25 0.67234,3.09375 1.74466,13.78125 2.38294,23.75 1.16026,18.12151 2.3278,23.31811 6.94904,30.9296 2.77623,4.57264 3.35525,3.54615 4.3022,0.35764 0.88388,-2.97611 3.6215,-5.08322 11.12733,-17.53724 4.31539,-7.16029 6.66492,-12.59491 7.20512,-16.66599 0.46844,-3.5302 2.42066,-11.55034 2.97503,-10.65337 -1.73902,-5.747 1.49812,-4.7966 4.80852,13.56936 12.05444,45.28419 16.5199,63.7066 34.11732,113.6473 10.1223,28.7267 22.24149,57.7734 25.72862,61.6652 2.75897,3.0791 5.18235,2.7191 6.58831,-0.9789 0.9258,-2.435 2.6275,-41.8375 3.75012,-86.8336 0.046,-1.8452 8.23484,21.1568 17.13265,48.125 7.18259,21.7695 30.22414,64.5333 57.3371,106.4143 4.06417,6.2778 8.9486,14.3158 10.8543,17.8622 3.78385,7.0415 6.45728,8.8856 8.99824,6.2069 1.36074,-1.4345 1.2492,-4.3201 -0.64676,-16.7334 -2.72191,-17.8209 -4.26141,-54.1928 -2.77769,-65.625 l 1.05451,-8.125 3.28959,10.625 c 1.80929,5.8437 4.20549,15.3122 5.3249,21.0409 4.16993,21.3401 13.21003,38.3377 30.02751,56.4591 3.50918,3.7812 10.20169,11.5156 14.87223,17.1875 8.28675,10.0634 11.2107,11.8694 14.26756,8.8125 2.28832,-2.2883 1.82049,-4.7189 -1.82939,-9.5041 -3.01415,-3.9517 -3.18507,-4.7322 -1.8053,-8.243 0.83825,-2.1328 5.36393,-15.2225 10.05708,-29.088 l 10.24066,-37.6131 -0.35391,23.8631 c -0.25713,17.3372 2.98338,59.5279 1.41321,68.3351 -1.80535,10.1263 -3.72647,24.4182 -2.37824,45.625 0.74305,11.6875 1.16647,24.9414 0.94094,29.4531 l -0.41005,8.9656 z"
     style="fill:#fefefe;fill-opacity:1" />
  <path
     style="fill:#000000"
     d="m 349.70312,637.91797 c -2.354,0.89407 -0.99518,4.2795 -0.97812,6.13788 3.87633,21.84491 1.86396,44.30121 5.15346,66.25565 1.32715,13.11404 -1.73408,26.16513 -2.58343,39.26584 -3.27628,30.64825 -4.98151,61.73083 -13.01573,91.59649 -2.82509,9.75622 -6.566,19.64836 -13.22461,27.46289 -2.0151,2.96622 -5.64476,1.39005 -8.30078,0.2832 -14.0918,-5.52289 -27.94965,-13.18018 -37.38385,-25.33633 -11.56354,-14.16837 -22.14658,-29.34679 -29.64545,-46.06211 -4.52566,-9.5247 -3.306,-20.22634 -4.91602,-30.3457 -0.24025,-2.64591 -2.25245,-5.84016 -5.3164,-4.77148 -5.65071,1.0226 -7.46127,7.37694 -7.55763,12.34733 -0.8877,12.14467 3.53138,23.9128 8.87392,34.52556 2.47854,7.2622 0.64047,15.08425 1.70537,22.5685 1.60531,19.62989 3.63592,39.473 10.16678,58.17672 7.56082,23.21979 15.99298,46.40208 28.94183,67.23531 10.16081,17.13104 22.13253,33.1333 35.49569,47.89528 10.94154,13.4279 22.29682,26.5036 34.25688,39.0404 12.76023,13.221 25.01056,27.4963 41.14645,36.7597 13.11611,8.652 26.04863,17.6094 38.63935,27.0066 16.35689,13.372 31.9481,27.8937 45.37863,44.2484 18.25949,23.4493 37.6245,46.403 51.07908,73.11 6.8305,12.1531 13.85658,24.5299 23.72835,34.5066 14.96393,13.455 32.74223,23.4236 50.90701,31.8724 18.72735,8.435 37.89822,16.0062 55.71117,26.3219 6.43298,3.1621 12.20756,7.5042 18.62282,10.6548 3.51669,1.7583 6.78572,-1.7237 9.7685,-3.1087 23.37471,-16.2775 50.92897,-24.5647 76.08834,-37.518 16.6834,-8.5716 33.88067,-17.4994 46.68222,-31.5451 11.28438,-12.7416 18.85804,-28.127 27.01758,-42.8907 11.259,-19.2274 25.2232,-36.6493 39.03711,-54.0801 12.49119,-16.7234 27.63011,-31.2542 43.13136,-45.173 10.53843,-9.2365 22.7062,-16.3315 33.87178,-24.7554 11.39089,-8.2864 24.19933,-14.744 34.06749,-24.9884 20.36013,-20.1727 39.62763,-41.4355 57.78873,-63.6063 16.4594,-18.27777 29.9641,-39.06525 41.1797,-60.91044 9.5906,-20.00229 16.8724,-41.06423 23.1094,-62.32813 4.6405,-16.41195 5.6982,-33.56803 6.8633,-50.50586 0.5814,-5.56076 -1.0455,-11.32963 1.2975,-16.64596 4.5584,-12.05109 10.6447,-24.46561 9.1243,-37.72318 -0.4495,-5.14271 -4.2159,-10.65184 -9.7754,-10.73047 -3.5689,0.91689 -3.344,5.57207 -3.7109,8.49414 -0.085,8.20771 -0.015,16.59946 -3.4649,24.21342 -6.7098,16.46459 -16.8353,31.29175 -27.537,45.40351 -5.3292,6.94293 -11.2401,13.65378 -19.0571,17.85548 -8.4887,4.84133 -17.067,10.1629 -26.6793,12.30689 -3.6275,0.38359 -4.7574,-4.24298 -6.6465,-6.44141 -10.2193,-17.00837 -13.0723,-37.06817 -16.1407,-56.31923 -3.9149,-28.1559 -6.244,-56.53715 -9.1112,-84.8292 -0.9699,-10.57359 1.724,-21.01624 1.8701,-31.61014 0.7268,-12.54564 0.8701,-25.11466 1.2607,-37.67307 2.0936,-3.25397 5.8017,-5.92599 6.7071,-9.79687 -1.2014,-1.43529 -3.2547,1.10177 -4.5801,1.46484 -9.43594,5.46891 -18.13827,12.35853 -24.58008,21.24219 -15.62035,19.4603 -23.27848,43.63543 -31.9761,66.64206 -5.48323,15.19704 -11.37266,31.07137 -9.46156,47.52407 2.09322,18.73557 5.30193,37.32454 7.61082,56.04055 1.44005,11.65381 3.34463,23.29236 4.4618,34.9598 -1.31289,20.80393 -1.82457,41.67566 -4.08389,62.39977 -0.28788,5.05276 -2.02667,-2.59051 -3.07275,-4.17229 -5.56711,-13.01743 -7.65464,-27.19358 -11.94512,-40.63029 -0.71577,-2.2873 -2.57396,0.32918 -2.9106,1.46096 -8.21211,17.46433 -14.23001,35.87282 -20.55736,54.08114 -11.82083,36.82851 -23.85216,73.59022 -36.80833,110.04442 -2.37725,6.8013 -4.76684,13.8351 -7.05574,20.5346 -1.60731,-3.5519 -0.85251,-7.8155 -1.29108,-11.6574 -0.74143,-27.8607 0.50112,-56.0685 -5.0863,-83.53488 -0.005,-4.92823 -2.11565,-1.5685 -3.94239,0.66218 -4.8473,7.53137 -7.40375,16.30057 -10.58813,24.618 -10.99448,30.3294 -21.9775,60.68 -33.2586,90.8925 -12.61767,21.4501 -24.98552,43.0501 -37.92725,64.3067 -1.13226,-22.6549 2.4638,-45.5476 -1.82005,-68.0216 -1.30875,-7.1072 -1.95333,-14.442 -3.87135,-21.3866 -1.92877,-1.0607 -2.90866,2.3597 -3.875,3.4687 -7.8055,13.5394 -13.54019,28.1812 -17.33008,43.334 -5.24577,19.593 -10.63616,40.2331 -24.74763,55.5559 -4.9892,5.5091 -10.24374,10.8872 -15.8637,15.7879 -5.11015,-12.304 -8.19912,-25.4768 -11.7848,-38.3331 -4.72542,-17.9121 -10.22753,-35.6854 -17.35192,-52.7958 -0.49076,-0.8872 -1.49926,-3.9746 -2.76172,-2.3653 -4.40729,14.6867 -6.71243,29.9293 -10.74895,44.7269 -4.22643,17.4771 -10.32167,34.5701 -18.73542,50.4841 -8.35888,-5.8293 -14.70557,-14.2464 -19.96592,-22.8318 -6.75589,-11.2073 -12.55366,-23.1659 -15.11961,-36.0428 -4.34656,-18.6955 -10.46296,-37.0028 -18.05887,-54.6228 -1.02976,-1.4764 -1.44896,-4.4135 -3.35755,-4.7741 -2.24461,2.7568 -2.41731,6.7938 -3.58836,10.0865 -4.66805,19.8266 -9.43092,40.2535 -6.83459,60.743 0.48295,5.4124 1.2361,11.1533 1.16709,16.3931 -8.18878,-10.9494 -14.3966,-23.231 -21.24638,-35.0489 -11.65546,-20.287 -21.80649,-41.4173 -30.363,-63.1815 -10.0276,-24.3829 -19.18151,-49.1764 -30.74357,-72.88536 -1.23703,-1.6623 -1.86609,-4.85495 -4.18807,-5.18889 -1.61387,1.6105 -1.15088,4.51958 -1.70264,6.64675 -3.29533,28.4404 -2.78476,57.1637 -4.73681,85.6736 -9.38644,-25.2175 -17.12566,-51.0944 -25.22528,-76.78013 -7.48469,-23.89387 -14.13339,-48.07448 -22.5423,-71.66132 -4.56423,-10.81289 -9.17694,-21.76697 -15.68607,-31.57309 -0.87048,-1.6295 -2.3833,-0.33152 -2.55577,1.0496 -5.93782,12.9001 -11.22869,26.08848 -16.79136,39.15435 -1.96553,-13.55465 -1.72906,-27.34244 -2.35987,-41.0231 -0.92895,-26.95029 0.32058,-54.10339 6.73877,-80.38315 2.88317,-12.06641 6.38032,-24.24403 5.56055,-36.79101 0.15114,-11.133 -1.42078,-22.21871 -4.70703,-32.85743 -5.00387,-18.24205 -11.23798,-36.25455 -20.52149,-52.80468 -9.51943,-17.19613 -19.75206,-34.29478 -33.19721,-48.75015 -2.33626,-1.95674 -4.5318,-5.13142 -7.65826,-5.73032 z m 647.01172,30.70508 c -2.99151,11.25901 -2.23884,23.09252 -2.39572,34.63472 0.7721,38.78361 3.75349,77.55408 9.24688,115.95716 2.2403,14.7833 4.8257,29.90645 12.3762,43.05352 3.3167,5.60063 6.5452,11.91798 12.3,15.36632 3.5242,1.18079 6.9272,-1.65389 10.084,-2.85547 10.9044,-4.63444 23.1873,-5.68497 33.3105,-12.22266 16.9931,-10.28076 27.4647,-27.73767 38.9219,-43.35547 1.3277,-2.38722 2.6625,-2.70516 2.0762,0.23828 -3.2302,21.96899 -4.1645,44.47586 -11.7709,65.50587 -9.5671,28.02537 -19.6845,56.48832 -37.5662,80.46527 -19.1383,26.6232 -43.0275,49.29961 -65.88025,72.65101 -12.46583,12.0464 -24.07479,25.4901 -39.44605,33.9369 -14.36398,8.9285 -27.56948,19.5502 -41.58273,28.9898 -25.00003,20.4855 -48.66627,43.3472 -66.09997,70.7598 -7.4609,12.453 -17.08606,23.4835 -23.98011,36.3164 -9.26471,17.0275 -18.57532,34.8154 -33.88391,47.2851 -18.79684,15.387 -41.87142,24.1647 -64.06852,33.4418 -15.90306,6.1322 -31.34965,13.4035 -46.23388,21.7068 -1.67123,1.0074 -3.59299,2.1316 -5.18673,0.3436 -10.52335,-7.1951 -22.5327,-11.8494 -34.06612,-17.1493 -20.53511,-9.1033 -41.97296,-16.3576 -61.38749,-27.7704 -17.72807,-10.2734 -31.65894,-26.1652 -41.6389,-43.934 -6.83886,-12.5779 -13.83875,-25.1149 -22.47406,-36.57 -9.75724,-14.5794 -19.26416,-29.4243 -30.85612,-42.6819 -16.9575,-20.044 -36.7214,-37.7096 -58.73619,-52.0351 -9.66833,-6.9864 -18.92675,-14.5465 -29.38089,-20.4073 -15.58475,-8.7106 -27.19683,-22.6157 -39.91982,-34.864 -23.63989,-24.1396 -47.65637,-48.18904 -67.64266,-75.53025 -8.91229,-11.85411 -15.08131,-25.45183 -20.33103,-39.25812 -6.83698,-17.94011 -13.8773,-35.90551 -18.62922,-54.54768 -2.79789,-16.01375 -4.92339,-32.18567 -6.3711,-48.38867 8.25758,13.60529 17.99471,26.39978 29.21157,37.70017 9.42005,9.00176 21.87441,13.8509 34.35767,16.83308 6.24681,1.48477 11.7833,5.0382 18.09092,6.22651 5.77638,0.68545 8.83327,-5.38316 11.4668,-9.4375 12.03668,-19.35368 15.2212,-42.46616 18.19851,-64.62449 4.06112,-36.79615 6.27257,-73.80268 6.85031,-110.81691 -0.28137,-7.49651 0.62311,-15.28537 -1.61132,-22.55078 7.77694,10.54857 13.76679,22.42217 19.8386,34.07372 9.94946,19.86253 17.83461,41.53508 17.05593,64.04932 -0.25287,35.44733 -7.58429,70.35272 -8.89117,105.75485 -0.52755,12.00551 -0.87751,24.24599 1.45291,36.01351 1.97387,13.59992 1.17163,27.6318 4.50857,41.04024 1.54704,4.55677 3.45502,9.44164 7.12305,12.68554 2.56085,1.21307 3.4425,-2.54776 3.92187,-4.27539 3.95471,-8.77412 10.53924,-16.11773 14.16406,-25.09175 2.67407,-4.83268 2.30779,-10.56747 4.54297,-15.43559 2.5606,4.01458 3.14847,9.32238 4.59857,13.91408 10.93694,42.78982 25.01319,84.71611 40.17268,126.17361 5.71214,14.7205 10.87732,29.7814 18.51977,43.6428 1.27815,2.314 4.35897,5.7357 7.17383,3.6172 3.27152,-3.2541 1.93539,-8.4706 2.67693,-12.5969 1.41165,-25.0692 2.11271,-50.1725 2.79377,-75.2703 7.16967,18.0801 12.50681,36.813 19.39216,54.9956 12.56717,29.6379 28.9829,57.4573 45.83434,84.8193 7.32316,11.5537 14.76796,22.9944 21.53773,34.8688 1.29785,2.2366 4.38967,5.2157 6.95647,2.9178 2.82599,-2.6836 1.11789,-7.089 1.02525,-10.4665 -3.43877,-22.4134 -4.75323,-45.1496 -4.19306,-67.8238 0.11759,-3.5572 0.70823,-7.1242 1.14828,-10.6745 4.14623,12.1689 6.90505,24.7353 9.72852,37.2656 4.95204,19.604 16.59354,36.7665 30.4643,51.192 7.15384,7.5204 13.02245,16.2337 20.62554,23.3119 2.02525,2.1544 5.7677,2.6321 7.54297,-0.098 2.80638,-3.2597 -0.46649,-7.422 -2.50702,-10.0929 -2.06573,-2.061 -2.91227,-5.1886 -1.28061,-7.8337 6.9571,-19.0464 13.4843,-38.2936 18.71732,-57.8879 0.57639,-2.4633 0.93233,-6.1883 2.12109,-7.918 3.21655,8.6075 4.91672,17.7194 7.96919,26.3999 4.6302,14.8034 9.89324,29.3888 15.2769,43.9322 -2.59742,3.2901 -7.1884,7.1916 -5.65234,11.9336 1.24335,2.8158 5.12174,2.475 6.83953,0.2936 9.34101,-8.8943 16.99321,-19.3919 25.55987,-29.0102 12.98348,-14.0019 21.99221,-31.5075 25.97406,-50.1701 2.39658,-11.1762 4.93255,-22.4953 9.54842,-32.959 3.49475,27.2382 1.27669,54.8196 -2.78125,81.8691 0.19701,2.6074 -1.67444,6.4445 1.03906,8.2481 2.98484,1.0399 4.8736,-2.7299 6.45898,-4.5899 6.18137,-9.7761 12.07283,-19.7415 18.44838,-29.399 13.59094,-22.4487 27.43563,-44.8099 39.41963,-68.1726 11.95119,-24.4992 18.28849,-51.2739 28.81754,-76.3034 1.08112,-2.3767 0.62267,2.7493 0.89288,3.8299 1.5459,27.38 1.29007,54.8597 3.46259,82.1975 0.54866,2.8126 4.249,3.5568 6.04687,1.4472 3.48977,-3.8411 4.625,-9.2329 7.08096,-13.7209 14.32844,-32.0767 24.80431,-65.6804 36.06363,-98.90798 7.58681,-22.58895 13.2864,-45.74141 19.93012,-68.6086 0.72894,-1.79249 1.2935,-4.5214 2.48779,-5.61015 3.01607,6.21122 3.56573,13.44246 7.06314,19.57979 3.26103,7.4971 9.17287,13.5446 12.02671,21.21122 0.1125,1.78564 1.18445,5.36206 3.63476,4.07227 2.86704,-2.63273 3.92478,-6.72523 5.63086,-10.13477 3.62465,-10.13829 2.40775,-21.17868 3.7793,-31.69336 0.68204,-9.21811 2.92561,-18.28026 2.60547,-27.58789 0.24515,-25.8723 -1.60554,-51.73733 -5.35383,-77.33435 -1.47104,-10.54934 -2.5215,-21.26144 -5.9157,-31.40588 -0.82089,-8.82901 1.38225,-17.63219 2.30078,-26.42773 2.79245,-21.01165 9.942,-41.23092 20.16249,-59.74237 5.79643,-10.26544 11.15824,-20.94554 18.43907,-30.14631 0.11912,-0.061 0.86389,-1.0363 0.62695,-0.37304 z"
     id="path3348"
     inkscape:connector-curvature="0" />
</svg>
