<?xml version="1.0" encoding="UTF-8" standalone="no"?>
<!-- Created with Inkscape (http://www.inkscape.org/) -->

<svg
   xmlns:dc="http://purl.org/dc/elements/1.1/"
   xmlns:cc="http://creativecommons.org/ns#"
   xmlns:rdf="http://www.w3.org/1999/02/22-rdf-syntax-ns#"
   xmlns:svg="http://www.w3.org/2000/svg"
   xmlns="http://www.w3.org/2000/svg"
   xmlns:sodipodi="http://sodipodi.sourceforge.net/DTD/sodipodi-0.dtd"
   xmlns:inkscape="http://www.inkscape.org/namespaces/inkscape"
   id="svg2"
   version="1.1"
   inkscape:version="0.91 r13725"
   width="1357.5"
   height="1357.5"
   viewBox="0 0 1357.5 1357.5"
   sodipodi:docname="blaster-head-silhouette.svg">
  <metadata
     id="metadata8">
    <rdf:RDF>
      <cc:Work
         rdf:about="">
        <dc:format>image/svg+xml</dc:format>
        <dc:type
           rdf:resource="http://purl.org/dc/dcmitype/StillImage" />
        <dc:title></dc:title>
      </cc:Work>
    </rdf:RDF>
  </metadata>
  <defs
     id="defs6" />
  <sodipodi:namedview
     pagecolor="#ffffff"
     bordercolor="#666666"
     borderopacity="1"
     objecttolerance="10"
     gridtolerance="10"
     guidetolerance="10"
     inkscape:pageopacity="0"
     inkscape:pageshadow="2"
     inkscape:window-width="1280"
     inkscape:window-height="751"
     id="namedview4"
     showgrid="false"
     showguides="false"
     inkscape:zoom="0.34769797"
     inkscape:cx="511.05425"
     inkscape:cy="642.10003"
     inkscape:window-x="0"
     inkscape:window-y="29"
     inkscape:window-maximized="1"
     inkscape:current-layer="svg2" />
  <path
     style="fill:#000000;fill-opacity:1"
     d="M 674.02344 45 L 671.24219 55.3125 C 662.33355 88.341009 658.09638 97.805391 643.96484 116.25 C 630.70813 133.55277 625.31701 139.23645 606.25 156.00977 C 582.50754 176.89611 575.22241 182.52841 555 195.62305 C 511.05909 224.07615 493.93413 237.36296 468.13281 263.02539 C 451.85379 279.21677 444.54164 287.54621 437.86719 297.5 C 425.84214 315.4333 416.26137 333.21231 410.58789 348.125 C 407.97233 355 404.34351 362.875 402.52344 365.625 C 400.70335 368.375 398.03139 373.42144 396.58594 376.83984 C 395.14049 380.25824 393.48896 383.20616 392.91602 383.39062 C 391.41987 383.87233 382.94163 370.31442 380.61523 363.7207 C 374.81631 347.28479 373.92966 325.39666 378.1543 302.92188 C 380.1482 292.31442 382.5807 287.27917 393.75195 270.625 C 398.36355 263.75 406.77285 250.8125 412.43945 241.875 C 418.10604 232.9375 425.73076 221.6875 429.38477 216.875 C 440.05986 202.81539 455.59049 177.64429 459.84766 167.5 C 462.01154 162.34375 465.74297 154.38922 468.14062 149.82227 C 475.84407 135.1492 472.89618 131.52088 462.88477 143.35352 C 459.57952 147.26005 453.34854 154.43192 449.03906 159.29102 C 444.72958 164.15014 438.55149 171.5 435.30859 175.625 C 432.06568 179.75 426.87145 185.58716 423.76758 188.5957 C 411.91379 200.08546 385.19087 222.48791 368.75 234.71875 C 361.40107 240.18584 346.68369 255.60099 323.64844 281.95508 C 290.66324 319.69267 273.71251 344.9097 268.24805 364.375 C 264.18817 378.83691 260.5774 397.42844 258.85938 412.71289 C 256.75335 431.44941 257.11313 485.10741 259.44336 499.70117 C 261.66923 513.64122 265.38803 528.95603 268.59961 537.4082 C 272.05705 546.50744 291.78766 577.62519 306.30469 596.875 C 313.56328 606.5 321.37232 617.10997 323.6582 620.45312 C 325.94408 623.79627 332.01661 631.10878 337.15234 636.70312 C 342.28805 642.29747 347.95598 649.125 349.74805 651.875 C 351.54013 654.625 355.89632 660.53125 359.42773 665 C 371.99207 680.89926 388.66325 712.29145 394.92578 731.8418 C 399.16028 745.06105 402.57374 768.38709 404.8418 799.61328 C 406.00514 815.62978 407.04822 820.7441 415.58789 852.28125 C 424.88518 886.61622 425.26639 887.6646 438.00195 913.91797 L 450.95703 940.625 L 451.74219 935 C 452.49041 929.63851 457.39277 881.54884 457.59961 877.53906 C 457.79336 873.78288 459.86404 882.08864 461.95312 895 C 463.78413 906.3164 466.48859 914.20842 481.58203 952.26953 C 491.21014 976.54852 499.48726 995.95477 499.97461 995.39453 C 500.86765 994.36793 501.42355 991.42152 509.46289 945.22266 C 513.34778 922.89777 519.44628 900.27602 522.42773 897.12695 C 522.94813 896.57729 523.75 902.20229 524.21094 909.62695 C 525.64871 932.78661 531.6597 959.17747 540.23633 980 C 554.39115 1014.3653 574.10375 1050.223 577.64062 1048.0371 C 578.25032 1047.6603 578.75572 1039.9321 578.76172 1030.8633 C 578.76797 1021.7945 579.63083 1007.0851 580.67969 998.17578 C 582.48146 982.87134 586.56484 965.72469 588.72656 964.38867 C 590.02683 963.58505 591.42871 967.3346 597.45508 987.74805 C 604.2678 1010.825 619.49267 1053.4646 628.95898 1075.9785 C 636.23416 1093.2811 651.37706 1120.2418 652.28711 1117.5117 C 652.51493 1116.8282 651.80134 1108.8872 650.70117 1099.8633 C 649.26375 1088.0734 648.92327 1078.6608 649.48828 1066.416 C 650.18741 1051.2646 650.83393 1047.574 655.33203 1033.125 C 660.46319 1016.6425 663.94797 1010.3515 671.75977 1003.4707 C 676.66278 999.15168 679.14756 999.14539 683.54102 1003.4375 C 696.20852 1015.8128 703.65624 1039.4271 703.74414 1067.5 C 703.76456 1074.0313 704.60651 1087.8125 705.61523 1098.125 C 706.62395 1108.4375 707.46051 1117.6117 707.47461 1118.5117 C 707.48872 1119.4116 708.00853 1119.832 708.63086 1119.4473 C 710.69538 1118.1714 721.39807 1098.945 725.88281 1088.4551 C 731.33181 1075.7097 754.83915 1007.279 760.77734 986.875 C 763.17834 978.625 765.40372 971.09554 765.72266 970.14258 C 766.18779 968.75279 766.79101 968.85259 768.77539 970.64844 C 770.80489 972.48511 771.25 974.50662 771.25 981.90039 C 771.25 997.08335 779.22625 1051.7434 781.33203 1050.9902 C 781.89223 1050.7898 787.79922 1042.1875 794.45898 1031.875 C 804.81092 1015.8452 807.56476 1010.4048 813.43164 994.375 C 824.57203 963.93677 830.66548 941.39409 832.35547 924.375 C 834.81601 899.5959 834.65004 899.7666 840.26562 916.25 C 845.24204 930.85731 847.97726 949.05557 850.64844 985.3125 C 851.14229 992.01562 852.01518 997.5 852.58789 997.5 C 854.40215 997.5 861.31517 986.456 866.5332 975.2207 C 873.82427 959.52185 893.01439 902.61732 895.62305 888.95898 C 898.17213 875.61273 899.95052 875.7828 899.98242 889.375 C 899.99372 894.1875 901.12655 906.84375 902.5 917.5 C 903.87345 928.15625 904.99729 937.69063 904.99805 938.6875 C 904.99894 939.82656 905.43511 940.05879 906.17188 939.3125 C 908.04114 937.41904 923.18112 901.3512 925.56445 893.11328 C 926.75612 888.99429 932.68453 871.5625 938.73828 854.375 L 949.74414 823.125 L 951.16602 788.94531 C 952.588 754.7717 952.59016 754.76319 957.63281 736.70312 C 962.41291 719.58333 963.34035 717.53437 975.40039 697.48633 C 988.18106 676.24037 1000.621 659.28396 1016.875 640.95117 C 1021.6875 635.52318 1027.6383 628.44778 1030.0996 625.22852 C 1066.8211 577.19979 1086.4938 546.42366 1091.7695 528.75 C 1098.1124 507.50165 1100.033 490.97195 1100.043 457.55664 C 1100.0538 418.10734 1098.0735 399.42681 1091.0957 373.125 C 1088.3374 362.72809 1079.8185 342.71578 1074.4316 333.97852 C 1057.501 306.51782 1009.0203 251.48127 985.72656 233.27734 C 955.02433 209.28377 931.76763 188.55594 924.61328 178.80859 C 921.81465 174.99563 916.3515 168.5 912.47266 164.375 C 908.59382 160.25 902.31924 152.9375 898.5293 148.125 C 894.73937 143.3125 890.73312 138.62364 889.625 137.70508 C 884.57504 133.51895 883.77493 141.70947 888.56641 148.54297 C 889.8515 150.37573 893.25667 157.41317 896.13281 164.18164 C 899.00896 170.9501 903.71615 180.23135 906.59375 184.80664 C 914.36433 197.16159 924.81841 212.45882 929.36328 218.125 C 931.56906 220.875 937.76479 230.15625 943.13086 238.75 C 948.49693 247.34375 957.21441 260.84375 962.50391 268.75 C 978.07345 292.0219 979.3574 295.45529 981.39844 319.25195 C 982.88927 336.63377 981.89597 347.38954 977.48828 361.58203 C 975.36588 368.416 966.59024 383.71488 964.7793 383.73828 C 964.31407 383.74429 962.45733 380.51562 960.6543 376.5625 C 958.85126 372.60937 956.02635 367.40625 954.37695 365 C 952.72755 362.59375 949.34934 355.28125 946.86914 348.75 C 936.99694 322.75302 917.94011 292.37031 898.98242 272.40234 C 872.7494 244.77132 853.26948 229.10882 808.125 199.35547 C 778.9685 180.13931 774.91751 177.04982 750.33008 155.26562 C 726.35724 134.02595 707.85872 111.93342 698.82031 93.75 C 695.84198 87.75822 689.14655 66.716704 684.99805 50.3125 C 683.70879 45.214482 683.45838 45 678.83789 45 L 674.02344 45 z M 939.44336 817.06836 C 938.96458 820.39078 938.21542 823.72117 937.12695 827.5 C 937.1255 827.50504 937.12255 827.51643 937.12109 827.52148 L 939.44336 817.06836 z "
     id="path3344" />
</svg>
