<?xml version="1.0" encoding="UTF-8" standalone="no"?>
<!-- Created with Inkscape (http://www.inkscape.org/) -->

<svg
   xmlns:dc="http://purl.org/dc/elements/1.1/"
   xmlns:cc="http://creativecommons.org/ns#"
   xmlns:rdf="http://www.w3.org/1999/02/22-rdf-syntax-ns#"
   xmlns:svg="http://www.w3.org/2000/svg"
   xmlns="http://www.w3.org/2000/svg"
   xmlns:sodipodi="http://sodipodi.sourceforge.net/DTD/sodipodi-0.dtd"
   xmlns:inkscape="http://www.inkscape.org/namespaces/inkscape"
   id="svg2"
   version="1.1"
   inkscape:version="0.91 r13725"
   width="462.03995"
   height="680.05707"
   viewBox="0 0 462.03995 680.05707"
   sodipodi:docname="sans-character-silhouette.svg">
  <metadata
     id="metadata8">
    <rdf:RDF>
      <cc:Work
         rdf:about="">
        <dc:format>image/svg+xml</dc:format>
        <dc:type
           rdf:resource="http://purl.org/dc/dcmitype/StillImage" />
        <dc:title></dc:title>
      </cc:Work>
    </rdf:RDF>
  </metadata>
  <defs
     id="defs6" />
  <sodipodi:namedview
     pagecolor="#ffffff"
     bordercolor="#666666"
     borderopacity="1"
     objecttolerance="10"
     gridtolerance="10"
     guidetolerance="10"
     inkscape:pageopacity="0"
     inkscape:pageshadow="2"
     inkscape:window-width="1280"
     inkscape:window-height="751"
     id="namedview4"
     showgrid="false"
     fit-margin-top="0"
     fit-margin-left="0"
     fit-margin-right="0"
     fit-margin-bottom="0"
     inkscape:zoom="0.71223726"
     inkscape:cx="388.01706"
     inkscape:cy="354.84105"
     inkscape:window-x="0"
     inkscape:window-y="29"
     inkscape:window-maximized="1"
     inkscape:current-layer="svg2" />
  <path
     style="fill:#000000;fill-opacity:1;fill-rule:evenodd;stroke:none;stroke-width:1px;stroke-linecap:butt;stroke-linejoin:miter;stroke-opacity:1"
     d="M 187.76172 0 C 187.45264 0 187.1941 0.10577344 186.96094 0.30273438 C 186.89124 0.35704608 186.82628 0.41599904 186.76562 0.48242188 L 186.76562 0.484375 C 186.69803 0.5585053 186.6348 0.63575974 186.58008 0.72265625 C 186.47715 0.85061186 186.38409 0.9898517 186.30273 1.1386719 C 185.92799 1.6334357 185.41438 1.8897697 184.18555 2.1953125 C 181.5499 2.8506525 177.42659 3.53201 173.82617 3.90625 C 173.26364 3.964721 172.80927 4.0276445 172.29102 4.0878906 C 171.86542 4.1386856 171.43437 4.1855116 171.0332 4.2363281 C 170.57086 4.2955821 170.11974 4.3565988 169.69531 4.4179688 C 168.17492 4.6087879 166.8839 4.8445629 165.71094 5.15625 C 164.79506 5.3775172 163.97556 5.6093052 163.3457 5.8652344 C 163.2781 5.8927234 163.11616 5.9440554 163.03711 5.9746094 C 162.3275 6.2028113 161.59383 6.4596182 160.84961 6.7441406 C 159.91288 7.0504654 158.88838 7.3695694 157.97266 7.6328125 C 152.14147 9.3091225 150.55448 9.99514 148.79492 11.59375 C 147.91273 12.39526 147.16557 13.2525 147.13477 13.5 C 147.11747 13.638913 147.0915 13.70209 147.0625 13.726562 L 147.0293 13.738281 C 147.0001 13.724371 146.9679 13.679321 146.92773 13.580078 C 146.81215 13.294198 146.58302 13.309524 145.92383 13.650391 C 145.55632 13.840444 144.08026 14.484269 142.7168 15.074219 L 142.32031 15.246094 C 142.13023 15.328684 141.8033 15.477806 141.55078 15.589844 C 141.43914 15.637684 141.34884 15.680664 141.23828 15.728516 C 140.98995 15.833799 140.79302 15.917052 140.54102 16.027344 L 134.78711 18.058594 L 133.04688 19.363281 C 132.23889 19.735732 131.26607 20.244874 131.01172 20.464844 C 129.91929 21.050456 128.82387 21.665593 127.86523 22.25 C 127.85403 22.2566 127.84323 22.262971 127.83203 22.269531 C 127.82803 22.271831 127.82401 22.275044 127.82031 22.277344 C 127.29927 22.58298 126.77712 22.893723 126.23633 23.222656 C 125.88426 23.43518 125.54073 23.647492 125.19141 23.863281 C 124.64458 24.141114 124.01136 24.509126 123.72461 24.748047 C 123.67681 24.787907 123.53453 24.876191 123.44922 24.935547 C 122.88816 25.270064 122.32249 25.606338 121.76562 25.941406 C 121.51028 26.095051 121.13125 26.321103 120.79688 26.521484 C 120.37074 26.769664 119.94606 27.021192 119.52734 27.279297 C 119.20629 27.471009 118.87662 27.670641 118.61523 27.826172 C 118.4023 27.95287 118.16513 28.110464 117.93555 28.257812 C 117.8086 28.337492 117.67732 28.421182 117.56055 28.496094 C 117.51755 28.524664 117.47705 28.550908 117.43359 28.580078 C 116.75538 29.019272 116.20624 29.399633 115.72266 29.775391 C 115.10252 30.257252 114.53406 30.713666 113.96875 31.169922 C 113.74267 31.351069 113.5296 31.511311 113.30078 31.699219 C 111.46195 33.18756 109.64267 34.820899 107.79688 36.650391 C 106.34418 38.090247 105.6299 38.930986 104.83398 40.257812 C 104.80908 40.299363 104.78291 40.336332 104.75781 40.378906 C 104.69171 40.4906 104.62183 40.584117 104.55469 40.703125 C 104.52569 40.754715 104.49424 40.811989 104.46484 40.865234 C 104.11622 41.494805 103.73233 42.234653 103.25 43.199219 L 103.23633 43.226562 C 102.31222 45.055549 101.02644 47.547352 100.10742 49.261719 C 99.071844 51.193519 98.224609 52.869355 98.224609 52.984375 C 98.224609 52.988875 98.230069 52.986234 98.230469 52.990234 C 98.230427 52.990931 98.224609 53.001333 98.224609 53.001953 C 98.224609 53.006253 98.233375 53.000706 98.234375 53.003906 C 98.196255 53.089746 98.101178 53.27763 98.076172 53.339844 L 97.810547 54 L 89.857422 66.498047 L 88.453125 75.162109 C 88.369865 75.541257 88.288227 75.926015 88.207031 76.314453 C 88.152731 76.578629 88.092377 76.808073 88.039062 77.076172 C 88.038644 77.078272 88.037609 77.079831 88.037109 77.082031 C 87.91039 77.719409 87.80385 78.392882 87.683594 79.046875 C 87.669124 79.125575 87.654995 79.204328 87.640625 79.283203 C 86.995389 82.767127 86.44669 86.366382 86.113281 89.591797 L 85.646484 92.472656 L 85.822266 93.101562 C 85.817666 93.181432 85.808927 93.270755 85.804688 93.349609 C 85.804394 93.355009 85.803034 93.361758 85.802734 93.367188 L 85.802734 93.369141 C 85.802657 93.370541 85.802811 93.371647 85.802734 93.373047 C 85.756314 94.24282 85.744607 95.020652 85.748047 95.748047 C 85.749447 95.997335 85.750113 96.247311 85.757812 96.476562 C 85.763513 96.65025 85.767954 96.82247 85.777344 96.984375 C 85.797684 97.331154 85.825461 97.647771 85.863281 97.935547 C 85.869681 97.984947 85.869983 98.052167 85.876953 98.099609 C 86.058023 99.337109 86.285159 101.56578 86.380859 103.05078 C 86.383859 103.09538 86.389758 103.15573 86.392578 103.19922 C 86.395678 103.24742 86.404803 103.30272 86.408203 103.35156 C 86.445163 103.92343 86.501163 104.46663 86.568359 104.99219 C 86.585439 105.12992 86.603887 105.27593 86.623047 105.41406 C 86.720447 106.14522 86.82631 106.77833 86.935547 107.23828 C 86.986907 107.49418 87.053273 107.78406 87.113281 108.05273 C 87.291372 108.96107 87.424574 110.32591 87.423828 111.42969 C 87.422328 113.82129 87.446368 113.89677 89.410156 117.75977 C 90.166759 119.2481 90.595619 120.15347 90.90625 120.93555 C 91.030151 121.23532 91.129589 121.50235 91.216797 121.76172 C 91.253587 121.88436 91.294067 122.00924 91.324219 122.13086 C 91.384389 122.39204 91.432016 122.65503 91.474609 122.91992 C 91.475552 122.92692 91.475563 122.93421 91.476562 122.94141 C 91.508043 123.14484 91.532624 123.40334 91.558594 123.63477 C 91.629704 124.38005 91.675035 125.21089 91.685547 126.07031 C 91.685599 126.07631 91.685496 126.07934 91.685547 126.08594 C 91.696057 127.37671 91.651447 128.3627 91.523438 129.20703 C 91.510757 129.28913 91.504684 129.38145 91.490234 129.46094 C 91.477534 129.53194 91.455556 129.59316 91.441406 129.66211 C 91.103724 131.0141 90.489907 132.15839 89.525391 133.34961 L 88.554688 134.55078 L 88.660156 136.76562 C 88.668856 137.01556 88.669361 137.18163 88.681641 137.49219 C 88.704061 138.05956 88.740871 138.54489 88.783203 138.98438 C 89.00453 141.76891 89.593951 143.91405 91.353516 148.65039 C 92.342161 151.31161 93.111739 153.33805 93.888672 155.39258 L 87.871094 158.40234 C 87.924244 158.32444 87.985635 158.21933 88.035156 158.15234 C 88.732016 157.2098 88.598203 156.51947 87.632812 156.07227 C 87.294171 155.9154 87.038142 155.94864 86.628906 156.26562 C 86.498807 156.33392 86.359768 156.4304 86.212891 156.55664 C 86.012744 156.69082 85.815985 156.87725 85.632812 157.125 C 85.616052 157.1477 85.608067 157.165 85.591797 157.1875 C 85.511797 157.2809 85.441 157.35387 85.351562 157.4668 C 85.319693 157.507 85.287779 157.5602 85.255859 157.60156 C 85.181849 157.69166 85.128255 157.74204 85.048828 157.8418 C 85.002858 157.8995 84.954708 157.97607 84.908203 158.03711 C 84.126929 158.98293 83.39455 160.13865 82.714844 161.4082 L 81.070312 162.54688 C 80.959204 162.11228 80.603613 161.85468 80.076172 161.89258 C 79.980262 161.89958 79.891306 161.90606 79.783203 161.91406 C 79.706333 161.91206 79.625501 161.92309 79.542969 161.93359 C 79.515619 161.93559 79.493277 161.93745 79.466797 161.93945 C 79.436187 161.94145 79.40633 161.94131 79.375 161.94531 C 79.274281 161.95331 79.136561 161.96345 79.068359 161.96875 C 78.926593 161.97985 78.71123 162.11751 78.46875 162.31055 C 78.134187 162.52464 77.810682 162.82121 77.535156 163.17969 C 77.424925 163.30048 77.31413 163.41819 77.208984 163.55469 C 77.174084 163.59999 77.128764 163.67552 77.091797 163.72656 C 77.090697 163.72756 77.088991 163.72947 77.087891 163.73047 C 76.963808 163.88329 76.838422 164.05319 76.712891 164.22461 C 76.087529 165.02645 75.477747 165.90419 75.042969 166.7207 L 71.722656 169.01758 C 71.575344 169.04128 71.403624 169.06224 71.300781 169.08984 C 70.905271 169.19583 70.625 169.13544 70.625 168.94531 C 70.625 168.33823 72.508079 166.47426 73.568359 166.03125 C 74.574539 165.61083 74.598311 165.5686 74.050781 165.1543 C 73.448445 164.69851 72.777809 164.57623 72.078125 164.75586 C 71.505504 164.81166 71.07414 165.10433 70.166016 165.94141 C 70.137116 165.96801 70.105482 166.01056 70.076172 166.03906 C 69.986002 166.12906 69.896647 166.22954 69.806641 166.32812 C 69.668377 166.48129 69.528672 166.64446 69.384766 166.83008 C 68.956088 167.36611 68.533672 167.98958 68.123047 168.71289 C 67.364148 169.9709 66.675721 171.43528 66.123047 173.01172 C 65.95194 173.48104 65.794487 173.94579 65.667969 174.39062 C 65.245909 175.87464 65.107812 176.07618 64.726562 175.75977 C 64.547128 175.61083 64.422689 175.5399 64.314453 175.54883 C 64.260803 175.55283 64.207982 175.57885 64.158203 175.62305 C 64.127473 175.65055 64.09455 175.69925 64.0625 175.74219 L 64.060547 175.74414 L 64.058594 175.74609 L 64.058594 175.74805 C 64.039594 175.77385 64.022033 175.78716 64.001953 175.81836 C 63.977163 175.85686 63.954268 175.93354 63.929688 175.97852 L 63.927734 175.98047 C 63.766745 176.2539 63.599475 176.64841 63.390625 177.30078 C 63.314535 177.53846 63.252009 177.97729 63.193359 178.49219 C 63.186859 178.52649 63.180288 178.55899 63.173828 178.59375 C 63.167828 178.62595 63.160227 178.6549 63.154297 178.6875 C 63.133007 178.80676 63.108231 178.90922 63.087891 179.0332 C 63.080391 179.0779 63.071843 179.1109 63.064453 179.15625 C 62.976493 179.69674 62.894331 180.28805 62.822266 180.91992 C 62.747026 181.57962 62.663928 182.20599 62.587891 182.68359 C 62.511851 183.1612 62.444447 183.48975 62.404297 183.55469 C 62.324027 183.68459 61.968874 184.86105 61.615234 186.16992 C 60.252624 191.21313 60.621531 199.32385 62.363281 202.59961 C 62.582842 203.01256 62.827616 203.6942 63.035156 204.40625 C 63.126436 204.8404 63.192967 205.13252 63.277344 205.54297 L 63.550781 206.87695 C 63.686843 207.82778 63.592711 208.1554 63.269531 208.70898 L 63.121094 208.97852 L 63.117188 208.98633 C 62.920684 209.31397 62.632725 209.82442 62.257812 210.51367 C 61.985247 210.99189 61.680648 211.49876 61.365234 212.00195 C 60.948262 212.62051 60.520811 213.17054 60.029297 213.68945 C 60.013307 213.70635 60.000495 213.72539 59.984375 213.74219 C 59.979875 213.74719 59.975273 213.75116 59.970703 213.75586 L 59.96875 213.75781 C 59.92788 213.80041 59.877679 213.84241 59.835938 213.88477 C 59.570715 214.15404 59.295422 214.42053 58.984375 214.69531 C 58.922105 214.75031 58.869106 214.80619 58.808594 214.86133 C 58.574793 215.07342 58.354714 215.283 58.152344 215.48633 C 58.094134 215.54503 58.040026 215.60203 57.984375 215.66016 C 57.785382 215.86717 57.601024 216.07377 57.431641 216.27734 C 57.389971 216.32764 57.346391 216.37774 57.306641 216.42773 C 56.706361 217.17918 56.28716 217.93448 55.992188 218.80078 C 55.968067 218.86498 55.938556 218.92745 55.916016 218.99219 C 55.887056 219.07539 55.866234 219.16184 55.839844 219.24609 C 55.704038 219.67946 55.594539 220.12306 55.525391 220.58594 C 55.267758 221.63608 54.782301 222.41838 53.265625 224.21289 C 48.677485 229.64154 44.337623 236.9502 39.257812 247.80078 C 33.327934 260.46714 32.179598 262.8906 29.736328 267.90039 C 28.379618 270.68224 26.889244 273.51125 25.359375 276.25195 C 24.972072 276.93432 24.575042 277.62582 24.162109 278.33789 C 23.647298 279.20712 22.983878 280.3377 22.701172 280.80078 C 22.453836 281.20593 22.133256 281.76808 21.851562 282.24609 C 21.832082 282.27759 21.812439 282.31225 21.792969 282.34375 C 21.791269 282.34675 21.788909 282.35247 21.787109 282.35547 C 21.773759 282.37697 21.753744 282.41365 21.740234 282.43555 C 21.298453 283.15162 20.774622 284.03868 20.203125 285.04102 C 19.731069 285.86902 19.225977 286.7887 18.724609 287.70312 C 18.693669 287.75952 18.663763 287.81064 18.632812 287.86719 C 18.547542 288.02254 18.463579 288.169 18.378906 288.32422 C 18.369706 288.34112 18.360743 288.35615 18.351562 288.37305 C 18.350846 288.37405 18.350409 288.37595 18.349609 288.37695 C 18.298209 288.47155 18.252419 288.55966 18.201172 288.6543 C 18.098547 288.84385 18.007914 289.0218 17.90625 289.21094 C 17.430337 290.09425 16.95754 290.97199 16.535156 291.78906 C 16.022404 292.77365 15.513152 293.78834 15.130859 294.60156 C 15.130114 294.60356 15.129706 294.60542 15.128906 294.60742 C 15.091086 294.68782 15.026786 294.80948 14.986328 294.89453 C 14.485169 295.94011 13.788625 297.32256 13.060547 298.73438 C 13.019257 298.81448 12.982517 298.88538 12.941406 298.96484 C 12.872186 299.09862 12.806626 299.22024 12.738281 299.35156 C 12.6039 299.60534 12.438337 299.93565 12.320312 300.15234 C 11.921395 300.88475 11.338382 302.00015 10.666016 303.31445 C 10.559155 303.52318 10.450584 303.73759 10.339844 303.95508 C 9.1917438 306.19289 7.9452084 308.70062 6.8007812 311.05469 C 5.9181234 312.85467 5.0977648 314.54408 4.5351562 315.75195 C 4.2018216 316.46759 4.0433429 316.76224 3.78125 317.29688 C 3.6782269 317.47661 3.5733337 317.66853 3.4726562 317.82422 L 3.4726562 317.82617 C 3.1285662 318.35858 2.8001763 318.74581 2.5039062 318.96484 C 1.3782763 319.79707 0.43813625 321.27543 0.09765625 322.74609 C -0.15363956 323.83155 0.09693484 325.60881 0.6953125 327.50977 C 0.7302085 328.17717 0.81863771 328.71512 0.98046875 328.87695 C 1.0910587 328.98755 1.1645975 329.01344 1.21875 328.97852 C 1.359859 329.3322 1.5084358 329.68632 1.6699219 330.03516 C 1.8508367 330.42598 2.0439269 330.81011 2.2480469 331.18555 C 3.0152469 332.59663 4.6223225 335.57523 5.8203125 337.80273 C 8.3801075 342.56235 13.49965 351.05603 16.027344 354.80859 C 16.388443 355.34467 16.695196 355.78375 16.935547 356.10156 C 17.372297 356.67906 18.486836 358.16484 19.410156 359.40234 C 20.333476 360.63984 21.669339 362.3495 22.380859 363.20117 C 23.092379 364.05284 26.053857 367.69745 28.960938 371.30078 C 31.077186 373.92389 33.093012 376.33621 35.056641 378.61328 L 35.058594 378.61523 C 35.059517 378.61623 35.059547 378.61814 35.060547 378.61914 C 35.061747 378.62014 35.063253 378.62205 35.064453 378.62305 C 36.269468 380.03523 37.461333 381.41135 38.582031 382.65234 C 39.192302 383.32812 39.897819 384.08384 40.675781 384.89844 C 40.677181 384.89944 40.678287 384.90034 40.679688 384.90234 C 40.735147 384.96044 40.803189 385.02924 40.859375 385.08789 C 43.20378 387.58883 45.51124 389.91165 47.845703 392.125 C 48.211201 392.47153 48.604302 392.82565 48.982422 393.18164 C 48.986422 393.18564 48.990121 393.18966 48.994141 393.19336 C 49.000841 393.19936 49.006992 393.20649 49.013672 393.21289 C 49.025352 393.22409 49.037138 393.23489 49.048828 393.24609 C 50.043687 394.20189 51.041859 395.15095 52.021484 396.07031 C 52.035014 396.08301 52.04898 396.09667 52.0625 396.10938 C 53.038902 397.02537 53.999274 397.91302 54.916016 398.75 C 56.198385 399.92094 57.344744 400.9334 58.400391 401.84375 C 58.883 402.26041 59.38905 402.70542 59.808594 403.05273 L 60.533203 403.65234 L 60.525391 403.64062 L 60.539062 403.65234 L 60.433594 403.50586 L 60.427734 403.49805 L 60.068359 402.9668 L 60.056641 402.94922 C 60.044971 402.93202 59.953105 402.83196 59.935547 402.80859 L 59.935547 402.80664 L 59.933594 402.80469 L 59.894531 402.75195 C 59.861951 402.70645 59.620789 402.44566 59.554688 402.36523 C 59.251578 402.00465 58.912652 401.61013 58.306641 400.94141 C 58.302641 400.93741 58.302828 400.93664 58.298828 400.93164 C 58.297128 400.92964 58.294669 400.92778 58.292969 400.92578 C 57.906937 400.49995 57.477171 400.03973 56.994141 399.51758 C 56.680761 399.17955 56.431739 398.89977 56.103516 398.55078 C 55.986285 398.42613 55.917072 398.34491 55.802734 398.22266 C 54.194928 396.49643 52.860234 394.98966 52.677734 394.68164 C 52.708524 394.68864 52.765984 394.72024 52.921875 394.8457 L 52.923828 394.8457 C 54.250202 395.91286 59.574867 400.79754 59.884766 401.27148 C 59.999436 401.44686 61.335809 402.59319 62.855469 403.82031 C 64.375139 405.04743 66.171996 406.52831 66.847656 407.11133 C 68.173696 408.25552 70.266057 409.8244 73.273438 411.92578 C 74.317538 412.65535 75.479176 413.52156 75.853516 413.85156 L 76.509766 414.43164 C 76.496696 414.6462 76.48116 414.82968 76.46875 415.05273 C 75.9848 423.75639 75.835403 427.80099 75.945312 429.15234 C 75.946812 429.17064 75.945902 429.2015 75.947266 429.2207 C 75.947944 429.2386 75.948419 429.27206 75.949219 429.28906 C 75.950919 429.32936 75.949065 429.41582 75.951172 429.45117 C 75.961992 429.63703 75.958371 429.79501 75.962891 429.9668 C 75.954191 430.57339 75.888051 431.30266 75.814453 432.02539 C 75.814319 432.02639 75.814587 432.0283 75.814453 432.0293 C 75.728913 432.48489 75.618541 432.94708 75.449219 433.4668 C 74.859924 435.27561 74.699714 436.84415 74.964844 438.24023 C 75.002714 438.43967 75.048304 438.6356 75.103516 438.82812 C 75.189556 439.12813 75.234375 439.37277 75.234375 439.54102 C 75.234375 439.62512 75.222682 439.69004 75.201172 439.73438 C 75.179952 439.77808 75.145676 439.80203 75.103516 439.80273 C 75.088216 439.80273 75.075197 439.81531 75.060547 439.82031 C 75.042877 439.82631 75.024212 439.8293 75.007812 439.8418 C 74.875388 439.8599 74.834063 440.01572 74.830078 440.32812 C 74.829901 440.34172 74.826172 440.34713 74.826172 440.36133 C 74.826172 440.36233 74.828025 440.36423 74.828125 440.36523 C 74.828102 440.37223 74.826172 440.37426 74.826172 440.38086 L 74.826172 440.38281 L 74.826172 440.38672 C 74.826172 440.40012 74.838474 440.41784 74.839844 440.43164 C 74.840024 440.43364 74.841497 440.4355 74.841797 440.4375 C 74.84192 440.4385 74.841665 440.44041 74.841797 440.44141 C 74.842079 440.44341 74.84335 440.44622 74.84375 440.44922 C 74.85345 440.50432 74.866398 440.56075 74.898438 440.62695 C 74.927337 440.69145 74.970348 440.75949 75.019531 440.83008 L 75.019531 440.83203 C 75.040951 440.86363 75.067477 440.89523 75.091797 440.92773 C 75.092797 440.92873 75.094703 440.93064 75.095703 440.93164 C 75.163633 441.01684 75.241979 441.1043 75.333984 441.19531 C 75.714095 441.61213 76.209102 442.0205 76.576172 442.15234 C 77.073065 442.46711 77.637825 442.7745 78.246094 443.04688 C 78.250094 443.04888 78.253793 443.05073 78.257812 443.05273 C 78.522347 443.1709 78.794007 443.28261 79.068359 443.38477 C 81.237798 444.19266 84.519068 445.15816 88.117188 446.08984 C 91.848455 447.16175 95.789931 448.0197 101 448.93164 C 101.61875 449.03994 102.125 449.19529 102.125 449.27539 C 102.125 449.35539 101.64581 449.84181 101.05859 450.35742 C 100.8522 450.53863 100.66084 450.72275 100.48438 450.91016 C 100.30831 451.09722 100.14468 451.28758 99.996094 451.48633 L 99.996094 451.48828 C 99.698335 451.88656 99.453302 452.31266 99.251953 452.79102 C 99.151279 453.0302 99.062485 453.28133 98.982422 453.54883 L 98.982422 453.55078 C 98.902572 453.81776 98.831176 454.0997 98.769531 454.40039 L 98.769531 454.40234 C 98.645975 455.00502 98.55657 455.67994 98.492188 456.45117 C 98.368218 457.93617 98.128164 460.02906 97.958984 461.10156 C 97.780864 462.23075 97.614871 463.33858 97.457031 464.44141 C 97.456851 464.44241 97.457212 464.44431 97.457031 464.44531 C 97.299396 465.54685 97.149773 466.64335 97.009766 467.74609 C 97.009603 467.74709 97.009928 467.749 97.009766 467.75 C 96.972066 468.04697 96.938886 468.35206 96.902344 468.65039 C 96.71772 470.15762 96.547589 471.6986 96.388672 473.28125 C 96.345302 473.71321 96.297632 474.12942 96.255859 474.57031 C 96.255609 474.57331 96.25611 474.57513 96.255859 474.57812 C 96.069621 476.54433 95.905827 478.69392 95.744141 480.91406 C 95.737341 481.00156 95.727443 481.08217 95.720703 481.16992 C 95.708783 481.32482 95.697337 481.47914 95.685547 481.63477 C 95.670437 481.84837 95.651679 482.01776 95.636719 482.23438 C 95.636525 482.23737 95.636912 482.23919 95.636719 482.24219 C 95.618269 482.50947 95.602224 482.85491 95.583984 483.12695 C 95.493264 484.38781 95.400374 485.64817 95.318359 486.95508 C 95.316259 486.98848 95.3146 487.01923 95.3125 487.05273 C 95.106012 490.35507 94.93542 493.83335 94.785156 497.41992 C 94.745796 498.34939 94.701856 499.25484 94.666016 500.20508 C 94.662916 500.28898 94.65935 500.37689 94.65625 500.46094 C 94.57846 502.54561 94.506214 504.66723 94.445312 506.85156 C 94.305532 511.86501 94.431522 520.6664 94.691406 529.54102 C 94.84411 535.61876 94.947804 541.71767 94.908203 543.90039 C 94.861903 546.45789 94.828938 552.69381 94.835938 557.75781 L 94.839844 560.49805 C 94.822394 561.48512 94.798322 562.61325 94.794922 563.31445 C 94.794662 563.34925 94.795137 563.37986 94.794922 563.41406 C 94.785322 564.41513 94.801423 565.16441 94.845703 565.74609 L 94.847656 566.96484 L 95.65625 568.3457 C 95.979326 568.89699 96.414733 569.42983 96.914062 569.91406 C 96.932992 569.93246 96.951583 569.95436 96.970703 569.97266 C 97.035563 570.03436 97.106893 570.09044 97.173828 570.15039 C 97.287478 570.25243 97.398745 570.35691 97.517578 570.45312 C 97.519378 570.45412 97.521538 570.45698 97.523438 570.45898 C 97.900981 570.76415 98.300853 571.03755 98.712891 571.26953 C 98.714191 571.27024 98.715597 571.27048 98.716797 571.27148 C 98.922564 571.38718 99.132464 571.49256 99.341797 571.58594 L 99.34375 571.58789 C 99.42368 571.62359 99.503928 571.64759 99.583984 571.67969 C 99.714358 571.73189 99.8444 571.78966 99.974609 571.83203 C 100.58034 572.02914 101.50056 572.54249 102.01953 572.97266 C 105.13817 575.55755 109.885 579.0791 111.62305 580.09766 C 114.95041 582.04763 120.80963 583.61016 126.21094 583.98828 C 127.82524 584.10129 129.20268 584.28518 129.27148 584.39648 C 129.34028 584.50781 129.42143 587.42428 129.45312 590.87695 C 129.45712 591.26145 129.47417 591.62995 129.48047 592.02148 C 129.50717 593.74132 129.54897 595.29164 129.60742 596.68164 C 129.64112 597.45001 129.67632 598.0938 129.71484 598.63281 C 129.72974 598.83273 129.74281 599.26358 129.75781 599.40234 L 129.75781 599.4043 C 129.89162 600.6418 130.07271 603.20602 130.16211 605.10352 C 130.16911 605.25606 130.1796 605.37951 130.1875 605.53125 C 130.2106 606.14898 130.23307 606.45702 130.25977 607.2793 C 130.28817 608.15532 130.37466 608.88594 130.4707 609.16602 C 130.4747 609.19272 130.48213 609.29438 130.48633 609.31445 L 130.48633 609.31641 C 130.52243 609.4887 130.54134 609.6261 130.52734 609.74219 L 130.52734 609.74414 C 130.52034 609.80244 130.50422 609.85454 130.47852 609.9043 C 130.34974 610.15313 129.96208 610.31895 129.06055 610.63672 C 128.29985 610.90486 127.48135 611.2439 126.65625 611.61523 C 124.81989 612.37705 123.18341 613.26581 121.76758 614.26562 C 121.47807 614.46126 121.21042 614.65393 120.97852 614.83594 C 120.57519 615.1525 120.15698 615.52119 119.75977 615.89844 C 119.36295 616.27538 118.98697 616.66059 118.66992 617.01562 L 118.66992 617.01758 C 118.03526 617.72827 117.63427 618.31201 117.76172 618.43945 C 117.82742 618.50515 118.68916 617.95181 119.67773 617.20898 C 119.77483 617.13598 119.88709 617.07013 119.98633 616.99805 L 116.97852 623.00977 C 116.27903 623.75117 115.57677 624.5748 114.87695 625.45508 L 114.875 625.45703 C 114.29999 626.12304 113.63744 627.00683 112.89648 628.11523 L 112.89453 628.11719 C 111.66059 629.91024 110.5045 631.83555 109.52539 633.75977 C 108.47274 635.82849 106.79244 639.42247 105.28711 642.75391 C 105.27911 642.77201 105.26992 642.78864 105.26172 642.80664 C 105.24432 642.84494 105.22628 642.88364 105.20898 642.92188 C 105.10948 643.13603 105.01233 643.34995 104.91406 643.56445 C 104.77128 643.88146 104.64174 644.17074 104.50391 644.48047 C 103.90888 645.80583 103.33032 647.13238 102.79102 648.45312 C 102.18465 649.93813 101.51622 651.2626 101.30664 651.39453 C 100.70823 651.77127 100.83494 652.26083 102.25977 655.09766 C 102.44455 655.46556 102.65739 655.84496 102.88281 656.22656 C 102.90521 656.26416 102.92827 656.30196 102.95117 656.33984 C 103.12627 656.63219 103.32439 656.92996 103.52148 657.22852 C 103.70953 657.51148 103.91118 657.79814 104.11914 658.08789 C 104.43327 658.52724 104.7669 658.96802 105.12109 659.41406 C 105.34118 659.69163 105.55865 659.96839 105.79297 660.24805 C 106.00603 660.50123 106.22715 660.75244 106.45117 661.00586 C 106.82517 661.43179 107.21248 661.85585 107.61328 662.2793 C 107.68018 662.3493 107.74103 662.42035 107.80859 662.49023 C 108.74116 663.46367 109.73188 664.42112 110.76562 665.33203 C 112.35447 666.7321 113.90301 667.91974 115.4668 668.96094 C 115.63617 669.07728 115.80064 669.20688 115.9707 669.32031 C 116.74181 669.8346 117.57831 670.41123 118.30469 670.92578 C 118.30569 670.92656 118.30759 670.92673 118.30859 670.92773 C 119.03301 671.44095 119.64821 671.89236 119.97852 672.1582 C 119.98152 672.1602 119.98929 672.16722 119.99219 672.16992 C 120.54672 672.6163 121.10781 672.9166 121.71484 673.11719 C 121.71584 673.11765 121.71775 673.11814 121.71875 673.11914 C 121.79075 673.14434 121.86199 673.17176 121.93359 673.19336 C 121.97049 673.20376 122.00959 673.2111 122.04688 673.2207 C 122.05088 673.22169 122.05489 673.22361 122.05859 673.22461 C 122.21694 673.26781 122.37638 673.31231 122.5293 673.33594 C 123.26982 673.45039 125.15711 673.83477 126.72461 674.19141 C 127.29302 674.32076 127.78423 674.41757 128.28125 674.5 C 129.07013 674.64643 129.8246 674.76634 130.32617 674.81055 C 131.23367 674.89045 132.7535 675.31477 133.70508 675.75391 C 136.06091 676.84111 140.24968 677.12125 142.98633 676.375 C 145.32837 675.73633 149.62002 673.94183 151.03711 673.00781 C 151.232 672.87936 151.45315 672.766 151.69141 672.66406 C 152.04598 672.54057 152.66571 672.3856 153.30469 672.22656 C 153.53972 672.18886 153.7782 672.15281 154.03711 672.12891 C 155.10319 672.03061 157.19078 671.53627 158.67578 671.03125 C 159.01989 670.91423 159.32626 670.82817 159.64062 670.73438 C 159.89796 670.66578 160.2762 670.57622 160.46875 670.51953 C 160.6386 670.46953 160.79213 670.43722 160.96289 670.39062 C 162.0521 670.15161 163.15857 670.01118 164.68359 669.92383 C 167.38761 669.76897 168.19372 669.61016 169.0957 669.05273 C 170.06319 668.45478 170.86477 667.68731 171.63477 666.48828 C 171.63977 666.48028 171.64549 666.47059 171.65039 666.46289 C 171.90128 666.07018 172.1491 665.63363 172.39844 665.13867 C 172.99105 663.96608 173.59798 662.43425 174.25977 660.53125 C 174.7351 659.17122 175.23707 657.64764 175.80664 655.80469 C 177.42631 650.56399 177.72461 649.4396 177.72461 648.61133 C 177.72461 648.32458 177.83067 647.87058 178.02148 647.23242 C 178.10748 646.97287 178.26324 646.46535 178.3457 646.22461 C 178.3602 646.18281 178.38529 646.11561 178.40039 646.07227 C 178.80652 644.90963 179.39283 643.33154 180.41797 640.6543 C 181.11825 638.82547 181.52932 637.68676 181.8418 636.71875 C 181.9328 636.45157 182.10319 635.98509 182.14062 635.85352 C 182.16522 635.76692 182.18518 635.61847 182.20898 635.51758 C 182.33356 635.02129 182.42477 634.55368 182.49023 634.05859 C 182.62624 633.28411 182.7369 632.44272 182.86328 631.35352 C 182.93418 630.74243 182.99368 630.1401 183.04492 629.55078 C 183.27649 628.3096 183.58487 626.95643 183.94922 625.6543 C 185.12657 621.44659 185.47827 618.24914 184.93164 616.7168 C 184.74276 616.18727 184.12996 613.94198 183.56836 611.72852 C 183.55806 611.68812 183.5437 611.64602 183.5332 611.60547 C 182.91725 608.88018 181.69387 605.50298 180.4707 603.57422 C 180.4559 603.55092 180.44614 603.54008 180.43164 603.51758 C 180.23981 603.18911 180.05843 602.91783 179.89648 602.72461 C 179.75592 602.54645 179.63026 602.42651 179.52539 602.375 C 179.43819 602.3322 179.34447 602.2969 179.25391 602.25391 C 179.00236 602.12938 178.71925 601.99102 178.47461 601.84766 C 178.43451 601.82416 178.3528 601.79183 178.30469 601.76562 C 177.54974 601.21087 177.20205 600.24241 175.83789 596.55469 C 175.1383 594.66349 174.68405 593.26768 174.35156 591.86328 C 174.23543 591.32195 174.11683 590.66814 174 589.92578 C 173.79798 588.0812 173.60874 586.50642 173.41406 585.03125 C 173.29455 583.86065 173.17646 582.89204 173.0918 582.44141 C 173.0374 581.79608 173.1087 581.51165 173.30273 581.3125 C 173.49486 581.17033 173.78298 581.02002 174.24414 580.82031 L 174.24609 580.82031 C 175.20799 580.44964 176.96735 579.88733 179.25391 579.21094 C 182.77504 578.25024 183.13667 578.07892 184.74414 576.61719 C 185.84862 575.67187 186.85242 575.1011 187.75977 574.91406 C 187.80027 574.90606 187.84267 574.88901 187.88281 574.88281 C 187.94091 574.87281 187.99537 574.87779 188.05273 574.87109 L 188.05469 574.87109 C 188.06469 574.87009 188.07408 574.87025 188.08398 574.86914 C 188.99002 574.78384 189.81832 575.06662 190.52539 575.75195 C 191.29873 576.5015 191.77269 576.70556 192.78906 576.72656 L 194.07617 576.75391 L 194.24219 564.45312 C 194.40095 552.67755 194.44156 551.98084 195.21094 548.10352 C 195.65293 545.87602 196.28367 542.56891 196.61328 540.75391 C 196.94292 538.93891 197.55015 535.6318 197.96094 533.4043 C 198.37176 531.1768 199.0324 527.53219 199.42969 525.30469 C 199.99072 522.15931 200.6682 519.84594 202.46289 514.95312 C 203.73387 511.48813 205.0447 507.77562 205.37695 506.70312 C 205.70923 505.63063 206.51869 503.37094 207.17578 501.67969 C 208.31281 498.75313 208.41315 498.60352 209.24805 498.60352 C 210.12355 498.60352 210.12591 498.60652 210.12891 500.47852 C 210.13091 501.50977 210.31903 502.97342 210.54883 503.73047 C 210.95869 505.08083 211.2691 505.90081 213.88477 512.55469 C 220.06072 528.2656 221.63131 533.40358 223.30078 543.36133 C 224.94505 553.16878 225.125 554.58837 225.125 557.73828 C 225.125 561.71069 225.61011 563.79517 227.38867 565.41016 L 227.38867 565.41211 C 227.55036 565.55893 227.72255 565.70171 227.90625 565.8418 C 228.64103 566.40217 229.55578 566.91726 230.69141 567.45508 C 232.21547 568.17682 233.51879 568.93534 233.58789 569.14258 C 233.68639 569.43814 234.40566 569.40069 236.92578 568.96875 L 236.92773 568.96875 C 237.67552 568.84057 238.25764 568.74533 238.73828 568.67969 C 239.21892 568.61409 239.59807 568.57912 239.9375 568.57422 C 240.61536 568.56422 241.13905 568.67445 242.00781 568.89648 C 242.26467 568.96218 242.63409 569.03356 243.08203 569.10742 C 243.29835 569.14312 243.57915 569.17882 243.82812 569.21484 C 243.83513 569.21579 243.84106 569.21775 243.84766 569.21875 C 243.89806 569.22575 243.94656 569.23293 243.99805 569.24023 C 244.21079 569.27023 244.39213 569.30068 244.62109 569.33008 C 244.62209 569.33026 244.62495 569.3299 244.62695 569.33008 C 244.65185 569.33308 244.68203 569.33489 244.70703 569.33789 C 244.72963 569.34089 244.7565 569.3427 244.7793 569.3457 C 244.8379 569.3527 244.90544 569.35793 244.96484 569.36523 C 246.02757 569.49623 247.19418 569.62255 248.29883 569.70508 C 248.59337 569.72708 248.92839 569.76552 249.24219 569.79492 C 249.6038 569.82922 249.93761 569.85443 250.32812 569.89844 C 251.14264 569.99114 251.99828 570.10629 252.85352 570.22852 C 254.24451 570.43394 255.59971 570.67077 256.69922 570.91406 C 258.48693 571.3096 260.0269 571.59128 260.86133 571.70312 C 261.18814 571.76543 261.53012 571.84069 261.85156 571.90039 L 261.85156 574.20898 C 261.83356 574.29468 261.81718 574.43905 261.80078 574.55273 C 261.72318 574.86399 261.66387 575.22733 261.62695 575.64258 C 261.60095 575.93458 261.57172 576.40332 261.54492 576.73242 C 261.41544 577.82296 261.11181 579.12577 260.82031 579.76562 C 260.34898 580.8003 260.1906 582.1492 259.9707 586.99609 C 259.82203 590.27308 259.72963 594.20227 259.76562 595.72852 C 259.82592 598.28569 259.80832 598.70631 258.75 598.33789 C 258.58964 598.26779 258.41061 598.20205 258.22266 598.13672 C 258.15266 598.10782 258.09775 598.08649 258.02148 598.05469 C 257.20547 597.71373 256.33728 597.57019 255.48438 597.60547 C 255.46068 597.60516 255.43346 597.60156 255.41016 597.60156 C 255.38456 597.60158 255.35773 597.60838 255.33203 597.60938 C 255.31583 597.61037 255.2994 597.60838 255.2832 597.60938 C 255.2345 597.60862 255.2052 597.60352 255.15234 597.60352 C 254.59536 597.60352 254.22271 597.68712 253.84375 597.91211 C 253.44363 598.0504 253.0575 598.22858 252.69727 598.45703 C 252.61417 598.50973 252.53874 598.57387 252.45703 598.62891 C 250.51351 599.87245 248.76943 602.04347 248.33789 604.00586 C 248.32709 604.05366 248.31584 604.10106 248.30664 604.14844 C 248.25934 604.40007 248.22461 604.64952 248.22461 604.89062 C 248.22461 606.21389 249.85519 615.55681 250.48633 617.85352 C 250.75837 618.84352 251.17565 620.46313 251.41406 621.45312 C 251.42666 621.50532 251.43817 621.55173 251.45117 621.60547 C 251.45717 621.62837 251.47292 621.73631 251.47852 621.75391 C 251.55052 621.98409 251.62357 622.29283 251.69727 622.58789 C 251.74367 622.77458 251.77987 622.91183 251.82422 623.08789 C 251.82522 623.09289 251.82494 623.09686 251.82617 623.10156 C 252.08542 624.25243 252.322 625.6561 252.47852 626.94727 C 252.59477 628.34546 253.13431 631.5007 253.61523 633.45312 C 253.77777 634.11312 253.91397 635.27065 253.91797 636.02344 C 253.92697 637.67899 255.22837 641.63854 256.77148 644.70312 C 257.14294 645.44082 258.29573 647.38308 259.64844 649.61914 C 259.7569 649.87809 259.87375 650.11673 259.96875 650.23047 C 260.04445 650.32117 261.04012 651.933 261.66211 652.92188 C 264.19027 657.02148 266.96046 661.40102 268.26172 663.2793 C 270.64864 666.72471 272.29415 668.6967 273.29688 669.31641 C 273.51603 669.45186 273.85881 669.7569 274.23633 670.12305 L 274.24023 670.12695 C 274.97719 670.90037 275.81251 671.82017 276.45312 672.60352 C 276.50432 672.66612 276.54182 672.70515 276.5918 672.76562 C 276.91535 673.15271 277.22753 673.52313 277.49805 673.82422 C 277.57295 673.90732 277.63797 673.97054 277.70898 674.04688 C 278.06233 674.42958 278.36531 674.73101 278.61719 674.94922 C 278.7671 675.08618 278.90386 675.19951 279.01367 675.27539 C 279.06997 675.31199 279.12396 675.34614 279.17188 675.36914 C 279.21587 675.39114 279.26268 675.41658 279.29883 675.42578 C 279.34723 675.43858 279.38363 675.43083 279.41992 675.42383 C 279.43652 675.41983 279.46256 675.43087 279.47656 675.42188 C 279.61921 675.33377 280.23966 675.65594 280.85547 676.13867 C 280.86247 676.14367 280.86655 676.14764 280.87305 676.15234 C 281.17129 676.38557 281.48084 676.61262 281.79688 676.83203 C 282.27384 677.1633 282.77002 677.47088 283.27344 677.76367 C 283.44915 677.86595 283.62356 677.97353 283.80078 678.07031 C 283.80278 678.07127 283.80464 678.07126 283.80664 678.07227 C 283.89244 678.11907 283.97841 678.15957 284.06445 678.20508 C 284.09115 678.21918 284.11783 678.23209 284.14453 678.24609 C 284.15253 678.25009 284.16027 678.25411 284.16797 678.25781 C 284.57963 678.47236 284.99043 678.66919 285.40039 678.84961 C 285.89315 679.0666 286.3814 679.26604 286.85547 679.42578 C 287.04563 679.48988 287.22697 679.53783 287.41211 679.5918 C 287.5471 679.6311 287.68651 679.6792 287.81836 679.71289 L 287.82031 679.71289 C 288.13214 679.79249 288.43446 679.85621 288.72461 679.90234 C 289.13711 679.96794 289.5425 680.03879 289.625 680.05859 C 289.6672 680.06879 289.75557 680.04495 289.86133 680.00195 C 289.86533 680.00095 289.86935 679.99809 289.87305 679.99609 C 289.97165 679.95509 290.08363 679.9003 290.19141 679.83203 C 290.19441 679.83003 290.19427 679.82817 290.19727 679.82617 C 290.20427 679.82217 290.2102 679.82041 290.2168 679.81641 C 290.304 679.76131 290.36564 679.71055 290.39648 679.66406 C 290.48848 679.52378 290.31178 679.40671 289.79688 679.21094 C 289.68192 679.16724 289.55569 679.10655 289.4375 679.05859 C 289.3478 679.01649 289.28481 678.9821 289.17969 678.93555 C 288.84473 678.78738 288.77986 678.7741 288.51953 678.66602 C 288.51253 678.66302 288.507 678.6612 288.5 678.6582 C 288.18049 678.5105 287.85532 678.34873 287.53125 678.18359 C 286.97696 677.90183 286.42271 677.59456 285.88086 677.2832 C 283.88595 676.11678 282.25421 674.8845 282.34961 674.44727 C 282.35261 674.43127 282.3437 674.42165 282.3457 674.40625 C 282.61352 674.28398 283.51751 674.62274 284.35352 675.28711 C 284.57452 675.47026 284.79618 675.64842 285.03711 675.78711 C 285.12911 675.84571 285.21615 675.88611 285.31055 675.9375 C 285.31855 675.9415 285.32764 675.94552 285.33594 675.94922 C 285.50976 676.04242 285.68599 676.14067 285.85156 676.19531 C 286.21122 676.314 286.90598 676.45712 287.62305 676.58594 C 287.82053 676.62334 288.01755 676.65983 288.22461 676.68945 C 288.34644 676.70825 288.47345 676.73615 288.58984 676.75195 C 289.97512 676.93998 291.35119 676.94007 292.90039 676.76953 C 294.38444 676.62733 295.95684 676.3466 297.48047 675.94727 C 298.64221 675.66934 299.69225 675.45396 300.19141 675.40625 C 300.19641 675.40582 300.19813 675.40666 300.20312 675.40625 C 300.47598 675.41125 300.53932 675.49365 300.375 675.65039 C 300.16035 675.82761 299.76342 676.0677 299.22656 676.32422 C 298.55018 676.64759 298.15336 676.88269 298.16602 676.9375 C 298.17202 676.9552 298.22502 676.95148 298.32812 676.92578 C 298.57567 676.86408 298.9128 676.74231 299.3457 676.55859 C 300.72433 675.99098 302.90164 674.88902 305.15625 673.65039 C 305.19125 673.63149 305.22086 673.6146 305.25586 673.5957 C 305.46416 673.481 305.66658 673.36636 305.875 673.25 C 306.07908 673.14135 306.2129 673.07369 306.42773 672.95898 C 307.11369 672.5927 307.82135 672.17913 308.52734 671.75195 C 310.09108 670.84374 311.43628 670.02085 311.99805 669.55664 C 312.04685 669.51634 312.09574 669.46843 312.14453 669.42578 C 312.17583 669.40098 312.23714 669.36139 312.26562 669.33789 C 312.33243 669.28279 312.37362 669.23929 312.4375 669.18555 C 312.5252 669.11865 312.66065 669.03021 312.73633 668.96875 C 312.92315 668.81705 313.07438 668.68473 313.25 668.53906 C 313.98128 667.96944 314.56431 667.46048 314.95898 667.04688 C 315.56419 666.48559 316.08698 665.95602 316.51562 665.45508 C 316.56912 665.40388 316.60423 665.38018 316.66016 665.32422 C 316.78721 665.19717 316.90993 665.05931 317.02734 664.91211 C 317.05104 664.90711 317.06605 664.91725 317.09375 664.90625 C 317.12335 664.89495 317.16436 664.84065 317.20312 664.79688 C 317.41999 664.77448 317.64879 664.31034 317.88086 663.51562 C 318.24459 662.66562 318.56748 661.70997 318.5 661.45703 C 318.496 661.44273 318.52064 661.27594 318.52344 661.22461 C 318.54484 661.08048 318.576 660.94437 318.5918 660.79492 L 318.5918 660.79297 C 318.6591 660.15496 318.84521 658.87285 319.00586 657.94336 C 319.28064 656.35351 319.47738 653.51492 319.60938 650.26562 C 319.61638 650.15838 319.62561 650.06109 319.63281 649.95312 C 319.7855 647.68809 319.8298 644.21997 319.79492 640.75781 C 319.79892 635.3344 319.60613 630.4908 319.16797 628.95312 C 318.93289 628.12812 318.60279 625.95732 318.43359 624.12891 C 318.42069 623.98991 318.40393 623.87297 318.39062 623.73633 C 318.38862 623.72163 318.38677 623.70806 318.38477 623.69336 C 318.38391 623.68436 318.38381 623.67677 318.38281 623.66797 C 318.34761 623.33337 318.31751 623.0239 318.27734 622.68555 C 318.23874 622.33112 318.20294 621.94648 318.16211 621.61328 L 318.16211 621.61133 C 318.06631 620.82983 317.96604 620.10946 317.86133 619.46484 L 317.86133 619.46289 C 317.72411 618.61841 317.58088 617.96583 317.4375 617.41211 L 317.4375 617.41016 C 317.3643 617.09936 317.29385 616.83075 317.23047 616.66406 C 317.22647 616.65396 317.22245 616.64857 317.21875 616.63867 C 317.21675 616.63267 317.21394 616.61958 317.21094 616.61328 C 317.19804 616.57928 317.17731 616.55308 317.16211 616.52148 C 316.99707 616.15547 316.80264 615.97978 316.51172 615.95508 C 316.21691 615.87238 315.89906 615.92757 315.66406 616.15234 C 315.59716 616.21634 315.53693 616.29435 315.48633 616.38477 C 315.33455 616.65598 315.01629 616.68508 314.62109 616.54688 C 314.51789 616.49828 314.42479 616.45698 314.28516 616.38477 C 314.25866 616.37107 314.23013 616.36116 314.20312 616.34766 C 313.51466 615.95412 312.69205 615.17803 312.02148 614.17773 C 311.41441 613.27216 311.17641 612.81149 311.31055 612.69141 C 311.5433 612.70371 311.87371 612.79998 312.28906 612.99805 C 312.73943 613.21281 313.00575 613.3265 313.19922 613.39258 L 313.20117 613.39258 L 313.20312 613.39258 L 313.20508 613.39258 C 313.39148 613.45548 313.50384 613.46937 313.49805 613.38477 C 313.50605 613.38277 313.53536 613.39267 313.53906 613.38867 C 313.64342 613.28431 313.43386 613.00348 313.07812 612.66211 C 312.84165 612.36566 312.47214 612.06033 312.04883 611.75586 C 311.22906 611.09321 310.23919 610.57965 309.0293 610.19727 C 309.009 610.19027 308.9911 610.18113 308.9707 610.17383 C 308.9047 610.15013 308.83307 610.13743 308.76758 610.11523 C 308.60556 610.06783 308.44943 610.01564 308.2793 609.97266 C 308.05113 609.90876 307.79304 609.84392 307.53125 609.79297 C 306.47954 609.54369 305.36385 609.41372 303.9043 609.37109 C 303.8983 609.37074 303.89272 609.37144 303.88672 609.37109 C 303.04677 609.32189 302.16503 609.2873 301.1875 609.2832 C 300.76109 609.2812 300.31278 609.25269 299.86523 609.24219 C 298.01704 609.16509 296.29678 609.07381 295.04688 608.97852 C 295.04388 608.97816 295.04011 608.97889 295.03711 608.97852 C 294.83182 608.95522 294.57974 608.9326 294.42578 608.9082 L 292.51953 608.60742 L 292.51758 608.60742 L 292.21289 608.51758 L 292.26172 606.90234 C 292.30912 605.33484 292.47251 602.83656 292.625 601.35156 C 292.6919 600.69981 292.76742 599.62746 292.8418 598.65234 C 292.99607 596.65308 293.15679 594.28075 293.29883 591.66992 L 293.29883 591.66797 C 293.29901 591.66497 293.29864 591.6622 293.29883 591.6582 C 293.40273 589.75124 293.49468 587.85555 293.56055 586.20312 L 293.56055 586.20117 C 293.56068 586.19817 293.56042 586.19636 293.56055 586.19336 C 293.61325 584.87008 293.63308 583.88991 293.64648 583.00195 C 293.64948 582.77975 293.66757 582.38848 293.66797 582.20312 L 293.66797 582.20117 C 293.66897 581.50512 293.66594 580.95142 293.65234 580.50586 L 293.65234 580.50391 C 293.63884 580.05891 293.61603 579.72281 293.57812 579.46289 L 293.57812 579.46094 C 293.57013 579.40424 293.55267 579.38373 293.54297 579.33398 C 293.48577 579.04229 293.40971 578.83231 293.29102 578.69922 L 293.29102 578.69727 C 293.24462 578.64527 293.19262 578.60096 293.13477 578.55859 C 292.73799 578.26852 292.54726 577.59087 292.41406 576.00195 L 292.23242 573.83984 L 294.75391 574.01562 C 296.22787 574.1182 297.74592 574.20272 299.20312 574.26758 L 299.20508 574.26758 C 303.57585 574.46209 307.39592 574.47846 307.80664 574.26172 C 308.11957 574.09672 309.3875 573.83261 310.625 573.67383 C 312.95001 573.37554 314.94504 572.43229 317.58398 570.32812 L 317.58594 570.32812 C 317.96267 570.02769 318.35196 569.70283 318.75781 569.35352 C 319.004 569.14163 319.23822 568.92848 319.46094 568.7168 C 319.68366 568.50513 319.89538 568.29347 320.0957 568.07812 C 320.49635 567.64744 320.85431 567.2049 321.17188 566.73633 C 321.33033 566.50249 321.47975 566.26272 321.61914 566.01367 L 321.61914 566.01172 C 321.75877 565.76214 321.88821 565.50506 322.00977 565.23633 C 322.25287 564.69885 322.46139 564.11784 322.63867 563.48047 C 322.72727 563.16178 322.80705 562.82994 322.88086 562.48047 C 322.95466 562.13099 323.02198 561.76499 323.08203 561.38086 C 323.20213 560.61258 323.29563 559.77197 323.36719 558.8418 L 323.36719 558.83984 C 323.43869 557.91026 323.48788 556.89175 323.51953 555.76953 L 323.51953 555.76758 C 323.55113 554.64512 323.56601 553.41839 323.56641 552.07227 L 323.56641 552.07031 C 323.56674 550.27662 323.56237 548.88337 323.54297 547.70312 C 323.52327 546.52288 323.48767 545.55579 323.42188 544.61719 C 323.35618 543.67922 323.26076 542.76898 323.12305 541.70117 L 323.12305 541.69922 C 322.98518 540.63048 322.80438 539.40465 322.56836 537.83398 C 322.18918 535.31072 322.04642 534.32389 322.12695 533.66797 C 322.14305 533.53678 322.16923 533.41911 322.20312 533.30469 C 322.27083 533.07587 322.37236 532.86158 322.50977 532.58398 C 322.80303 531.99153 322.96143 531.34352 323.00391 530.52734 C 323.01801 530.25589 323.02232 529.96543 323.01172 529.65234 L 323.01172 529.65039 C 323.00272 529.40289 323.00648 529.13 323.02148 528.8457 C 323.05158 528.27711 323.12519 527.66847 323.22461 527.16016 C 323.27431 526.90601 323.32982 526.67745 323.39062 526.49023 C 323.52931 526.06323 323.633 525.39288 323.70117 524.42188 C 323.73527 523.93637 323.76084 523.37603 323.77734 522.73242 C 323.79374 522.08881 323.80208 521.36138 323.80078 520.54492 C 323.79778 518.91253 323.75889 516.91953 323.68555 514.50781 L 323.68555 514.50586 C 323.61215 512.09309 323.50388 509.26171 323.35938 505.95117 C 323.14823 501.11355 323.02514 498.37696 322.88672 495.72461 C 322.74829 493.07225 322.59469 490.50492 322.31836 486.00195 C 322.14259 483.13764 321.93287 479.99051 321.71289 476.86328 C 321.49295 473.73672 321.2623 470.62932 321.04492 467.83984 L 321.04492 467.83789 C 320.82749 465.04794 320.62318 462.57707 320.45508 460.72461 C 320.28699 458.87214 320.15597 457.639 320.08398 457.32422 C 319.71999 455.73266 319.05029 450.20807 319.19336 449.97656 C 319.43873 449.5796 322.30129 448.80273 323.51758 448.80273 C 324.11273 448.80273 325.13542 448.51549 325.78906 448.16602 C 326.4427 447.81658 327.44885 447.44286 328.02539 447.33594 C 328.55641 447.23744 328.94465 447.04059 329.20703 446.73633 C 329.22723 446.71283 329.24107 446.6829 329.25977 446.6582 C 329.27267 446.6411 329.28262 446.62132 329.29492 446.60352 C 329.34122 446.53632 329.39343 446.47268 329.42969 446.39648 C 329.49649 446.2562 329.56297 445.96085 329.62891 445.54883 C 329.69481 445.1368 329.75909 444.60883 329.82031 444 C 329.88151 443.39117 329.93957 442.7014 329.99219 441.9707 C 330.04479 441.24062 330.09267 440.46837 330.13281 439.69141 L 330.13281 439.68945 C 330.17301 438.91182 330.20472 438.13048 330.22852 437.38086 C 330.30002 435.13199 330.28973 433.17723 330.14453 432.5293 C 330.05823 432.14412 329.98471 431.46424 329.93555 430.67773 C 329.88635 429.89122 329.86135 428.99955 329.87305 428.19141 L 329.87305 428.18945 C 329.87905 427.78537 329.87106 427.22392 329.85156 426.55273 C 329.79176 424.53916 329.62729 421.54992 329.42383 418.95117 C 329.15257 415.48617 328.79902 410.35773 328.63867 407.55273 L 328.63867 407.55078 C 328.56817 406.31758 328.51514 405.38028 328.48633 404.64844 L 328.48633 404.64648 C 328.45753 403.91444 328.45161 403.38964 328.47461 402.98047 C 328.52061 402.16212 328.68065 401.8105 328.99414 401.20898 L 329.64258 399.9668 L 329.64258 399.96484 L 329.28516 387.25977 L 329.28516 387.25781 C 329.18716 383.76401 329.04914 379.89591 328.90625 376.47852 L 328.90625 376.47656 C 328.76336 373.05954 328.61682 370.0938 328.49805 368.40234 L 328.49805 368.40039 C 328.41145 367.16778 328.33271 365.89953 328.26172 364.60547 C 328.04874 360.72326 327.90523 356.61965 327.83984 352.63281 C 327.81804 351.30452 327.80538 349.98934 327.80078 348.69922 C 327.79178 346.11774 327.81681 343.63655 327.87891 341.35742 C 327.91001 340.21785 327.9505 339.12816 328 338.10156 C 328.15318 334.92613 328.34741 331.28828 328.56055 327.5293 C 328.77366 323.77098 329.0059 319.89051 329.23633 316.22656 L 329.23633 316.22461 C 329.46674 312.56081 329.69528 309.11435 329.90039 306.22266 C 329.90239 306.19136 329.90425 306.18159 329.90625 306.15039 C 329.91895 305.97158 329.92695 305.91074 329.93945 305.73633 C 330.12638 303.132 330.2986 300.88915 330.42578 299.55273 C 330.50428 298.72773 330.62686 297.01531 330.76172 294.92188 C 330.89657 292.82844 331.04186 290.3532 331.16797 288.00195 C 331.39328 283.80076 331.56503 280.91286 331.82422 278.09961 C 331.91062 277.16185 332.00588 276.233 332.11719 275.26562 C 332.22851 274.29825 332.35514 273.29206 332.50195 272.20312 C 332.64876 271.11421 332.81689 269.94302 333.00977 268.64062 C 333.39553 266.03584 333.88407 262.91252 334.51758 258.90234 L 334.51758 258.90039 C 335.10391 255.18878 335.65715 251.63621 335.74805 251.00195 L 335.74805 251 C 335.77075 250.84175 335.803 250.68788 335.8418 250.54297 C 335.95834 250.10822 336.13555 249.76471 336.29102 249.70508 C 336.34024 249.6862 336.64977 249.69843 337.10938 249.73047 L 305.78125 164.79492 L 305.01367 160.40234 C 304.94253 160.54013 304.92188 160.77436 304.92188 161.2168 C 304.92188 162.00784 304.79313 162.30078 304.44336 162.30078 C 304.2951 162.30078 304.19556 162.23428 304.12891 162.01953 C 304.06911 161.63739 304.04355 160.93146 304.03125 159.95508 C 304.03525 159.58931 304.03528 159.26563 304.04688 158.77539 C 304.11077 156.04585 303.84959 153.6552 303.36523 151.92969 C 303.16102 150.95154 302.88201 150.2639 302.5293 149.875 C 302.5283 149.874 302.52639 149.87419 302.52539 149.87305 C 302.40943 149.71524 302.28898 149.59804 302.16406 149.51953 C 301.95966 149.32823 301.74345 149.19715 301.51562 149.15234 C 301.07182 149.06504 301.02146 149.65235 301.00586 155.00391 C 301.00086 156.75003 300.95786 158.70832 300.89844 160.5 L 297.59375 152.875 C 297.20356 149.13399 296.58479 144.89521 296.23633 144.44922 C 296.14123 144.32752 295.96813 143.78129 295.79883 143.1582 C 295.56686 142.16041 295.3171 141.1905 295.05273 140.25781 C 295.01743 140.12889 294.98234 140.02021 294.94727 139.89844 C 294.87977 139.66804 294.81238 139.43325 294.74609 139.22852 C 294.67479 138.99566 294.60816 138.74728 294.53516 138.52148 C 294.26445 137.68414 293.92513 137.11766 293.56641 136.84961 C 293.56241 136.84661 293.55643 136.84384 293.55273 136.83984 C 293.49243 136.78884 293.43162 136.74864 293.37109 136.71875 C 293.36509 136.71575 293.35806 136.71198 293.35156 136.70898 C 293.28496 136.67848 293.21943 136.65764 293.15234 136.65234 C 293.15134 136.65223 293.14944 136.65245 293.14844 136.65234 C 293.08694 136.64834 293.02496 136.65537 292.96289 136.67188 C 292.95289 136.67388 292.94339 136.67473 292.93359 136.67773 C 292.91799 136.68273 292.90242 136.68676 292.88672 136.69336 C 292.5803 136.69936 292.33813 136.84341 292.32812 137.11719 C 292.31333 137.13009 292.2973 137.14435 292.2832 137.15625 C 292.2025 137.22345 292.13116 137.27217 292.06836 137.30664 C 292.01586 137.33504 291.95784 137.37265 291.91797 137.37695 C 291.80787 137.33195 291.73088 137.21876 291.72656 137.08594 C 291.72456 137.06164 291.71544 137.05289 291.71484 137.02539 C 291.70884 136.74078 290.87834 134.99641 289.96094 133.18359 C 289.87604 133.01112 289.81465 132.87236 289.72852 132.69922 C 288.70943 130.64631 287.64754 128.62716 287.47656 128.52148 C 287.47256 128.51948 287.4708 128.51763 287.4668 128.51562 C 287.46631 128.51531 287.46389 128.51172 287.46289 128.51172 C 287.45589 128.50672 287.44881 128.50791 287.44141 128.50391 C 287.22939 128.38525 287.07742 128.42011 286.95117 128.66992 C 286.93207 128.69242 286.91093 128.71033 286.89453 128.73633 C 286.81563 128.86082 286.77521 129.04842 286.75195 129.26367 C 286.72325 129.34077 286.69292 129.38966 286.66602 129.47461 L 277.34766 125.33594 C 276.77994 124.46832 276.05307 123.07342 275.66992 122.0957 C 275.40925 121.43054 275.26685 120.98316 275.17773 120.57227 C 275.10413 119.9674 275.11215 119.37065 275.18945 118.7832 C 275.20165 118.6966 275.2056 118.6099 275.2207 118.52344 L 275.2207 118.52148 C 275.3879 117.57001 275.55254 116.80645 275.71875 115.97461 C 275.89738 115.17292 276.06328 114.40623 276.31836 113.40039 C 276.37886 113.16204 276.43971 112.77023 276.50195 112.45508 C 276.57095 112.21224 276.64231 111.94733 276.69727 111.80469 C 276.87625 111.3402 277.03011 110.12598 277.03711 109.10547 C 277.03811 108.93661 277.052 108.75418 277.0625 108.57422 C 277.16312 107.53603 277.31703 106.70319 277.54492 105.98242 C 277.74865 105.4604 277.91855 105.05921 278.11133 104.58008 C 278.49968 103.77425 278.93663 102.74743 279.12891 102.15039 C 279.14591 102.09779 279.17261 102.03889 279.19141 101.98438 C 279.47 101.34995 279.75983 100.68819 279.91406 100.4082 C 280.02694 100.20327 280.15325 99.85579 280.28516 99.396484 C 280.41256 98.959666 280.54911 98.393725 280.68945 97.730469 C 280.70715 97.646849 280.72439 97.533793 280.74219 97.447266 C 280.86408 96.853261 280.98888 96.2181 281.11133 95.498047 C 281.25116 94.677314 281.3874 93.786964 281.51758 92.849609 C 282.34204 86.913179 282.81715 84.397085 283.18945 83.984375 L 283.18945 83.982422 C 283.23025 83.937232 283.26825 83.875524 283.30273 83.791016 C 283.54373 83.199458 283.6362 81.541443 283.69141 77.382812 L 283.77344 71.25 L 284.31641 71.185547 L 268.05469 40.695312 L 268.29688 40.515625 C 267.92002 39.810965 267.6032 39.228519 267.15625 38.373047 C 266.55849 37.228927 266.07844 36.446939 265.01172 35.220703 C 264.47836 34.607586 263.79896 33.88392 262.88477 32.947266 C 261.97057 32.01061 260.82231 30.862588 259.35156 29.400391 L 259.35156 29.398438 C 258.23217 28.285556 257.22952 27.30501 256.33398 26.445312 C 255.43845 25.585617 254.64924 24.84789 253.95898 24.224609 C 252.57848 22.978046 251.59071 22.186661 250.91992 21.785156 C 249.05314 20.667766 247.73618 19.892353 243.65039 17.501953 C 242.90022 17.063064 241.85615 16.474193 240.67969 15.822266 L 240.67773 15.822266 C 237.1462 13.865316 232.41872 11.339276 230.82617 10.582031 C 228.96289 9.6960515 227.21192 8.9121253 225.50977 8.2089844 C 220.4033 6.0995587 215.72401 4.7109281 209.67578 3.4394531 C 208.68578 3.2313331 206.8625 2.8394994 205.625 2.5683594 C 204.59747 2.3426285 203.75051 2.1723241 202.9668 2.0410156 C 202.9638 2.0405275 202.96198 2.0395425 202.95898 2.0390625 C 202.3772 1.9417275 201.82603 1.8722935 201.29297 1.8222656 C 201.28997 1.8219576 201.2872 1.8206125 201.2832 1.8203125 C 199.73533 1.6553723 198.36938 1.655524 196.6875 1.8125 C 195.95728 1.880654 195.30791 1.9384423 194.50781 2.0117188 C 192.13683 2.2053838 190.11931 2.3087688 189.98633 2.2265625 C 189.96393 2.2127145 189.95039 2.1721496 189.92969 2.1503906 L 189.74219 1.703125 C 189.74019 1.678942 189.72656 1.6566155 189.72656 1.6328125 C 189.72656 1.5477445 189.70818 1.458342 189.67578 1.3671875 L 189.67578 1.3652344 L 189.67578 1.3632812 C 189.64368 1.2726863 189.59548 1.1793235 189.53711 1.0878906 L 189.53516 1.0859375 C 189.51816 1.0594015 189.49351 1.0341715 189.47461 1.0078125 C 189.42821 0.9432968 189.38251 0.87686813 189.32617 0.81445312 L 189.32422 0.8125 C 189.29202 0.7771395 189.25172 0.74322549 189.2168 0.70898438 C 188.97755 0.40548863 188.69555 0.20205965 188.34961 0.11523438 C 188.32161 0.10821037 188.29868 0.1077714 188.27148 0.1015625 C 188.10776 0.04281191 187.94408 9.2518585e-18 187.79297 0 L 187.78711 0 L 187.7832 0 C 187.7802 0 187.77644 0.001918205 187.77344 0.001953125 C 187.7701 0.001913965 187.76552 0 187.76172 0 z M 122.09375 27.314453 C 122.25337 27.291093 122.29251 27.350693 122.22656 27.478516 L 117.33398 31.148438 C 117.20976 31.123487 117.24027 30.944864 117.42188 30.605469 C 117.72342 30.042019 120.79659 27.783506 121.76953 27.410156 C 121.90729 27.357296 122.01489 27.325993 122.09375 27.314453 z M 304.42188 165.30078 C 304.64326 165.30078 304.60053 166.39495 304.32422 168.40234 L 303.91602 167.45703 C 304.11463 166.28936 304.32043 165.30078 304.42188 165.30078 z M 64.185547 210.30078 C 64.262297 210.30078 64.326172 210.57039 64.326172 210.90039 C 64.326172 211.23984 64.125784 211.5 63.865234 211.5 C 63.497634 211.5 63.468319 211.37928 63.724609 210.90039 C 63.901219 210.57039 64.108847 210.30078 64.185547 210.30078 z M 83.726562 319.65039 C 83.841112 319.65039 83.981763 320.52711 84.039062 321.59961 C 84.060613 322.00315 84.129632 322.94793 84.173828 323.63672 C 84.174422 323.64572 84.175181 323.65486 84.175781 323.66406 C 84.175908 323.66606 84.175654 323.66792 84.175781 323.66992 L 84.175781 323.67188 C 84.212841 324.30257 84.236161 324.87947 84.283203 325.52344 C 84.387229 326.94714 84.442948 328.13574 84.466797 329.14844 C 84.434767 330.31878 84.401337 331.45318 84.341797 332.17969 C 84.307627 332.40602 84.272327 332.68936 84.230469 333.14258 C 84.214499 333.23478 84.200764 333.38315 84.183594 333.44922 C 84.011994 334.10922 83.777229 337.58703 83.662109 341.17578 C 83.593829 343.30423 83.529294 344.65014 83.458984 345.65234 C 83.334608 347.09641 83.20659 347.69922 83.027344 347.69922 C 82.902131 347.69922 82.809702 347.69857 82.748047 347.71875 C 82.730547 347.72475 82.721254 347.73659 82.708984 347.74609 C 82.700584 347.75209 82.687711 347.75742 82.681641 347.76562 L 82.681641 347.76758 L 82.679688 347.76758 C 82.677288 347.77158 82.677681 347.779 82.675781 347.7832 C 82.665551 347.8037 82.659686 347.82893 82.660156 347.86133 L 82.660156 347.86328 C 82.660349 347.86728 82.665616 347.87851 82.666016 347.88281 L 82.666016 347.88477 L 82.666016 347.88672 C 82.666131 347.88772 82.667769 347.89158 82.667969 347.89258 C 82.680339 348.05462 82.796406 348.34885 83.035156 348.9375 C 83.194818 349.33114 83.301879 349.9423 83.380859 350.57227 C 83.313409 350.62467 83.197081 350.57231 83.023438 350.35742 C 82.504867 349.71566 80.342541 345.29026 79.207031 342.54688 C 78.832748 341.64261 78.408128 340.53766 77.982422 339.37695 C 76.710533 335.91007 75.446654 331.98873 75.429688 331.30469 C 75.438288 331.00556 75.799259 330.25192 76.314453 329.42578 C 76.508185 329.14531 76.673684 328.89648 76.902344 328.58203 C 76.924594 328.55143 76.959612 328.49273 76.982422 328.46094 C 77.592447 327.63487 78.298161 326.67698 79.130859 325.5 C 81.623689 321.9765 83.451893 319.65039 83.726562 319.65039 z M 97.787109 527.45898 C 97.803009 527.47918 97.819971 527.53558 97.837891 527.62891 C 97.909691 528.00208 97.907171 528.5413 97.832031 528.82812 C 97.756961 529.11493 97.698172 528.81042 97.701172 528.15039 C 97.703672 527.65539 97.739409 527.39848 97.787109 527.45898 z M 98.609375 548.51367 C 98.640915 548.48217 98.682565 548.52487 98.730469 548.64453 C 98.817109 548.8611 98.806731 549.11905 98.707031 549.21875 C 98.607361 549.31845 98.535828 549.14045 98.548828 548.82422 C 98.556028 548.64947 98.577835 548.54521 98.609375 548.51367 z M 98.6875 554.16992 C 98.70304 554.18202 98.718448 554.23142 98.736328 554.32422 C 98.807828 554.69547 98.807828 555.30453 98.736328 555.67578 C 98.664818 556.04703 98.607422 555.74248 98.607422 555 C 98.607422 554.44312 98.64088 554.13354 98.6875 554.16992 z M 178.6543 604.87305 C 178.7389 604.85555 178.82845 604.88842 178.92383 604.95312 C 179.17183 605.33003 179.42567 605.7895 179.68359 606.26172 C 180.14216 607.17769 180.64553 608.26482 181.125 609.34766 C 181.24949 609.68712 181.34386 609.98907 181.41016 610.25586 C 181.4098 610.29246 181.4152 610.33796 181.4082 610.36523 L 181.4082 610.36719 C 181.4022 610.38979 181.38365 610.39611 181.37305 610.41211 C 181.35875 610.43381 181.34877 610.46296 181.32617 610.47266 C 181.32517 610.47308 181.32327 610.47226 181.32227 610.47266 C 181.16406 610.53566 180.81056 610.31087 180.28906 609.79102 L 180.28516 609.78711 L 180.28125 609.7832 C 179.9657 609.46765 179.3047 608.34718 178.64844 607.14648 C 178.20746 606.00002 178.11599 604.98406 178.6543 604.87305 z M 131.75781 608.44141 L 131.82031 609.24023 C 131.61294 609.22043 131.52539 609.12635 131.52539 608.91992 C 131.52539 608.81433 131.56679 608.70407 131.62695 608.60352 C 131.64485 608.57422 131.6677 608.54522 131.6875 608.51562 C 131.709 608.48883 131.73311 608.46511 131.75781 608.44141 z M 129.35156 612.49609 L 120.40234 616.70703 C 120.56795 616.59207 120.73147 616.47573 120.90234 616.36328 C 121.31644 616.09909 121.75471 615.83458 122.21875 615.57422 C 122.22075 615.57322 122.22356 615.57131 122.22656 615.57031 C 122.70352 615.30288 123.20485 615.03829 123.72461 614.7793 C 123.72761 614.7773 123.73138 614.77739 123.73438 614.77539 C 124.14534 614.57075 124.57572 614.37266 125.00781 614.17578 C 125.20414 614.08748 125.39525 613.99637 125.5957 613.91016 C 125.92816 613.76461 126.26859 613.62578 126.60938 613.48633 C 127.49301 613.134 128.40872 612.80399 129.35156 612.49609 z M 102.42578 651.30078 C 102.89245 651.30078 103.02539 651.49923 103.02539 652.19922 C 103.02539 652.71129 102.91881 653.00713 102.75391 653.06641 C 102.71451 653.08061 102.67031 653.07941 102.625 653.06641 C 102.5345 652.95862 102.41215 652.79813 102.34961 652.73438 C 102.26271 652.64577 102.18742 652.55839 102.12305 652.4707 C 102.11015 652.4458 102.09208 652.41658 102.08008 652.39258 C 101.92505 652.0799 101.85135 651.84105 101.86328 651.66992 L 101.86328 651.66797 C 101.89238 651.52399 101.98229 651.4113 102.12891 651.35156 C 102.21371 651.32526 102.29944 651.30078 102.42578 651.30078 z M 309.59766 668.56836 C 309.67816 668.57946 309.71994 668.62186 309.72266 668.69727 C 309.71866 668.80627 309.44192 669.02463 309.08789 669.25586 C 308.63165 669.48095 308.12147 669.71538 307.62109 669.94922 C 307.49805 669.97492 307.39838 669.98393 307.35547 669.95703 C 307.27777 669.87953 307.46575 669.6508 308 669.29688 C 308.75458 668.79701 309.34831 668.53405 309.59766 668.56836 z M 290.86719 673.90625 C 291.16522 673.91852 291.43887 673.94332 291.67773 673.98242 C 292.45355 674.20261 292.96458 674.43096 293.13867 674.61914 C 293.16037 674.65134 293.1854 674.68369 293.1875 674.71289 C 292.96201 674.89539 291.09927 675.06338 289.47461 675.10938 C 288.53604 675.09938 287.64637 675.02419 286.81445 674.89062 C 286.64422 674.82223 286.49594 674.74643 286.375 674.66016 C 286.4598 674.53953 286.76564 674.40674 287.13477 674.2793 C 287.76817 674.1357 288.42649 674.04462 289.07617 673.98242 L 289.07812 673.98242 C 289.22291 674.07192 289.25801 674.0448 289.24219 673.9668 C 289.46458 673.9478 289.69501 673.917 289.9082 673.9082 C 290.24673 673.8942 290.56915 673.89398 290.86719 673.90625 z "
     id="path4143" />
  <path
     inkscape:connector-curvature="0"
     style="fill:#000000;fill-opacity:1;fill-rule:evenodd;stroke:none;stroke-width:1px;stroke-linecap:butt;stroke-linejoin:miter;stroke-opacity:1"
     d="m 320.23707,212.11549 c 0.18389,0.45762 0.38528,0.9372 0.59573,1.41601 0.29237,0.61856 0.59208,1.16859 0.93672,1.6875 0.0112,0.0169 0.0202,0.0359 0.0315,0.0527 0.004,0.005 0.006,0.009 0.01,0.0137 l 0.001,0.002 c 0.0287,0.0426 0.0639,0.0846 0.0931,0.12696 0.18596,0.26927 0.37899,0.53576 0.59709,0.81054 0.0437,0.055 0.0808,0.11088 0.12325,0.16602 0.16394,0.21209 0.31825,0.42167 0.46015,0.625 0.0408,0.0587 0.0788,0.1157 0.11777,0.17383 0.13953,0.20701 0.2688,0.41361 0.38756,0.61718 0.0292,0.0503 0.0598,0.1004 0.0876,0.15039 0.4209,0.75145 0.71484,1.50675 0.92166,2.37305 0.0169,0.0642 0.0376,0.12667 0.0534,0.19141 0.0203,0.0832 0.0349,0.16965 0.0534,0.2539 0.0952,0.43337 0.172,0.87697 0.22049,1.33985 0.18064,1.05014 0.52103,1.83244 1.58449,3.62695 3.21708,5.42865 6.26008,12.73731 9.82191,23.58789 4.15788,12.66636 4.96305,15.08982 6.67621,20.09961 0.95129,2.78185 1.99631,5.61086 3.06901,8.35156 0.27157,0.68237 0.54995,1.37387 0.83949,2.08594 0.36097,0.86923 0.82614,1.99981 1.02437,2.46289 0.17342,0.40515 0.3982,0.9673 0.59573,1.44531 0.0137,0.0315 0.0274,0.0662 0.0411,0.0977 0.001,0.003 0.003,0.009 0.004,0.0117 0.009,0.0215 0.0234,0.0582 0.0329,0.0801 0.30976,0.71607 0.67706,1.60313 1.07778,2.60547 0.33099,0.828 0.68515,1.74769 1.03669,2.6621 0.0217,0.0564 0.0426,0.10752 0.0644,0.16407 0.0598,0.15535 0.11866,0.30181 0.17803,0.45703 0.006,0.0169 0.0128,0.0319 0.0191,0.0488 5.1e-4,0.001 7.1e-4,0.003 10e-4,0.004 0.036,0.0946 0.0682,0.18271 0.10408,0.27735 0.072,0.18955 0.1355,0.3675 0.20679,0.55664 0.3337,0.88331 0.66521,1.76105 0.96137,2.57812 0.35953,0.98459 0.71661,1.99928 0.98466,2.8125 5.2e-4,0.002 7e-4,0.004 10e-4,0.006 0.0265,0.0804 0.0716,0.20206 0.1,0.28711 0.3514,1.04558 0.83979,2.42803 1.3503,3.83985 0.029,0.0801 0.0547,0.151 0.0835,0.23046 0.0485,0.13378 0.0945,0.2554 0.14242,0.38672 0.0942,0.25378 0.21032,0.58409 0.29307,0.80078 0.27971,0.73241 0.68851,1.84781 1.15995,3.16211 0.0749,0.20873 0.15106,0.42314 0.22871,0.64063 0.80501,2.23781 1.67906,4.74554 2.48149,7.09961 0.6189,1.79998 1.19412,3.48939 1.5886,4.69726 0.23373,0.71564 0.34485,1.01028 0.52862,1.54493 0.0722,0.17973 0.14579,0.37165 0.21638,0.52734 l 0,0.002 c 0.24127,0.53241 0.47153,0.91964 0.67926,1.13867 0.78926,0.83223 1.44847,2.31059 1.6872,3.78125 0.17621,1.08546 5.1e-4,2.86272 -0.41906,4.76368 -0.0245,0.6674 -0.0865,1.20535 -0.19994,1.36718 -0.0775,0.1106 -0.12911,0.13649 -0.16708,0.10157 -0.0989,0.35368 -0.20312,0.7078 -0.31635,1.05664 -0.12685,0.39082 -0.26224,0.77495 -0.40537,1.15039 -0.53794,1.41108 -1.66478,4.38968 -2.50478,6.61718 -1.79486,4.75962 -5.38454,13.2533 -7.1569,17.00586 -0.25319,0.53608 -0.46828,0.97516 -0.63681,1.29297 -0.30623,0.5775 -1.08772,2.06328 -1.73513,3.30078 -0.64741,1.2375 -1.58408,2.94716 -2.08297,3.79883 -0.4989,0.85167 -2.57542,4.49628 -4.61378,8.09961 -1.48386,2.62311 -2.89731,5.03543 -4.27416,7.3125 l -0.001,0.002 c -6.4e-4,10e-4 -6.7e-4,0.003 -10e-4,0.004 -7e-4,10e-4 -0.002,0.003 -0.003,0.004 -0.84492,1.41218 -1.68063,2.7883 -2.46642,4.02929 -0.42791,0.67578 -0.9226,1.4315 -1.46809,2.2461 -7e-4,10e-4 -0.002,0.002 -0.003,0.004 -0.0389,0.0581 -0.0866,0.1269 -0.126,0.18555 -1.64383,2.50094 -3.26176,4.82376 -4.89863,7.03711 -0.25628,0.34653 -0.53191,0.70065 -0.79704,1.05664 -0.003,0.004 -0.006,0.008 -0.008,0.0117 -0.005,0.006 -0.009,0.0131 -0.0137,0.0195 -0.008,0.0112 -0.0165,0.022 -0.0247,0.0332 -0.69757,0.9558 -1.39746,1.90486 -2.08435,2.82422 -0.009,0.0127 -0.0193,0.0263 -0.0288,0.0391 -0.68463,0.91599 -1.35801,1.80364 -2.00081,2.64062 -0.89916,1.17094 -1.70296,2.1834 -2.44315,3.09375 -0.33839,0.41666 -0.69322,0.86167 -0.9874,1.20898 l -0.50808,0.59961 0.006,-0.0117 -0.01,0.0117 0.074,-0.14648 0.004,-0.008 0.25199,-0.53125 0.008,-0.0176 c 0.008,-0.0172 0.0726,-0.11726 0.0849,-0.14063 l 0,-0.002 10e-4,-0.002 0.0274,-0.0527 c 0.0229,-0.0455 0.19194,-0.30629 0.23829,-0.38672 0.21253,-0.36058 0.45018,-0.7551 0.8751,-1.42382 0.003,-0.004 0.003,-0.005 0.006,-0.01 10e-4,-0.002 0.003,-0.004 0.004,-0.006 0.27067,-0.42583 0.57201,-0.88605 0.9107,-1.4082 0.21974,-0.33803 0.39434,-0.61781 0.62448,-0.9668 0.0822,-0.12465 0.13073,-0.20587 0.21091,-0.32812 1.12734,-1.72623 2.0632,-3.233 2.19117,-3.54102 -0.0216,0.007 -0.0618,0.0386 -0.1712,0.16406 l -10e-4,0 c -0.93001,1.06716 -4.66353,5.95184 -4.88082,6.42578 -0.0804,0.17538 -1.01744,1.32171 -2.08298,2.54883 -1.06556,1.22712 -2.32546,2.708 -2.79922,3.29102 -0.92978,1.14419 -2.39689,2.71307 -4.50559,4.81445 -0.70195,0.69954 -1.4546,1.50172 -1.74883,1.85938 l -5.33275,-63.21289 c 0.0478,0.0452 0.1268,-0.006 0.24513,-0.21485 0.36362,-0.64176 1.87978,-5.06717 2.67597,-7.81054 0.26244,-0.90427 0.56017,-2.00922 0.85866,-3.16993 0.89182,-3.46688 1.77802,-7.38822 1.78991,-8.07226 -0.006,-0.29913 -0.25913,-1.05277 -0.62037,-1.87891 -0.13584,-0.28047 -0.25188,-0.5293 -0.41221,-0.84375 -0.0156,-0.0306 -0.0402,-0.0893 -0.0562,-0.12109 -0.42773,-0.82607 -0.92256,-1.78396 -1.50643,-2.96094 -1.7479,-3.5235 -3.02979,-5.84961 -3.22238,-5.84961 -0.0803,0 -0.17894,0.87672 -0.21912,1.94922 -0.0151,0.40354 -0.0635,1.34832 -0.0945,2.03711 -4.2e-4,0.009 -7.1e-4,0.0181 -10e-4,0.0273 -8e-5,0.002 9e-5,0.004 0,0.006 l 0,0.002 c -0.026,0.63069 -0.0423,1.20759 -0.0753,1.85156 -0.0729,1.4237 -0.112,2.6123 -0.12873,3.625 0.0224,1.17034 0.0459,2.30474 0.0876,3.03125 0.024,0.22633 0.0487,0.50967 0.0781,0.96289 0.0112,0.0922 0.0208,0.24057 0.0329,0.30664 0.12032,0.66 0.28494,4.13781 0.36566,7.72656 0.0479,2.12845 0.0931,3.47436 0.14242,4.47656 0.0872,1.44407 0.17697,2.04688 0.30265,2.04688 0.0878,0 0.15261,-6.5e-4 0.19584,0.0195 0.0123,0.006 0.0188,0.0178 0.0274,0.0273 0.006,0.006 0.0149,0.0113 0.0191,0.0195 l 0,0.002 10e-4,0 c 0.001,0.004 0.001,0.0114 0.003,0.0156 0.007,0.0205 0.0113,0.0457 0.0109,0.0781 l 0,0.002 c -1.3e-4,0.004 -0.004,0.0152 -0.004,0.0195 l 0,0.002 0,0.002 c -8e-5,10e-4 -0.001,0.005 -0.001,0.006 -0.009,0.16204 -0.0901,0.45627 -0.25747,1.04492 -0.11003,0.38689 -0.18455,0.98505 -0.23965,1.60352 l -2.10079,-24.91211 3.47985,-67.50977 13.45925,-47.5332 z"
     id="path4143-3" />
</svg>
