<?xml version="1.0" encoding="UTF-8" standalone="no"?>
<!-- Created with Inkscape (http://www.inkscape.org/) -->

<svg
   xmlns:dc="http://purl.org/dc/elements/1.1/"
   xmlns:cc="http://creativecommons.org/ns#"
   xmlns:rdf="http://www.w3.org/1999/02/22-rdf-syntax-ns#"
   xmlns:svg="http://www.w3.org/2000/svg"
   xmlns="http://www.w3.org/2000/svg"
   xmlns:sodipodi="http://sodipodi.sourceforge.net/DTD/sodipodi-0.dtd"
   xmlns:inkscape="http://www.inkscape.org/namespaces/inkscape"
   id="svg2"
   version="1.1"
   inkscape:version="0.91 r13725"
   width="330.81665"
   height="680.05719"
   viewBox="0 0 330.81665 680.05719"
   sodipodi:docname="sans-character-bw.svg">
  <metadata
     id="metadata8">
    <rdf:RDF>
      <cc:Work
         rdf:about="">
        <dc:format>image/svg+xml</dc:format>
        <dc:type
           rdf:resource="http://purl.org/dc/dcmitype/StillImage" />
        <dc:title></dc:title>
      </cc:Work>
    </rdf:RDF>
  </metadata>
  <defs
     id="defs6" />
  <sodipodi:namedview
     pagecolor="#ffffff"
     bordercolor="#666666"
     borderopacity="1"
     objecttolerance="10"
     gridtolerance="10"
     guidetolerance="10"
     inkscape:pageopacity="0"
     inkscape:pageshadow="2"
     inkscape:window-width="1280"
     inkscape:window-height="751"
     id="namedview4"
     showgrid="false"
     fit-margin-top="0"
     fit-margin-left="0"
     fit-margin-right="0"
     fit-margin-bottom="0"
     inkscape:zoom="0.71223727"
     inkscape:cx="224.8926"
     inkscape:cy="444.80832"
     inkscape:window-x="0"
     inkscape:window-y="29"
     inkscape:window-maximized="1"
     inkscape:current-layer="svg2" />
  <path
     style="fill:#000100"
     d="m 186.3811,0 c -0.9624,0 -1.68286,1.0427769 -1.4668,2.1230469 0.21018,1.0509 0.38695,1.0187693 -8.90039,1.6308593 -10.76802,0.7096801 -12.22938,1.0467325 -18.90039,4.3515626 -3.41172,1.6901799 -3.3855,1.6936506 1.94922,0.3378906 3.32436,-0.84485 9.30777,-2.1693 14.40039,-3.1875 1.155,-0.23093 4.12461,-0.62451 6.59961,-0.875 3.53304,-0.35761 4.57898,-0.3762338 4.86719,-0.089844 0.2019,0.20063 0.71673,2.1861394 1.14258,4.4121094 0.42584,2.2259602 1.10437,5.4647662 1.50781,7.1972662 3.4773,14.93349 3.15426,12.61877 4.08984,29.40039 0.4374,7.84576 0.51494,34.240045 0.12305,41.802735 l -0.2461,4.751953 -2.29101,2.691406 c -1.26066,1.4802 -2.61569,3.300129 -3.00977,4.042969 -0.63897,1.20452 -0.67843,1.476726 -0.36718,2.515626 0.38787,1.29459 1.67184,2.39453 2.79492,2.39453 1.09575,0 1.43945,0.56375 1.43945,2.36523 0,1.00308 0.22548,2.12161 0.57813,2.86524 0.31812,0.67084 1.31008,2.78032 2.20312,4.6875 0.89304,1.90718 2.57169,4.94468 3.73047,6.75 2.81565,4.38667 3.28172,5.3609 4.11914,8.61133 1.23454,4.79179 1.23826,4.37887 -0.0469,4.92968 -0.62349,0.26724 -2.31307,0.57587 -3.75391,0.68555 -2.49552,0.18996 -2.84634,0.31059 -7.4082,2.5625 l -4.78907,2.36524 -0.3125,1.96289 c -0.48207,3.02242 -1.52434,12.03727 -1.52734,13.21484 -0.004,1.48484 -0.22834,1.68461 -2.14258,1.9043 -2.47962,0.28457 -5.38328,1.08234 -6.29687,1.73047 -0.43797,0.31071 -1.05246,0.56445 -1.36524,0.56445 -0.31278,0 -0.71964,0.15128 -0.90429,0.33594 -0.24657,0.24661 -0.72094,0.24878 -1.78516,0.006 -1.6443,-0.37533 -7.67398,-1.05765 -13.44922,-1.52149 -9.87649,-0.79323 -11.8548,-0.99023 -14.09961,-1.40234 -1.32,-0.24232 -3.14328,-0.72671 -4.05078,-1.07617 -2.71884,-1.04698 -14.15329,-5.89764 -15.52539,-6.58594 -0.70154,-0.35192 -2.10886,-0.7895 -3.12891,-0.97266 -1.7362,-0.31177 -1.89502,-0.40981 -2.47656,-1.5332 -0.76984,-1.48711 -1.70973,-1.72204 -2.4375,-0.61133 -0.40824,0.6231 -0.47605,1.22672 -0.3457,3.09375 0.34549,4.94845 0.855,7.69539 1.84765,9.96875 0.54035,1.2375 1.43289,3.33039 1.98242,4.65039 0.54955,1.32 1.36688,2.79197 1.81836,3.27149 l 0.82227,0.87109 0.21484,-1.14453 c 0.1181,-0.62967 0.13356,-2.46644 0.0352,-4.08203 -0.13599,-2.23217 -0.0912,-2.90027 0.18359,-2.78321 0.19886,0.0847 1.33631,1.52994 2.5293,3.21094 7.28313,10.26246 12.3101,15.6431 16.91016,18.10352 0.69999,0.3744 1.35146,0.79517 1.44726,0.93554 0.23337,0.34203 2.65085,1.95673 3.77344,2.51953 0.495,0.24813 2.25039,1.19271 3.90039,2.09961 4.84824,2.66484 13.28322,6.69404 16.34961,7.8086 4.69707,1.70722 12.78019,2.55426 16.80859,1.76172 1.01787,-0.20037 1.92939,-0.28546 2.02539,-0.18946 0.096,0.096 -0.12724,0.57995 -0.49414,1.07618 -0.36687,0.49623 -0.8854,1.79318 -1.15429,2.88281 -0.45554,1.84617 -0.45319,2.20534 0.0332,5.25586 0.28704,1.80042 0.72152,3.7528 0.9668,4.33984 0.42495,1.017 0.39533,1.21587 -0.6211,4.2207 -0.58668,1.73445 -1.15161,3.87868 -1.25586,4.76563 -0.18363,1.56255 -0.22209,1.62014 -1.25781,1.81445 -0.96783,0.18156 -5.61331,0.0675 -14.4082,-0.35156 -3.54891,-0.16908 -3.46261,0.12355 0.25781,0.86719 4.39425,0.87831 7.0983,1.19539 10.94922,1.27929 8.75727,0.19077 13.35525,0.38999 16.20117,0.70313 3.12924,0.34431 3.55728,0.29405 7.5,-0.88672 0.99,-0.29649 3.14883,-0.83471 4.79883,-1.19531 2.92362,-0.639 4.7364,-1.06131 7.80078,-1.81641 0.825,-0.20328 2.31078,-0.54015 3.30078,-0.74805 3.55185,-0.74595 7.22568,-1.68219 8.69922,-2.21874 1.71312,-0.62379 5.72373,-1.89946 7.5,-2.38477 1.58844,-0.43398 3.15039,-1.41659 3.15039,-1.98242 0,-0.24993 0.20428,-0.45508 0.45508,-0.45508 0.25077,0 0.9911,-0.3375 1.64453,-0.75 1.97613,-1.24749 2.11809,-1.04822 1.32813,1.86133 -0.50655,1.86567 -2.52739,10.25831 -3.88477,16.13867 -0.45705,1.98 -1.69099,6.09789 -2.74219,9.15039 -4.32045,12.54615 -5.06436,15.57848 -5.5332,22.5293 l -0.37695,5.58008 1.14843,4.32031 c 1.61508,6.07515 2.37183,8.23184 4.55664,12.99023 2.98473,6.50061 4.18547,10.15156 6.41993,19.52149 0.83874,3.51714 1.43042,5.31133 1.48632,4.50781 0.0115,-0.165 0.20893,0.13074 0.4375,0.65625 0.75012,1.72467 2.22482,11.81565 2.71094,18.54492 0.50754,7.02574 1.36646,14.79081 2.20508,19.94922 0.43083,2.65008 0.479,4.31646 0.31055,10.5 -0.18417,6.75954 -1.00381,20.57532 -1.76368,29.70117 -0.17171,2.0625 -0.51894,8.06371 -0.76953,13.33594 -0.25059,5.2722 -0.50274,9.63165 -0.56054,9.68945 -0.0578,0.0578 -4.81202,0.14822 -10.56446,0.19922 -5.75244,0.051 -15.24992,0.31104 -21.10742,0.57813 -8.11065,0.36981 -16.30248,0.47062 -34.35156,0.42382 -22.39491,-0.0581 -23.85193,-0.0296 -26.46289,0.51758 -1.51972,0.31846 -2.85637,0.48543 -2.9707,0.3711 -0.11433,-0.11433 -1.14168,-3.68653 -2.28321,-7.9375 -1.42058,-5.29002 -2.29947,-9.28975 -2.78711,-12.67774 -0.39186,-2.7225 -1.20383,-7.58328 -1.80468,-10.80078 -1.07804,-5.77272 -1.62962,-8.83716 -2.80274,-15.59961 -1.09195,-6.29451 -1.32619,-12.29056 -0.91797,-23.49805 0.25473,-6.9933 0.2926,-13.47414 0.11914,-20.84961 -0.32191,-13.68783 -0.30038,-16.34206 0.15821,-18.85156 0.75556,-4.13463 0.30866,-2.75215 8.98242,-27.85156 1.91652,-5.54586 3.34556,-9.24117 4.05859,-10.5 1.0254,-1.81026 1.89596,-4.35875 2.86328,-8.375 l 0.87305,-3.625 -0.28516,-6.29883 c -0.30576,-6.74013 -0.72194,-9.30078 -1.51367,-9.30078 -0.54672,0 -2.89695,-2.60363 -3.29492,-3.65039 -0.14729,-0.38739 -0.39278,-0.66945 -0.54687,-0.62695 -0.1541,0.0425 -1.77662,-1.32053 -3.60547,-3.0293 -3.59579,-3.35964 -4.96675,-4.50936 -6.52539,-5.47266 -2.40794,-1.48818 -1.31764,-0.009 4.04492,5.48633 l 5.73633,5.87891 -0.16993,2.05664 c -0.17297,2.10588 -0.68718,5.04893 -1.48828,8.50781 -0.70561,3.04659 -0.97144,4.23339 -1.31054,5.84961 -0.17309,0.825 -0.59497,2.72647 -0.9375,4.22461 -0.34252,1.49817 -0.57929,3.18567 -0.5254,3.75 0.0954,0.99969 0.10988,0.98255 0.60938,-0.625 1.84516,-5.93823 4.06937,-14.97318 4.50391,-18.29883 0.0567,-0.43407 0.26685,-0.71551 0.49804,-0.66601 0.2197,0.047 0.58758,-0.0702 0.81836,-0.26172 0.35473,-0.29439 0.32233,-0.50777 -0.21484,-1.37696 -0.79815,-1.29141 -0.4545,-1.72326 0.49414,-0.62109 0.39054,0.45375 0.98633,0.82422 1.32422,0.82422 0.57252,0 0.61328,0.17904 0.61328,2.625 -0.002,3.92124 -0.571,12.41859 -0.88867,13.27539 -0.15294,0.4125 -1.69505,4.54851 -3.42774,9.18945 -2.98523,7.99581 -7.38281,20.70781 -7.38281,21.34375 0,0.16185 -0.21619,0.81084 -0.48047,1.44336 l -0.48047,1.15039 -0.39648,-0.73828 -0.39649,-0.73828 -0.29296,0.76367 c -0.90596,2.37051 -2.16602,4.78711 -2.4961,4.78711 -0.20893,0 -3.29679,-2.97156 -6.86328,-6.60156 -5.74455,-5.84682 -7.87451,-7.63848 -7.30273,-6.14844 0.24352,0.63459 0.0739,0.58444 -2.14063,-0.63281 -1.43833,-0.79059 -1.93046,-1.21689 -1.82422,-1.57617 0.59411,-2.00898 0.71151,-1.81325 -3.19922,-5.37305 -2.03704,-1.85424 -5.2741,-4.58974 -7.19336,-6.08008 -1.91926,-1.49034 -3.89333,-3.17049 -4.38671,-3.73242 -0.49337,-0.56193 -2.07447,-2.92109 -3.51172,-5.24414 -1.437257,-2.32302 -2.729307,-4.29792 -2.873047,-4.38672 -0.67277,-0.4158 0.23046,3.03653 1.37305,5.24609 0.27565,0.53304 0.459497,1.0871 0.408197,1.23047 -0.0513,0.14337 -1.385577,-0.66503 -2.964837,-1.79687 -2.55115,-1.82841 -3.05782,-2.35425 -4.54493,-4.70703 -3.82881,-6.05757 -6.30924,-11.88577 -8.01171,-18.82813 -1.09396,-4.46091 -1.67298,-4.63662 -1.43946,-0.43554 0.27026,4.86185 1.45106,8.72337 4.59571,15.04101 0.88289,1.77375 1.5315,3.22461 1.4414,3.22461 -0.0901,0 -1.48737,-1.01316 -3.10351,-2.25195 -3.11192,-2.38533 -5.53585,-4.77484 -5.99805,-5.91211 -3.41012,-8.3907 -4.04096,-11.81366 -3.85352,-20.86133 0.0726,-3.50625 0.0452,-6.375 -0.0605,-6.375 -0.8286,0 -2.08671,6.2109 -2.09571,10.34961 -0.004,1.59642 0.56332,5.95261 1.08985,8.37109 0.41809,1.92042 -0.53338,0.25556 -2.93946,-5.14258 l -2.50781,-5.62695 0.0234,-7.35156 c 0.0139,-4.34589 0.16038,-7.90098 0.35937,-8.69922 0.41412,-1.66128 0.008,-2.29799 -0.82031,-1.28516 -0.71295,0.87201 -1.44349,4.07048 -1.69336,7.41407 -0.16884,2.25923 -0.25856,2.59719 -0.57812,2.16015 -0.53748,-0.73506 -1.02713,-3.73896 -1.17969,-7.23828 -0.0719,-1.65 -0.13848,-3.08595 -0.14648,-3.18945 -0.008,-0.1035 -0.63693,-0.11685 -1.39649,-0.0312 -0.94973,0.10707 -1.45579,0.0331 -1.62109,-0.23438 -0.1322,-0.2139 -0.47209,-1.95396 -0.75391,-3.86718 -0.55098,-3.74049 -0.68726,-4.38502 -0.88672,-4.18555 -0.2295,0.2295 0.44472,7.84143 0.91992,10.39062 0.44384,2.38092 0.43807,2.52177 -0.12695,3.44922 -0.7396,1.21401 -3.05076,5.5997 -6.12305,11.61719 -1.30576,2.5575 -2.85769,5.52711 -3.44726,6.59961 -3.03511,5.52117 -8.43562,15.03373 -12.12695,21.36133 -2.28169,3.91122 -4.43585,7.62372 -4.78711,8.25 -1.35502,2.41593 -8.45207,14.70611 -9.23243,15.98828 -0.45191,0.7425 -1.21304,2.0925 -1.6914,3 -1.31939,2.50302 -6.13164,11.35215 -7.09766,13.05078 -5.10082,8.96919 -7.01882,12.56538 -10.8828101,20.40039 -2.03432,4.125 -3.79502,7.95405 -3.91211,8.50977 -0.1171,0.55572 -0.58247,1.90807 -1.03516,3.00586 -1.19799001,2.90508 -1.69198001,5.00696 -1.29101001,5.49023 0.17952,0.21636 0.68095,1.33914 1.11523001,2.49414 1.7622,4.68667 9.0099801,17.27998 14.0976601,24.49414 2.54867,3.61392 7.90036,11.90823 8.85351,13.72266 0.6931,1.31943 8.58622,10.92629 12.96875,15.7832 4.87638,5.40423 15.95092,16.04613 21.22852,20.40039 l 0.72656,0.59961 -0.64453,-0.90039 c -0.35419,-0.495 -2.7751,-3.14776 -5.38086,-5.89453 -14.83087,-15.63333 -17.71566,-18.78219 -16.58789,-18.10938 0.2475,0.14766 2.47422,2.18829 4.94922,4.53516 4.94151,4.68567 10.48578,9.50987 13.05078,11.35742 0.9075,0.65367 2.86461,2.14746 4.34961,3.31836 2.92162,2.30364 6.59713,4.84505 8.20703,5.67383 l 1.00781,0.51758 -0.54687,-0.72461 c -0.30081,-0.39882 -2.63807,-2.40079 -5.19336,-4.44922 -12.12376,-9.71886 -22.20297,-19.10654 -30.89844,-28.77539 -6.43844,-7.15917 -9.91193,-11.52504 -16.11328,-20.25 -3.39467,-4.77612 -14.81250011,-23.4367 -14.81250011,-24.20899 0,-0.15597 0.32017,-0.84774 0.71289001,-1.53711 0.39272,-0.68939 0.95711,-1.9289 1.25391,-2.7539 0.29679,-0.825 0.7595,-1.8375 1.02734,-2.25 0.26784,-0.4125 1.14126,-2.03211 1.94141,-3.59961 1.79387,-3.5142 9.0018901,-16.51944 14.7128901,-26.54883 2.34889,-4.125 5.59021,-9.93039 7.20312,-12.90039 3.47942,-6.40701 4.06056,-7.30267 4.61914,-7.11328 0.30338,0.10287 0.37282,-0.0359 0.25196,-0.49805 -0.0921,-0.35232 -0.0442,-0.56515 0.10547,-0.47265 0.14961,0.0925 0.27148,-0.0357 0.27148,-0.28711 0,-0.25137 0.35992,-1.10493 0.79883,-1.89453 0.4389,-0.7896 0.90308,-1.63727 1.0332,-1.88477 0.52176,-0.9924 2.32506,-5.32286 2.67383,-6.42188 0.41315,-1.30187 2.86239,-3.92181 4.43945,-4.75 0.80533,-0.42291 1.26789,-1.10756 2.4375,-3.5996 1.91036,-4.07031 4.44056,-9.6145 7.15235,-15.67774 0.44278,-0.99 1.93759,-4.09539 3.32226,-6.90039 3.76303,-7.623 5.53512,-11.42578 6.64453,-14.25391 1.39695,-3.56115 1.82507,-3.98406 2.18946,-2.1621 0.0932,0.46589 0.77112,2.12555 1.50586,3.6875 0.73475,1.56198 1.60929,3.71388 1.94336,4.7832 1.16622,3.73284 2.70216,7.37582 4.86914,11.54492 1.20067,2.31 2.36405,4.46555 2.58593,4.79102 0.22189,0.32547 0.4043,0.96109 0.4043,1.4121 0,1.90756 5.01074,8.30605 10.65039,13.59766 1.75852,1.65 4.47972,4.26001 6.04688,5.80078 1.56717,1.54074 2.90841,2.74393 2.97851,2.67383 0.0701,-0.0701 -1.08273,-1.52804 -2.56055,-3.24023 -1.4778,-1.71219 -2.63345,-3.16733 -2.56835,-3.23243 0.10541,-0.10542 6.91889,4.64203 13.056637,9.09571 1.23973,0.89955 3.4684,2.85289 4.95117,4.34179 1.48277,1.4889 2.79617,2.70899 2.91992,2.70899 0.12375,7.5e-4 0.22461,-0.2103 0.22461,-0.46875 0,-0.32103 0.57685,-0.0179 1.82031,0.95898 2.74898,2.15973 6.88086,6.11124 6.88086,6.58008 0,0.22803 0.82614,1.05929 1.83594,1.84766 3.01212,2.35155 6.25266,5.14712 9.01367,7.77734 2.34166,2.23074 6.41837,5.20508 7.13477,5.20508 0.71092,0 0.50886,0.89593 -1.20118,5.3125 -3.09243,7.98693 -4.48437,12.82845 -4.48437,15.60156 0,0.56187 -0.14473,1.59765 -0.32227,2.30274 -0.17751,0.70506 -0.27585,1.74435 -0.21875,2.30859 0.0991,0.97821 0.13038,0.94097 0.65625,-0.77539 0.30332,-0.99 0.81696,-2.54172 1.14258,-3.44922 0.32563,-0.9075 0.96072,-2.86623 1.41211,-4.35156 1.18048,-3.88443 2.4354,-7.04883 2.79297,-7.04883 0.18111,0 0.23219,0.34026 0.125,0.82422 -0.57163,2.58066 -0.79603,10.11354 -0.45703,15.31836 0.22002,3.37812 0.2826,7.99848 0.16406,12 -0.50046,16.89325 -0.56762,25.79778 -0.22265,29.30664 0.34835,3.54345 2.06605,14.10213 3.49023,21.45117 0.88243,4.55355 1.81268,10.06395 2.07617,12.29883 0.10699,0.9075 0.44576,2.39328 0.75195,3.30078 0.3062,0.9075 0.91764,3.27 1.35938,5.25 0.44175,1.98 1.27147,5.3519 1.84375,7.49414 0.57229,2.14224 0.9789,4.12861 0.9043,4.41406 -0.0747,0.28545 0.0351,0.66248 0.24414,0.83594 0.20901,0.17346 0.67998,1.22459 1.04687,2.33594 1.08025,3.27219 3.5762,9.30227 5.11719,12.36914 1.39188,2.77008 6.13344,11.09121 7.18164,12.60156 0.90102,1.29834 2.50995,4.50372 2.34375,4.66992 -0.0875,0.0875 -1.84962,0.0119 -3.91602,-0.16601 -3.72945,-0.32115 -6.90517,-0.95812 -7.58398,-1.52149 -0.19456,-0.16149 -0.65717,-1.13353 -1.02734,-2.16211 -1.36686,-3.798 -3.48655,-8.37824 -7.66993,-16.57031 -5.74525,-11.2506 -7.16113,-15.43109 -7.91992,-23.37695 -0.45,-4.71237 -0.43622,-4.9141 0.36133,-5.02735 0.56791,-0.0807 0.69098,-0.31068 0.77149,-1.44336 0.11356,-1.59695 -0.93751,-16.26366 -1.77344,-24.7539 -0.32491,-3.3 -0.79392,-8.3625 -1.04297,-11.25 -0.60597,-7.02564 -1.83045,-18.01233 -2.43945,-21.89844 -0.37045,-2.36385 -0.49229,-5.19137 -0.48829,-11.32617 0.003,-4.49625 -0.10423,-8.17383 -0.23828,-8.17383 -0.57325,0 -0.83148,1.31919 -0.97656,4.9668 -0.085,2.13576 -0.24224,5.02914 -0.34766,6.43164 -0.14512,1.93045 0.10546,5.46636 1.02735,14.55078 1.58014,15.57078 4.22942,44.15889 4.23242,45.67578 4.5e-4,0.2063 -0.16232,0.34003 -0.36133,0.29883 -0.57066,-0.11829 -0.7922,2.12754 -0.8164,8.28906 -0.0417,10.63431 0.88193,13.89486 7.95898,28.08594 6.36669,12.76662 7.33249,15.06627 7.6582,18.24219 0.14059,1.37097 0.46013,3.3723 0.70899,4.44531 0.55126,2.37702 0.55428,2.55845 0.0586,3.23633 -0.37536,0.51333 -0.50757,0.50262 -2.86523,-0.24219 C 144.06037,450.15119 142.98692,450 140.50024,450 c -6.96635,0 -30.18892,-1.93701 -39.33594,-3.28125 -3.153997,-0.46353 -11.640167,-2.29474 -14.701167,-3.17187 -1.485,-0.42555 -3.64383,-1.0432 -4.79883,-1.37305 -1.155,-0.32982 -3.18,-0.86257 -4.5,-1.1836 -1.32,-0.32106 -2.63536,-0.71985 -2.92187,-0.88671 -0.72385,-0.4215 -0.82813,-0.38728 -0.82813,0.27539 0,0.51879 1.40341,1.82031 1.96289,1.82031 0.12134,0 1.81935,0.61002 3.77344,1.35351 6.54416,2.48991 11.72513,3.852 20.4375,5.37696 0.618747,0.1083 1.124997,0.26365 1.124997,0.34375 0,0.08 -0.47919,0.56642 -1.066407,1.08203 -1.65115,1.44972 -2.30887,3.00882 -2.5664,6.09375 -0.12397,1.485 -0.36403,3.57789 -0.53321,4.65039 -1.8297,11.59938 -3.02105,27.21234 -3.51367,46.05078 -0.19934,7.62291 0.27392,28.32803 0.76172,33.32813 0.15944,1.63437 0.43424,5.3332 0.60938,8.2207 0.17515,2.8875 0.39598,6.02781 0.49218,6.97656 0.13836,1.36455 0.0874,1.72461 -0.24609,1.72461 -0.23185,0 -0.56875,-0.37242 -0.74805,-0.82617 -0.26758,-0.67716 -0.34464,-0.15216 -0.43164,2.92578 -0.19135,6.77208 -0.14736,7.2724 0.75977,8.82031 0.91085,1.55424 2.64515,2.95891 4.33203,3.50781 0.60573,0.19711 1.525947,0.71046 2.044917,1.14063 3.11864,2.58489 7.86547,6.10644 9.60352,7.125 3.32736,1.94997 9.18658,3.51251 14.58789,3.89063 1.6143,0.11301 2.99174,0.2969 3.06054,0.4082 0.0688,0.11133 0.14994,3.0278 0.18164,6.48047 0.0317,3.45267 0.18191,7.35773 0.33399,8.67773 0.26693,2.3169 0.3318,3.3735 0.47266,7.72461 0.0361,1.11375 0.16726,2.02344 0.29101,2.02344 0.12375,-10e-4 0.46825,-0.43077 0.76563,-0.95313 0.48883,-0.85866 0.55251,-2.05154 0.6582,-12.44726 0.0643,-6.32436 0.19897,-11.6341 0.30078,-11.79883 0.10181,-0.16473 0.78481,-0.29883 1.51758,-0.29883 1.65055,0 1.74695,-0.47832 0.15039,-0.74805 -1.30725,-0.22086 -1.97771,-0.80594 -1.71289,-1.49609 0.1387,-0.36144 0.33756,-0.38811 1.00391,-0.13476 2.73186,1.03865 6.69143,1.7704 11.20898,2.07031 5.72117,0.37977 8.8238,0.13972 16.14062,-1.2461 4.59084,-0.86952 5.04889,-0.90527 7.05079,-0.55664 1.17744,0.20505 2.28986,0.4156 2.47265,0.4668 0.19977,0.056 0.41595,1.38958 0.54102,3.34375 0.11442,1.78794 0.33989,4.46422 0.50195,5.94922 0.34845,3.19296 2.3076,11.49914 2.86914,12.16601 0.43326,0.51453 0.19726,2.62606 -0.63476,5.68555 -1.86105,6.84351 -2.00533,7.58254 -1.56055,8.02734 0.6333,0.63328 1.60355,0.20735 2.44922,-1.07617 0.71148,-1.07982 1.07949,-2.79241 1.57812,-7.33789 0.12279,-1.11933 0.35844,-2.05307 0.52344,-2.07617 0.165,-0.023 1.15353,1.43204 2.19531,3.23438 l 1.89258,3.27734 -0.14062,2.32617 c -0.0833,1.37604 -0.0266,2.25522 0.13671,2.1543 0.52383,-0.32376 1.4668,-2.50921 1.4668,-3.39844 0,-0.93486 -2.60984,-6.31524 -3.57422,-7.36914 -0.61182,-0.66858 -2.12695,-3.55536 -2.12695,-4.05273 0,-0.79572 1.26066,-0.19695 2.21484,1.05273 1.15407,1.51143 4.68441,9.54051 4.69141,10.66992 0.003,0.39513 0.12599,0.91042 0.27539,1.14649 0.20001,0.31608 0.32871,0.12586 0.48828,-0.72461 0.39303,-2.09505 -1.52789,-8.59437 -3.42383,-11.58399 -0.76869,-1.21209 -1.03538,-1.39419 -2.52929,-1.72851 -0.91839,-0.20553 -1.80541,-0.53716 -1.97071,-0.73633 -0.16527,-0.19914 -0.34207,-1.28323 -0.39258,-2.4082 -0.0625,-1.39134 -0.22982,-2.1228 -0.52343,-2.28711 -0.28524,-0.15963 -0.50366,-1.04024 -0.64649,-2.59961 -0.28986,-3.16485 -0.8377,-7.91931 -1.1875,-10.31055 -0.23901,-1.63386 -0.21047,-2.00602 0.17578,-2.29492 0.45021,-0.33672 3.21562,-1.25069 7.51954,-2.48633 1.60497,-0.4608 2.50527,-0.94141 3.5996,-1.91797 2.48101,-2.214 4.45508,-2.5596 6.00977,-1.05273 0.77334,0.74955 1.2473,0.95361 2.26367,0.97461 l 1.28711,0.0273 0.16602,-12.30078 c 0.15876,-11.77557 0.19937,-12.47229 0.96875,-16.34961 0.44199,-2.2275 1.07273,-5.53461 1.40234,-7.34961 0.32964,-1.815 0.93687,-5.12211 1.34766,-7.34961 0.41082,-2.2275 1.07146,-5.87211 1.46875,-8.09961 0.56103,-3.14538 1.23851,-5.45874 3.0332,-10.35156 1.27098,-3.465 2.58181,-7.1775 2.91406,-8.25 0.33228,-1.0725 1.14174,-3.33219 1.79883,-5.02344 1.13703,-2.92656 1.23737,-3.07617 2.07227,-3.07617 0.8755,0 0.87786,0.003 0.88086,1.875 0.002,1.03125 0.19012,2.4949 0.41992,3.25195 0.40986,1.35036 0.72027,2.17034 3.33594,8.82422 6.17595,15.71091 7.74654,20.84889 9.41601,30.80664 1.64427,9.80745 1.82422,11.22705 1.82422,14.37696 0,5.77806 1.02391,7.5655 5.56641,9.71679 1.52406,0.72174 2.82738,1.48026 2.89648,1.6875 0.0985,0.29556 0.81777,0.25811 3.33789,-0.17383 2.99115,-0.51274 3.34275,-0.51677 5.08203,-0.0723 1.02741,0.26259 3.85778,0.62484 6.29102,0.80664 2.6001,0.19425 6.0636,0.69389 8.40039,1.21094 2.18676,0.48384 4.6111,0.88176 5.38672,0.88476 0.77562,0.003 2.05773,0.13611 2.84961,0.29688 2.19141,0.4449 8.65779,0.89058 17.75586,1.22265 4.51827,0.16494 8.35171,0.38457 8.51953,0.48828 0.32745,0.20238 0.13794,8.45047 -0.375,16.29688 -0.15642,2.3925 -0.37813,7.7925 -0.49219,12 -0.11409,4.2075 -0.32159,7.72481 -0.46094,7.81641 -0.13938,0.0916 -3.29767,0.19235 -7.01758,0.22265 -6.13749,0.05 -6.89933,0.11291 -8.23046,0.68555 -3.05664,1.3149 -3.20133,2.79802 -0.1875,1.92187 1.32957,-0.38652 3.35883,-0.5169 9.26562,-0.5957 4.20225,-0.056 9.36286,-0.31012 11.61328,-0.57031 7.39713,-0.8553 12.66256,-0.48658 16.32031,1.14062 0.97413,0.43335 1.82548,0.73302 1.89258,0.66602 0.33063,-0.33063 -2.29396,-2.34921 -3.77734,-2.9043 -2.91978,-1.09266 -4.65783,-1.26697 -10.53711,-1.06054 -3.0525,0.10718 -5.88633,0.22511 -6.29883,0.26171 l -0.75,0.0664 0.0859,-2.84961 c 0.0474,-1.5675 0.21079,-4.06578 0.36328,-5.55078 0.41346,-4.02564 1.03497,-15.44146 1.04297,-19.14844 0.006,-2.78739 -0.0701,-3.30598 -0.5332,-3.64453 -0.39678,-0.29007 -0.58751,-0.96772 -0.72071,-2.55664 l -0.18164,-2.16211 2.52149,0.17578 c 5.89587,0.41028 12.50502,0.53494 13.05273,0.2461 0.31293,-0.165 1.58086,-0.42911 2.81836,-0.58789 2.65758,-0.34096 4.88276,-1.52309 8.13281,-4.32032 3.93903,-3.39021 4.8056,-6.50561 4.8086,-17.28125 0.001,-7.17474 -0.054,-7.95562 -0.99805,-14.23828 -0.60669,-4.03722 -0.60822,-4.13961 -0.0586,-5.25 0.39102,-0.78993 0.5433,-1.67608 0.5,-2.93164 -0.0341,-0.99 0.13569,-2.41325 0.3789,-3.16211 0.55475,-1.70802 0.54673,-7.29688 -0.0312,-20.53906 -0.42231,-9.67524 -0.48835,-10.94328 -1.04101,-19.94922 -0.70305,-11.45724 -1.94644,-27.4186 -2.23438,-28.67773 -0.36399,-1.59156 -1.03369,-7.11615 -0.89062,-7.34766 0.24537,-0.39696 3.10793,-1.17383 4.32421,-1.17383 0.59514,0 1.61785,-0.28725 2.27149,-0.63672 0.65364,-0.34944 1.65979,-0.72316 2.23633,-0.83008 0.70803,-0.13131 1.16462,-0.43614 1.40429,-0.93945 0.53439,-1.12224 1.10206,-12.1394 0.71485,-13.86719 -0.17269,-0.77037 -0.29489,-2.72161 -0.27149,-4.33789 0.0235,-1.61631 -0.17792,-5.77523 -0.44921,-9.24023 -0.27126,-3.465 -0.62481,-8.59344 -0.78516,-11.39844 -0.28212,-4.93611 -0.2715,-5.14072 0.35547,-6.34375 l 0.64843,-1.24219 -0.35742,-12.70703 c -0.19611,-6.98886 -0.54954,-15.47492 -0.78711,-18.85742 -0.69258,-9.86085 -0.89422,-22.08798 -0.49804,-30.30078 0.61275,-12.7017 1.8751,-32.78268 2.42383,-38.54883 0.15702,-1.65 0.49193,-6.84828 0.74414,-11.55078 0.32251,-6.01358 0.54437,-9.37003 1.0625,-13.63672 l 0,-47.10547 -11.9336,-58.96875 -1.5957,-4.26562 c -2.92036,-1.84039 -5.61124,-2.20021 -8.44531,-1.12305 -2.12637,0.8082 -2.57979,0.7719 -2.79297,-0.22461 -0.33438,-1.56321 -0.72691,-2.22179 -1.26367,-2.11914 -0.33837,0.0647 -0.57458,0.46764 -0.67188,1.14648 -0.12522,0.87376 -0.28584,1.06338 -0.97461,1.14258 -0.53037,0.061 -0.82437,-0.0469 -0.82422,-0.30078 0.006,-9.17241 -0.45008,-12.8457 -1.59179,-12.8457 -0.34662,0 -0.45451,1.39905 -0.60547,7.875 -0.10098,4.33125 -0.38077,10.16629 -0.6211,12.96484 -0.44169,5.14356 -0.34814,6.16016 0.56641,6.16016 0.23589,0 0.55493,-0.23469 0.70898,-0.52344 0.30399,-0.56976 0.8457,-4.64468 1.18164,-8.90234 0.1161,-1.47168 0.34983,-2.72055 0.52149,-2.77735 0.17169,-0.0568 0.57557,0.0876 0.89648,0.32227 0.57369,0.41949 0.57545,0.48223 0.0469,3.67969 -0.29571,1.78881 -1.19164,6.01984 -1.99024,9.40234 -0.79863,3.3825 -1.53721,6.73405 -1.64062,7.44727 -0.17685,1.2198 -0.14703,1.29022 0.49023,1.19922 0.99843,-0.14262 1.85354,-1.94482 3.00782,-6.3379 0.55503,-2.11236 1.13633,-3.86779 1.29296,-3.90039 0.1566,-0.0326 0.40748,0.57387 0.55665,1.34571 0.22425,1.16028 0.16333,1.65363 -0.34961,2.84961 -0.88257,2.05788 -5.45517,14.37359 -5.95899,16.04882 -0.80952,2.69184 -0.98672,4.17544 -0.51758,4.35547 0.75807,0.29088 1.5659,-0.82686 2.61719,-3.62304 1.59702,-4.24794 1.5122,-4.12759 1.62305,-2.3086 0.12006,1.96992 0.086,2.04268 -6.04688,12.68164 -2.44407,4.23981 -4.35556,7.85145 -4.24804,8.02539 0.34203,0.55341 1.25198,0.34174 2.07617,-0.48242 0.82461,-0.82461 2.18853,-2.82583 4.18359,-6.14062 2.41092,-4.00566 2.63671,-4.33665 2.42578,-3.56055 -0.11211,0.4125 -0.45355,1.10295 -0.75781,1.53516 -0.30423,0.43221 -0.69141,1.15267 -0.86133,1.59961 -0.46365,1.21944 -2.93268,5.21438 -4.27344,6.91601 -0.65004,0.825 -2.43358,2.79174 -3.96484,4.3711 -3.61287,3.72633 -3.97826,4.27701 -3.46484,5.23632 0.35781,0.66861 0.31798,0.78665 -0.48047,1.39844 -4.28688,3.28482 -11.14119,11.85308 -10.03125,12.53906 0.58974,0.3645 -2.30015,2.67626 -6.31446,5.05274 -5.33855,3.16047 -8.4893,5.72089 -11.64062,9.45898 -1.24503,1.47687 -0.97527,1.76496 0.52344,0.56055 2.06292,-1.65777 9.69256,-6.71562 9.86718,-6.54102 0.53121,0.53121 -4.47981,5.17745 -12.22851,11.33789 -1.2375,0.98385 -2.91227,2.41827 -3.72266,3.1875 -1.86564,1.7709 -6.66816,8.16887 -7.46484,9.94532 -0.37377,0.83343 -0.7606,2.77731 -1.01563,5.09961 -0.22668,2.06421 -0.49159,4.42695 -0.58789,5.25195 -0.23136,1.98294 0.24537,3.61186 1.6836,5.76562 1.15305,1.72671 1.18651,1.85369 1.35547,5.05274 0.28848,5.46198 0.97883,9.72393 2.61914,16.18164 2.02863,7.98636 2.48915,10.877 3.37109,21.15039 0.89961,10.47876 1.22268,44.68509 0.52344,55.34961 -0.50118,7.64433 -0.91811,19.62297 -1.09571,31.5 -0.14736,9.85227 -0.44235,13.32785 -1.18164,13.9082 -0.56466,0.44328 -2.83385,0.61601 -3.13086,0.23828 -0.14913,-0.18969 -0.49921,-2.84398 -0.77734,-5.89648 -0.27813,-3.05251 -0.69876,-6.49344 -0.93555,-7.64844 -0.23676,-1.155 -0.58178,-2.8425 -0.76562,-3.75 -0.35886,-1.77174 -0.18326,-4.03681 0.36328,-4.69531 0.24891,-0.29943 0.24879,-0.40625 0,-0.40625 -0.21558,0 -0.33789,-0.72452 -0.33789,-2.01563 0,-3.07995 1.16149,-25.35553 1.49023,-28.58398 0.15963,-1.5675 0.38098,-6.02289 0.49219,-9.90039 0.1911,-6.66183 0.24195,-7.12974 0.9336,-8.51172 l 0.73242,-1.46289 -0.11328,-8.4375 c -0.0758,-5.68149 -0.22912,-8.7123 -0.47266,-9.28125 -0.36606,-0.85515 -1.07288,-3.89607 -1.55078,-6.67383 -0.14361,-0.83481 -0.4766,-3.87231 -0.74024,-6.75 -1.11009,-12.11724 -1.39935,-13.84233 -4.05273,-24.13281 -0.75849,-2.94165 -0.98662,-4.6134 -1.24219,-9.14844 -0.17199,-3.0525 -0.39108,-5.88828 -0.48828,-6.30078 -0.16395,-0.6957 -0.20519,-0.66393 -0.55469,0.44922 -0.23968,0.76314 -0.31488,2.01047 -0.20703,3.42383 0.12558,1.64493 0.0799,2.16507 -0.17773,2.00586 -0.19143,-0.11829 -0.34766,-0.40579 -0.34766,-0.63868 0,-0.91836 -2.41693,-7.66288 -3.8125,-10.64062 -2.20503,-4.70484 -3.20403,-7.18271 -2.98437,-7.40234 0.10809,-0.1081 0.23977,-0.14097 0.29297,-0.0723 0.0533,0.0688 1.64434,2.08211 3.53515,4.47461 3.94122,4.98696 6.22894,8.24723 8.10352,11.54687 1.56717,2.75856 1.95935,2.26241 0.53906,-0.68164 -0.53481,-1.10853 -1.26165,-2.69505 -1.61523,-3.52734 -0.71763,-1.68909 -3.49493,-5.72404 -6.28907,-9.13672 -3.12003,-3.81072 -5.76636,-7.30677 -6.24609,-8.25 -0.47799,-0.93981 -1.125,-4.50416 -1.125,-6.20117 0,-1.09002 1.52415,-6.26746 3.20898,-10.90039 1.50951,-4.15089 3.60796,-8.60102 7.24414,-15.36914 1.7052,-3.17394 3.05189,-5.91853 2.99219,-6.09766 -0.4077,-1.22313 -4.38778,4.44668 -8.04883,11.46485 -1.29429,2.48112 -2.44738,4.59939 -2.56054,4.70703 -0.44271,0.42111 0.2771,-1.92287 1.23437,-4.02344 0.55455,-1.21692 1.4024,-3.33119 1.88477,-4.69727 0.48234,-1.36605 1.57965,-4.17187 2.43945,-6.23437 0.8598,-2.0625 2.01455,-4.82844 2.56445,-6.14844 2.44143,-5.86044 5.92918,-13.66911 6.17383,-13.82031 0.41751,-0.25803 0.31541,-0.73047 -0.1582,-0.73047 -0.80901,0 -2.62243,2.56126 -4.54492,6.41797 -2.59377,5.20332 -2.52317,4.26914 0.42187,-5.51758 0.67032,-2.2275 1.29557,-4.41899 1.38867,-4.86914 0.12177,-0.58884 0.86304,-1.32531 2.64063,-2.62695 1.359,-0.9951 2.68985,-1.97692 2.95898,-2.18164 0.46785,-0.35592 2.09347,-2.55084 4.27735,-5.77344 0.55908,-0.825 1.80825,-2.5452 2.77539,-3.82422 2.65206,-3.5073 7.09913,-10.5645 9.7832,-15.52539 0.49098,-0.9075 1.18453,-2.05383 1.54297,-2.54883 0.35847,-0.495 1.16085,-2.04867 1.78125,-3.45117 1.20672,-2.72793 1.63566,-3.59714 3.63672,-7.35938 1.38021,-2.59494 2.494,-6.45448 4.02148,-13.93945 1.24267,-6.08955 1.71088,-9.7871 1.30078,-10.28125 -0.17943,-0.2162 -0.41998,-1.67153 -0.5332,-3.23242 -0.11322,-1.56089 -0.31864,-3.05852 -0.45703,-3.32813 -0.13839,-0.26962 -0.59641,-1.82133 -1.01758,-3.44921 -0.4929,-1.90529 -1.08843,-3.4119 -1.67187,-4.22852 -0.49851,-0.69771 -1.17324,-1.87267 -1.5,-2.61133 -0.82743,-1.87053 -0.65216,-3.97859 0.8164,-9.76953 0.27198,-1.0725 0.5909,-3.0975 0.70703,-4.5 0.14943,-1.80502 0.42994,-2.989 0.96289,-4.05078 0.41412,-0.825 0.92808,-2.03922 1.14063,-2.69922 0.21255,-0.66 0.5767,-1.49391 0.81055,-1.85351 0.40929,-0.629495 1.0545,-3.676881 1.57812,-7.447271 0.82446,-5.93643 1.29958,-8.452524 1.67188,-8.865234 0.32616,-0.36153 0.43885,-1.848843 0.50195,-6.601563 l 0.0723,-5.4375 -2.7832,-6.851562 -11.66601,-22.683594 -0.31055,-0.558594 c -0.29127,-0.52455 -1.12448,-2.090615 -1.84961,-3.478515 -1.19553,-2.28824 -1.92169,-3.123866 -7.80469,-8.972656 -4.47756,-4.45152 -7.09007,-6.810272 -8.43164,-7.613282 -1.86678,-1.11739 -3.18374,-1.892803 -7.26953,-4.283203 -3.00216,-1.75643 -10.70082,-5.912215 -12.82422,-6.921875 -7.45314,-3.5439197 -13.08609,-5.4453247 -21.15039,-7.1406248 -0.99,-0.20813 -2.81328,-0.6011968 -4.05078,-0.8730468 -4.28208,-0.9407 -5.67402,-1.0180069 -10.61328,-0.5917969 -2.62026,0.22606 -4.8819,0.3387 -5.02539,0.25 -0.14349,-0.08868 -0.26172,-0.35599 -0.26172,-0.59375 C 188.31274,0.9522725 187.18702,0 186.3811,0 Z m -53.69531,18.970703 c -0.13478,-0.13478 -3.17188,1.380091 -3.17188,1.582031 0,0.07792 0.73774,-0.221242 1.64063,-0.664062 0.90288,-0.44282 1.59275,-0.856469 1.53125,-0.917969 z m -3.92969,2.089844 c -0.0471,-0.01875 -0.32349,0.09477 -0.89258,0.388672 -0.825,0.42607 -1.8375,1.046929 -2.25,1.380859 -0.48128,0.38961 -0.20384,0.305052 0.77344,-0.236328 1.46414,-0.811044 2.47274,-1.491945 2.36914,-1.533203 z m -4.12305,2.433594 c -0.36156,0.07137 -1.83878,0.852701 -2.32031,1.253906 -0.2475,0.20622 -1.05633,0.709874 -1.79883,1.121094 -5.04644,2.79489 -9.50058,6.1938 -14.1289,10.78125 -2.27617,2.25606 -2.7191,2.893598 -4.54688,6.548828 -1.11385,2.2275 -2.711707,5.33289 -3.550777,6.90039 -1.30618,2.44012 -1.39397,2.699772 -0.60938,1.800782 0.50401,-0.5775 1.83227,-2.3666 2.951177,-3.97461 7.0613,-10.14793 8.40792,-11.873583 10.17773,-13.033203 0.78987,-0.51754 0.79428,-0.514819 0.44141,0.144531 -0.47119,0.88041 -0.23685,0.836412 1.26172,-0.230468 2.14392,-1.52633 2.49798,-1.935295 2.68945,-3.115235 0.10214,-0.62939 0.35999,-1.356644 0.57422,-1.615234 0.49743,-0.60042 5.30468,-4.158362 7.36523,-5.451172 0.86625,-0.54349 1.57422,-1.043781 1.57422,-1.113281 0,-0.02188 -0.0284,-0.02777 -0.0801,-0.01758 z M 91.267823,63.466797 c -0.44125,0.02286 -2.51292,4.562653 -3.10157,6.896484 -2.67514,10.60612 -4.36123,23.253888 -3.69726,27.736328 0.18331,1.2375 0.42081,3.600001 0.52734,5.250001 0.12849,1.98998 0.44181,3.70663 0.92969,5.09961 0.98511,2.81267 2.38595,7.38813 2.94141,9.60156 0.24844,0.99 0.66245,2.51581 0.91992,3.39258 0.28635,0.97512 0.47693,2.83972 0.49023,4.80078 0.0242,3.57454 -0.37572,4.89131 -2.1582,7.10547 -0.96463,1.19825 -0.96572,1.20394 -0.84961,4.14258 0.0705,1.7847 0.25248,3.02815 0.46289,3.1582 0.19083,0.11794 0.48306,0.75031 0.64844,1.40625 0.26088,1.03469 1.14743,3.65685 4.20508,12.42969 0.37102,1.06449 0.85863,2.29078 1.08398,2.72656 0.22535,0.43577 0.67931,1.5007 1.00781,2.36523 0.47123,1.24019 0.5057,1.5366 0.16602,1.40626 -0.57233,-0.21962 -0.55008,0.24281 0.0352,0.72851 0.25628,0.2127 1.00372,1.27506 1.66015,2.36133 0.65643,1.08627 1.86044,2.85328 2.67578,3.92578 0.815337,1.0725 1.919527,2.55828 2.453127,3.30078 1.00861,1.40346 2.95693,3.94296 4.3164,5.625 0.78707,0.97389 1.25915,1.30833 0.84571,0.59961 -0.12032,-0.20625 -0.59967,-0.93641 -1.06446,-1.62305 -0.82662,-1.22118 -5.05273,-9.46273 -5.05273,-9.85351 0,-0.10875 -0.39225,-1.09906 -0.873047,-2.19922 -0.4808,-1.10016 -1.01311,-2.75253 -1.18164,-3.67383 -0.16852,-0.92131 -0.73554,-2.60881 -1.25976,-3.75 -2.80304,-6.10197 -5.6502,-13.95877 -6.04102,-16.66992 -0.25335,-1.75748 -0.21282,-2.15672 0.33594,-3.36133 1.48806,-3.26648 2.88937,-11.06547 2.55273,-14.20898 -0.20482,-1.91256 -1.11998,-4.92945 -1.93554,-6.38477 -0.8765,-1.56407 -2.04733,-5.69518 -2.51172,-8.86133 -0.64852,-4.42145 -1.26848,-7.779044 -2.47461,-13.398434 -1.13777,-5.30087 -1.21091,-6.824077 -0.53906,-11.154297 0.48594,-3.13191 2.9708,-13.300472 4.06054,-16.613281 0.33938,-1.0317 0.55918,-2.0442 0.48828,-2.25 -0.014,-0.04062 -0.037,-0.05816 -0.0664,-0.05664 z m 33.154287,19.46875 c -0.49664,0.01076 -1.00936,0.07635 -1.6582,0.171875 -2.60861,0.38404 -5.22985,1.193801 -7.34961,2.269531 -2.22724,1.13026 -6.40453,3.041303 -7.12109,3.257813 -0.79655,0.24069 -5.84534,6.441898 -7.71875,9.480468 -3.596857,5.833946 -6.478637,15.474516 -5.312497,17.771486 0.18524,0.36487 0.6097,1.41256 0.94336,2.32812 0.89197,2.44753 2.19159,4.33344 4.914057,7.125 2.69595,2.76437 5.91475,4.97775 9.42187,6.48047 1.27687,0.5471 3.53649,1.66984 5.02149,2.49414 3.15026,1.74868 7.00132,3.32914 10.80078,4.43555 4.9228,1.43352 10.22505,1.05863 12.19922,-0.86328 0.38508,-0.37489 1.44989,-1.10414 2.36523,-1.6211 0.91534,-0.51693 2.21427,-1.52026 2.88672,-2.22851 0.67245,-0.70826 2.27167,-2.29961 3.55469,-3.53711 1.28302,-1.2375 2.51169,-2.67627 2.73047,-3.19727 0.21877,-0.52101 0.70662,-1.19688 1.08203,-1.50195 1.21211,-0.98503 1.56906,-1.65253 1.72656,-3.2168 0.11028,-1.09517 0.28426,-1.5332 0.60547,-1.5332 0.65919,0 0.71907,1.38712 0.16602,3.85547 -0.49509,2.2097 -1.40498,4.54247 -3.99219,10.24414 -0.82358,1.815 -1.78182,4.07664 -2.13086,5.02539 -0.9228,2.50832 -0.28058,2.28448 3.07031,-1.0664 4.73981,-4.73981 7.05712,-9.92104 7.07032,-15.8086 0.005,-2.09713 -0.11415,-2.76311 -0.66993,-3.75 -0.3717,-0.66 -0.96243,-1.32731 -1.3125,-1.48242 -0.61334,-0.2718 -0.63178,-0.43356 -0.51562,-4.45117 0.0663,-2.2929 0.24571,-4.40213 0.39844,-4.6875 0.15273,-0.28536 0.44214,-1.69214 0.64257,-3.125 0.26235,-1.87531 0.48334,-2.60547 0.78907,-2.60547 0.61989,0 0.23828,-0.96507 -1.29688,-3.281251 -2.55915,-3.86113 -3.71887,-5.369458 -4.88476,-6.361328 -1.42282,-1.21043 -7.1712,-4.163708 -10.08399,-5.179688 -1.97619,-0.6893 -4.6306,-1.666147 -9.15039,-3.367187 -4.36513,-1.64283 -5.70148,-2.106486 -7.19141,-2.074219 z m 57.59766,26.035153 c -0.6372,0.0325 -1.36138,0.54592 -1.92578,1.58008 -0.6372,1.16752 -1.06871,2.18538 -3.29492,7.79883 -3.81354,9.616 -5.29414,15.10539 -4.375,16.21289 0.19668,0.23694 0.51166,0.33091 0.69922,0.20898 0.18756,-0.12193 3.98445,-0.24333 8.43945,-0.26953 4.455,-0.0262 8.39336,-0.0591 8.75195,-0.0742 0.35859,-0.0151 1.06704,-0.37564 1.57227,-0.80078 0.50526,-0.42513 1.38809,-0.90184 1.96289,-1.06054 1.51995,-0.41968 2.86328,-1.65327 2.86328,-2.62696 0,-0.46138 -0.48135,-1.45572 -1.125,-2.32617 -2.5935,-3.50732 -5.72506,-8.21503 -7.15039,-10.75 -1.3944,-2.47999 -1.67031,-2.79023 -3.22461,-3.60156 -1.64962,-0.86111 -1.69922,-0.92251 -1.69922,-2.12695 0,-1.45359 -0.67488,-2.20583 -1.49414,-2.16407 z m 103.89258,19.5 c -0.14972,-0.005 -0.31965,0.0951 -0.42774,0.26563 -0.49173,0.77583 0.11856,3.40899 1.55664,6.71289 1.81686,4.17403 4.47266,11.41447 4.47266,12.19531 0,0.82024 0.56787,1.81088 0.91602,1.5957 0.41133,-0.25421 0.50919,0.1406 1.16601,4.72461 0.34716,2.42292 0.79443,4.42715 1.08789,4.875 0.27405,0.41829 0.61146,0.75977 0.75,0.75977 0.79923,0 0.53635,-6.55732 -0.48242,-12 -0.23163,-1.2375 -0.47782,-2.85711 -0.54492,-3.59961 -0.19098,-2.11405 -1.42573,-6.33201 -2.03125,-6.9375 -0.5277,-0.52772 -1.46094,-0.48279 -1.46094,0.0703 0,0.14734 -0.13578,0.26758 -0.30078,0.26758 -0.165,0 -0.30078,-0.14646 -0.30078,-0.32422 0,-0.48905 -3.90844,-8.34731 -4.25977,-8.56445 -0.0421,-0.026 -0.0907,-0.0394 -0.14062,-0.041 z M 238.1018,153 c 0.24942,0 0.90516,1.80697 0.91016,2.50586 9.3e-4,0.14118 -0.30493,0.62103 -0.67969,1.06641 -0.37476,0.44538 -1.75773,2.61908 -3.07422,4.82812 -1.93659,3.24957 -2.99636,4.63447 -5.54492,7.25977 -1.7325,1.7847 -3.36391,3.24518 -3.625,3.24218 -0.38028,-0.002 -0.45567,-0.29586 -0.38477,-1.48046 0.0821,-1.37266 0.22309,-1.61058 1.97461,-3.33594 1.03746,-1.02195 1.73273,-1.91498 1.54688,-1.98438 -0.18585,-0.0694 -1.09289,0.20826 -2.01758,0.61719 -0.92466,0.40893 -1.73272,0.65033 -1.79492,0.53711 -0.20613,-0.37545 -1.19517,-6.05909 -1.07031,-6.15039 0.0674,-0.0493 2.32315,-1.02175 5.01367,-2.16016 3.54006,-1.49787 5.38425,-2.46709 6.67578,-3.50781 0.98157,-0.79097 1.91392,-1.4375 2.07031,-1.4375 z m -152.527337,3.32422 c -0.44513,-0.0401 -0.93399,0.23334 -1.35352,0.80078 -0.33547,0.45375 -0.57625,0.89211 -0.53515,0.97461 0.0412,0.0825 -0.21066,0.55578 -0.56055,1.05078 -3.16814,4.48194 -5.83128,14.48855 -5.06445,19.02734 0.1998,1.18263 0.75195,1.72396 0.75195,0.73633 0,-1.00428 1.8056,-8.47251 2.71094,-11.21484 0.92385,-2.79843 3.38865,-8.03952 4.55468,-9.68555 0.47437,-0.66964 0.51884,-0.92128 0.22657,-1.27344 -0.21142,-0.25474 -0.4634,-0.39197 -0.73047,-0.41601 z m 46.960937,3.00586 c 0.0207,-0.0334 0.15823,0.0125 0.42773,0.11719 0.33,0.12821 1.06889,0.40343 1.64062,0.61132 0.57172,0.20789 1.08764,0.52667 1.14844,0.70899 0.24943,0.74829 -1.98744,-0.0722 -2.93945,-1.07813 -0.20212,-0.21358 -0.298,-0.32599 -0.27734,-0.35937 z m 4.89257,1.59765 c 0.30802,-0.0213 0.76266,0.28042 0.92188,0.69532 0.31276,0.81504 -0.3277,1.0847 -0.83984,0.35351 -0.25971,-0.3708 -0.40512,-0.78119 -0.32422,-0.91211 0.0538,-0.087 0.13951,-0.1296 0.24218,-0.13672 z m 83.06446,0.91797 c 0.0988,-0.009 0.16181,-0.006 0.17968,0.0117 0.22086,0.22086 0.94556,6.27059 0.79883,6.66797 -0.16581,0.44907 -2.37976,1.45029 -6.79297,3.07422 -1.79391,0.66012 -3.39669,1.20117 -3.5625,1.20117 -0.16578,0 -0.30468,-0.50625 -0.30468,-1.125 -0.001,-0.61875 -0.19714,-2.34117 -0.4375,-3.82617 -0.24036,-1.485 -0.47624,-2.96464 -0.52344,-3.28906 -0.0774,-0.53178 0.28318,-0.65384 3.66406,-1.23047 2.0625,-0.35175 4.48717,-0.85629 5.38867,-1.1211 0.67611,-0.19866 1.29351,-0.33656 1.58985,-0.36328 z m -142.492187,0.0918 c -0.66945,0.0714 -1.50248,0.64088 -2.04883,1.47266 -1.19998,1.82691 -3.78689,7.47677 -4.34961,9.5 -0.39452,1.41846 -0.64896,3.50442 -0.7539,6.18945 l -0.15821,4.05078 0.87696,-3.32422 c 1.98841,-7.52691 4.54504,-13.70041 6.51757,-15.73828 1.15459,-1.19283 1.26405,-1.62693 0.51368,-2.04687 -0.17009,-0.0952 -0.37451,-0.12732 -0.59766,-0.10352 z m 128.171867,2.2207 1.79102,0.0918 0.0781,4.73242 0.0762,4.73047 -0.82618,0.32031 c -0.71336,0.2757 -4.56128,0.61361 -10.57031,0.92969 l -1.64453,0.0879 -0.2207,-1.65039 c -0.414,-3.09588 -0.88251,-4.87921 -1.19922,-4.5625 -0.16494,0.16494 -0.52767,1.69339 -0.80664,3.39844 l -0.50781,3.10156 -1.18946,0.1875 c -0.65412,0.10335 -2.60734,0.35589 -4.33984,0.5625 -1.7325,0.20661 -3.95922,0.49648 -4.94922,0.64258 -2.20968,0.32612 -3.97024,0.34501 -4.15039,0.0449 -0.0744,-0.12375 -0.1152,-2.3175 -0.0918,-4.875 l 0.043,-4.65039 3.44922,-0.21875 c 11.30508,-0.71727 16.25776,-1.27921 20.70703,-2.34961 1.54728,-0.37224 3.26745,-0.57904 4.35156,-0.52344 z m -62.94726,0.29688 c 0.70129,0.01 1.74354,0.46004 1.83398,0.92969 l 0,0.002 c 0.12329,0.64011 -0.4042,0.64322 -1.68554,0.0117 -0.6651,-0.32778 -0.89053,-0.58798 -0.6875,-0.79102 0.11046,-0.11047 0.3053,-0.15561 0.53906,-0.15234 z m -72.609377,0.30078 c -0.54997,0.0671 -0.97767,0.37102 -1.86132,1.18555 -1.51186,1.39359 -3.61415,5.34139 -4.49805,8.44921 -0.42206,1.48402 -0.56016,1.68556 -0.94141,1.36915 -0.52734,-0.43764 -0.80504,-0.11733 -1.33594,1.54101 -0.4857,1.51716 -0.63017,9.55441 -0.23437,12.97852 0.40502,3.50385 0.99775,4.35705 0.69336,0.99804 -0.11976,-1.32186 -0.0924,-2.27734 0.0664,-2.27734 0.15044,0 0.65767,1.033 1.12695,2.29492 0.8846,2.3787 3.75059,7.14236 4.43945,7.37891 0.70554,0.24228 0.59642,-0.59691 -0.31054,-2.37695 -0.48954,-0.96079 -1.40966,-3.03016 -2.04297,-4.59766 -1.00232,-2.48085 -1.15099,-3.16086 -1.15039,-5.25 0.001,-4.06866 0.90725,-9.08229 2.46679,-13.64844 1.46629,-4.29309 2.77664,-6.34348 4.43555,-6.94336 1.30927,-0.47343 1.19761,-0.97754 -0.24219,-1.09961 -0.23195,-0.0197 -0.428,-0.0243 -0.61133,-0.002 z m 67.310547,0.0547 c 0.4328,0.0367 1.44226,0.49068 3.74609,1.58203 1.6457,0.77955 2.8418,1.52786 2.8418,1.77734 0,0.62649 -0.54425,0.5228 -2.40039,-0.45508 -0.9075,-0.47811 -2.29047,-1.1414 -3.07422,-1.47461 -0.86612,-0.36825 -1.42578,-0.79768 -1.42578,-1.09375 0,-0.23064 0.0528,-0.35796 0.3125,-0.33593 z m 10.71289,0.48828 c 0.12375,-2.7e-4 2.18172,0.19789 4.57422,0.43945 2.3925,0.24156 5.26125,0.52318 6.375,0.625 l 2.02539,0.1836 -0.0215,0.95117 c -0.0123,0.52311 -0.18105,2.56096 -0.375,4.52734 -0.19395,1.96638 -0.4893,3.60367 -0.6543,3.63867 -1.0854,0.23001 -5.64424,-1.22506 -8.78125,-2.80273 -3.03932,-1.52853 -3.53128,-1.87685 -3.61328,-2.56445 -0.12057,-1.01112 0.20562,-1.01452 2.95312,-0.0234 1.17939,0.42543 2.20585,0.71212 2.28125,0.63672 0.14406,-0.14409 -1.56246,-1.18994 -3.71484,-2.27735 -1.2144,-0.61353 -1.27344,-0.70827 -1.27344,-1.98828 0,-0.73914 0.10086,-1.34546 0.22461,-1.3457 z m 14.92383,1.35156 3,0.0918 c 5.049,0.15483 9.25261,0.35993 9.34961,0.45703 0.13944,0.13941 -0.79203,9.54837 -0.97461,9.84375 -0.33009,0.53412 -10.38725,0.0379 -10.92383,-0.53906 -0.12939,-0.13911 -0.2825,-2.41469 -0.3418,-5.05469 l -0.10937,-4.79883 z m -26.32813,1.39844 c 0.3335,-0.0616 1.02463,0.34585 3.82227,1.98633 l 2.99414,1.7539 0.51953,2.23047 c 0.28556,1.22658 0.52425,2.46711 0.53125,2.75586 0.0272,1.16094 -1.16997,0.36381 -4.52929,-3.01758 -3.42669,-3.44919 -4.32143,-4.81528 -3.61719,-5.51953 0.0963,-0.0963 0.16813,-0.16892 0.27929,-0.18945 z m 84.70704,3.01953 c 0.12499,0.0142 0.25088,0.0995 0.39843,0.25781 0.41247,0.44235 1.07422,2.19082 1.07422,2.83789 0,0.53802 -10.5747,9.62336 -12.88476,11.07032 -0.58635,0.36729 -2.47012,1.24153 -4.1875,1.94335 -1.71741,0.70185 -4.14847,1.72802 -5.40235,2.2793 -3.43455,1.51011 -8.41033,2.29072 -16.37695,2.57227 -3.63,0.12831 -7.20672,0.37118 -7.94922,0.53906 -0.7425,0.16785 -1.4175,0.2949 -1.5,0.2832 -0.0825,-0.0118 -0.68961,-0.13339 -1.34961,-0.27148 -0.66,-0.13812 -2.07789,-0.39147 -3.15039,-0.5625 -4.38399,-0.699 -5.42752,-1.00219 -6.32422,-1.83985 l -0.89258,-0.83398 0.0312,-4.99023 c 0.0225,-3.51585 0.13724,-5.02819 0.38477,-5.11719 0.19326,-0.0695 1.22828,0.0768 2.30078,0.32422 1.0725,0.24747 3.23328,0.66674 4.80078,0.93164 4.32475,0.7308 4.01405,0.44714 4.41992,4.04687 0.38346,3.4011 0.89411,5.26605 1.32422,4.83594 0.14898,-0.14898 0.43689,-2.01616 0.63867,-4.14844 l 0.36719,-3.87695 1.5,-0.20703 c 1.68702,-0.23292 10.53393,-0.94136 12.14844,-0.97266 l 1.05078,-0.0195 0.0781,2.54883 c 0.085,2.80272 0.79636,7.14402 1.24414,7.5918 0.1794,0.1794 0.40682,-0.17193 0.61718,-0.95313 0.43629,-1.6203 0.9737,-7.7686 0.74219,-8.49805 -0.2526,-0.79584 0.30107,-1.34325 1.60352,-1.58007 0.61287,-0.11145 3.30155,-0.73253 5.97461,-1.38086 2.67309,-0.64833 5.14069,-1.17969 5.48242,-1.17969 0.37329,0 0.75935,0.30253 0.9668,0.75781 0.43452,0.9537 0.9459,0.80647 1.14453,-0.33008 0.13725,-0.78546 0.38952,-0.95553 2.51367,-1.68945 1.29882,-0.44877 2.57966,-1.01334 2.84765,-1.25586 0.26799,-0.24252 1.63018,-0.93016 3.02539,-1.52734 1.39519,-0.59715 2.71641,-1.23644 2.9375,-1.41992 0.14996,-0.12447 0.2754,-0.18022 0.4004,-0.16602 z m -74.4668,2.63086 c 0.13994,0 1.65686,0.65735 3.37109,1.45898 3.92923,1.83738 7.40915,3.04102 8.78321,3.04102 0.74496,0 1.15563,0.17577 1.37304,0.58203 0.17331,0.32379 0.31055,2.51076 0.31055,4.94922 0,3.29724 -0.092,4.37019 -0.375,4.36719 -0.59925,-0.004 -11.98655,-7.26572 -14.69336,-9.36914 l -1.11719,-0.86914 1.04688,-2.08008 c 0.57606,-1.1439 1.16085,-2.08008 1.30078,-2.08008 z M 141.17602,177 c 0.32039,0 0.77854,0.56649 1.03125,1.27539 0.24374,0.68364 -0.16779,0.67169 -0.79687,-0.0234 C 140.87454,177.65984 140.75052,177 141.17602,177 Z m -24.64062,13.47266 c -0.0436,0.0341 0.0385,0.22514 0.20117,0.54882 0.26831,0.53403 0.86499,1.41075 1.32617,1.94922 0.46119,0.53847 1.13604,1.40742 1.49805,1.92969 0.36201,0.52224 1.5452,1.50966 2.63086,2.19531 2.04269,1.29009 2.21543,1.53949 3.52929,5.10352 0.70232,1.90512 0.85938,2.08481 1.92578,2.20898 1.50342,0.17505 1.8716,0.46438 11.80469,9.23242 3.85669,3.40434 8.43506,7.65606 10.17383,9.44922 2.77058,2.85723 7.86698,9.50313 8.76953,11.43555 0.34518,0.73905 0.81836,0.90249 0.81836,0.2832 0,-0.636 -2.29139,-5.18434 -3.78125,-7.50586 -1.51944,-2.36766 -7.94262,-8.86406 -12.21484,-12.35351 -1.41409,-1.155 -2.64694,-2.30133 -2.74024,-2.54883 -0.0933,-0.2475 -0.80975,-0.87129 -1.59179,-1.38672 -1.25805,-0.82917 -3.22921,-2.56267 -10.07813,-8.85742 -1.01366,-0.93165 -1.75782,-1.78178 -1.6543,-1.88867 0.10351,-0.10686 1.53332,0.4861 3.17774,1.31836 1.64442,0.83229 3.0931,1.51367 3.21875,1.51367 0.30622,0 -3.74373,-2.90442 -7.63477,-5.47656 -4.73069,-3.12714 -5.98333,-4.06073 -7.9082,-5.89649 -0.97633,-0.93114 -1.398,-1.31076 -1.4707,-1.2539 z m 14.14843,9.32617 c -0.18017,0.0829 0.8298,0.87163 2.70899,1.96679 1.24881,0.72777 2.40531,1.32136 2.57031,1.31836 0.55526,-0.01 -1.48248,-1.47401 -3.59961,-2.58593 -1.03561,-0.5439 -1.57159,-0.74898 -1.67969,-0.69922 z m 4.83985,4.02344 c -0.17118,-0.0123 0.0174,0.12373 0.58984,0.4375 0.5775,0.31653 1.18134,0.58942 1.3418,0.60742 0.52688,0.0586 -0.87505,-0.78134 -1.64258,-0.98438 -0.1363,-0.0361 -0.232,-0.0565 -0.28906,-0.0605 z m 4.33203,1.38085 c -0.17386,-0.005 -0.16308,0.0947 0.0488,0.30665 0.17051,0.17052 0.97196,0.56994 1.7832,0.88671 2.27978,0.89022 2.5964,0.69039 0.48242,-0.30468 -1.22505,-0.57666 -2.02468,-0.88006 -2.31445,-0.88868 z m 0.82226,6.13282 c -0.29804,0.29805 0.62682,1.06445 1.28516,1.06445 0.37168,0 2.00931,0.62427 3.63867,1.38867 1.62937,0.7644 3.70383,1.69823 4.61133,2.07422 1.82187,0.75489 2.53182,0.89347 2.25,0.4375 C 152.36116,216.13578 152.1321,216 151.95336,216 c -0.41557,0 -4.67367,-1.7896 -8.30859,-3.49219 -1.55027,-0.72615 -2.8848,-1.25387 -2.9668,-1.17187 z m -5.61132,4.69531 c -0.72814,-0.15727 3.0015,2.88437 6.8789,5.52344 4.07997,2.77692 5.28514,3.4229 4.25196,2.28125 -0.66567,-0.73557 -8.98124,-6.68102 -10.53321,-7.53125 -0.29851,-0.16354 -0.49364,-0.25097 -0.59765,-0.27344 z m 152.11523,13.23633 c 0.19968,0.19968 -0.74102,1.65483 -1.96289,3.03906 -0.41583,0.47109 -1.5562,1.40486 -2.53516,2.07422 -1.69686,1.16016 -1.74999,1.17451 -1.14648,0.3418 0.98646,-1.36107 5.43732,-5.66229 5.64453,-5.45508 z m -6.62891,6.57226 c 0.0819,0.082 -0.38795,0.67489 -1.04492,1.31641 -0.65697,0.64152 -1.19531,1.02939 -1.19531,0.86328 0,-0.38871 2.04322,-2.3767 2.24023,-2.17969 z M 81.365473,261.0957 c -0.22392,0.0398 -0.10169,1.89351 0.75782,14.30469 1.05231,15.19536 1.26478,23.0312 0.74609,27.4043 -0.18871,1.59099 -0.15382,2.11232 0.1543,2.30273 0.31807,0.19656 0.32983,0.47614 0.0547,1.39453 -0.245,0.81771 -0.28094,3.14143 -0.125,8.04883 0.2877,9.054 0.20775,17.40075 -0.18164,18.89844 -0.1716,0.66 -0.40636,4.13781 -0.52148,7.72656 -0.16815,5.24154 -0.29101,6.52344 -0.62305,6.52344 -0.5073,0 -0.50819,-0.005 -0.004,1.23828 0.4695,1.15755 0.63586,4.16211 0.23046,4.16211 -0.4645,0 -2.66583,-3.64602 -3.62304,-6 -0.50321,-1.2375 -0.91542,-2.28302 -0.91602,-2.32422 -5.7e-4,-0.0413 -0.32798,-0.0762 -0.72851,-0.0762 -0.98884,0 -1.72125,-1.00073 -3.68164,-5.03906 -0.9234,-1.90215 -1.79936,-3.34115 -1.99414,-3.27735 -0.19097,0.0626 -0.39056,0.55393 -0.44336,1.0918 -0.13197,1.34508 1.37334,4.40874 4.83203,9.8418 1.55222,2.43831 3.66613,5.91937 4.69726,7.73437 l 1.87305,3.29883 -0.19922,5.84961 c -0.66347,19.33968 -1.76659,35.21665 -2.7168,39.10351 -0.087,0.35574 -0.20767,1.32149 -0.26757,2.14649 -0.0599,0.825 -0.33008,3.05367 -0.59961,4.95117 -0.26954,1.8975 -0.61349,4.46172 -0.76563,5.69922 -0.4172,3.39348 -1.18322,8.6613 -1.5039,10.34961 -0.1567,0.825 -0.49082,2.98578 -0.74219,4.80078 -0.25136,1.815 -0.53732,3.68136 -0.63672,4.14648 -0.14707,0.68817 -0.0641,0.87606 0.44727,1.00977 0.34559,0.0904 0.6289,0.28395 0.6289,0.42969 0,0.55992 0.34644,0.2235 0.73438,-0.71094 0.4365,-1.05141 1.10779,-4.54248 1.65625,-8.625 0.18842,-1.4025 0.46929,-3.4275 0.625,-4.5 0.1557,-1.0725 0.48561,-3.50289 0.73242,-5.40039 1.42451,-10.95168 1.60822,-12.05259 2.10156,-12.59961 0.50052,-0.55497 0.88195,-5.20356 1.49023,-18.15039 0.5472,-11.6463 0.70312,-13.62684 1.25,-15.75 0.4706,-1.827 0.72682,-4.2933 1.52149,-14.69922 0.42952,-5.62386 0.53534,-10.38855 0.52344,-23.55078 -0.008,-9.07501 -0.11214,-17.44461 -0.23047,-18.59961 -0.11834,-1.155 -0.2857,-8.98539 -0.3711,-17.40039 -0.15733,-15.49596 -0.28856,-18.54411 -0.75,-17.40039 -0.13314,0.33 -0.25347,1.14078 -0.26757,1.80078 -0.0558,2.60556 -0.53089,1.87536 -0.72071,-1.10742 -0.26489,-4.16226 -1.35174,-14.99719 -1.70898,-17.0293 -0.15819,-0.89985 -0.43623,-1.77657 -0.61719,-1.94922 -0.0449,-0.0429 -0.0852,-0.074 -0.11719,-0.0684 z m -52.69336,15.3086 c -0.0637,-0.0125 -0.21675,0.12305 -0.39843,0.36328 -0.24225,0.32028 -0.44618,0.70995 -0.45117,0.86523 -0.005,0.15531 0.18939,0.0195 0.43164,-0.30078 0.24225,-0.32028 0.44421,-0.70995 0.44921,-0.86523 0.001,-0.0388 -0.01,-0.0583 -0.0312,-0.0625 z m -1.79687,3.35547 c -0.0617,-0.0617 -0.55274,0.55355 -1.08984,1.36523 -0.5371,0.81168 -0.84681,1.47461 -0.6875,1.47461 0.30837,0 1.96706,-2.65012 1.77734,-2.83984 z m 55.05859,37.1914 c -0.0362,-0.003 -0.13367,0.1041 -0.28906,0.29883 -0.26333,0.33 -0.75605,1.14078 -1.0957,1.80078 -0.97577,1.89606 -5.64429,9.5361 -6.23242,10.19922 -0.29269,0.33001 -0.75712,1.04372 -1.03125,1.58594 -0.49162,0.97245 -0.48974,0.9813 0.11523,0.60351 0.33733,-0.21069 0.61328,-0.48367 0.61328,-0.60547 0,-0.1218 0.6641,-1.13468 1.47656,-2.25195 1.78383,-2.45301 5.40254,-8.71321 6.11719,-10.58203 0.27926,-0.73022 0.38659,-1.04335 0.32617,-1.04883 z m 173.613277,77.84961 c 0.14637,0 0.2578,0.90969 0.2461,2.02344 -0.0221,2.12541 -0.3457,3.54533 -0.62696,2.7539 -0.24089,-0.67787 0.0859,-4.77734 0.38086,-4.77734 z m -11.58398,15.29883 c 0.6,0 0.75,0.15 0.75,0.75 0,0.86904 0.0467,0.85561 -0.82422,0.24805 -0.88452,-0.61701 -0.85668,-0.99805 0.0742,-0.99805 z m -93.81836,34.28125 c 0.19222,0.0222 0.55866,0.15756 0.94141,0.35547 0.51033,0.26514 0.92773,0.38145 0.92773,0.26172 0,-0.11973 0.15285,-0.0659 0.33984,0.12109 0.25333,0.25332 0.1191,0.53489 -0.52539,1.10156 -0.47574,0.41829 -0.96073,0.76453 -1.07812,0.76953 -0.25658,0.0114 -0.93685,-2.38932 -0.73438,-2.59179 0.0195,-0.0195 0.0648,-0.025 0.12891,-0.0176 z m 13.00977,2.07031 c 0.33168,0.0197 0.68601,0.17169 0.77343,0.4375 0.12855,0.39081 -0.49015,0.68365 -1.03906,0.49219 -0.20625,-0.072 -0.375,-0.33095 -0.375,-0.57617 0,-0.26063 0.30894,-0.3732 0.64063,-0.35352 z m -60.50977,3.0918 c 0.98591,-0.0682 1.91976,0.49851 2.42188,1.55664 1.62771,3.43014 2.20216,11.37682 1.6875,23.34961 -0.18441,4.29 -0.40343,11.98656 -0.48633,17.10156 -0.21732,13.40523 -0.44688,20.85555 -0.75391,24.44922 -0.14803,1.7325 -0.41029,6.72711 -0.58203,11.09961 -0.17173,4.3725 -0.45112,11.46 -0.62109,15.75 -0.39892,10.06917 -0.78122,13.39727 -1.69922,14.75 l -0.69727,1.02539 0.57422,1.11328 c 0.65782,1.27428 2.39374,2.98905 3.92578,3.87891 2.96376,1.72149 4.61581,2.50201 7.34961,3.47656 3.29935,1.17615 16.4338,5.2319 20.69922,6.39063 4.06618,1.10456 6.17581,1.87031 7.4668,2.71484 0.64135,0.41955 1.85557,0.86095 2.69922,0.98047 1.60488,0.22737 4.68359,1.42831 4.68359,1.82617 0,0.12702 -0.23469,0.33142 -0.52344,0.45508 -0.67926,0.29088 -14.27589,0.43721 -17.05664,0.18359 -1.17165,-0.10686 -2.3222,-0.35593 -2.55859,-0.55273 -0.23638,-0.19681 -0.59236,-0.25753 -0.79102,-0.13477 -1.04055,0.64311 -10.8654,-1.22227 -16.53906,-3.14062 -7.26456,-2.45625 -12.332087,-6.169 -14.285157,-10.4668 -0.6389,-1.40592 -0.70387,-2.13894 -1.03125,-11.69922 -0.19211,-5.61 -0.49404,-13.035 -0.67187,-16.5 -0.53325,-10.3899 -0.57401,-31.61584 -0.082,-42.625 0.67048,-15.00339 1.53784,-27.88643 2.40234,-35.67578 0.48372,-4.35837 1.984797,-8.24802 3.480467,-9.02149 0.32635,-0.16875 0.65964,-0.26242 0.98828,-0.28515 z m 97.10156,41.85742 c 0.14733,0 0.26758,0.26175 0.26758,0.58203 0,0.65568 -0.46884,1.07369 -0.73047,0.65039 -0.21921,-0.35469 0.11057,-1.23242 0.46289,-1.23242 z m 60.94336,82.30469 c -0.48201,0.10262 -0.53348,2.7839 -0.82812,17.29687 -0.1647,8.11332 -0.29381,10.24981 -0.66992,11.08789 -0.25626,0.57096 -0.60812,2.63182 -0.78125,4.58008 -0.28164,3.16896 -0.26134,3.59414 0.18554,4.04102 0.46602,0.46461 0.53614,0.46553 1.05274,-0.002 0.52914,-0.47889 0.57815,-0.4218 1.08593,1.27344 0.29226,0.97566 0.72174,1.84595 0.95508,1.93555 0.56289,0.216 0.54467,0.78125 -0.0254,0.78125 -0.2475,0 -0.45117,0.13361 -0.45117,0.29687 0,0.16326 -0.675,1.04215 -1.5,1.95313 -0.825,0.91098 -1.5,1.78986 -1.5,1.95312 l 0,0.002 c 0,0.61311 0.49757,0.24758 2.14844,-1.57618 1.58634,-1.75245 1.74405,-1.84964 2.36133,-1.47656 0.46152,0.2789 0.75684,0.30371 0.97656,0.084 0.21972,-0.21972 0.16356,-0.37188 -0.18555,-0.50586 -0.95229,-0.36543 -0.50903,-0.75776 0.625,-0.55274 1.3998,0.25308 1.54685,0.38253 0.94727,0.82422 -0.26166,0.19275 -0.48033,0.55328 -0.48633,0.80078 -0.006,0.2475 -0.0435,0.585 -0.084,0.75 -0.0402,0.165 -0.0554,0.63633 -0.0332,1.04883 0.0374,0.69339 0.0951,0.66018 0.77344,-0.44922 0.40362,-0.66 0.86585,-1.48848 1.02539,-1.83984 0.60189,-1.32552 4.44547,-4.78932 6.92578,-6.24219 2.81712,-1.65018 5.07966,-2.38305 8.41602,-2.72265 1.87083,-0.19045 2.12766,-0.2771 1.56054,-0.53321 -0.91596,-0.41361 -5.84482,0.19923 -7.95898,0.99024 -2.28747,0.85587 -5.51037,2.84964 -7.27734,4.50195 -1.49259,1.39578 -1.54249,1.41717 -3.1504,1.27539 -2.22222,-0.19593 -3.02224,-0.97971 -3.19726,-3.12891 -0.17187,-2.11071 -0.62815,-3.25 -1.29883,-3.25 -0.29622,0 -0.61478,0.16875 -0.70898,0.375 -0.0938,0.20625 -0.0897,-0.23406 0.01,-0.97656 0.21474,-1.60302 0.31053,-1.79883 0.87891,-1.79883 0.35871,0 0.43451,-0.85626 0.44531,-5.02539 0.019,-7.30023 0.2516,-18.97435 0.44336,-22.30468 0.13221,-2.2962 0.0784,-2.95308 -0.26758,-3.24024 -0.16526,-0.13715 -0.30087,-0.25024 -0.41211,-0.22656 z m -134.20508,6.96289 c 0.59265,0.0259 1.55966,0.3284 1.56641,0.57422 0.004,0.16089 -0.1041,0.31841 -0.24023,0.34961 -0.38823,0.089 -1.93077,-0.65908 -1.74414,-0.84571 0.0651,-0.0651 0.22042,-0.0867 0.41796,-0.0781 z m 25.4961,0.48242 c 0.78152,-0.0288 1.25062,0.0356 1.3457,0.18945 0.10827,0.17514 0.0674,0.39965 -0.0918,0.49805 -0.56757,0.35076 -5.12109,0.56255 -5.12109,0.23828 0,-0.45255 0.68922,-0.65211 2.98242,-0.86523 0.32734,-0.0304 0.62426,-0.051 0.88477,-0.0606 z m -9.13867,0.19336 c 2.52946,-0.0262 4.97074,0.006 4.9707,0.12109 -4e-5,0.11796 -0.2671,0.35735 -0.5957,0.53321 -0.79725,0.42663 -4.70216,0.5999 -7.56836,0.33593 -2.28431,-0.21039 -3.11769,-0.48616 -2.30274,-0.76171 0.3502,-0.1184 2.96663,-0.20233 5.4961,-0.22852 z m 110.81836,16.30273 c -0.75422,-0.0366 -1.68459,0.73423 -2.67188,2.29102 -0.79668,1.25622 -1.09513,2.06437 -2.12305,5.76172 -0.21342,0.76773 -0.12493,2.34198 0.32813,5.85156 0.34083,2.64 0.69114,5.13633 0.77734,5.54883 0.0862,0.4125 0.28367,2.23578 0.43946,4.05078 0.31443,3.6633 0.59059,5.1423 1.45312,7.79883 0.84726,2.60943 2.40934,7.92006 3.39844,11.55078 1.89933,6.97173 8.3298,17.92311 16.46094,28.03125 4.45326,5.53599 5.93151,7.14031 6.34179,6.88672 0.14265,-0.0881 0.7631,0.23407 1.37891,0.7168 2.42901,1.90407 5.54315,3.39386 7.86914,3.76367 0.4125,0.0656 0.81789,0.13645 0.90039,0.15625 0.0825,0.0199 0.33772,-0.0817 0.56641,-0.22657 0.30603,-0.19379 0.0381,-0.43121 -1.01368,-0.89648 -0.78591,-0.34764 -1.48042,-0.63086 -1.54492,-0.63086 -0.0645,0 -0.97304,-0.51971 -2.01758,-1.1543 -5.97354,-3.62904 -12.23521,-10.47795 -17.91796,-19.59765 -4.94403,-7.93419 -8.9806,-16.56375 -11.51563,-24.61719 l -1.10742,-3.51758 1.73828,-2.48242 c 2.41593,-3.45159 6.23927,-8.37811 6.98828,-9.00391 0.34365,-0.28713 0.625,-0.7434 0.625,-1.01367 0,-1.2849 -4.41742,3.68017 -7.97656,8.96485 -0.75165,1.11606 -1.47846,1.9622 -1.61328,1.8789 -0.30321,-0.18738 -1.36721,-5.92198 -1.81055,-9.75781 -0.18117,-1.5675 -0.47128,-3.39078 -0.64453,-4.05078 -0.36672,-1.39716 -0.92465,-8.81238 -0.70703,-9.39258 0.0813,-0.21678 0.27462,-0.3165 0.42969,-0.2207 0.15504,0.0958 1.19241,-0.63398 2.30664,-1.62305 1.11426,-0.9891 2.60844,-2.07358 3.32031,-2.4082 0.71187,-0.33462 1.29492,-0.80998 1.29492,-1.05664 0,-0.58592 -0.7351,-0.56968 -1.6582,0.0351 -0.68835,0.45105 -0.74684,0.44499 -0.91016,-0.0762 -0.31815,-1.01527 -0.79815,-1.53211 -1.38476,-1.56055 z m -0.38086,1.82422 c 0.0843,-10e-4 0.13476,0.0545 0.13476,0.18164 0,0.12894 -0.42556,0.63257 -0.94531,1.11719 l -0.94531,0.88086 0.55468,-0.9668 c 0.39308,-0.68499 0.94831,-1.20849 1.20118,-1.21289 z m -108.58008,8.78907 c -10.66293,0.0265 -19.78992,2.37882 -25.13281,6.57226 -1.6133,1.26624 -3.4717,3.34864 -3.2168,3.60352 0.0657,0.0657 0.92744,-0.48764 1.91601,-1.23047 4.67842,-3.5154 12.82206,-6.27639 20.73829,-7.0293 7.41333,-0.70506 17.61167,0.4345 22.00976,2.45899 1.0725,0.49371 2.53643,1.46391 3.25391,2.15625 1.63722,1.57986 3.99516,5.02244 5.00586,7.31054 0.42468,0.96141 0.97025,2.05258 1.21289,2.42383 0.66035,1.01031 0.8298,0.82487 0.62304,-0.68359 -0.37539,-2.73867 -2.74942,-7.79079 -4.58203,-9.75 -3.41664,-3.65265 -7.95621,-5.15913 -17.16992,-5.69922 -1.57942,-0.0926 -3.13493,-0.1366 -4.6582,-0.13281 z m 116.06445,5.54101 c -0.46848,0 -0.59521,0.35404 -0.25,0.69922 0.34518,0.34521 0.69922,0.21848 0.69922,-0.25 0,-0.2475 -0.20172,-0.44922 -0.44922,-0.44922 z m 18.39258,0 c -0.73809,0.003 -7.28982,1.46991 -8.5332,1.91016 -2.60505,0.92232 -4.52403,2.23473 -5.26368,3.59961 -0.16683,0.30783 -0.19055,0.50836 -0.0508,0.44726 0.13977,-0.0611 1.40219,-0.66677 2.80469,-1.3457 1.4025,-0.67893 4.47264,-1.86933 6.82227,-2.64649 3.83208,-1.26749 5.33793,-1.96984 4.2207,-1.96484 z m 36.01367,2.15039 c -0.0976,-0.0164 -0.20689,-0.0139 -0.33203,0.004 -0.56277,0.0799 -0.66676,0.26847 -0.63086,1.14453 0.0237,0.5775 0.24734,1.9275 0.49805,3 0.25071,1.0725 0.67311,4.51539 0.9375,7.65039 1.2798,15.17484 1.41382,20.07584 0.79687,28.96094 -0.28107,4.0482 -0.61237,7.52406 -0.73633,7.72461 -0.12398,0.20055 -0.0931,0.36523 0.0684,0.36523 0.83358,0 1.87049,-6.29451 2.44727,-14.85156 0.38994,-5.78463 0.0784,-19.44153 -0.47266,-20.69922 -0.2169,-0.495 -0.48042,-2.11461 -0.58593,-3.59961 -0.23154,-3.25788 -0.92237,-7.8871 -1.3418,-8.99023 -0.16976,-0.44656 -0.3556,-0.65984 -0.64844,-0.70899 z m -193.64648,2.56836 -0.65625,0.35156 c -0.36007,0.19271 -0.65535,0.24478 -0.65625,0.11524 -8.7e-4,-0.12957 -0.23556,0.11668 -0.52344,0.54883 -1.88591,2.83086 -6.81656,9.52328 -6.93164,9.4082 -0.0767,-0.0767 0.23391,-0.82514 0.68945,-1.66211 1.57288,-2.8899 0.28587,-2.01621 -1.79492,1.21875 -3.72549,5.79198 -7.4252,12.97869 -10.27148,19.94922 -0.60637,1.485 -1.2748,2.80947 -1.484377,2.9414 -0.59841,0.37674 -0.4717,0.8663 0.953127,3.70313 1.52653,3.0393 4.77085,6.94313 8.50585,10.23437 5.67328,4.99923 10.79345,7.51811 18.16407,8.9336 1.54273,0.29633 3.57805,0.36827 7.24609,0.2539 6.1165,-0.19068 11.52056,-1.03122 19.79883,-3.07812 1.32,-0.3264 3.48078,-0.82609 4.80078,-1.10938 2.86053,-0.61391 6.3298,-1.97435 7.16602,-2.81054 0.85812,-0.85815 0.39245,-1.09257 -0.77539,-0.39063 -1.54719,0.92994 -5.96637,2.09671 -17.33985,4.57813 -4.67239,1.0194 -16.31036,1.26029 -20.69922,0.42773 -7.68195,-1.45725 -13.97604,-5.0664 -20.86328,-11.96484 -3.03267,-3.03759 -6.4375,-7.52242 -6.4375,-8.47852 0,-0.2139 0.19331,-0.38867 0.42969,-0.38867 0.23638,0 0.52291,-0.30453 0.63672,-0.67578 0.36364,-1.18617 0.76291,-1.49845 1.18164,-0.92578 0.32049,0.43827 0.43953,0.28881 0.90234,-1.12305 1.04466,-3.18678 4.46901,-9.29883 5.52735,-9.86523 0.28444,-0.15225 1.37787,-1.87004 2.42968,-3.81836 2.98307,-5.52573 5.45468,-9.59367 9.42188,-15.50781 l 0.58008,-0.86524 z m 58.76172,2.04688 c -0.15396,0.0241 -0.31836,0.0998 -0.49219,0.22851 -0.33435,0.24753 -0.53769,1.07961 -0.67383,2.75586 l -0.19531,2.39844 0.64453,-0.57031 0.64453,-0.57227 0,1.92383 c 0,1.59942 -0.10092,1.98935 -0.59961,2.30078 -0.33,0.2061 -0.59961,0.6326 -0.59961,0.94922 0,0.31662 -0.5972,2.91522 -1.32617,5.77344 -2.94543,11.54835 -3.60394,13.68057 -5.87305,18.99609 -0.70437,1.65 -1.61014,3.87672 -2.01172,4.94922 -0.99744,2.66382 -0.22064,1.80633 1.5625,-1.72461 0.95547,-1.89198 1.56773,-2.77539 1.92188,-2.77539 0.39534,0 0.71802,-0.66141 1.34961,-2.77344 0.45645,-1.52625 1.15475,-3.48823 1.55273,-4.35937 0.39798,-0.87114 0.72656,-1.68192 0.72656,-1.80079 0.001,-0.11886 0.78221,-2.23984 1.73633,-4.71484 0.95415,-2.475 1.88837,-5.04117 2.07617,-5.70117 0.73828,-2.59452 1.11095,-11.84738 0.57032,-14.15039 -0.19103,-0.81371 -0.55182,-1.20511 -1.01367,-1.13281 z m 132.30664,46.0332 c -0.10584,0 -1.083,0.53936 -2.17188,1.19727 -2.48367,1.50065 -7.84939,3.91153 -12.15625,5.46289 -4.55217,1.63977 -9.43238,2.23954 -13.06445,1.60546 -1.38183,-0.24122 -2.57229,-0.37888 -2.64649,-0.30468 -0.26721,0.26721 0.95405,1.32306 1.88672,1.63086 0.52407,0.17295 1.75608,0.42335 2.73828,0.55664 2.48847,0.33777 4.87447,0.13027 8.47657,-0.74024 1.69983,-0.41079 3.25154,-0.68623 3.44921,-0.61133 0.19768,0.0748 -0.38351,0.49021 -1.29101,0.92383 -0.907,0.43362 -1.31094,0.70437 -0.89844,0.60157 1.86705,-0.46533 11.78544,-5.81194 13.66992,-7.36915 1.27575,-1.05423 2.56678,-2.95312 2.00782,-2.95312 z"
     id="path3354"
     inkscape:connector-curvature="0" />
</svg>
