<?xml version="1.0" encoding="UTF-8" standalone="no"?>
<!-- Created with Inkscape (http://www.inkscape.org/) -->

<svg
   xmlns:osb="http://www.openswatchbook.org/uri/2009/osb"
   xmlns:dc="http://purl.org/dc/elements/1.1/"
   xmlns:cc="http://creativecommons.org/ns#"
   xmlns:rdf="http://www.w3.org/1999/02/22-rdf-syntax-ns#"
   xmlns:svg="http://www.w3.org/2000/svg"
   xmlns="http://www.w3.org/2000/svg"
   xmlns:sodipodi="http://sodipodi.sourceforge.net/DTD/sodipodi-0.dtd"
   xmlns:inkscape="http://www.inkscape.org/namespaces/inkscape"
   id="svg2"
   version="1.1"
   inkscape:version="0.91 r13725"
   width="462.03995"
   height="680.05707"
   viewBox="0 0 462.03995 680.05707"
   sodipodi:docname="sans-character-silhouette.svg">
  <metadata
     id="metadata8">
    <rdf:RDF>
      <cc:Work
         rdf:about="">
        <dc:format>image/svg+xml</dc:format>
        <dc:type
           rdf:resource="http://purl.org/dc/dcmitype/StillImage" />
        <dc:title></dc:title>
      </cc:Work>
    </rdf:RDF>
  </metadata>
  <defs
     id="defs6">
    <linearGradient
       id="linearGradient4183"
       osb:paint="solid">
      <stop
         style="stop-color:#000000;stop-opacity:1;"
         offset="0"
         id="stop4185" />
    </linearGradient>
  </defs>
  <sodipodi:namedview
     pagecolor="#ffffff"
     bordercolor="#666666"
     borderopacity="1"
     objecttolerance="10"
     gridtolerance="10"
     guidetolerance="10"
     inkscape:pageopacity="0"
     inkscape:pageshadow="2"
     inkscape:window-width="1280"
     inkscape:window-height="751"
     id="namedview4"
     showgrid="false"
     fit-margin-top="0"
     fit-margin-left="0"
     fit-margin-right="0"
     fit-margin-bottom="0"
     inkscape:zoom="0.5036278"
     inkscape:cx="96.886547"
     inkscape:cy="455.45106"
     inkscape:window-x="0"
     inkscape:window-y="29"
     inkscape:window-maximized="1"
     inkscape:current-layer="svg2" />
  <path
     style="fill:#000000;fill-rule:evenodd;stroke:none;stroke-width:1px;stroke-linecap:butt;stroke-linejoin:miter;stroke-opacity:1;fill-opacity:1"
     d="m 261.85093,563.52287 0,42.1208 8.42416,21.06039 21.0604,-14.04026 0,-48.43891 z"
     id="path4143"
     inkscape:connector-curvature="0" />
  <path
     style="fill:#000000;fill-rule:evenodd;stroke:none;stroke-width:1px;stroke-linecap:butt;stroke-linejoin:miter;stroke-opacity:1;fill-opacity:1"
     d="m 129.17043,575.4571 2.80806,35.80267 -11.93423,5.61611 -15.44429,30.88858 34.39865,8.42416 40.71677,-38.61073 -22.46443,-40.71677 z"
     id="path4141"
     inkscape:connector-curvature="0" />
  <path
     style="fill:#000000;fill-rule:evenodd;stroke:none;stroke-width:1px;stroke-linecap:butt;stroke-linejoin:miter;stroke-opacity:1;fill-opacity:1"
     d="m 170.58921,5.4223572 -35.80267,12.6362378 -28.08053,21.060397 -7.020132,11.934225 -9.828185,15.444291 -4.212079,25.974489 8.424158,30.186573 -3.510066,17.55033 4.21208,14.74227 -9.828186,4.9141 -18.252343,12.63624 8.424158,43.52482 44.928845,87.04964 3.51007,38.61072 18.25234,131.27648 73.71139,-9.12618 58.96911,18.25235 0,-168.48318 47.7369,-103.89795 -27.37851,-63.18119 -7.72215,-16.84832 -12.63624,-5.61611 L 265.361,110.02233 202.17981,6.1243704 183.92747,4.720344 Z"
     id="path3339"
     inkscape:connector-curvature="0" />
  <path
     style="fill:#000000;fill-opacity:1"
     d="M 187.76172 0 C 187.23291 -2.220446e-16 186.84295 0.26868687 186.49609 0.87304688 C 186.09682 1.5687269 185.62777 1.8367125 184.18555 2.1953125 C 181.5499 2.8506525 177.42659 3.53201 173.82617 3.90625 C 168.60161 4.4493 165.32126 5.0625044 163.3457 5.8652344 C 162.3146 6.2842144 159.89617 7.0798625 157.97266 7.6328125 C 152.14147 9.3091225 150.55448 9.99514 148.79492 11.59375 C 147.91273 12.39526 147.16557 13.2525 147.13477 13.5 C 147.09631 13.80886 147.03055 13.834368 146.92773 13.580078 C 146.81215 13.294198 146.58302 13.309521 145.92383 13.650391 C 145.45384 13.893441 143.60809 14.712563 141.82227 15.470703 C 140.03645 16.228853 138.27059 17.044953 137.89844 17.283203 C 137.52629 17.521453 136.23207 18.098303 135.02148 18.564453 C 132.54264 19.518973 128.26695 21.869384 123.72461 24.777344 C 123.14711 25.147054 122.13285 25.765301 121.46875 26.150391 C 118.1981 28.046961 116.87156 28.882671 115.72266 29.775391 C 112.53321 32.253661 110.11956 34.348307 107.79688 36.654297 C 105.58016 38.855077 105.05888 39.593306 103.48438 42.753906 C 102.49914 44.731626 100.97946 47.672553 100.10742 49.289062 C 99.235372 50.905572 98.321752 52.728854 98.076172 53.339844 L 97.628906 54.449219 L 98.253906 53.699219 C 98.597236 53.286719 99.169844 52.611719 99.527344 52.199219 C 100.2473 51.368489 104.11987 45.964171 105.00781 44.550781 C 106.06802 42.863201 109.43705 38.261051 110.33398 37.275391 C 110.89119 36.663061 111.4144 36.352019 111.7207 36.449219 C 112.00762 36.540289 113.01751 36.044033 114.14453 35.257812 C 116.07214 33.913062 116.07522 33.910477 116.16992 34.654297 C 116.28233 35.536867 117.20773 36.111322 118.20898 35.919922 C 119.08287 35.752872 119.12243 36.0294 118.32617 36.75 C 117.41187 37.57743 117.61124 37.923093 118.59766 37.220703 C 119.14161 36.833373 119.93458 36.599609 120.71094 36.599609 C 122.23438 36.599609 123.2132 36.115212 126.17969 33.888672 C 128.23754 32.344132 131.16575 30.900391 132.24023 30.900391 C 132.45596 30.900391 132.87314 31.164491 133.16602 31.488281 C 134.25088 32.687031 136.22701 32.919215 139.51367 32.234375 C 140.37108 32.055715 140.50982 32.139409 141.10547 33.199219 C 142.07517 34.924569 143.52915 35.797522 145.53516 35.857422 C 147.17583 35.906402 147.20698 35.925193 147.58789 37.033203 C 148.3082 39.128443 149.735 40.234581 152.04297 40.488281 C 153.47053 40.645201 153.52162 40.686174 153.88867 41.933594 C 154.46665 43.897894 155.13267 44.691205 156.86523 45.484375 C 158.12085 46.059235 158.4882 46.390193 158.62305 47.064453 C 158.71686 47.533493 159.156 48.34783 159.59961 48.875 L 160.40625 49.833984 L 159.61523 51.396484 C 159.18038 52.255964 158.82803 53.360886 158.83203 53.853516 C 158.84082 55.048886 159.83027 57.17335 160.60352 57.65625 C 161.38115 58.1418 161.37893 58.341069 160.58984 59.449219 C 159.15716 61.461259 160.02567 64.847786 162.31836 66.191406 C 163.48275 66.873776 163.89741 66.949069 165.93555 66.855469 L 168.23633 66.75 L 168.30078 67.980469 C 168.39024 69.699299 169.13605 70.979289 170.68945 72.074219 C 171.42118 72.589989 172.10437 73.290429 172.20703 73.630859 C 172.30969 73.971289 173.05319 75.402337 173.85938 76.810547 C 174.94556 78.707817 175.32531 79.679037 175.32031 80.560547 C 175.31701 81.214837 175.74914 83.533734 176.28125 85.714844 L 177.24805 89.681641 L 176.875 93.365234 C 175.8838 103.14705 175.59273 107.06914 175.76172 108.37695 C 175.93107 109.68745 175.85057 109.94112 174.76562 111.52539 C 174.11627 112.47357 173.33494 113.51961 173.0293 113.84961 C 171.15931 115.8685 168.68108 118.85351 167.8418 120.09766 C 165.65726 123.33594 163.86031 128.70458 164.33203 130.58398 C 164.45863 131.08848 165.07799 131.52945 166.625 132.2168 L 168.74414 133.1582 L 169.48828 131.97852 C 170.38288 130.56136 170.97583 130.42156 170.72266 131.6875 C 170.46352 132.98307 171.08219 133.15382 172.0625 132.05664 C 173.06582 130.93375 173.2968 131.16375 172.94922 132.93359 C 172.80693 133.65807 172.6762 133.94547 172.6582 133.57422 C 172.61197 132.62514 172.2367 132.73081 171.11719 134.00586 L 170.14453 135.11328 L 168.7207 134.60547 C 166.79668 133.92213 164.9081 133.96046 163.68359 134.70703 C 162.66365 135.32887 161.54325 137.3062 161.53125 138.50781 C 161.52762 138.86971 161.2494 139.35946 160.91211 139.5957 C 160.04679 140.2018 159.125 142.14106 159.125 143.35547 L 159.125 144.38281 L 154.99805 144.17578 C 149.78896 143.91439 145.35086 143.17299 138.83203 141.47852 C 137.81821 141.215 136.33826 141 135.54297 141 C 134.24726 141 134.14483 140.95284 134.55469 140.54297 C 134.80627 140.29141 135.70748 140.00314 136.55859 139.90234 C 137.6118 139.77761 138.56477 139.40061 139.54102 138.72461 C 140.32995 138.17831 141.49219 137.44798 142.12305 137.09961 C 143.65259 136.25497 151.3748 128.83462 151.85156 127.75195 C 152.0585 127.28202 152.77697 126.33327 153.44727 125.64258 C 154.66044 124.39247 154.66432 124.38984 154.4668 125.26758 C 154.10071 126.89426 153.34337 128.8244 151.46875 132.90039 C 148.62397 139.08582 147.51289 142.18326 148.02539 142.5 C 148.68002 142.90458 149.43971 142.34685 152.68359 139.08008 C 155.14238 136.60392 155.94545 135.55656 157.07812 133.34961 C 160.4782 126.72467 160.75105 120.29439 157.73242 117.91992 L 156.91992 117.28125 L 157.25781 115.11328 C 157.47365 113.72511 157.49747 112.51471 157.32422 111.74805 C 157.12922 110.8852 157.17393 110.19702 157.48242 109.28711 C 158.03103 107.66908 158.59431 104.15583 158.36523 103.78516 C 158.26845 103.62861 158.46102 103.5 158.79102 103.5 C 159.12102 103.5 159.45164 103.39914 159.52734 103.27539 C 159.69261 103.00517 157.402 98.999363 156.5293 98.033203 C 156.18982 97.657333 155.35107 96.512591 154.66602 95.488281 C 153.29055 93.431581 152.27555 92.651895 147.94727 90.328125 C 145.2296 88.869065 142.63587 87.804292 138.35352 86.388672 C 137.40641 86.075592 136.25812 85.627251 135.80273 85.394531 C 135.34733 85.161821 134.50328 84.873263 133.92578 84.751953 C 133.34828 84.630653 132.2 84.227349 131.375 83.855469 C 128.6775 82.639539 126.74204 82.117332 125.58203 82.294922 C 122.31548 82.795012 120.75678 83.134738 119.67578 83.580078 C 116.20298 85.010788 109.10153 88.336919 108.61328 88.761719 C 107.29156 89.911649 102.38623 96.360181 101.01953 98.744141 C 97.143811 105.50463 95.011795 113.45974 96.265625 116.48047 C 96.555645 117.17921 97.015006 118.28722 97.285156 118.94336 C 98.683726 122.34023 103.03396 127.25639 106.78125 129.67383 C 108.95826 131.07825 112.61438 132.89465 113.28711 132.90625 C 113.50024 132.90992 114.01328 133.17734 114.42578 133.5 C 114.83828 133.82266 115.26319 134.08975 115.37109 134.09375 C 115.47899 134.09742 116.40679 134.57306 117.43164 135.15234 C 119.82083 136.50279 125.32993 138.68256 128.36133 139.47656 C 129.65888 139.81642 130.77565 140.15065 130.84375 140.21875 C 130.91182 140.28681 130.52071 140.43987 129.97266 140.55859 C 127.10403 141.17998 125.65423 143.96791 126.88281 146.50391 C 127.35644 147.48156 129.86897 149.40039 130.67578 149.40039 C 130.92776 149.40039 131.44568 149.67 131.82617 150 C 132.20666 150.33 132.69962 150.59961 132.92188 150.59961 C 133.14413 150.59961 133.32617 150.73539 133.32617 150.90039 C 133.32617 151.06539 133.57068 151.19922 133.86914 151.19922 C 134.16761 151.19922 134.67385 151.39837 134.99414 151.64062 C 135.52102 152.03912 135.52582 152.08084 135.05078 152.08984 C 134.76203 152.09509 134.52539 151.96578 134.52539 151.80078 C 134.52539 151.63578 134.13391 151.5 133.6543 151.5 C 133.17468 151.5 131.92554 151.11537 130.87891 150.64453 C 129.83228 150.1737 128.29961 149.48921 127.47461 149.125 C 126.64961 148.76079 125.34881 148.13488 124.58398 147.73242 C 123.81915 147.32997 122.85807 147 122.44727 147 C 120.86976 147 119.84392 146.6301 119.65039 145.99023 C 119.35477 145.01287 118.29673 144 117.57031 144 C 115.90315 144 115.31182 146.48437 115.9082 150.98047 C 116.47077 155.22227 116.8436 156.94654 117.46094 158.16211 C 117.77184 158.77429 118.02644 159.78679 118.02734 160.41211 C 118.02821 161.03744 118.26485 161.90102 118.55273 162.33008 C 118.84061 162.75911 119.72509 164.08903 120.51953 165.28711 C 121.45158 166.6927 122.26715 167.58101 122.81836 167.78906 C 123.41231 168.01325 123.72754 168.38378 123.85156 169.00391 C 124.02419 169.86704 125.01782 170.95324 128.83398 174.45703 C 129.73723 175.28635 131.8925 177.45659 133.625 179.2793 C 137.28871 183.13373 139.61426 184.96394 141.22266 185.26172 C 142.91846 185.5757 145.06537 187.16519 145.83789 188.67773 C 146.77287 190.50839 147.26339 190.99081 149.97461 192.73828 C 154.78199 195.8368 160.70081 198.82412 168.33398 202.00391 C 176.609 205.45112 176.05809 205.11978 176.17188 206.69922 C 176.22534 207.44142 176.1189 209.09095 175.93359 210.36328 C 175.51542 213.23443 175.83175 214.60139 177.23242 215.95898 C 178.88533 217.56101 181.70665 217.85741 183.08398 216.57422 C 183.87404 215.83814 184.06776 216.20222 183.82617 217.96484 L 183.63086 219.39258 L 177.1543 219.19922 C 171.25054 219.02309 164.80748 218.51888 159.72461 217.83398 C 158.56799 217.67813 156.82476 217.1233 155.43945 216.47266 C 154.15488 215.86933 151.99606 214.96921 150.64062 214.4707 C 148.28045 213.60268 140.78189 209.98391 140 209.33594 C 139.52031 208.93841 139.50864 209.46176 139.98633 209.93945 C 140.18437 210.13745 140.258 210.29883 140.15039 210.29883 C 139.87594 210.29883 135.94878 206.78818 135.67383 206.29688 C 135.48454 205.95923 135.69991 205.95914 137.00195 206.29688 C 138.83411 206.77213 139.76889 206.80506 140.49219 206.41797 C 140.87372 206.21379 141.80559 206.4212 143.84766 207.16406 C 146.81602 208.24391 147.72461 208.41051 147.72461 207.87891 C 147.72461 207.44286 140.87705 204.21323 139.87695 204.17773 C 139.43733 204.16213 139.09985 204.05453 139.12695 203.9375 C 139.22468 203.51582 135.92805 201.05392 133.44141 199.69141 C 130.64831 198.16102 129.93588 197.96063 130.80469 198.95117 C 131.54207 199.79186 131.3856 199.70173 126.13281 196.24414 C 119.82698 192.0934 115.95322 188.03058 111.78516 181.19922 C 110.92944 179.79672 109.82961 178.22576 109.3418 177.70703 C 106.571 174.76049 101.92303 165.33642 100.75195 160.29102 C 100.51457 159.26831 99.840156 157.39224 99.253906 156.12305 C 98.144206 153.72064 96.232731 148.97452 94.613281 144.59961 C 94.094121 143.19711 93.552073 141.03828 93.408203 139.80078 C 93.185073 137.88154 93.227649 137.37321 93.699219 136.34961 C 95.011369 133.50138 96.336918 126.33322 96.205078 122.80078 C 96.137688 120.99527 95.155738 117.4557 94.054688 115.05078 C 92.516928 111.69201 92.54167 111.78994 91.21875 103.5 C 90.42002 98.4948 89.514426 93.848275 88.884766 91.515625 C 87.795666 87.480915 88.173054 83.81493 90.740234 73.5 C 91.376744 70.9425 92.378657 67.305899 92.966797 65.417969 C 93.554947 63.530049 93.996266 61.863837 93.947266 61.716797 C 93.833276 61.374837 92.263104 63.817866 91.089844 66.160156 C 88.411314 71.507546 85.022056 92.278459 85.878906 98.099609 C 86.061066 99.337109 86.292378 101.63172 86.392578 103.19922 C 86.492778 104.76672 86.76611 106.71561 87 107.5293 C 87.23389 108.343 87.424728 110.09839 87.423828 111.42969 C 87.422308 113.82129 87.446366 113.89677 89.410156 117.75977 C 91.259016 121.39672 91.415171 121.85686 91.644531 124.35938 C 92.038641 128.65929 91.510021 130.8985 89.525391 133.34961 L 88.554688 134.55078 L 88.714844 137.93164 C 88.874914 141.28983 89.378256 143.33345 91.353516 148.65039 C 92.805266 152.55818 94.855762 158.01171 95.076172 158.55078 C 95.211102 158.88078 94.744009 158.50381 94.037109 157.71289 C 92.648889 156.15967 92.222506 156.03856 92.916016 157.39648 C 93.161986 157.87801 93.288378 158.67415 93.205078 159.22461 C 93.113618 159.82918 93.183485 160.19922 93.390625 160.19922 C 93.574355 160.19922 93.724609 159.9975 93.724609 159.75 C 93.724609 158.18023 95.476539 161.136 95.667969 163.0293 C 96.014539 166.45431 99.233599 173.44254 102.85547 178.62891 C 106.7047 184.14087 113.21247 191.06717 118.6543 195.44336 C 121.84567 198.00977 126.50324 202.50547 127 203.5 C 127.52606 204.55318 128.62959 205.30166 129.77344 205.38086 C 130.58332 205.43693 131.75076 206.16494 133.17578 207.50195 C 134.22831 208.48943 141.14494 214.5791 143.50195 216.59375 C 148.33912 220.72832 153.56122 226.25574 156.11719 229.94727 C 157.48723 231.92598 158.74209 233.95098 158.90625 234.44727 C 159.29595 235.62543 159.68628 236.01523 160.74609 236.27539 C 161.60364 236.48587 161.61426 236.47174 161.41602 235.46875 C 161.1714 234.23122 159.43231 230.49987 158.14453 228.44922 C 155.84383 224.78559 153.8342 222.52326 149.08594 218.25 C 147.6192 216.93 146.02254 215.49263 145.53711 215.05469 C 145.05167 214.61672 144.73878 214.12176 144.8418 213.95508 C 144.94482 213.78837 144.85962 213.5836 144.65234 213.5 C 144.39346 213.39565 144.41598 213.34042 144.72656 213.32422 C 144.97527 213.3112 146.39316 213.91455 147.87695 214.66602 C 150.75108 216.12168 152.28238 216.70071 154.92578 217.33203 C 155.83328 217.54875 157.65461 218.02571 158.97461 218.39258 C 160.29461 218.75945 162.11789 219.234 163.02539 219.44727 C 163.93289 219.66051 165.9927 220.18702 167.60352 220.61719 C 169.22922 221.05135 171.34161 221.40039 172.34961 221.40039 C 173.3484 221.40039 174.45992 221.56532 174.82031 221.76758 C 175.27262 222.02141 178.26227 222.19658 184.47461 222.33398 C 189.42461 222.44345 194.75867 222.68795 196.32617 222.87695 C 199.31615 223.2374 199.14674 223.25909 204.125 221.84375 C 204.8675 221.63264 206.82461 221.16125 208.47461 220.79492 C 210.12461 220.42859 212.14961 219.95061 212.97461 219.73242 C 213.79961 219.51426 215.82461 219.04706 217.47461 218.69531 C 222.32561 217.66121 226.19099 216.65225 230.82617 215.20703 C 237.25316 213.20318 237.72965 213.00698 239.05859 211.81445 C 240.45689 210.55973 241.9151 209.59091 242.11133 209.78711 C 242.18522 209.86103 242.11441 210.44541 241.95312 211.08594 C 241.79187 211.72647 241.33277 213.53211 240.93359 215.09961 C 240.53438 216.66711 239.91264 219.23328 239.55273 220.80078 C 239.19285 222.36828 238.62874 224.79672 238.29688 226.19922 C 237.96498 227.60172 237.54885 229.35711 237.37305 230.09961 C 237.19728 230.84211 236.31556 233.61 235.41406 236.25 C 233.61532 241.51743 232.65743 244.45173 231.68945 247.65039 C 231.33992 248.80539 230.85601 250.35711 230.61523 251.09961 C 230.37442 251.84211 230.05384 253.935 229.90234 255.75 C 229.75081 257.565 229.50942 260.31931 229.36719 261.87109 C 229.22502 263.42287 229.21493 265.11037 229.34375 265.62109 C 231.28028 273.2986 232.87756 277.9014 235.85938 284.40039 C 238.33921 289.80528 239.82247 294.8845 242.36719 306.68359 C 242.64409 307.96747 243.10587 309.25154 243.39258 309.53516 C 244.53564 310.66595 245.11681 314.52678 246.27148 328.65039 C 246.95023 336.9523 247.48908 341.4624 248.49609 347.25 C 248.709 348.47331 248.71982 351.25989 248.52734 355.94922 C 248.14013 365.38107 247.41612 377.58309 247.05078 380.84961 C 246.8847 382.33461 246.53835 388.07211 246.28125 393.59961 C 246.02412 399.12711 245.73954 404.73078 245.64844 406.05078 L 245.48242 408.44922 L 235.5293 408.49609 C 230.05481 408.52189 221.59211 408.76702 216.72461 409.03906 C 208.03352 409.52476 191.61695 409.649 174.57617 409.35938 C 170.61617 409.29205 165.28211 409.3442 162.72461 409.47461 C 159.21791 409.65341 157.97755 409.62213 157.67773 409.34766 C 156.7537 408.50172 152.52539 390.42607 152.52539 387.32227 C 152.52539 386.5813 151.79596 382.2575 150.9043 377.71289 C 150.01264 373.16825 148.99957 367.56906 148.65234 365.26953 L 148.01953 361.08789 L 148.84766 360.22461 C 149.61582 359.42283 149.67456 359.18532 149.66406 356.90625 C 149.65786 355.55586 149.42066 352.08672 149.13672 349.19922 C 147.1029 328.51679 147.23989 308.84151 149.54102 291 C 150.37898 284.50296 150.68191 282.9666 151.4707 281.25 C 156.96893 269.28447 158.77313 262.72245 158.97656 253.94922 C 159.08492 249.27603 158.77182 246.51822 157.63281 242.09961 C 157.31379 240.86211 156.919 238.7619 156.75391 237.43164 C 156.58885 236.10138 156.31511 234.65052 156.14648 234.20703 C 155.83757 233.39451 154.93686 233.07888 154.91406 233.77539 C 154.90728 233.98164 154.36611 233.5584 153.71289 232.83594 C 152.9197 231.95868 152.52539 231.24164 152.52539 230.67578 C 152.52539 228.84704 151.31295 227.569 151.08008 229.15234 C 150.99765 229.7128 150.48833 229.34259 147.54102 226.57812 C 144.15679 223.4038 140.29327 220.5 139.45312 220.5 C 139.2116 220.5 139.02539 220.79027 139.02539 221.16602 C 139.02539 221.62865 140.76041 223.57537 144.72461 227.55859 C 147.85961 230.70862 150.42192 233.41299 150.41992 233.56836 C 150.41739 233.72373 150.29551 234.03919 150.14844 234.27148 C 149.98791 234.52507 150.00472 234.96372 150.18945 235.36914 C 150.42154 235.87854 150.30687 236.88071 149.72266 239.44727 C 149.2967 241.31858 148.86149 243.39078 148.75586 244.05078 C 148.65023 244.71078 148.3765 245.925 148.14648 246.75 C 147.55114 248.88537 146.24664 255.09978 145.91211 257.40039 C 145.75615 258.47289 145.41637 260.24003 145.15625 261.32812 C 144.89614 262.41623 144.72986 263.83412 144.78516 264.47852 L 144.88477 265.65039 L 145.53125 264.30078 C 146.08485 263.14593 146.60211 261.49803 148.02344 256.34961 C 148.1601 255.85461 148.55377 254.43672 148.89844 253.19922 C 150.51517 247.39464 151.59296 243.00215 151.78125 241.45312 C 151.95184 240.04969 152.18518 239.54555 153.13281 238.5293 C 153.76284 237.85364 154.36733 237.30078 154.47656 237.30078 C 154.85945 237.30078 154.39092 244.38843 153.75195 248.25 C 153.39699 250.395 152.98041 252.95922 152.82617 253.94922 C 152.54094 255.77997 151.7492 258.14535 148.91406 265.65039 C 148.04142 267.96039 146.29063 272.93931 145.02344 276.71484 C 143.47898 281.31648 142.65252 283.40089 142.51367 283.03906 C 142.241 282.32848 142.02892 282.61338 140.83398 285.30078 C 140.28373 286.53828 139.7967 287.59815 139.75 287.65625 C 139.70325 287.71433 139.3559 287.54558 138.97852 287.28125 C 138.60114 287.01692 137.89608 286.80078 137.41211 286.80078 C 136.92306 286.80078 136.06993 286.44845 135.49219 286.00781 C 134.60967 285.33467 134.5267 285.17241 134.93945 284.94141 C 135.58214 284.58174 135.55392 283.90838 134.85938 283.02539 C 134.54801 282.62957 134.20191 281.79792 134.08984 281.17773 C 133.84603 279.82845 131.94623 275.83202 130.56641 273.76562 C 129.85955 272.70708 129.29758 272.21183 128.60742 272.03516 C 128.01689 271.88399 127.31672 271.35059 126.80859 270.66797 C 126.35072 270.05285 125.06211 268.66771 123.94531 267.58984 C 122.0731 265.78285 121.92952 265.55556 122.10547 264.67578 C 122.43107 263.0478 122.0421 262.36914 119.85156 260.74023 C 118.70453 259.8873 117.08377 258.41654 116.25 257.4707 C 114.97762 256.02731 114.73447 255.55886 114.73047 254.5625 C 114.72667 253.49885 114.52261 253.17744 112.77539 251.47266 C 111.70289 250.4262 110.82617 249.31413 110.82617 249 C 110.82617 247.34376 110.18479 246.80281 103.47461 242.79883 C 98.767609 239.99014 99.103234 240.27828 99.302734 239.21484 C 99.570374 237.78822 98.774054 236.59132 96.714844 235.32031 C 95.063614 234.30109 94.916568 234.12531 95.080078 233.38086 C 95.400628 231.92139 94.560855 230.58292 92.546875 229.33984 C 91.534925 228.71521 90.770956 228.05671 90.847656 227.87695 C 90.924356 227.69719 91.145124 227.06374 91.339844 226.46875 C 91.872684 224.84059 91.102828 223.52903 88.142578 221.02148 C 85.907698 219.12839 85.694813 218.85633 85.939453 218.21289 C 86.335903 217.17012 85.904294 216.34557 84.027344 214.57227 L 82.357422 212.99609 L 83.091797 212.20508 C 84.444047 210.74597 83.942866 209.43284 80.728516 206.01953 C 79.471516 204.68471 79.404204 204.53197 79.714844 203.70898 C 79.990634 202.97833 79.934515 202.55459 79.390625 201.23828 C 79.029655 200.36468 78.753644 199.245 78.777344 198.75 C 78.827954 197.69334 78.27979 194.36592 77.65625 191.94141 C 76.95334 189.20829 76.364171 185.46906 76.150391 182.39844 L 75.951172 179.55078 L 77.076172 177.63477 C 78.112912 175.86996 78.187617 175.58868 78.029297 174.05469 C 77.928187 173.07501 77.604748 172.04705 77.242188 171.55664 C 76.903368 171.09836 76.625 170.5816 76.625 170.4082 C 76.625 169.61734 79.156391 165.04794 80.087891 164.15625 C 80.658931 163.60962 81.123094 163.00251 81.121094 162.80664 C 81.113334 162.20535 80.705162 161.84738 80.076172 161.89258 C 79.746172 161.91628 79.292499 161.95135 79.068359 161.96875 C 78.343039 162.02551 76.020088 164.79576 74.955078 166.875 C 73.998908 168.74178 73.842606 168.9003 72.947266 168.9043 C 72.413086 168.90655 71.672031 168.99034 71.300781 169.08984 C 70.905271 169.19583 70.625 169.13548 70.625 168.94531 C 70.625 168.33823 72.508079 166.47426 73.568359 166.03125 C 74.574539 165.61083 74.598311 165.5686 74.050781 165.1543 C 72.144721 163.71199 69.569076 165.58305 67.472656 169.93359 C 66.752596 171.42789 65.940209 173.43341 65.667969 174.39062 C 65.245899 175.87464 65.107812 176.07618 64.726562 175.75977 C 64.367703 175.46189 64.224443 175.47267 64.001953 175.81836 C 63.539733 176.5365 63.110526 178.39245 62.822266 180.91992 C 62.671786 182.23932 62.484597 183.42482 62.404297 183.55469 C 62.324027 183.68459 61.968874 184.86105 61.615234 186.16992 C 60.252624 191.21313 60.621531 199.32385 62.363281 202.59961 C 62.736481 203.30152 63.197942 204.77192 63.388672 205.86719 L 63.736328 207.85742 L 62.332031 210.41797 C 61.302681 212.29663 60.422774 213.42614 59.021484 214.66406 C 56.914604 216.52529 56.055228 217.9324 55.617188 220.24219 C 55.379778 221.49406 54.948805 222.22137 53.265625 224.21289 C 48.677485 229.64154 44.337623 236.9502 39.257812 247.80078 C 33.327933 260.46714 32.179598 262.8906 29.736328 267.90039 C 27.334658 272.82486 24.524439 277.93516 21.792969 282.34375 C 19.990519 285.25291 16.639776 291.41806 15.128906 294.60547 C 14.384416 296.17609 12.944947 299.01187 11.929688 300.90625 C 9.8328375 304.81879 6.1978425 312.15365 4.5390625 315.81836 C 3.8182425 317.41085 3.0959663 318.52519 2.5039062 318.96289 C 1.3782763 319.79512 0.43813625 321.27348 0.09765625 322.74414 C -0.31556375 324.52902 0.61508688 328.18004 2.2480469 331.18359 C 3.0152469 332.59467 4.6223225 335.57328 5.8203125 337.80078 C 8.7457925 343.24035 15.012737 353.55711 16.935547 356.09961 C 17.372297 356.67711 18.486836 358.16289 19.410156 359.40039 C 20.333476 360.63789 21.669339 362.34755 22.380859 363.19922 C 23.092379 364.05089 26.053857 367.6955 28.960938 371.29883 C 35.852178 379.84058 41.752503 386.34598 47.845703 392.12305 C 52.335113 396.37957 57.978324 401.5356 59.808594 403.05078 L 60.533203 403.65039 L 60.056641 402.94727 C 59.794511 402.56102 58.016236 400.58256 56.103516 398.54883 C 54.190796 396.5151 52.625 394.75766 52.625 394.64453 C 52.625 394.4261 59.530596 400.72788 59.884766 401.26953 C 59.999436 401.44491 61.335809 402.59124 62.855469 403.81836 C 64.375139 405.04548 66.171996 406.52636 66.847656 407.10938 C 68.173696 408.25357 70.266058 409.82245 73.273438 411.92383 C 74.317538 412.6534 75.479176 413.51961 75.853516 413.84961 L 76.533203 414.44922 L 76.181641 420.90039 C 75.987661 424.44789 75.883872 428.29422 75.951172 429.44922 C 76.042662 431.02062 75.915849 432.03255 75.449219 433.46484 C 74.775739 435.53205 74.661786 437.28597 75.103516 438.82617 C 75.275596 439.42617 75.275596 439.80078 75.103516 439.80078 C 74.950036 439.80078 74.826172 440.06269 74.826172 440.38477 C 74.826172 441.11458 76.883639 442.57005 79.068359 443.38281 C 83.801339 445.14534 93.74262 447.6594 101 448.92969 C 101.61875 449.03799 102.125 449.19138 102.125 449.27148 C 102.125 449.35152 101.64581 449.83986 101.05859 450.35547 C 99.407444 451.80519 98.749718 453.36429 98.492188 456.44922 C 98.368218 457.93422 98.128164 460.02711 97.958984 461.09961 C 96.534024 470.13315 95.799621 477.88122 95.087891 491.39844 C 94.336061 505.6773 94.237367 513.17436 94.623047 526.5 C 94.826067 533.5125 94.954603 541.34094 94.908203 543.89844 C 94.861903 546.45594 94.828937 552.69186 94.835938 557.75586 L 94.847656 566.96289 L 95.65625 568.34375 C 96.55397 569.87561 98.296019 571.27996 99.974609 571.82617 C 100.58034 572.02327 101.50056 572.53663 102.01953 572.9668 C 105.13817 575.55169 109.885 579.07519 111.62305 580.09375 C 114.95041 582.04372 120.80963 583.60626 126.21094 583.98438 C 127.82524 584.09739 129.20268 584.27932 129.27148 584.39062 C 129.34028 584.50196 129.42268 587.41842 129.45508 590.87109 C 129.48752 594.32376 129.624 598.16094 129.75781 599.39844 C 129.89162 600.63594 130.07271 603.20211 130.16211 605.09961 C 130.25151 606.99711 130.39833 608.89139 130.48633 609.31055 C 130.63195 610.00415 130.503 610.12437 129.06055 610.63281 C 126.28613 611.61075 122.72719 613.45956 120.97852 614.83203 C 119.36522 616.09827 117.50682 618.18067 117.76172 618.43555 C 117.82741 618.50125 118.68916 617.94596 119.67773 617.20312 C 122.5645 615.03397 127.68375 612.75348 132.31836 611.57031 C 134.76484 610.94655 135.32642 610.94637 134.80859 611.57031 C 134.22065 612.27873 132.86092 612.90039 131.89844 612.90039 C 131.42683 612.90039 129.90667 613.31283 128.52148 613.81836 C 126.28801 614.63349 125.68496 615.03285 123.18359 617.34375 C 121.63225 618.77697 119.86463 620.35461 119.25586 620.84961 C 116.00579 623.49228 112.13636 628.6246 109.52539 633.75586 C 107.77789 637.19014 104.2209 644.95029 102.79102 648.44922 C 102.18415 649.93422 101.51622 651.25869 101.30664 651.39062 C 100.70823 651.76736 100.83494 652.25692 102.25977 655.09375 C 104.54901 659.65162 110.07152 665.38194 115.9707 669.31641 C 117.51292 670.34499 119.32254 671.62695 119.99219 672.16602 C 120.83151 672.84165 121.67142 673.20975 122.69336 673.34961 C 123.50871 673.46121 125.18828 673.80238 126.42578 674.10742 C 127.66328 674.41246 129.41867 674.72664 130.32617 674.80664 C 131.23367 674.88659 132.7535 675.31086 133.70508 675.75 C 136.06091 676.8372 140.24968 677.11734 142.98633 676.37109 C 145.32837 675.73242 149.62002 673.93793 151.03711 673.00391 C 151.74669 672.53624 152.7417 672.24452 154.03711 672.125 C 155.10319 672.02666 157.19078 671.53236 158.67578 671.02734 C 160.75475 670.32033 162.13596 670.06584 164.68359 669.91992 C 167.38761 669.76506 168.19372 669.60626 169.0957 669.04883 C 171.65815 667.46513 173.05018 664.71978 175.80664 655.80078 C 177.42631 650.56008 177.72461 649.43569 177.72461 648.60742 C 177.72461 647.83351 178.16644 646.53048 180.41797 640.65039 C 182.29774 635.74125 182.44455 635.18973 182.66016 632.25 C 182.78049 630.6096 183.28622 628.01985 183.94922 625.65039 C 185.12657 621.44268 185.47827 618.24523 184.93164 616.71289 C 184.74276 616.18336 184.12996 613.93807 183.56836 611.72461 C 182.53009 607.63258 180.43316 602.79338 179.52539 602.39258 C 177.64688 601.56317 177.75837 601.7424 175.83789 596.55078 C 174.32568 592.4628 173.93412 590.69042 173.5293 586.13672 C 173.37219 584.36963 173.15752 582.58356 173.05273 582.16602 C 172.8811 581.48226 173.00628 581.34378 174.31836 580.78125 C 175.11957 580.43772 177.24221 579.75712 179.03516 579.26953 C 182.81057 578.24284 183.09666 578.11139 184.74414 576.61328 C 186.96693 574.59197 189.01558 574.28468 190.52539 575.74805 C 191.29873 576.4976 191.77269 576.70166 192.78906 576.72266 L 194.07617 576.75 L 194.24219 564.44922 C 194.40095 552.67365 194.44156 551.97693 195.21094 548.09961 C 195.65293 545.87211 196.28367 542.565 196.61328 540.75 C 196.94292 538.935 197.55015 535.62789 197.96094 533.40039 C 198.37176 531.17289 199.0324 527.52828 199.42969 525.30078 C 199.99072 522.1554 200.6682 519.84204 202.46289 514.94922 C 203.73387 511.48422 205.0447 507.77172 205.37695 506.69922 C 205.70923 505.62672 206.51869 503.36703 207.17578 501.67578 C 208.31281 498.74922 208.41315 498.59961 209.24805 498.59961 C 210.12355 498.59961 210.12591 498.60282 210.12891 500.47461 C 210.13071 501.50586 210.31903 502.96951 210.54883 503.72656 C 210.95869 505.07692 211.2691 505.8969 213.88477 512.55078 C 220.06072 528.26169 221.63131 533.39967 223.30078 543.35742 C 224.94505 553.16487 225.125 554.58447 225.125 557.73438 C 225.125 563.51243 226.14887 565.29995 230.69141 567.45117 C 232.21547 568.17291 233.51879 568.93143 233.58789 569.13867 C 233.68641 569.43423 234.40761 569.39678 236.92773 568.96484 C 239.91888 568.4521 240.26853 568.44807 242.00781 568.89258 C 243.03522 569.15517 245.86559 569.51742 248.29883 569.69922 C 250.89893 569.89347 254.36243 570.39311 256.69922 570.91016 C 258.88598 571.394 261.04625 571.79192 261.5 571.79492 C 261.95375 571.79765 262.32617 571.90763 262.32617 572.03906 C 262.32617 572.66369 272.07978 573.49045 286.37109 574.07812 L 290.76562 574.25977 L 290.89258 575.11523 C 290.9617 575.58605 290.91717 577.96855 290.79492 580.41016 C 290.6727 582.85177 290.34435 590.04789 290.06445 596.40039 C 289.78455 602.75289 289.46963 608.0352 289.36523 608.13867 C 289.26083 608.24214 286.74696 608.40033 283.7793 608.49023 C 278.42952 608.65223 277.60934 608.45258 281.07617 607.83203 C 282.81785 607.5203 287.36429 607.33084 287.97461 607.54492 C 288.13961 607.60282 288.34328 607.52048 288.42578 607.36328 C 288.66212 606.91304 285.74465 605.96865 283.92578 605.90625 C 283.01828 605.87514 281.26822 605.96242 280.03711 606.09961 L 277.79883 606.34961 L 278.51172 605.77148 C 278.91138 605.44784 279.39717 604.54928 279.62109 603.72266 C 281.00658 598.60847 282.49023 589.32813 282.39453 586.37109 C 282.35286 585.08439 282.53611 583.99249 282.99805 582.75781 C 283.80826 580.59238 283.65474 579.30038 282.35742 577.3418 C 280.85679 575.07626 279.5933 574.46968 276.01172 574.29883 C 270.21746 574.02241 268.48794 574.27145 267.44727 575.52539 C 267.23757 575.77805 266.57289 576.07304 265.9707 576.18164 C 264.72855 576.40562 263.77869 576.83566 263.45508 577.32031 C 263.33385 577.50187 263.23347 576.68639 263.23047 575.50781 C 263.22717 573.97061 263.10812 573.32049 262.8125 573.20703 C 262.21097 572.97621 261.79777 574.06039 261.58594 576.41992 C 261.48376 577.55836 261.139 579.06218 260.82031 579.76172 C 260.34898 580.79639 260.1906 582.1453 259.9707 586.99219 C 259.82203 590.26918 259.72962 594.19836 259.76562 595.72461 C 259.83765 598.77855 259.82031 598.80237 258.02148 598.05078 C 256.26141 597.31536 254.25274 597.46669 252.69727 598.45312 C 250.14055 600.07453 248.22461 602.8307 248.22461 604.88672 C 248.22461 606.20999 249.85519 615.5529 250.48633 617.84961 C 250.75837 618.83961 251.17565 620.45922 251.41406 621.44922 C 251.65244 622.43922 251.97769 623.73734 252.13672 624.33398 C 252.29572 624.93062 252.42864 625.87719 252.43164 626.43555 C 252.43728 627.46791 253.07868 631.27095 253.61523 633.44922 C 253.77777 634.10922 253.91397 635.26674 253.91797 636.01953 C 253.92664 637.67508 255.22837 641.63463 256.77148 644.69922 C 257.92912 646.99824 265.79428 659.71382 268.26172 663.27539 C 270.64864 666.7208 272.29415 668.69279 273.29688 669.3125 C 273.83222 669.64337 275.02925 670.85512 275.95898 672.00586 C 277.96556 674.48932 279.1425 675.6246 279.48633 675.41211 C 279.62421 675.32691 280.23966 675.65204 280.85547 676.13477 C 283.28448 678.03884 286.39862 679.52863 288.72461 679.89844 C 289.13711 679.96403 289.5425 680.03489 289.625 680.05469 C 289.7075 680.07464 289.97295 679.9655 290.21484 679.8125 C 290.56455 679.59134 290.47312 679.46538 289.76562 679.19727 C 287.28435 678.25686 283.30146 675.90421 282.44727 674.875 C 281.73165 674.01271 283.13264 674.31297 284.35352 675.2832 C 286.59422 677.06388 291.73021 677.3708 297.04102 676.04102 C 298.75438 675.61202 300.31795 675.32158 300.51562 675.39648 C 300.7133 675.47133 300.13211 675.88669 299.22461 676.32031 C 298.31761 676.75393 297.91367 677.02468 298.32617 676.92188 C 300.51887 676.3754 310.17492 671.04318 312.73438 668.96484 C 316.97316 665.52285 318.28384 663.69325 318.58984 660.79102 C 318.65713 660.15301 318.84326 658.86894 319.00391 657.93945 C 319.96451 652.38153 320.07751 632.14791 319.16602 628.94922 C 318.93094 628.12422 318.60084 625.95341 318.43164 624.125 C 318.10176 620.56031 317.64633 617.75454 317.21094 616.60938 C 316.89969 615.79064 315.89115 615.65747 315.48633 616.38086 C 315.04746 617.16506 313.26543 616.0314 312.02148 614.17578 C 310.90539 612.5109 310.98861 612.30688 312.46875 613.07227 C 313.74843 613.73404 313.82255 613.44169 312.66797 612.28711 C 310.5476 610.16674 307.25938 609.30645 301.1875 609.28125 C 298.70593 609.2709 295.66328 609.10215 294.42578 608.90625 L 292.17578 608.55078 L 292.27148 606.15039 C 292.32389 604.83039 292.48687 602.60172 292.63477 601.19922 C 293.03539 597.39981 293.65997 585.9119 293.66797 582.20117 C 293.67391 579.41378 293.59788 578.89519 293.13477 578.55664 C 292.73799 578.26657 292.54726 577.58892 292.41406 576 L 292.23242 573.83789 L 294.75391 574.01367 C 300.64978 574.42395 307.25893 574.54861 307.80664 574.25977 C 308.11957 574.09477 309.3875 573.83066 310.625 573.67188 C 313.28258 573.33093 315.50776 572.14879 318.75781 569.35156 C 322.69684 565.96135 323.56341 562.84595 323.56641 552.07031 C 323.56773 544.89557 323.51243 544.11469 322.56836 537.83203 C 321.96167 533.79481 321.96014 533.69242 322.50977 532.58203 C 322.90079 531.7921 323.05307 530.90595 323.00977 529.65039 C 322.97566 528.66039 323.14546 527.23714 323.38867 526.48828 C 323.94342 524.78026 323.9354 519.1914 323.35742 505.94922 C 322.93511 496.27398 322.86907 495.00594 322.31641 486 C 321.61336 474.54276 320.36997 458.5814 320.08203 457.32227 C 319.71804 455.73071 319.04834 450.20612 319.19141 449.97461 C 319.43678 449.57765 322.29933 448.80078 323.51562 448.80078 C 324.11077 448.80078 325.13347 448.51353 325.78711 448.16406 C 326.44075 447.81462 327.4469 447.4409 328.02344 447.33398 C 328.73147 447.20267 329.18611 446.89784 329.42578 446.39453 C 329.96017 445.27229 330.52979 434.25513 330.14258 432.52734 C 329.96989 431.75697 329.84769 429.80573 329.87109 428.18945 C 329.89455 426.57314 329.69317 422.41422 329.42188 418.94922 C 329.15061 415.48422 328.79707 410.35578 328.63672 407.55078 C 328.3546 402.61467 328.36522 402.41006 328.99219 401.20703 L 329.64062 399.96484 L 329.2832 387.25781 C 329.08709 380.26895 328.73366 371.78289 328.49609 368.40039 C 327.80351 358.53954 327.60187 346.31241 327.99805 338.09961 C 328.6108 325.39791 329.87315 305.31693 330.42188 299.55078 C 330.57889 297.90078 330.91381 292.7025 331.16602 288 C 331.76686 276.79683 331.98158 274.94112 334.51562 258.90039 C 335.10209 255.18789 335.65539 251.633 335.74609 251 C 335.83678 250.367 336.08176 249.78262 336.28906 249.70312 C 336.59325 249.5864 345.45895 250.52601 352.54688 251.39062 L 344.68945 228.66211 L 308.53516 165.13086 L 308.60938 163.39648 C 307.617 163.56433 307.32422 163.16209 307.32422 162.0332 C 307.32422 161.25728 306.67646 160.55739 305.75 160.33398 C 304.9657 160.14484 304.92383 160.18764 304.92383 161.2168 C 304.92383 162.00784 304.79508 162.30078 304.44531 162.30078 C 304.02966 162.30078 303.97713 161.83698 304.04883 158.77539 C 304.17186 153.51988 303.10578 149.46468 301.51758 149.15234 C 301.07377 149.06505 301.02341 149.65235 301.00781 155.00391 C 300.99827 158.27475 300.86505 162.50289 300.71289 164.40039 C 300.5607 166.29789 300.34514 169.76974 300.23438 172.11523 C 300.00664 176.93659 300.16867 177.48697 301.71484 177.17773 C 302.42938 177.03481 302.55442 177.0893 302.4043 177.48047 C 302.10166 178.26917 301.07115 182.71525 300.71484 184.76953 C 300.44725 186.31261 300.45877 186.73746 300.77734 186.93945 C 301.64944 187.49241 302.36801 187.22022 303.25391 186 C 303.84326 185.18829 303.8324 185.22936 302.75195 187.94922 C 301.34084 191.50131 299.45552 197.09489 299.07617 198.85352 C 298.56986 201.20054 298.718 201.69771 299.87891 201.52734 C 300.97775 201.36606 301.05241 201.1838 297.75586 206.80859 C 296.29198 209.30633 294.60782 212.3208 294.01367 213.50781 C 293.01422 215.50467 292.97044 215.70283 293.42383 216.15625 C 293.69338 216.4258 294.16335 216.58185 294.46875 216.50195 C 294.77415 216.42213 295.02344 216.44735 295.02344 216.55859 C 295.02344 216.66983 293.61214 218.16715 291.88672 219.88672 C 288.53221 223.2298 287.86407 224.25465 288.39258 225.24219 C 288.66828 225.75735 288.51925 225.99248 287.29297 226.98047 C 283.9084 229.70741 280.63666 233.60804 278.10547 237.93164 C 276.17527 241.2287 276.01286 241.39815 273.57422 242.69727 C 269.82515 244.69449 265.82072 247.62185 262.96484 250.45312 C 259.70129 253.68857 255.93454 258.18447 256.0918 258.65625 C 256.14829 258.82575 257.277 258.03749 258.59961 256.90625 C 260.87583 254.95937 265.51559 251.49992 267.65234 250.1543 C 269.29421 249.12032 268.49812 250.20313 266.14258 252.21094 C 260.15464 257.31487 259.03603 258.23773 257.51758 259.32031 C 255.44593 260.79727 252.60918 263.73422 251.06445 266.00195 C 250.40973 266.96312 249.25398 268.52691 248.49609 269.47656 C 246.94974 271.41414 246.24535 273.44349 245.9707 276.75 C 245.87476 277.905 245.64745 279.87882 245.46484 281.13672 C 245.22394 282.80481 245.22361 283.77607 245.46484 284.72656 L 245.46289 284.72656 C 245.64485 285.44332 245.76025 286.06397 245.71875 286.10547 C 245.67723 286.14696 245.38736 285.74602 245.07617 285.21484 C 244.14197 283.62019 241.70891 280.34187 237.38477 274.85352 C 232.73552 268.95255 232.48452 268.39992 232.47852 264 C 232.47468 261.31662 232.57438 260.85753 234.17578 256.16016 C 235.90378 251.09148 236.20531 250.33653 238.41406 245.55078 C 239.96872 242.18223 240.95588 240.27651 243.68945 235.36719 C 245.97263 231.26673 246.29176 230.33999 245.47852 230.16992 C 244.41355 229.94726 242.54288 232.20579 238.41797 238.68945 C 237.36845 240.33909 239.31836 235.35969 244.51367 223.125 C 247.76411 215.47029 249.26483 212.23462 249.68555 211.97461 C 250.39427 211.53658 250.03462 210.90039 249.07812 210.90039 C 247.80799 210.90039 246.23007 212.6245 244.78125 215.5957 C 244.17531 216.8383 243.62529 217.80107 243.55859 217.73438 C 243.4919 217.66768 243.77816 216.67596 244.19531 215.53125 C 244.61246 214.38654 245.39455 211.93528 245.93359 210.08398 C 246.83491 206.9884 247.00251 206.65703 248.02539 205.96289 C 250.95036 203.97794 252.533 202.6497 253.26953 201.56055 C 254.17712 200.2185 255.76604 197.99648 258.85938 193.73828 C 261.33851 190.32551 262.40817 188.67504 264.6543 184.80078 C 265.56306 183.23328 266.67103 181.41 267.11719 180.75 C 267.56332 180.09 268.36576 178.74512 268.90039 177.76172 C 269.43505 176.77829 270.12034 175.62661 270.42188 175.20312 C 270.72343 174.77964 272.39098 171.52823 274.12891 167.97656 C 277.86718 160.33704 278.45866 158.43559 280.32031 148.05078 C 280.46821 147.22578 280.72822 145.80789 280.89844 144.90039 C 281.48137 141.79271 281.60835 140.11254 281.28906 139.72656 C 281.11755 139.51922 280.88543 138.20328 280.77344 136.80078 C 280.66145 135.39828 280.29631 133.50711 279.96289 132.59961 C 279.62944 131.69211 279.17016 130.07439 278.94141 129.00391 C 278.67762 127.76955 278.13928 126.49812 277.4707 125.52734 C 276.89086 124.68545 276.08143 123.14078 275.67188 122.0957 C 275.01115 120.40971 274.96187 120.00774 275.22266 118.52344 C 275.77781 115.36401 276.37426 112.64814 276.69922 111.80469 C 276.8782 111.3402 277.03011 110.12598 277.03711 109.10547 C 277.04434 108.08496 277.23461 106.77672 277.45898 106.19922 C 278.52038 103.46706 279.49181 101.17478 279.91406 100.4082 C 280.3619 99.595143 280.99882 96.599029 281.51953 92.849609 C 282.34399 86.913179 282.81911 84.397085 283.19141 83.984375 C 283.51757 83.622845 283.63026 82.135532 283.69336 77.382812 L 283.76367 72.003906 L 280.80469 63.337891 L 270.03906 42.816406 L 269.53516 42.804688 L 269.00586 41.851562 C 268.71459 41.327012 267.88138 39.760947 267.15625 38.373047 C 265.96072 36.084817 265.23456 35.249181 259.35156 29.400391 C 254.874 24.948871 252.26149 22.590119 250.91992 21.787109 C 249.05314 20.669729 247.73618 19.894296 243.65039 17.503906 C 240.64823 15.747476 232.94957 11.591691 230.82617 10.582031 C 223.37303 7.0381112 217.74008 5.1367163 209.67578 3.4414062 C 208.68578 3.2332863 206.8625 2.8402194 205.625 2.5683594 C 201.34292 1.6276694 199.95098 1.5503625 195.01172 1.9765625 C 192.39146 2.2026225 190.12982 2.3152625 189.98633 2.2265625 C 189.84284 2.1378925 189.72461 1.8705725 189.72461 1.6328125 C 189.72461 0.9415825 188.59338 0 187.76172 0 z M 187.45508 12.603516 C 187.48064 12.6036 187.50907 12.693174 187.54297 12.873047 C 187.6414 13.395327 187.74872 13.487662 187.92578 13.201172 C 188.09441 12.928352 188.27217 13.170143 188.49609 13.976562 C 188.67525 14.621873 188.82422 15.387031 188.82422 15.675781 C 188.8259 16.198771 188.5738 16.259131 187.52344 15.988281 C 187.12396 15.885291 187.01901 15.665146 187.14453 15.197266 C 187.24008 14.841066 187.33673 14.009609 187.36133 13.349609 C 187.37995 12.852472 187.41247 12.603375 187.45508 12.603516 z M 140.82617 17.099609 C 140.99117 17.099609 141.125 17.235391 141.125 17.400391 C 141.125 17.565391 140.99117 17.699219 140.82617 17.699219 C 140.66117 17.699219 140.52539 17.565391 140.52539 17.400391 C 140.52539 17.235391 140.66117 17.099609 140.82617 17.099609 z M 139.75195 17.400391 C 140.75208 17.400391 140.14721 18.001013 138.20117 18.939453 C 137.08742 19.476533 135.79557 20.173774 135.33203 20.490234 C 134.8685 20.806694 133.45256 21.466478 132.18359 21.955078 C 130.91463 22.443688 129.67328 23.025217 129.42578 23.248047 C 129.17828 23.470887 128.57117 23.747891 128.07617 23.863281 L 127.17578 24.072266 L 127.77539 23.449219 C 129.07877 22.093009 138.37002 17.400391 139.75195 17.400391 z M 122.09375 27.314453 C 122.64574 27.233655 121.7866 28.129085 119.95117 29.5 C 117.53553 31.30428 116.89924 31.582019 117.42188 30.605469 C 117.72342 30.042019 120.79659 27.783506 121.76953 27.410156 C 121.90729 27.357294 122.01489 27.325996 122.09375 27.314453 z M 191 28.722656 C 191.24812 28.68778 191.43579 29.112431 191.56445 30 C 191.67206 30.7425 191.80779 31.605089 191.86719 31.917969 C 191.98305 32.528109 191.39961 32.924853 191.09961 32.439453 C 191.0001 32.278433 190.51459 32.057519 190.02148 31.949219 C 188.98222 31.720949 188.93474 31.54246 189.65039 30.5625 C 189.93914 30.1671 190.31533 29.59035 190.48633 29.28125 C 190.68069 28.929905 190.85113 28.743582 191 28.722656 z M 192.2793 47.945312 C 192.2964 47.963046 192.31496 48.007106 192.33398 48.080078 C 192.41008 48.371968 192.40447 48.777359 192.32227 48.980469 C 192.24007 49.183579 192.17759 48.944219 192.18359 48.449219 C 192.18818 48.077969 192.228 47.892113 192.2793 47.945312 z M 105.94531 48.599609 C 105.3043 49.118699 99.312661 54.696969 98.056641 55.943359 C 97.221141 56.772469 96.284289 57.594704 95.974609 57.771484 C 95.664929 57.948274 95.351397 58.270138 95.279297 58.486328 C 95.190017 58.754168 95.468591 58.699093 96.150391 58.314453 C 97.306751 57.662083 104.5903 50.686949 105.51172 49.349609 C 105.85279 48.854609 106.04718 48.517109 105.94531 48.599609 z M 189.54102 94.314453 C 189.64859 94.31922 189.72461 94.439883 189.72461 94.632812 C 189.72461 94.890043 189.59078 95.099609 189.42578 95.099609 C 189.26078 95.099609 189.125 94.973619 189.125 94.818359 C 189.125 94.663099 189.26078 94.451589 189.42578 94.349609 C 189.46703 94.324117 189.50516 94.312864 189.54102 94.314453 z M 188.62695 95.513672 C 188.70804 95.515711 188.71746 95.633749 188.64062 95.833984 C 188.44118 96.353714 188.22461 96.449108 188.22461 96.017578 C 188.22461 95.862318 188.35837 95.653534 188.52148 95.552734 C 188.56399 95.526457 188.59992 95.512992 188.62695 95.513672 z M 187.17578 103.03906 C 187.35663 103.0183 187.96753 103.26139 188.82617 103.70703 C 189.23867 103.92112 189.803 104.09676 190.08203 104.09766 C 190.79174 104.10025 191.05569 104.65222 190.96289 105.9375 C 190.83695 107.68186 194.58742 115.86918 197.68555 120.61523 C 200.23444 124.51985 200.828 125.74918 201.55664 128.63281 C 202.63478 132.8997 202.63562 132.95189 201.57617 133.27539 C 201.08117 133.42655 199.57284 133.65217 198.22461 133.77539 C 195.95955 133.9824 195.38439 134.18969 190.65234 136.52344 C 186.02775 138.80419 185.53034 139.12362 185.52734 139.81445 C 185.5259 140.2352 185.36402 140.74145 185.16602 140.93945 C 184.68215 141.42332 184.42489 141.39394 184.20703 140.82617 C 183.88111 139.97683 184.01614 138.42786 184.4668 137.83203 C 185.08636 137.01288 185.02822 136.27742 184.31641 135.89648 C 183.10579 135.24857 184.1271 135.01453 188.02344 135.04883 C 192.11415 135.08487 193.24361 134.83312 194.20898 133.66992 C 194.42342 133.41154 194.79404 133.19922 195.0332 133.19922 C 195.87842 133.19922 198.06504 131.6691 198.41016 130.83594 C 198.80451 129.88388 198.58429 128.60418 197.93164 128.0625 C 197.39647 127.61836 193.38196 121.70764 191.47852 118.56055 C 188.66263 113.90489 188.41601 113.59295 186.95117 112.8457 C 185.54207 112.1269 185.52539 112.10326 185.52539 110.64062 C 185.52539 109.82706 185.66427 108.90109 185.83398 108.58398 C 186.28242 107.74607 187.32168 103.43701 187.14453 103.15039 C 187.10276 103.08279 187.1155 103.04598 187.17578 103.03906 z M 287.32031 128.47656 C 286.91798 128.3469 286.33112 130.17225 286.32812 131.55859 C 286.3272 132.05813 286.51121 132.73313 286.73828 133.05859 C 287.79155 134.56829 291.77279 145.13385 292.58984 148.58789 C 292.77693 149.37893 292.84208 150.37754 292.73438 150.80664 C 292.55488 151.52182 292.60075 151.57022 293.29297 151.39648 C 294.02338 151.21316 294.05498 151.26739 294.25586 153.04297 C 294.43481 154.6249 295.08191 157.48164 295.79102 159.82422 C 296.19974 161.17452 297.56269 160.32079 297.9043 158.5 C 298.21096 156.86524 296.82841 145.20452 296.23828 144.44922 C 296.10934 144.28422 295.83392 143.4075 295.625 142.5 C 294.47885 137.52125 293.56956 135.89917 292.51758 136.95117 C 291.96981 137.49893 291.7279 137.52123 291.7168 137.02539 C 291.70261 136.38671 287.69717 128.59802 287.32031 128.47656 z M 286.21875 133.34375 C 285.91965 133.42363 285.6437 134.32617 285.87305 134.69727 C 285.97592 134.86374 286.1885 135 286.34375 135 C 286.70925 135 286.71252 133.58877 286.34766 133.36328 C 286.30536 133.33714 286.26148 133.33234 286.21875 133.34375 z M 183.64062 149.56055 C 184.17699 149.47661 184.25723 149.96525 184.01562 151.19922 C 183.87028 151.94172 183.74528 153.2426 183.73828 154.08984 L 183.72461 155.63086 L 182 155.83789 C 179.92328 156.08715 177.30677 156.7997 176.07617 157.45117 C 175.58117 157.71322 174.7025 158.09878 174.125 158.30859 C 172.96343 158.73063 172.97264 158.73087 171.27539 158.38867 C 170.61539 158.2556 167.91539 157.93171 165.27539 157.66797 C 162.63539 157.40422 159.39617 157.05645 158.07617 156.89453 C 156.75617 156.7326 154.73117 156.59484 153.57617 156.58984 C 152.42117 156.58465 150.59789 156.45949 149.52539 156.3125 C 143.76191 155.52259 142.64873 155.33045 141.27539 154.88672 C 139.11965 154.1902 136.83691 153.09097 137.14844 152.89844 C 137.29507 152.80781 137.94661 152.9211 138.5957 153.15234 C 139.24479 153.38359 140.18816 153.57894 140.69141 153.58594 C 141.19466 153.59318 141.73613 153.73028 141.89648 153.89062 C 142.05683 154.05098 143.1733 154.27486 144.37695 154.38672 C 145.5806 154.49859 146.40346 154.68989 146.20508 154.8125 C 146.00669 154.93511 147.44902 155.1173 149.41016 155.2168 C 151.37129 155.3163 155.5876 155.61259 158.7793 155.875 C 162.23356 156.15917 165.69306 156.27534 167.32812 156.16406 C 168.83892 156.06124 171.14103 155.9182 172.44336 155.8457 C 176.05809 155.64455 176.82038 155.12099 178.32617 151.80078 C 178.4384 151.55328 179.328 151.11122 180.30273 150.81836 C 181.27746 150.52549 182.46769 150.08063 182.94727 149.83008 C 183.23235 149.68114 183.46184 149.58853 183.64062 149.56055 z M 136.02539 152.09961 C 136.19039 152.09961 136.32617 152.23539 136.32617 152.40039 C 136.32617 152.56539 136.19039 152.69922 136.02539 152.69922 C 135.86039 152.69922 135.72461 152.56539 135.72461 152.40039 C 135.72461 152.23539 135.86039 152.09961 136.02539 152.09961 z M 239.36133 153.59961 C 239.43615 153.59961 239.58915 154.07929 239.69922 154.66602 C 239.8569 155.50654 239.76813 155.87201 239.28711 156.39062 C 238.95132 156.75265 237.96914 158.19711 237.10352 159.59961 C 236.23793 161.00211 234.9777 162.82088 234.30273 163.64062 C 233.62779 164.46038 232.35559 166.01209 231.47461 167.08984 C 230.5936 168.16759 229.46046 169.48914 228.95703 170.02539 C 227.83476 171.22083 227.6229 171.23833 227.5918 170.14453 C 227.57281 169.47583 227.98736 168.8742 229.49609 167.37891 C 232.19105 164.70789 231.9536 163.50612 229.02539 165 C 228.37853 165.33 227.73011 165.59961 227.58398 165.59961 C 227.43785 165.59961 227.09524 164.58398 226.82227 163.3418 C 226.24342 160.70739 226.213 160.19922 226.63672 160.19922 C 227.54326 160.19922 235.99232 156.10679 237.5 154.9375 C 238.44899 154.20153 239.28653 153.59961 239.36133 153.59961 z M 87.236328 155.9668 C 86.853185 155.96971 86.446461 156.33841 85.423828 157.44141 C 82.274678 160.83804 79.663221 167.39742 78.988281 173.60742 C 78.640101 176.81097 78.931663 179.9144 79.664062 180.79688 C 80.224002 181.47157 80.434943 180.97839 81.101562 177.44922 C 82.095812 172.18554 82.232111 171.62901 83.369141 168.15039 C 84.425161 164.9196 86.810056 159.80938 88.035156 158.15234 C 88.732016 157.2098 88.598202 156.51947 87.632812 156.07227 C 87.488425 156.00538 87.364043 155.96583 87.236328 155.9668 z M 161.48633 156.33594 C 161.26883 156.33484 161.0401 156.35277 160.85352 156.38867 C 160.48032 156.4604 160.715 156.52044 161.375 156.52344 C 162.03491 156.52677 162.34149 156.46963 162.05469 156.39453 C 161.91127 156.35703 161.70383 156.33704 161.48633 156.33594 z M 221.38867 162.43164 C 221.68705 162.44827 221.82699 163.06958 222.11133 165.30078 C 222.32349 166.96575 222.44752 168.37333 222.38672 168.42773 C 222.13193 168.65543 217.8899 170.42177 215.54297 171.27734 C 214.15013 171.78506 212.98673 172.19922 212.95703 172.19922 C 212.92742 172.19922 212.81331 171.28448 212.70312 170.16602 C 212.59291 169.04756 212.31466 167.32769 212.08594 166.34375 C 211.85729 165.35984 211.71302 164.51158 211.76562 164.45898 C 211.81818 164.40639 212.78667 164.23367 213.91797 164.07422 C 215.92509 163.79135 220.30116 162.82732 221.25 162.45898 C 221.3 162.43957 221.34605 162.42927 221.38867 162.43164 z M 206.97852 164.69922 L 208.92578 164.69922 L 208.92578 169.0332 C 208.92578 172.01661 208.81584 173.43269 208.57422 173.58203 C 208.38123 173.70131 206.18748 173.90529 203.69922 174.03711 C 201.21096 174.16893 198.63461 174.31588 197.97461 174.36328 L 196.77539 174.44922 L 196.54297 172.0957 C 196.28731 169.51411 195.6343 167.58088 195.08008 167.76562 C 194.56063 167.93878 193.97353 169.85064 193.65625 172.40625 C 193.50322 173.63883 193.33294 174.69009 193.27734 174.74219 C 193.12929 174.88094 187.06876 175.72261 183.43555 176.10938 C 181.70884 176.29316 180.18927 176.511 180.05859 176.5918 C 179.62242 176.86144 179.53952 175.97939 179.60742 171.7793 L 179.67578 167.60938 L 181.47461 167.52148 C 182.46461 167.47279 185.03078 167.35828 187.17578 167.26758 C 192.13496 167.05782 200.03088 166.06466 202.85352 165.29492 C 204.0516 164.96819 205.90785 164.69922 206.97852 164.69922 z M 304.42188 165.30078 C 304.69802 165.30078 304.58163 166.93286 304.08594 170.02148 C 303.84696 171.51044 303.42787 172.48889 303.42188 171.57422 C 303.41237 170.17799 304.19004 165.30078 304.42188 165.30078 z M 150.81445 165.91992 C 150.95177 165.92793 151.13589 165.96047 151.37891 166.00391 C 151.92715 166.10189 154.13039 166.32083 156.27539 166.49219 C 158.42039 166.66358 160.69519 166.88587 161.33008 166.98438 L 162.48438 167.16211 L 162.26758 169.90625 C 161.98834 173.45213 161.71859 175.29398 161.50781 175.08203 C 161.41532 174.98903 160.43004 174.78436 159.31836 174.62695 C 157.85607 174.41986 156.30721 173.85855 153.7168 172.5957 C 151.74743 171.63564 150.13386 170.68086 150.13086 170.47461 C 150.12432 169.97442 150.00737 169.9493 153.34375 171.19922 C 156.91222 172.53608 158.30158 172.88197 158.14258 172.39648 C 157.9912 171.93415 156.23147 170.78287 153.125 169.11328 C 150.82242 167.87572 150.56592 167.64906 150.47852 166.7832 C 150.40771 166.08183 150.4025 165.89591 150.81445 165.91992 z M 165.42578 167.25 L 170.90039 167.34961 C 173.91173 167.40478 176.46291 167.54056 176.57031 167.65039 C 176.74437 167.82835 176.46321 171.97155 176.04297 175.42578 L 175.88867 176.69922 L 172.53125 176.66602 C 170.68511 176.64688 168.97211 176.58806 168.72461 176.53516 C 168.47711 176.48227 167.63336 176.35308 166.84961 176.25 L 165.42578 176.0625 L 165.42578 171.65625 L 165.42578 167.25 z M 138.88867 168.625 C 139.07714 168.62436 139.39764 168.77625 139.84961 169.08398 C 140.46836 169.50524 141.81788 170.32133 142.84766 170.89844 C 143.87744 171.47558 144.80341 172.08286 144.9043 172.24609 C 145.00518 172.40932 145.27373 173.43465 145.50195 174.52539 C 145.73013 175.61616 145.86895 176.55683 145.81055 176.61523 C 145.63637 176.78941 139.42717 170.60526 139.0625 169.89453 C 138.63012 169.05185 138.57456 168.62606 138.88867 168.625 z M 223.33008 171.63867 L 223.77734 172.50391 C 224.50166 173.90455 224.32818 174.44433 222.75195 175.6875 C 221.94153 176.32668 219.55838 178.33539 217.45703 180.15039 C 215.35565 181.96539 213.12255 183.82836 212.49414 184.29102 C 211.48371 185.03493 208.07576 186.55556 201.27539 189.29492 C 198.63266 190.35947 195.84787 190.79517 196.11328 190.10352 C 196.38793 189.38781 196.90826 185.22162 197.05664 182.55078 L 197.18945 180.15039 L 198.63281 179.78125 C 204.37826 178.31437 208.75749 177.30078 209.3418 177.30078 C 209.88183 177.30078 210.1066 177.55007 210.37891 178.45898 C 210.57004 179.09687 210.72461 180.0531 210.72461 180.58398 C 210.72461 182.42256 211.45125 181.34593 211.82031 178.95898 C 212.1789 176.63983 212.48697 176.11447 213.49023 176.10547 C 214.13313 176.09974 217.11587 174.9365 217.32227 174.61133 C 217.40633 174.47891 218.79233 173.75508 220.40234 173.00391 L 223.33008 171.63867 z M 149.2168 174.39844 C 149.25224 174.38762 149.28497 174.38858 149.3125 174.40039 C 149.51261 174.48628 151.02578 175.17413 152.67578 175.92773 C 154.32578 176.68133 155.82825 177.29883 156.01562 177.29883 C 156.203 177.29961 156.7424 177.50006 157.21289 177.74414 C 157.68335 177.98822 158.97181 178.42059 160.07617 178.70508 L 162.08398 179.22266 L 162.17969 181.48633 C 162.23242 182.73151 162.2075 184.58442 162.125 185.60352 L 161.97461 187.45508 L 159.2207 185.75391 C 154.19921 182.64906 150.89809 180.51278 149.04102 179.16992 L 147.20508 177.8418 L 148.07617 176.04297 C 148.53773 175.09012 148.96872 174.47414 149.2168 174.39844 z M 305.99805 178.15625 C 306.01849 178.17618 306.03657 178.21722 306.05078 178.2793 C 306.11738 178.57027 305.94713 179.48191 305.67383 180.30469 C 305.14468 181.89769 304.72776 182.35329 305.06055 180.97461 C 305.55714 178.9174 305.85496 178.01677 305.99805 178.15625 z M 165.42578 179.69336 L 166.70117 179.88672 C 167.40242 179.99325 168.54062 180.26731 169.23242 180.49609 C 170.34698 180.86464 174.04922 181.46503 175.35938 181.49023 C 175.74379 181.49761 175.88473 181.97601 176.04688 183.82422 C 176.1591 185.10297 176.52659 187.18303 176.86328 188.44531 C 177.19997 189.70759 177.4299 191.05759 177.375 191.44531 C 177.25863 192.26755 176.44193 192.41732 174.57617 191.95703 C 173.91617 191.79422 171.94401 191.41605 170.19531 191.11719 C 168.44658 190.81833 166.65822 190.33941 166.2207 190.05273 L 165.42578 189.53125 L 165.42578 184.61133 L 165.42578 179.69336 z M 193.09961 180.60156 C 193.22336 180.60021 193.32708 181.71297 193.33008 183.07422 C 193.33455 185.20641 193.80486 188.40393 194.38086 190.21875 C 194.52177 190.66272 194.28271 190.80371 192.96289 191.05859 C 191.26816 191.38586 178.95401 191.69841 178.79492 191.41797 C 178.74284 191.32614 178.87748 189.42672 179.0957 187.19922 C 179.31392 184.97172 179.50077 182.85968 179.50977 182.50391 C 179.52789 181.77611 180.16628 181.642 185.07617 181.33984 C 186.56117 181.24846 188.92367 181.04506 190.32617 180.88867 C 191.72867 180.73225 192.97586 180.60156 193.09961 180.60156 z M 185.79297 195.92773 C 185.87558 195.9117 185.94994 195.92455 186.00195 195.97656 C 186.07746 196.05207 185.93508 196.28543 185.68359 196.49414 C 185.39847 196.7308 185.22461 196.75362 185.22461 196.55469 C 185.22461 196.28275 185.54512 195.97584 185.79297 195.92773 z M 302.98633 197.51953 C 303.01681 197.51228 303.04526 197.51989 303.06836 197.54297 C 303.16073 197.63534 303.0683 197.87656 302.86328 198.08008 C 302.567 198.37414 302.5325 198.33967 302.69531 197.91211 C 302.7798 197.69024 302.89489 197.54129 302.98633 197.51953 z M 184.41016 199.31445 C 184.4417 199.28291 184.48335 199.3237 184.53125 199.44336 C 184.61789 199.65993 184.60556 199.91983 184.50586 200.01953 C 184.40617 200.11922 184.33671 199.94123 184.34961 199.625 C 184.35681 199.45025 184.37862 199.34599 184.41016 199.31445 z M 185.82617 209.40039 C 185.99117 209.40039 186.125 209.67 186.125 210 C 186.125 210.33 185.99117 210.59961 185.82617 210.59961 C 185.66117 210.59961 185.52539 210.33 185.52539 210 C 185.52539 209.67 185.66117 209.40039 185.82617 209.40039 z M 64.185547 210.30078 C 64.262297 210.30078 64.326172 210.57039 64.326172 210.90039 C 64.326172 211.23984 64.125784 211.5 63.865234 211.5 C 63.497634 211.5 63.468319 211.37928 63.724609 210.90039 C 63.901219 210.57039 64.108847 210.30078 64.185547 210.30078 z M 133.49023 213.6875 C 133.4489 213.69385 133.41709 213.70791 133.39453 213.73047 C 132.89106 214.23393 137.46297 218.13126 143.01172 221.92773 C 144.86172 223.19352 147.31552 224.87449 148.46484 225.66406 C 150.6381 227.15704 151.32617 227.39919 151.32617 226.66992 C 151.32617 226.19481 146.66047 222.23274 143.375 219.91797 C 136.89318 215.35123 134.11028 213.59221 133.49023 213.6875 z M 153.66602 228.59961 C 153.37612 228.59961 153.34375 229.61917 153.625 229.90039 C 153.96844 230.24386 154.625 230.11966 154.625 229.71094 C 154.625 229.27867 154.03988 228.59961 153.66602 228.59961 z M 234.19531 258.39648 C 233.95237 258.46502 233.78597 259.16499 233.54297 260.88086 C 233.21756 263.17874 233.5796 268.23324 234.16211 269.51172 C 234.52526 270.30876 234.8675 270.50049 235.14062 270.05859 C 235.39391 269.64873 234.76296 258.81765 234.46875 258.52344 C 234.36541 258.4201 234.27629 258.37364 234.19531 258.39648 z M 235.76367 277.26562 C 235.78628 277.26937 235.82197 277.29768 235.87109 277.34961 C 236.35313 277.85919 241.16059 283.89905 241.80469 284.80469 C 242.40031 285.64217 242.40142 285.6932 241.87891 287.20508 C 241.58533 288.05453 241.34094 288.98664 241.33594 289.27539 C 241.31485 290.40621 240.83372 289.67366 239.87891 287.05859 C 239.33027 285.55598 238.26963 283.02606 237.52344 281.4375 C 236.11301 278.43487 235.60538 277.23944 235.76367 277.26562 z M 133.02539 283.5 C 133.04088 283.48452 133.16248 283.57515 133.40039 283.76172 C 133.68914 283.98819 133.92578 284.22481 133.92578 284.28711 C 133.92578 284.53404 133.67902 284.37471 133.28711 283.875 C 133.10053 283.63709 133.00991 283.51548 133.02539 283.5 z M 243.20898 287.09961 C 243.3849 287.09961 244.41585 288.73697 246.82617 292.85156 C 247.83858 294.5798 248.52539 296.10699 248.52539 296.62695 C 248.52539 297.10713 248.66307 298.29913 248.83203 299.27539 C 249.00102 300.25165 249.34942 302.265 249.60547 303.75 C 250.15207 306.92034 251.3745 311.73864 251.98438 313.12305 C 252.45352 314.18802 253.59444 321.50331 254.07812 326.55078 C 255.20642 338.32558 255.76125 372.68475 255.01758 384.75 C 254.49459 393.23439 253.84405 410.36265 253.93555 413.25 C 253.96696 414.24 253.89955 417.9525 253.78516 421.5 C 253.57805 427.92373 253.08955 431.08856 252.30859 431.10352 C 252.12434 431.10605 251.70072 431.18186 251.36719 431.27148 C 250.51702 431.4999 250.32617 431.19925 250.32617 429.64453 C 250.32617 426.80938 249.32483 419.20461 248.52344 415.94922 C 248.19848 414.62922 247.93269 412.78784 247.92969 411.85547 L 247.92578 410.16016 L 249.04883 409.89453 C 249.7304 409.73334 250.20943 409.42732 250.26953 409.11523 C 250.35014 408.6968 250.13823 408.59961 249.13281 408.59961 C 247.90764 408.59961 247.90003 408.59178 248.05078 407.625 C 248.13439 407.08875 248.35252 403.00578 248.53516 398.55078 C 248.7178 394.09578 249.0708 387.61539 249.32031 384.15039 C 249.56979 380.68539 249.93334 374.13756 250.12891 369.59961 C 250.46083 361.89738 250.52884 361.27538 251.16016 360.25391 C 251.8288 359.17202 251.83655 359.06108 251.72852 350.35547 C 251.66285 345.06263 251.49059 341.25162 251.29883 340.80078 C 250.29416 338.43876 249.06218 330.84469 248.52344 323.69922 C 247.99448 316.68378 247.28744 312.24678 245.91602 307.34961 C 244.34099 301.72545 244.01395 299.86423 243.71875 294.79297 C 243.55408 291.9643 243.33818 289.07625 243.23828 288.375 C 243.13838 287.67375 243.12498 287.09961 243.20898 287.09961 z M 246.23242 287.44531 C 246.3071 287.42474 246.66181 287.87036 247.29492 288.75195 C 247.84572 289.51893 248.22608 290.38108 248.17188 290.74219 C 248.09649 291.24481 247.91853 291.06984 247.33398 289.91406 C 246.50253 288.27012 246.13641 287.47176 246.23242 287.44531 z M 137.34961 303.35742 C 137.38309 303.40872 137.33439 304.86711 137.24219 306.59961 C 137.07392 309.76158 136.85363 309.98062 136.46289 307.375 C 136.31024 306.35704 136.3953 305.60416 136.77148 304.61914 C 137.05623 303.87352 137.31611 303.30612 137.34961 303.35742 z M 137.1543 316.35352 C 137.35846 316.60125 137.49023 320.41413 137.49023 327 C 137.49023 337.19584 137.16831 340.68541 136.83594 334.07812 C 136.56895 328.76842 136.56976 321.58506 136.83789 318.30078 C 136.95502 316.86613 137.0615 316.24091 137.1543 316.35352 z M 132.70898 317.06641 C 133.03277 316.97502 133.0312 318.05309 132.72461 320.71484 C 132.17164 325.51568 131.89113 326.48574 131.86523 323.69922 C 131.84331 321.33816 132.24809 317.47653 132.54883 317.17578 C 132.60842 317.11619 132.66273 317.07946 132.70898 317.06641 z M 83.726562 319.65039 C 83.841112 319.65039 83.981763 320.52711 84.039062 321.59961 C 84.096322 322.67211 84.257234 325.10834 84.396484 327.01367 C 84.546804 329.0708 84.535381 331.08254 84.369141 331.96484 C 84.215161 332.78201 83.940766 336.65547 83.759766 340.57422 C 83.501236 346.17141 83.343624 347.69922 83.027344 347.69922 C 82.526494 347.69922 82.527397 347.69024 83.091797 349.04102 C 83.598697 350.25416 83.558447 351.01952 83.023438 350.35742 C 82.504867 349.71566 80.342551 345.29026 79.207031 342.54688 C 77.684721 338.869 75.425781 332.13838 75.425781 331.28125 C 75.425781 330.8716 75.804971 330.04462 76.269531 329.44336 C 76.734091 328.84212 78.021869 327.0675 79.130859 325.5 C 81.623689 321.9765 83.451892 319.65039 83.726562 319.65039 z M 138.06445 364.82422 C 138.20068 364.71279 138.52262 366.05619 138.875 368.40234 C 139.4524 372.24657 141.05779 381.07039 141.45508 382.58398 C 141.6187 383.20735 142.07199 386.04118 142.46094 388.88281 C 142.84989 391.72447 143.3821 394.45422 143.64453 394.94922 C 143.90696 395.44422 144.12215 396.11142 144.12305 396.42969 C 144.12407 396.74799 144.25601 397.42299 144.41602 397.92969 C 145.21378 400.45614 147.74042 411.42761 147.60547 411.7793 C 147.52023 412.00145 147.66717 412.39958 147.93164 412.66406 C 148.19612 412.92854 148.9839 414.7878 149.68164 416.79688 C 151.20479 421.18258 152.41912 424.08489 154.16406 427.5 C 155.48631 430.08783 160.2638 438.42906 161.20898 439.80078 C 161.4932 440.21328 162.1627 441.32664 162.69727 442.27539 L 163.66992 444 L 161.77148 443.96094 C 159.70607 443.91774 153.40601 442.90468 153.07422 442.5625 C 152.96122 442.44595 152.333 440.99961 151.67969 439.34961 C 151.02637 437.69961 150.24838 435.7425 149.94922 435 C 149.65006 434.2575 148.38974 431.62539 147.14844 429.15039 C 145.5618 425.98683 144.87027 424.27134 144.82227 423.375 C 144.78467 422.67375 144.80243 422.09961 144.86133 422.09961 C 144.92021 422.09961 145.31979 422.70142 145.75 423.43555 C 146.18023 424.16965 147.20634 425.60934 148.0293 426.63477 C 148.85226 427.6602 149.52539 428.66303 149.52539 428.86328 C 149.52539 429.44729 150.40397 430.04133 150.75195 429.69336 C 150.95269 429.4926 150.85473 428.75618 150.45898 427.47266 C 150.1331 426.4157 149.64419 424.81343 149.37109 423.91406 C 148.92998 422.4614 147.46673 418.7943 144.2793 411.15039 C 143.72887 409.83039 143.06081 407.7375 142.79688 406.5 C 141.67406 401.23542 139.17145 382.03623 138.87695 376.42773 C 138.80864 375.1269 138.68742 373.83486 138.60742 373.55664 C 138.46658 373.06698 138.13653 368.83991 138.00977 365.91992 C 137.97963 365.22583 138.00253 364.87487 138.06445 364.82422 z M 97.787109 527.45898 C 97.803009 527.47915 97.819966 527.53561 97.837891 527.62891 C 97.909691 528.00208 97.907131 528.54129 97.832031 528.82812 C 97.756961 529.11493 97.698172 528.81039 97.701172 528.15039 C 97.703669 527.65539 97.739411 527.39848 97.787109 527.45898 z M 98.609375 548.51367 C 98.640914 548.48213 98.682569 548.52488 98.730469 548.64453 C 98.817109 548.8611 98.806731 549.11905 98.707031 549.21875 C 98.607361 549.31844 98.535828 549.14045 98.548828 548.82422 C 98.556023 548.64947 98.577836 548.54521 98.609375 548.51367 z M 98.6875 554.16992 C 98.70304 554.18205 98.718453 554.23141 98.736328 554.32422 C 98.807828 554.69547 98.807828 555.30453 98.736328 555.67578 C 98.664818 556.04703 98.607422 555.7425 98.607422 555 C 98.607422 554.44312 98.64088 554.13354 98.6875 554.16992 z M 132.72461 578.73438 C 133.02367 578.73438 133.32391 578.75081 133.55078 578.78516 C 134.00453 578.85394 133.63211 578.91016 132.72461 578.91016 C 131.81711 578.91016 131.44664 578.85396 131.90039 578.78516 C 132.12727 578.75081 132.42555 578.73438 132.72461 578.73438 z M 138.73242 583.95117 C 142.19338 583.87828 146.49123 584.09987 146.7168 584.46484 C 146.92171 584.7964 146.11333 585.4792 144.83594 586.05469 C 142.99675 586.88332 142.01447 588.53727 140.02344 594.15039 C 138.71795 597.83079 138.57741 599.9561 139.53906 601.51172 C 140.51313 603.08744 142.16991 603.90039 144.40625 603.90039 C 146.78395 603.90039 147.90025 604.47371 148.51562 606.01172 C 148.85596 606.86231 149.17312 607.2057 149.63281 607.2207 C 150.25777 607.24122 150.2595 607.24917 149.67578 607.5 C 149.34578 607.64185 148.46711 607.68862 147.72461 607.60352 C 146.05197 607.41173 138.93663 607.96641 135.80469 608.5332 C 134.52361 608.76504 133.03625 609.04856 132.5 609.16406 C 131.73595 609.32864 131.52539 609.2768 131.52539 608.91992 C 131.52539 608.66945 131.72711 608.38602 131.97461 608.29102 C 132.36131 608.14264 132.42573 606.79819 132.42773 598.73438 C 132.42872 593.57294 132.51493 588.25447 132.61914 586.91602 L 132.80859 584.48242 L 135.73242 584.12891 C 136.51832 584.03366 137.57877 583.97547 138.73242 583.95117 z M 178.6543 604.87305 C 179.1115 604.77873 179.6396 605.72851 181.17383 609.40039 C 181.70957 610.68262 181.34341 610.84537 180.28906 609.79102 C 178.72854 608.23048 177.67942 605.07414 178.6543 604.87305 z M 157.28906 608.13867 C 157.45219 608.14068 157.60548 608.16203 157.70703 608.20312 C 157.91016 608.28533 157.67078 608.3478 157.17578 608.3418 C 156.68078 608.33568 156.51477 608.26751 156.80664 608.19141 C 156.95259 608.15336 157.12594 608.13666 157.28906 608.13867 z M 264.85742 612 C 265.11464 612 265.32617 612.13578 265.32617 612.30078 C 265.32617 612.46578 265.19825 612.59961 265.04297 612.59961 C 264.88772 612.59961 264.67814 612.46578 264.57617 612.30078 C 264.4742 612.13578 264.60017 612 264.85742 612 z M 102.42578 651.30078 C 102.89245 651.30078 103.02539 651.49923 103.02539 652.19922 C 103.02539 653.22336 102.59639 653.37843 102.13672 652.51953 C 101.67351 651.654 101.75717 651.30078 102.42578 651.30078 z M 309.59766 668.56836 C 309.68077 668.57979 309.72461 668.62305 309.72461 668.70312 C 309.72461 668.85946 309.18539 669.26289 308.52539 669.59961 C 307.24403 670.25331 306.87611 670.04142 308 669.29688 C 308.75458 668.79701 309.34831 668.53405 309.59766 668.56836 z M 289.9082 673.9082 C 290.83608 673.86984 291.65323 673.92771 292.15039 674.0918 C 293.50364 674.53841 293.53725 675 292.2168 675 C 291.66231 675 290.61684 675.05233 289.89258 675.11523 C 287.31153 675.33912 285.17084 674.73906 287 674.30469 C 287.94149 674.08113 288.98033 673.94657 289.9082 673.9082 z "
     id="path3364" />
  <path
     style="fill:#000000;fill-opacity:1;fill-rule:evenodd;stroke:#000000;stroke-width:0.99271226px;stroke-linecap:butt;stroke-linejoin:miter;stroke-opacity:1"
     d="m 330.78034,206.18614 -23.88522,39.903 1.27506,65.38835 14.67499,20.84972 -14.67499,23.82826 7.70797,63.43188 c 33.77638,-29.58744 56.20114,-53.01223 76.42862,-95.20288 0.69178,-16.84913 -61.52643,-118.19833 -61.52643,-118.19833 z"
     id="path3357-3"
     inkscape:connector-curvature="0"
     sodipodi:nodetypes="cccccccc" />
</svg>
