<?xml version="1.0" encoding="UTF-8" standalone="no"?>
<!-- Created with Inkscape (http://www.inkscape.org/) -->

<svg
   xmlns:osb="http://www.openswatchbook.org/uri/2009/osb"
   xmlns:dc="http://purl.org/dc/elements/1.1/"
   xmlns:cc="http://creativecommons.org/ns#"
   xmlns:rdf="http://www.w3.org/1999/02/22-rdf-syntax-ns#"
   xmlns:svg="http://www.w3.org/2000/svg"
   xmlns="http://www.w3.org/2000/svg"
   xmlns:sodipodi="http://sodipodi.sourceforge.net/DTD/sodipodi-0.dtd"
   xmlns:inkscape="http://www.inkscape.org/namespaces/inkscape"
   id="svg2"
   version="1.1"
   inkscape:version="0.91 r13725"
   width="462.03995"
   height="680.05707"
   viewBox="0 0 462.03995 680.05707"
   sodipodi:docname="sans-character-silhouette2.svg">
  <metadata
     id="metadata8">
    <rdf:RDF>
      <cc:Work
         rdf:about="">
        <dc:format>image/svg+xml</dc:format>
        <dc:type
           rdf:resource="http://purl.org/dc/dcmitype/StillImage" />
        <dc:title></dc:title>
      </cc:Work>
    </rdf:RDF>
  </metadata>
  <defs
     id="defs6">
    <linearGradient
       id="linearGradient4183"
       osb:paint="solid">
      <stop
         style="stop-color:#000000;stop-opacity:1;"
         offset="0"
         id="stop4185" />
    </linearGradient>
  </defs>
  <sodipodi:namedview
     pagecolor="#ffffff"
     bordercolor="#666666"
     borderopacity="1"
     objecttolerance="10"
     gridtolerance="10"
     guidetolerance="10"
     inkscape:pageopacity="0"
     inkscape:pageshadow="2"
     inkscape:window-width="1280"
     inkscape:window-height="751"
     id="namedview4"
     showgrid="false"
     fit-margin-top="0"
     fit-margin-left="0"
     fit-margin-right="0"
     fit-margin-bottom="0"
     inkscape:zoom="0.5036278"
     inkscape:cx="48.364218"
     inkscape:cy="127.16381"
     inkscape:window-x="0"
     inkscape:window-y="29"
     inkscape:window-maximized="1"
     inkscape:current-layer="svg2" />
  <path
     style="fill:#000000;fill-rule:evenodd;stroke:none;stroke-width:1px;stroke-linecap:butt;stroke-linejoin:miter;stroke-opacity:1;fill-opacity:1"
     d="m 261.85093,563.52287 0,42.1208 8.42416,21.06039 21.0604,-14.04026 0,-48.43891 z"
     id="path4143"
     inkscape:connector-curvature="0" />
  <path
     style="fill:#000000;fill-rule:evenodd;stroke:none;stroke-width:1px;stroke-linecap:butt;stroke-linejoin:miter;stroke-opacity:1;fill-opacity:1"
     d="m 129.17043,575.4571 2.80806,35.80267 -11.93423,5.61611 -15.44429,30.88858 34.39865,8.42416 40.71677,-38.61073 -22.46443,-40.71677 z"
     id="path4141"
     inkscape:connector-curvature="0" />
  <path
     style="fill:#000000;fill-rule:evenodd;stroke:none;stroke-width:1px;stroke-linecap:butt;stroke-linejoin:miter;stroke-opacity:1;fill-opacity:1"
     d="m 170.58921,5.4223572 -35.80267,12.6362378 -28.08053,21.060397 -7.020132,11.934225 -9.828185,15.444291 -4.212079,25.974489 8.424158,30.186573 -3.510066,17.55033 4.21208,14.74227 -9.828186,4.9141 -18.252343,12.63624 8.424158,43.52482 44.928845,87.04964 3.51007,38.61072 18.25234,131.27648 73.71139,-9.12618 58.96911,18.25235 0,-168.48318 47.7369,-103.89795 -27.37851,-63.18119 -7.72215,-16.84832 -12.63624,-5.61611 L 265.361,110.02233 202.17981,6.1243704 183.92747,4.720344 Z"
     id="path3339"
     inkscape:connector-curvature="0" />
  <path
     inkscape:connector-curvature="0"
     id="path3364"
     d="m 288.72549,679.89909 c -2.32599,-0.36981 -5.44068,-1.85928 -7.86969,-3.76335 -0.61581,-0.48273 -1.23249,-0.80796 -1.37037,-0.72276 -0.34383,0.21249 -1.51893,-0.92292 -3.52551,-3.40638 -0.92973,-1.15074 -2.12844,-2.36295 -2.66379,-2.69382 -1.00272,-0.61971 -2.64675,-2.59134 -5.03367,-6.03675 -2.46744,-3.56157 -10.33248,-16.27698 -11.49012,-18.576 -1.54311,-3.06459 -2.84535,-7.02573 -2.85402,-8.68128 -0.004,-0.75279 -0.14016,-1.90872 -0.3027,-2.56872 -0.53655,-2.17827 -1.17897,-5.98284 -1.18461,-7.0152 -0.003,-0.55836 -0.13563,-1.50336 -0.29463,-2.1 -0.15903,-0.59664 -0.48417,-1.8948 -0.72255,-2.8848 -0.23841,-0.99 -0.65604,-2.61 -0.92808,-3.6 -0.63114,-2.29671 -2.26026,-11.64096 -2.26026,-12.96423 0,-2.05602 1.91553,-4.81125 4.47225,-6.43266 1.55547,-0.98643 3.56394,-1.13853 5.32401,-0.40311 1.79883,0.75159 1.81584,0.72894 1.74381,-2.325 -0.036,-1.52625 0.0562,-5.45619 0.20487,-8.73318 0.2199,-4.84689 0.37839,-6.19545 0.84972,-7.23012 0.31869,-0.69954 0.66306,-2.20335 0.76524,-3.34179 0.21183,-2.35953 0.62646,-3.44469 1.22799,-3.21387 0.29562,0.11346 0.4134,0.76386 0.4167,2.30106 0.003,1.17858 0.10377,1.99437 0.225,1.81281 0.32361,-0.48465 1.27311,-0.91437 2.51526,-1.13835 0.60219,-0.1086 1.26642,-0.40416 1.47612,-0.65682 1.04067,-1.25394 2.77179,-1.50153 8.56605,-1.22511 3.58158,0.17085 4.84431,0.77622 6.34494,3.04176 1.29732,1.95858 1.44987,3.25014 0.63966,5.41557 -0.46194,1.23468 -0.64404,2.32704 -0.60237,3.61374 0.0957,2.95704 -1.38735,12.2379 -2.77284,17.35209 -0.22392,0.82662 -0.71142,1.72578 -1.11108,2.04942 l -0.71208,0.5766 2.23836,-0.24939 c 1.23111,-0.13719 2.98089,-0.22395 3.88839,-0.19284 1.81887,0.0624 4.73634,1.0074 4.5,1.45764 -0.0825,0.1572 -0.285,0.23844 -0.45,0.18054 -0.61032,-0.21408 -5.15763,-0.0252 -6.89931,0.28653 -3.46683,0.62055 -2.64624,0.82038 2.70354,0.65838 2.96766,-0.0899 5.48118,-0.24807 5.58558,-0.35154 0.1044,-0.10347 0.4188,-5.38563 0.6987,-11.73813 0.2799,-6.3525 0.60891,-13.54767 0.73113,-15.98928 0.12225,-2.44161 0.16572,-4.82448 0.0966,-5.2953 l -0.12564,-0.85602 -4.39533,-0.18072 c -14.29131,-0.58767 -24.0453,-1.4151 -24.0453,-2.03973 0,-0.13143 -0.37125,-0.24117 -0.825,-0.2439 -0.45375,-0.003 -2.6142,-0.40083 -4.80096,-0.88467 -2.33679,-0.51705 -5.7999,-1.01604 -8.4,-1.21029 -2.43324,-0.1818 -5.26467,-0.54537 -6.29208,-0.80796 -1.73928,-0.44451 -2.0895,-0.43944 -5.08065,0.0733 -2.52012,0.43194 -3.2397,0.46941 -3.33822,0.17385 -0.0691,-0.20724 -1.37256,-0.96732 -2.89662,-1.68906 -4.54254,-2.15122 -5.56644,-3.93853 -5.56644,-9.71659 0,-3.14991 -0.17994,-4.56798 -1.82421,-14.37543 -1.66947,-9.95775 -3.24033,-15.09729 -9.41628,-30.8082 -2.61567,-6.65388 -2.92536,-7.47321 -3.33522,-8.82357 -0.2298,-0.75705 -0.41925,-2.22018 -0.42105,-3.25143 -0.003,-1.87179 -0.005,-1.875 -0.8805,-1.875 -0.8349,0 -0.93492,0.14844 -2.07195,3.075 -0.65709,1.69125 -1.46655,3.9525 -1.79883,5.025 -0.33225,1.0725 -1.644,4.785 -2.91498,8.25 -1.79469,4.89282 -2.47218,7.20462 -3.03321,10.35 -0.39729,2.2275 -1.05846,5.8725 -1.46928,8.1 -0.41079,2.2275 -1.01661,5.535 -1.34625,7.35 -0.32961,1.815 -0.96096,5.1225 -1.40295,7.35 -0.76938,3.87732 -0.81072,4.57443 -0.96948,16.35 l -0.16581,12.3 -1.28589,-0.0267 c -1.01637,-0.021 -1.49094,-0.22545 -2.26428,-0.975 -1.50981,-1.46337 -3.55875,-1.1571 -5.78154,0.86421 -1.64748,1.49811 -1.93296,1.63104 -5.70837,2.65773 -1.79295,0.48759 -3.91548,1.16757 -4.71669,1.5111 -1.31208,0.56253 -1.43787,0.69999 -1.26624,1.38375 0.10479,0.41754 0.31905,2.20494 0.47616,3.97203 0.40482,4.5537 0.79776,6.3249 2.30997,10.41288 1.92048,5.19162 1.80837,5.0139 3.68688,5.84331 0.90777,0.4008 3.0039,5.24019 4.04217,9.33222 0.5616,2.21346 1.17567,4.45773 1.36455,4.98726 0.54663,1.53234 0.19533,4.7295 -0.98202,8.93721 -0.663,2.36946 -1.16898,4.9596 -1.28931,6.6 -0.21561,2.93973 -0.36273,3.49086 -2.2425,8.4 -2.25153,5.88009 -2.69289,7.1844 -2.69289,7.95831 0,0.82827 -0.29964,1.95099 -1.91931,7.19169 -2.75646,8.919 -4.14723,11.66514 -6.70968,13.24884 -0.90198,0.55743 -1.70832,0.71673 -4.41234,0.87159 -2.54763,0.14592 -3.9297,0.40071 -6.00867,1.10772 -1.485,0.50502 -3.57222,0.9987 -4.6383,1.09704 -1.29541,0.11952 -2.29041,0.41094 -2.99999,0.87861 -1.41709,0.93402 -5.70803,2.72916 -8.05007,3.36783 -2.73665,0.74625 -6.92566,0.46581 -9.28149,-0.62139 -0.95158,-0.43914 -2.47265,-0.86385 -3.38015,-0.9438 -0.9075,-0.08 -2.6625,-0.39498 -3.9,-0.70002 -1.2375,-0.30504 -2.91711,-0.64593 -3.73246,-0.75753 -1.02194,-0.13986 -1.86068,-0.50736 -2.7,-1.18299 -0.66965,-0.53907 -2.47935,-1.82169 -4.02157,-2.85027 -5.89918,-3.93447 -11.42298,-9.66327 -13.71222,-14.22114 -1.42483,-2.83683 -1.5511,-3.32784 -0.95269,-3.70458 0.20958,-0.13194 0.87758,-1.45491 1.48445,-2.93991 1.42988,-3.49893 4.98671,-11.26017 6.73421,-14.69445 2.61097,-5.13126 6.47989,-10.26288 9.72996,-12.90555 0.60877,-0.495 2.37614,-2.07264 3.92748,-3.50586 2.50137,-2.3109 3.10568,-2.70987 5.33915,-3.525 1.38519,-0.50553 2.9044,-0.91914 3.37601,-0.91914 0.96248,0 2.32332,-0.62181 2.91126,-1.33023 0.51783,-0.62394 -0.0438,-0.62376 -2.49028,0 -4.63461,1.18317 -9.75393,3.46488 -12.6407,5.63403 -0.98857,0.74283 -1.85115,1.29684 -1.91684,1.23114 -0.2549,-0.25488 1.60454,-2.33709 3.21784,-3.60333 1.74867,-1.37247 5.30701,-3.22152 8.08143,-4.19946 1.44245,-0.50844 1.57063,-0.62724 1.42501,-1.32084 -0.088,-0.41916 -0.23315,-2.31462 -0.32255,-4.21212 -0.0894,-1.8975 -0.27202,-4.4625 -0.40583,-5.7 -0.13381,-1.2375 -0.26983,-5.07492 -0.30227,-8.52759 -0.0324,-3.45267 -0.11529,-6.3687 -0.18409,-6.48003 -0.0688,-0.1113 -1.4459,-0.29487 -3.0602,-0.40788 -5.40131,-0.37812 -11.26005,-1.94073 -14.58741,-3.8907 -1.73805,-1.01856 -6.48548,-4.54098 -9.60412,-7.12587 -0.51897,-0.43017 -1.43916,-0.94335 -2.04489,-1.14045 -1.67859,-0.54621 -3.41977,-1.95066 -4.31749,-3.48252 l -0.80894,-1.38033 -0.0121,-9.20733 c -0.007,-5.064 0.0259,-11.2998 0.0722,-13.8573 0.0464,-2.5575 -0.0817,-10.3875 -0.28472,-17.4 -0.38568,-13.32564 -0.28626,-20.82114 0.46557,-35.1 0.71173,-13.51722 1.44597,-21.26646 2.87093,-30.3 0.16918,-1.0725 0.40902,-3.165 0.53299,-4.65 0.25753,-3.08493 0.91398,-4.64451 2.56513,-6.09423 0.58722,-0.51561 1.06767,-1.00296 1.06767,-1.083 0,-0.0801 -0.50625,-0.23418 -1.125,-0.34248 -7.25738,-1.27029 -17.19952,-3.78504 -21.9325,-5.54757 -2.18472,-0.81276 -4.2425,-2.2665 -4.2425,-2.99631 0,-0.32208 0.12558,-0.5856 0.27906,-0.5856 0.17208,0 0.17208,-0.37302 0,-0.97302 -0.44173,-1.5402 -0.32895,-3.29568 0.34453,-5.36289 0.46663,-1.43229 0.59282,-2.44269 0.50133,-4.01409 -0.0673,-1.155 0.0364,-5.0025 0.23038,-8.55 l 0.35265,-6.45 -0.68061,-0.6 c -0.37434,-0.33 -1.53488,-1.19691 -2.57898,-1.92648 -3.00738,-2.10138 -5.1008,-3.6693 -6.42684,-4.8135 -0.67566,-0.58302 -2.47183,-2.06403 -3.9915,-3.29115 -1.51966,-1.22712 -2.85685,-2.37462 -2.97152,-2.55 -0.35417,-0.54165 -7.2585,-6.84282 -7.2585,-6.62439 0,0.11313 1.56495,1.86963 3.47767,3.90336 1.91272,2.03373 3.69214,4.01367 3.95427,4.39992 l 0.47659,0.70224 -0.72478,-0.6 c -1.83027,-1.51518 -7.47403,-6.66954 -11.96344,-10.92606 -6.0932,-5.77707 -11.99348,-12.28371 -18.88472,-20.82546 -2.90708,-3.60333 -5.86775,-7.24833 -6.57927,-8.1 -0.71152,-0.85167 -2.04912,-2.56098 -2.97244,-3.79848 -0.92332,-1.2375 -2.03609,-2.7225 -2.47284,-3.3 -1.92281,-2.5425 -8.18992,-12.86043 -11.1154,-18.3 -1.19799,-2.2275 -2.80586,-5.20455 -3.57306,-6.61563 -1.63296,-3.00355 -2.56343,-6.65635 -2.15021,-8.44123 0.34048,-1.47066 1.28101,-2.94798 2.40664,-3.78021 0.59206,-0.4377 1.31332,-1.55307 2.03414,-3.14556 1.65878,-3.66471 5.29408,-10.99917 7.39093,-14.91171 1.01526,-1.89438 2.45505,-4.72938 3.19954,-6.3 1.51087,-3.18741 4.86128,-9.35223 6.66373,-12.26139 2.73147,-4.40859 5.54261,-9.51981 7.94428,-14.44428 2.44327,-5.00979 3.59144,-7.43364 9.52132,-20.1 5.07981,-10.85058 9.42009,-18.15891 14.00823,-23.58756 1.68318,-1.99152 2.11332,-2.71791 2.35073,-3.96978 0.43804,-2.30979 1.29681,-3.71727 3.40369,-5.5785 1.40129,-1.23792 2.28264,-2.36796 3.31199,-4.24662 l 1.4026,-2.55987 -0.34678,-1.99134 c -0.19073,-1.09527 -0.65213,-2.56566 -1.02533,-3.26757 -1.74175,-3.27576 -2.11135,-11.38536 -0.74874,-16.42857 0.35364,-1.30887 0.70866,-2.48604 0.78893,-2.61594 0.0803,-0.12987 0.26906,-1.31565 0.41954,-2.63505 0.28826,-2.52747 0.71703,-4.38177 1.17925,-5.09991 0.22249,-0.34569 0.36546,-0.35748 0.72432,-0.0596 0.38125,0.31641 0.52002,0.11472 0.94209,-1.36929 0.27224,-0.95721 1.08412,-2.96298 1.80418,-4.45728 2.09642,-4.35054 4.6711,-6.22134 6.57716,-4.77903 0.54753,0.4143 0.52468,0.45588 -0.4815,0.8763 -1.06028,0.44301 -2.94331,2.30799 -2.94331,2.91507 0,0.19017 0.27949,0.24966 0.675,0.14367 0.37125,-0.0995 1.11205,-0.18273 1.64623,-0.18498 0.89534,-0.004 1.05227,-0.16233 2.00844,-2.02911 1.06501,-2.07924 3.38748,-4.85013 4.1128,-4.90689 0.22414,-0.0174 0.67753,-0.0513 1.00753,-0.075 0.62899,-0.0452 1.03765,0.3117 1.04541,0.91299 0.002,0.19587 -0.46263,0.80337 -1.03367,1.35 -0.9315,0.89169 -3.46174,5.46207 -3.46174,6.25293 0,0.1734 0.27722,0.69021 0.61604,1.14849 0.36256,0.49041 0.68673,1.51815 0.78784,2.49783 0.15832,1.53399 0.0836,1.81479 -0.95314,3.5796 l -1.12493,1.91505 0.19828,2.84793 c 0.21378,3.07062 0.8044,6.81 1.50731,9.54312 0.62354,2.42451 1.17121,5.75229 1.1206,6.80895 -0.0237,0.495 0.25221,1.61475 0.61318,2.48835 0.54389,1.31631 0.59929,1.73934 0.3235,2.46999 -0.31064,0.82299 -0.24315,0.97686 1.01385,2.31168 3.21435,3.41331 3.71574,4.72524 2.36349,6.18435 l -0.73398,0.79197 1.66899,1.57683 c 1.87695,1.7733 2.30972,2.59647 1.91327,3.63924 -0.24464,0.64344 -0.0314,0.91527 2.20348,2.80836 2.96025,2.50755 3.73012,3.81924 3.19728,5.4474 -0.19472,0.59499 -0.4168,1.22892 -0.4935,1.40868 -0.0767,0.17976 0.68852,0.83787 1.70047,1.4625 2.01398,1.24308 2.85279,2.58174 2.53224,4.04121 -0.16351,0.74445 -0.0156,0.91974 1.63563,1.93896 2.05921,1.27101 2.85424,2.4681 2.5866,3.89472 -0.1995,1.06344 -0.5335,0.77652 4.1735,3.58521 6.71018,4.00398 7.35,4.54368 7.35,6.19992 0,0.31413 0.8775,1.42734 1.95,2.4738 1.74722,1.70478 1.95044,2.02608 1.95424,3.08973 0.004,0.99636 0.24782,1.4634 1.5202,2.90679 0.83377,0.94584 2.45443,2.41755 3.60146,3.27048 2.19054,1.62891 2.57945,2.30811 2.25385,3.93609 -0.17595,0.87978 -0.0325,1.10697 1.83971,2.91396 1.1168,1.07787 2.40516,2.46303 2.86303,3.07815 0.50813,0.68262 1.20947,1.21485 1.8,1.36602 0.69016,0.17667 1.25157,0.67308 1.95843,1.73163 1.37982,2.0664 3.27926,6.06231 3.52307,7.41159 0.11207,0.62019 0.45852,1.45149 0.76989,1.84731 0.69455,0.88299 0.72269,1.55766 0.08,1.91733 -0.41275,0.231 -0.32921,0.39177 0.55331,1.06491 0.57774,0.44064 1.43035,0.79284 1.9194,0.79284 0.48397,0 1.18871,0.21627 1.56609,0.4806 0.37738,0.26433 0.72439,0.43308 0.77114,0.375 0.0467,-0.0581 0.53518,-1.1181 1.08543,-2.3556 1.19494,-2.6874 1.40557,-2.97114 1.67824,-2.26056 0.13885,0.36183 0.96666,-1.7232 2.51112,-6.32484 1.26719,-3.77553 3.01796,-8.7546 3.8906,-11.0646 2.83514,-7.50504 3.62536,-9.86925 3.91059,-11.7 0.15424,-0.99 0.57083,-3.555 0.92579,-5.7 0.63897,-3.86157 1.10901,-10.95 0.72612,-10.95 -0.10923,0 -0.71409,0.55281 -1.34412,1.22847 -0.94763,1.01625 -1.18117,1.52157 -1.35176,2.925 -0.18829,1.54902 -1.26659,5.94195 -2.88332,11.74653 -0.34467,1.2375 -0.73849,2.655 -0.87515,3.15 -1.42133,5.14842 -1.93728,6.79515 -2.49088,7.95 l -0.64714,1.35 -0.10055,-1.17162 c -0.0553,-0.6444 0.11228,-2.0619 0.37239,-3.15 0.26012,-1.0881 0.60053,-2.85588 0.75649,-3.92838 0.33453,-2.30061 1.63714,-8.51463 2.23248,-10.65 0.23002,-0.825 0.50464,-2.04 0.61027,-2.7 0.10563,-0.66 0.54057,-2.73105 0.96653,-4.60236 0.58421,-2.56656 0.69888,-3.56823 0.46679,-4.07763 -0.18473,-0.40542 -0.20083,-0.84405 -0.0403,-1.09764 0.14707,-0.23229 0.26946,-0.54948 0.27199,-0.70485 0.002,-0.15537 -2.56041,-2.85978 -5.69541,-6.00981 -3.9642,-3.98322 -5.7,-5.92989 -5.7,-6.39252 0,-0.37575 0.18603,-0.66519 0.42755,-0.66519 0.84015,0 4.70432,2.90361 8.08855,6.07794 2.94731,2.76447 3.45522,3.13395 3.53765,2.57349 0.23287,-1.58334 1.44625,-0.30465 1.44625,1.52409 0,0.56586 0.39451,1.28364 1.1877,2.1609 0.65322,0.72246 1.19322,1.14483 1.2,0.93858 0.0228,-0.69651 0.92481,-0.38115 1.23372,0.43137 0.16863,0.44349 0.44163,1.89474 0.60669,3.225 0.16509,1.33026 0.56112,3.43113 0.88014,4.66863 1.13901,4.41861 1.4517,7.17681 1.34334,11.85 -0.20343,8.77323 -2.0073,15.33447 -7.50553,27.3 -0.78879,1.7166 -1.09307,3.25296 -1.93103,9.75 -2.30113,17.84151 -2.43765,37.51758 -0.40383,58.20001 0.28394,2.8875 0.52133,6.3549 0.52753,7.70529 0.0105,2.27907 -0.0481,2.5173 -0.81626,3.31908 l -0.82754,0.86376 0.63134,4.18092 c 0.34723,2.29953 1.36087,7.89927 2.25253,12.44391 0.89166,4.54461 1.6212,8.8692 1.6212,9.61017 0,3.1038 4.22841,21.17835 5.15244,22.02429 0.29982,0.27447 1.54086,0.30567 5.04756,0.12687 2.5575,-0.13041 7.89,-0.18204 11.85,-0.11472 17.04078,0.28962 33.45891,0.16452 42.15,-0.32118 4.8675,-0.27204 13.32912,-0.5157 18.80361,-0.5415 l 9.95358,-0.0469 0.16569,-2.4 c 0.0911,-1.32 0.37602,-6.9225 0.63315,-12.45 0.2571,-5.5275 0.60336,-11.265 0.76944,-12.75 0.36534,-3.26652 1.0884,-15.46815 1.47561,-24.9 0.19248,-4.68933 0.18291,-7.47669 -0.03,-8.7 -1.00701,-5.7876 -1.54665,-10.2981 -2.2254,-18.60001 -1.15467,-14.12361 -1.73631,-17.98491 -2.87937,-19.1157 -0.28671,-0.28362 -0.74784,-1.56612 -1.02474,-2.85 -2.54472,-11.79909 -4.02846,-16.87941 -6.50829,-22.2843 -2.98182,-6.49899 -4.57845,-11.10108 -6.51498,-18.77859 -0.12882,-0.51072 -0.11787,-2.19822 0.0243,-3.75 0.14223,-1.55178 0.38259,-4.30641 0.53412,-6.12141 0.1515,-1.815 0.47247,-3.9075 0.71328,-4.65 0.24078,-0.7425 0.72378,-2.295 1.07331,-3.45 0.96798,-3.19866 1.92678,-6.13257 3.72552,-11.4 0.9015,-2.64 1.78293,-5.4075 1.9587,-6.15 0.1758,-0.7425 0.59112,-2.4975 0.92301,-3.9 0.33186,-1.4025 0.89784,-3.8325 1.25772,-5.4 0.35991,-1.5675 0.98097,-4.1325 1.38018,-5.7 0.39918,-1.5675 0.85776,-3.37407 1.01901,-4.0146 0.16128,-0.64053 0.23274,-1.22505 0.15885,-1.29897 -0.19623,-0.1962 -1.65576,0.77277 -3.05406,2.02749 -1.32894,1.19253 -1.8054,1.38891 -8.23239,3.39276 -4.63518,1.44522 -8.499,2.45505 -13.35,3.48915 -1.65,0.35175 -3.675,0.81804 -4.5,1.0362 -0.825,0.21819 -2.85,0.69639 -4.5,1.06272 -1.65,0.36633 -3.6075,0.83874 -4.35,1.04985 -4.97826,1.41534 -4.81002,1.39305 -7.8,1.0326 -1.5675,-0.189 -6.9,-0.4332 -11.85,-0.54267 -6.21234,-0.1374 -9.20298,-0.31296 -9.65529,-0.56679 -0.36039,-0.20226 -1.47246,-0.36774 -2.47125,-0.36774 -1.008,0 -3.11901,-0.34797 -4.74471,-0.78213 -1.61082,-0.43017 -3.67125,-0.95664 -4.57875,-1.16988 -0.9075,-0.21327 -2.73,-0.68793 -4.05,-1.0548 -1.32,-0.36687 -3.1425,-0.84438 -4.05,-1.0611 -2.6434,-0.63132 -4.17366,-1.21011 -7.04779,-2.66577 -1.48379,-0.75147 -2.90129,-1.35567 -3.15,-1.34265 -0.31058,0.0162 -0.33418,0.0713 -0.0753,0.17565 0.20728,0.0836 0.29258,0.2883 0.18956,0.45501 -0.10302,0.16668 0.20986,0.66141 0.6953,1.09938 0.48543,0.43794 2.08265,1.87629 3.54939,3.19629 4.74826,4.27326 6.75823,6.53637 9.05893,10.2 1.28778,2.05065 3.02655,5.78163 3.27117,7.01916 0.19824,1.00299 0.18765,1.01574 -0.6699,0.80526 -1.05981,-0.26016 -1.45128,-0.6486 -1.84098,-1.82676 -0.16416,-0.49629 -1.41939,-2.52129 -2.78943,-4.5 -2.55597,-3.69153 -7.7779,-9.21927 -12.61507,-13.35384 -2.35701,-2.01465 -9.27331,-8.10456 -10.32584,-9.09204 -1.42502,-1.33701 -2.5921,-2.06445 -3.40198,-2.12052 -1.14385,-0.0792 -2.24698,-0.82725 -2.77304,-1.88043 -0.49676,-0.99453 -5.15403,-5.4912 -8.3454,-8.05761 -5.44183,-4.37619 -11.9494,-11.30196 -15.79863,-16.81392 -3.62187,-5.18637 -6.84209,-12.17415 -7.18866,-15.59916 -0.19143,-1.8933 -1.94214,-4.84991 -1.94214,-3.28014 0,0.2475 -0.15032,0.45 -0.33405,0.45 -0.20714,0 -0.27801,-0.37043 -0.18655,-0.975 0.0833,-0.55046 -0.0421,-1.34635 -0.28807,-1.82788 -0.69351,-1.35792 -0.26822,-1.23837 1.12,0.31485 0.7069,0.79092 1.17487,1.16803 1.03994,0.83803 -0.22041,-0.53907 -2.27097,-5.99221 -3.72272,-9.9 -1.97526,-5.31694 -2.4784,-7.361 -2.63847,-10.71919 l -0.16115,-3.38081 0.97162,-1.2 c 1.98463,-2.45111 2.51218,-4.69032 2.11807,-8.99024 -0.22936,-2.50251 -0.38526,-2.96305 -2.23412,-6.6 -1.96379,-3.863 -1.98755,-3.93871 -1.98603,-6.33031 9e-4,-1.3313 -0.18983,-3.0863 -0.42372,-3.9 -0.23389,-0.81369 -0.50724,-2.76195 -0.60744,-4.32945 -0.1002,-1.5675 -0.33122,-3.8625 -0.51338,-5.1 -0.85685,-5.82115 2.53113,-26.59254 5.20966,-31.93993 1.17326,-2.34229 2.74491,-4.78456 2.8589,-4.4426 0.049,0.14704 -0.3921,1.81202 -0.98025,3.69994 -0.58814,1.88793 -1.59014,5.52509 -2.22665,8.08259 -2.56718,10.31493 -2.94489,13.9818 -1.85579,18.01651 0.62966,2.33265 1.53398,6.97829 2.33271,11.98349 1.32292,8.28994 1.29867,8.19123 2.83643,11.55 1.10105,2.40492 2.08358,5.94546 2.15097,7.75097 0.13184,3.53244 -1.19418,10.7008 -2.50633,13.54903 -0.47157,1.0236 -0.51438,1.53076 -0.29125,3.45 0.14387,1.2375 0.68635,3.3975 1.20551,4.8 1.61945,4.37491 3.53064,9.12099 4.64034,11.5234 0.58625,1.26919 1.26013,3.1444 1.49751,4.16711 1.17108,5.0454 5.8195,14.46978 8.5903,17.41632 0.48781,0.51873 1.58706,2.09067 2.44278,3.49317 4.16806,6.83136 8.04199,10.89324 14.34782,15.04398 5.25279,3.45759 5.40929,3.54828 4.67191,2.70759 -0.86881,-0.99054 -0.15577,-0.7905 2.63733,0.73989 2.48664,1.36251 5.78259,3.8241 5.68486,4.24578 -0.0271,0.11703 0.31038,0.22551 0.75,0.24111 1.0001,0.0355 7.84931,3.26475 7.84931,3.7008 0,0.5316 -0.90872,0.36378 -3.87708,-0.71607 -2.04207,-0.74286 -2.97375,-0.94995 -3.35528,-0.74577 -0.7233,0.38709 -1.65877,0.35484 -3.49093,-0.12042 -1.30204,-0.33774 -1.51741,-0.33765 -1.32812,0 0.27495,0.49131 4.2013,4.00251 4.47575,4.00251 0.10761,0 0.0337,-0.162 -0.16434,-0.36 -0.47769,-0.47769 -0.46469,-1.00023 0.015,-0.6027 0.78189,0.64797 8.27925,4.2654 10.63943,5.13342 1.35543,0.49851 3.51544,1.40001 4.80001,2.00334 1.38531,0.65064 3.12894,1.20384 4.28556,1.35969 5.08287,0.6849 11.52411,1.18971 17.42787,1.36584 l 6.47784,0.19326 0.19566,-1.42749 c 0.24159,-1.76262 0.0469,-2.12691 -0.74316,-1.39083 -1.37733,1.28319 -4.19775,0.98637 -5.85066,-0.61566 -1.40067,-1.35759 -1.71822,-2.72439 -1.30005,-5.59554 0.18531,-1.27233 0.29319,-2.92056 0.23973,-3.66276 -0.11379,-1.57944 0.43713,-1.24932 -7.83789,-4.69653 -7.63317,-3.17979 -13.55196,-6.1668 -18.35934,-9.26532 -2.71122,-1.74747 -3.20321,-2.23026 -4.13819,-4.06092 -0.77252,-1.51254 -2.91945,-3.10125 -4.61525,-3.41523 -1.6084,-0.29778 -3.93285,-2.12847 -7.59656,-5.9829 -1.7325,-1.82271 -3.88902,-3.99252 -4.79227,-4.82184 -3.81616,-3.50379 -4.8094,-4.59117 -4.98203,-5.4543 -0.12402,-0.62013 -0.43864,-0.99012 -1.03259,-1.21431 -0.55121,-0.20805 -1.36662,-1.09515 -2.29867,-2.50074 -0.79444,-1.19808 -1.67998,-2.52936 -1.96786,-2.95839 -0.28788,-0.42906 -0.52413,-1.29171 -0.525,-1.91704 -9e-4,-0.62532 -0.25596,-1.63782 -0.56686,-2.25 -0.61734,-1.21557 -0.99011,-2.93969 -1.55268,-7.18149 -0.59638,-4.4961 -0.005,-6.98096 1.66216,-6.98096 0.72642,0 1.78458,1.01192 2.0802,1.98928 0.19353,0.63987 1.21999,1.01072 2.7975,1.01072 0.4108,0 1.37267,0.32929 2.1375,0.73174 0.76483,0.40246 2.0656,1.02973 2.8906,1.39394 0.825,0.36421 2.35634,1.04743 3.40297,1.51826 1.04663,0.47084 2.29538,0.85606 2.775,0.85606 0.47961,0 0.87203,0.135 0.87203,0.3 0,0.165 0.23625,0.29571 0.525,0.29046 0.47504,-0.009 0.46958,-0.0515 -0.0573,-0.45 -0.32029,-0.24225 -0.82653,-0.44046 -1.125,-0.44046 -0.29846,0 -0.54266,-0.135 -0.54266,-0.3 0,-0.165 -0.18185,-0.3 -0.4041,-0.3 -0.22225,0 -0.71541,-0.27 -1.0959,-0.6 -0.38049,-0.33 -0.89797,-0.6 -1.14995,-0.6 -0.80681,0 -3.31845,-1.91769 -3.79208,-2.89534 -1.22858,-2.536 0.21985,-5.32451 3.08848,-5.9459 0.54805,-0.11872 0.94076,-0.27155 0.87269,-0.33961 -0.0681,-0.0681 -1.18539,-0.40183 -2.48294,-0.74169 -3.0314,-0.794 -8.54129,-2.97377 -10.93048,-4.32422 -1.02485,-0.57928 -1.95164,-1.05624 -2.05954,-1.05991 -0.1079,-0.004 -0.53368,-0.27067 -0.94618,-0.59333 -0.4125,-0.32266 -0.92438,-0.58966 -1.13751,-0.59333 -0.67273,-0.0116 -4.32973,-1.8287 -6.50674,-3.23312 -3.74729,-2.41744 -8.09836,-7.3337 -9.49693,-10.73057 -0.27015,-0.65614 -0.72848,-1.76467 -1.0185,-2.46341 -1.25383,-3.02073 0.87853,-10.97566 4.75425,-17.73615 1.3667,-2.38396 6.27213,-8.83208 7.59385,-9.98201 0.48825,-0.4248 7.58878,-3.75094 11.06158,-5.18165 1.081,-0.44534 2.63947,-0.78425 5.90602,-1.28434 1.16001,-0.17759 3.09648,0.34365 5.79398,1.55958 0.825,0.37188 1.9725,0.7754 2.55,0.8967 0.5775,0.12131 1.42259,0.41097 1.87799,0.64368 0.45539,0.23272 1.60289,0.67928 2.55,0.99236 4.28235,1.41562 6.87552,2.48055 9.59319,3.93961 4.32828,2.32377 5.34364,3.10357 6.71911,5.16027 0.68505,1.02431 1.52331,2.16991 1.86279,2.54578 0.8727,0.96616 3.16437,4.97138 2.9991,5.2416 -0.0757,0.12375 -0.40758,0.225 -0.73758,0.225 -0.33,0 -0.52086,0.12809 -0.42408,0.28464 0.22908,0.37067 -0.33549,3.88456 -0.8841,5.50259 -0.30849,0.90991 -0.35253,1.59738 -0.15753,2.46023 0.17325,0.76666 0.14934,1.97749 -0.0665,3.36566 l -0.33708,2.1682 0.81072,0.6377 c 3.01863,2.37447 2.74602,8.80604 -0.65406,15.43098 -1.13268,2.20695 -1.93506,3.25321 -4.39385,5.72937 -3.24388,3.26677 -4.00406,3.82487 -4.65869,3.42029 -0.5125,-0.31674 0.59856,-3.41423 3.44334,-9.59966 1.87462,-4.07599 2.6326,-6.00506 2.99869,-7.63174 0.19752,-0.87774 0.1929,-0.87604 -1.02027,0.37407 -0.6703,0.69069 -1.38803,1.64028 -1.59497,2.11021 -0.47676,1.08267 -8.19968,8.50157 -9.72922,9.34621 -0.63086,0.34837 -1.7925,1.08036 -2.58143,1.62666 -0.97625,0.676 -1.92868,1.05179 -2.98189,1.17652 -0.85111,0.1008 -1.7533,0.38911 -2.00488,0.64067 -0.40986,0.40987 -0.30712,0.4574 0.98859,0.4574 0.79529,0 2.27547,0.21562 3.28929,0.47914 6.51883,1.69447 10.95768,2.43473 16.16677,2.69612 l 4.12653,0.20708 0,-1.02774 c 0,-1.21441 0.92145,-3.153 1.78677,-3.7591 0.33729,-0.23624 0.6162,-0.72561 0.61983,-1.08751 0.012,-1.20161 1.13103,-3.17883 2.15097,-3.80067 1.22451,-0.74657 3.11301,-0.7845 5.03703,-0.10116 l 1.42512,0.50616 0.97122,-1.10616 c 1.11951,-1.27505 1.49571,-1.38024 1.54194,-0.43116 0.018,0.37125 0.14928,0.0822 0.29157,-0.64228 0.34758,-1.76984 0.1155,-1.99881 -0.88782,-0.87592 -0.98031,1.09718 -1.59843,0.92714 -1.33929,-0.36843 0.25317,-1.26594 -0.33972,-1.12615 -1.23432,0.29101 l -0.74451,1.17938 -2.11914,-0.94158 c -1.54701,-0.68735 -2.166,-1.12816 -2.2926,-1.63266 -0.47172,-1.8794 1.32531,-7.24863 3.50985,-10.48691 0.83928,-1.24415 3.31734,-4.22872 5.18733,-6.24761 0.30564,-0.33 1.08702,-1.37578 1.73637,-2.32396 1.08495,-1.58427 1.16568,-1.8395 0.99633,-3.15 -0.16899,-1.30781 0.12171,-5.22856 1.11291,-15.01038 l 0.37335,-3.68434 -0.96744,-3.96566 c -0.53211,-2.18111 -0.96477,-4.50098 -0.96147,-5.15527 0.005,-0.88151 -0.37362,-1.85273 -1.4598,-3.75 -0.80619,-1.40821 -1.54977,-2.83892 -1.65243,-3.17935 -0.10266,-0.34043 -0.78531,-1.04096 -1.51704,-1.55673 -1.5534,-1.09493 -2.30079,-2.37502 -2.39025,-4.09385 l -0.064,-1.23046 -2.30139,0.10576 c -2.03814,0.0936 -2.45181,0.0176 -3.6162,-0.66477 -2.29269,-1.34362 -3.16053,-4.72983 -1.72785,-6.74187 0.78909,-1.10815 0.79053,-1.30765 0.0129,-1.7932 -0.77325,-0.4829 -1.76268,-2.60624 -1.77147,-3.80161 -0.004,-0.49263 0.3492,-1.59891 0.78405,-2.45839 l 0.79065,-1.56269 -0.80652,-0.9585 c -0.44361,-0.52717 -0.88329,-1.34226 -0.9771,-1.8113 -0.13485,-0.67426 -0.50307,-1.00503 -1.75869,-1.57989 -1.73256,-0.79317 -2.39712,-1.58631 -2.9751,-3.55061 -0.36705,-1.24742 -0.41814,-1.2874 -1.8457,-1.44432 -2.30797,-0.2537 -3.73566,-1.36111 -4.45597,-3.45635 -0.38091,-1.10801 -0.41123,-1.12536 -2.0519,-1.17434 -2.00601,-0.0599 -3.46084,-0.93268 -4.43054,-2.65803 -0.59565,-1.05981 -0.73357,-1.14345 -1.59098,-0.96479 -3.28666,0.68484 -5.26416,0.45236 -6.34902,-0.74639 -0.29288,-0.32379 -0.70914,-0.58871 -0.92487,-0.58871 -1.07448,0 -4.00206,1.44358 -6.05991,2.98812 -2.96649,2.22654 -3.9452,2.71188 -5.46864,2.71188 -0.77636,0 -1.57095,0.2331 -2.1149,0.62043 -0.98642,0.70239 -1.18561,0.357 -0.27131,-0.47043 0.79626,-0.7206 0.75751,-0.9969 -0.11638,-0.82985 -1.00125,0.1914 -1.92627,-0.38269 -2.03868,-1.26526 -0.0947,-0.74382 -0.0989,-0.7426 -2.02651,0.60215 -1.12702,0.78622 -2.1364,1.28248 -2.42332,1.19141 -0.3063,-0.0972 -0.82915,0.21469 -1.38636,0.82702 -0.89693,0.98566 -4.26563,5.58695 -5.32584,7.27453 -0.88794,1.41339 -4.76124,6.81927 -5.4812,7.65 -0.3575,0.4125 -0.9309,1.0875 -1.27423,1.5 l -0.62423,0.75 0.44651,-1.11089 c 0.24558,-0.61099 1.15999,-2.43349 2.03204,-4.05 0.87204,-1.61651 2.39163,-4.55724 3.37687,-6.53496 1.5745,-3.1606 2.0966,-3.89893 4.31332,-6.09971 2.32268,-2.30599 4.73527,-4.4 7.92472,-6.87827 1.1489,-0.89272 2.47519,-1.72977 5.74584,-3.62634 0.6641,-0.38509 1.67995,-1.00265 2.25745,-1.37236 4.54234,-2.90796 8.81682,-5.25942 11.29566,-6.21394 1.21059,-0.46615 2.50555,-1.04249 2.8777,-1.28074 0.37215,-0.23825 2.13776,-1.05348 3.92358,-1.81163 1.78582,-0.75814 3.63149,-1.5773 4.10148,-1.82035 0.65919,-0.34087 0.8888,-0.35718 1.00438,-0.0713 0.10282,0.25429 0.16742,0.22936 0.20588,-0.0795 0.0308,-0.2475 0.77784,-1.10577 1.66003,-1.90728 1.75956,-1.59861 3.34735,-2.28365 9.17854,-3.95996 1.92351,-0.55295 4.34091,-1.34817 5.37201,-1.76715 1.97556,-0.80273 5.25618,-1.41593 10.48074,-1.95898 3.60042,-0.37424 7.72431,-1.0551 10.35996,-1.71044 1.44222,-0.3586 1.91178,-0.62743 2.31105,-1.32311 0.34686,-0.60436 0.73623,-0.87308 1.26504,-0.87308 0.83166,0 1.96395,0.94107 1.96395,1.6323 0,0.23776 0.11739,0.50485 0.26088,0.59352 0.14349,0.0887 2.40474,-0.0238 5.025,-0.24986 4.93926,-0.4262 6.33204,-0.34849 10.61412,0.5922 1.2375,0.27186 3.06,0.66457 4.05,0.87269 8.0643,1.69531 13.69686,3.59705 21.15,7.14097 2.1234,1.00966 9.82284,5.16478 12.825,6.92121 4.08579,2.39039 5.40207,3.16607 7.26885,4.28345 1.34157,0.80301 3.95403,3.162 8.43159,7.61352 5.883,5.84879 6.61062,6.68522 7.80615,8.97345 0.72513,1.3879 1.55673,2.95264 1.848,3.47719 l 0.52962,0.95373 8.60241,0.18722 c 5.13699,0.11181 8.73729,0.0753 8.93718,-0.0906 0.2055,-0.17055 2.64501,-0.16338 6.31797,0.0186 3.29079,0.16302 9.83073,0.21587 14.53323,0.11745 8.23941,-0.17244 8.60448,-0.20526 10.05,-0.90346 2.69955,-1.30391 7.30494,-1.91836 16.65,-2.22144 8.05626,-0.26127 9.14118,-0.49356 9.9681,-2.1342 0.70017,-1.38918 1.79547,-2.29114 3.26175,-2.68596 0.86496,-0.23291 1.17204,-0.45429 1.05462,-0.76028 -0.11352,-0.29585 0.0438,-0.43122 0.49995,-0.4302 0.36606,9e-4 1.31955,-0.23293 2.11884,-0.51943 1.35393,-0.4853 1.47822,-0.48677 1.81848,-0.0215 0.33045,0.4519 0.77778,0.46955 4.69674,0.18524 2.38233,-0.17282 4.45977,-0.43385 4.61652,-0.58004 0.17136,-0.15983 0.003,-0.26582 -0.42501,-0.26582 -1.76643,0 -0.0586,-0.31291 4.20114,-0.76973 5.7741,-0.61922 9.10956,-0.57608 10.33887,0.13371 0.495,0.28581 0.8961,0.71459 0.89136,0.95284 -0.005,0.23825 0.15435,0.92911 0.35361,1.53525 0.22674,0.68985 0.29865,1.94259 0.19227,3.34923 l -0.16995,2.24717 1.61637,1.72207 c 0.88899,0.94714 2.42634,2.25452 3.41634,2.90528 l 1.8,1.18321 2.55,-0.18684 c 3.73482,-0.27363 5.88522,-0.84533 6.60063,-1.75483 0.8724,-1.10909 3.40806,-1.44201 4.28718,-0.56288 0.54762,0.54761 0.5757,0.71754 0.24021,1.4538 -0.33933,0.74479 -0.31308,0.87805 0.24606,1.24931 0.79689,0.52912 0.80688,1.87561 0.0258,3.49241 -0.35034,0.72532 -0.58377,1.8527 -0.59007,2.85 -0.009,1.4925 -0.45108,4.06511 -1.18455,6.9 -0.78264,3.02496 -1.58367,5.85161 -1.7214,6.07446 -0.0856,0.13851 0.0102,0.45182 0.21321,0.69625 0.32046,0.38613 0.43206,0.38807 0.85083,0.0148 0.26508,-0.23631 1.05573,-0.58242 1.75698,-0.76913 2.358,-0.62782 2.65908,-0.46509 14.325,7.74208 5.80437,4.08347 8.44995,6.20863 11.35287,9.11957 1.92696,1.93226 2.59017,2.86026 3.6636,5.12629 1.15278,2.43356 1.43859,2.81317 2.37222,3.15078 2.69814,0.97565 4.17807,3.28483 4.12545,6.43701 -0.0313,1.87361 0.0476,2.14906 0.95574,3.33884 2.24097,2.93583 4.00077,8.28113 8.30271,25.21909 1.63437,6.435 3.76698,14.75539 4.7391,18.48976 0.97215,3.73437 2.05044,8.52687 2.39619,10.65 0.34578,2.12313 0.9696,5.95274 1.38624,8.51024 0.41667,2.5575 1.02657,5.865 1.35537,7.35 0.92655,4.18479 3.23928,17.2815 4.21167,23.85 0.18321,1.2375 0.45195,2.8575 0.59724,3.6 0.14526,0.7425 0.34647,2.0925 0.44712,3 0.10062,0.9075 0.30393,2.3925 0.45174,3.3 0.29664,1.82094 0.51273,3.20607 1.63812,10.5 0.42006,2.7225 0.92208,5.8275 1.11561,6.9 0.29538,1.63704 0.39357,5.21919 0.23025,8.4 -0.0213,0.4125 0.0575,1.39416 0.17487,2.18142 0.38205,2.56305 -1.54194,7.31118 -4.27605,10.55265 -0.5493,0.65124 -1.13175,1.67802 -1.29432,2.28177 -0.62322,2.31444 -4.08387,5.76186 -7.53051,7.50171 -2.08314,1.05156 -4.86123,1.84311 -9.96933,2.84049 -10.35252,2.0214 -20.5764,2.59341 -35.2959,1.97481 -17.56341,-0.73812 -25.21371,-1.53744 -37.65,-3.93375 -3.3,-0.63585 -7.5525,-1.36248 -9.45,-1.61472 -7.09686,-0.94338 -19.87377,-2.32026 -20.23716,-2.18082 -0.2073,0.0795 -0.45108,0.66252 -0.54177,1.29552 -0.0907,0.633 -0.6447,4.18842 -1.23117,7.90092 -2.53404,16.04073 -2.74761,17.89683 -3.34845,29.1 -0.25221,4.7025 -0.58701,9.9 -0.74403,11.55 -0.54873,5.76615 -1.8117,25.8483 -2.42445,38.55 -0.39618,8.2128 -0.19566,20.43915 0.49692,30.3 0.23757,3.3825 0.59241,11.86818 0.78852,18.85704 l 0.35655,12.70707 -0.64779,1.24293 c -0.62697,1.20303 -0.63843,1.40685 -0.35631,6.34296 0.16035,2.805 0.51348,7.935 0.78474,11.4 0.27129,3.465 0.47406,7.6224 0.4506,9.23871 -0.0234,1.61628 0.0986,3.56901 0.27129,4.33938 0.38721,1.72779 -0.18174,12.74487 -0.71613,13.86711 -0.23967,0.50331 -0.69507,0.80829 -1.4031,0.9396 -0.57654,0.10692 -1.58304,0.48036 -2.23668,0.8298 -0.65364,0.34947 -1.67541,0.6354 -2.27055,0.6354 -1.21629,0 -4.08009,0.77781 -4.32546,1.17477 -0.14307,0.23151 0.52629,5.75592 0.89028,7.34748 0.28794,1.25913 1.53186,17.22051 2.23491,28.67775 0.55266,9.00594 0.61887,10.27476 1.04118,19.95 0.57798,13.24218 0.58665,18.83043 0.0319,20.53845 -0.24321,0.74886 -0.4143,2.17155 -0.38019,3.16155 0.0433,1.25556 -0.10752,2.14254 -0.49854,2.93247 -0.54963,1.11039 -0.54849,1.21278 0.0582,5.25 0.94407,6.28266 0.99873,7.06269 0.99741,14.23743 -0.003,10.77564 -0.86856,13.89072 -4.80759,17.28093 -3.25005,2.79723 -5.47551,3.97944 -8.13309,4.32039 -1.2375,0.15879 -2.50602,0.42372 -2.81895,0.58872 -0.54771,0.28884 -7.15626,0.16425 -13.05213,-0.24603 l -2.52111,-0.17544 0.18126,2.16183 c 0.1332,1.58892 0.3243,2.26641 0.72108,2.55648 0.46311,0.33855 0.53886,0.85656 0.53292,3.64395 -0.008,3.71073 -0.63294,15.19986 -1.03356,18.99927 -0.1479,1.4025 -0.31179,3.63 -0.3642,4.95 l -0.0953,2.4 2.25,0.35616 c 1.2375,0.1959 4.2804,0.36465 6.76197,0.375 6.07188,0.0252 9.35949,0.88644 11.47986,3.00681 1.15458,1.15458 1.08063,1.44591 -0.19905,0.78414 -1.48014,-0.76539 -1.56246,-0.56199 -0.44637,1.10289 1.24395,1.85562 3.02553,2.98992 3.4644,2.20572 0.40482,-0.72339 1.41279,-0.58926 1.72404,0.22947 0.43539,1.14516 0.89127,3.95076 1.22115,7.51545 0.1692,1.82841 0.49998,3.99936 0.73506,4.82436 0.91149,3.19869 0.79794,23.43207 -0.16266,28.98999 -0.16065,0.92949 -0.34713,2.21199 -0.41442,2.85 -0.306,2.90223 -1.61688,4.73217 -5.85567,8.17416 -2.55945,2.07834 -12.21561,7.41189 -14.40831,7.95837 -0.4125,0.10281 -0.007,-0.16785 0.9,-0.60147 0.9075,-0.43362 1.48827,-0.84966 1.2906,-0.92451 -0.19767,-0.0749 -1.76121,0.21486 -3.47457,0.64386 -5.31081,1.32978 -10.44696,1.02309 -12.68766,-0.75759 -1.22088,-0.97023 -2.62299,-1.26978 -1.90737,-0.40749 0.85419,1.02921 4.83756,3.38148 7.31883,4.32189 0.70749,0.26811 0.79971,0.39426 0.45,0.61542 -0.24189,0.153 -0.50733,0.26187 -0.58983,0.24192 -0.0825,-0.0198 -0.4875,-0.0899 -0.9,-0.15549 z m 3.49188,-4.89906 c 1.32045,0 1.28655,-0.46158 -0.0667,-0.90819 -0.99432,-0.32817 -3.26718,-0.23418 -5.15016,0.21294 -1.82916,0.43437 0.31083,1.03338 2.89188,0.80949 0.72426,-0.0629 1.77051,-0.11424 2.325,-0.11424 z m 17.50812,-6.29643 c 0,-0.32031 -0.71889,-0.0729 -1.725,0.59358 -1.12389,0.74454 -0.75636,0.95655 0.525,0.30285 0.66,-0.33672 1.2,-0.7401 1.2,-0.89643 z m -206.7,-16.50357 c 0,-0.69999 -0.13333,-0.9 -0.6,-0.9 -0.66861,0 -0.75266,0.35418 -0.28945,1.21971 0.45967,0.8589 0.88945,0.70443 0.88945,-0.31971 z m 162.3,-39.9 c 0,-0.165 -0.21048,-0.3 -0.4677,-0.3 -0.25725,0 -0.38427,0.135 -0.2823,0.3 0.10197,0.165 0.31245,0.3 0.4677,0.3 0.15528,0 0.2823,-0.135 0.2823,-0.3 z m -84.15111,-2.89896 c -1.53423,-3.67188 -2.06349,-4.62267 -2.52069,-4.52835 -0.97488,0.20109 0.0743,3.35706 1.63482,4.9176 1.05435,1.05435 1.42161,0.89298 0.88587,-0.38925 z m -45.36966,-0.8676 c 3.13194,-0.56679 10.24813,-1.12218 11.92077,-0.93039 0.7425,0.0851 1.62,0.0388 1.95,-0.10305 0.58372,-0.25083 0.58256,-0.25839 -0.0424,-0.27891 -0.45969,-0.015 -0.77771,-0.35919 -1.11805,-1.20978 -0.61538,-1.53801 -1.73108,-2.11131 -4.10878,-2.11131 -2.23634,0 -3.89246,-0.81285 -4.86653,-2.38857 -0.96165,-1.55562 -0.82208,-3.68103 0.48341,-7.36143 1.99103,-5.61312 2.97409,-7.26642 4.81328,-8.09505 1.27739,-0.57549 2.08441,-1.25802 1.8795,-1.58958 -0.30075,-0.48663 -7.84086,-0.71784 -10.98446,-0.33684 l -2.9234,0.3543 -0.18947,2.4336 c -0.10421,1.33845 -0.19028,6.65655 -0.19127,11.81799 -0.002,8.06382 -0.0651,9.40872 -0.4518,9.5571 -0.2475,0.095 -0.45,0.37761 -0.45,0.62808 0,0.35688 0.21095,0.40995 0.975,0.24537 0.53625,-0.1155 2.02315,-0.39969 3.30423,-0.63153 z m 21.90147,-0.33021 c -0.2031,-0.0822 -0.6081,-0.0872 -0.9,-0.0111 -0.29187,0.0761 -0.1257,0.14331 0.3693,0.14943 0.495,0.006 0.73383,-0.0561 0.5307,-0.1383 z m -24.1557,-29.41812 c -0.45375,-0.0687 -1.19625,-0.0687 -1.65,0 -0.45375,0.0688 -0.0825,0.12498 0.825,0.12498 0.9075,0 1.27875,-0.0562 0.825,-0.12498 z M 98.73721,554.32503 c -0.0715,-0.37125 -0.13001,-0.0675 -0.13001,0.675 0,0.7425 0.0585,1.04625 0.13001,0.675 0.0715,-0.37125 0.0715,-0.97875 0,-1.35 z m -0.007,-5.68125 c -0.0958,-0.23931 -0.16686,-0.16824 -0.18125,0.18126 -0.013,0.31623 0.0579,0.49344 0.15757,0.39375 0.0997,-0.0997 0.11034,-0.35844 0.0237,-0.57501 z m -0.89276,-21.01524 c -0.0717,-0.3732 -0.13319,-0.13851 -0.13652,0.52149 -0.003,0.66 0.0554,0.96531 0.13047,0.67851 0.0751,-0.28683 0.0778,-0.82683 0.006,-1.2 z m 64.85986,-85.35351 c -0.53457,-0.94875 -1.20453,-2.0625 -1.48875,-2.475 -0.94518,-1.37172 -5.72133,-9.71217 -7.04358,-12.3 -1.74494,-3.41511 -2.96071,-6.3171 -4.48386,-10.7028 -0.69774,-2.00907 -1.48501,-3.86922 -1.74949,-4.1337 -0.26447,-0.26448 -0.41112,-0.66261 -0.32588,-0.88476 0.13495,-0.35169 -2.3918,-11.32359 -3.18956,-13.85004 -0.16001,-0.5067 -0.29175,-1.1817 -0.29277,-1.5 -9e-4,-0.31827 -0.21657,-0.9837 -0.479,-1.4787 -0.26243,-0.495 -0.79538,-3.22497 -1.18433,-6.06663 -0.38895,-2.84163 -0.84106,-5.67663 -1.00468,-6.3 -0.39729,-1.51359 -2.00233,-10.33638 -2.57973,-14.18061 -0.51256,-3.41259 -0.96326,-4.70301 -0.86684,-2.4819 0.12676,2.91999 0.45837,7.14531 0.59921,7.63497 0.08,0.27822 0.20137,1.57017 0.26968,2.871 0.2945,5.6085 2.79727,24.80859 3.92009,30.07317 0.26394,1.2375 0.93023,3.33 1.48066,4.65 3.18743,7.64391 4.65064,11.31213 5.09175,12.76479 0.2731,0.89937 0.76318,2.49999 1.08906,3.55695 0.39575,1.28352 0.49271,2.02152 0.29197,2.22228 -0.34798,0.34797 -1.22599,-0.24759 -1.22599,-0.8316 0,-0.20025 -0.67333,-1.20306 -1.49629,-2.22849 -0.82296,-1.02543 -1.84828,-2.46507 -2.27851,-3.19917 -0.43021,-0.73413 -0.83038,-1.33476 -0.88926,-1.33476 -0.0589,0 -0.0763,0.57375 -0.0387,1.275 0.048,0.89634 0.73857,2.61144 2.32521,5.775 1.2413,2.475 2.50167,5.1075 2.80083,5.85 0.29916,0.7425 1.07845,2.7 1.73177,4.35 0.65331,1.65 1.2803,3.09534 1.3933,3.21189 0.33179,0.34218 6.63329,1.35522 8.6987,1.39842 l 1.89702,0.0397 -0.972,-1.725 z m 89.61189,-11.17089 c 0.78204,-0.01 1.26852,-3.17532 1.47579,-9.60411 0.11439,-3.5475 0.18231,-7.26 0.1509,-8.25 -0.0915,-2.88735 0.55827,-20.01561 1.08126,-28.5 0.74367,-12.06525 0.18933,-46.42521 -0.93897,-58.20001 -0.48369,-5.04747 -1.62387,-12.36174 -2.09301,-13.42671 -0.60987,-1.38441 -1.8333,-6.20295 -2.3799,-9.37329 -0.25605,-1.485 -0.60378,-3.49878 -0.77277,-4.47504 -0.16896,-0.97626 -0.30723,-2.16792 -0.30723,-2.6481 0,-0.51996 -0.68754,-2.04672 -1.69995,-3.77496 -2.41032,-4.11459 -3.43947,-5.7519 -3.61539,-5.7519 -0.084,0 -0.0711,0.57375 0.0288,1.275 0.0999,0.70125 0.31629,3.58935 0.48096,6.41802 0.2952,5.07126 0.62073,6.93282 2.19576,12.55698 1.37142,4.89717 2.0793,9.33456 2.60826,16.35 0.53874,7.14547 1.77129,14.73799 2.77596,17.10001 0.19176,0.45084 0.36258,4.2621 0.42825,9.55494 0.10803,8.70561 0.10164,8.8173 -0.567,9.89919 -0.63132,1.02147 -0.69993,1.64283 -1.03185,9.34506 -0.19557,4.53795 -0.55971,11.08581 -0.80919,14.55081 -0.24951,3.465 -0.60306,9.945 -0.7857,14.4 -0.18264,4.455 -0.40047,8.53875 -0.48408,9.075 -0.15075,0.96678 -0.1416,0.975 1.08357,0.975 1.00542,0 1.21716,0.0958 1.13655,0.51423 -0.0601,0.31209 -0.54042,0.6186 -1.22199,0.77979 l -1.12296,0.26559 0.004,1.69518 c 0.003,0.93237 0.26943,2.77521 0.59439,4.09521 0.80139,3.25539 1.80207,10.86018 1.80207,13.69533 0,1.55472 0.19221,1.85457 1.04238,1.62615 0.3342,-0.0898 0.75789,-0.16512 0.94155,-0.16737 z M 83.09118,349.0413 c -0.5644,-1.35078 -0.56395,-1.34127 -0.0631,-1.34127 0.31628,0 0.47318,-1.52781 0.73171,-7.125 0.181,-3.91875 0.45507,-7.79361 0.60905,-8.61078 0.16624,-0.8823 0.17712,-2.89288 0.0268,-4.95001 -0.13925,-1.90533 -0.30003,-4.34172 -0.35729,-5.41422 -0.0573,-1.0725 -0.19783,-1.95 -0.31238,-1.95 -0.27467,0 -2.10201,2.3265 -4.59484,5.85 -1.10899,1.5675 -2.39644,3.34194 -2.861,3.94318 -0.46456,0.60126 -0.84465,1.42836 -0.84465,1.83801 0,0.85713 2.25917,7.58727 3.78148,11.26515 1.13552,2.74338 3.29842,7.16982 3.81699,7.81158 0.53501,0.6621 0.5741,-0.1035 0.0672,-1.31664 z m 54.39973,-22.04128 c 0,-9.57945 -0.27884,-13.29087 -0.65364,-8.7 -0.26813,3.28428 -0.26899,10.46787 -0.002,15.77758 0.33237,6.60729 0.65553,3.11826 0.65553,-7.07758 z m -4.76718,-6.28473 c 0.35039,-3.042 0.3024,-4.01592 -0.17436,-3.53916 -0.30074,0.30075 -0.70528,4.16283 -0.68336,6.52389 0.0259,2.78652 0.30475,1.81611 0.85772,-2.98473 z m 4.62616,-17.35851 c -0.0335,-0.0513 -0.29383,0.51681 -0.57858,1.26243 -0.37618,0.98502 -0.46029,1.73862 -0.30764,2.75658 0.39074,2.60562 0.61118,2.3862 0.77945,-0.77577 0.0922,-1.7325 0.14025,-3.19194 0.10677,-3.24324 z m 109.94527,-14.60415 c -1.44711,-2.01507 -1.43844,-1.7607 0.0397,1.16187 0.58455,1.15578 0.7608,1.33023 0.83619,0.82761 0.0542,-0.36111 -0.32505,-1.2225 -0.87585,-1.98948 z m -5.95989,0.52239 c 0.005,-0.28875 0.24999,-1.22001 0.54357,-2.06946 0.52251,-1.51188 0.52092,-1.56252 -0.0747,-2.4 -0.6441,-0.90564 -5.45058,-6.94596 -5.93262,-7.45554 -0.39297,-0.41544 0.0403,0.6567 1.65222,4.08828 0.74619,1.58856 1.80558,4.11768 2.35422,5.62029 0.95481,2.61507 1.43622,3.34725 1.45731,2.21643 z m 4.12878,-4.54755 c -0.24123,-0.95049 -0.2409,-1.92225 0,-3.59034 0.18261,-1.2579 0.41055,-3.23211 0.50649,-4.38711 0.27465,-3.30651 0.97932,-5.33577 2.52567,-7.27335 0.75789,-0.94965 1.91367,-2.51304 2.56839,-3.47421 1.54473,-2.26773 4.38069,-5.20431 6.45234,-6.68127 1.51845,-1.08258 2.63862,-2.00577 8.62656,-7.1097 2.35554,-2.00781 3.15006,-3.09195 1.50819,-2.05797 -2.13675,1.34562 -6.77532,4.80642 -9.05154,6.7533 -1.32261,1.13124 -2.45097,1.91814 -2.50746,1.74864 -0.15726,-0.47178 3.60843,-4.96599 6.87198,-8.20143 2.85588,-2.83128 6.86046,-5.7588 10.60953,-7.75602 2.43864,-1.29912 2.60109,-1.47003 4.53129,-4.76709 2.53119,-4.3236 5.80302,-8.22303 9.18759,-10.94997 1.22628,-0.98799 1.37559,-1.22412 1.09989,-1.73928 -0.52851,-0.98754 0.13959,-2.01138 3.4941,-5.35446 1.72542,-1.71957 3.13713,-3.2175 3.13713,-3.32874 0,-0.11124 -0.24987,-0.13692 -0.55527,-0.0571 -0.3054,0.0799 -0.7758,-0.0753 -1.04535,-0.34485 -0.45339,-0.45342 -0.40926,-0.65145 0.59019,-2.64831 0.59415,-1.18701 2.27799,-4.20186 3.74187,-6.6996 3.29655,-5.62479 3.22305,-5.44206 2.12421,-5.28078 -1.16091,0.17037 -1.31058,-0.3273 -0.80427,-2.67432 0.37935,-1.75863 2.26491,-7.35144 3.67602,-10.90353 1.08045,-2.71986 1.09125,-2.76171 0.5019,-1.95 -0.8859,1.22022 -1.60341,1.49256 -2.47551,0.9396 -0.31857,-0.20199 -0.33099,-0.62733 -0.0634,-2.17041 0.35631,-2.05428 1.38672,-6.49998 1.68936,-7.28868 0.15012,-0.39117 0.0246,-0.4464 -0.68994,-0.30348 -1.54617,0.30924 -1.707,-0.24114 -1.47927,-5.0625 0.11076,-2.34549 0.32592,-5.81703 0.47811,-7.71453 0.15216,-1.8975 0.28446,-6.12615 0.294,-9.39699 0.0156,-5.35156 0.0667,-5.93729 0.51051,-5.85 1.5882,0.31234 2.65503,4.36648 2.532,9.62199 -0.0717,3.06159 -0.0195,3.525 0.39615,3.525 0.34977,0 0.47865,-0.29148 0.47865,-1.08252 0,-1.02916 0.0407,-1.07272 0.825,-0.88358 0.92646,0.22341 1.575,0.92297 1.575,1.69889 0,1.60242 0.55845,1.76775 2.92821,0.86706 3.41553,-1.29816 6.61764,-0.5427 10.27179,2.4234 2.13243,1.73094 3.73758,2.67675 4.54266,2.67675 0.19905,0 0.0684,-0.31245 -0.29037,-0.69435 -0.66294,-0.70566 -0.86052,-1.40565 -0.39678,-1.40565 0.14055,0 1.2543,0.6651 2.475,1.47801 2.39154,1.59261 8.06865,4.49343 10.01949,5.11965 0.66,0.21186 2.09376,0.83196 3.18615,1.37799 1.09239,0.54603 3.58989,1.39038 5.55,1.87638 1.96011,0.48597 4.91385,1.22703 6.56385,1.64676 4.44168,1.12989 10.30998,2.48367 14.55,3.35658 4.76991,0.98199 6.56874,1.36707 14.04774,3.00732 6.17127,1.35342 7.10967,1.4883 7.99395,1.149 0.44421,-0.17049 0.47478,-1.01697 0.32229,-8.925 -0.30831,-15.99014 -0.40824,-17.45338 -1.71312,-25.08669 -1.16247,-6.80012 -1.19955,-7.22494 -1.0464,-11.98569 0.1476,-4.58865 0.10524,-5.14763 -0.60285,-7.95 -0.90978,-3.60059 -0.9963,-3.77816 -2.81544,-5.77866 -1.82709,-2.00926 -2.37711,-3.64831 -2.5959,-7.73565 -0.17019,-3.17952 -0.21174,-3.33924 -1.13754,-4.37504 -0.52851,-0.59127 -1.34031,-1.77215 -1.80405,-2.62417 -0.56547,-1.03899 -1.25571,-1.79092 -2.09601,-2.28336 -2.46591,-1.44512 -4.33884,-4.40969 -4.35726,-6.89688 -0.007,-0.89772 -0.26223,-1.14272 -2.04741,-1.96262 -0.8811,-0.40468 -2.20917,-1.30121 -2.95128,-1.99229 -1.34769,-1.25504 -1.34868,-1.25746 -0.83016,-2.04879 0.5142,-0.78479 0.50865,-0.80276 -0.58719,-1.90456 -1.73292,-1.74233 -3.96306,-4.34749 -4.33809,-5.06757 -0.18771,-0.3604 -0.34128,-1.20104 -0.34128,-1.86808 0,-0.92741 -0.15885,-1.3163 -0.675,-1.6526 -1.00194,-0.65282 -5.52396,-0.67612 -8.775,-0.0452 -5.73342,1.11265 -12.36858,0.91276 -15.04809,-0.45334 C 334.70525,83.95897 333.884,83.7 333.50108,83.7 c -1.69467,0 -2.67804,-0.77402 -3.87066,-3.04663 -0.8925,-1.70077 -1.98807,-3.03872 -4.80288,-5.86552 -2.00562,-2.01419 -3.98346,-3.74671 -4.39521,-3.85005 -0.41172,-0.10334 -1.79229,-0.0297 -3.06792,0.16368 -1.76328,0.26728 -5.60046,0.271 -16.00479,0.0155 -7.527,-0.18484 -14.56296,-0.23052 -15.63546,-0.10152 l -1.95,0.23454 -0.0814,6.13345 c -0.0631,4.75272 -0.17616,6.23847 -0.50232,6.6 -0.3723,0.41271 -0.84684,2.93012 -1.6713,8.86655 -0.52071,3.74942 -1.1565,6.74426 -1.60434,7.55732 -0.42225,0.76658 -1.395,3.06052 -2.4564,5.79268 -0.22437,0.5775 -0.41385,1.88496 -0.42108,2.90547 -0.007,1.02051 -0.1596,2.23551 -0.33858,2.7 -0.32496,0.84345 -0.92181,3.55794 -1.47696,6.71737 -0.26079,1.4843 -0.21,1.88698 0.45072,3.57297 0.40956,1.04508 1.21908,2.58896 1.79892,3.43085 0.66858,0.97078 1.20636,2.24266 1.47015,3.47702 0.22875,1.07048 0.68871,2.68882 1.02216,3.59632 0.33342,0.9075 0.69789,2.7975 0.80988,4.2 0.11199,1.4025 0.34395,2.71965 0.51546,2.92699 0.31929,0.38598 0.19257,2.06533 -0.39036,5.17301 -0.17022,0.9075 -0.4305,2.325 -0.5784,3.15 -1.86165,10.38481 -2.45259,12.28693 -6.19086,19.92645 -1.73793,3.55167 -3.40659,6.80406 -3.70815,7.22754 -0.30153,0.42348 -0.98568,1.57458 -1.52034,2.55801 -0.53463,0.9834 -1.3371,2.328 -1.78323,2.988 -0.44616,0.66 -1.55475,2.4825 -2.46351,4.05 -2.24613,3.87426 -3.31653,5.52495 -5.79567,8.93772 -3.09333,4.2582 -4.68159,6.48138 -5.58918,7.82343 -0.73653,1.08915 -2.3184,2.41722 -5.24337,4.40217 -1.02288,0.69414 -1.19094,1.02513 -2.09226,4.12071 -0.53904,1.8513 -1.32138,4.30257 -1.73853,5.44728 -0.41715,1.14471 -0.70389,2.13585 -0.6372,2.20254 0.0667,0.0667 0.61698,-0.89544 1.22292,-2.13804 1.44882,-2.9712 3.027,-4.69581 4.29714,-4.69581 0.95649,0 1.31622,0.63582 0.6075,1.07385 -0.42072,0.26001 -1.92207,3.49677 -5.17251,11.15148 -5.19531,12.23469 -7.14528,17.2134 -6.09576,15.56376 4.12491,-6.48366 5.99598,-8.74086 7.06095,-8.5182 0.81324,0.17007 0.49461,1.09569 -1.78857,5.19615 -2.73357,4.90932 -3.72051,6.81441 -5.27517,10.18296 -2.20875,4.78575 -2.51097,5.54229 -4.23897,10.61097 -1.6014,4.69737 -1.70061,5.15565 -1.69677,7.83903 0.006,4.39992 0.2562,4.95285 4.90545,10.85382 4.32414,5.48835 6.7584,8.76729 7.6926,10.36194 0.31119,0.53118 0.59973,0.93183 0.64125,0.89034 0.0415,-0.0415 -0.0734,-0.66189 -0.25536,-1.37865 z m -11.30106,-15.21495 c -0.58251,-1.27848 -0.9459,-6.3336 -0.62049,-8.63148 0.324,-2.28783 0.51375,-2.77026 0.92712,-2.35689 0.29421,0.29421 0.92352,11.1237 0.67023,11.53356 -0.27312,0.4419 -0.61371,0.25185 -0.97686,-0.54519 z m 61.62816,-109.6875 c -0.70911,-2.34258 -1.35564,-5.19965 -1.53459,-6.78158 -0.20088,-1.77558 -0.23238,-1.82942 -0.96279,-1.6461 -0.69222,0.17374 -0.73881,0.12453 -0.55932,-0.59065 0.1077,-0.4291 0.0427,-1.42738 -0.14439,-2.21842 -0.81705,-3.45404 -4.79844,-14.0203 -5.85171,-15.53 -0.22707,-0.32546 -0.41211,-1.00046 -0.41118,-1.5 0.003,-1.38634 0.59022,-3.21043 0.99255,-3.08077 0.37686,0.12146 4.38324,7.90884 4.39743,8.54752 0.0111,0.49584 0.25284,0.47336 0.80061,-0.0744 1.05198,-1.052 1.96032,0.57065 3.10647,5.5494 0.20892,0.9075 0.48531,1.785 0.61425,1.95 0.59013,0.7553 1.97292,12.4149 1.66626,14.04966 -0.34161,1.82079 -1.70487,2.67564 -2.11359,1.32534 z m -9.91731,-25.12768 c -0.26211,-0.42411 0.13485,-1.5431 0.47325,-1.33397 0.36486,0.22549 0.3615,1.63665 -0.004,1.63665 -0.15525,0 -0.36648,-0.13621 -0.46935,-0.30268 z m -151.94835,149.5894 c 0,-0.0623 -0.23625,-0.29853 -0.525,-0.525 -0.47582,-0.37314 -0.48643,-0.36255 -0.11327,0.11328 0.39191,0.49971 0.63827,0.65865 0.63827,0.41172 z m -69.6,-73.38672 c 0,-0.33 -0.0627,-0.6 -0.13945,-0.6 -0.0767,0 -0.28394,0.27 -0.46055,0.6 -0.25629,0.47889 -0.22815,0.6 0.13945,0.6 0.26055,0 0.46055,-0.26055 0.46055,-0.6 z m 121.8,-0.9 c 0,-0.33 -0.135,-0.6 -0.3,-0.6 -0.165,0 -0.3,0.27 -0.3,0.6 0,0.33 0.135,0.6 0.3,0.6 0.165,0 0.3,-0.27 0.3,-0.6 z m -1.59507,-10.55625 c -0.0958,-0.23931 -0.16686,-0.16824 -0.18126,0.18126 -0.0129,0.31623 0.0579,0.49344 0.15759,0.39375 0.0997,-0.0997 0.11034,-0.35844 0.0237,-0.57501 z m 118.53714,-1.9017 c -0.0924,-0.0923 -0.26013,0.0742 -0.37278,0.37002 -0.16281,0.42756 -0.12834,0.462 0.16794,0.16794 0.20502,-0.20352 0.29721,-0.44559 0.20484,-0.53796 z M 186.0027,195.97724 c -0.20805,-0.20805 -0.77721,0.21465 -0.77721,0.57723 0,0.19893 0.17214,0.17616 0.45726,-0.0605 0.25149,-0.20871 0.39546,-0.44124 0.31995,-0.51675 z m -8.62743,-4.53216 c 0.0549,-0.38772 -0.17568,-1.73772 -0.51237,-3 -0.33669,-1.26228 -0.70395,-3.34131 -0.81618,-4.62006 -0.16215,-1.84821 -0.30318,-2.32689 -0.6876,-2.33427 -1.31016,-0.0252 -5.01123,-0.62598 -6.12579,-0.99453 -0.6918,-0.22878 -1.83159,-0.5031 -2.53284,-0.60963 l -1.275,-0.19365 0,4.91904 0,4.91904 0.79554,0.52125 c 0.43752,0.28668 2.22627,0.76575 3.975,1.06461 1.7487,0.29886 3.71946,0.67662 4.37946,0.83943 1.86576,0.46029 2.68341,0.31101 2.79978,-0.51123 z m 15.58785,-0.38625 c 1.31982,-0.25488 1.55904,-0.39669 1.41813,-0.84066 -0.576,-1.81482 -1.04607,-5.01096 -1.05054,-7.14315 -0.003,-1.36125 -0.10647,-2.47389 -0.23022,-2.47254 -0.12375,0 -1.3725,0.13041 -2.775,0.28683 -1.4025,0.15639 -3.765,0.35913 -5.25,0.45051 -4.90989,0.30216 -5.54799,0.43554 -5.56611,1.16334 -0.009,0.35577 -0.19467,2.46936 -0.41289,4.69686 -0.21822,2.2275 -0.35412,4.12515 -0.30204,4.21698 0.15909,0.28044 12.47394,-0.0309 14.16867,-0.35817 z m 8.31237,-1.76442 c 6.80037,-2.73936 10.2087,-4.25928 11.21913,-5.00319 0.62841,-0.46266 2.86185,-2.3262 4.96323,-4.1412 2.10135,-1.815 4.48374,-3.82296 5.29416,-4.46214 1.57623,-1.24317 1.75011,-1.78272 1.02579,-3.18336 l -0.44766,-0.86571 -2.92734,1.36575 c -1.61001,0.75117 -2.99607,1.47411 -3.08013,1.60653 -0.2064,0.32517 -3.19038,1.48779 -3.83328,1.49352 -1.00326,0.009 -1.31115,0.53535 -1.66974,2.8545 -0.36906,2.38695 -1.09416,3.46431 -1.09416,1.62573 0,-0.53088 -0.15636,-1.48713 -0.34749,-2.12502 -0.27231,-0.90891 -0.49653,-1.1598 -1.03656,-1.1598 -0.58431,0 -4.96317,1.01478 -10.70862,2.48166 l -1.44267,0.36834 -0.13332,2.4 c -0.14838,2.67084 -0.669,6.83847 -0.94365,7.55418 -0.26541,0.69165 2.51958,0.25476 5.16231,-0.80979 z m -39.09594,-7.80834 -0.0959,-2.26395 -2.00796,-0.51726 c -1.10436,-0.28449 -2.39289,-0.71697 -2.86335,-0.96105 -0.47049,-0.24408 -1.00875,-0.44445 -1.19613,-0.44523 -0.18738,0 -1.69071,-0.61806 -3.34071,-1.37166 -1.65,-0.7536 -3.16373,-1.44048 -3.36384,-1.52637 -0.22023,-0.0945 -0.70783,0.55395 -1.23533,1.64292 l -0.87149,1.7991 1.83533,1.32714 c 1.85707,1.34286 5.15969,3.47838 10.18118,6.58323 l 2.75415,1.70292 0.15,-1.85292 c 0.0825,-1.0191 0.10683,-2.87169 0.0541,-4.11687 z m 143.49459,-1.18203 c 0.2733,-0.82278 0.44238,-1.73403 0.37578,-2.025 -0.1137,-0.49662 -0.42279,0.34488 -0.99033,2.69598 -0.33279,1.37868 0.0854,0.92202 0.61455,-0.67098 z m -160.1722,-5.7786 c -0.22822,-1.09074 -0.49748,-2.11674 -0.59836,-2.27997 -0.10089,-0.16323 -1.02598,-0.76899 -2.05576,-1.34613 -1.02978,-0.57711 -2.37858,-1.39401 -2.99733,-1.81527 -1.20525,-0.82062 -1.48059,-0.53763 -0.78878,0.81066 0.36467,0.71073 6.57483,6.89424 6.74901,6.72006 0.0584,-0.0584 -0.0806,-0.99858 -0.30878,-2.08935 z m 30.5419,0.89958 c 0.42024,-3.45423 0.70101,-7.59672 0.52695,-7.77468 -0.1074,-0.10983 -2.65911,-0.24483 -5.67045,-0.3 l -5.47515,-0.10032 1.5e-4,4.40661 1.5e-4,4.40664 1.425,0.18744 c 0.78375,0.10308 1.6275,0.2307 1.875,0.28359 0.2475,0.0529 1.96047,0.11178 3.80661,0.13092 l 3.35664,0.0348 0.1551,-1.275 z m 7.39215,0.68514 c 3.63321,-0.38676 9.69255,-1.22883 9.8406,-1.36758 0.0556,-0.0521 0.22629,-1.10322 0.37932,-2.3358 0.31728,-2.55561 0.90375,-4.46814 1.4232,-4.6413 0.55422,-0.18474 1.20759,1.74885 1.46325,4.33044 l 0.23313,2.3541 1.2,-0.0862 c 0.66,-0.0474 3.23586,-0.19404 5.72412,-0.32586 2.48826,-0.13182 4.68201,-0.33726 4.875,-0.45654 0.24162,-0.14934 0.35088,-1.56573 0.35088,-4.54914 l 0,-4.3323 -1.94664,0 c -1.07067,0 -2.92692,0.26733 -4.125,0.59406 -2.82264,0.76974 -10.71918,1.7637 -15.67836,1.97346 -2.145,0.0907 -4.71,0.20481 -5.7,0.2535 l -1.8,0.0885 -0.0675,4.17021 c -0.0679,4.20009 0.0147,5.08104 0.45087,4.8114 0.13068,-0.0808 1.65039,-0.29724 3.3771,-0.48102 z m -21.16782,-6.20382 0.21606,-2.74365 -1.15437,-0.17907 c -0.63489,-0.0985 -2.90937,-0.31926 -5.05437,-0.49065 -2.145,-0.17136 -4.34856,-0.39177 -4.8968,-0.48975 -0.97208,-0.17373 -0.99441,-0.15438 -0.9,0.78078 0.0874,0.86586 0.34422,1.09188 2.6468,2.32944 3.10647,1.66959 4.8663,2.8212 5.01768,3.28353 0.159,0.48549 -1.23126,0.13836 -4.79973,-1.1985 -3.33638,-1.24992 -3.21959,-1.22364 -3.21305,-0.72345 0.003,0.20625 1.61619,1.16052 3.58556,2.12058 2.59041,1.26285 4.13964,1.82475 5.60193,2.03184 1.11168,0.15741 2.09694,0.36234 2.18943,0.45534 0.21078,0.21195 0.48162,-1.63056 0.76086,-5.17644 z m 53.2749,1.37052 c 2.34693,-0.85557 6.58827,-2.62152 6.84306,-2.84922 0.0608,-0.0544 -0.063,-1.46115 -0.27516,-3.12612 -0.32496,-2.54994 -0.46065,-2.99814 -0.86064,-2.84286 -0.94884,0.36834 -5.32461,1.33236 -7.33173,1.61523 -1.1313,0.15945 -2.09991,0.33291 -2.15247,0.3855 -0.0526,0.0526 0.0916,0.9006 0.32025,1.88451 0.22872,0.98394 0.50604,2.70408 0.61626,3.82254 0.11019,1.11846 0.22458,2.03358 0.25419,2.03358 0.0297,0 1.1934,-0.41544 2.58624,-0.92316 z m 88.5432,-1.25619 c 0.49569,-3.08862 0.61173,-4.72065 0.33558,-4.72065 -0.23184,0 -1.00875,4.87878 -0.99924,6.27501 0.006,0.91467 0.42468,-0.0654 0.66366,-1.55436 z m -75.12972,0.004 c 0.50343,-0.53625 1.63614,-1.85679 2.51715,-2.93454 0.88098,-1.07775 2.15403,-2.63025 2.82897,-3.45 0.67497,-0.81975 1.93542,-2.63796 2.80101,-4.04046 0.86562,-1.4025 1.84857,-2.8462 2.18436,-3.20822 0.48102,-0.51862 0.56808,-0.88448 0.4104,-1.725 -0.11007,-0.58673 -0.26133,-1.06678 -0.33615,-1.06678 -0.0748,0 -0.91242,0.60217 -1.86141,1.33814 -1.50768,1.16929 -9.95757,5.26186 -10.86411,5.26186 -0.42372,0 -0.39387,0.50707 0.18498,3.14148 0.27297,1.24218 0.61584,2.25852 0.76197,2.25852 0.14613,0 0.79491,-0.27 1.44177,-0.6 2.92821,-1.49388 3.16632,-0.29217 0.47136,2.37885 -1.50873,1.49529 -1.92336,2.09763 -1.90437,2.76633 0.0311,1.0938 0.2418,1.07526 1.36407,-0.12018 z m -54.83106,-11.71516 c 0.5775,-0.20981 1.455,-0.59588 1.95,-0.85793 1.2306,-0.65147 3.84828,-1.36439 5.925,-1.61365 l 1.725,-0.20704 0.0132,-1.54043 c 0.007,-0.84724 0.132,-2.14794 0.27735,-2.89044 0.32214,-1.64529 0.0719,-1.96623 -1.06845,-1.37049 -0.47958,0.25055 -1.6695,0.69515 -2.64423,0.98802 -0.97473,0.29286 -1.86408,0.73497 -1.97631,0.98247 -1.50579,3.32021 -2.26887,3.84499 -5.8836,4.04614 -1.30233,0.0725 -3.60393,0.21588 -5.11473,0.3187 -1.63506,0.11128 -5.09574,-0.006 -8.55,-0.29017 -3.1917,-0.26241 -7.40768,-0.55852 -9.36881,-0.65802 -1.96114,-0.0995 -3.4034,-0.28124 -3.20501,-0.40385 0.19838,-0.12261 -0.6241,-0.31445 -1.82775,-0.42632 -1.20365,-0.11186 -2.31965,-0.33458 -2.48,-0.49493 -0.16035,-0.16035 -0.70329,-0.29747 -1.20654,-0.30471 -0.50325,-0.007 -1.44607,-0.20237 -2.09516,-0.43362 -0.64909,-0.23124 -1.30014,-0.3463 -1.44677,-0.25567 -0.31153,0.19253 1.97119,1.29299 4.12693,1.98951 1.37334,0.44373 2.48652,0.63615 8.25,1.42606 1.0725,0.14699 2.895,0.2715 4.05,0.27669 1.155,0.005 3.18,0.14191 4.5,0.30384 1.32,0.16192 4.56,0.51019 7.2,0.77394 2.64,0.26374 5.34,0.5884 6,0.72147 1.69725,0.3422 1.68843,0.34244 2.85,-0.0796 z M 160.854,156.38785 c 0.37317,-0.0718 0.91317,-0.069 1.2,0.006 0.2868,0.0751 -0.0186,0.1338 -0.67851,0.13047 -0.66,-0.003 -0.89469,-0.0648 -0.52149,-0.13653 z m -24.52851,-3.98783 c 0,-0.165 -0.135,-0.3 -0.3,-0.3 -0.165,0 -0.3,0.135 -0.3,0.3 0,0.165 0.135,0.3 0.3,0.3 0.165,0 0.3,-0.135 0.3,-0.3 z m 48.84,-11.46 c 0.198,-0.198 0.36117,-0.70425 0.36261,-1.125 0.003,-0.69083 0.49911,-1.00986 5.1237,-3.29061 4.73205,-2.33375 5.30733,-2.54264 7.57239,-2.74965 1.34823,-0.12322 2.8563,-0.3477 3.3513,-0.49886 1.05945,-0.3235 1.05924,-0.37588 -0.0189,-4.64277 -0.72864,-2.88363 -1.32264,-4.1139 -3.87153,-8.01852 -3.09813,-4.74605 -6.84735,-12.93329 -6.72141,-14.67765 0.0928,-1.28528 -0.17109,-1.8362 -0.8808,-1.83879 -0.27903,-9e-4 -0.8448,-0.17701 -1.2573,-0.3911 -1.14486,-0.59419 -1.8477,-0.82695 -1.6806,-0.55655 0.17715,0.28662 -0.86241,4.59559 -1.31085,5.4335 -0.16971,0.31711 -0.30855,1.2422 -0.30855,2.05576 0,1.46263 0.0159,1.48733 1.425,2.20613 1.46484,0.74725 1.71171,1.05887 4.5276,5.71453 1.90344,3.14709 5.91735,9.05818 6.45252,9.50232 0.65265,0.54168 0.87405,1.82185 0.4797,2.77391 -0.34512,0.83316 -2.53128,2.36335 -3.3765,2.36335 -0.23916,0 -0.61029,0.2114 -0.82473,0.46978 -0.96537,1.1632 -2.09571,1.41518 -6.18642,1.37914 -3.89634,-0.0343 -4.91619,0.19868 -3.70557,0.84659 0.71181,0.38094 0.76842,1.11768 0.14886,1.93683 -0.45066,0.59583 -0.58428,2.14379 -0.25836,2.99313 0.21786,0.56777 0.47403,0.5984 0.9579,0.11453 z m 3.47448,-45.10558 c 0.10245,-0.26698 0.0521,-0.3874 -0.11793,-0.28229 -0.16311,0.1008 -0.29655,0.31032 -0.29655,0.46558 0,0.43153 0.21504,0.33644 0.41448,-0.18329 z m 1.08552,-1.20212 c 0,-0.25724 -0.135,-0.38427 -0.3,-0.2823 -0.165,0.10198 -0.3,0.31245 -0.3,0.46771 0,0.15526 0.135,0.28229 0.3,0.28229 0.165,0 0.3,-0.21047 0.3,-0.4677 z M 347.57397,72.20843 c -0.37425,-0.45095 -0.51498,-3.87668 -0.20745,-5.05052 0.20643,-0.78801 0.1965,-0.79322 -1.91373,-1.00515 -1.1667,-0.11716 -2.22387,-0.21321 -2.34927,-0.21344 -0.12543,-2.3e-4 -0.186,0.4004 -0.13461,0.89028 0.0559,0.53258 -0.10461,1.08875 -0.39909,1.38324 -0.2709,0.2709 -0.44796,0.59774 -0.39345,0.72631 0.23691,0.55875 2.94405,2.78891 3.87678,3.19371 1.32741,0.57607 1.96239,0.60762 1.52082,0.0756 z M 192.33339,48.08073 c -0.0761,-0.29189 -0.14331,-0.12571 -0.14943,0.36929 -0.006,0.495 0.0561,0.73382 0.1383,0.53071 0.0822,-0.20311 0.0872,-0.60811 0.0111,-0.9 z M 191.86746,31.9189 c -0.0594,-0.31288 -0.19608,-1.17638 -0.30369,-1.91888 -0.20586,-1.42011 -0.55908,-1.6558 -1.07739,-0.71888 -0.171,0.3091 -0.54714,0.8855 -0.83589,1.2809 -0.71565,0.97996 -0.66771,1.15896 0.37155,1.38723 0.49311,0.1083 0.978,0.32865 1.07751,0.48967 0.3,0.4854 0.88377,0.0901 0.76791,-0.52004 z m -71.91699,-2.41813 c 2.09763,-1.56676 2.9211,-2.51287 1.81905,-2.08997 -0.97294,0.37335 -4.04585,2.63207 -4.3474,3.19552 -0.52263,0.97655 0.11271,0.69873 2.52835,-1.10555 z m 9.47502,-6.25266 c 0.2475,-0.22283 1.48825,-0.80492 2.75721,-1.29353 1.26897,-0.4886 2.68647,-1.14729 3.15,-1.46375 0.46354,-0.31646 1.75404,-1.01481 2.86779,-1.55189 1.94604,-0.93844 2.5513,-1.53892 1.55117,-1.53892 -1.38193,0 -10.67279,4.69231 -11.97617,6.04852 l -0.6,0.62432 0.9,-0.20979 c 0.495,-0.11539 1.1025,-0.39212 1.35,-0.61496 z m 11.7,-5.84809 c 0,-0.165 -0.135,-0.3 -0.3,-0.3 -0.165,0 -0.3,0.135 -0.3,0.3 0,0.165 0.135,0.3 0.3,0.3 0.165,0 0.3,-0.135 0.3,-0.3 z m 47.69832,-1.725 c 0,-0.28875 -0.14826,-1.05299 -0.32742,-1.6983 -0.22392,-0.80642 -0.40248,-1.04919 -0.57111,-0.77637 -0.17706,0.28649 -0.28326,0.19558 -0.38169,-0.3267 -0.0904,-0.47966 -0.15156,-0.31905 -0.18135,0.47637 -0.0246,0.66 -0.12312,1.49144 -0.21867,1.84764 -0.12552,0.46788 -0.0204,0.68721 0.37908,0.7902 1.05036,0.27085 1.30284,0.21015 1.30116,-0.31284 z M 153.6255,229.90001 c -0.28125,-0.28122 -0.2499,-1.29999 0.04,-1.29999 0.37386,0 0.96,0.67773 0.96,1.11 0,0.40872 -0.65655,0.53346 -0.99999,0.18999 z m -5.16034,-4.23555 c -1.14932,-0.78957 -3.60331,-2.47119 -5.45331,-3.73698 -5.54875,-3.79647 -10.12077,-7.69305 -9.6173,-8.19651 0.36097,-0.36099 3.067,1.31667 9.98094,6.18786 3.28547,2.31477 7.95,6.2757 7.95,6.75081 0,0.72927 -0.68707,0.4878 -2.86033,-1.00518 z M 79.66364,180.79598 c -0.7324,-0.88248 -1.02408,-3.98445 -0.6759,-7.188 0.67494,-6.21 3.28633,-12.77016 6.43548,-16.16679 1.36351,-1.47066 1.63222,-1.63721 2.20977,-1.36967 0.96539,0.4472 1.09876,1.1374 0.4019,2.07994 -1.2251,1.65704 -3.61025,6.76777 -4.66627,9.99856 -1.13703,3.47862 -1.27299,4.03632 -2.26724,9.3 -0.66662,3.52917 -0.8778,4.02066 -1.43774,3.34596 z M 95.28018,58.48596 c 0.0721,-0.21619 0.38439,-0.53772 0.69407,-0.71451 0.30968,-0.17678 1.24664,-0.99978 2.08214,-1.82889 1.25602,-1.24639 7.24856,-6.82345 7.88957,-7.34254 0.10187,-0.0825 -0.0938,0.255 -0.43487,0.75 -0.92142,1.33734 -8.20496,8.31214 -9.36132,8.96451 -0.6818,0.38464 -0.95887,0.43927 -0.86959,0.17143 z"
     style="fill:#000000;fill-opacity:1" />
</svg>
