<?xml version="1.0" encoding="UTF-8" standalone="no"?>
<!-- Created with Inkscape (http://www.inkscape.org/) -->

<svg
   xmlns:osb="http://www.openswatchbook.org/uri/2009/osb"
   xmlns:dc="http://purl.org/dc/elements/1.1/"
   xmlns:cc="http://creativecommons.org/ns#"
   xmlns:rdf="http://www.w3.org/1999/02/22-rdf-syntax-ns#"
   xmlns:svg="http://www.w3.org/2000/svg"
   xmlns="http://www.w3.org/2000/svg"
   xmlns:sodipodi="http://sodipodi.sourceforge.net/DTD/sodipodi-0.dtd"
   xmlns:inkscape="http://www.inkscape.org/namespaces/inkscape"
   id="svg2"
   version="1.1"
   inkscape:version="0.91 r13725"
   width="510.00873"
   height="728.02515"
   viewBox="0 0 510.00873 728.02515"
   sodipodi:docname="sans-character-silhouette2-blur.svg">
  <metadata
     id="metadata8">
    <rdf:RDF>
      <cc:Work
         rdf:about="">
        <dc:format>image/svg+xml</dc:format>
        <dc:type
           rdf:resource="http://purl.org/dc/dcmitype/StillImage" />
        <dc:title></dc:title>
      </cc:Work>
    </rdf:RDF>
  </metadata>
  <defs
     id="defs6">
    <linearGradient
       id="linearGradient4183"
       osb:paint="solid">
      <stop
         style="stop-color:#000000;stop-opacity:1;"
         offset="0"
         id="stop4185" />
    </linearGradient>
    <filter
       inkscape:collect="always"
       style="color-interpolation-filters:sRGB"
       id="filter4231"
       x="-0.051908966"
       width="1.1038179"
       y="-0.035267703"
       height="1.0705354">
      <feGaussianBlur
         inkscape:collect="always"
         stdDeviation="9.9933546"
         id="feGaussianBlur4233" />
    </filter>
  </defs>
  <sodipodi:namedview
     pagecolor="#ffffff"
     bordercolor="#666666"
     borderopacity="1"
     objecttolerance="10"
     gridtolerance="10"
     guidetolerance="10"
     inkscape:pageopacity="0"
     inkscape:pageshadow="2"
     inkscape:window-width="1280"
     inkscape:window-height="751"
     id="namedview4"
     showgrid="false"
     fit-margin-top="0"
     fit-margin-left="0"
     fit-margin-right="0"
     fit-margin-bottom="0"
     inkscape:zoom="0.5036278"
     inkscape:cx="72.348377"
     inkscape:cy="335.57797"
     inkscape:window-x="0"
     inkscape:window-y="29"
     inkscape:window-maximized="1"
     inkscape:current-layer="svg2" />
  <path
     style="fill:#000000;fill-opacity:1;fill-rule:evenodd;stroke:none;stroke-width:1px;stroke-linecap:butt;stroke-linejoin:miter;stroke-opacity:1;filter:url(#filter4231)"
     d="m 211.74588,23.98405 c -0.52881,0 -0.91877,0.268687 -1.26563,0.873047 -0.39927,0.69568 -0.86832,0.963665 -2.31054,1.322265 -2.63565,0.65534 -6.75896,1.336698 -10.35938,1.710938 -5.22456,0.54305 -8.50491,1.156254 -10.48047,1.958984 -1.0311,0.41898 -3.44953,1.214628 -5.37304,1.767578 -5.83119,1.67631 -7.41818,2.362328 -9.17774,3.960938 -0.88219,0.80151 -1.62935,1.65875 -1.66015,1.90625 -0.0173,0.138913 -0.0433,0.20209 -0.0723,0.226562 l -0.0332,0.01172 c -0.0292,-0.01391 -0.0614,-0.05896 -0.10157,-0.158203 -0.11558,-0.28588 -0.34471,-0.270557 -1.0039,0.07031 -0.46999,0.24305 -2.31574,1.062172 -4.10156,1.820312 -0.42183,0.179082 -0.77627,0.342437 -1.17774,0.519531 l -5.85742,2.06836 -2.00586,1.503906 c -2.45341,1.201361 -5.67852,3.052203 -9.05664,5.214844 -0.5775,0.36971 -1.59176,0.987957 -2.25586,1.373047 -3.27065,1.89657 -4.59719,2.73228 -5.74609,3.625 -3.18945,2.47827 -5.6031,4.572916 -7.92578,6.878906 -2.21672,2.20078 -2.738,2.939009 -4.3125,6.099609 -0.98524,1.97772 -2.50492,4.918647 -3.37696,6.535156 -0.87205,1.61651 -1.78567,3.439792 -2.03125,4.050782 l -0.26559,0.660158 -7.95313,12.498047 -1.42187,8.775391 c -0.96155,4.468462 -1.81021,9.616612 -2.28321,14.080082 l -0.50586,3.11914 0.1875,0.67187 c -0.12245,2.07245 -0.12372,3.80935 0.0449,4.95508 0.18216,1.2375 0.41348,3.53211 0.51368,5.09961 0.1002,1.5675 0.37353,3.51639 0.60742,4.33008 0.23389,0.8137 0.42473,2.56909 0.42383,3.90039 -0.001,2.3916 0.0225,2.46708 1.98632,6.33008 1.84886,3.63695 2.00502,4.09709 2.23438,6.59961 0.39411,4.29991 -0.13451,6.53912 -2.11914,8.99023 l -0.9707,1.20117 0.16015,3.38086 c 0.16007,3.35819 0.66341,5.40181 2.63867,10.71875 0.98865,2.66122 1.75823,4.68766 2.53516,6.74219 l -6.01758,3.00976 c 0.0532,-0.0779 0.11454,-0.18301 0.16406,-0.25 0.69686,-0.94254 0.56305,-1.63287 -0.40234,-2.08007 -0.57755,-0.26754 -0.84547,-0.10152 -2.20898,1.36914 -0.97131,1.04763 -1.88104,2.42036 -2.70899,3.96679 l -1.64453,1.13868 c -0.11111,-0.4346 -0.4667,-0.6922 -0.99414,-0.6543 -0.33,0.0237 -0.78367,0.0588 -1.00781,0.0762 -0.70789,0.0554 -2.9286,2.69216 -4.025394,4.75195 l -3.320313,2.29688 c -0.147312,0.0237 -0.319032,0.0447 -0.421875,0.0723 -0.39551,0.10599 -0.675781,0.0456 -0.675781,-0.14453 0,-0.60708 1.883079,-2.47105 2.943359,-2.91406 1.00618,-0.42042 1.029952,-0.46265 0.482422,-0.87695 -1.90606,-1.44231 -4.481705,0.42875 -6.578125,4.77929 -0.72006,1.4943 -1.532447,3.49982 -1.804687,4.45703 -0.42207,1.48402 -0.560157,1.68556 -0.941407,1.36915 -0.358859,-0.29788 -0.502119,-0.2871 -0.724609,0.0586 -0.46222,0.71814 -0.891427,2.57409 -1.179687,5.10156 -0.15048,1.3194 -0.337669,2.5049 -0.417969,2.63477 -0.08027,0.1299 -0.435423,1.30636 -0.789063,2.61523 -1.36261,5.04321 -0.993703,13.15393 0.748047,16.42969 0.3732,0.70191 0.834661,2.17231 1.025391,3.26758 l 0.347656,1.99023 -1.404297,2.56055 c -1.02935,1.87866 -1.909257,3.00817 -3.310547,4.24609 -2.10688,1.86123 -2.966256,3.26834 -3.404296,5.57813 -0.23741,1.25187 -0.668383,1.97918 -2.351563,3.9707 -4.58814,5.42865 -8.928002,12.73731 -14.007813,23.58789 -5.929879,12.66636 -7.078214,15.08982 -9.521484,20.09961 -2.40167,4.92447 -5.211889,10.03477 -7.943359,14.44336 -1.80245,2.90916 -5.153193,9.07431 -6.664063,12.26172 -0.74449,1.57062 -2.183959,4.4064 -3.199218,6.30078 -2.09685,3.91254 -5.731845,11.2474 -7.390625,14.91211 -0.72082,1.59249 -1.443096,2.70683 -2.035156,3.14453 -1.12563,0.83223 -2.06577,2.31059 -2.40625,3.78125 -0.41322,1.78488 0.51743,5.4359 2.15039,8.43945 0.7672,1.41108 2.374276,4.38969 3.572266,6.61719 2.92548,5.43957 9.192424,15.75633 11.115234,18.29883 0.43675,0.5775 1.551289,2.06328 2.474609,3.30078 0.92332,1.2375 2.259183,2.94716 2.970703,3.79883 0.71152,0.85167 3.672998,4.49628 6.580079,8.09961 6.89124,8.54175 12.791565,15.04715 18.884765,20.82422 4.48941,4.25652 10.132621,9.41255 11.962891,10.92773 l 0.724609,0.59961 -0.476562,-0.70312 c -0.26213,-0.38625 -2.040405,-2.36471 -3.953125,-4.39844 -1.91272,-2.03373 -3.478516,-3.79117 -3.478516,-3.9043 0,-0.21843 6.905596,6.08335 7.259766,6.625 0.11467,0.17538 1.451043,1.32171 2.970703,2.54883 1.51967,1.22712 3.316527,2.708 3.992187,3.29102 1.32604,1.14419 3.418402,2.71307 6.425782,4.81445 1.0441,0.72957 2.205738,1.59578 2.580078,1.92578 l 0.679687,0.59961 -0.35156,6.45117 c -0.193982,3.5475 -0.297771,7.39383 -0.230471,8.54883 0.09149,1.5714 -0.03532,2.58333 -0.501953,4.01562 -0.67348,2.06721 -0.787433,3.82113 -0.345703,5.36133 0.17208,0.6 0.17208,0.97461 0,0.97461 -0.15348,0 -0.277344,0.26191 -0.277344,0.58399 0,0.72981 2.057471,2.18528 4.242191,2.99804 4.73298,1.76253 14.67426,4.27659 21.93164,5.54688 0.61875,0.1083 1.125,0.26169 1.125,0.34179 0,0.08 -0.47919,0.56838 -1.06641,1.08399 -1.65115,1.44972 -2.30887,3.00882 -2.5664,6.09375 -0.12397,1.485 -0.36403,3.57789 -0.53321,4.65039 -1.42496,9.03354 -2.15936,16.78161 -2.87109,30.29883 -0.75183,14.27886 -0.85053,21.77592 -0.46485,35.10156 0.20302,7.0125 0.33156,14.84094 0.28516,17.39844 -0.0463,2.5575 -0.0793,8.79342 -0.0723,13.85742 l 0.0117,9.20703 0.80859,1.38086 c 0.89772,1.53186 2.63977,2.93621 4.31836,3.48242 0.60574,0.1971 1.52596,0.71046 2.04493,1.14063 3.11864,2.58489 7.86547,6.10839 9.60352,7.12695 3.32736,1.94997 9.18658,3.51251 14.58789,3.89063 1.6143,0.11301 2.99173,0.29494 3.06053,0.40624 0.0688,0.11134 0.1512,3.0278 0.18361,6.48047 0.0324,3.45267 0.16892,7.28985 0.30273,8.52735 0.13381,1.2375 0.3149,3.80367 0.4043,5.70117 0.0894,1.8975 0.23622,3.79178 0.32422,4.21094 0.14562,0.6936 0.0167,0.81382 -1.42578,1.32226 -2.77442,0.97794 -6.33336,2.82675 -8.08203,4.19922 -1.6133,1.26624 -3.4717,3.34864 -3.2168,3.60352 0.0657,0.0657 0.92744,-0.48959 1.91601,-1.23243 0.0949,-0.0713 0.21095,-0.14335 0.31055,-0.21484 l -3.00976,6.01758 c -2.65864,2.81793 -5.4316,6.77714 -7.45313,10.75 -1.7475,3.43428 -5.30449,11.19443 -6.73437,14.69336 -0.60687,1.485 -1.2748,2.80947 -1.48438,2.9414 -0.59841,0.37674 -0.4717,0.8663 0.95313,3.70313 2.28924,4.55787 7.81175,10.28819 13.71093,14.22266 1.54222,1.02858 3.35184,2.31054 4.02149,2.84961 0.83932,0.67563 1.67923,1.04373 2.70117,1.18359 0.81535,0.1116 2.49492,0.45277 3.73242,0.75781 1.2375,0.30504 2.99289,0.61922 3.90039,0.69922 0.9075,0.0799 2.42733,0.50422 3.37891,0.94336 2.35583,1.0872 6.5446,1.36734 9.28125,0.62109 2.34204,-0.63867 6.63369,-2.43316 8.05078,-3.36718 0.70958,-0.46767 1.70459,-0.75939 3,-0.87891 1.06608,-0.0983 3.15367,-0.59264 4.63867,-1.09766 2.07897,-0.70701 3.46018,-0.9615 6.00781,-1.10742 2.70401,-0.15486 3.51013,-0.31366 4.41211,-0.87109 2.56245,-1.5837 3.95448,-4.32905 6.71094,-13.24805 1.61967,-5.2407 1.91797,-6.36509 1.91797,-7.19336 0,-0.77391 0.44183,-2.07694 2.69336,-7.95703 1.87977,-4.90914 2.02658,-5.46066 2.24219,-8.40039 0.12033,-1.6404 0.62606,-4.23015 1.28906,-6.59961 1.17735,-4.20771 1.52905,-7.40516 0.98242,-8.9375 -0.18888,-0.52953 -0.80168,-2.77482 -1.36328,-4.98828 -1.03827,-4.09203 -3.1352,-8.93123 -4.04297,-9.33203 -1.87851,-0.82941 -1.76702,-0.65018 -3.6875,-5.8418 -1.51221,-4.08798 -1.90377,-5.86036 -2.30859,-10.41406 -0.15711,-1.76709 -0.37178,-3.55316 -0.47658,-3.9707 -0.17162,-0.68376 -0.0464,-0.82224 1.26563,-1.38477 0.80121,-0.34353 2.92385,-1.02413 4.7168,-1.51172 3.77541,-1.02669 4.0615,-1.15814 5.70898,-2.65625 2.22279,-2.02131 4.27144,-2.3286 5.78125,-0.86523 0.77334,0.74955 1.2473,0.95361 2.26367,0.97461 l 1.28711,0.0273 0.16602,-12.30078 c 0.15876,-11.77557 0.19937,-12.47229 0.96875,-16.34961 0.44199,-2.2275 1.07274,-5.53461 1.40235,-7.34961 0.32964,-1.815 0.93687,-5.12211 1.34765,-7.34961 0.41082,-2.2275 1.07146,-5.87211 1.46875,-8.09961 0.56103,-3.14538 1.23851,-5.45874 3.0332,-10.35156 1.27098,-3.465 2.58181,-7.1775 2.91406,-8.25 0.33228,-1.0725 1.14174,-3.33219 1.79884,-5.02344 1.13703,-2.92656 1.23737,-3.07617 2.07227,-3.07617 0.87549,0 0.87786,0.003 0.88086,1.875 0.002,1.03125 0.19012,2.4949 0.41992,3.25195 0.40986,1.35036 0.72027,2.17034 3.33594,8.82422 6.17595,15.71091 7.74654,20.84889 9.41601,30.80664 1.64427,9.80745 1.82422,11.22705 1.82422,14.37696 0,5.77805 1.02386,7.56557 5.5664,9.71679 1.52406,0.72174 2.82738,1.48026 2.89648,1.6875 0.0985,0.29556 0.81972,0.25811 3.33984,-0.17383 2.99116,-0.51274 3.3408,-0.51677 5.08009,-0.0723 1.02741,0.26259 3.85777,0.62484 6.29102,0.80664 2.6001,0.19425 6.0636,0.69389 8.40039,1.21094 2.18676,0.48384 4.34703,0.88176 4.80078,0.88476 0.13659,8.2e-4 0.23779,0.027 0.35156,0.0449 l 0,2.7793 c -0.10634,0.48884 -0.19896,1.05821 -0.26563,1.80078 -0.10217,1.13844 -0.44693,2.64226 -0.76562,3.3418 -0.47134,1.03467 -0.62971,2.38358 -0.84961,7.23047 -0.14867,3.27699 -0.24108,7.20617 -0.20508,8.73242 0.072,3.05394 0.0547,3.07776 -1.74415,2.32617 -1.76006,-0.73542 -3.76874,-0.58409 -5.3242,0.40234 -2.55673,1.62141 -4.47266,4.37758 -4.47266,6.4336 0,1.32327 1.63058,10.66618 2.26172,12.96289 0.27204,0.99 0.68932,2.60961 0.92773,3.59961 0.23838,0.99 0.56362,2.28812 0.72265,2.88476 0.159,0.59664 0.29193,1.54321 0.29492,2.10157 0.006,1.03236 0.64704,4.8354 1.18359,7.01367 0.16255,0.66 0.29875,1.81752 0.30274,2.57031 0.009,1.65555 1.3104,5.6151 2.85351,8.67969 1.15765,2.29902 9.02281,15.0146 11.49024,18.57617 2.38692,3.44541 4.03243,5.4174 5.03516,6.03711 0.53535,0.33087 1.73237,1.54262 2.6621,2.69336 2.00658,2.48346 3.18352,3.61874 3.52736,3.40625 0.13788,-0.0852 0.75333,0.23993 1.36914,0.72266 2.42901,1.90407 5.54315,3.39386 7.86914,3.76367 0.4125,0.0656 0.81789,0.13645 0.90039,0.15625 0.0825,0.0199 0.34795,-0.0892 0.58984,-0.24219 0.34971,-0.22116 0.25828,-0.34712 -0.44922,-0.61523 -2.48127,-0.94041 -6.46416,-3.29306 -7.31835,-4.32227 -0.71562,-0.86229 0.68536,-0.56203 1.90625,0.4082 2.2407,1.78068 7.37668,2.0876 12.6875,0.75782 1.71336,-0.429 3.27692,-0.71944 3.4746,-0.64454 0.19768,0.0748 -0.38351,0.49021 -1.29102,0.92383 -0.90699,0.43362 -1.31094,0.70437 -0.89844,0.60157 2.1927,-0.54648 11.84875,-5.8787 14.40821,-7.95704 4.23879,-3.44199 5.54946,-5.27159 5.85546,-8.17382 0.0673,-0.63801 0.25342,-1.92208 0.41407,-2.85157 0.9606,-5.55792 1.0736,-25.79154 0.16211,-28.99023 -0.23508,-0.825 -0.56518,-2.99581 -0.73438,-4.82422 -0.32988,-3.56469 -0.78531,-6.37046 -1.2207,-7.51562 -0.31125,-0.81874 -1.31979,-0.95191 -1.72461,-0.22852 -0.43887,0.7842 -2.2209,-0.34946 -3.46485,-2.20508 -1.11609,-1.66488 -1.03287,-1.8689 0.44727,-1.10351 1.27968,0.66177 1.3538,0.36942 0.19922,-0.78516 -2.12037,-2.12037 -5.40859,-2.98066 -11.48047,-3.00586 -2.48157,-0.0104 -5.52422,-0.1791 -6.76172,-0.375 l -2.25,-0.35547 0.0957,-2.40039 c 0.0524,-1.32 0.21539,-3.54867 0.36329,-4.95117 0.40062,-3.79941 1.0252,-15.28732 1.0332,-18.99805 0.006,-2.78739 -0.0701,-3.30598 -0.5332,-3.64453 -0.39678,-0.29007 -0.58751,-0.96772 -0.72071,-2.55664 l -0.18164,-2.16211 2.52149,0.17578 c 5.89587,0.41028 12.50502,0.53494 13.05273,0.2461 0.31293,-0.165 1.58086,-0.42911 2.81836,-0.58789 2.65758,-0.34095 4.88276,-1.52309 8.13281,-4.32032 3.93903,-3.39021 4.8056,-6.50561 4.8086,-17.28125 10e-4,-7.17474 -0.054,-7.95562 -0.99805,-14.23828 -0.60669,-4.03722 -0.60822,-4.13961 -0.0586,-5.25 0.39102,-0.78993 0.5433,-1.67608 0.5,-2.93164 -0.0341,-0.99 0.13569,-2.41325 0.3789,-3.16211 0.55475,-1.70802 0.54673,-7.29688 -0.0312,-20.53906 -0.42231,-9.67524 -0.48835,-10.94328 -1.04101,-19.94922 -0.70305,-11.45724 -1.94644,-27.4186 -2.23438,-28.67773 -0.36399,-1.59156 -1.03369,-7.11615 -0.89062,-7.34766 0.24537,-0.39696 3.10792,-1.17383 4.32421,-1.17383 0.59515,0 1.61785,-0.28725 2.27149,-0.63672 0.65364,-0.34944 1.65979,-0.72316 2.23633,-0.83008 0.70803,-0.13131 1.16267,-0.43614 1.40234,-0.93945 0.53439,-1.12224 1.10401,-12.1394 0.7168,-13.86719 -0.17269,-0.77037 -0.29489,-2.72161 -0.27149,-4.33789 0.0235,-1.61631 -0.17792,-5.77523 -0.44921,-9.24023 -0.27127,-3.465 -0.62481,-8.59344 -0.78516,-11.39844 -0.28212,-4.93611 -0.2715,-5.14072 0.35547,-6.34375 l 0.64843,-1.24219 -0.35742,-12.70703 c -0.19611,-6.98886 -0.54954,-15.47492 -0.78711,-18.85742 -0.69258,-9.86085 -0.89422,-22.08798 -0.49804,-30.30078 0.61275,-12.7017 1.8751,-32.78268 2.42383,-38.54883 0.15701,-1.65 0.49193,-6.84828 0.74414,-11.55078 0.60084,-11.20317 0.81556,-13.05888 3.3496,-29.09961 0.58647,-3.7125 1.13977,-7.26739 1.23047,-7.90039 0.0907,-0.633 0.33567,-1.21738 0.54298,-1.29688 0.36339,-0.13943 13.13947,1.23827 20.23633,2.18165 1.8975,0.25224 6.14922,0.97938 9.44922,1.61523 12.43629,2.39631 20.08698,3.19547 37.65039,3.93359 14.7195,0.6186 24.94435,0.0468 35.29688,-1.97461 5.10809,-0.99738 7.8856,-1.79023 9.96874,-2.84179 3.44664,-1.73985 6.90803,-5.18752 7.53126,-7.50196 0.16256,-0.60375 0.74366,-1.63001 1.29296,-2.28125 2.73411,-3.24147 4.6594,-7.98968 4.27735,-10.55273 -0.11737,-0.78726 -0.19708,-1.76914 -0.17578,-2.18164 0.16332,-3.18081 0.0649,-6.76335 -0.23047,-8.40039 -0.19353,-1.0725 -0.69518,-4.17594 -1.11524,-6.89844 -1.12539,-7.29393 -1.34203,-8.67906 -1.63867,-10.5 -0.14781,-0.9075 -0.35055,-2.39328 -0.45117,-3.30078 -0.10065,-0.9075 -0.30201,-2.2575 -0.44727,-3 -0.14529,-0.7425 -0.41444,-2.36211 -0.59765,-3.59961 -0.97239,-6.5685 -3.28439,-19.66482 -4.21094,-23.84961 -0.3288,-1.485 -0.9388,-4.79406 -1.35547,-7.35156 -0.41664,-2.5575 -1.04094,-6.38664 -1.38672,-8.50977 -0.34575,-2.12313 -1.42433,-6.91602 -2.39648,-10.65039 -0.97212,-3.73437 -3.10391,-12.05328 -4.73828,-18.48828 -4.30194,-16.93796 -6.06177,-22.28487 -8.30274,-25.2207 -0.90814,-1.18978 -0.98638,-1.46428 -0.95508,-3.33789 0.0526,-3.15218 -1.42881,-5.46185 -4.12695,-6.4375 -0.93363,-0.33761 -1.21831,-0.71683 -2.37109,-3.15039 -1.07343,-2.26603 -1.7371,-3.1947 -3.66407,-5.12696 -2.90291,-2.91094 -5.54914,-5.03567 -11.35351,-9.119137 -11.66592,-8.20717 -11.96622,-8.370007 -14.32422,-7.742187 -0.70125,0.18671 -1.49273,0.533221 -1.75781,0.769531 -0.41877,0.37327 -0.52915,0.370505 -0.84961,-0.01563 -0.20301,-0.24443 -0.29849,-0.556803 -0.21289,-0.695313 0.13773,-0.22285 0.93806,-3.049258 1.7207,-6.074218 0.73347,-2.83489 1.17459,-5.407891 1.1836,-6.900391 0.006,-0.9973 0.24145,-2.124289 0.59179,-2.849609 0.78108,-1.6168 0.76955,-2.963068 -0.0273,-3.492188 -0.55914,-0.37126 -0.58543,-0.50521 -0.2461,-1.25 0.33549,-0.73626 0.30739,-0.905515 -0.24023,-1.453125 -0.87912,-0.87913 -3.41471,-0.54659 -4.28711,0.5625 -0.71541,0.9095 -2.86479,1.480276 -6.59961,1.753906 l -2.55078,0.1875 -1.79883,-1.183593 c -0.99,-0.65076 -2.52898,-1.957157 -3.41797,-2.904297 l -1.61523,-1.722656 0.16992,-2.248047 c 0.10638,-1.40664 0.0334,-2.657807 -0.19336,-3.347657 -0.19926,-0.60614 -0.35851,-1.296906 -0.35351,-1.535156 0.005,-0.23825 -0.39563,-0.667315 -0.89063,-0.953125 -1.22931,-0.70979 -4.56379,-0.753985 -10.33789,-0.134765 -4.25974,0.456819 -5.9676,0.769531 -4.20117,0.769531 0.42801,0 0.59519,0.107748 0.42383,0.267578 -0.15675,0.14619 -2.23291,0.405305 -4.61524,0.578125 -3.91896,0.28431 -4.36681,0.268306 -4.69726,-0.183594 -0.34026,-0.46527 -0.46443,-0.463816 -1.81836,0.02148 -0.79929,0.286501 -1.75308,0.520432 -2.11914,0.519532 -0.45615,-10e-4 -0.61352,0.133837 -0.5,0.429687 0.11742,0.30599 -0.18973,0.526856 -1.05469,0.759766 -1.46628,0.39482 -2.56155,1.296367 -3.26172,2.685547 -0.82692,1.64064 -1.91249,1.873495 -9.96875,2.134765 -9.34506,0.30308 -13.95084,0.916793 -16.65039,2.220703 -1.44552,0.6982 -1.80942,0.731857 -10.04883,0.904297 -4.7025,0.09842 -11.24241,0.04583 -14.5332,-0.117187 -3.67296,-0.18198 -6.11286,-0.190081 -6.31836,-0.01953 -0.19989,0.1659 -3.80051,0.203606 -8.9375,0.0918 l -8.60156,-0.1875 -0.5293,-0.953126 c -0.29127,-0.52455 -1.12448,-2.090615 -1.84961,-3.478515 -1.19553,-2.28823 -1.92169,-3.123866 -7.80469,-8.972656 -4.47756,-4.45152 -7.09007,-6.810272 -8.43164,-7.613282 -1.86678,-1.11738 -3.18374,-1.892813 -7.26953,-4.283203 -3.00216,-1.75643 -10.70082,-5.912215 -12.82422,-6.921875 -7.45314,-3.54392 -13.08609,-5.445315 -21.15039,-7.140625 -0.99,-0.20812 -2.81328,-0.601187 -4.05078,-0.873047 -4.28208,-0.94069 -5.67402,-1.017997 -10.61328,-0.591797 -2.62026,0.22606 -4.8819,0.3387 -5.02539,0.25 -0.14349,-0.08867 -0.26172,-0.35599 -0.26172,-0.59375 -8e-5,-0.691205 -1.13131,-1.632787 -1.96297,-1.632787 z m -65.66797,27.314453 c 0.15962,-0.02336 0.19876,0.03624 0.13281,0.164063 l -4.89258,3.669922 c -0.12422,-0.02495 -0.0937,-0.203574 0.0879,-0.542969 0.30154,-0.56345 3.37471,-2.821963 4.34765,-3.195313 0.13776,-0.05286 0.24536,-0.08416 0.32422,-0.0957 z m 221.00977,38.625 c 0.1254,2.3e-4 1.18291,0.09573 2.3496,0.212891 2.11023,0.21193 2.1205,0.217849 1.91407,1.005859 -0.30753,1.17384 -0.16722,4.599831 0.20703,5.050781 0.44157,0.53202 -0.19408,0.499899 -1.52149,-0.07617 -0.93273,-0.404799 -3.64004,-2.634609 -3.87695,-3.193359 -0.0545,-0.12857 0.12363,-0.455662 0.39453,-0.726562 0.29448,-0.29449 0.45434,-0.850233 0.39844,-1.382813 -0.0514,-0.48988 0.009,-0.890855 0.13477,-0.890625 z m -23.14454,4.953125 c 0.20726,0.0046 0.36973,0.01909 0.47266,0.04492 0.41175,0.10334 2.39086,1.835419 4.39648,3.849609 2.81482,2.826803 3.91024,4.166413 4.80274,5.867183 1.19262,2.27261 2.17642,3.04493 3.87109,3.04493 0.38292,0 1.2034,0.25966 1.82422,0.57617 2.67951,1.3661 9.31541,1.56577 15.04883,0.45312 3.25104,-0.63092 7.7715,-0.6079 8.77344,0.0449 0.51615,0.3363 0.67578,0.72494 0.67578,1.65235 0,0.66704 0.15409,1.50874 0.3418,1.86914 0.37503,0.72008 2.60497,3.32407 4.33789,5.0664 1.09584,1.1018 1.10013,1.12146 0.58593,1.90625 -0.51852,0.79133 -0.51761,0.79379 0.83008,2.04883 0.74211,0.69108 2.07203,1.58751 2.95313,1.99219 1.78518,0.8199 2.03987,1.06517 2.04687,1.96289 0.0184,2.48719 1.89151,5.45137 4.35742,6.89649 0.8403,0.49244 1.53024,1.24421 2.09571,2.2832 0.46374,0.85202 1.27617,2.03178 1.80468,2.62305 0.9258,1.0358 0.96653,1.19548 1.13672,4.375 0.21879,4.08734 0.76862,5.72707 2.59571,7.73633 1.81914,2.0005 1.90662,2.1787 2.8164,5.77929 0.70809,2.80237 0.74917,3.36057 0.60156,7.94922 -0.15314,4.76075 -0.11559,5.18621 1.04688,11.98633 1.30488,7.63331 1.40458,9.0958 1.71289,25.08594 0.15249,7.90803 0.12194,8.75529 -0.32227,8.92578 -0.88428,0.3393 -1.82287,0.20303 -7.99414,-1.15039 -7.479,-1.64025 -9.27696,-2.02387 -14.04687,-3.00586 -4.24002,-0.87291 -10.1091,-2.22753 -14.55078,-3.35742 -1.65,-0.41973 -4.60435,-1.16052 -6.56445,-1.64649 -1.96011,-0.486 -4.45644,-1.33092 -5.54883,-1.87695 -1.09239,-0.54603 -2.52555,-1.16509 -3.18555,-1.37695 -1.95084,-0.62622 -7.62799,-3.52653 -10.01953,-5.11914 -1.2207,-0.81291 -2.33601,-1.47852 -2.47656,-1.47852 -0.46374,0 -0.26451,0.69864 0.39843,1.4043 0.35877,0.3819 0.48812,0.69531 0.28907,0.69531 -0.80508,0 -2.41054,-0.94679 -4.54297,-2.67773 -3.65415,-2.9661 -6.85596,-3.72004 -10.27149,-2.42188 -2.36976,0.90069 -2.92773,0.73523 -2.92773,-0.86719 0,-0.77592 -0.64776,-1.47581 -1.57422,-1.69922 -0.7843,-0.18914 -0.82617,-0.14634 -0.82617,0.88282 0,0.79104 -0.12875,1.08398 -0.47852,1.08398 -0.41565,0 -0.46818,-0.4638 -0.39648,-3.52539 0.12303,-5.25551 -0.94305,-9.31071 -2.53125,-9.62305 -0.44381,-0.0873 -0.49417,0.50001 -0.50977,5.85157 -0.005,1.74612 -0.048,3.70441 -0.10742,5.49609 l -3.30469,-7.625 c -0.39019,-3.74101 -1.00896,-7.97979 -1.35742,-8.42578 -0.12894,-0.165 -0.40436,-1.04172 -0.61328,-1.94922 -1.14615,-4.97875 -2.05544,-6.60083 -3.10742,-5.54883 -0.54777,0.54776 -0.78968,0.57006 -0.80078,0.0742 -0.0142,-0.63868 -4.01963,-8.42737 -4.39649,-8.54883 -0.20365,-0.0656 -0.45369,0.37267 -0.65234,0.99805 l -9.31836,-4.13867 c -0.56772,-0.86762 -1.29458,-2.26252 -1.67773,-3.24024 -0.66073,-1.68599 -0.71001,-2.08796 -0.44922,-3.57226 0.55515,-3.15943 1.1516,-5.8753 1.47656,-6.71875 0.17898,-0.46449 0.33089,-1.67871 0.33789,-2.69922 0.007,-1.02051 0.1975,-2.32875 0.42187,-2.90625 1.0614,-2.73216 2.03283,-5.02444 2.45508,-5.79102 0.44784,-0.81306 1.08476,-3.80918 1.60547,-7.5586 0.82446,-5.93643 1.29958,-8.45252 1.67188,-8.86523 0.32616,-0.36153 0.43885,-1.84884 0.50195,-6.60156 l 0.0801,-6.132814 1.95117,-0.234375 c 1.0725,-0.129 8.10777,-0.08328 15.63477,0.101563 10.40433,0.255499 14.24257,0.251654 16.00585,-0.01563 0.95673,-0.145035 1.97198,-0.222804 2.59375,-0.208984 z m -15.5371,94.408202 c 0.22138,0 0.17861,1.09417 -0.0977,3.10156 l -0.4082,-0.94531 c 0.19861,-1.16767 0.40441,-2.15625 0.50586,-2.15625 z m -240.236334,45 c 0.07675,0 0.140625,0.26961 0.140625,0.59961 0,0.33945 -0.200388,0.59961 -0.460938,0.59961 -0.3676,0 -0.396915,-0.12072 -0.140625,-0.59961 0.17661,-0.33 0.384238,-0.59961 0.460938,-0.59961 z m 19.541014,109.34961 c 0.11455,0 0.2552,0.87672 0.3125,1.94922 0.0573,1.0725 0.21817,3.50873 0.35742,5.41406 0.15032,2.05713 0.1389,4.06887 -0.0273,4.95117 -0.15398,0.81717 -0.42837,4.69063 -0.60937,8.60938 -0.25853,5.59719 -0.41614,7.125 -0.73242,7.125 -0.50085,0 -0.49995,-0.009 0.0644,1.3418 0.5069,1.21314 0.46665,1.9785 -0.0684,1.3164 -0.51857,-0.64176 -2.68089,-5.06716 -3.81641,-7.81054 -1.52231,-3.67788 -3.781251,-10.4085 -3.781251,-11.26563 0,-0.40965 0.37919,-1.23663 0.843751,-1.83789 0.46456,-0.60124 1.75234,-2.37586 2.86133,-3.94336 2.49283,-3.5235 4.32103,-5.84961 4.5957,-5.84961 z m 14.06055,207.80859 c 0.0159,0.0202 0.0329,0.0766 0.0508,0.16993 0.0718,0.37317 0.0692,0.91238 -0.006,1.19921 -0.0751,0.28681 -0.13386,-0.0177 -0.13086,-0.67773 0.003,-0.495 0.0382,-0.75191 0.0859,-0.69141 z m 0.82226,21.05469 c 0.0315,-0.0315 0.0732,0.0112 0.1211,0.13086 0.0866,0.21657 0.0763,0.47452 -0.0234,0.57422 -0.0997,0.0997 -0.1712,-0.0783 -0.1582,-0.39453 0.007,-0.17475 0.029,-0.27901 0.0606,-0.31055 z m 0.0781,5.65625 c 0.0155,0.0121 0.031,0.0615 0.0488,0.1543 0.0715,0.37125 0.0715,0.98031 0,1.35156 -0.0715,0.37125 -0.1289,0.0667 -0.1289,-0.67578 0,-0.55688 0.0335,-0.86646 0.0801,-0.83008 z m 79.9668,50.70313 c 0.4572,-0.0943 0.9853,0.85546 2.51953,4.52734 0.53574,1.28223 0.16958,1.44498 -0.88477,0.39063 -1.56052,-1.56054 -2.60964,-4.71688 -1.63476,-4.91797 z m -46.89649,3.56836 0.0625,0.79882 c -0.20737,-0.0198 -0.29492,-0.11388 -0.29492,-0.32031 0,-0.16877 0.0967,-0.34779 0.23242,-0.47851 z m -2.16211,3.93945 -9.21289,4.33594 c 2.34598,-1.59536 5.75712,-3.19189 9.21289,-4.33594 z m -27.16992,38.91992 c 0.46667,0 0.59961,0.19845 0.59961,0.89844 0,1.02414 -0.429,1.17921 -0.88867,0.32031 -0.46321,-0.86553 -0.37955,-1.21875 0.28906,-1.21875 z m 207.17188,17.26758 c 0.0831,0.0114 0.12695,0.0547 0.12695,0.13476 0,0.15634 -0.53922,0.55977 -1.19922,0.89649 -1.28136,0.6537 -1.64928,0.44181 -0.52539,-0.30273 0.75458,-0.49987 1.34831,-0.76283 1.59766,-0.72852 z m -19.68946,5.33984 c 0.92788,-0.0384 1.74503,0.0195 2.24219,0.1836 1.35325,0.44661 1.38686,0.9082 0.0664,0.9082 -0.55449,0 -1.59996,0.0523 -2.32422,0.11523 -2.58105,0.22389 -4.72174,-0.37617 -2.89258,-0.81054 0.94149,-0.22356 1.98033,-0.35812 2.9082,-0.39649 z"
     id="path4143"
     inkscape:connector-curvature="0" />
</svg>
