<?xml version="1.0" encoding="UTF-8" standalone="no"?>
<!-- Created with Inkscape (http://www.inkscape.org/) -->

<svg
   xmlns:dc="http://purl.org/dc/elements/1.1/"
   xmlns:cc="http://creativecommons.org/ns#"
   xmlns:rdf="http://www.w3.org/1999/02/22-rdf-syntax-ns#"
   xmlns:svg="http://www.w3.org/2000/svg"
   xmlns="http://www.w3.org/2000/svg"
   xmlns:sodipodi="http://sodipodi.sourceforge.net/DTD/sodipodi-0.dtd"
   xmlns:inkscape="http://www.inkscape.org/namespaces/inkscape"
   id="svg2"
   version="1.1"
   inkscape:version="0.91 r13725"
   xml:space="preserve"
   width="780"
   height="780"
   viewBox="0 0 780 780"
   sodipodi:docname="sans.svg"><metadata
     id="metadata8"><rdf:RDF><cc:Work
         rdf:about=""><dc:format>image/svg+xml</dc:format><dc:type
           rdf:resource="http://purl.org/dc/dcmitype/StillImage" /><dc:title></dc:title></cc:Work></rdf:RDF></metadata><defs
     id="defs6" /><sodipodi:namedview
     pagecolor="#ffffff"
     bordercolor="#666666"
     borderopacity="1"
     objecttolerance="10"
     gridtolerance="10"
     guidetolerance="10"
     inkscape:pageopacity="0"
     inkscape:pageshadow="2"
     inkscape:window-width="713"
     inkscape:window-height="480"
     id="namedview4"
     showgrid="false"
     inkscape:zoom="0.3025641"
     inkscape:cx="-74.364407"
     inkscape:cy="390"
     inkscape:window-x="0"
     inkscape:window-y="29"
     inkscape:window-maximized="0"
     inkscape:current-layer="g10" /><g
     id="g10"
     inkscape:groupmode="layer"
     inkscape:label="sans"
     transform="matrix(1.25,0,0,-1.25,0,780)"><g
       id="g12"><path
         d="m 350.281,19.328 c -0.926,0.176 -3.246,0.387 -5.16,0.473 -1.914,0.086 -4.508,0.355 -5.762,0.597 -3.718,0.719 -4.683,0.805 -9.839,0.864 -2.708,0.031 -8.375,0.14 -12.598,0.242 -9.078,0.215 -13.172,0.234 -16.922,0.086 -4.426,-0.176 -11.898,0.39 -14.109,1.074 -2.832,0.875 -4.84,1.133 -9.321,1.207 -3.976,0.067 -4.199,0.098 -6.722,0.922 -1.434,0.473 -3.852,1.086 -5.368,1.367 -1.519,0.281 -4.542,1.094 -6.718,1.801 -2.18,0.707 -4.824,1.41 -5.883,1.566 -2.434,0.352 -3.59,0.7 -3.305,0.985 0.289,0.289 19.258,-0.965 25.985,-1.719 1.125,-0.125 3.445,-0.231 5.16,-0.234 1.719,-0.004 4.66,-0.11 6.539,-0.239 4.148,-0.285 17.512,-0.351 20.808,-0.105 3.2,0.238 3.368,0.406 3.555,3.476 0.188,3.079 1.422,8.875 2.606,12.231 0.535,1.516 1.179,3.336 1.429,4.043 0.25,0.707 0.66,1.625 0.91,2.039 0.754,1.254 1.528,3.801 1.539,5.074 0.012,0.926 -0.218,1.695 -0.992,3.352 -0.769,1.64 -1.148,2.914 -1.613,5.398 -0.332,1.789 -0.832,4.387 -1.113,5.774 -0.532,2.625 -0.77,4.566 -1.032,8.398 -0.125,1.805 -0.035,3.078 0.426,6.121 0.703,4.625 1.703,7.383 3.34,9.203 0.996,1.11 1.836,2.797 1.543,3.094 -0.285,0.285 -2.613,0.039 -3.937,-0.418 -3.997,-1.371 -15.704,-1.805 -23.329,-0.859 -8.324,1.035 -10.785,1.402 -12.464,1.867 -1,0.273 -2.895,0.687 -4.215,0.918 -1.438,0.254 -3.215,0.773 -4.438,1.304 -2.133,0.918 -5.355,2.055 -7.203,2.536 -0.594,0.152 -2.816,1.132 -4.941,2.175 -2.125,1.043 -3.985,1.899 -4.129,1.899 -0.567,0 -4.578,1.754 -6.168,2.699 -2.18,1.297 -3.594,1.977 -6.238,3 -2.481,0.957 -4.622,2.004 -6,2.93 -1.133,0.758 -3.161,1.758 -6.493,3.203 -1.324,0.574 -3.191,1.558 -4.152,2.183 -0.961,0.625 -3.402,1.942 -5.43,2.922 -2.027,0.977 -4.156,2.133 -4.726,2.567 -1.547,1.176 -4.559,2.867 -7.403,4.168 -1.382,0.633 -3.812,2.004 -5.398,3.05 -3.609,2.383 -3.883,2.598 -4.715,3.727 -0.449,0.613 -1.058,1.066 -1.82,1.356 -0.629,0.238 -1.738,0.832 -2.465,1.32 -0.727,0.488 -2.398,1.523 -3.715,2.301 -1.32,0.777 -3.558,2.316 -4.973,3.414 -3.64,2.832 -12.882,11.941 -16.363,16.132 -6.011,7.239 -8.375,10.126 -9.82,11.997 -1.543,2 -1.813,2.363 -3.395,4.558 -0.523,0.723 -2.683,3.617 -4.8,6.43 -2.122,2.816 -4.45,5.957 -5.172,6.98 -3.684,5.188 -4.434,6.203 -5.117,6.922 -1.258,1.328 -1.7,0.879 -1.344,-1.367 0.418,-2.652 0.515,-12.477 0.152,-15.809 -0.508,-4.722 -1.109,-4.984 -3.906,-1.707 -1.961,2.293 -2.692,3.426 -3.465,5.383 -0.316,0.793 -1.312,3.063 -2.215,5.039 -0.906,1.981 -1.922,4.305 -2.258,5.16 -0.336,0.86 -0.996,2.536 -1.464,3.723 -0.469,1.188 -1.422,3.238 -2.118,4.559 -0.699,1.32 -1.492,3.156 -1.761,4.082 -0.571,1.933 -1.571,7.773 -1.934,11.277 -0.539,5.242 -0.762,6.801 -1.242,8.699 -0.43,1.684 -0.465,2.188 -0.25,3.41 0.14,0.79 0.195,2.168 0.121,3.063 -0.176,2.152 0.269,5.207 0.953,6.547 0.731,1.422 2.121,2.383 3.477,2.394 2.015,0.016 3.488,-1.324 4.722,-4.297 0.457,-1.101 1.024,-2.218 1.258,-2.48 0.75,-0.844 2.008,-1.176 5.219,-1.391 3.84,-0.257 4.773,-0.531 8.015,-2.336 1.407,-0.785 3.583,-1.828 4.836,-2.32 2.196,-0.863 9.036,-3.766 11.758,-4.996 1.821,-0.82 7.328,-3.227 8.641,-3.773 2.695,-1.125 5.219,-2.207 5.879,-2.52 0.398,-0.187 1.152,-0.5 1.679,-0.691 1.786,-0.641 6.946,-2.723 9.528,-3.84 1.41,-0.61 2.676,-1.11 2.812,-1.11 0.137,0 0.871,-0.281 1.637,-0.625 2.41,-1.089 4.691,-1.601 12.664,-2.835 11.961,-1.86 20.547,-2.774 26.055,-2.782 1.64,0 4.769,-0.16 6.945,-0.351 2.18,-0.188 5.957,-0.516 8.402,-0.723 6.18,-0.527 13.786,-1.309 15.098,-1.555 0.606,-0.113 2.125,-0.277 3.383,-0.363 2.941,-0.199 10.82,-1.066 11.062,-1.219 0.102,-0.062 1.082,-0.226 2.18,-0.363 1.098,-0.137 2.684,-0.457 3.52,-0.715 2.062,-0.633 2.449,-0.597 4.421,0.371 0.938,0.465 2.055,0.84 2.485,0.84 1.133,0 1.957,0.375 3.504,1.586 1.679,1.316 2.949,1.895 4.984,2.258 2.555,0.457 4.098,0.855 5.984,1.543 1.516,0.551 2.465,0.691 6.438,0.957 4.129,0.277 4.719,0.367 5.152,0.801 0.43,0.433 0.512,0.937 0.684,4.293 0.18,3.453 0.508,6.433 1.516,13.765 0.191,1.383 0.472,3.793 0.625,5.348 0.152,1.555 0.472,3.984 0.714,5.398 0.243,1.414 0.516,4.356 0.606,6.532 0.164,3.882 0.648,6.824 1.433,8.707 0.192,0.449 0.286,1.043 0.215,1.32 -0.16,0.602 -1.707,0.125 17.676,5.465 l 14.52,4 7.8,4.254 c 6.922,3.773 7.797,4.316 7.797,4.832 0,0.32 0.137,0.668 0.301,0.773 0.395,0.254 0.379,1.035 -0.074,3.387 -1.195,6.226 -3.414,14.723 -4.61,17.664 -0.347,0.855 -1.218,2.641 -1.933,3.961 -1.113,2.051 -2.188,3.793 -6.281,10.187 -0.332,0.516 -1.2,1.836 -1.934,2.934 -1.418,2.129 -1.711,2.594 -3.496,5.598 -2.375,3.988 -5.316,9.886 -7.656,15.359 -1.016,2.375 -2.481,5.637 -3.25,7.242 l -1.399,2.926 -1.453,12.633 1.418,17.402 c 0.777,9.57 1.543,17.723 1.699,18.117 0.606,1.532 1.145,14.332 2.168,51.121 0.321,11.625 0.137,52.09 -0.254,55.438 -0.14,1.187 -1.117,10.152 -2.175,19.922 l -1.922,17.758 -3.981,16.203 -3.98,16.199 -8.625,17.367 c -4.746,9.551 -8.567,17.426 -8.492,17.5 0.07,0.07 20.515,-2.047 45.429,-4.707 l 45.301,-4.836 38.16,-8.613 38.16,-8.61 25.907,-15.839 25.902,-15.84 16.359,-16.832 c 15.34,-15.789 18.145,-18.512 19.094,-18.512 0.215,0 4.27,-4.879 9.348,-11.258 l 8.965,-11.258 10.609,-23.203 1.379,-7.32 c 0.758,-4.027 1.703,-9.047 2.101,-11.16 0.399,-2.113 1.09,-5.567 1.536,-7.68 1.82,-8.594 1.711,-6.047 1.136,-26.441 l -0.511,-18.199 -2.618,-16.918 -2.617,-16.922 -3.629,-9.282 c -1.992,-5.105 -3.816,-9.589 -4.05,-9.964 -0.239,-0.379 -2.821,-4.141 -5.739,-8.36 l -5.312,-7.676 -0.625,-2.398 c -0.344,-1.32 -0.848,-3.211 -1.117,-4.199 -0.411,-1.5 -0.481,-2.375 -0.426,-5.219 0.051,-2.562 -0.004,-3.445 -0.231,-3.531 -0.433,-0.168 -0.375,-0.758 0.305,-3.028 0.883,-2.953 2.441,-5.972 4.715,-9.125 1.098,-1.527 2.285,-3.418 2.633,-4.199 1.117,-2.511 2.582,-7.371 2.746,-9.097 0.211,-2.188 1.011,-4.942 2.363,-8.11 1.406,-3.293 1.563,-4.027 1.582,-7.492 0.008,-1.586 0.109,-3.637 0.227,-4.559 0.113,-0.925 0.343,-2.812 0.507,-4.191 0.278,-2.32 0.356,-2.559 1.043,-3.188 0.727,-0.667 0.739,-0.707 0.672,-2.753 -0.035,-1.141 -0.215,-2.676 -0.398,-3.414 -0.184,-0.735 -0.406,-2.036 -0.496,-2.895 -0.09,-0.859 -0.422,-2.785 -0.739,-4.277 -0.32,-1.496 -0.582,-3.118 -0.582,-3.602 0,-0.484 -0.203,-1.746 -0.453,-2.801 -0.246,-1.054 -0.519,-2.515 -0.609,-3.242 -0.25,-2.027 -1.984,-11.105 -2.645,-13.824 -0.324,-1.336 -0.918,-4.035 -1.316,-6 -0.402,-1.965 -1,-4.547 -1.332,-5.734 -0.328,-1.188 -0.82,-3.079 -1.086,-4.2 -1.746,-7.336 -3.055,-11.035 -5.086,-14.379 -1.668,-2.742 -2.246,-3.89 -3.539,-7.011 -0.359,-0.879 -1.195,-2.496 -1.852,-3.602 -1.718,-2.89 -2.48,-4.441 -2.484,-5.062 -0.004,-0.75 -1.566,-4.164 -3.152,-6.907 -0.731,-1.254 -1.559,-2.902 -1.84,-3.66 -0.863,-2.304 -1.856,-4.086 -4.359,-7.816 -1.313,-1.961 -3.149,-5.067 -4.075,-6.903 -0.925,-1.839 -2.5,-4.582 -3.492,-6.101 -0.996,-1.516 -2.293,-3.621 -2.887,-4.68 -0.597,-1.054 -1.347,-2.351 -1.671,-2.879 -0.325,-0.527 -0.922,-1.554 -1.329,-2.281 -0.41,-0.727 -0.976,-1.715 -1.265,-2.195 -0.289,-0.485 -1.227,-2.051 -2.086,-3.481 -0.86,-1.433 -1.629,-2.773 -1.719,-2.984 -0.336,-0.813 -2.031,-3.305 -3.469,-5.102 -1.675,-2.089 -2.527,-3.382 -4.722,-7.164 -0.821,-1.41 -2.95,-4.465 -4.731,-6.789 -5.074,-6.617 -5.41,-7.074 -6.875,-9.363 -1.758,-2.746 -3.047,-4.516 -4.289,-5.883 -1.109,-1.219 -2.992,-3.969 -4.183,-6.117 -0.801,-1.438 -3.567,-4.852 -5.086,-6.273 -0.446,-0.418 -2.102,-1.622 -3.688,-2.68 -1.582,-1.055 -3.375,-2.36 -3.984,-2.895 -0.61,-0.539 -2.016,-1.57 -3.121,-2.297 -3.77,-2.476 -3.852,-2.543 -4.258,-3.531 -0.387,-0.953 -0.524,-1.031 -7.836,-4.695 -4.473,-2.242 -7.828,-4.074 -8.414,-4.598 -0.539,-0.48 -1.297,-1.058 -1.684,-1.285 -1.304,-0.769 -1.629,-1.023 -3.082,-2.434 -0.797,-0.773 -1.918,-1.73 -2.492,-2.121 -1.711,-1.179 -5.328,-2.781 -7.496,-3.32 -1.117,-0.277 -2.895,-0.719 -3.949,-0.98 -1.059,-0.262 -3.434,-1.059 -5.282,-1.77 -1.847,-0.711 -4.601,-1.578 -6.121,-1.926 -1.515,-0.351 -4.218,-1.211 -6,-1.918 -1.781,-0.703 -4.05,-1.449 -5.039,-1.656 -0.992,-0.203 -2.609,-0.543 -3.601,-0.75 -0.989,-0.207 -4.09,-1.023 -6.891,-1.816 -2.801,-0.789 -6.008,-1.539 -7.133,-1.668 -2.425,-0.274 -4.945,-0.868 -8.054,-1.891 -1.254,-0.41 -3.254,-0.852 -4.446,-0.977 -2.058,-0.214 -5.898,-1.085 -7.441,-1.691 -1.578,-0.617 -3.945,-1.164 -6.016,-1.394 -2.422,-0.27 -4.203,-0.684 -7.418,-1.731 -1.187,-0.387 -3.562,-0.914 -5.281,-1.176 -3.082,-0.468 -5.809,-1.136 -6.801,-1.668 -1.011,-0.539 -4.035,-1.468 -6.008,-1.84 -1.105,-0.21 -3.261,-0.75 -4.796,-1.199 -3.012,-0.886 -3.602,-0.929 -6.153,-0.453 z m -57.961,86.438 c 0.887,0.429 1.633,0.621 2.282,0.582 0.527,-0.036 3.117,0.175 5.757,0.461 4.262,0.464 6.313,0.531 18.243,0.586 11.445,0.046 13.652,0.113 14.878,0.441 0.793,0.215 2.575,0.566 3.961,0.785 1.383,0.219 2.758,0.488 3.051,0.602 0.781,0.293 0.883,1.14 0.324,2.64 -1.902,5.082 -3.144,13.387 -3.281,21.922 -0.07,4.438 -0.172,6.039 -0.394,6.192 -0.336,0.234 -1.692,0.148 -6.422,-0.403 -9.344,-1.086 -21.039,-2.047 -29.711,-2.441 -4.567,-0.207 -4.371,-0.031 -4.629,-4.188 -0.336,-5.394 -1.149,-13.89 -1.563,-16.304 -0.211,-1.254 -0.464,-3.739 -0.558,-5.52 -0.231,-4.328 -0.57,-5.035 -1.465,-3.062 -0.309,0.679 -0.465,1.562 -0.469,2.636 -0.004,1.239 -0.25,2.387 -1.062,4.918 -1.379,4.325 -2.45,10.903 -2.75,16.914 -0.235,4.774 0.16,4.45 -6.41,5.258 -5.758,0.711 -9.715,1.34 -10.653,1.695 -2.66,1.012 -11.687,3.071 -13.492,3.079 -1.344,0.003 -1.301,0.484 -1.359,-14.43 -0.067,-15.762 -0.196,-14.758 2.121,-16.359 3.097,-2.141 4.101,-2.418 14.043,-3.883 3.168,-0.465 6.621,-1.075 7.679,-1.352 2.989,-0.785 6.536,-1.355 8.637,-1.383 1.625,-0.023 2.125,0.071 3.242,0.614 z m 56.758,4.73 c 2.113,0.316 4.531,0.758 5.375,0.977 1.879,0.488 6.176,2.152 8.781,3.402 0.391,0.187 1.633,0.73 2.758,1.203 1.129,0.473 3.02,1.289 4.207,1.813 2.106,0.925 9.235,3.851 12.84,5.269 2.387,0.942 5.668,2.602 7.383,3.742 1.594,1.059 2.68,1.93 8.414,6.758 2.285,1.926 4.777,3.985 5.535,4.578 1.945,1.528 3.672,2.996 8.047,6.84 4.125,3.629 6.797,5.945 10.078,8.738 2.598,2.219 3.266,3 3.266,3.848 0,0.371 -0.387,1.684 -0.856,2.922 -0.472,1.242 -1.015,2.773 -1.215,3.406 -0.511,1.653 -1.129,1.875 -2.777,0.992 -2.102,-1.117 -4.769,-2.41 -6.555,-3.168 -5.48,-2.332 -7.543,-3.175 -7.754,-3.175 -0.128,0 -0.921,-0.621 -1.761,-1.379 -0.84,-0.762 -1.957,-1.567 -2.485,-1.789 -2.214,-0.938 -8.714,-3.075 -9.359,-3.075 -0.656,0 -2.961,-1.152 -3.199,-1.605 -0.133,-0.246 -0.414,-1.348 -0.621,-2.445 -0.485,-2.559 -1.157,-4.11 -1.778,-4.11 -0.636,0 -0.859,0.328 -1.73,2.532 -0.84,2.125 -1.582,3.054 -2.426,3.042 -1.055,-0.011 -7.035,-1.261 -9.926,-2.074 -4.875,-1.371 -9.402,-2.539 -9.851,-2.539 -0.235,0 -0.977,-0.16 -1.649,-0.355 -1.547,-0.453 -7.062,-1.676 -10.855,-2.406 -3.047,-0.586 -4.246,-1.036 -4.496,-1.688 -0.082,-0.215 -0.149,-1.812 -0.149,-3.551 -0.004,-8.375 -1.297,-20.847 -2.523,-24.363 -0.68,-1.938 -0.711,-2.227 -0.309,-2.629 0.407,-0.406 1.242,-0.363 5.59,0.289 z m -100.23,8.484 c 0.363,0.676 0.578,19.469 0.254,22.063 -0.434,3.457 -0.903,3.914 -4.032,3.918 -2.129,0.004 -6.941,1.508 -16.351,5.113 -3.121,1.196 -10.52,4.516 -15.188,6.813 -1.422,0.699 -2.73,1.273 -2.902,1.273 -0.531,0 -0.992,-0.711 -2.738,-4.199 -2.649,-5.309 -3.211,-6.566 -3.129,-6.992 0.195,-1 14.48,-10.914 23.785,-16.512 0.426,-0.258 1.801,-1.137 3.055,-1.953 2.07,-1.356 5.597,-3.551 8.398,-5.231 0.594,-0.355 2.539,-1.554 4.32,-2.668 3.317,-2.07 4.133,-2.363 4.528,-1.625 z m -46.008,30.458 c 0.531,0.48 0.562,1.41 0.086,2.554 -0.727,1.735 -1.602,5.145 -1.828,7.129 -0.461,4.027 -0.977,4.828 -4.176,6.5 -1.848,0.961 -10.254,5.867 -12.242,7.141 -0.528,0.336 -1.25,0.875 -1.606,1.195 -0.676,0.613 -1.726,0.766 -2.176,0.316 -0.148,-0.144 -0.312,-0.914 -0.371,-1.707 -0.097,-1.339 -0.039,-1.554 0.86,-3.062 1.265,-2.133 3.679,-4.785 8.093,-8.891 3.719,-3.457 6.227,-6.027 7.387,-7.562 0.918,-1.215 4.43,-4.012 5.039,-4.012 0.274,0 0.696,0.18 0.934,0.399 z m 85.203,0.257 c 0.422,0.426 0.551,0.867 0.617,2.16 0.047,0.895 0.402,5.567 0.797,10.383 0.629,7.762 0.836,9.789 1.348,13.219 0.222,1.504 -0.02,1.586 -5.254,1.75 -2.547,0.082 -7.762,0.207 -11.59,0.277 -3.828,0.075 -9.207,0.309 -11.953,0.524 -4.528,0.351 -5.031,0.351 -5.371,0.012 -0.442,-0.442 -0.469,-4.036 -0.051,-7.379 0.152,-1.215 0.223,-5.414 0.176,-10.375 -0.078,-8.075 -0.067,-8.344 0.398,-8.778 0.707,-0.66 5.328,-1.406 11.399,-1.847 7.16,-0.516 7.371,-0.524 13.496,-0.5 5.304,0.019 5.468,0.035 5.988,0.554 z m 15.422,0.547 c 2.515,0.266 5.277,0.582 6.137,0.707 0.855,0.125 3.015,0.403 4.796,0.617 1.786,0.211 5.079,0.649 7.321,0.969 2.246,0.32 5.648,0.754 7.562,0.957 1.914,0.207 4.449,0.531 5.641,0.715 2.949,0.465 3.113,0.668 3.32,4.102 0.418,6.863 2.16,14.781 3.438,15.621 0.531,0.347 0.625,0.347 0.961,0.011 0.421,-0.421 1.988,-5.925 1.996,-7.007 0,-0.387 0.109,-1.305 0.238,-2.039 0.551,-3.149 0.965,-6.317 0.965,-7.399 0,-0.641 0.14,-1.359 0.316,-1.594 0.336,-0.464 0.313,-0.464 11.684,0.348 1.648,0.117 5.969,0.324 9.601,0.465 6.786,0.258 8.653,0.453 11.758,1.234 1.996,0.504 2.926,1.063 3.117,1.871 0.067,0.293 0.047,1.903 -0.043,3.578 -0.566,10.082 -0.621,12.426 -0.41,16.575 0.203,3.941 0.184,4.48 -0.168,5.019 l -0.394,0.602 -5.192,-0.16 c -5.582,-0.172 -4.785,-0.036 -13.468,-2.27 -3.36,-0.863 -9.364,-1.84 -16.563,-2.691 -1.254,-0.149 -2.656,-0.364 -3.117,-0.481 -0.465,-0.113 -2.57,-0.375 -4.68,-0.578 -2.113,-0.203 -4.707,-0.476 -5.761,-0.609 -1.735,-0.219 -4,-0.375 -17.161,-1.2 -2.175,-0.132 -7.039,-0.312 -10.8,-0.394 -4.938,-0.106 -6.977,-0.231 -7.336,-0.453 -0.489,-0.309 -0.493,-0.41 -0.446,-13.336 0.043,-12.254 0.075,-13.047 0.481,-13.344 0.562,-0.414 0.797,-0.406 6.207,0.164 z m -55.445,4.137 c 0.062,0.297 0.171,1.781 0.25,3.301 0.078,1.519 0.242,3.679 0.363,4.8 0.98,8.911 1.492,14.661 1.359,15.192 -0.25,1.008 -0.957,1.113 -13.594,2.09 -7.562,0.582 -10.078,0.824 -16.32,1.57 -2.703,0.324 -5.375,0.641 -5.93,0.703 l -1.011,0.113 -0.102,-6.293 c -0.055,-3.464 -0.176,-6.742 -0.269,-7.289 -0.297,-1.73 -0.321,-1.711 7.777,-5.906 1.773,-0.918 3.395,-1.762 3.602,-1.871 5.265,-2.824 12.664,-5.508 15.183,-5.508 1.106,0 5.625,-0.883 6.18,-1.207 0.203,-0.121 0.828,-0.222 1.387,-0.226 0.863,-0.008 1.031,0.074 1.125,0.531 z m 148.82,9.312 c 2.246,0.797 5.105,1.817 6.359,2.262 3.219,1.141 9.813,3.758 10.633,4.223 0.238,0.133 1.59,0.734 3,1.332 1.414,0.597 2.887,1.398 3.273,1.781 l 0.704,0.688 -0.282,1.753 c -0.156,0.961 -0.5,3.262 -0.769,5.11 -0.266,1.848 -0.649,4.41 -0.844,5.687 -0.195,1.282 -0.355,2.821 -0.355,3.422 0,0.77 -0.141,1.231 -0.481,1.571 -0.598,0.601 -0.879,0.597 -2.414,-0.008 -3.144,-1.239 -15.801,-3.91 -21.586,-4.555 -3.539,-0.395 -5.543,-0.777 -5.898,-1.129 -0.453,-0.457 -0.43,-1.004 0.121,-2.519 1.172,-3.235 2.238,-10.27 2.558,-16.868 0.09,-1.851 0.258,-3.55 0.379,-3.781 0.352,-0.68 1.278,-0.508 5.602,1.031 z m 40.355,3.204 c 3.211,3.062 9.797,9.753 11.485,11.664 1.617,1.836 5.91,7.496 7,9.23 0.414,0.668 1.679,2.777 2.804,4.695 1.125,1.918 2.934,4.887 4.02,6.602 1.082,1.711 2.668,4.25 3.523,5.633 1,1.625 2.051,2.976 2.961,3.801 0.778,0.703 1.41,1.457 1.41,1.675 0,0.219 -0.312,1.317 -0.695,2.442 -0.383,1.125 -0.816,2.496 -0.965,3.047 -0.519,1.945 -1.019,1.757 -5.64,-2.11 -4.211,-3.519 -9.86,-6.933 -11.477,-6.933 -0.285,0 -2.141,-0.801 -4.129,-1.782 -3.508,-1.73 -4.062,-1.984 -6.851,-3.14 -0.727,-0.305 -2.778,-1.164 -4.563,-1.914 -1.781,-0.75 -3.82,-1.575 -4.531,-1.825 -2.305,-0.816 -2.609,-1.386 -1.934,-3.617 0.461,-1.527 0.856,-3.418 2.024,-9.683 0.758,-4.078 0.769,-4.121 1.226,-4.293 0.199,-0.078 1.141,0.226 2.09,0.675 3.574,1.692 6.762,2.86 7.848,2.879 0.988,0.016 1.086,-0.035 1.152,-0.601 0.117,-1.012 -3.398,-5.152 -6.867,-8.09 -1.602,-1.359 -3.078,-2.703 -3.277,-2.992 -0.289,-0.41 -0.368,-1.262 -0.368,-3.91 0,-1.864 0.071,-3.461 0.161,-3.547 0.519,-0.52 1.382,-0.016 3.593,2.094 z m -236.39,7.054 c 0.16,0.102 0.566,1.84 0.91,3.863 0.383,2.25 0.765,3.821 0.988,4.043 0.207,0.211 0.297,0.532 0.203,0.754 -0.09,0.215 -0.168,0.512 -0.176,0.657 -0.007,0.242 -19.867,10.793 -20.605,10.945 -0.398,0.086 -0.395,0.039 0.387,-5.449 0.34,-2.379 0.558,-4.66 0.484,-5.078 -0.07,-0.414 -0.008,-1.016 0.137,-1.34 0.265,-0.582 1.89,-1.539 3.719,-2.188 2.195,-0.785 8.195,-3.586 10.25,-4.789 2.847,-1.668 3.136,-1.777 3.703,-1.418 z m 301.996,38.571 c 0.215,0.257 0.25,0.867 0.121,2.21 -0.188,2.008 -0.277,2.286 -1.266,3.918 -2.301,3.805 -3.301,5.161 -5.336,7.227 -1.254,1.273 -2.55,2.625 -2.886,3 -0.332,0.375 -2.114,2.262 -3.957,4.187 -1.848,1.926 -4.543,4.993 -5.997,6.817 -1.453,1.824 -3.019,3.715 -3.48,4.199 -0.461,0.481 -1.836,2.02 -3.055,3.418 -1.754,2.012 -2.441,2.625 -3.308,2.957 -1.078,0.414 -1.121,0.41 -3.184,-0.219 -2.508,-0.765 -2.695,-0.773 -5.586,-0.132 -1.984,0.437 -2.863,0.488 -7.066,0.406 -4.406,-0.086 -4.899,-0.137 -6,-0.649 -0.66,-0.304 -1.848,-0.625 -2.641,-0.707 -1.41,-0.148 -1.437,-0.168 -1.39,-0.847 0.027,-0.379 0.296,-0.957 0.601,-1.282 0.641,-0.683 4.059,-3 5.109,-3.457 0.395,-0.175 1.27,-0.66 1.946,-1.086 2.203,-1.386 9.797,-4.207 13.652,-5.07 1.192,-0.265 2.918,-0.765 3.844,-1.109 0.922,-0.344 2.375,-0.793 3.226,-0.992 0.852,-0.2 2.661,-0.918 4.016,-1.594 1.981,-0.985 2.703,-1.496 3.645,-2.57 0.644,-0.743 2.023,-2.219 3.062,-3.286 2.484,-2.55 4.664,-5.16 7.414,-8.859 3.336,-4.496 5.61,-6.414 8.067,-6.816 0.082,-0.012 0.285,0.136 0.449,0.336 z M 223.922,36.375 c -3.535,0.984 -8.453,2.738 -10.32,3.68 -0.993,0.496 -2.559,1.293 -3.481,1.765 -3.832,1.965 -7.152,3.539 -7.465,3.539 -0.187,0 -0.847,0.27 -1.476,0.602 -0.625,0.328 -1.95,0.922 -2.942,1.316 -3.34,1.34 -8.187,3.926 -8.41,4.493 -0.113,0.292 -0.644,0.98 -1.18,1.527 -0.531,0.551 -0.968,1.082 -0.968,1.183 0,0.223 2.265,-0.687 3.121,-1.246 0.554,-0.367 11.57,-5.789 14.277,-7.031 0.66,-0.305 1.703,-0.781 2.317,-1.066 0.617,-0.285 1.425,-0.61 1.8,-0.727 0.379,-0.117 2.172,-0.863 3.993,-1.66 1.82,-0.801 3.656,-1.555 4.082,-1.68 1.429,-0.422 7.96,-3.066 9.168,-3.711 0.66,-0.351 1.374,-0.64 1.589,-0.64 0.457,0 1.004,-0.571 0.77,-0.801 -0.332,-0.332 -2.922,-0.09 -4.875,0.457 z M 176.16,58.719 c -3.762,2.039 -8.082,4.359 -9.601,5.152 -1.516,0.797 -2.973,1.641 -3.239,1.875 -1.664,1.477 -5.808,4.332 -6.285,4.332 -0.137,0 -2.535,2.371 -5.332,5.27 -5.055,5.234 -5.094,5.281 -5.793,7.203 -1.277,3.5 -2.246,5.144 -3.742,6.367 -0.754,0.609 -1.699,1.281 -2.109,1.492 -1.157,0.594 -6.375,4.145 -7.625,5.184 -0.633,0.527 -1.946,2.16 -2.985,3.718 -1.023,1.528 -2.652,3.7 -3.625,4.833 -0.972,1.128 -2.125,2.593 -2.562,3.253 -0.438,0.661 -1.399,2.122 -2.137,3.243 -0.738,1.121 -2.387,3.226 -3.668,4.679 -1.281,1.453 -2.742,3.289 -3.246,4.078 -1.465,2.305 -1.906,2.907 -3.813,5.184 -2.093,2.508 -3.839,4.98 -3.839,5.449 0,0.184 0.722,-0.301 1.601,-1.07 1.461,-1.277 2.844,-2.918 5.121,-6.07 2.094,-2.907 5.262,-6.481 10.903,-12.313 4.644,-4.801 6.961,-6.867 11.054,-9.859 1.059,-0.77 2.192,-1.598 2.524,-1.844 0.328,-0.242 1.73,-1.23 3.117,-2.195 1.973,-1.371 3.433,-2.703 6.723,-6.153 8.66,-9.086 8.89,-9.343 8.265,-9.222 -0.394,0.074 -0.586,0.004 -0.586,-0.223 0,-0.34 2.809,-3.191 4.321,-4.383 0.843,-0.664 1.777,-1.551 8.636,-8.183 2.047,-1.977 4.789,-4.512 6.098,-5.637 5.656,-4.859 9.273,-8.133 8.723,-7.895 -0.032,0.016 -3.137,1.696 -6.899,3.735 z m -74.437,77.543 c -1.547,1.48 -3.735,4.125 -4.911,5.937 -1.281,1.973 -2.675,3.809 -4.183,5.52 -1.367,1.551 -3.578,4.469 -4.035,5.332 -0.567,1.07 -2.844,4.09 -4.594,6.094 -0.988,1.132 -2.359,2.968 -3.043,4.078 -1.465,2.371 -2.191,3.343 -4.711,6.3 -1.027,1.207 -2.918,3.762 -4.199,5.676 -1.281,1.91 -2.93,4.235 -3.664,5.16 -1.817,2.282 -2.594,3.481 -3.817,5.879 -1.097,2.16 -1.406,2.617 -3.781,5.578 -0.824,1.024 -1.719,2.27 -1.988,2.766 -0.27,0.492 -0.703,1.223 -0.961,1.617 -0.262,0.399 -0.676,1.153 -0.922,1.68 -0.246,0.527 -0.875,1.5 -1.394,2.16 -1.122,1.422 -1.407,2.039 -0.934,2.039 0.324,0 3.254,-3.469 3.254,-3.851 0,-0.106 0.484,-0.52 1.082,-0.922 0.637,-0.43 1.078,-0.606 1.078,-0.426 0,0.887 -1.695,5.488 -3.379,9.172 -1.055,2.308 -2.449,5.816 -3.101,7.797 -0.653,1.976 -1.454,4.164 -1.778,4.855 -0.804,1.711 -1.449,3.527 -2.062,5.817 -0.657,2.46 -1.219,4.117 -2.157,6.359 -1.179,2.812 -1.421,3.531 -2.203,6.48 -0.398,1.52 -1.261,4.082 -1.914,5.696 -0.648,1.617 -1.453,4.035 -1.785,5.379 -0.711,2.875 -0.922,3.328 -1.539,3.328 -0.332,0 -0.527,0.25 -0.699,0.898 -0.129,0.496 -0.41,1.547 -0.625,2.34 -0.758,2.77 -0.848,3.637 -0.895,8.641 -0.043,4.707 -0.011,5.14 0.5,6.578 0.578,1.625 1.778,3.566 2.332,3.781 0.375,0.145 2.274,2.848 3.313,4.723 1.039,1.867 2.519,6.476 2.797,8.715 0.273,2.191 0.355,7.542 0.133,8.484 -0.079,0.328 -0.243,2.164 -0.36,4.078 -0.121,1.914 -0.383,3.965 -0.578,4.559 -1.672,5.011 -2.316,7.433 -2.305,8.64 0.024,1.774 -0.922,5.688 -2.633,10.922 -0.773,2.375 -1.707,5.399 -2.07,6.719 -0.914,3.34 -2.703,8.68 -3.289,9.836 -0.269,0.531 -0.723,1.179 -1.008,1.445 -0.379,0.356 -0.593,1.012 -0.824,2.512 -0.172,1.117 -0.449,2.305 -0.617,2.637 -0.172,0.335 -0.383,1.203 -0.477,1.929 -0.089,0.727 -0.312,1.86 -0.492,2.52 -0.18,0.66 -0.394,2.496 -0.476,4.082 -0.082,1.582 -0.27,3.312 -0.414,3.84 -0.145,0.527 -0.336,3.39 -0.426,6.359 -0.164,5.293 -0.348,7.02 -1.133,10.48 -0.453,2.008 -0.352,6.614 0.266,12.2 0.554,5.043 1.539,15.742 1.707,18.601 0.082,1.383 0.296,3.114 0.476,3.84 0.543,2.215 1.27,6.691 1.547,9.539 0.242,2.516 1.203,6.828 2.012,9.059 0.191,0.527 0.422,1.933 0.511,3.121 0.196,2.547 0.875,6.125 1.575,8.293 0.273,0.851 0.699,2.898 0.941,4.547 0.492,3.332 1.176,6.086 2.063,8.32 0.32,0.816 0.586,1.812 0.586,2.215 0,0.808 1.226,4.078 1.894,5.051 0.234,0.336 1.086,2.074 1.891,3.855 2.07,4.57 2.406,5.231 3.414,6.719 0.492,0.726 1.422,2.273 2.07,3.437 0.645,1.164 1.305,2.352 1.469,2.641 0.16,0.285 0.297,0.758 0.297,1.047 0.004,0.289 0.316,0.863 0.691,1.277 0.379,0.414 0.813,1.164 0.961,1.668 0.152,0.5 0.438,1.047 0.633,1.211 0.199,0.164 0.359,0.461 0.359,0.66 0,0.407 0.672,1 1.141,1.012 0.426,0.012 0.379,-1.309 -0.059,-1.672 -0.199,-0.164 -0.359,-0.402 -0.359,-0.523 0,-0.356 -1.207,-2.813 -1.457,-2.969 -0.125,-0.074 -0.227,-0.371 -0.227,-0.66 0,-0.285 -0.304,-1.172 -0.679,-1.965 -0.75,-1.582 -1.364,-3.383 -1.602,-4.684 -0.082,-0.461 -0.562,-2.136 -1.07,-3.718 -0.785,-2.461 -1.809,-5.747 -3.258,-10.442 -0.184,-0.594 -1.039,-3.941 -1.902,-7.441 -0.86,-3.496 -2,-7.981 -2.532,-9.957 -1.695,-6.313 -3.312,-13.34 -3.84,-16.684 -0.281,-1.781 -0.781,-4.805 -1.113,-6.719 -0.855,-4.914 -0.996,-6.261 -1.18,-11.281 -0.171,-4.703 0.106,-7.277 1.301,-12.14 0.258,-1.043 0.766,-3.196 1.125,-4.778 0.364,-1.586 0.864,-3.691 1.114,-4.68 0.414,-1.656 1.121,-5.062 1.988,-9.601 0.187,-0.988 0.519,-3.031 0.734,-4.535 0.219,-1.504 0.492,-2.992 0.614,-3.309 0.121,-0.316 0.437,-1.945 0.707,-3.625 0.269,-1.676 0.605,-3.699 0.75,-4.488 0.144,-0.793 0.46,-2.899 0.703,-4.684 0.8,-5.886 0.968,-7.054 1.336,-9.359 0.199,-1.254 0.504,-2.926 0.675,-3.719 0.172,-0.793 0.446,-2.09 0.61,-2.879 0.511,-2.5 1.14,-4.379 3.496,-10.441 0.18,-0.461 0.437,-1.274 0.574,-1.801 0.258,-1 0.637,-1.66 1.762,-3.07 0.457,-0.578 0.859,-1.61 1.285,-3.324 0.34,-1.368 0.863,-2.969 1.168,-3.567 1.641,-3.226 2.719,-9.324 2.746,-15.547 0.035,-8.183 -3.281,-25.301 -6.551,-33.82 -0.465,-1.219 -1.148,-2.723 -1.515,-3.352 -0.594,-1.015 -0.664,-1.355 -0.645,-3.187 0.035,-3.582 0.52,-9.008 0.887,-9.984 0.195,-0.524 0.965,-2.512 1.707,-4.426 0.742,-1.914 1.82,-4.887 2.394,-6.602 1.008,-3.023 4.203,-11.578 5.692,-15.238 0.402,-0.992 1.297,-3.207 1.992,-4.922 1.223,-3.02 3.437,-8 5.766,-12.961 1.507,-3.219 2.195,-5.336 2.652,-8.184 0.695,-4.375 1.183,-5.953 3.074,-9.972 1.125,-2.391 1.742,-3.965 2.481,-6.324 0.328,-1.055 1.273,-3.27 2.101,-4.918 0.828,-1.653 1.809,-3.703 2.176,-4.563 1.98,-4.594 2.512,-5.687 4.328,-8.898 1.09,-1.922 2.359,-4.246 2.82,-5.16 0.461,-0.911 1.426,-2.524 2.145,-3.579 0.719,-1.058 1.91,-2.8 2.644,-3.875 0.731,-1.074 1.79,-2.8 2.344,-3.836 1.137,-2.125 2.406,-4.062 4.617,-7.058 1.512,-2.051 2.778,-4.551 2.305,-4.551 -0.141,0 -0.789,0.512 -1.441,1.141 z m -45.325,347.34 c 0,0.128 -0.113,0.238 -0.253,0.238 -0.137,0 -0.188,-0.11 -0.106,-0.238 0.082,-0.133 0.195,-0.243 0.254,-0.243 0.059,0 0.105,0.11 0.105,0.243 z M 208.527,248.734 c -0.195,0.434 -0.172,0.852 0.106,1.739 0.648,2.054 4.129,11.035 5.433,14.007 0.375,0.86 1.086,2.477 1.575,3.598 1.871,4.285 2.882,6.457 4.339,9.297 1.625,3.16 3.032,6.348 4.028,9.133 0.344,0.961 0.804,2.086 1.019,2.504 0.551,1.07 2.157,7.222 2.739,10.508 0.687,3.882 0.871,7.656 0.406,8.269 -0.297,0.391 -0.457,0.426 -0.93,0.211 -1.035,-0.473 -1.289,-1.316 -0.996,-3.352 0.371,-2.55 -0.031,-4.105 -1.719,-6.668 -0.918,-1.394 -1.902,-2.484 -3.281,-3.644 -1.871,-1.574 -2,-1.746 -2.59,-3.457 -0.34,-0.988 -0.746,-2.027 -0.906,-2.305 -0.504,-0.879 -1.977,-2.535 -2.898,-3.262 -1.032,-0.812 -7.719,-7.257 -14.04,-13.527 -3.632,-3.605 -4.859,-4.656 -7.253,-6.215 -1.582,-1.031 -3.582,-2.211 -4.438,-2.617 -0.992,-0.473 -2.043,-1.238 -2.883,-2.101 -0.722,-0.75 -1.695,-1.547 -2.16,-1.778 -0.461,-0.226 -1.433,-0.773 -2.156,-1.211 -1.563,-0.945 -4.668,-2.023 -5.824,-2.023 -0.453,0 -1.676,-0.231 -2.719,-0.512 -1.594,-0.43 -2.531,-0.508 -5.824,-0.488 -2.461,0.012 -4.614,0.156 -5.762,0.383 -1.008,0.199 -3.094,0.523 -4.633,0.722 -3.418,0.434 -6.422,1.184 -11,2.743 -3.691,1.257 -9.16,3.238 -9.961,3.613 -0.261,0.125 -1.773,0.73 -3.359,1.351 -5.168,2.016 -12.031,5.516 -19.078,9.727 -1.668,0.996 -3.805,2.023 -5.403,2.594 -4.058,1.445 -9.457,3.988 -12.961,6.097 -6.218,3.746 -8.964,5.77 -13.918,10.274 -7.48,6.797 -12.113,12.613 -15.812,19.871 -1.313,2.57 -2.789,6.402 -2.789,7.234 0,0.246 -0.469,1.348 -1.043,2.442 -1.043,1.988 -1.047,1.992 -1.199,5.23 -0.114,2.352 -0.059,3.895 0.203,5.641 0.598,3.98 1.308,7.32 2.039,9.597 0.383,1.188 0.801,2.594 0.926,3.121 0.531,2.235 3.965,11.45 5.547,14.879 5.234,11.368 10.246,19.442 16.644,26.813 1.027,1.187 3.164,3.851 4.742,5.914 5.379,7.043 6.133,7.723 9.875,8.93 2.227,0.714 4.629,1.832 8.586,3.988 0.992,0.539 2.879,1.391 4.199,1.894 1.321,0.504 3.75,1.645 5.403,2.536 1.765,0.953 4.183,2.011 5.879,2.57 1.586,0.523 3.683,1.289 4.668,1.699 2.191,0.918 3.968,1.383 6.011,1.578 2.625,0.246 4.813,0.614 7.243,1.219 3.238,0.809 4.347,0.762 6.851,-0.273 1.137,-0.473 3.477,-1.235 5.199,-1.692 1.961,-0.519 4.403,-1.41 6.504,-2.371 1.848,-0.844 4.391,-1.805 5.645,-2.137 2.941,-0.777 3.679,-1.05 6.719,-2.507 1.386,-0.665 3.89,-1.59 5.562,-2.059 3.242,-0.906 5.844,-1.875 8.066,-2.996 0.754,-0.379 2.598,-1.031 4.102,-1.445 1.5,-0.418 3.391,-1.036 4.199,-1.375 3.953,-1.653 9.086,-4.118 10.59,-5.086 0.926,-0.594 3.055,-1.704 4.738,-2.469 3.364,-1.535 3.227,-1.457 7.145,-4.008 3.726,-2.426 6.324,-5.082 8.387,-8.578 1.531,-2.59 3.371,-5.172 4.523,-6.344 1.133,-1.156 2.617,-3.262 3.98,-5.64 0.754,-1.321 1.704,-2.942 2.106,-3.598 0.406,-0.66 1.016,-1.742 1.352,-2.402 0.335,-0.661 0.761,-1.379 0.949,-1.602 0.187,-0.219 0.304,-0.648 0.261,-0.957 -0.066,-0.465 -0.269,-0.582 -1.246,-0.723 -1.839,-0.261 -1.836,-0.258 -1.836,-1.929 0,-4.559 -0.945,-10.2 -2.535,-15.114 -0.586,-1.808 -1.062,-3.554 -1.062,-3.886 0,-0.329 0.179,-1.336 0.402,-2.235 0.656,-2.644 0.547,-7.808 -0.246,-11.804 -0.969,-4.875 -0.816,-6.239 0.738,-6.618 0.364,-0.09 1.09,-0.453 1.606,-0.808 1.687,-1.156 3.922,-5.235 4.73,-8.629 0.449,-1.891 0.485,-2.61 0.379,-7.375 -0.125,-5.723 -0.176,-6.035 -2.047,-12.961 -1.14,-4.219 -2.039,-6.727 -3.652,-10.195 -2.641,-5.676 -4.785,-9.36 -7.609,-13.071 -1.809,-2.375 -6.715,-7.695 -9.02,-9.785 -1.891,-1.715 -6.371,-5.402 -7.594,-6.254 -0.851,-0.594 -1.648,-0.527 -1.961,0.16 z m 73.235,19.996 c -1.11,0.407 -2.16,2.18 -2.16,3.633 0,0.52 0.222,2.008 0.496,3.309 0.336,1.617 0.449,2.781 0.351,3.672 -0.125,1.14 0.016,1.804 1.086,5.16 0.676,2.121 1.445,4.394 1.711,5.055 0.266,0.66 0.828,2.281 1.254,3.601 0.426,1.32 0.961,2.758 1.191,3.192 0.227,0.437 0.723,1.839 1.106,3.121 1.238,4.179 3.621,10.586 4.926,13.246 0.289,0.593 0.605,1.406 0.695,1.801 0.094,0.394 0.637,1.8 1.203,3.121 0.57,1.32 1.317,3.156 1.66,4.078 0.348,0.926 1,2.652 1.457,3.84 0.453,1.187 1.207,3.191 1.676,4.449 0.465,1.258 1.707,4.019 2.762,6.137 2.5,5.035 4.222,6.988 6.527,7.414 2.113,0.394 4.625,-1.254 5.422,-3.559 0.324,-0.938 0.418,-1.871 0.383,-3.82 l -0.047,-2.582 1.012,-0.512 c 0.554,-0.281 1.414,-0.832 1.914,-1.223 0.5,-0.394 1.601,-0.922 2.453,-1.179 2.976,-0.891 4.57,-2.758 7.972,-9.332 2.907,-5.614 5.473,-9.641 10.536,-16.54 2.257,-3.07 6.914,-9.972 8.269,-12.253 0.551,-0.926 1.688,-2.426 2.531,-3.336 1.989,-2.149 2.727,-3.715 2.723,-5.782 -0.004,-1.992 -0.566,-3.257 -2.133,-4.781 -1.406,-1.371 -5.437,-3.453 -7.461,-3.851 -1.566,-0.305 -2.156,-0.68 -3.664,-2.313 -0.773,-0.836 -1.668,-1.473 -2.812,-2 -2.535,-1.168 -7.008,-1.43 -15.981,-0.937 -7.566,0.414 -7.742,0.414 -20.742,-0.008 -5.211,-0.168 -10.031,-0.239 -10.707,-0.156 -0.922,0.113 -1.578,0.027 -2.633,-0.34 -1.383,-0.489 -2.273,-0.586 -2.976,-0.325 z M 57.48,487.582 c 0.395,0.332 0.934,0.719 1.2,0.859 0.48,0.258 0.48,0.258 0,-0.242 -0.266,-0.273 -0.618,-0.664 -0.789,-0.867 -0.172,-0.203 -0.496,-0.367 -0.719,-0.363 -0.309,0.008 -0.234,0.156 0.308,0.613 z"
         style="fill:#000000;fill-opacity:1;fill-rule:nonzero;stroke:none"
         id="path14"
         inkscape:connector-curvature="0" /><path
         d="m 350.281,19.328 c -0.926,0.176 -3.246,0.387 -5.16,0.473 -1.914,0.086 -4.508,0.355 -5.762,0.597 -3.718,0.719 -4.683,0.805 -9.839,0.864 -2.708,0.031 -8.375,0.14 -12.598,0.242 -9.078,0.215 -13.172,0.234 -16.922,0.086 -4.426,-0.176 -11.898,0.39 -14.109,1.074 -2.832,0.875 -4.84,1.133 -9.321,1.207 -3.976,0.067 -4.199,0.098 -6.722,0.922 -1.434,0.473 -3.852,1.086 -5.368,1.367 -1.519,0.281 -4.542,1.094 -6.718,1.801 -2.18,0.707 -4.824,1.41 -5.883,1.566 -2.434,0.352 -3.59,0.7 -3.305,0.985 0.289,0.289 19.258,-0.965 25.985,-1.719 1.125,-0.125 3.445,-0.231 5.16,-0.234 1.719,-0.004 4.66,-0.11 6.539,-0.239 4.148,-0.285 17.512,-0.351 20.808,-0.105 3.2,0.238 3.368,0.406 3.555,3.476 0.188,3.079 1.422,8.875 2.606,12.231 0.535,1.516 1.179,3.336 1.429,4.043 0.25,0.707 0.66,1.625 0.91,2.039 0.754,1.254 1.528,3.801 1.539,5.074 0.012,0.926 -0.218,1.695 -0.992,3.352 -0.769,1.64 -1.148,2.914 -1.613,5.398 -0.332,1.789 -0.832,4.387 -1.113,5.774 -0.532,2.625 -0.77,4.566 -1.032,8.398 -0.125,1.805 -0.035,3.078 0.426,6.121 0.703,4.625 1.703,7.383 3.34,9.203 0.996,1.11 1.836,2.797 1.543,3.094 -0.285,0.285 -2.613,0.039 -3.937,-0.418 -3.997,-1.371 -15.704,-1.805 -23.329,-0.859 -8.324,1.035 -10.785,1.402 -12.464,1.867 -1,0.273 -2.895,0.687 -4.215,0.918 -1.438,0.254 -3.215,0.773 -4.438,1.304 -2.133,0.918 -5.355,2.055 -7.203,2.536 -0.594,0.152 -2.816,1.132 -4.941,2.175 -2.125,1.043 -3.985,1.899 -4.129,1.899 -0.567,0 -4.578,1.754 -6.168,2.699 -2.18,1.297 -3.594,1.977 -6.238,3 -2.481,0.957 -4.622,2.004 -6,2.93 -1.133,0.758 -3.161,1.758 -6.493,3.203 -1.324,0.574 -3.191,1.558 -4.152,2.183 -0.961,0.625 -3.402,1.942 -5.43,2.922 -2.027,0.977 -4.156,2.133 -4.726,2.567 -1.547,1.176 -4.559,2.867 -7.403,4.168 -1.382,0.633 -3.812,2.004 -5.398,3.05 -3.609,2.383 -3.883,2.598 -4.715,3.727 -0.449,0.613 -1.058,1.066 -1.82,1.356 -0.629,0.238 -1.738,0.832 -2.465,1.32 -0.727,0.488 -2.398,1.523 -3.715,2.301 -1.32,0.777 -3.558,2.316 -4.973,3.414 -3.64,2.832 -12.882,11.941 -16.363,16.132 -6.011,7.239 -8.375,10.126 -9.82,11.997 -1.543,2 -1.813,2.363 -3.395,4.558 -0.523,0.723 -2.683,3.617 -4.8,6.43 -2.122,2.816 -4.45,5.957 -5.172,6.98 -3.684,5.188 -4.434,6.203 -5.117,6.922 -1.258,1.328 -1.7,0.879 -1.344,-1.367 0.418,-2.652 0.515,-12.477 0.152,-15.809 -0.508,-4.722 -1.109,-4.984 -3.906,-1.707 -1.961,2.293 -2.692,3.426 -3.465,5.383 -0.316,0.793 -1.312,3.063 -2.215,5.039 -0.906,1.981 -1.922,4.305 -2.258,5.16 -0.336,0.86 -0.996,2.536 -1.464,3.723 -0.469,1.188 -1.422,3.238 -2.118,4.559 -0.699,1.32 -1.492,3.156 -1.761,4.082 -0.571,1.933 -1.571,7.773 -1.934,11.277 -0.539,5.242 -0.762,6.801 -1.242,8.699 -0.43,1.684 -0.465,2.188 -0.25,3.41 0.14,0.79 0.195,2.168 0.121,3.063 -0.176,2.152 0.269,5.207 0.953,6.547 0.731,1.422 2.121,2.383 3.477,2.394 2.015,0.016 3.488,-1.324 4.722,-4.297 0.457,-1.101 1.024,-2.218 1.258,-2.48 0.75,-0.844 2.008,-1.176 5.219,-1.391 3.84,-0.257 4.773,-0.531 8.015,-2.336 1.407,-0.785 3.583,-1.828 4.836,-2.32 2.196,-0.863 9.036,-3.766 11.758,-4.996 1.821,-0.82 7.328,-3.227 8.641,-3.773 2.695,-1.125 5.219,-2.207 5.879,-2.52 0.398,-0.187 1.152,-0.5 1.679,-0.691 1.786,-0.641 6.946,-2.723 9.528,-3.84 1.41,-0.61 2.676,-1.11 2.812,-1.11 0.137,0 0.871,-0.281 1.637,-0.625 2.41,-1.089 4.691,-1.601 12.664,-2.835 11.961,-1.86 20.547,-2.774 26.055,-2.782 1.64,0 4.769,-0.16 6.945,-0.351 2.18,-0.188 5.957,-0.516 8.402,-0.723 6.18,-0.527 13.786,-1.309 15.098,-1.555 0.606,-0.113 2.125,-0.277 3.383,-0.363 2.941,-0.199 10.82,-1.066 11.062,-1.219 0.102,-0.062 1.082,-0.226 2.18,-0.363 1.098,-0.137 2.684,-0.457 3.52,-0.715 2.062,-0.633 2.449,-0.597 4.421,0.371 0.938,0.465 2.055,0.84 2.485,0.84 1.133,0 1.957,0.375 3.504,1.586 1.679,1.316 2.949,1.895 4.984,2.258 2.555,0.457 4.098,0.855 5.984,1.543 1.516,0.551 2.465,0.691 6.438,0.957 4.129,0.277 4.719,0.367 5.152,0.801 0.43,0.433 0.512,0.937 0.684,4.293 0.18,3.453 0.508,6.433 1.516,13.765 0.191,1.383 0.472,3.793 0.625,5.348 0.152,1.555 0.472,3.984 0.714,5.398 0.243,1.414 0.516,4.356 0.606,6.532 0.164,3.882 0.648,6.824 1.433,8.707 0.192,0.449 0.286,1.05 0.208,1.336 -0.075,0.285 -0.059,0.519 0.035,0.519 0.093,0 7.414,2.004 16.261,4.453 l 16.094,4.457 7.828,4.278 c 7.305,3.992 7.821,4.316 7.75,4.879 -0.043,0.335 0.039,0.675 0.18,0.765 0.348,0.215 0.32,1.063 -0.121,3.344 -1.195,6.226 -3.414,14.723 -4.61,17.664 -0.347,0.855 -1.218,2.641 -1.933,3.961 -1.113,2.051 -2.188,3.793 -6.281,10.187 -0.332,0.516 -1.2,1.836 -1.934,2.934 -1.418,2.129 -1.711,2.594 -3.496,5.598 -2.371,3.984 -5.313,9.886 -7.656,15.359 -1.02,2.375 -2.45,5.562 -3.184,7.078 l -1.332,2.762 -1.492,12.961 1.375,17.16 c 0.758,9.437 1.543,17.914 1.746,18.84 0.582,2.648 1.086,14.957 2.07,50.64 0.254,9.161 0.153,53.887 -0.121,54.329 -0.058,0.097 -0.226,1.574 -0.375,3.281 -0.144,1.711 -1.082,10.508 -2.074,19.551 l -1.809,16.437 -3.949,15.813 c -2.172,8.695 -3.894,15.863 -3.832,15.925 0.063,0.067 -3.82,7.989 -8.633,17.61 -4.808,9.621 -8.691,17.492 -8.629,17.492 0.067,0 20.395,-2.16 45.18,-4.801 l 45.063,-4.797 38.339,-8.633 38.336,-8.628 52,-31.821 16.262,-16.73 c 8.942,-9.199 16.793,-17.114 17.442,-17.578 0.652,-0.469 1.371,-0.856 1.601,-0.864 0.262,-0.004 3.82,-4.289 9.363,-11.273 l 8.946,-11.266 5.293,-11.554 5.297,-11.555 1.308,-6.988 c 0.723,-3.844 2.231,-11.61 3.356,-17.25 l 2.043,-10.262 -0.497,-17.84 -0.496,-17.844 -5.265,-34.406 -7.391,-18.93 -6.207,-8.949 c -5.641,-8.129 -6.269,-9.137 -6.871,-10.988 -0.852,-2.617 -1.223,-5.774 -1.043,-8.914 0.078,-1.367 0.145,-2.824 0.145,-3.235 0.007,-1.183 1.117,-4.578 2.265,-6.933 0.578,-1.188 1.953,-3.41 3.055,-4.942 1.098,-1.527 2.285,-3.418 2.633,-4.199 1.117,-2.511 2.582,-7.371 2.746,-9.097 0.211,-2.188 1.011,-4.942 2.363,-8.11 1.406,-3.293 1.563,-4.027 1.582,-7.492 0.008,-1.586 0.109,-3.637 0.227,-4.559 0.113,-0.925 0.343,-2.812 0.507,-4.191 0.278,-2.32 0.356,-2.559 1.043,-3.188 0.727,-0.667 0.739,-0.707 0.672,-2.753 -0.035,-1.141 -0.215,-2.676 -0.398,-3.414 -0.184,-0.735 -0.406,-2.036 -0.496,-2.895 -0.09,-0.859 -0.422,-2.785 -0.739,-4.277 -0.32,-1.496 -0.582,-3.118 -0.582,-3.602 0,-0.484 -0.203,-1.746 -0.453,-2.801 -0.246,-1.054 -0.519,-2.515 -0.609,-3.242 -0.25,-2.027 -1.984,-11.105 -2.645,-13.824 -0.324,-1.336 -0.918,-4.035 -1.316,-6 -0.402,-1.965 -1,-4.547 -1.332,-5.734 -0.328,-1.188 -0.82,-3.079 -1.086,-4.2 -1.746,-7.336 -3.055,-11.035 -5.086,-14.379 -1.668,-2.742 -2.246,-3.89 -3.539,-7.011 -0.359,-0.879 -1.195,-2.496 -1.852,-3.602 -1.718,-2.89 -2.48,-4.441 -2.484,-5.062 -0.004,-0.75 -1.566,-4.164 -3.152,-6.907 -0.731,-1.254 -1.559,-2.902 -1.84,-3.66 -0.863,-2.304 -1.856,-4.086 -4.359,-7.816 -1.313,-1.961 -3.149,-5.067 -4.075,-6.903 -0.925,-1.839 -2.5,-4.582 -3.492,-6.101 -0.996,-1.516 -2.293,-3.621 -2.887,-4.68 -0.597,-1.054 -1.347,-2.351 -1.671,-2.879 -0.325,-0.527 -0.922,-1.554 -1.329,-2.281 -0.41,-0.727 -0.976,-1.715 -1.265,-2.195 -0.289,-0.485 -1.227,-2.051 -2.086,-3.481 -0.86,-1.433 -1.629,-2.773 -1.719,-2.984 -0.336,-0.813 -2.031,-3.305 -3.469,-5.102 -1.675,-2.089 -2.527,-3.382 -4.722,-7.164 -0.821,-1.41 -2.95,-4.465 -4.731,-6.789 -5.074,-6.617 -5.41,-7.074 -6.875,-9.363 -1.758,-2.746 -3.047,-4.516 -4.289,-5.883 -1.109,-1.219 -2.992,-3.969 -4.183,-6.117 -0.801,-1.438 -3.567,-4.852 -5.086,-6.273 -0.446,-0.418 -2.102,-1.622 -3.688,-2.68 -1.582,-1.055 -3.375,-2.36 -3.984,-2.895 -0.61,-0.539 -2.016,-1.57 -3.121,-2.297 -1.106,-0.726 -2.43,-1.601 -2.938,-1.945 -0.531,-0.355 -1.09,-1.008 -1.312,-1.535 -0.375,-0.879 -0.684,-1.059 -7.907,-4.668 -4.777,-2.387 -7.886,-4.09 -8.527,-4.664 -0.898,-0.809 -1.551,-1.297 -2.769,-2.082 -0.204,-0.133 -1.024,-0.875 -1.821,-1.649 -0.797,-0.773 -1.918,-1.73 -2.492,-2.121 -1.711,-1.179 -5.328,-2.781 -7.496,-3.32 -1.117,-0.277 -2.895,-0.719 -3.949,-0.98 -1.059,-0.262 -3.434,-1.059 -5.282,-1.77 -1.847,-0.711 -4.601,-1.578 -6.121,-1.926 -1.515,-0.351 -4.218,-1.211 -6,-1.918 -1.781,-0.703 -4.05,-1.449 -5.039,-1.656 -0.992,-0.203 -2.609,-0.543 -3.601,-0.75 -0.989,-0.207 -4.09,-1.023 -6.891,-1.816 -2.801,-0.789 -6.008,-1.539 -7.133,-1.668 -2.425,-0.274 -4.945,-0.868 -8.054,-1.891 -1.254,-0.41 -3.254,-0.852 -4.446,-0.977 -2.058,-0.214 -5.898,-1.085 -7.441,-1.691 -1.578,-0.617 -3.945,-1.164 -6.016,-1.394 -2.422,-0.27 -4.203,-0.684 -7.418,-1.731 -1.187,-0.387 -3.562,-0.914 -5.281,-1.176 -3.082,-0.468 -5.809,-1.136 -6.801,-1.668 -1.011,-0.539 -4.035,-1.468 -6.008,-1.84 -1.105,-0.21 -3.261,-0.75 -4.796,-1.199 -3.012,-0.886 -3.602,-0.929 -6.153,-0.453 z m -57.961,86.438 c 0.887,0.429 1.633,0.621 2.282,0.582 0.527,-0.036 3.117,0.175 5.757,0.461 4.262,0.464 6.313,0.531 18.243,0.586 11.445,0.046 13.652,0.113 14.878,0.441 0.793,0.215 2.575,0.566 3.961,0.785 1.383,0.219 2.758,0.488 3.051,0.602 0.781,0.293 0.883,1.14 0.324,2.64 -1.902,5.082 -3.144,13.387 -3.281,21.922 -0.07,4.438 -0.172,6.039 -0.394,6.192 -0.336,0.234 -1.692,0.148 -6.422,-0.403 -9.344,-1.086 -21.039,-2.047 -29.711,-2.441 -4.567,-0.207 -4.371,-0.031 -4.629,-4.188 -0.336,-5.394 -1.149,-13.89 -1.563,-16.304 -0.211,-1.254 -0.464,-3.739 -0.558,-5.52 -0.231,-4.328 -0.57,-5.035 -1.465,-3.062 -0.309,0.679 -0.465,1.562 -0.469,2.636 -0.004,1.239 -0.25,2.387 -1.062,4.918 -1.379,4.325 -2.45,10.903 -2.75,16.914 -0.235,4.774 0.16,4.45 -6.41,5.258 -5.758,0.711 -9.715,1.34 -10.653,1.695 -2.66,1.012 -11.687,3.071 -13.492,3.079 -1.344,0.003 -1.301,0.484 -1.359,-14.43 -0.067,-15.762 -0.196,-14.758 2.121,-16.359 3.097,-2.141 4.101,-2.418 14.043,-3.883 3.168,-0.465 6.621,-1.075 7.679,-1.352 2.989,-0.785 6.536,-1.355 8.637,-1.383 1.625,-0.023 2.125,0.071 3.242,0.614 z m 56.758,4.73 c 2.113,0.316 4.531,0.758 5.375,0.977 1.879,0.488 6.176,2.152 8.781,3.402 0.391,0.187 1.633,0.73 2.758,1.203 1.129,0.473 3.02,1.289 4.207,1.813 2.106,0.925 9.235,3.851 12.84,5.269 2.387,0.942 5.668,2.602 7.383,3.742 1.594,1.059 2.68,1.93 8.414,6.758 2.285,1.926 4.777,3.985 5.535,4.578 1.945,1.528 3.672,2.996 8.047,6.84 4.125,3.629 6.797,5.945 10.078,8.738 2.598,2.219 3.266,3 3.266,3.848 0,0.371 -0.387,1.684 -0.856,2.922 -0.472,1.242 -1.015,2.773 -1.215,3.406 -0.511,1.653 -1.129,1.875 -2.777,0.992 -2.102,-1.117 -4.769,-2.41 -6.555,-3.168 -5.48,-2.332 -7.543,-3.175 -7.754,-3.175 -0.128,0 -0.921,-0.621 -1.761,-1.379 -0.84,-0.762 -1.957,-1.567 -2.485,-1.789 -2.214,-0.938 -8.714,-3.075 -9.359,-3.075 -0.656,0 -2.961,-1.152 -3.199,-1.605 -0.133,-0.246 -0.414,-1.348 -0.621,-2.445 -0.485,-2.559 -1.157,-4.11 -1.778,-4.11 -0.636,0 -0.859,0.328 -1.73,2.532 -0.84,2.125 -1.582,3.054 -2.426,3.042 -1.055,-0.011 -7.035,-1.261 -9.926,-2.074 -4.875,-1.371 -9.402,-2.539 -9.851,-2.539 -0.235,0 -0.977,-0.16 -1.649,-0.355 -1.547,-0.453 -7.062,-1.676 -10.855,-2.406 -3.047,-0.586 -4.246,-1.036 -4.496,-1.688 -0.082,-0.215 -0.149,-1.812 -0.149,-3.551 -0.004,-8.375 -1.297,-20.847 -2.523,-24.363 -0.68,-1.938 -0.711,-2.227 -0.309,-2.629 0.407,-0.406 1.242,-0.363 5.59,0.289 z m -100.23,8.484 c 0.363,0.676 0.578,19.469 0.254,22.063 -0.434,3.457 -0.903,3.914 -4.032,3.918 -2.129,0.004 -6.941,1.508 -16.351,5.113 -3.121,1.196 -10.52,4.516 -15.188,6.813 -1.422,0.699 -2.73,1.273 -2.902,1.273 -0.531,0 -0.992,-0.711 -2.738,-4.199 -2.649,-5.309 -3.211,-6.566 -3.129,-6.992 0.195,-1 14.48,-10.914 23.785,-16.512 0.426,-0.258 1.801,-1.137 3.055,-1.953 2.07,-1.356 5.597,-3.551 8.398,-5.231 0.594,-0.355 2.539,-1.554 4.32,-2.668 3.317,-2.07 4.133,-2.363 4.528,-1.625 z m -46.008,30.458 c 0.531,0.48 0.562,1.41 0.086,2.554 -0.727,1.735 -1.602,5.145 -1.828,7.129 -0.461,4.027 -0.977,4.828 -4.176,6.5 -1.848,0.961 -10.254,5.867 -12.242,7.141 -0.528,0.336 -1.25,0.875 -1.606,1.195 -0.676,0.613 -1.726,0.766 -2.176,0.316 -0.148,-0.144 -0.312,-0.914 -0.371,-1.707 -0.097,-1.339 -0.039,-1.554 0.86,-3.062 1.265,-2.133 3.679,-4.785 8.093,-8.891 3.719,-3.457 6.227,-6.027 7.387,-7.562 0.918,-1.215 4.43,-4.012 5.039,-4.012 0.274,0 0.696,0.18 0.934,0.399 z m 85.203,0.257 c 0.422,0.426 0.551,0.867 0.617,2.16 0.047,0.895 0.402,5.567 0.797,10.383 0.629,7.762 0.836,9.789 1.348,13.219 0.222,1.504 -0.02,1.586 -5.254,1.75 -2.547,0.082 -7.762,0.207 -11.59,0.277 -3.828,0.075 -9.207,0.309 -11.953,0.524 -4.528,0.351 -5.031,0.351 -5.371,0.012 -0.442,-0.442 -0.469,-4.036 -0.051,-7.379 0.152,-1.215 0.223,-5.414 0.176,-10.375 -0.078,-8.075 -0.067,-8.344 0.398,-8.778 0.707,-0.66 5.328,-1.406 11.399,-1.847 7.16,-0.516 7.371,-0.524 13.496,-0.5 5.304,0.019 5.468,0.035 5.988,0.554 z m 15.422,0.547 c 2.515,0.266 5.277,0.582 6.137,0.707 0.855,0.125 3.015,0.403 4.796,0.617 1.786,0.211 5.079,0.649 7.321,0.969 2.246,0.32 5.648,0.754 7.562,0.957 1.914,0.207 4.449,0.531 5.641,0.715 2.949,0.465 3.113,0.668 3.32,4.102 0.418,6.863 2.16,14.781 3.438,15.621 0.531,0.347 0.625,0.347 0.961,0.011 0.421,-0.421 1.988,-5.925 1.996,-7.007 0,-0.387 0.109,-1.305 0.238,-2.039 0.551,-3.149 0.965,-6.317 0.965,-7.399 0,-0.641 0.14,-1.359 0.316,-1.594 0.336,-0.464 0.313,-0.464 11.684,0.348 1.648,0.117 5.969,0.324 9.601,0.465 6.786,0.258 8.653,0.453 11.758,1.234 1.996,0.504 2.926,1.063 3.117,1.871 0.067,0.293 0.047,1.903 -0.043,3.578 -0.566,10.082 -0.621,12.426 -0.41,16.575 0.203,3.941 0.184,4.48 -0.168,5.019 l -0.394,0.602 -5.192,-0.16 c -5.582,-0.172 -4.785,-0.036 -13.468,-2.27 -3.36,-0.863 -9.364,-1.84 -16.563,-2.691 -1.254,-0.149 -2.656,-0.364 -3.117,-0.481 -0.465,-0.113 -2.57,-0.375 -4.68,-0.578 -2.113,-0.203 -4.707,-0.476 -5.761,-0.609 -1.735,-0.219 -4,-0.375 -17.161,-1.2 -2.175,-0.132 -7.039,-0.312 -10.8,-0.394 -4.938,-0.106 -6.977,-0.231 -7.336,-0.453 -0.489,-0.309 -0.493,-0.41 -0.446,-13.336 0.043,-12.254 0.075,-13.047 0.481,-13.344 0.562,-0.414 0.797,-0.406 6.207,0.164 z m -55.445,4.137 c 0.062,0.297 0.171,1.781 0.25,3.301 0.078,1.519 0.242,3.679 0.363,4.8 0.98,8.911 1.492,14.661 1.359,15.192 -0.25,1.008 -0.957,1.113 -13.594,2.09 -9.078,0.699 -20.195,1.875 -22.378,2.367 l -0.899,0.203 -0.008,-3.023 c -0.004,-1.668 -0.109,-5.016 -0.23,-7.442 -0.141,-2.765 -0.141,-4.57 0,-4.836 0.234,-0.433 1.972,-1.426 7.66,-4.371 1.773,-0.918 3.395,-1.762 3.602,-1.871 5.265,-2.824 12.664,-5.508 15.183,-5.508 1.106,0 5.625,-0.883 6.18,-1.207 0.203,-0.121 0.828,-0.222 1.387,-0.226 0.863,-0.008 1.031,0.074 1.125,0.531 z m 148.82,9.312 c 2.246,0.797 5.105,1.817 6.359,2.262 3.219,1.141 9.813,3.758 10.633,4.223 0.238,0.133 1.59,0.734 3,1.332 1.414,0.597 2.887,1.398 3.273,1.781 l 0.704,0.688 -0.282,1.753 c -0.156,0.961 -0.5,3.262 -0.769,5.11 -0.266,1.848 -0.649,4.41 -0.844,5.687 -0.195,1.282 -0.355,2.821 -0.355,3.422 0,0.77 -0.141,1.231 -0.481,1.571 -0.598,0.601 -0.879,0.597 -2.414,-0.008 -3.144,-1.239 -15.801,-3.91 -21.586,-4.555 -3.539,-0.395 -5.543,-0.777 -5.898,-1.129 -0.453,-0.457 -0.43,-1.004 0.121,-2.519 1.172,-3.235 2.238,-10.27 2.558,-16.868 0.09,-1.851 0.258,-3.55 0.379,-3.781 0.352,-0.68 1.278,-0.508 5.602,1.031 z m 40.355,3.204 c 3.211,3.062 9.797,9.753 11.485,11.664 1.617,1.836 5.91,7.496 7,9.23 0.414,0.668 1.679,2.777 2.804,4.695 1.125,1.918 2.934,4.887 4.02,6.602 1.082,1.711 2.668,4.25 3.523,5.633 1,1.625 2.051,2.976 2.961,3.801 0.778,0.703 1.41,1.457 1.41,1.675 0,0.219 -0.312,1.317 -0.695,2.442 -0.383,1.125 -0.816,2.496 -0.965,3.047 -0.519,1.945 -1.019,1.757 -5.64,-2.11 -4.211,-3.519 -9.86,-6.933 -11.477,-6.933 -0.285,0 -2.141,-0.801 -4.129,-1.782 -3.508,-1.73 -4.062,-1.984 -6.851,-3.14 -0.727,-0.305 -2.778,-1.164 -4.563,-1.914 -1.781,-0.75 -3.82,-1.575 -4.531,-1.825 -2.305,-0.816 -2.609,-1.386 -1.934,-3.617 0.461,-1.527 0.856,-3.418 2.024,-9.683 0.758,-4.078 0.769,-4.121 1.226,-4.293 0.199,-0.078 1.141,0.226 2.09,0.675 3.574,1.692 6.762,2.86 7.848,2.879 0.988,0.016 1.086,-0.035 1.152,-0.601 0.117,-1.012 -3.398,-5.152 -6.867,-8.09 -1.602,-1.359 -3.078,-2.703 -3.277,-2.992 -0.289,-0.41 -0.368,-1.262 -0.368,-3.91 0,-1.864 0.071,-3.461 0.161,-3.547 0.519,-0.52 1.382,-0.016 3.593,2.094 z m -235.988,7.457 c 0.063,0.269 0.359,2 0.66,3.847 0.297,1.848 0.684,3.504 0.86,3.68 0.296,0.301 0.214,1.391 -0.137,1.754 -0.082,0.086 -3.715,2.015 -8.07,4.289 -4.356,2.269 -9.043,4.726 -10.415,5.457 l -2.496,1.324 0.153,-1.051 c 0.758,-5.148 1.316,-9.879 1.203,-10.175 -0.301,-0.786 0.433,-1.821 1.691,-2.387 0.672,-0.301 3.383,-1.504 6.024,-2.668 2.64,-1.164 5.664,-2.621 6.718,-3.238 1.059,-0.614 2.082,-1.176 2.282,-1.246 0.722,-0.262 1.414,-0.075 1.527,0.414 z m 301.594,38.168 c 0.215,0.257 0.25,0.867 0.121,2.21 -0.188,2.008 -0.277,2.286 -1.266,3.918 -2.301,3.805 -3.301,5.161 -5.336,7.227 -1.254,1.273 -2.55,2.625 -2.886,3 -0.332,0.375 -2.114,2.262 -3.957,4.187 -1.848,1.926 -4.543,4.993 -5.997,6.817 -1.453,1.824 -3.019,3.715 -3.48,4.199 -0.461,0.481 -1.836,2.02 -3.055,3.418 -1.754,2.012 -2.441,2.625 -3.308,2.957 -1.078,0.414 -1.121,0.41 -3.184,-0.219 -2.508,-0.765 -2.695,-0.773 -5.586,-0.132 -1.984,0.437 -2.863,0.488 -7.066,0.406 -4.406,-0.086 -4.899,-0.137 -6,-0.649 -0.66,-0.304 -1.848,-0.625 -2.641,-0.707 -1.41,-0.148 -1.437,-0.168 -1.39,-0.847 0.027,-0.379 0.296,-0.957 0.601,-1.282 0.641,-0.683 4.059,-3 5.109,-3.457 0.395,-0.175 1.27,-0.66 1.946,-1.086 2.203,-1.386 9.797,-4.207 13.652,-5.07 1.192,-0.265 2.918,-0.765 3.844,-1.109 0.922,-0.344 2.375,-0.793 3.226,-0.992 0.852,-0.2 2.661,-0.918 4.016,-1.594 1.981,-0.985 2.703,-1.496 3.645,-2.57 0.644,-0.743 2.023,-2.219 3.062,-3.286 2.484,-2.55 4.664,-5.16 7.414,-8.859 3.336,-4.496 5.61,-6.414 8.067,-6.816 0.082,-0.012 0.285,0.136 0.449,0.336 z M 223.922,36.375 c -3.535,0.984 -8.453,2.738 -10.32,3.68 -0.993,0.496 -2.559,1.293 -3.481,1.765 -3.945,2.024 -7.156,3.539 -7.5,3.539 -0.199,0 -0.715,0.215 -1.141,0.481 -0.425,0.262 -1.191,0.633 -1.707,0.824 -3.269,1.211 -9.921,4.625 -9.929,5.09 0,0.152 -0.489,0.789 -1.082,1.418 -0.598,0.629 -1.082,1.223 -1.082,1.32 0,0.211 2.285,-0.711 3.121,-1.258 0.554,-0.367 11.57,-5.789 14.277,-7.031 0.66,-0.305 1.703,-0.781 2.317,-1.066 0.617,-0.285 1.425,-0.61 1.8,-0.727 0.379,-0.117 2.172,-0.863 3.993,-1.66 1.82,-0.801 3.656,-1.555 4.082,-1.68 1.429,-0.422 7.96,-3.066 9.168,-3.711 0.66,-0.351 1.374,-0.64 1.589,-0.64 0.457,0 1.004,-0.571 0.77,-0.801 -0.332,-0.332 -2.922,-0.09 -4.875,0.457 z M 173.52,60.234 c -5.082,2.743 -9.286,4.946 -9.344,4.895 -0.055,-0.055 -0.379,0.16 -0.719,0.473 -1.465,1.351 -5.586,4.25 -6.418,4.511 -0.156,0.047 -2.598,2.504 -5.426,5.453 -4.863,5.079 -5.175,5.457 -5.695,6.961 -1.113,3.2 -2.281,5.192 -3.75,6.387 -0.754,0.613 -1.699,1.285 -2.109,1.496 -1.157,0.594 -6.375,4.145 -7.625,5.184 -0.633,0.527 -1.946,2.16 -2.985,3.718 -1.023,1.528 -2.652,3.7 -3.625,4.833 -0.972,1.128 -2.125,2.593 -2.562,3.253 -0.438,0.661 -1.399,2.122 -2.137,3.243 -0.738,1.121 -2.387,3.226 -3.668,4.679 -1.281,1.453 -2.742,3.289 -3.246,4.078 -1.465,2.305 -1.906,2.907 -3.813,5.184 -2.093,2.508 -3.839,4.98 -3.839,5.449 0,0.184 0.722,-0.301 1.601,-1.07 1.461,-1.277 2.844,-2.918 5.121,-6.07 2.094,-2.907 5.262,-6.481 10.903,-12.313 5.07,-5.246 8.171,-7.93 13.25,-11.461 5.507,-3.832 5.671,-3.98 12.195,-10.836 4.539,-4.773 6.344,-6.824 6.059,-6.879 -0.223,-0.043 -0.407,-0.207 -0.407,-0.367 0,-0.305 2.903,-3.219 4.321,-4.336 0.843,-0.664 1.777,-1.551 8.636,-8.183 2.047,-1.977 4.789,-4.512 6.094,-5.637 5.836,-5.016 8.977,-7.848 8.488,-7.656 -0.035,0.015 -4.218,2.269 -9.3,5.011 z m -71.797,76.028 c -1.547,1.48 -3.735,4.125 -4.911,5.937 -1.281,1.973 -2.675,3.809 -4.183,5.52 -1.367,1.551 -3.578,4.469 -4.035,5.332 -0.567,1.07 -2.844,4.09 -4.594,6.094 -0.988,1.132 -2.359,2.968 -3.043,4.078 -1.465,2.371 -2.191,3.343 -4.711,6.3 -1.027,1.207 -2.918,3.762 -4.199,5.676 -1.281,1.91 -2.93,4.235 -3.664,5.16 -1.817,2.282 -2.594,3.481 -3.817,5.879 -1.097,2.16 -1.406,2.617 -3.781,5.578 -0.824,1.024 -1.719,2.27 -1.988,2.766 -0.27,0.492 -0.703,1.223 -0.961,1.617 -0.262,0.399 -0.676,1.153 -0.922,1.68 -0.246,0.527 -0.875,1.5 -1.394,2.16 -1.122,1.422 -1.407,2.039 -0.934,2.039 0.324,0 3.254,-3.469 3.254,-3.851 0,-0.106 0.484,-0.52 1.082,-0.922 0.637,-0.43 1.078,-0.606 1.078,-0.426 0,0.887 -1.695,5.488 -3.379,9.172 -1.055,2.308 -2.449,5.816 -3.101,7.797 -0.653,1.976 -1.454,4.164 -1.778,4.855 -0.804,1.711 -1.449,3.527 -2.062,5.817 -0.657,2.46 -1.219,4.117 -2.157,6.359 -1.179,2.812 -1.421,3.531 -2.203,6.48 -0.398,1.52 -1.261,4.09 -1.918,5.711 -0.652,1.621 -1.468,4.094 -1.812,5.496 -0.356,1.457 -0.813,2.739 -1.067,2.993 -0.242,0.242 -0.445,0.742 -0.445,1.105 0,0.367 -0.242,1.473 -0.539,2.461 -0.5,1.664 -0.539,2.254 -0.539,8.156 0,7.309 0.027,7.453 1.898,9.672 2.864,3.399 4.29,5.793 5.645,9.488 1.348,3.68 1.648,7.684 1.113,14.918 -0.211,2.84 -0.496,5.805 -0.636,6.59 -0.364,2.012 -1.352,5.043 -2.184,6.696 -0.387,0.769 -0.856,2.23 -1.039,3.238 -0.555,3.047 -1.461,6.426 -2.84,10.597 -0.719,2.176 -1.602,5.04 -1.965,6.36 -0.894,3.262 -2.699,8.672 -3.254,9.765 -0.254,0.493 -0.457,1.145 -0.457,1.45 0,0.597 -0.871,4.16 -1.664,6.828 -0.32,1.074 -0.574,2.961 -0.738,5.476 -0.137,2.114 -0.363,4.329 -0.5,4.922 -0.137,0.594 -0.348,3.563 -0.461,6.598 -0.164,4.254 -0.328,5.988 -0.715,7.562 -0.641,2.59 -0.855,7.297 -0.519,11.278 1.339,15.804 2.48,26.621 3.14,29.73 0.395,1.863 0.836,4.543 0.981,5.953 0.293,2.868 0.742,5.215 1.441,7.477 0.258,0.832 0.68,3.101 0.938,5.039 0.273,2.059 0.828,4.766 1.339,6.516 0.481,1.644 1.028,4.168 1.219,5.605 0.188,1.438 0.621,3.652 0.965,4.926 0.344,1.273 0.887,3.34 1.203,4.594 0.887,3.5 1.25,4.453 2.875,7.562 0.828,1.582 1.844,3.727 2.258,4.766 0.871,2.175 3.137,5.996 4.082,6.875 0.215,0.199 2.156,3.55 2.156,3.722 0,0.086 0.215,0.434 0.481,0.77 0.664,0.844 0.597,0.449 -0.203,-1.25 -0.75,-1.582 -1.364,-3.383 -1.602,-4.684 -0.082,-0.461 -0.562,-2.136 -1.07,-3.718 -0.785,-2.461 -1.809,-5.747 -3.258,-10.442 -0.184,-0.594 -1.039,-3.941 -1.902,-7.441 -0.86,-3.496 -2,-7.981 -2.532,-9.957 -1.695,-6.313 -3.312,-13.34 -3.84,-16.684 -0.281,-1.781 -0.781,-4.805 -1.113,-6.719 -0.855,-4.914 -0.996,-6.261 -1.18,-11.281 -0.171,-4.703 0.106,-7.277 1.301,-12.14 0.258,-1.043 0.766,-3.196 1.125,-4.778 0.364,-1.586 0.864,-3.691 1.114,-4.68 0.414,-1.656 1.121,-5.062 1.988,-9.601 0.187,-0.988 0.519,-3.031 0.734,-4.535 0.219,-1.504 0.492,-2.992 0.614,-3.309 0.121,-0.316 0.437,-1.945 0.707,-3.625 0.269,-1.676 0.605,-3.699 0.75,-4.488 0.144,-0.793 0.46,-2.899 0.703,-4.684 0.8,-5.886 0.968,-7.054 1.336,-9.359 0.199,-1.254 0.504,-2.926 0.675,-3.719 0.172,-0.793 0.446,-2.09 0.61,-2.879 0.511,-2.5 1.14,-4.379 3.496,-10.441 0.18,-0.461 0.437,-1.274 0.574,-1.801 0.258,-1 0.637,-1.66 1.762,-3.07 0.457,-0.578 0.859,-1.61 1.285,-3.324 0.34,-1.368 0.863,-2.969 1.168,-3.567 1.641,-3.226 2.719,-9.324 2.746,-15.547 0.035,-8.183 -3.281,-25.301 -6.551,-33.82 -0.465,-1.219 -1.148,-2.723 -1.515,-3.352 -0.594,-1.015 -0.664,-1.355 -0.645,-3.187 0.035,-3.582 0.52,-9.008 0.887,-9.984 0.195,-0.524 0.965,-2.512 1.707,-4.426 0.742,-1.914 1.82,-4.887 2.394,-6.602 1.008,-3.023 4.203,-11.578 5.692,-15.238 0.402,-0.992 1.297,-3.207 1.992,-4.922 1.223,-3.02 3.437,-8 5.766,-12.961 1.507,-3.219 2.195,-5.336 2.652,-8.184 0.695,-4.375 1.183,-5.953 3.074,-9.972 1.125,-2.391 1.742,-3.965 2.481,-6.324 0.328,-1.055 1.273,-3.27 2.101,-4.918 0.828,-1.653 1.809,-3.703 2.176,-4.563 1.98,-4.594 2.512,-5.687 4.328,-8.898 1.09,-1.922 2.359,-4.246 2.82,-5.16 0.461,-0.911 1.426,-2.524 2.145,-3.579 0.719,-1.058 1.91,-2.8 2.644,-3.875 0.731,-1.074 1.79,-2.8 2.344,-3.836 1.137,-2.125 2.406,-4.062 4.617,-7.058 1.512,-2.051 2.778,-4.551 2.305,-4.551 -0.141,0 -0.789,0.512 -1.441,1.141 z m 106.804,112.472 c -0.195,0.434 -0.172,0.852 0.106,1.739 0.648,2.054 4.129,11.035 5.433,14.007 0.375,0.86 1.086,2.477 1.575,3.598 1.871,4.285 2.882,6.457 4.339,9.297 1.625,3.16 3.032,6.348 4.028,9.133 0.344,0.961 0.804,2.086 1.019,2.504 0.551,1.07 2.157,7.222 2.739,10.508 0.687,3.882 0.871,7.656 0.406,8.269 -0.297,0.391 -0.457,0.426 -0.93,0.211 -1.035,-0.473 -1.289,-1.316 -0.996,-3.352 0.371,-2.55 -0.031,-4.105 -1.719,-6.668 -0.918,-1.394 -1.902,-2.484 -3.281,-3.644 -1.871,-1.574 -2,-1.746 -2.59,-3.457 -0.34,-0.988 -0.746,-2.027 -0.906,-2.305 -0.504,-0.879 -1.977,-2.535 -2.898,-3.262 -1.032,-0.812 -7.719,-7.257 -14.04,-13.527 -3.632,-3.605 -4.859,-4.656 -7.253,-6.215 -1.582,-1.031 -3.582,-2.211 -4.438,-2.617 -0.992,-0.473 -2.043,-1.238 -2.883,-2.101 -0.722,-0.75 -1.695,-1.547 -2.16,-1.778 -0.461,-0.226 -1.433,-0.773 -2.156,-1.211 -1.563,-0.945 -4.668,-2.023 -5.824,-2.023 -0.453,0 -1.676,-0.231 -2.719,-0.512 -1.594,-0.43 -2.531,-0.508 -5.824,-0.488 -2.461,0.012 -4.614,0.156 -5.762,0.383 -1.008,0.199 -3.094,0.523 -4.633,0.722 -3.418,0.434 -6.422,1.184 -11,2.743 -3.691,1.257 -9.16,3.238 -9.961,3.613 -0.261,0.125 -1.773,0.73 -3.359,1.351 -5.168,2.016 -12.031,5.516 -19.078,9.727 -1.668,0.996 -3.805,2.023 -5.403,2.594 -4.058,1.445 -9.457,3.988 -12.961,6.097 -6.218,3.746 -8.964,5.77 -13.918,10.274 -7.48,6.797 -12.113,12.613 -15.812,19.871 -1.313,2.57 -2.789,6.402 -2.789,7.234 0,0.246 -0.469,1.348 -1.043,2.442 -1.043,1.988 -1.047,1.992 -1.199,5.23 -0.114,2.352 -0.059,3.895 0.203,5.641 0.598,3.98 1.308,7.32 2.039,9.597 0.383,1.188 0.801,2.594 0.926,3.121 0.531,2.235 3.965,11.45 5.547,14.879 5.234,11.368 10.246,19.442 16.644,26.813 1.027,1.187 3.164,3.851 4.742,5.914 5.379,7.043 6.133,7.723 9.875,8.93 2.227,0.714 4.629,1.832 8.586,3.988 0.992,0.539 2.879,1.391 4.199,1.894 1.321,0.504 3.75,1.645 5.403,2.536 1.765,0.953 4.183,2.011 5.879,2.57 1.586,0.523 3.683,1.289 4.668,1.699 2.191,0.918 3.968,1.383 6.011,1.578 2.625,0.246 4.813,0.614 7.243,1.219 3.238,0.809 4.347,0.762 6.851,-0.273 1.137,-0.473 3.477,-1.235 5.199,-1.692 1.961,-0.519 4.403,-1.41 6.504,-2.371 1.848,-0.844 4.391,-1.805 5.645,-2.137 2.941,-0.777 3.679,-1.05 6.719,-2.507 1.386,-0.665 3.89,-1.59 5.562,-2.059 3.242,-0.906 5.844,-1.875 8.066,-2.996 0.754,-0.379 2.598,-1.031 4.102,-1.445 1.5,-0.418 3.391,-1.036 4.199,-1.375 3.953,-1.653 9.086,-4.118 10.59,-5.086 0.926,-0.594 3.055,-1.704 4.738,-2.469 3.364,-1.535 3.227,-1.457 7.145,-4.008 3.726,-2.426 6.324,-5.082 8.387,-8.578 1.531,-2.59 3.371,-5.172 4.523,-6.344 1.133,-1.156 2.617,-3.262 3.98,-5.64 0.754,-1.321 1.704,-2.942 2.106,-3.598 0.406,-0.66 1.016,-1.742 1.352,-2.402 0.335,-0.661 0.761,-1.379 0.949,-1.602 0.187,-0.219 0.304,-0.648 0.261,-0.957 -0.066,-0.465 -0.269,-0.582 -1.246,-0.723 -1.839,-0.261 -1.836,-0.258 -1.836,-1.929 0,-4.559 -0.945,-10.2 -2.535,-15.114 -0.586,-1.808 -1.062,-3.554 -1.062,-3.886 0,-0.329 0.179,-1.336 0.402,-2.235 0.656,-2.644 0.547,-7.808 -0.246,-11.804 -0.969,-4.875 -0.816,-6.239 0.738,-6.618 0.364,-0.09 1.09,-0.453 1.606,-0.808 1.687,-1.156 3.922,-5.235 4.73,-8.629 0.449,-1.891 0.485,-2.61 0.379,-7.375 -0.125,-5.723 -0.176,-6.035 -2.047,-12.961 -1.14,-4.219 -2.039,-6.727 -3.652,-10.195 -2.641,-5.676 -4.785,-9.36 -7.609,-13.071 -1.809,-2.375 -6.715,-7.695 -9.02,-9.785 -1.891,-1.715 -6.371,-5.402 -7.594,-6.254 -0.851,-0.594 -1.648,-0.527 -1.961,0.16 z m 73.235,19.996 c -1.11,0.407 -2.16,2.18 -2.16,3.633 0,0.52 0.222,2.008 0.496,3.309 0.336,1.617 0.449,2.781 0.351,3.672 -0.125,1.14 0.016,1.804 1.086,5.16 0.676,2.121 1.445,4.394 1.711,5.055 0.266,0.66 0.828,2.281 1.254,3.601 0.426,1.32 0.961,2.758 1.191,3.192 0.227,0.437 0.723,1.839 1.106,3.121 1.238,4.179 3.621,10.586 4.926,13.246 0.289,0.593 0.605,1.406 0.695,1.801 0.094,0.394 0.637,1.8 1.203,3.121 0.57,1.32 1.317,3.156 1.66,4.078 0.348,0.926 1,2.652 1.457,3.84 0.453,1.187 1.207,3.191 1.676,4.449 0.465,1.258 1.707,4.019 2.762,6.137 2.5,5.035 4.222,6.988 6.527,7.414 2.113,0.394 4.625,-1.254 5.422,-3.559 0.324,-0.938 0.418,-1.871 0.383,-3.82 l -0.047,-2.582 1.012,-0.512 c 0.554,-0.281 1.414,-0.832 1.914,-1.223 0.5,-0.394 1.601,-0.922 2.453,-1.179 2.976,-0.891 4.57,-2.758 7.972,-9.332 2.907,-5.614 5.473,-9.641 10.536,-16.54 2.257,-3.07 6.914,-9.972 8.269,-12.253 0.551,-0.926 1.688,-2.426 2.531,-3.336 1.989,-2.149 2.727,-3.715 2.723,-5.782 -0.004,-1.992 -0.566,-3.257 -2.133,-4.781 -1.406,-1.371 -5.437,-3.453 -7.461,-3.851 -1.566,-0.305 -2.156,-0.68 -3.664,-2.313 -0.773,-0.836 -1.668,-1.473 -2.812,-2 -2.535,-1.168 -7.008,-1.43 -15.981,-0.937 -7.566,0.414 -7.742,0.414 -20.742,-0.008 -5.211,-0.168 -10.031,-0.239 -10.707,-0.156 -0.922,0.113 -1.578,0.027 -2.633,-0.34 -1.383,-0.489 -2.273,-0.586 -2.976,-0.325 z"
         style="fill:#000000;fill-opacity:1;fill-rule:nonzero;stroke:none"
         id="path16"
         inkscape:connector-curvature="0" /><path
         d="m 350.281,19.328 c -0.926,0.176 -3.246,0.387 -5.16,0.473 -1.914,0.086 -4.508,0.355 -5.762,0.597 -3.718,0.719 -4.683,0.805 -9.839,0.864 -2.708,0.031 -8.375,0.14 -12.598,0.242 -9.078,0.215 -13.172,0.234 -16.922,0.086 -4.426,-0.176 -11.898,0.39 -14.109,1.074 -2.832,0.875 -4.84,1.133 -9.321,1.207 -3.976,0.067 -4.199,0.098 -6.722,0.922 -1.434,0.473 -3.852,1.086 -5.368,1.367 -1.519,0.281 -4.542,1.094 -6.718,1.801 -2.18,0.707 -4.824,1.41 -5.883,1.566 -2.434,0.352 -3.59,0.7 -3.305,0.985 0.289,0.289 19.258,-0.965 25.985,-1.719 1.125,-0.125 3.445,-0.231 5.16,-0.234 1.719,-0.004 4.66,-0.11 6.539,-0.239 4.148,-0.285 17.512,-0.351 20.808,-0.105 3.215,0.238 3.364,0.387 3.571,3.594 0.203,3.144 1.328,8.402 2.562,11.992 1.641,4.758 1.895,5.418 2.367,6.203 0.75,1.246 1.528,3.797 1.547,5.074 0.016,0.934 -0.203,1.672 -0.976,3.313 -0.758,1.609 -1.145,2.902 -1.621,5.402 -0.34,1.809 -0.84,4.367 -1.106,5.687 -0.269,1.321 -0.652,4.075 -0.859,6.122 -0.344,3.445 -0.34,3.964 0.051,7.078 0.703,5.644 1.671,8.539 3.586,10.703 0.941,1.066 1.761,2.746 1.476,3.035 -0.281,0.277 -2.605,0.039 -3.937,-0.406 -2.032,-0.68 -6.985,-1.223 -12.528,-1.379 -4.129,-0.113 -5.633,-0.051 -9.359,0.387 -9.453,1.101 -12.152,1.496 -14.141,2.054 -1.133,0.321 -2.922,0.703 -3.98,0.86 -1.16,0.168 -2.817,0.652 -4.199,1.23 -2.637,1.102 -5.786,2.219 -7.68,2.723 -0.727,0.191 -2.934,1.16 -4.91,2.152 -1.973,0.988 -3.7,1.801 -3.84,1.801 -0.625,0 -4.633,1.758 -6.254,2.738 -1.578,0.957 -6.492,3.262 -6.957,3.262 -0.379,0 -3.703,1.68 -5.524,2.789 -1.058,0.644 -2.351,1.351 -2.878,1.574 -3.93,1.656 -6.098,2.703 -7.336,3.551 -1.426,0.973 -3.235,1.93 -7.215,3.812 -1.141,0.543 -2.547,1.34 -3.121,1.774 -1.59,1.199 -4.09,2.613 -7.407,4.191 -4.218,2.008 -8.976,5.164 -10.019,6.649 -0.449,0.64 -1.078,1.125 -1.981,1.519 -0.722,0.317 -1.859,0.93 -2.519,1.363 -0.66,0.43 -2.277,1.422 -3.594,2.2 -3.734,2.207 -7.086,4.972 -12.836,10.586 -4.812,4.695 -7.738,7.894 -11.586,12.672 -2.558,3.175 -4.082,5.042 -5.07,6.21 -0.547,0.645 -1.371,1.688 -1.832,2.317 -2.031,2.773 -4.227,5.715 -7.922,10.621 -2.176,2.894 -4.715,6.324 -5.641,7.625 -5.343,7.516 -5.636,7.848 -6.121,6.941 -0.179,-0.332 -0.183,-0.902 -0.015,-1.855 0.465,-2.68 0.574,-12.375 0.172,-15.856 -0.375,-3.277 -0.59,-3.882 -1.387,-3.882 -0.723,0 -4.008,3.64 -5.09,5.64 -0.211,0.395 -0.922,1.985 -1.578,3.535 -0.652,1.547 -1.68,3.868 -2.277,5.161 -0.598,1.289 -1.696,3.91 -2.434,5.824 -0.742,1.914 -1.926,4.558 -2.629,5.879 -0.703,1.32 -1.504,3.156 -1.773,4.082 -0.571,1.933 -1.571,7.773 -1.934,11.277 -0.539,5.242 -0.766,6.801 -1.242,8.699 -0.43,1.684 -0.465,2.188 -0.25,3.41 0.14,0.79 0.195,2.168 0.121,3.063 -0.176,2.152 0.269,5.207 0.953,6.547 0.731,1.422 2.121,2.383 3.477,2.394 2.015,0.016 3.488,-1.324 4.722,-4.297 0.457,-1.101 1.024,-2.218 1.258,-2.48 0.75,-0.844 2.004,-1.176 5.219,-1.391 3.84,-0.257 4.773,-0.531 8.015,-2.336 1.407,-0.785 3.583,-1.828 4.836,-2.32 2.196,-0.863 9.036,-3.766 11.758,-4.996 1.821,-0.82 7.328,-3.227 8.641,-3.773 2.695,-1.125 5.219,-2.207 5.879,-2.52 0.398,-0.187 1.152,-0.5 1.679,-0.691 1.786,-0.641 6.946,-2.723 9.528,-3.84 1.41,-0.61 2.676,-1.11 2.812,-1.11 0.137,0 0.871,-0.281 1.637,-0.625 2.41,-1.089 4.691,-1.601 12.664,-2.835 11.961,-1.86 20.547,-2.774 26.055,-2.782 1.64,0 4.769,-0.16 6.945,-0.351 2.18,-0.188 5.957,-0.516 8.402,-0.723 6.18,-0.527 13.786,-1.309 15.098,-1.555 0.606,-0.113 2.125,-0.277 3.383,-0.363 2.941,-0.199 10.82,-1.066 11.062,-1.219 0.102,-0.062 1.082,-0.226 2.18,-0.363 1.098,-0.137 2.684,-0.457 3.52,-0.715 2.062,-0.633 2.449,-0.597 4.421,0.371 0.938,0.465 2.055,0.84 2.485,0.84 1.133,0 1.957,0.375 3.504,1.586 1.679,1.316 2.949,1.895 4.984,2.258 2.555,0.457 4.098,0.855 5.984,1.543 1.516,0.551 2.465,0.691 6.438,0.957 4.129,0.277 4.719,0.367 5.152,0.801 0.43,0.433 0.512,0.937 0.684,4.293 0.187,3.683 0.402,5.672 1.41,13.043 0.262,1.914 0.598,4.617 0.742,6 0.145,1.386 0.465,3.816 0.711,5.402 0.25,1.582 0.524,4.605 0.613,6.719 0.153,3.656 0.727,7.195 1.36,8.379 0.137,0.253 0.266,0.796 0.285,1.203 l 0.039,0.738 16.098,4.453 16.097,4.457 7.961,4.305 c 7.754,4.191 7.957,4.324 7.844,4.957 -0.066,0.355 -0.016,0.715 0.113,0.793 0.325,0.203 0.289,1.09 -0.144,3.332 -1.195,6.226 -3.414,14.723 -4.61,17.664 -0.347,0.855 -1.218,2.641 -1.933,3.961 -1.113,2.051 -2.188,3.793 -6.281,10.187 -0.332,0.516 -1.2,1.836 -1.934,2.934 -1.418,2.129 -1.711,2.594 -3.496,5.598 -2.371,3.984 -5.313,9.886 -7.656,15.359 -1.02,2.375 -2.43,5.535 -3.141,7.02 l -1.293,2.703 -0.746,6.515 -0.75,6.512 1.359,17.066 c 0.746,9.383 1.512,17.821 1.7,18.743 0.593,2.91 0.996,12.765 2.058,50.402 0.266,9.293 0.16,54.066 -0.129,54.851 -0.07,0.192 -0.285,2.344 -0.484,4.79 -0.195,2.441 -1.113,11.203 -2.035,19.468 l -1.68,15.032 -3.867,15.449 c -2.125,8.496 -3.899,15.773 -3.934,16.168 -0.035,0.398 -3.914,8.414 -8.617,17.82 -4.707,9.406 -8.555,17.137 -8.555,17.18 0,0.043 0.297,0.043 0.661,-0.004 0.363,-0.043 6.218,-0.668 13.019,-1.387 6.797,-0.719 26.723,-2.836 44.277,-4.699 l 31.922,-3.387 38.387,-8.637 c 21.113,-4.75 38.445,-8.664 38.52,-8.703 0.074,-0.039 11.765,-7.172 25.98,-15.851 l 25.848,-15.781 14.711,-15.129 c 8.093,-8.317 15.468,-15.899 16.394,-16.844 1.762,-1.801 3.68,-3.258 4.285,-3.258 0.2,0 4.403,-5.078 9.344,-11.285 l 8.988,-11.285 5.293,-11.574 5.297,-11.575 1.246,-6.359 c 0.953,-4.871 1.239,-6.824 1.211,-8.34 -0.031,-1.621 0.031,-1.98 0.324,-1.98 0.407,0 0.434,-0.094 1.094,-3.602 0.258,-1.387 0.996,-5.125 1.637,-8.309 l 1.168,-5.792 -0.453,-17.489 -0.457,-17.488 -2.649,-17.52 -2.644,-17.519 -3.364,-8.641 c -1.847,-4.754 -3.562,-9.105 -3.812,-9.672 -0.246,-0.566 -3.199,-4.996 -6.566,-9.847 -7.965,-11.489 -7.672,-10.977 -8.153,-14.063 -0.551,-3.554 -0.523,-7.105 0.071,-8.25 0.253,-0.488 0.699,-1.808 0.992,-2.929 0.765,-2.922 2.515,-6.415 4.824,-9.622 1.102,-1.527 2.289,-3.418 2.637,-4.199 1.117,-2.511 2.582,-7.371 2.746,-9.097 0.211,-2.188 1.011,-4.942 2.363,-8.11 1.406,-3.293 1.563,-4.027 1.582,-7.492 0.008,-1.582 0.109,-3.637 0.227,-4.559 0.113,-0.925 0.343,-2.812 0.507,-4.191 0.278,-2.32 0.356,-2.559 1.043,-3.188 0.727,-0.667 0.739,-0.707 0.672,-2.753 -0.035,-1.141 -0.215,-2.676 -0.398,-3.414 -0.184,-0.735 -0.406,-2.036 -0.496,-2.895 -0.09,-0.859 -0.422,-2.785 -0.739,-4.277 -0.32,-1.496 -0.582,-3.118 -0.582,-3.602 0,-0.484 -0.203,-1.746 -0.453,-2.801 -0.246,-1.054 -0.519,-2.515 -0.609,-3.242 -0.254,-2.058 -1.992,-11.125 -2.668,-13.918 -0.336,-1.387 -0.879,-3.863 -1.203,-5.504 -0.629,-3.164 -0.922,-4.375 -2.016,-8.418 -0.379,-1.383 -0.871,-3.328 -1.094,-4.316 -0.601,-2.652 -2.449,-8.344 -3.148,-9.699 -0.336,-0.649 -0.961,-1.688 -1.387,-2.309 -0.875,-1.269 -2.445,-4.406 -3.465,-6.91 -0.375,-0.918 -1.238,-2.598 -1.921,-3.731 -0.684,-1.136 -1.352,-2.308 -1.489,-2.609 -0.136,-0.301 -0.402,-0.812 -0.593,-1.144 -0.188,-0.329 -0.348,-0.852 -0.348,-1.161 -0.004,-0.664 -1.18,-3.41 -2.203,-5.148 -1.363,-2.309 -2.778,-5.09 -3.082,-6.051 -0.528,-1.66 -1.414,-3.246 -3.969,-7.082 -1.363,-2.043 -3.238,-5.23 -4.172,-7.078 -0.93,-1.848 -2.508,-4.602 -3.5,-6.121 -0.996,-1.516 -2.293,-3.621 -2.887,-4.68 -0.597,-1.054 -1.347,-2.351 -1.671,-2.879 -0.325,-0.527 -0.922,-1.554 -1.329,-2.281 -0.41,-0.727 -0.976,-1.715 -1.265,-2.195 -0.289,-0.485 -1.227,-2.051 -2.086,-3.481 -0.86,-1.433 -1.629,-2.773 -1.719,-2.984 -0.336,-0.813 -2.031,-3.305 -3.469,-5.102 -1.675,-2.089 -2.527,-3.382 -4.722,-7.164 -0.821,-1.41 -2.95,-4.465 -4.731,-6.789 -5.074,-6.617 -5.41,-7.074 -6.875,-9.363 -1.758,-2.746 -3.047,-4.516 -4.289,-5.883 -1.109,-1.219 -2.992,-3.969 -4.183,-6.117 -0.801,-1.438 -3.567,-4.852 -5.086,-6.273 -0.446,-0.418 -2.102,-1.622 -3.688,-2.68 -1.582,-1.055 -3.375,-2.36 -3.984,-2.895 -0.61,-0.539 -2.016,-1.57 -3.121,-2.297 -1.106,-0.726 -2.418,-1.593 -2.918,-1.929 -0.496,-0.336 -1.09,-1 -1.317,-1.477 -0.383,-0.805 -0.953,-1.137 -7.976,-4.652 -5.082,-2.547 -7.797,-4.043 -8.282,-4.563 -0.621,-0.664 -1.394,-1.257 -2.96,-2.273 -0.204,-0.133 -1.024,-0.875 -1.821,-1.649 -0.797,-0.773 -1.918,-1.73 -2.492,-2.121 -1.711,-1.179 -5.328,-2.781 -7.496,-3.32 -1.117,-0.277 -2.895,-0.719 -3.949,-0.98 -1.059,-0.262 -3.434,-1.059 -5.282,-1.77 -1.847,-0.711 -4.601,-1.578 -6.121,-1.926 -1.515,-0.351 -4.218,-1.211 -6,-1.918 -1.781,-0.703 -4.05,-1.449 -5.039,-1.656 -0.992,-0.203 -2.609,-0.543 -3.601,-0.75 -0.989,-0.207 -4.09,-1.023 -6.891,-1.816 -2.801,-0.789 -6.008,-1.539 -7.133,-1.668 -2.422,-0.274 -4.945,-0.868 -8.054,-1.891 -1.254,-0.41 -3.254,-0.852 -4.446,-0.977 -2.058,-0.214 -5.898,-1.085 -7.441,-1.691 -1.578,-0.617 -3.945,-1.164 -6.016,-1.394 -2.422,-0.27 -4.203,-0.684 -7.418,-1.731 -1.187,-0.387 -3.562,-0.914 -5.281,-1.176 -3.082,-0.468 -5.809,-1.136 -6.801,-1.668 -1.011,-0.539 -4.035,-1.468 -6.008,-1.84 -1.105,-0.21 -3.261,-0.75 -4.796,-1.199 -3.012,-0.886 -3.602,-0.929 -6.153,-0.453 z m -57.98,86.402 c 0.824,0.383 1.656,0.586 2.277,0.559 0.539,-0.023 3.141,0.199 5.781,0.5 4.344,0.492 6.079,0.551 18.243,0.606 11.445,0.046 13.652,0.113 14.878,0.441 0.793,0.215 2.575,0.566 3.961,0.785 1.383,0.219 2.758,0.488 3.051,0.602 0.781,0.293 0.883,1.14 0.324,2.64 -1.902,5.082 -3.144,13.387 -3.281,21.922 -0.07,4.438 -0.172,6.039 -0.394,6.192 -0.336,0.234 -1.692,0.148 -6.422,-0.403 -9.344,-1.086 -21.039,-2.047 -29.711,-2.441 -4.567,-0.207 -4.371,-0.031 -4.629,-4.188 -0.336,-5.394 -1.149,-13.89 -1.563,-16.304 -0.211,-1.254 -0.464,-3.739 -0.558,-5.52 -0.196,-3.633 -0.348,-4.266 -0.922,-3.789 -0.641,0.531 -1.016,1.797 -1.016,3.414 0,1.188 -0.254,2.359 -1.058,4.867 -1.379,4.325 -2.45,10.903 -2.75,16.914 -0.235,4.774 0.16,4.45 -6.41,5.258 -5.758,0.711 -9.715,1.34 -10.653,1.695 -2.66,1.012 -11.687,3.071 -13.492,3.079 -1.344,0.003 -1.301,0.484 -1.359,-14.43 -0.067,-15.762 -0.196,-14.758 2.121,-16.359 3.113,-2.153 4.164,-2.442 14.043,-3.887 3.168,-0.465 6.621,-1.071 7.679,-1.348 2.989,-0.785 6.536,-1.355 8.637,-1.383 1.586,-0.023 2.149,0.078 3.223,0.578 z m 56.777,4.766 c 2.113,0.316 4.531,0.758 5.375,0.977 1.879,0.488 6.176,2.152 8.781,3.402 0.391,0.187 1.633,0.73 2.758,1.203 1.129,0.473 3.02,1.289 4.207,1.813 2.106,0.925 9.235,3.851 12.84,5.269 2.387,0.942 5.668,2.602 7.383,3.742 1.594,1.059 2.68,1.93 8.414,6.758 2.285,1.926 4.777,3.985 5.535,4.578 1.945,1.528 3.672,2.996 8.047,6.84 4.125,3.629 6.797,5.945 10.078,8.738 2.598,2.219 3.266,3 3.266,3.848 0,0.371 -0.387,1.684 -0.856,2.922 -0.472,1.242 -1.015,2.773 -1.215,3.406 -0.511,1.653 -1.129,1.875 -2.777,0.992 -2.102,-1.117 -4.769,-2.41 -6.555,-3.168 -5.48,-2.332 -7.543,-3.175 -7.754,-3.175 -0.128,0 -0.921,-0.621 -1.761,-1.379 -0.84,-0.762 -1.957,-1.567 -2.485,-1.789 -2.214,-0.938 -8.714,-3.075 -9.359,-3.075 -0.656,0 -2.961,-1.152 -3.199,-1.605 -0.133,-0.246 -0.414,-1.348 -0.621,-2.445 -0.485,-2.559 -1.157,-4.11 -1.778,-4.11 -0.636,0 -0.859,0.328 -1.73,2.532 -0.84,2.125 -1.582,3.054 -2.426,3.042 -1.055,-0.011 -7.035,-1.261 -9.926,-2.074 -4.875,-1.371 -9.402,-2.539 -9.851,-2.539 -0.235,0 -0.977,-0.16 -1.649,-0.355 -1.547,-0.453 -7.062,-1.676 -10.855,-2.406 -3.047,-0.586 -4.246,-1.036 -4.496,-1.688 -0.082,-0.215 -0.149,-1.812 -0.149,-3.551 -0.004,-8.375 -1.297,-20.847 -2.523,-24.363 -0.68,-1.938 -0.711,-2.227 -0.309,-2.629 0.407,-0.406 1.242,-0.363 5.59,0.289 z m -100.23,8.484 c 0.363,0.676 0.578,19.469 0.254,22.063 -0.434,3.457 -0.903,3.914 -4.032,3.918 -2.129,0.004 -6.941,1.508 -16.351,5.113 -3.121,1.196 -10.52,4.516 -15.188,6.813 -1.422,0.699 -2.73,1.273 -2.902,1.273 -0.531,0 -0.992,-0.711 -2.738,-4.199 -2.649,-5.309 -3.211,-6.566 -3.129,-6.992 0.195,-1 14.48,-10.914 23.785,-16.512 0.426,-0.258 1.801,-1.137 3.055,-1.953 2.07,-1.356 5.597,-3.551 8.398,-5.231 0.594,-0.355 2.539,-1.554 4.32,-2.668 3.317,-2.07 4.133,-2.363 4.528,-1.625 z m -46.008,30.458 c 0.531,0.48 0.562,1.41 0.086,2.554 -0.727,1.735 -1.602,5.145 -1.828,7.129 -0.461,4.027 -0.977,4.828 -4.176,6.5 -1.848,0.961 -10.254,5.867 -12.242,7.141 -0.528,0.336 -1.25,0.875 -1.606,1.195 -0.676,0.613 -1.726,0.766 -2.176,0.316 -0.148,-0.144 -0.312,-0.914 -0.371,-1.707 -0.097,-1.339 -0.039,-1.554 0.86,-3.062 1.265,-2.133 3.679,-4.785 8.093,-8.891 3.719,-3.457 6.227,-6.027 7.387,-7.562 0.918,-1.215 4.43,-4.012 5.039,-4.012 0.274,0 0.696,0.18 0.934,0.399 z m 85.203,0.257 c 0.422,0.426 0.551,0.867 0.617,2.16 0.047,0.895 0.402,5.567 0.797,10.383 0.629,7.762 0.836,9.789 1.348,13.219 0.222,1.504 -0.02,1.586 -5.254,1.75 -2.547,0.082 -7.762,0.207 -11.59,0.277 -3.828,0.075 -9.207,0.309 -11.953,0.524 -4.528,0.351 -5.031,0.351 -5.371,0.012 -0.442,-0.442 -0.469,-4.036 -0.051,-7.379 0.152,-1.215 0.223,-5.414 0.176,-10.375 -0.078,-8.075 -0.067,-8.344 0.398,-8.778 0.707,-0.66 5.328,-1.406 11.399,-1.847 7.16,-0.516 7.371,-0.524 13.496,-0.5 5.304,0.019 5.468,0.035 5.988,0.554 z m 15.422,0.547 c 2.515,0.266 5.277,0.582 6.137,0.707 0.855,0.125 3.015,0.403 4.796,0.617 1.786,0.211 5.079,0.649 7.321,0.969 2.246,0.32 5.648,0.754 7.562,0.957 1.914,0.207 4.449,0.531 5.641,0.715 2.949,0.465 3.113,0.668 3.32,4.102 0.418,6.863 2.16,14.781 3.438,15.621 0.531,0.347 0.625,0.347 0.961,0.011 0.421,-0.421 1.988,-5.925 1.996,-7.007 0,-0.387 0.109,-1.305 0.238,-2.039 0.551,-3.149 0.965,-6.317 0.965,-7.399 0,-0.641 0.14,-1.359 0.316,-1.594 0.336,-0.464 0.313,-0.464 11.684,0.348 1.648,0.117 5.969,0.324 9.601,0.465 6.786,0.258 8.653,0.453 11.758,1.234 1.996,0.504 2.926,1.063 3.117,1.871 0.067,0.293 0.047,1.903 -0.043,3.578 -0.566,10.082 -0.621,12.426 -0.41,16.575 0.203,3.941 0.184,4.48 -0.168,5.019 l -0.394,0.602 -5.192,-0.16 c -5.582,-0.172 -4.785,-0.036 -13.468,-2.27 -3.36,-0.863 -9.364,-1.84 -16.563,-2.691 -1.254,-0.149 -2.656,-0.364 -3.117,-0.481 -0.465,-0.113 -2.57,-0.375 -4.68,-0.578 -2.113,-0.203 -4.707,-0.476 -5.761,-0.609 -1.735,-0.219 -4,-0.375 -17.161,-1.2 -2.175,-0.132 -7.039,-0.312 -10.8,-0.394 -4.938,-0.106 -6.977,-0.231 -7.336,-0.453 -0.489,-0.309 -0.493,-0.41 -0.446,-13.336 0.043,-12.254 0.075,-13.047 0.481,-13.344 0.562,-0.414 0.797,-0.406 6.207,0.164 z m -55.445,4.137 c 0.062,0.297 0.171,1.781 0.25,3.301 0.078,1.519 0.242,3.679 0.363,4.8 0.98,8.911 1.492,14.661 1.359,15.192 -0.25,1.008 -0.972,1.117 -13.594,2.09 -9.5,0.734 -21.742,2.082 -22.859,2.523 -0.273,0.11 -0.426,0.051 -0.434,-0.16 -0.218,-4.977 -0.351,-14.828 -0.199,-15.121 0.211,-0.406 2,-1.426 7.637,-4.344 1.773,-0.918 3.395,-1.762 3.602,-1.871 5.265,-2.824 12.664,-5.508 15.183,-5.508 1.106,0 5.625,-0.883 6.18,-1.207 0.203,-0.121 0.828,-0.222 1.387,-0.226 0.863,-0.008 1.031,0.074 1.125,0.531 z m 148.82,9.312 c 2.246,0.797 5.105,1.817 6.359,2.262 3.219,1.141 9.813,3.758 10.633,4.223 0.238,0.133 1.59,0.734 3,1.332 1.414,0.597 2.887,1.398 3.273,1.781 l 0.704,0.688 -0.282,1.753 c -0.156,0.961 -0.5,3.262 -0.769,5.11 -0.266,1.848 -0.649,4.41 -0.844,5.687 -0.195,1.282 -0.355,2.821 -0.355,3.422 0,0.77 -0.141,1.231 -0.481,1.571 -0.598,0.601 -0.879,0.597 -2.414,-0.008 -3.144,-1.239 -15.801,-3.91 -21.586,-4.555 -3.539,-0.395 -5.543,-0.777 -5.898,-1.129 -0.453,-0.457 -0.43,-1.004 0.121,-2.519 1.172,-3.235 2.238,-10.27 2.558,-16.868 0.09,-1.851 0.258,-3.55 0.379,-3.781 0.352,-0.68 1.278,-0.508 5.602,1.031 z m 40.355,3.204 c 3.211,3.062 9.797,9.753 11.485,11.664 1.617,1.836 5.91,7.496 7,9.23 0.414,0.668 1.679,2.777 2.804,4.695 1.125,1.918 2.934,4.887 4.02,6.602 1.082,1.711 2.668,4.246 3.523,5.629 1,1.625 2.075,3 3.02,3.871 l 1.469,1.352 -0.282,0.929 c -0.152,0.512 -0.519,1.742 -0.808,2.735 -0.813,2.761 -0.961,3.089 -1.469,3.25 -0.574,0.183 -1.348,-0.34 -4.859,-3.278 -4.211,-3.519 -9.86,-6.933 -11.477,-6.933 -0.285,0 -2.141,-0.801 -4.129,-1.782 -3.508,-1.73 -4.062,-1.984 -6.851,-3.14 -0.727,-0.305 -2.778,-1.164 -4.563,-1.914 -1.781,-0.75 -3.82,-1.575 -4.531,-1.825 -2.305,-0.816 -2.609,-1.386 -1.934,-3.617 0.461,-1.527 0.856,-3.418 2.024,-9.683 0.758,-4.078 0.769,-4.121 1.226,-4.293 0.199,-0.078 1.141,0.226 2.09,0.675 3.574,1.692 6.762,2.86 7.848,2.879 0.988,0.016 1.086,-0.035 1.152,-0.601 0.117,-1.012 -3.398,-5.152 -6.867,-8.09 -1.602,-1.359 -3.078,-2.703 -3.277,-2.992 -0.289,-0.41 -0.368,-1.262 -0.368,-3.91 0,-1.864 0.071,-3.461 0.161,-3.547 0.519,-0.52 1.382,-0.016 3.593,2.094 z m -235.343,10.714 c 0.351,2.051 0.746,3.938 0.882,4.2 0.137,0.257 0.2,0.796 0.137,1.191 -0.105,0.68 -0.676,1.016 -10.578,6.176 -5.754,3 -10.508,5.41 -10.563,5.355 -0.054,-0.054 0.192,-2.336 0.551,-5.07 0.356,-2.731 0.649,-5.356 0.649,-5.832 0,-1.766 0.187,-1.902 6.472,-4.691 3.211,-1.426 6.539,-2.977 7.399,-3.45 2.949,-1.617 3.242,-1.742 3.828,-1.676 0.562,0.067 0.613,0.219 1.223,3.797 z m 300.949,34.911 c 0.215,0.257 0.25,0.867 0.121,2.21 -0.188,2.008 -0.277,2.286 -1.266,3.918 -2.301,3.805 -3.301,5.161 -5.336,7.227 -1.254,1.273 -2.55,2.625 -2.886,3 -0.332,0.375 -2.114,2.262 -3.957,4.187 -1.848,1.926 -4.543,4.993 -5.997,6.817 -1.453,1.824 -3.019,3.715 -3.48,4.199 -0.461,0.481 -1.836,2.02 -3.055,3.418 -1.754,2.012 -2.441,2.625 -3.308,2.957 -1.078,0.414 -1.121,0.41 -3.184,-0.219 -2.508,-0.765 -2.695,-0.773 -5.586,-0.132 -1.984,0.437 -2.863,0.488 -7.066,0.406 -4.406,-0.086 -4.899,-0.137 -6,-0.649 -0.66,-0.304 -1.848,-0.625 -2.641,-0.707 -1.41,-0.148 -1.437,-0.168 -1.39,-0.847 0.027,-0.379 0.296,-0.957 0.601,-1.282 0.641,-0.683 4.059,-3 5.109,-3.457 0.395,-0.175 1.27,-0.66 1.946,-1.086 2.203,-1.386 9.797,-4.207 13.652,-5.07 1.192,-0.265 2.918,-0.765 3.844,-1.109 0.922,-0.344 2.375,-0.793 3.226,-0.992 0.852,-0.2 2.661,-0.918 4.016,-1.594 1.981,-0.985 2.703,-1.496 3.645,-2.57 0.644,-0.743 2.023,-2.219 3.062,-3.286 2.484,-2.55 4.664,-5.16 7.414,-8.859 3.336,-4.496 5.61,-6.414 8.067,-6.816 0.082,-0.012 0.285,0.136 0.449,0.336 z M 223.922,36.375 c -3.535,0.984 -8.453,2.738 -10.32,3.68 -0.993,0.496 -2.559,1.293 -3.481,1.765 -3.832,1.965 -7.152,3.539 -7.465,3.539 -0.187,0 -0.847,0.27 -1.476,0.598 -0.625,0.332 -2.016,0.969 -3.086,1.422 -2.606,1.098 -7.836,3.914 -8.133,4.379 -0.133,0.203 -0.699,0.863 -1.262,1.465 -0.558,0.601 -1.019,1.172 -1.019,1.269 0,0.211 2.285,-0.711 3.121,-1.258 0.554,-0.367 11.57,-5.789 14.277,-7.031 0.66,-0.305 1.703,-0.781 2.317,-1.066 0.617,-0.285 1.425,-0.61 1.8,-0.727 0.379,-0.117 2.172,-0.863 3.993,-1.66 1.82,-0.801 3.656,-1.555 4.082,-1.68 1.429,-0.422 7.96,-3.066 9.168,-3.711 0.66,-0.351 1.374,-0.64 1.589,-0.64 0.457,0 1.004,-0.571 0.77,-0.801 -0.332,-0.332 -2.922,-0.09 -4.875,0.457 z m -50.512,24 c -5.012,2.699 -9.242,4.906 -9.406,4.906 -0.164,0 -0.352,0.094 -0.422,0.207 -0.227,0.364 -3.809,3.02 -5.371,3.981 -1.055,0.652 -3.031,2.511 -6.613,6.23 -4.77,4.949 -5.145,5.403 -5.664,6.86 -1.485,4.16 -2.875,6.082 -5.536,7.632 -1.816,1.059 -6.277,4.11 -7.742,5.293 -0.968,0.782 -1.988,2.016 -3.398,4.118 -1.11,1.648 -2.547,3.593 -3.192,4.32 -1.566,1.766 -3.183,3.933 -4.023,5.398 -0.984,1.719 -2.16,3.266 -4.559,6 -1.16,1.321 -2.863,3.535 -3.785,4.918 -1.929,2.895 -2.633,3.817 -4.578,5.996 -1.402,1.571 -2.418,3.196 -2.269,3.637 0.093,0.285 3.691,-3.324 4.796,-4.816 0.438,-0.582 1.168,-1.578 1.633,-2.207 0.899,-1.223 1.981,-2.539 4.723,-5.75 2.332,-2.735 12.461,-12.957 13.547,-13.68 0.48,-0.316 1.887,-1.336 3.121,-2.262 1.238,-0.926 2.48,-1.844 2.762,-2.039 5.117,-3.558 5.351,-3.769 11.941,-10.695 4.063,-4.266 6.473,-6.973 6.258,-7.02 -0.195,-0.043 -0.352,-0.207 -0.352,-0.367 0,-0.301 3.125,-3.441 4.559,-4.578 0.461,-0.367 3.383,-3.113 6.492,-6.102 3.109,-2.988 6.711,-6.351 8.012,-7.476 6.504,-5.625 8.601,-7.516 8.234,-7.426 -0.031,0.012 -4.156,2.223 -9.168,4.922 z M 101.516,136.5 c -1.254,1.152 -3.621,4.07 -4.914,6.059 -0.997,1.531 -2.84,3.906 -4.633,5.968 -0.848,0.973 -2.227,2.809 -3.071,4.078 -2.293,3.461 -2.941,4.329 -4.757,6.403 -0.911,1.043 -2.286,2.871 -3.055,4.062 -1.504,2.336 -3.758,5.34 -5.816,7.754 -0.704,0.828 -2.243,2.93 -3.415,4.676 -1.175,1.742 -2.738,3.926 -3.472,4.855 -1.813,2.278 -2.598,3.485 -3.793,5.833 -1.137,2.23 -1.656,3.003 -3.82,5.679 -0.829,1.028 -1.723,2.258 -1.985,2.738 -0.262,0.481 -0.691,1.2 -0.949,1.594 -0.262,0.399 -0.676,1.153 -0.922,1.68 -0.246,0.527 -0.875,1.5 -1.394,2.16 -1.122,1.422 -1.407,2.039 -0.934,2.039 0.324,0 3.254,-3.469 3.254,-3.851 0,-0.106 0.484,-0.52 1.082,-0.922 0.637,-0.43 1.078,-0.606 1.078,-0.426 0,0.887 -1.695,5.488 -3.379,9.172 -1.055,2.308 -2.449,5.816 -3.101,7.797 -0.653,1.976 -1.454,4.164 -1.778,4.855 -0.804,1.711 -1.449,3.527 -2.062,5.817 -0.657,2.46 -1.219,4.117 -2.157,6.359 -1.179,2.812 -1.421,3.531 -2.203,6.48 -0.398,1.52 -1.254,4.063 -1.894,5.653 -1.352,3.347 -2.578,7.75 -2.746,9.847 -0.067,0.801 -0.336,2.305 -0.598,3.336 -0.406,1.578 -0.48,2.66 -0.48,6.703 0,2.653 0.113,5.512 0.25,6.352 0.222,1.367 0.41,1.727 1.738,3.324 3.816,4.59 5.816,8.567 6.672,13.266 0.582,3.187 0.164,15.91 -0.637,19.441 -0.437,1.934 -0.563,2.258 -2.398,6.141 -1.032,2.176 -1.676,3.945 -2.106,5.766 -0.336,1.441 -1.219,4.433 -1.957,6.644 -0.738,2.211 -1.605,5.039 -1.93,6.285 -0.324,1.242 -1.136,3.91 -1.808,5.926 -0.77,2.305 -1.309,4.426 -1.461,5.711 -0.219,1.914 -0.613,3.586 -1.656,7.086 -0.297,0.996 -0.469,2.59 -0.551,5.16 -0.074,2.25 -0.32,4.758 -0.621,6.348 -0.285,1.504 -0.496,3.605 -0.496,4.918 0,3.191 -0.426,7.32 -0.911,8.894 -0.339,1.09 -0.402,2.164 -0.355,6.199 0.031,2.684 0.211,6.196 0.402,7.801 0.196,1.606 0.418,4.11 0.5,5.559 0.082,1.453 0.407,5.015 0.723,7.922 0.312,2.902 0.695,6.558 0.848,8.121 0.148,1.562 0.418,3.347 0.597,3.961 0.567,1.945 1.067,4.847 1.426,8.316 0.191,1.848 0.555,3.965 0.813,4.699 0.254,0.735 0.804,3.367 1.222,5.844 0.414,2.48 1.016,5.332 1.328,6.344 0.891,2.859 1.039,3.531 1.543,6.996 0.262,1.781 0.758,4.211 1.106,5.398 0.347,1.188 0.906,3.293 1.242,4.68 0.621,2.566 1.074,3.648 2.773,6.566 0.524,0.911 1.278,2.528 1.668,3.602 0.797,2.191 1.711,3.898 3.235,6.062 0.57,0.809 1.039,1.547 1.039,1.641 0,0.098 0.234,0.461 0.519,0.813 0.368,0.453 0.461,0.5 0.321,0.156 -0.106,-0.266 -0.348,-1.129 -0.539,-1.918 -0.192,-0.793 -0.762,-2.738 -1.262,-4.32 -0.781,-2.469 -1.941,-6.196 -3.25,-10.442 -0.184,-0.594 -1.039,-3.941 -1.902,-7.441 -0.86,-3.496 -2,-7.981 -2.532,-9.957 -1.695,-6.313 -3.312,-13.34 -3.84,-16.684 -0.281,-1.781 -0.781,-4.805 -1.113,-6.719 -0.855,-4.914 -0.996,-6.261 -1.18,-11.281 -0.171,-4.703 0.106,-7.277 1.301,-12.14 0.258,-1.043 0.766,-3.196 1.125,-4.778 0.364,-1.586 0.864,-3.691 1.114,-4.68 0.414,-1.656 1.121,-5.062 1.988,-9.601 0.187,-0.988 0.519,-3.031 0.734,-4.535 0.219,-1.504 0.492,-2.992 0.614,-3.309 0.121,-0.316 0.437,-1.945 0.707,-3.625 0.269,-1.676 0.605,-3.699 0.75,-4.488 0.144,-0.793 0.46,-2.899 0.703,-4.684 0.8,-5.886 0.968,-7.054 1.336,-9.359 0.199,-1.254 0.504,-2.926 0.675,-3.719 0.172,-0.793 0.446,-2.09 0.606,-2.879 0.336,-1.668 1.543,-5.508 2.223,-7.082 0.253,-0.594 0.828,-2.183 1.269,-3.531 0.941,-2.856 1.113,-3.211 2.199,-4.543 0.629,-0.77 0.953,-1.563 1.43,-3.48 0.34,-1.368 0.863,-2.969 1.168,-3.567 1.641,-3.226 2.719,-9.324 2.746,-15.547 0.035,-8.183 -3.281,-25.301 -6.551,-33.82 -0.465,-1.219 -1.148,-2.723 -1.515,-3.352 -0.594,-1.015 -0.664,-1.355 -0.645,-3.187 0.035,-3.582 0.52,-9.008 0.887,-9.984 0.195,-0.524 0.965,-2.512 1.707,-4.426 0.742,-1.914 1.82,-4.887 2.394,-6.602 1.008,-3.023 4.203,-11.578 5.692,-15.238 0.402,-0.992 1.297,-3.207 1.992,-4.922 1.223,-3.02 3.437,-8 5.766,-12.961 1.507,-3.219 2.195,-5.336 2.652,-8.184 0.695,-4.375 1.183,-5.953 3.074,-9.972 1.125,-2.391 1.742,-3.965 2.481,-6.324 0.328,-1.055 1.273,-3.27 2.101,-4.918 0.828,-1.653 1.809,-3.703 2.176,-4.563 1.977,-4.59 2.508,-5.683 4.312,-8.879 1.082,-1.914 2.348,-4.234 2.821,-5.16 0.468,-0.922 1.476,-2.598 2.238,-3.719 3.203,-4.715 4.164,-6.234 5.25,-8.281 0.629,-1.187 1.91,-3.184 2.844,-4.437 0.933,-1.254 1.965,-2.645 2.289,-3.09 0.699,-0.957 1.578,-3.153 1.262,-3.153 -0.122,0 -0.778,0.512 -1.461,1.141 z m 107.011,112.234 c -0.195,0.434 -0.172,0.852 0.106,1.739 0.648,2.054 4.129,11.035 5.433,14.007 0.375,0.86 1.086,2.477 1.575,3.598 1.871,4.285 2.882,6.457 4.339,9.297 1.625,3.16 3.032,6.348 4.028,9.133 0.344,0.961 0.804,2.086 1.019,2.504 0.551,1.07 2.157,7.222 2.739,10.508 0.687,3.882 0.871,7.656 0.406,8.269 -0.297,0.391 -0.457,0.426 -0.93,0.211 -1.035,-0.473 -1.289,-1.316 -0.996,-3.352 0.371,-2.55 -0.031,-4.105 -1.719,-6.668 -0.918,-1.394 -1.902,-2.484 -3.281,-3.644 -1.871,-1.574 -2,-1.746 -2.59,-3.457 -0.34,-0.988 -0.746,-2.027 -0.906,-2.305 -0.504,-0.879 -1.977,-2.535 -2.898,-3.262 -1.032,-0.812 -7.719,-7.257 -14.04,-13.527 -3.632,-3.605 -4.859,-4.656 -7.253,-6.215 -1.582,-1.031 -3.582,-2.211 -4.438,-2.617 -0.992,-0.473 -2.043,-1.238 -2.883,-2.101 -0.722,-0.75 -1.695,-1.547 -2.16,-1.778 -0.461,-0.226 -1.433,-0.773 -2.156,-1.211 -1.563,-0.945 -4.668,-2.023 -5.824,-2.023 -0.453,0 -1.676,-0.231 -2.719,-0.512 -1.594,-0.43 -2.531,-0.508 -5.824,-0.488 -2.461,0.012 -4.614,0.156 -5.762,0.383 -1.008,0.199 -3.094,0.523 -4.633,0.722 -3.418,0.434 -6.422,1.184 -11,2.743 -3.691,1.257 -9.16,3.238 -9.961,3.613 -0.261,0.125 -1.773,0.73 -3.359,1.351 -5.168,2.016 -12.031,5.516 -19.078,9.727 -1.668,0.996 -3.805,2.023 -5.403,2.594 -4.058,1.445 -9.457,3.988 -12.961,6.097 -6.218,3.746 -8.964,5.77 -13.918,10.274 -7.48,6.797 -12.113,12.613 -15.812,19.871 -1.313,2.57 -2.789,6.402 -2.789,7.234 0,0.246 -0.469,1.348 -1.043,2.442 -1.043,1.988 -1.047,1.992 -1.199,5.23 -0.114,2.352 -0.059,3.895 0.203,5.641 0.598,3.98 1.308,7.32 2.039,9.597 0.383,1.188 0.801,2.594 0.926,3.121 0.531,2.235 3.965,11.45 5.547,14.879 5.234,11.368 10.246,19.442 16.644,26.813 1.027,1.187 3.164,3.851 4.742,5.914 5.379,7.043 6.133,7.723 9.875,8.93 2.227,0.714 4.629,1.832 8.586,3.988 0.992,0.539 2.879,1.391 4.199,1.894 1.321,0.504 3.75,1.645 5.403,2.536 1.765,0.953 4.183,2.011 5.879,2.57 1.586,0.523 3.683,1.289 4.668,1.699 2.191,0.918 3.968,1.383 6.011,1.578 2.625,0.246 4.813,0.614 7.243,1.219 3.238,0.809 4.347,0.762 6.851,-0.273 1.137,-0.473 3.477,-1.235 5.199,-1.692 1.961,-0.519 4.403,-1.41 6.504,-2.371 1.848,-0.844 4.391,-1.805 5.645,-2.137 2.941,-0.777 3.679,-1.05 6.719,-2.507 1.386,-0.665 3.89,-1.59 5.562,-2.059 3.242,-0.906 5.844,-1.875 8.066,-2.996 0.754,-0.379 2.598,-1.031 4.102,-1.445 1.5,-0.418 3.391,-1.036 4.199,-1.375 3.953,-1.653 9.086,-4.118 10.59,-5.086 0.926,-0.594 3.055,-1.704 4.738,-2.469 3.364,-1.535 3.227,-1.457 7.145,-4.008 3.726,-2.426 6.324,-5.082 8.387,-8.578 1.531,-2.59 3.371,-5.172 4.523,-6.344 1.133,-1.156 2.617,-3.262 3.98,-5.64 0.754,-1.321 1.704,-2.942 2.106,-3.598 0.406,-0.66 1.016,-1.742 1.352,-2.402 0.335,-0.661 0.761,-1.379 0.949,-1.602 0.187,-0.219 0.304,-0.648 0.261,-0.957 -0.066,-0.465 -0.269,-0.582 -1.246,-0.723 -1.839,-0.261 -1.836,-0.258 -1.836,-1.929 0,-4.559 -0.945,-10.2 -2.535,-15.114 -0.586,-1.808 -1.062,-3.554 -1.062,-3.886 0,-0.329 0.179,-1.336 0.402,-2.235 0.656,-2.644 0.547,-7.808 -0.246,-11.804 -0.969,-4.875 -0.816,-6.239 0.738,-6.618 0.364,-0.09 1.09,-0.453 1.606,-0.808 1.687,-1.156 3.922,-5.235 4.73,-8.629 0.449,-1.891 0.485,-2.61 0.379,-7.375 -0.125,-5.723 -0.176,-6.035 -2.047,-12.961 -1.14,-4.219 -2.039,-6.727 -3.652,-10.195 -2.641,-5.676 -4.785,-9.36 -7.609,-13.071 -1.809,-2.375 -6.715,-7.695 -9.02,-9.785 -1.891,-1.715 -6.371,-5.402 -7.594,-6.254 -0.851,-0.594 -1.648,-0.527 -1.961,0.16 z m 73.235,19.996 c -1.086,0.399 -2.16,2.176 -2.16,3.563 0,0.48 0.222,1.969 0.5,3.309 0.347,1.699 0.453,2.847 0.351,3.789 -0.105,0.949 -0.039,1.664 0.227,2.402 0.207,0.574 0.906,2.668 1.554,4.648 1.364,4.164 3.141,9.223 3.664,10.438 0.2,0.465 0.813,2.246 1.364,3.961 1.25,3.894 2.64,7.687 3.965,10.801 1.816,4.261 3.117,7.535 5.011,12.597 2.922,7.817 5.164,12.86 6.95,15.629 1.468,2.281 3.562,3.805 5.242,3.813 0.875,0.004 2.543,-0.793 3.386,-1.614 1.325,-1.296 1.746,-2.757 1.692,-5.886 l -0.047,-2.582 1.012,-0.512 c 0.554,-0.281 1.414,-0.832 1.914,-1.223 0.5,-0.394 1.601,-0.922 2.453,-1.179 2.976,-0.891 4.57,-2.758 7.972,-9.332 2.907,-5.614 5.473,-9.641 10.536,-16.54 2.257,-3.07 6.914,-9.972 8.269,-12.253 0.551,-0.926 1.688,-2.426 2.531,-3.336 1.989,-2.149 2.727,-3.715 2.723,-5.782 -0.004,-1.992 -0.566,-3.257 -2.133,-4.781 -1.406,-1.371 -5.437,-3.453 -7.461,-3.851 -1.566,-0.305 -2.156,-0.68 -3.664,-2.313 -0.773,-0.836 -1.668,-1.473 -2.812,-2 -2.535,-1.168 -7.008,-1.43 -15.981,-0.937 -7.601,0.418 -7.859,0.418 -20.621,0 -5.148,-0.168 -9.961,-0.239 -10.691,-0.157 -1.031,0.121 -1.66,0.039 -2.754,-0.343 -1.395,-0.493 -2.285,-0.586 -2.992,-0.329 z"
         style="fill:#000000;fill-opacity:1;fill-rule:nonzero;stroke:none"
         id="path18"
         inkscape:connector-curvature="0" /></g></g></svg>