<?xml version="1.0" encoding="UTF-8" standalone="no"?>
<!-- Created with Inkscape (http://www.inkscape.org/) -->

<svg
   xmlns:dc="http://purl.org/dc/elements/1.1/"
   xmlns:cc="http://creativecommons.org/ns#"
   xmlns:rdf="http://www.w3.org/1999/02/22-rdf-syntax-ns#"
   xmlns:svg="http://www.w3.org/2000/svg"
   xmlns="http://www.w3.org/2000/svg"
   xmlns:sodipodi="http://sodipodi.sourceforge.net/DTD/sodipodi-0.dtd"
   xmlns:inkscape="http://www.inkscape.org/namespaces/inkscape"
   id="svg2"
   version="1.1"
   inkscape:version="0.91 r13725"
   width="462.03995"
   height="680.05707"
   viewBox="0 0 462.03995 680.05707"
   sodipodi:docname="sans-character-silhouette.svg">
  <metadata
     id="metadata8">
    <rdf:RDF>
      <cc:Work
         rdf:about="">
        <dc:format>image/svg+xml</dc:format>
        <dc:type
           rdf:resource="http://purl.org/dc/dcmitype/StillImage" />
        <dc:title />
      </cc:Work>
    </rdf:RDF>
  </metadata>
  <defs
     id="defs6" />
  <sodipodi:namedview
     pagecolor="#ffffff"
     bordercolor="#666666"
     borderopacity="1"
     objecttolerance="10"
     gridtolerance="10"
     guidetolerance="10"
     inkscape:pageopacity="0"
     inkscape:pageshadow="2"
     inkscape:window-width="1280"
     inkscape:window-height="751"
     id="namedview4"
     showgrid="false"
     fit-margin-top="0"
     fit-margin-left="0"
     fit-margin-right="0"
     fit-margin-bottom="0"
     inkscape:zoom="0.5036278"
     inkscape:cx="670.64381"
     inkscape:cy="261.04669"
     inkscape:window-x="0"
     inkscape:window-y="29"
     inkscape:window-maximized="1"
     inkscape:current-layer="svg2"
     showguides="true"
     inkscape:guide-bbox="true">
    <sodipodi:guide
       position="334.57248,326.63011"
       orientation="0,1"
       id="guide3367" />
  </sodipodi:namedview>
  <path
     style="fill:#000000;fill-opacity:1;fill-rule:evenodd;stroke:none;stroke-width:1px;stroke-linecap:butt;stroke-linejoin:miter;stroke-opacity:1"
     d="m 187.76172,0 c -0.30908,0 -0.56762,0.10577344 -0.80078,0.30273438 -0.0697,0.0543117 -0.13466,0.11326466 -0.19532,0.1796875 l 0,0.001953 c -0.0676,0.0741303 -0.13082,0.15138474 -0.18554,0.23828125 -0.10293,0.12795561 -0.19599,0.26719545 -0.27735,0.41601567 -0.37474,0.4947638 -0.88835,0.7510978 -2.11718,1.0566406 -2.63565,0.65534 -6.75896,1.3366975 -10.35938,1.7109375 -0.56253,0.058471 -1.0169,0.1213945 -1.53515,0.1816406 -0.4256,0.050795 -0.85665,0.097621 -1.25782,0.1484375 -0.46234,0.059254 -0.91346,0.1202707 -1.33789,0.1816407 -1.52039,0.1908191 -2.81141,0.4265941 -3.98437,0.7382812 -0.91588,0.2212672 -1.73538,0.4530552 -2.36524,0.7089844 -0.0676,0.027489 -0.22954,0.078821 -0.30859,0.109375 -0.70961,0.2282019 -1.44328,0.4850088 -2.1875,0.7695312 -0.93673,0.3063248 -1.96123,0.6254288 -2.87695,0.8886719 -5.83119,1.67631 -7.41818,2.3623275 -9.17774,3.9609376 -0.88219,0.80151 -1.62935,1.65875 -1.66015,1.90625 -0.0173,0.138913 -0.0433,0.20209 -0.0723,0.226562 l -0.0332,0.01172 c -0.0292,-0.01391 -0.0614,-0.05896 -0.10157,-0.158203 -0.11558,-0.28588 -0.34471,-0.270554 -1.0039,0.07031 -0.36751,0.190053 -1.84357,0.833878 -3.20703,1.423828 l -0.39649,0.171875 c -0.19008,0.08259 -0.51701,0.231712 -0.76953,0.34375 -0.11164,0.04784 -0.20194,0.09082 -0.3125,0.138672 -0.24833,0.105283 -0.44526,0.188536 -0.69726,0.298828 l -5.75391,2.03125 -1.74023,1.304687 c -0.80799,0.372451 -1.78081,0.881593 -2.03516,1.101563 -1.09243,0.585612 -2.18785,1.200749 -3.14649,1.785156 -0.0112,0.0066 -0.022,0.01297 -0.0332,0.01953 -0.004,0.0023 -0.008,0.0055 -0.0117,0.0078 -0.52104,0.305636 -1.04319,0.616379 -1.58398,0.945312 -0.35207,0.212524 -0.6956,0.424836 -1.04492,0.640625 -0.54683,0.277833 -1.18005,0.645845 -1.4668,0.884766 -0.0478,0.03986 -0.19008,0.128144 -0.27539,0.1875 -0.56106,0.334517 -1.12673,0.670791 -1.6836,1.005859 -0.25534,0.153645 -0.63437,0.379697 -0.96874,0.580078 -0.42614,0.24818 -0.85082,0.499708 -1.26954,0.757813 -0.32105,0.191712 -0.65072,0.391344 -0.91211,0.546875 -0.21293,0.126698 -0.4501,0.284292 -0.67968,0.43164 -0.12695,0.07968 -0.25823,0.16337 -0.375,0.238282 -0.043,0.02857 -0.0835,0.05481 -0.12696,0.08398 -0.67821,0.439194 -1.22735,0.819555 -1.71093,1.195313 -0.62014,0.481861 -1.1886,0.938275 -1.75391,1.394531 -0.22608,0.181147 -0.43915,0.341389 -0.66797,0.529297 -1.83883,1.488341 -3.65811,3.12168 -5.5039,4.951172 -1.4527,1.439856 -2.16698,2.280595 -2.9629,3.607421 -0.0249,0.04155 -0.0511,0.07852 -0.0762,0.121094 -0.0661,0.111694 -0.13598,0.205211 -0.20312,0.324219 -0.029,0.05159 -0.0604,0.108864 -0.0898,0.162109 -0.34862,0.629571 -0.73251,1.369419 -1.21484,2.333985 l -0.0137,0.02734 c -0.92411,1.828987 -2.20989,4.32079 -3.12891,6.035157 -1.03558,1.9318 -1.88281,3.607636 -1.88281,3.722656 0,0.0045 0.005,0.0019 0.006,0.0059 -4e-5,6.97e-4 -0.006,0.0111 -0.006,0.01172 0,0.0043 0.009,-0.0012 0.01,0.002 -0.0381,0.08584 -0.1332,0.273724 -0.15821,0.335938 L 97.81055,54 89.85742,66.498047 88.45313,75.162109 c -0.0833,0.379148 -0.1649,0.763906 -0.2461,1.152344 -0.0543,0.264176 -0.11465,0.49362 -0.16797,0.761719 -4.2e-4,0.0021 -0.001,0.0037 -0.002,0.0059 -0.12672,0.637378 -0.23326,1.310851 -0.35352,1.964844 -0.0145,0.0787 -0.0286,0.157453 -0.043,0.236328 -0.64524,3.483924 -1.19394,7.083179 -1.52735,10.308594 l -0.4668,2.880859 0.17579,0.628906 c -0.005,0.07987 -0.0133,0.169193 -0.0176,0.248047 -3e-4,0.0054 -0.002,0.01215 -0.002,0.01758 l 0,0.002 c -7e-5,0.0014 8e-5,0.0025 0,0.0039 -0.0464,0.869773 -0.0581,1.647605 -0.0547,2.375 0.001,0.249288 0.002,0.499264 0.01,0.728515 0.006,0.173688 0.0101,0.345908 0.0195,0.507813 0.0203,0.346779 0.0481,0.663396 0.0859,0.951172 0.006,0.0494 0.007,0.11662 0.0137,0.164062 0.18107,1.2375 0.40821,3.466168 0.50391,4.951168 0.003,0.0446 0.009,0.10495 0.0117,0.14844 0.003,0.0482 0.0122,0.1035 0.0156,0.15234 0.037,0.57187 0.093,1.11507 0.16016,1.64063 0.0171,0.13773 0.0355,0.28374 0.0547,0.42187 0.0974,0.73116 0.20326,1.36427 0.3125,1.82422 0.0514,0.2559 0.11772,0.54578 0.17773,0.81445 0.17809,0.90834 0.31129,2.27318 0.31055,3.37696 -10e-4,2.3916 0.0225,2.46708 1.98633,6.33008 0.7566,1.48833 1.18546,2.3937 1.49609,3.17578 0.1239,0.29977 0.22334,0.5668 0.31055,0.82617 0.0368,0.12264 0.0773,0.24752 0.10742,0.36914 0.0602,0.26118 0.1078,0.52417 0.15039,0.78906 9.4e-4,0.007 9.5e-4,0.0143 0.002,0.0215 0.0315,0.20343 0.0561,0.46193 0.082,0.69336 0.0711,0.74528 0.11644,1.57612 0.12696,2.43554 5e-5,0.006 -5e-5,0.009 0,0.0156 0.0105,1.29077 -0.0341,2.27676 -0.16211,3.12109 -0.0127,0.0821 -0.0188,0.17442 -0.0332,0.25391 -0.0127,0.071 -0.0347,0.13222 -0.0488,0.20117 -0.33769,1.35199 -0.9515,2.49628 -1.91602,3.6875 l -0.9707,1.20117 0.10547,2.21484 c 0.009,0.24994 0.009,0.41601 0.0215,0.72657 0.0224,0.56737 0.0592,1.0527 0.10156,1.49219 0.22133,2.78453 0.81075,4.92967 2.57032,9.66601 0.98864,2.66122 1.75822,4.68766 2.53515,6.74219 l -6.01758,3.00976 c 0.0532,-0.0779 0.11455,-0.18301 0.16407,-0.25 0.69686,-0.94254 0.56304,-1.63287 -0.40235,-2.08007 -0.33864,-0.15687 -0.59467,-0.12363 -1.0039,0.19335 -0.1301,0.0683 -0.26914,0.16478 -0.41602,0.29102 -0.20015,0.13418 -0.39691,0.32061 -0.58008,0.56836 -0.0168,0.0227 -0.0247,0.04 -0.041,0.0625 -0.08,0.0934 -0.1508,0.16637 -0.24024,0.2793 -0.0319,0.0402 -0.0638,0.0934 -0.0957,0.13476 -0.074,0.0901 -0.12761,0.14048 -0.20703,0.24024 -0.046,0.0577 -0.0941,0.13427 -0.14063,0.19531 -0.78127,0.94582 -1.51365,2.10154 -2.19336,3.37109 l -1.64453,1.13868 c -0.11111,-0.4346 -0.4667,-0.6922 -0.99414,-0.6543 -0.0959,0.007 -0.18486,0.0135 -0.29297,0.0215 -0.0769,-0.002 -0.1577,0.009 -0.24023,0.0195 -0.0273,0.002 -0.0497,0.004 -0.0762,0.006 -0.0306,0.002 -0.0605,0.002 -0.0918,0.006 -0.10072,0.008 -0.23844,0.0181 -0.30664,0.0234 -0.14177,0.0111 -0.35713,0.14876 -0.59961,0.3418 -0.33456,0.21409 -0.65807,0.51066 -0.93359,0.86914 -0.11024,0.12079 -0.22103,0.2385 -0.32618,0.375 -0.0349,0.0453 -0.0802,0.12083 -0.11718,0.17187 -10e-4,10e-4 -0.003,0.003 -0.004,0.004 -0.12409,0.15282 -0.24947,0.32272 -0.375,0.49414 -0.62537,0.80184 -1.23515,1.67958 -1.66993,2.49609 l -3.32031,2.29688 c -0.14731,0.0237 -0.31903,0.0447 -0.42187,0.0723 -0.39551,0.10599 -0.67578,0.0456 -0.67578,-0.14453 0,-0.60708 1.88307,-2.47105 2.94335,-2.91406 1.00618,-0.42042 1.02996,-0.46265 0.48243,-0.87695 -0.60234,-0.45579 -1.27298,-0.57807 -1.97266,-0.39844 -0.57262,0.0558 -1.00398,0.34847 -1.91211,1.18555 -0.0289,0.0266 -0.0605,0.0692 -0.0898,0.0977 -0.0902,0.09 -0.17952,0.19048 -0.26953,0.28906 -0.13826,0.15317 -0.27797,0.31634 -0.42187,0.50196 -0.42868,0.53603 -0.8511,1.1595 -1.26172,1.88281 -0.7589,1.25801 -1.44733,2.72239 -2,4.29883 -0.17111,0.46932 -0.32856,0.93407 -0.45508,1.3789 -0.42206,1.48402 -0.56016,1.68556 -0.94141,1.36915 -0.17943,-0.14894 -0.30387,-0.21987 -0.41211,-0.21094 -0.0536,0.004 -0.10647,0.03 -0.15625,0.0742 -0.0307,0.0275 -0.0636,0.0762 -0.0957,0.11914 l -0.002,0.002 -0.002,0.002 0,0.002 c -0.019,0.0258 -0.0366,0.0391 -0.0566,0.0703 -0.0248,0.0385 -0.0477,0.11518 -0.0723,0.16016 l -0.002,0.002 c -0.16099,0.27343 -0.32826,0.66794 -0.53711,1.32031 -0.0761,0.23768 -0.13861,0.67651 -0.19726,1.19141 -0.007,0.0343 -0.0131,0.0668 -0.0195,0.10156 -0.006,0.0322 -0.0136,0.0611 -0.0195,0.0937 -0.0213,0.11926 -0.0461,0.22172 -0.0664,0.3457 -0.007,0.0447 -0.0161,0.0777 -0.0234,0.12305 -0.088,0.54049 -0.17012,1.1318 -0.24219,1.76367 -0.0752,0.6597 -0.15834,1.28607 -0.23437,1.76367 -0.076,0.47761 -0.14345,0.80616 -0.1836,0.8711 -0.0803,0.1299 -0.43542,1.30636 -0.78906,2.61523 -1.36261,5.04321 -0.9937,13.15393 0.74805,16.42969 0.21956,0.41295 0.46433,1.09459 0.67187,1.80664 0.0913,0.43415 0.15781,0.72627 0.24219,1.13672 l 0.27344,1.33398 c 0.13606,0.95083 0.0419,1.27845 -0.28125,1.83203 l -0.14844,0.26954 -0.004,0.008 c -0.19651,0.32764 -0.48446,0.83809 -0.85938,1.52734 -0.27256,0.47822 -0.57716,0.98509 -0.89258,1.48828 -0.41697,0.61856 -0.84442,1.16859 -1.33593,1.6875 -0.016,0.0169 -0.0288,0.0359 -0.0449,0.0527 -0.005,0.005 -0.009,0.009 -0.0137,0.0137 l -0.002,0.002 c -0.0409,0.0426 -0.0911,0.0846 -0.13281,0.12696 -0.26522,0.26927 -0.54052,0.53576 -0.85156,0.81054 -0.0623,0.055 -0.11527,0.11088 -0.17579,0.16602 -0.2338,0.21209 -0.45388,0.42167 -0.65625,0.625 -0.0582,0.0587 -0.11231,0.1157 -0.16796,0.17383 -0.199,0.20701 -0.38336,0.41361 -0.55274,0.61718 -0.0417,0.0503 -0.0852,0.1004 -0.125,0.15039 -0.60028,0.75145 -1.01948,1.50675 -1.31445,2.37305 -0.0241,0.0642 -0.0536,0.12667 -0.0762,0.19141 -0.029,0.0832 -0.0498,0.16965 -0.0762,0.2539 -0.13581,0.43337 -0.24531,0.87697 -0.31445,1.33985 -0.25764,1.05014 -0.74309,1.83244 -2.25977,3.62695 -4.58814,5.42865 -8.928,12.73731 -14.00781,23.58789 -5.92988,12.66636 -7.07822,15.08982 -9.52149,20.09961 -1.35671,2.78185 -2.84708,5.61086 -4.37695,8.35156 -0.3873,0.68237 -0.78433,1.37387 -1.19727,2.08594 -0.51481,0.86923 -1.17823,1.99981 -1.46093,2.46289 -0.24734,0.40515 -0.56792,0.9673 -0.84961,1.44531 -0.0195,0.0315 -0.0391,0.0662 -0.0586,0.0977 -0.002,0.003 -0.004,0.009 -0.006,0.0117 -0.0134,0.0215 -0.0334,0.0582 -0.0469,0.0801 -0.44179,0.71607 -0.96562,1.60313 -1.53711,2.60547 -0.47206,0.828 -0.97715,1.74768 -1.47852,2.6621 -0.0309,0.0564 -0.0609,0.10752 -0.0918,0.16407 -0.0853,0.15535 -0.16923,0.30181 -0.25391,0.45703 -0.009,0.0169 -0.0182,0.0319 -0.0273,0.0488 -7.1e-4,10e-4 -10e-4,0.003 -0.002,0.004 -0.0514,0.0946 -0.0972,0.18271 -0.14843,0.27735 -0.10263,0.18955 -0.19326,0.3675 -0.29492,0.55664 -0.47592,0.88331 -0.94871,1.76105 -1.3711,2.57812 -0.51275,0.98459 -1.022,1.99928 -1.4043,2.8125 -7.4e-4,0.002 -10e-4,0.004 -0.002,0.006 -0.0378,0.0804 -0.10212,0.20206 -0.14257,0.28711 -0.50116,1.04558 -1.19771,2.42803 -1.92578,3.83985 -0.0413,0.0801 -0.078,0.151 -0.11915,0.23046 -0.0692,0.13378 -0.13478,0.2554 -0.20312,0.38672 -0.13438,0.25378 -0.29994,0.58409 -0.41797,0.80078 -0.39892,0.73241 -0.98193,1.84781 -1.6543,3.16211 -0.10686,0.20873 -0.21543,0.42314 -0.32617,0.64063 -1.1481,2.23781 -2.39463,4.74554 -3.53906,7.09961 -0.88266,1.79998 -1.70302,3.48939 -2.26563,4.69726 -0.33333,0.71564 -0.49181,1.01029 -0.7539,1.54493 -0.10302,0.17973 -0.20792,0.37165 -0.3086,0.52734 l 0,0.002 c -0.34409,0.53241 -0.67248,0.91964 -0.96875,1.13867 -1.12563,0.83223 -2.06577,2.31059 -2.40625,3.78125 -0.25129,1.08546 -7.2e-4,2.86272 0.59766,4.76368 0.0349,0.6674 0.12333,1.20535 0.28516,1.36718 0.11059,0.1106 0.18413,0.13649 0.23828,0.10157 0.14111,0.35368 0.28968,0.7078 0.45117,1.05664 0.18092,0.39082 0.37401,0.77495 0.57813,1.15039 0.7672,1.41108 2.37427,4.38968 3.57226,6.61718 2.5598,4.75962 7.67934,13.2533 10.20703,17.00586 0.3611,0.53608 0.66785,0.97516 0.90821,1.29297 0.43675,0.5775 1.55128,2.06328 2.4746,3.30078 0.92333,1.2375 2.25919,2.94716 2.97071,3.79883 0.71152,0.85167 3.673,4.49628 6.58008,8.09961 2.11625,2.62311 4.13207,5.03543 6.0957,7.3125 l 0.002,0.002 c 9.2e-4,10e-4 9.5e-4,0.003 0.002,0.004 0.001,0.001 0.003,0.003 0.004,0.004 1.20502,1.41218 2.39688,2.7883 3.51758,4.02929 0.61027,0.67578 1.31579,1.4315 2.09375,2.2461 10e-4,10e-4 0.002,0.002 0.004,0.004 0.0555,0.0581 0.1235,0.1269 0.17969,0.18555 2.3444,2.50094 4.65186,4.82376 6.98632,7.03711 0.3655,0.34653 0.7586,0.70065 1.13672,1.05664 0.004,0.004 0.008,0.008 0.0117,0.0117 0.007,0.006 0.0129,0.0131 0.0195,0.0195 0.0117,0.0112 0.0235,0.022 0.0352,0.0332 0.99486,0.9558 1.99303,1.90486 2.97266,2.82422 0.0135,0.0127 0.0275,0.0264 0.041,0.0391 0.9764,0.91599 1.93677,1.80364 2.85351,2.64062 1.28237,1.17094 2.42873,2.1834 3.48438,3.09375 0.48261,0.41666 0.98866,0.86167 1.4082,1.20898 l 0.72461,0.59961 -0.008,-0.0117 0.0137,0.0117 -0.10547,-0.14648 -0.006,-0.008 -0.35937,-0.53125 -0.0117,-0.0176 c -0.0117,-0.0172 -0.10354,-0.11726 -0.1211,-0.14063 l 0,-0.002 -0.002,-0.002 -0.0391,-0.0527 c -0.0326,-0.0455 -0.27374,-0.30629 -0.33984,-0.38672 -0.30311,-0.36058 -0.64203,-0.7551 -1.24805,-1.42382 -0.004,-0.004 -0.004,-0.005 -0.008,-0.01 -0.002,-0.002 -0.004,-0.004 -0.006,-0.006 -0.38603,-0.42583 -0.81579,-0.88605 -1.29882,-1.4082 -0.31338,-0.33803 -0.56241,-0.61781 -0.89063,-0.9668 -0.11723,-0.12465 -0.18644,-0.20587 -0.30078,-0.32812 -1.60781,-1.72623 -2.9425,-3.233 -3.125,-3.54102 0.0308,0.007 0.0883,0.0386 0.24414,0.16406 l 0.002,0 c 1.32637,1.06716 6.65104,5.95184 6.96094,6.42578 0.11467,0.17538 1.45104,1.32171 2.9707,2.54883 1.51967,1.22712 3.31653,2.708 3.99219,3.29102 1.32604,1.14419 3.4184,2.71307 6.42578,4.81445 1.0441,0.72957 2.20574,1.59578 2.58008,1.92578 l 0.65625,0.58008 c -0.0131,0.21456 -0.0286,0.39804 -0.041,0.62109 -0.48395,8.70366 -0.63335,12.74826 -0.52344,14.09961 0.001,0.0183 5.9e-4,0.0492 0.002,0.0684 6.8e-4,0.0179 0.001,0.0514 0.002,0.0684 0.002,0.0403 -1.6e-4,0.12676 0.002,0.16211 0.0108,0.18586 0.007,0.34384 0.0117,0.51563 -0.009,0.60659 -0.0748,1.33586 -0.14844,2.05859 -1.3e-4,10e-4 1.3e-4,0.003 0,0.004 -0.0855,0.45559 -0.19591,0.91778 -0.36523,1.4375 -0.5893,1.80881 -0.74951,3.37735 -0.48438,4.77343 0.0379,0.19944 0.0835,0.39537 0.13867,0.58789 0.086,0.30001 0.13086,0.54465 0.13086,0.7129 0,0.0841 -0.0117,0.14902 -0.0332,0.19336 -0.0212,0.0437 -0.0555,0.0677 -0.0977,0.0684 -0.0153,0 -0.0283,0.0126 -0.043,0.0176 -0.0177,0.006 -0.0363,0.009 -0.0527,0.0215 -0.13242,0.0181 -0.17375,0.17392 -0.17773,0.48632 -1.8e-4,0.0136 -0.004,0.019 -0.004,0.0332 0,0.001 0.002,0.003 0.002,0.004 -3e-5,0.007 -0.002,0.009 -0.002,0.0156 l 0,0.002 0,0.004 c 0,0.0134 0.0123,0.0311 0.0137,0.0449 1.8e-4,0.002 0.002,0.004 0.002,0.006 1.2e-4,10e-4 -1.3e-4,0.003 0,0.004 2.8e-4,0.002 0.002,0.005 0.002,0.008 0.01,0.0551 0.0226,0.11153 0.0547,0.17773 0.0289,0.0645 0.0719,0.13254 0.12109,0.20313 l 0,0.002 c 0.0214,0.0316 0.048,0.0632 0.0723,0.0957 10e-4,10e-4 0.003,0.003 0.004,0.004 0.0679,0.0852 0.14628,0.17266 0.23828,0.26367 0.38011,0.41682 0.87512,0.82519 1.24219,0.95703 0.49689,0.31477 1.06165,0.62216 1.66992,0.89454 0.004,0.002 0.008,0.004 0.0117,0.006 0.26454,0.11817 0.5362,0.22988 0.81055,0.33204 2.16944,0.80789 5.45071,1.77339 9.04883,2.70507 3.73127,1.07191 7.67274,1.92986 12.88281,2.8418 0.61875,0.1083 1.125,0.26365 1.125,0.34375 0,0.08 -0.47919,0.56642 -1.06641,1.08203 -0.20639,0.18121 -0.39775,0.36533 -0.57421,0.55274 -0.17607,0.18706 -0.3397,0.37742 -0.48829,0.57617 l 0,0.002 c -0.29775,0.39828 -0.54279,0.82438 -0.74414,1.30274 -0.10067,0.23918 -0.18947,0.49031 -0.26953,0.75781 l 0,0.002 c -0.0799,0.26698 -0.15124,0.54892 -0.21289,0.84961 l 0,0.002 c -0.12355,0.60268 -0.21296,1.2776 -0.27734,2.04883 -0.12397,1.485 -0.36403,3.57789 -0.53321,4.65039 -0.17812,1.12919 -0.34411,2.23702 -0.50195,3.33985 -1.8e-4,10e-4 1.8e-4,0.003 0,0.004 -0.15763,1.10154 -0.30726,2.19804 -0.44726,3.30078 -1.7e-4,10e-4 1.6e-4,0.003 0,0.004 -0.0377,0.29697 -0.0709,0.60206 -0.10743,0.90039 -0.18462,1.50723 -0.35475,3.04821 -0.51367,4.63086 -0.0434,0.43196 -0.091,0.84817 -0.13281,1.28906 -2.5e-4,0.003 2.5e-4,0.005 0,0.008 -0.18624,1.96621 -0.35003,4.1158 -0.51172,6.33594 -0.007,0.0875 -0.0167,0.16811 -0.0234,0.25586 -0.0119,0.1549 -0.0234,0.30922 -0.0351,0.46485 -0.0151,0.2136 -0.0339,0.38299 -0.0488,0.59961 -1.9e-4,0.003 1.9e-4,0.005 0,0.008 -0.0185,0.26728 -0.0345,0.61272 -0.0527,0.88476 -0.0907,1.26086 -0.18361,2.52122 -0.26562,3.82813 -0.002,0.0334 -0.004,0.0641 -0.006,0.0976 -0.20649,3.30234 -0.37708,6.78062 -0.52734,10.36719 -0.0394,0.92947 -0.0833,1.83492 -0.11914,2.78516 -0.003,0.0839 -0.007,0.17181 -0.01,0.25586 -0.0778,2.08467 -0.15004,4.20629 -0.21094,6.39062 -0.13978,5.01345 -0.0138,13.81484 0.2461,22.68946 0.1527,6.07774 0.25639,12.17665 0.21679,14.35937 -0.0463,2.5575 -0.0793,8.79342 -0.0723,13.85742 l 0.004,2.74024 c -0.0174,0.98707 -0.0415,2.1152 -0.0449,2.8164 -2.6e-4,0.0348 2.2e-4,0.0654 0,0.0996 -0.01,1.00107 0.006,1.75035 0.0508,2.33203 l 0.002,1.21875 0.80859,1.38086 c 0.32308,0.55129 0.75848,1.08413 1.25781,1.56836 0.0189,0.0184 0.0375,0.0403 0.0566,0.0586 0.0649,0.0617 0.13619,0.11778 0.20313,0.17773 0.11365,0.10204 0.22492,0.20652 0.34375,0.30273 0.002,10e-4 0.004,0.004 0.006,0.006 0.37754,0.30517 0.77741,0.57857 1.18945,0.81055 0.001,7.1e-4 0.003,9.5e-4 0.004,0.002 0.20576,0.1157 0.41566,0.22108 0.625,0.31446 l 0.002,0.002 c 0.0799,0.0357 0.16018,0.0597 0.24023,0.0918 0.13038,0.0522 0.26042,0.10997 0.39063,0.15234 0.60573,0.19711 1.52595,0.71046 2.04492,1.14063 3.11864,2.58489 7.86547,6.10644 9.60352,7.125 3.32736,1.94997 9.18658,3.5125 14.58789,3.89062 1.6143,0.11301 2.99174,0.2969 3.06054,0.4082 0.0688,0.11133 0.14995,3.0278 0.18164,6.48047 0.004,0.3845 0.021,0.753 0.0273,1.14453 0.0267,1.71984 0.0685,3.27016 0.12695,4.66016 0.0337,0.76837 0.0689,1.41216 0.10742,1.95117 0.0149,0.19992 0.028,0.63077 0.043,0.76953 l 0,0.002 c 0.13381,1.2375 0.3149,3.80172 0.4043,5.69922 0.007,0.15254 0.0175,0.27599 0.0254,0.42773 0.0231,0.61773 0.0456,0.92577 0.0723,1.74805 0.0284,0.87602 0.11489,1.60664 0.21093,1.88672 0.004,0.0267 0.0114,0.12836 0.0156,0.14843 l 0,0.002 c 0.0361,0.17229 0.055,0.30969 0.041,0.42578 l 0,0.002 c -0.007,0.0583 -0.0231,0.1104 -0.0488,0.16016 -0.12878,0.24883 -0.51644,0.41465 -1.41797,0.73242 -0.7607,0.26814 -1.5792,0.60718 -2.4043,0.97851 -1.83636,0.76182 -3.47284,1.65058 -4.88867,2.65039 -0.28951,0.19564 -0.55716,0.38831 -0.78906,0.57032 -0.40333,0.31656 -0.82154,0.68525 -1.21875,1.0625 -0.39682,0.37694 -0.7728,0.76215 -1.08985,1.11718 l 0,0.002 c -0.63466,0.71069 -1.03565,1.29443 -0.9082,1.42187 0.0657,0.0657 0.92744,-0.48764 1.91601,-1.23047 0.0971,-0.073 0.20936,-0.13885 0.3086,-0.21093 l -3.00781,6.01172 c -0.69949,0.7414 -1.40175,1.56503 -2.10157,2.44531 l -0.002,0.002 c -0.57501,0.66601 -1.23756,1.5498 -1.97852,2.6582 l -0.002,0.002 c -1.23394,1.79305 -2.39003,3.71836 -3.36914,5.64258 -1.05265,2.06872 -2.73295,5.6627 -4.23828,8.99414 -0.008,0.0181 -0.0172,0.0347 -0.0254,0.0527 -0.0174,0.0383 -0.0354,0.077 -0.0527,0.11524 -0.0995,0.21415 -0.19665,0.42807 -0.29492,0.64257 -0.14278,0.31701 -0.27232,0.60629 -0.41015,0.91602 -0.59503,1.32536 -1.17359,2.65191 -1.71289,3.97265 -0.60637,1.48501 -1.2748,2.80948 -1.48438,2.94141 -0.59841,0.37674 -0.4717,0.8663 0.95313,3.70313 0.18478,0.3679 0.39762,0.7473 0.62304,1.1289 0.0224,0.0376 0.0455,0.0754 0.0684,0.11328 0.1751,0.29235 0.37322,0.59012 0.57031,0.88868 0.18805,0.28296 0.3897,0.56962 0.59766,0.85937 0.31413,0.43935 0.64776,0.88013 1.00195,1.32617 0.22009,0.27757 0.43756,0.55433 0.67188,0.83399 0.21306,0.25318 0.43418,0.50439 0.6582,0.75781 0.374,0.42593 0.76131,0.84999 1.16211,1.27344 0.0669,0.07 0.12775,0.14105 0.19531,0.21093 0.93257,0.97344 1.92329,1.93089 2.95703,2.8418 1.58885,1.40007 3.13739,2.58771 4.70118,3.62891 0.16937,0.11634 0.33384,0.24594 0.5039,0.35937 0.77111,0.51429 1.60761,1.09092 2.33399,1.60547 0.001,7.8e-4 0.003,9.5e-4 0.004,0.002 0.72442,0.51322 1.33962,0.96463 1.66993,1.23047 0.003,0.002 0.0108,0.009 0.0137,0.0117 0.55453,0.44638 1.11562,0.74668 1.72265,0.94727 0.001,4.6e-4 0.003,9.5e-4 0.004,0.002 0.072,0.0252 0.14324,0.0526 0.21484,0.0742 0.0369,0.0104 0.076,0.0177 0.11329,0.0273 0.004,9.9e-4 0.008,0.003 0.0117,0.004 0.15835,0.0432 0.31779,0.0877 0.47071,0.11133 0.74052,0.11445 2.62781,0.49883 4.19531,0.85547 0.56841,0.12935 1.05962,0.22616 1.55664,0.30859 0.78888,0.14643 1.54335,0.26634 2.04492,0.31055 0.9075,0.0799 2.42733,0.50422 3.37891,0.94336 2.35583,1.0872 6.5446,1.36734 9.28125,0.62109 2.34204,-0.63867 6.63369,-2.43317 8.05078,-3.36719 0.19489,-0.12845 0.41604,-0.24181 0.6543,-0.34375 0.35457,-0.12349 0.9743,-0.27846 1.61328,-0.4375 0.23503,-0.0377 0.47351,-0.0737 0.73242,-0.0976 1.06608,-0.0983 3.15367,-0.59264 4.63867,-1.09766 0.34411,-0.11702 0.65048,-0.20308 0.96484,-0.29687 0.25734,-0.0686 0.63558,-0.15816 0.82813,-0.21485 0.16985,-0.05 0.32338,-0.0823 0.49414,-0.12891 1.08921,-0.23901 2.19568,-0.37944 3.7207,-0.46679 2.70402,-0.15486 3.51013,-0.31367 4.41211,-0.8711 0.96749,-0.59795 1.76907,-1.36542 2.53907,-2.56445 0.005,-0.008 0.0107,-0.0177 0.0156,-0.0254 0.25089,-0.39271 0.49871,-0.82926 0.74805,-1.32422 0.59261,-1.17259 1.19954,-2.70442 1.86133,-4.60742 0.47533,-1.36003 0.9773,-2.88361 1.54687,-4.72656 1.61967,-5.2407 1.91797,-6.36509 1.91797,-7.19336 0,-0.28675 0.10606,-0.74075 0.29687,-1.37891 0.086,-0.25955 0.24176,-0.76707 0.32422,-1.00781 0.0145,-0.0418 0.0396,-0.109 0.0547,-0.15234 0.40613,-1.16264 0.99244,-2.74073 2.01758,-5.41797 0.70028,-1.82883 1.11135,-2.96754 1.42383,-3.93555 0.091,-0.26718 0.26139,-0.73366 0.29882,-0.86523 0.0246,-0.0866 0.0446,-0.23505 0.0684,-0.33594 0.12458,-0.49629 0.21579,-0.9639 0.28125,-1.45899 0.13601,-0.77448 0.24667,-1.61587 0.37305,-2.70507 0.0709,-0.61109 0.1304,-1.21342 0.18164,-1.80274 0.23157,-1.24118 0.53995,-2.59435 0.9043,-3.89648 1.17735,-4.20771 1.52905,-7.40516 0.98242,-8.9375 -0.18888,-0.52953 -0.80168,-2.77482 -1.36328,-4.98828 -0.0103,-0.0404 -0.0247,-0.0825 -0.0352,-0.12305 -0.61595,-2.72529 -1.83933,-6.10249 -3.0625,-8.03125 -0.0148,-0.0233 -0.0246,-0.0341 -0.0391,-0.0566 -0.19183,-0.32847 -0.37321,-0.59975 -0.53516,-0.79297 -0.14056,-0.17816 -0.26622,-0.2981 -0.37109,-0.34961 -0.0872,-0.0428 -0.18092,-0.0781 -0.27148,-0.12109 -0.25155,-0.12453 -0.53466,-0.26289 -0.7793,-0.40625 -0.0401,-0.0235 -0.12181,-0.0558 -0.16992,-0.082 -0.75495,-0.55475 -1.10264,-1.52321 -2.4668,-5.21093 -0.69959,-1.8912 -1.15384,-3.28701 -1.48633,-4.69141 -0.11613,-0.54133 -0.23473,-1.19514 -0.35156,-1.9375 -0.20202,-1.84458 -0.39126,-3.41936 -0.58594,-4.89453 -0.11951,-1.1706 -0.2376,-2.13921 -0.32226,-2.58984 -0.0544,-0.64533 0.0169,-0.92976 0.21093,-1.12891 0.19213,-0.14217 0.48025,-0.29248 0.94141,-0.49219 l 0.002,0 c 0.9619,-0.37067 2.72126,-0.93298 5.00782,-1.60937 3.52113,-0.9607 3.88276,-1.13202 5.49023,-2.59375 1.10448,-0.94532 2.10828,-1.51609 3.01563,-1.70313 0.0405,-0.008 0.0829,-0.025 0.12304,-0.0312 0.0581,-0.01 0.11256,-0.005 0.16992,-0.0117 l 0.002,0 c 0.01,-0.001 0.0194,-8.4e-4 0.0293,-0.002 0.90604,-0.0853 1.73434,0.19748 2.44141,0.88281 0.77334,0.74955 1.2473,0.95361 2.26367,0.97461 l 1.28711,0.0274 0.16602,-12.30079 c 0.15876,-11.77557 0.19937,-12.47228 0.96875,-16.3496 0.44199,-2.2275 1.07273,-5.53461 1.40234,-7.34961 0.32964,-1.815 0.93687,-5.12211 1.34766,-7.34961 0.41082,-2.2275 1.07146,-5.87211 1.46875,-8.09961 0.56103,-3.14538 1.23851,-5.45875 3.0332,-10.35157 1.27098,-3.46499 2.58181,-7.1775 2.91406,-8.25 0.33228,-1.07249 1.14174,-3.33218 1.79883,-5.02343 1.13703,-2.92656 1.23737,-3.07617 2.07227,-3.07617 0.8755,0 0.87786,0.003 0.88086,1.875 0.002,1.03125 0.19012,2.4949 0.41992,3.25195 0.40986,1.35036 0.72027,2.17034 3.33594,8.82422 6.17595,15.71091 7.74654,20.84889 9.41601,30.80664 1.64427,9.80745 1.82422,11.22704 1.82422,14.37695 0,3.97241 0.48511,6.05689 2.26367,7.67188 l 0,0.002 c 0.16169,0.14682 0.33388,0.2896 0.51758,0.42969 0.73478,0.56037 1.64953,1.07546 2.78516,1.61328 1.52406,0.72174 2.82738,1.48026 2.89648,1.6875 0.0985,0.29556 0.81777,0.25811 3.33789,-0.17383 l 0.002,0 c 0.74779,-0.12818 1.32991,-0.22342 1.81055,-0.28906 0.48064,-0.0656 0.85979,-0.10057 1.19922,-0.10547 0.67786,-0.01 1.20155,0.10023 2.07031,0.32226 0.25686,0.0657 0.62628,0.13708 1.07422,0.21094 0.21632,0.0357 0.49712,0.0714 0.74609,0.10742 0.007,9.5e-4 0.0129,0.003 0.0195,0.004 0.0504,0.007 0.0989,0.0142 0.15039,0.0215 0.21274,0.03 0.39408,0.0605 0.62304,0.0898 0.001,1.8e-4 0.004,-1.8e-4 0.006,0 0.0249,0.003 0.0551,0.005 0.0801,0.008 0.0226,0.003 0.0495,0.005 0.0723,0.008 0.0586,0.007 0.12614,0.0122 0.18554,0.0195 1.06273,0.131 2.22934,0.25732 3.33399,0.33985 0.29454,0.022 0.62956,0.0604 0.94336,0.0898 0.36161,0.0343 0.69542,0.0595 1.08593,0.10352 0.81452,0.0927 1.67016,0.20785 2.5254,0.33008 1.39099,0.20542 2.74619,0.44225 3.8457,0.68554 1.78771,0.39554 3.32768,0.67722 4.16211,0.78906 0.32681,0.0623 0.66879,0.13757 0.99023,0.19727 l 0,2.30859 c -0.018,0.0857 -0.0344,0.23007 -0.0508,0.34375 -0.0776,0.31126 -0.13691,0.6746 -0.17383,1.08985 -0.026,0.292 -0.0552,0.76074 -0.082,1.08984 -0.12948,1.09054 -0.43311,2.39335 -0.72461,3.0332 -0.47133,1.03468 -0.62971,2.38358 -0.84961,7.23047 -0.14867,3.27699 -0.24107,7.20618 -0.20508,8.73243 0.0603,2.55717 0.0427,2.97779 -1.01562,2.60937 -0.16036,-0.0701 -0.33939,-0.13584 -0.52734,-0.20117 -0.07,-0.0289 -0.12491,-0.0502 -0.20118,-0.082 -0.81601,-0.34096 -1.6842,-0.4845 -2.5371,-0.44922 -0.0237,-3.1e-4 -0.0509,-0.004 -0.0742,-0.004 -0.0256,2e-5 -0.0524,0.007 -0.0781,0.008 -0.0162,9.9e-4 -0.0326,-0.001 -0.0488,0 -0.0487,-7.6e-4 -0.078,-0.006 -0.13086,-0.006 -0.55698,0 -0.92963,0.0836 -1.30859,0.30859 -0.40012,0.13829 -0.78625,0.31647 -1.14648,0.54492 -0.0831,0.0527 -0.15853,0.11684 -0.24024,0.17188 -1.94352,1.24354 -3.6876,3.41456 -4.11914,5.37695 -0.0108,0.0478 -0.0221,0.0952 -0.0312,0.14258 -0.0473,0.25163 -0.082,0.50108 -0.082,0.74218 0,1.32327 1.63058,10.66619 2.26172,12.9629 0.27204,0.99 0.68932,2.60961 0.92773,3.5996 0.0126,0.0522 0.0241,0.0986 0.0371,0.15235 0.006,0.0229 0.0217,0.13084 0.0274,0.14844 0.072,0.23018 0.14505,0.53892 0.21875,0.83398 0.0464,0.18669 0.0826,0.32394 0.12695,0.5 10e-4,0.005 7.2e-4,0.009 0.002,0.0137 0.25925,1.15087 0.49583,2.55454 0.65235,3.84571 0.11625,1.39819 0.65579,4.55343 1.13671,6.50585 0.16254,0.66 0.29874,1.81753 0.30274,2.57032 0.009,1.65555 1.3104,5.6151 2.85351,8.67968 0.37146,0.7377 1.52425,2.67996 2.87696,4.91602 0.10846,0.25895 0.22531,0.49759 0.32031,0.61133 0.0757,0.0907 1.07137,1.70253 1.69336,2.69141 2.52816,4.0996 5.29835,8.47914 6.59961,10.35742 2.38692,3.44541 4.03243,5.4174 5.03516,6.03711 0.21915,0.13545 0.56193,0.44049 0.93945,0.80664 l 0.004,0.004 c 0.73696,0.77342 1.57228,1.69322 2.21289,2.47657 0.0512,0.0626 0.0887,0.10163 0.13868,0.1621 0.32355,0.38709 0.63573,0.75751 0.90625,1.0586 0.0749,0.0831 0.13992,0.14632 0.21093,0.22266 0.35335,0.3827 0.65633,0.68413 0.90821,0.90234 0.14991,0.13696 0.28667,0.25029 0.39648,0.32617 0.0563,0.0366 0.11029,0.0707 0.15821,0.0937 0.044,0.022 0.0908,0.0474 0.12695,0.0566 0.0484,0.0128 0.0848,0.005 0.12109,-0.002 0.0166,-0.004 0.0426,0.007 0.0566,-0.002 0.14265,-0.0881 0.7631,0.23406 1.37891,0.71679 0.007,0.005 0.0111,0.009 0.0176,0.0137 0.29824,0.23323 0.60779,0.46028 0.92383,0.67969 0.47696,0.33127 0.97314,0.63885 1.47656,0.93164 0.17571,0.10228 0.35012,0.20986 0.52734,0.30664 0.002,9.6e-4 0.004,9.5e-4 0.006,0.002 0.0858,0.0468 0.17177,0.0873 0.25781,0.13281 0.0267,0.0141 0.0534,0.027 0.0801,0.041 0.008,0.004 0.0157,0.008 0.0234,0.0117 0.41166,0.21455 0.82246,0.41138 1.23242,0.5918 0.49276,0.21699 0.98101,0.41643 1.45508,0.57617 0.19016,0.0641 0.3715,0.11205 0.55664,0.16602 0.13499,0.0393 0.2744,0.0874 0.40625,0.12109 l 0.002,0 c 0.31183,0.0796 0.61415,0.14332 0.9043,0.18945 0.4125,0.0656 0.81789,0.13645 0.90039,0.15625 0.0422,0.0102 0.13057,-0.0136 0.23633,-0.0566 0.004,-10e-4 0.008,-0.004 0.0117,-0.006 0.0986,-0.041 0.21058,-0.0958 0.31836,-0.16406 0.003,-0.002 0.003,-0.004 0.006,-0.006 0.007,-0.004 0.0129,-0.006 0.0195,-0.01 0.0872,-0.0551 0.14884,-0.10586 0.17968,-0.15235 0.092,-0.14028 -0.0847,-0.25735 -0.5996,-0.45312 -0.11496,-0.0437 -0.24119,-0.10439 -0.35938,-0.15235 -0.0897,-0.0421 -0.15269,-0.0765 -0.25781,-0.12304 -0.33496,-0.14817 -0.39983,-0.16145 -0.66016,-0.26953 -0.007,-0.003 -0.0125,-0.005 -0.0195,-0.008 -0.31951,-0.1477 -0.64468,-0.30947 -0.96875,-0.47461 -0.55429,-0.28176 -1.10854,-0.58903 -1.65039,-0.90039 -1.99491,-1.16642 -3.62665,-2.3987 -3.53125,-2.83593 0.003,-0.016 -0.006,-0.0256 -0.004,-0.041 0.26782,-0.12227 1.17181,0.21649 2.00782,0.88086 0.221,0.18315 0.44266,0.36131 0.68359,0.5 0.092,0.0586 0.17904,0.099 0.27344,0.15039 0.008,0.004 0.0171,0.008 0.0254,0.0117 0.17382,0.0932 0.35005,0.19145 0.51562,0.24609 0.35966,0.11869 1.05442,0.26181 1.77149,0.39063 0.19748,0.0374 0.3945,0.0739 0.60156,0.10351 0.12183,0.0188 0.24884,0.0467 0.36523,0.0625 1.38528,0.18803 2.76135,0.18812 4.31055,0.0176 1.48405,-0.1422 3.05645,-0.42293 4.58008,-0.82226 1.16174,-0.27793 2.21178,-0.49331 2.71094,-0.54102 0.005,-4.3e-4 0.007,4.1e-4 0.0117,0 0.27286,0.005 0.3362,0.0874 0.17188,0.24414 -0.21465,0.17722 -0.61158,0.41731 -1.14844,0.67383 -0.67638,0.32337 -1.0732,0.55847 -1.06054,0.61328 0.006,0.0177 0.059,0.014 0.1621,-0.0117 0.24755,-0.0617 0.58468,-0.18347 1.01758,-0.36719 1.37863,-0.56761 3.55594,-1.66957 5.81055,-2.9082 0.035,-0.0189 0.0646,-0.0358 0.0996,-0.0547 0.2083,-0.1147 0.41072,-0.22934 0.61914,-0.3457 0.20408,-0.10865 0.3379,-0.17631 0.55273,-0.29102 0.68596,-0.36628 1.39362,-0.77985 2.09961,-1.20703 1.56374,-0.90821 2.90894,-1.7311 3.47071,-2.19531 0.0488,-0.0403 0.0977,-0.0882 0.14648,-0.13086 0.0313,-0.0248 0.0926,-0.0644 0.12109,-0.0879 0.0668,-0.0551 0.108,-0.0986 0.17188,-0.15234 0.0877,-0.0669 0.22315,-0.15534 0.29883,-0.2168 0.18682,-0.1517 0.33805,-0.28402 0.51367,-0.42969 0.73128,-0.56962 1.31431,-1.07858 1.70898,-1.49218 0.60521,-0.56129 1.128,-1.09086 1.55664,-1.5918 0.0535,-0.0512 0.0886,-0.0749 0.14454,-0.13086 0.12705,-0.12705 0.24977,-0.26491 0.36718,-0.41211 0.0237,-0.005 0.0387,0.005 0.0664,-0.006 0.0296,-0.0113 0.0706,-0.0656 0.10937,-0.10937 0.21687,-0.0224 0.44567,-0.48654 0.67774,-1.28126 0.36373,-0.85 0.68662,-1.80565 0.61914,-2.05859 -0.004,-0.0143 0.0206,-0.18109 0.0234,-0.23242 0.0214,-0.14413 0.0526,-0.28024 0.0684,-0.42969 l 0,-0.002 c 0.0673,-0.63801 0.25341,-1.92012 0.41406,-2.84961 0.27478,-1.58985 0.47152,-4.42844 0.60352,-7.67774 0.007,-0.10724 0.0162,-0.20453 0.0234,-0.3125 0.15269,-2.26503 0.19699,-5.73315 0.16211,-9.19531 0.004,-5.42341 -0.18879,-10.26701 -0.62695,-11.80469 -0.23508,-0.825 -0.56518,-2.9958 -0.73438,-4.82421 -0.0129,-0.139 -0.0297,-0.25594 -0.043,-0.39258 -0.002,-0.0147 -0.004,-0.0283 -0.006,-0.043 -8.6e-4,-0.009 -9.6e-4,-0.0166 -0.002,-0.0254 -0.0352,-0.3346 -0.0653,-0.64407 -0.10547,-0.98242 -0.0386,-0.35443 -0.0744,-0.73907 -0.11523,-1.07227 l 0,-0.002 c -0.0958,-0.7815 -0.19607,-1.50187 -0.30078,-2.14649 l 0,-0.002 c -0.13722,-0.84448 -0.28045,-1.49706 -0.42383,-2.05078 l 0,-0.002 c -0.0732,-0.3108 -0.14365,-0.57941 -0.20703,-0.7461 -0.004,-0.0101 -0.008,-0.0155 -0.0117,-0.0254 -0.002,-0.006 -0.005,-0.0191 -0.008,-0.0254 -0.0129,-0.034 -0.0336,-0.0602 -0.0488,-0.0918 -0.16504,-0.36601 -0.35947,-0.5417 -0.65039,-0.5664 -0.29481,-0.0827 -0.61266,-0.0275 -0.84766,0.19726 -0.0669,0.064 -0.12713,0.14201 -0.17773,0.23243 -0.15178,0.27121 -0.47004,0.30031 -0.86524,0.16211 -0.1032,-0.0486 -0.1963,-0.0899 -0.33593,-0.16211 -0.0265,-0.0137 -0.055,-0.0236 -0.082,-0.0371 -0.68846,-0.39354 -1.51107,-1.16963 -2.18164,-2.16993 -0.60707,-0.90557 -0.84507,-1.36624 -0.71093,-1.48632 0.23275,0.0123 0.56316,0.10857 0.97851,0.30664 0.45037,0.21476 0.71669,0.32845 0.91016,0.39453 l 0.002,0 0.002,0 0.002,0 c 0.1864,0.0629 0.29876,0.0768 0.29297,-0.008 0.008,-0.002 0.0373,0.008 0.041,0.004 0.10436,-0.10436 -0.1052,-0.38519 -0.46094,-0.72656 -0.23647,-0.29645 -0.60598,-0.60178 -1.02929,-0.90625 -0.81977,-0.66265 -1.80964,-1.17621 -3.01953,-1.55859 -0.0203,-0.007 -0.0382,-0.0161 -0.0586,-0.0234 -0.066,-0.0237 -0.13763,-0.0364 -0.20312,-0.0586 -0.16202,-0.0474 -0.31815,-0.0996 -0.48828,-0.14257 -0.22817,-0.0639 -0.48626,-0.12874 -0.74805,-0.17969 -1.05171,-0.24928 -2.1674,-0.37925 -3.62695,-0.42188 -0.006,-3.5e-4 -0.0116,3.5e-4 -0.0176,0 -0.83995,-0.0492 -1.72169,-0.0838 -2.69922,-0.0879 -0.42641,-0.002 -0.87472,-0.0305 -1.32227,-0.041 -1.84819,-0.0771 -3.56845,-0.16838 -4.81835,-0.26367 -0.003,-3.6e-4 -0.007,3.7e-4 -0.01,0 -0.20529,-0.0233 -0.45737,-0.0459 -0.61133,-0.0703 l -1.90625,-0.30078 -0.002,0 -0.30469,-0.0898 0.0488,-1.61524 c 0.0474,-1.5675 0.21079,-4.06578 0.36328,-5.55078 0.0669,-0.65175 0.14242,-1.7241 0.2168,-2.69922 0.15427,-1.99926 0.31499,-4.37159 0.45703,-6.98242 l 0,-0.002 c 1.8e-4,-0.003 -1.9e-4,-0.006 0,-0.01 0.1039,-1.90696 0.19585,-3.80265 0.26172,-5.45508 l 0,-0.002 c 1.3e-4,-0.003 -1.3e-4,-0.005 0,-0.008 0.0527,-1.32328 0.0725,-2.30345 0.0859,-3.19141 0.003,-0.2222 0.0211,-0.61347 0.0215,-0.79883 l 0,-0.002 c 10e-4,-0.69605 -0.002,-1.24975 -0.0156,-1.69531 l 0,-0.002 c -0.0135,-0.445 -0.0363,-0.7811 -0.0742,-1.04102 l 0,-0.002 c -0.008,-0.0567 -0.0255,-0.0772 -0.0351,-0.12696 -0.0572,-0.29169 -0.13326,-0.50167 -0.25195,-0.63476 l 0,-0.002 c -0.0464,-0.052 -0.0984,-0.0963 -0.15625,-0.13868 -0.39678,-0.29007 -0.58751,-0.96772 -0.72071,-2.55664 l -0.18164,-2.16211 2.52149,0.17578 c 1.47396,0.10258 2.99201,0.1871 4.44921,0.25196 l 0.002,0 c 4.37077,0.19451 8.19084,0.21088 8.60156,-0.006 0.31293,-0.165 1.58086,-0.42911 2.81836,-0.58789 2.32501,-0.29829 4.32004,-1.24154 6.95898,-3.34571 l 0.002,0 c 0.37673,-0.30043 0.76602,-0.62529 1.17187,-0.9746 0.24619,-0.21189 0.48041,-0.42504 0.70313,-0.63672 0.22272,-0.21167 0.43444,-0.42333 0.63476,-0.63868 0.40065,-0.43068 0.75861,-0.87322 1.07618,-1.34179 0.15845,-0.23384 0.30787,-0.47361 0.44726,-0.72266 l 0,-0.002 c 0.13963,-0.24958 0.26907,-0.50666 0.39063,-0.77539 0.2431,-0.53748 0.45162,-1.11849 0.6289,-1.75586 0.0886,-0.31869 0.16838,-0.65053 0.24219,-1 0.0738,-0.34948 0.14112,-0.71548 0.20117,-1.09961 0.1201,-0.76828 0.2136,-1.60889 0.28516,-2.53906 l 0,-0.002 c 0.0715,-0.92958 0.12069,-1.94809 0.15234,-3.07031 l 0,-0.002 c 0.0316,-1.12246 0.0465,-2.34919 0.0469,-3.69531 l 0,-0.002 c 3.3e-4,-1.79369 -0.004,-3.18694 -0.0234,-4.36719 -0.0197,-1.18024 -0.0553,-2.14733 -0.12109,-3.08593 -0.0657,-0.93797 -0.16112,-1.84821 -0.29883,-2.91602 l 0,-0.002 c -0.13787,-1.06874 -0.31867,-2.29457 -0.55469,-3.86524 -0.37918,-2.52326 -0.52194,-3.51009 -0.44141,-4.16601 0.0161,-0.13119 0.0423,-0.24886 0.0762,-0.36328 0.0677,-0.22882 0.16924,-0.44311 0.30665,-0.72071 0.29326,-0.59245 0.45166,-1.24046 0.49414,-2.05664 0.0141,-0.27145 0.0184,-0.56191 0.008,-0.875 l 0,-0.002 c -0.009,-0.2475 -0.005,-0.52039 0.01,-0.80469 0.0301,-0.56859 0.10371,-1.17723 0.20313,-1.68554 0.0497,-0.25415 0.10521,-0.48271 0.16601,-0.66993 0.13869,-0.427 0.24238,-1.09735 0.31055,-2.06835 0.0341,-0.48551 0.0597,-1.04585 0.0762,-1.68946 0.0164,-0.64361 0.0247,-1.37104 0.0234,-2.1875 -0.003,-1.63239 -0.0419,-3.62539 -0.11523,-6.03711 l 0,-0.002 c -0.0734,-2.41277 -0.18167,-5.24415 -0.32617,-8.55469 -0.21115,-4.83762 -0.33424,-7.57421 -0.47266,-10.22656 -0.13843,-2.65236 -0.29203,-5.21969 -0.56836,-9.72266 -0.17577,-2.86431 -0.38549,-6.01144 -0.60547,-9.13867 -0.21994,-3.12656 -0.45059,-6.23396 -0.66797,-9.02344 l 0,-0.002 c -0.21743,-2.78995 -0.42174,-5.26082 -0.58984,-7.11328 -0.16809,-1.85247 -0.29911,-3.08561 -0.3711,-3.40039 -0.36399,-1.59156 -1.03369,-7.11615 -0.89062,-7.34766 0.24537,-0.39696 3.10793,-1.17383 4.32422,-1.17383 0.59515,0 1.61784,-0.28724 2.27148,-0.63671 0.65364,-0.34944 1.65979,-0.72316 2.23633,-0.83008 0.53102,-0.0985 0.91926,-0.29535 1.18164,-0.59961 0.0202,-0.0235 0.034,-0.0534 0.0527,-0.0781 0.0129,-0.0171 0.0229,-0.0369 0.0351,-0.0547 0.0463,-0.0672 0.0985,-0.13084 0.13477,-0.20704 0.0668,-0.14028 0.13328,-0.43563 0.19922,-0.84765 0.0659,-0.41203 0.13018,-0.94 0.1914,-1.54883 0.0612,-0.60883 0.11926,-1.2986 0.17188,-2.0293 0.0526,-0.73008 0.10048,-1.50233 0.14062,-2.27929 l 0,-0.002 c 0.0402,-0.77763 0.0719,-1.55897 0.0957,-2.30859 0.0715,-2.24887 0.0612,-4.20363 -0.084,-4.85156 -0.0863,-0.38518 -0.15982,-1.06506 -0.20898,-1.85157 -0.0492,-0.78651 -0.0742,-1.67818 -0.0625,-2.48632 l 0,-0.002 c 0.006,-0.40408 -0.002,-0.96553 -0.0215,-1.63672 -0.0598,-2.01357 -0.22427,-5.00281 -0.42773,-7.60156 -0.27126,-3.465 -0.62481,-8.59344 -0.78516,-11.39844 l 0,-0.002 c -0.0705,-1.2332 -0.12353,-2.1705 -0.15234,-2.90234 l 0,-0.002 c -0.0288,-0.73204 -0.0347,-1.25684 -0.0117,-1.66601 0.046,-0.81835 0.20604,-1.16997 0.51953,-1.77149 l 0.64844,-1.24218 0,-0.002 -0.35742,-12.70507 0,-0.002 c -0.098,-3.4938 -0.23602,-7.3619 -0.37891,-10.77929 l 0,-0.002 c -0.14289,-3.41702 -0.28943,-6.38276 -0.4082,-8.07422 l 0,-0.002 c -0.0866,-1.23261 -0.16534,-2.50086 -0.23633,-3.79492 -0.21298,-3.88221 -0.35649,-7.98582 -0.42188,-11.97266 -0.0218,-1.32829 -0.0345,-2.64347 -0.0391,-3.93359 -0.009,-2.58148 0.016,-5.06267 0.0781,-7.3418 0.0311,-1.13957 0.0716,-2.22926 0.12109,-3.25586 0.15318,-3.17543 0.34741,-6.81328 0.56055,-10.57226 0.21311,-3.75832 0.44535,-7.63879 0.67578,-11.30274 l 0,-0.002 c 0.23041,-3.6638 0.45895,-7.11026 0.66406,-10.00195 0.002,-0.0313 0.004,-0.0411 0.006,-0.0723 0.0127,-0.17881 0.0207,-0.23965 0.0332,-0.41406 0.18693,-2.60433 0.35915,-4.84718 0.48633,-6.1836 0.0785,-0.825 0.20108,-2.53742 0.33594,-4.63085 0.13485,-2.09344 0.28014,-4.56868 0.40625,-6.91993 0.22531,-4.20119 0.39706,-7.08909 0.65625,-9.90234 0.0864,-0.93776 0.18166,-1.86661 0.29297,-2.83399 0.11132,-0.96737 0.23795,-1.97356 0.38476,-3.0625 0.14681,-1.08891 0.31494,-2.2601 0.50782,-3.5625 0.38576,-2.60478 0.8743,-5.7281 1.50781,-9.73828 l 0,-0.002 c 0.58633,-3.71161 1.13957,-7.26418 1.23047,-7.89844 l 0,-0.002 c 0.0227,-0.15825 0.055,-0.31212 0.0937,-0.45703 0.11654,-0.43475 0.29375,-0.77826 0.44922,-0.83789 0.0492,-0.0189 0.35875,-0.007 0.81836,0.0254 l -31.32813,-84.93555 -0.76758,-4.39258 c -0.0711,0.13779 -0.0918,0.37202 -0.0918,0.81446 0,0.79104 -0.12875,1.08398 -0.47852,1.08398 -0.14826,0 -0.2478,-0.0665 -0.31445,-0.28125 -0.0598,-0.38214 -0.0854,-1.08807 -0.0977,-2.06445 0.004,-0.36577 0.004,-0.68945 0.0156,-1.17969 0.0639,-2.72954 -0.19729,-5.12019 -0.68165,-6.8457 -0.20421,-0.97815 -0.48322,-1.66579 -0.83593,-2.05469 -10e-4,-0.001 -0.003,-8.1e-4 -0.004,-0.002 -0.11596,-0.15781 -0.23641,-0.27501 -0.36133,-0.35352 -0.2044,-0.1913 -0.42061,-0.32238 -0.64844,-0.36719 -0.4438,-0.0873 -0.49416,0.50001 -0.50976,5.85157 -0.005,1.74612 -0.048,3.70441 -0.10742,5.49609 l -3.30469,-7.625 c -0.39019,-3.74101 -1.00896,-7.97979 -1.35742,-8.42578 -0.0951,-0.1217 -0.2682,-0.66793 -0.4375,-1.29102 -0.23197,-0.99779 -0.48173,-1.9677 -0.7461,-2.90039 -0.0353,-0.12892 -0.0704,-0.2376 -0.10546,-0.35937 -0.0675,-0.2304 -0.13489,-0.46519 -0.20118,-0.66992 -0.0713,-0.23286 -0.13793,-0.48124 -0.21093,-0.70704 -0.27071,-0.83734 -0.61003,-1.40382 -0.96875,-1.67187 -0.004,-0.003 -0.01,-0.006 -0.0137,-0.01 -0.0603,-0.051 -0.12111,-0.0912 -0.18164,-0.12109 -0.006,-0.003 -0.013,-0.007 -0.0195,-0.01 -0.0666,-0.0305 -0.13213,-0.0513 -0.19922,-0.0566 -0.001,-1.1e-4 -0.003,1.1e-4 -0.004,0 -0.0615,-0.004 -0.12348,0.003 -0.18555,0.0195 -0.01,0.002 -0.0195,0.003 -0.0293,0.006 -0.0156,0.005 -0.0312,0.009 -0.0469,0.0156 -0.30642,0.006 -0.54859,0.15005 -0.5586,0.42383 -0.0148,0.0129 -0.0308,0.0272 -0.0449,0.0391 -0.0807,0.0672 -0.15204,0.11592 -0.21484,0.15039 -0.0525,0.0284 -0.11052,0.066 -0.15039,0.0703 -0.1101,-0.045 -0.18709,-0.15819 -0.19141,-0.29101 -0.002,-0.0243 -0.0111,-0.0331 -0.0117,-0.0606 -0.006,-0.28461 -0.8365,-2.02898 -1.7539,-3.8418 -0.0849,-0.17247 -0.14629,-0.31123 -0.23242,-0.48437 -1.01909,-2.05291 -2.08098,-4.07206 -2.25196,-4.17774 -0.004,-0.002 -0.006,-0.004 -0.01,-0.006 -4.9e-4,-3.1e-4 -0.003,-0.004 -0.004,-0.004 -0.007,-0.005 -0.0141,-0.004 -0.0215,-0.008 -0.21202,-0.11866 -0.36399,-0.0838 -0.49024,0.16601 -0.0191,0.0225 -0.0402,0.0404 -0.0566,0.0664 -0.0789,0.12449 -0.11932,0.31209 -0.14258,0.52734 -0.0287,0.0771 -0.059,0.12599 -0.0859,0.21094 l -9.31836,-4.13867 c -0.56772,-0.86762 -1.29459,-2.26252 -1.67774,-3.24024 -0.26067,-0.66516 -0.40307,-1.11254 -0.49219,-1.52343 -0.0736,-0.60487 -0.0656,-1.20162 0.0117,-1.78907 0.0122,-0.0866 0.0161,-0.1733 0.0312,-0.25976 l 0,-0.002 c 0.1672,-0.95147 0.33184,-1.71503 0.49805,-2.54687 0.17863,-0.80169 0.34453,-1.56838 0.59961,-2.57422 0.0605,-0.23835 0.12135,-0.63016 0.18359,-0.94531 0.069,-0.24284 0.14036,-0.50775 0.19532,-0.65039 0.17898,-0.46449 0.33284,-1.67871 0.33984,-2.69922 10e-4,-0.16886 0.0149,-0.35129 0.0254,-0.53125 0.10062,-1.03819 0.25453,-1.87103 0.48242,-2.5918 0.20373,-0.52202 0.37363,-0.92321 0.56641,-1.40234 0.38835,-0.80583 0.8253,-1.83265 1.01758,-2.42969 0.017,-0.0526 0.0437,-0.1115 0.0625,-0.16601 0.27859,-0.63443 0.56842,-1.29619 0.72265,-1.57618 0.11288,-0.20493 0.23919,-0.552407 0.3711,-1.011713 0.1274,-0.436818 0.26395,-1.002759 0.40429,-1.666015 0.0177,-0.08362 0.0349,-0.196676 0.0527,-0.283203 0.12189,-0.594005 0.24669,-1.229166 0.36914,-1.949219 0.13983,-0.820733 0.27607,-1.711083 0.40625,-2.648438 0.82446,-5.93643 1.29957,-8.452524 1.67187,-8.865234 l 0,-0.002 c 0.0408,-0.04519 0.0788,-0.106898 0.11328,-0.191406 0.241,-0.591558 0.33347,-2.249573 0.38868,-6.408204 l 0.082,-6.132812 0.54297,-0.06445 -16.26172,-30.490235 0.24219,-0.179687 c -0.37686,-0.70466 -0.69368,-1.287106 -1.14063,-2.142578 -0.59776,-1.14412 -1.07781,-1.926108 -2.14453,-3.152344 -0.53336,-0.613117 -1.21276,-1.336783 -2.12695,-2.273437 -0.9142,-0.936656 -2.06246,-2.084678 -3.53321,-3.546875 l 0,-0.002 c -1.11939,-1.112882 -2.12204,-2.093428 -3.01758,-2.953126 -0.89553,-0.859695 -1.68474,-1.597422 -2.375,-2.220703 -1.3805,-1.246563 -2.36827,-2.037948 -3.03906,-2.439453 -1.86678,-1.11739 -3.18374,-1.892803 -7.26953,-4.283203 -0.75017,-0.438889 -1.79424,-1.02776 -2.9707,-1.679687 l -0.002,0 c -3.53153,-1.95695 -8.25901,-4.48299 -9.85156,-5.240235 -1.86328,-0.8859795 -3.61425,-1.6699057 -5.3164,-2.3730466 -5.10647,-2.1094257 -9.78576,-3.4980563 -15.83399,-4.7695313 -0.99,-0.20812 -2.81328,-0.5999537 -4.05078,-0.8710937 -1.02753,-0.2257309 -1.87449,-0.3960353 -2.6582,-0.5273438 -0.003,-4.881e-4 -0.005,-0.00147 -0.008,-0.00195 -0.58178,-0.097335 -1.13295,-0.166769 -1.66601,-0.2167969 -0.003,-3.08e-4 -0.006,-0.00165 -0.01,-0.00195 -1.54787,-0.1649402 -2.91382,-0.1647885 -4.5957,-0.00781 -0.73022,0.068154 -1.37959,0.1259423 -2.17969,0.1992188 -2.37098,0.193665 -4.3885,0.29705 -4.52148,0.2148437 -0.0224,-0.013848 -0.0359,-0.054413 -0.0566,-0.076172 l -0.1875,-0.4472656 c -0.002,-0.024183 -0.0156,-0.046509 -0.0156,-0.070312 0,-0.085068 -0.0184,-0.1744705 -0.0508,-0.265625 l 0,-0.00195 0,-0.00195 c -0.0321,-0.090595 -0.0803,-0.1839577 -0.13867,-0.2753906 l -0.002,-0.00195 c -0.017,-0.026536 -0.0417,-0.051766 -0.0605,-0.078125 -0.0464,-0.0645157 -0.0921,-0.13094437 -0.14844,-0.19335938 l -0.002,-0.001953 c -0.0322,-0.0353605 -0.0725,-0.0692745 -0.10742,-0.10351562 -0.23925,-0.30349575 -0.52125,-0.50692473 -0.86719,-0.59375 -0.028,-0.007024 -0.0509,-0.007463 -0.0781,-0.0136719 C 188.10776,0.04281191 187.94408,0 187.79297,0 l -0.006,0 -0.004,0 c -0.003,0 -0.007,0.00191821 -0.01,0.00195313 C 187.7701,0.00191396 187.76552,0 187.76172,0 Z m -65.66797,27.314453 c 0.15962,-0.02336 0.19876,0.03624 0.13281,0.164063 l -4.89258,3.669922 c -0.12422,-0.02495 -0.0937,-0.203574 0.0879,-0.542969 0.30154,-0.56345 3.37471,-2.821963 4.34765,-3.195313 0.13776,-0.05286 0.24536,-0.08416 0.32422,-0.0957 z M 304.42188,165.30078 c 0.22138,0 0.17865,1.09417 -0.0977,3.10156 l -0.4082,-0.94531 c 0.19861,-1.16767 0.40441,-2.15625 0.50586,-2.15625 z m -240.23633,45 c 0.0767,0 0.14062,0.26961 0.14062,0.59961 0,0.33945 -0.20039,0.59961 -0.46094,0.59961 -0.3676,0 -0.39691,-0.12072 -0.14062,-0.59961 0.17661,-0.33 0.38424,-0.59961 0.46094,-0.59961 z m 19.54101,109.34961 c 0.11455,0 0.2552,0.87672 0.3125,1.94922 0.0215,0.40354 0.0906,1.34832 0.13477,2.03711 5.9e-4,0.009 0.001,0.0181 0.002,0.0273 1.3e-4,0.002 -1.3e-4,0.004 0,0.006 l 0,0.002 c 0.0371,0.63069 0.0604,1.20759 0.10742,1.85156 0.10403,1.4237 0.15975,2.6123 0.1836,3.625 -0.032,1.17034 -0.0655,2.30474 -0.125,3.03125 -0.0342,0.22633 -0.0695,0.50967 -0.11133,0.96289 -0.016,0.0922 -0.0297,0.24057 -0.0469,0.30664 -0.1716,0.66 -0.40636,4.13781 -0.52148,7.72656 -0.0683,2.12845 -0.13282,3.47436 -0.20313,4.47656 -0.12437,1.44407 -0.25239,2.04688 -0.43164,2.04688 -0.12521,0 -0.21764,-6.5e-4 -0.27929,0.0195 -0.0175,0.006 -0.0268,0.0178 -0.0391,0.0273 -0.008,0.006 -0.0213,0.0113 -0.0273,0.0195 l 0,0.002 -0.002,0 c -0.002,0.004 -0.002,0.0114 -0.004,0.0156 -0.0102,0.0205 -0.0161,0.0457 -0.0156,0.0781 l 0,0.002 c 1.9e-4,0.004 0.005,0.0152 0.006,0.0195 l 0,0.002 0,0.002 c 1.1e-4,10e-4 0.002,0.005 0.002,0.006 0.0124,0.16204 0.12844,0.45627 0.36719,1.04492 0.15966,0.39364 0.26672,1.0048 0.3457,1.63477 -0.0674,0.0524 -0.18378,4e-5 -0.35742,-0.21485 -0.51857,-0.64176 -2.6809,-5.06716 -3.81641,-7.81054 -0.37428,-0.90427 -0.7989,-2.00922 -1.22461,-3.16993 -1.27189,-3.46688 -2.53577,-7.38822 -2.55273,-8.07226 0.009,-0.29913 0.36957,-1.05277 0.88476,-1.87891 0.19373,-0.28047 0.35923,-0.5293 0.58789,-0.84375 0.0222,-0.0306 0.0573,-0.0893 0.0801,-0.12109 0.61003,-0.82607 1.31574,-1.78396 2.14844,-2.96094 2.49283,-3.5235 4.32103,-5.84961 4.5957,-5.84961 z m 14.06055,207.80859 c 0.0159,0.0202 0.0329,0.0766 0.0508,0.16993 0.0718,0.37317 0.0693,0.91239 -0.006,1.19921 -0.0751,0.28681 -0.13386,-0.0177 -0.13086,-0.67773 0.002,-0.495 0.0382,-0.75191 0.0859,-0.69141 z m 0.82227,21.05469 c 0.0315,-0.0315 0.0732,0.0112 0.12109,0.13086 0.0866,0.21657 0.0763,0.47452 -0.0234,0.57422 -0.0997,0.0997 -0.1712,-0.0783 -0.1582,-0.39453 0.007,-0.17475 0.029,-0.27901 0.0606,-0.31055 z m 0.0781,5.65625 c 0.0155,0.0121 0.031,0.0615 0.0488,0.1543 0.0715,0.37125 0.0715,0.98031 0,1.35156 -0.0715,0.37125 -0.12891,0.0667 -0.12891,-0.67578 0,-0.55688 0.0335,-0.86646 0.0801,-0.83008 z m 79.9668,50.70313 c 0.0846,-0.0175 0.17415,0.0154 0.26953,0.0801 0.248,0.37691 0.50184,0.83638 0.75976,1.3086 0.45857,0.91597 0.96194,2.0031 1.44141,3.08594 0.12449,0.33946 0.21886,0.64141 0.28516,0.9082 -3.6e-4,0.0366 0.005,0.0821 -0.002,0.10937 l 0,0.002 c -0.006,0.0226 -0.0246,0.0289 -0.0351,0.0449 -0.0143,0.0217 -0.0243,0.0508 -0.0469,0.0606 -0.001,4.2e-4 -0.003,-4e-4 -0.004,0 -0.15821,0.063 -0.51171,-0.16179 -1.03321,-0.68164 l -0.004,-0.004 -0.004,-0.004 c -0.31555,-0.31555 -0.97655,-1.43602 -1.63281,-2.63672 -0.44098,-1.14646 -0.53245,-2.16242 0.006,-2.27343 z m -46.89649,3.56836 0.0625,0.79882 c -0.20737,-0.0198 -0.29492,-0.11388 -0.29492,-0.32031 0,-0.10559 0.0414,-0.21585 0.10156,-0.3164 0.0179,-0.0293 0.0408,-0.0583 0.0606,-0.0879 0.0215,-0.0268 0.0456,-0.0505 0.0703,-0.0742 z m -2.40625,4.05468 -8.94922,4.21094 c 0.16561,-0.11496 0.32913,-0.2313 0.5,-0.34375 0.4141,-0.26419 0.85237,-0.5287 1.31641,-0.78906 0.002,-10e-4 0.005,-0.003 0.008,-0.004 0.47696,-0.26743 0.97829,-0.53202 1.49805,-0.79101 0.003,-0.002 0.007,-0.002 0.01,-0.004 0.41096,-0.20464 0.84134,-0.40273 1.27343,-0.59961 0.19633,-0.0883 0.38744,-0.17941 0.58789,-0.26562 0.33246,-0.14555 0.67289,-0.28438 1.01368,-0.42383 0.88363,-0.35233 1.79934,-0.68234 2.74218,-0.99024 z m -26.92578,38.80469 c 0.46667,0 0.59961,0.19845 0.59961,0.89844 0,0.51207 -0.10658,0.80791 -0.27148,0.86719 -0.0394,0.0142 -0.0836,0.013 -0.12891,0 -0.0905,-0.10779 -0.21285,-0.26828 -0.27539,-0.33203 -0.0869,-0.0886 -0.16219,-0.17599 -0.22656,-0.26368 -0.0129,-0.0249 -0.031,-0.0541 -0.043,-0.0781 -0.15503,-0.31268 -0.22873,-0.55153 -0.2168,-0.72266 l 0,-0.002 c 0.0291,-0.14398 0.11901,-0.25667 0.26563,-0.31641 0.0848,-0.0263 0.17053,-0.0508 0.29687,-0.0508 z m 207.17188,17.26758 c 0.0805,0.0111 0.12228,0.0535 0.125,0.12891 -0.004,0.109 -0.28074,0.32736 -0.63477,0.55859 -0.45624,0.22509 -0.96642,0.45952 -1.4668,0.69336 -0.12304,0.0257 -0.22271,0.0347 -0.26562,0.008 -0.0777,-0.0775 0.11028,-0.30623 0.64453,-0.66015 0.75458,-0.49987 1.34831,-0.76283 1.59766,-0.72852 z m -18.73047,5.33789 c 0.29803,0.0123 0.57168,0.0371 0.81054,0.0762 0.77582,0.22019 1.28685,0.44854 1.46094,0.63672 0.0217,0.0322 0.0467,0.0645 0.0488,0.0937 -0.22549,0.1825 -2.08823,0.35049 -3.71289,0.39649 -0.93857,-0.01 -1.82824,-0.0852 -2.66016,-0.21876 -0.17023,-0.0684 -0.31851,-0.14419 -0.43945,-0.23046 0.0848,-0.12063 0.39064,-0.25342 0.75977,-0.38086 0.6334,-0.1436 1.29172,-0.23468 1.9414,-0.29688 l 0.002,0 c 0.14479,0.0895 0.17989,0.0624 0.16407,-0.0156 0.22239,-0.019 0.45282,-0.0498 0.66601,-0.0586 0.33853,-0.014 0.66095,-0.0142 0.95899,-0.002 z"
     id="path4143"
     inkscape:connector-curvature="0" />
  <path
     style="fill:#000000;fill-opacity:1;fill-rule:evenodd;stroke:#000000;stroke-width:0.99271226px;stroke-linecap:butt;stroke-linejoin:miter;stroke-opacity:1"
     d="m 316.84211,199.90825 -23.88522,39.903 1.27506,65.38835 14.67499,20.84972 -14.67499,23.82826 7.70797,63.43188 c 33.77638,-29.58744 56.20114,-53.01223 76.42862,-95.20288 0.69178,-16.84913 -61.52643,-118.19833 -61.52643,-118.19833 z"
     id="path3357"
     inkscape:connector-curvature="0"
     sodipodi:nodetypes="cccccccc" />
  <path
     style="fill:#000100"
     d="M 209.19922 84.75 L 209.19922 170.67188 L 209.25 173.74609 L 209.19922 173.76562 L 209.19922 176.74023 C 209.20306 176.74013 209.23291 176.73242 209.23633 176.73242 C 209.60962 176.73242 209.99568 177.03495 210.20312 177.49023 C 210.63764 178.44393 211.14903 178.29671 211.34766 177.16016 C 211.48491 176.3747 211.73718 176.20462 213.86133 175.4707 C 215.16015 175.02193 216.44099 174.45736 216.70898 174.21484 C 216.97697 173.97232 218.33916 173.28468 219.73438 172.6875 C 221.12957 172.09035 222.45078 171.45106 222.67188 171.26758 C 222.82183 171.14311 222.94727 171.08736 223.07227 171.10156 L 223.07422 171.10156 C 223.19921 171.11576 223.32511 171.20106 223.47266 171.35938 C 223.88513 171.80173 224.54688 173.5502 224.54688 174.19727 C 224.54688 174.73529 213.97217 183.82062 211.66211 185.26758 C 211.27657 185.50908 210.2905 185.97421 209.19922 186.46094 L 209.19922 220.01367 C 211.52419 219.4991 213.33162 219.07843 215.99609 218.42188 C 216.82109 218.21859 218.30688 217.88173 219.29688 217.67383 C 222.84873 216.92788 226.52255 215.99163 227.99609 215.45508 C 229.70921 214.83129 233.71982 213.55562 235.49609 213.07031 C 237.08453 212.63633 238.64648 211.65372 238.64648 211.08789 C 238.64648 210.83796 238.85076 210.63281 239.10156 210.63281 C 239.35233 210.63281 240.09266 210.29531 240.74609 209.88281 C 242.72222 208.63532 242.86418 208.83459 242.07422 211.74414 C 241.56767 213.60981 239.54683 222.00245 238.18945 227.88281 C 237.7324 229.86281 236.49847 233.9807 235.44727 237.0332 C 231.12682 249.57935 230.3829 252.61168 229.91406 259.5625 L 229.53711 265.14258 L 230.68555 269.46289 C 232.30063 275.53804 233.05738 277.69473 235.24219 282.45312 C 238.22692 288.95373 239.42765 292.60468 241.66211 301.97461 C 242.50085 305.49175 243.09254 307.28594 243.14844 306.48242 C 243.15994 306.31742 243.35737 306.61316 243.58594 307.13867 C 244.33606 308.86334 245.81076 318.95432 246.29688 325.68359 C 246.80442 332.70933 247.66333 340.4744 248.50195 345.63281 C 248.93278 348.28289 248.98095 349.94927 248.8125 356.13281 C 248.62833 362.89235 247.8087 376.70813 247.04883 385.83398 C 246.87712 387.89648 246.52989 393.89769 246.2793 399.16992 C 246.02871 404.44212 245.77655 408.80158 245.71875 408.85938 C 245.66095 408.91717 240.90674 409.00759 235.1543 409.05859 C 229.40186 409.10959 219.90438 409.36963 214.04688 409.63672 C 212.47467 409.7084 210.84873 409.7621 209.19922 409.81445 L 209.19922 490.51367 L 322.29883 490.51367 C 322.21286 489.06291 322.16442 488.10788 322.03711 486.0332 C 321.33406 474.57596 320.09067 458.6146 319.80273 457.35547 C 319.43874 455.76391 318.76904 450.23932 318.91211 450.00781 C 319.15748 449.61085 322.0181 448.83398 323.23438 448.83398 C 323.82952 448.83398 324.85417 448.54674 325.50781 448.19727 C 326.16145 447.84783 327.1676 447.47411 327.74414 447.36719 C 328.45217 447.23588 328.90681 446.93104 329.14648 446.42773 C 329.68087 445.30549 330.25049 434.28834 329.86328 432.56055 C 329.69059 431.79018 329.56644 429.83894 329.58984 428.22266 C 329.61334 426.60635 329.41387 422.44742 329.14258 418.98242 C 328.87132 415.51742 328.51777 410.38898 328.35742 407.58398 C 328.0753 402.64787 328.08592 402.44326 328.71289 401.24023 L 329.35938 399.99805 L 329.00391 387.29102 C 328.8078 380.30216 328.45241 371.81609 328.21484 368.43359 C 327.52226 358.57274 327.32257 346.34561 327.71875 338.13281 C 328.3315 325.43111 329.59385 305.35013 330.14258 299.58398 C 330.2996 297.93398 330.63451 292.7357 330.88672 288.0332 C 331.20923 282.01962 331.43109 278.66317 331.94922 274.39648 L 331.94922 227.29102 L 320.01562 168.32227 L 318.41992 164.05664 C 315.49956 162.21625 312.80868 161.85643 309.97461 162.93359 C 307.84824 163.74179 307.39482 163.70549 307.18164 162.70898 C 306.84726 161.14577 306.45473 160.48719 305.91797 160.58984 C 305.5796 160.65454 305.34339 161.05749 305.24609 161.73633 C 305.12087 162.61009 304.96025 162.79971 304.27148 162.87891 C 303.74111 162.93991 303.44712 162.832 303.44727 162.57812 C 303.45327 153.40572 302.99718 149.73242 301.85547 149.73242 C 301.50885 149.73242 301.40096 151.13147 301.25 157.60742 C 301.14902 161.93867 300.86924 167.77372 300.62891 170.57227 C 300.18722 175.71583 300.28076 176.73242 301.19531 176.73242 C 301.4312 176.73242 301.74829 176.49773 301.90234 176.20898 C 302.20633 175.63922 302.74804 171.5643 303.08398 167.30664 C 303.20008 165.83496 303.43576 164.5861 303.60742 164.5293 C 303.77911 164.4725 304.183 164.61689 304.50391 164.85156 C 305.0776 165.27105 305.07933 165.33379 304.55078 168.53125 C 304.25507 170.32006 303.35915 174.55109 302.56055 177.93359 C 301.76192 181.31609 301.02333 184.66764 300.91992 185.38086 C 300.74307 186.60066 300.7729 186.67108 301.41016 186.58008 C 302.40859 186.43746 303.26369 184.63527 304.41797 180.24219 C 304.973 178.12983 305.55431 176.3744 305.71094 176.3418 C 305.86754 176.3092 306.11841 176.91566 306.26758 177.6875 C 306.49183 178.84778 306.43091 179.34113 305.91797 180.53711 C 305.0354 182.59499 300.4628 194.91071 299.95898 196.58594 C 299.14946 199.27778 298.97227 200.76138 299.44141 200.94141 C 300.19948 201.23229 301.0073 200.11454 302.05859 197.31836 C 303.65561 193.07042 303.57079 193.19078 303.68164 195.00977 C 303.8017 196.97969 303.76765 197.05245 297.63477 207.69141 C 295.1907 211.93122 293.2792 215.54286 293.38672 215.7168 C 293.72875 216.27021 294.6387 216.05854 295.46289 215.23438 C 296.2875 214.40976 297.65142 212.40854 299.64648 209.09375 C 302.0574 205.08809 302.2832 204.7571 302.07227 205.5332 C 301.96016 205.9457 301.61871 206.63615 301.31445 207.06836 C 301.01022 207.50057 300.62304 208.22103 300.45312 208.66797 C 299.98948 209.88741 297.52045 213.88235 296.17969 215.58398 C 295.52965 216.40898 293.7461 218.37572 292.21484 219.95508 C 288.60197 223.68141 288.23658 224.2321 288.75 225.19141 C 289.10781 225.86002 289.06798 225.97805 288.26953 226.58984 C 283.98265 229.87466 277.12834 238.44293 278.23828 239.12891 C 278.82802 239.49341 275.93814 241.80516 271.92383 244.18164 C 266.58528 247.34211 263.43452 249.90253 260.2832 253.64062 C 259.03817 255.11749 259.30793 255.40558 260.80664 254.20117 C 262.86956 252.5434 270.49921 247.48556 270.67383 247.66016 C 271.20504 248.19137 266.19401 252.83761 258.44531 258.99805 C 257.20781 259.9819 255.53305 261.41632 254.72266 262.18555 C 252.85702 263.95645 248.05449 270.35441 247.25781 272.13086 C 246.88404 272.96429 246.49722 274.90817 246.24219 277.23047 C 246.01551 279.29468 245.7506 281.65742 245.6543 282.48242 C 245.42294 284.46536 245.89966 286.09429 247.33789 288.24805 C 248.49094 289.97476 248.5244 290.10173 248.69336 293.30078 C 248.98184 298.76276 249.67219 303.02471 251.3125 309.48242 C 253.34113 317.46878 253.80165 320.35942 254.68359 330.63281 C 255.5832 341.11157 255.90627 375.3179 255.20703 385.98242 C 254.70585 393.62675 254.28893 405.60539 254.11133 417.48242 C 253.96397 427.33469 253.66898 430.81028 252.92969 431.39062 C 252.36503 431.83391 250.09584 432.00664 249.79883 431.62891 C 249.6497 431.43922 249.29961 428.78492 249.02148 425.73242 C 248.74335 422.67991 248.32273 419.23898 248.08594 418.08398 C 247.84918 416.92898 247.50415 415.24148 247.32031 414.33398 C 246.96145 412.56224 247.13705 410.29717 247.68359 409.63867 C 247.9325 409.33924 247.93238 409.23242 247.68359 409.23242 C 247.46801 409.23242 247.3457 408.50791 247.3457 407.2168 C 247.3457 404.13685 248.5072 381.86126 248.83594 378.63281 C 248.99557 377.06531 249.21692 372.60992 249.32812 368.73242 C 249.51923 362.07059 249.57007 361.60268 250.26172 360.2207 L 250.99414 358.75781 L 250.88086 350.32031 C 250.80506 344.63882 250.65174 341.60801 250.4082 341.03906 C 250.04214 340.18391 249.33532 337.14299 248.85742 334.36523 C 248.71381 333.53042 248.38083 330.49292 248.11719 327.61523 C 247.0071 315.49799 246.71783 313.7729 244.06445 303.48242 C 243.30596 300.54077 243.07784 298.86902 242.82227 294.33398 C 242.65028 291.28148 242.43118 288.4457 242.33398 288.0332 C 242.17003 287.3375 242.1288 287.36927 241.7793 288.48242 C 241.53962 289.24556 241.46442 290.49289 241.57227 291.90625 C 241.69785 293.55118 241.65216 294.07132 241.39453 293.91211 C 241.2031 293.79382 241.04688 293.50633 241.04688 293.27344 C 241.04688 292.35508 238.62995 285.61055 237.23438 282.63281 C 235.02935 277.92797 234.03034 275.4501 234.25 275.23047 C 234.35809 275.12237 234.48977 275.08953 234.54297 275.1582 C 234.59627 275.227 236.18732 277.24031 238.07812 279.63281 C 242.01934 284.61977 244.30706 287.88005 246.18164 291.17969 C 247.74881 293.93825 248.14099 293.4421 246.7207 290.49805 C 246.18589 289.38952 245.45905 287.80299 245.10547 286.9707 C 244.38784 285.28161 241.61055 281.24666 238.81641 277.83398 C 235.69638 274.02326 233.05004 270.52721 232.57031 269.58398 C 232.09232 268.64417 231.44531 265.07982 231.44531 263.38281 C 231.44531 262.29279 232.96947 257.11535 234.6543 252.48242 C 236.16381 248.33153 238.26226 243.8814 241.89844 237.11328 C 243.60364 233.93934 244.95032 231.19476 244.89062 231.01562 C 244.48292 229.7925 240.50285 235.4623 236.8418 242.48047 C 235.54751 244.96159 234.39441 247.07986 234.28125 247.1875 C 233.83854 247.60861 234.55836 245.26463 235.51562 243.16406 C 236.07018 241.94714 236.91802 239.83288 237.40039 238.4668 C 237.88273 237.10075 238.98004 234.29492 239.83984 232.23242 C 240.69964 230.16992 241.8544 227.40398 242.4043 226.08398 C 244.84573 220.22354 248.33348 212.41487 248.57812 212.26367 C 248.99563 212.00564 248.89353 211.5332 248.41992 211.5332 C 247.61091 211.5332 245.79749 214.09446 243.875 217.95117 C 241.28123 223.15449 241.35184 222.22031 244.29688 212.43359 C 244.9672 210.20609 245.59245 208.0146 245.68555 207.56445 C 245.80732 206.97561 246.54858 206.23914 248.32617 204.9375 C 249.68517 203.9424 251.01603 202.96058 251.28516 202.75586 C 251.75301 202.39994 253.37862 200.20502 255.5625 196.98242 C 256.12158 196.15742 257.37075 194.43722 258.33789 193.1582 C 260.98995 189.6509 265.43702 182.5937 268.12109 177.63281 C 268.61207 176.72531 269.30562 175.57898 269.66406 175.08398 C 270.02253 174.58898 270.82491 173.03531 271.44531 171.63281 C 272.65203 168.90488 273.08097 168.03568 275.08203 164.27344 C 276.46224 161.6785 277.57604 157.81895 279.10352 150.33398 C 280.34619 144.24443 280.8144 140.54688 280.4043 140.05273 C 280.22487 139.83653 279.98431 138.3812 279.87109 136.82031 C 279.75787 135.25942 279.55245 133.7618 279.41406 133.49219 C 279.27567 133.22257 278.81765 131.67085 278.39648 130.04297 C 277.90358 128.13768 277.30805 126.63107 276.72461 125.81445 C 276.2261 125.11674 275.55137 123.94178 275.22461 123.20312 C 274.39718 121.33259 274.57246 119.22453 276.04102 113.43359 C 276.313 112.36109 276.63192 110.33609 276.74805 108.93359 C 276.89748 107.12857 277.17799 105.94459 277.71094 104.88281 C 278.12506 104.05781 278.63901 102.84359 278.85156 102.18359 C 279.06411 101.52359 279.42826 100.68968 279.66211 100.33008 C 280.0714 99.700578 280.71661 96.653203 281.24023 92.882812 C 281.85759 88.437614 282.27831 85.912553 282.60742 84.75 L 209.19922 84.75 z M 287.04492 128.50391 C 286.8952 128.49891 286.72332 128.599 286.61523 128.76953 C 286.1235 129.54536 286.73379 132.17852 288.17188 135.48242 C 289.98874 139.65645 292.64648 146.89689 292.64648 147.67773 C 292.64648 148.49797 293.21435 149.48862 293.5625 149.27344 C 293.97383 149.01923 294.0717 149.41404 294.72852 153.99805 C 295.07568 156.42097 295.52295 158.4252 295.81641 158.87305 C 296.09046 159.29134 296.42787 159.63281 296.56641 159.63281 C 297.36564 159.63281 297.10275 153.07549 296.08398 147.63281 C 295.85235 146.39531 295.60616 144.7757 295.53906 144.0332 C 295.34808 141.91915 294.11333 137.70119 293.50781 137.0957 C 292.98011 136.56798 292.04687 136.61293 292.04688 137.16602 C 292.04688 137.31336 291.91109 137.43359 291.74609 137.43359 C 291.58109 137.43359 291.44531 137.28714 291.44531 137.10938 C 291.44531 136.62033 287.53492 128.76206 287.18359 128.54492 C 287.14149 128.51892 287.09484 128.50551 287.04492 128.50391 z M 239.23438 153.0332 C 239.48379 153.0332 240.13953 154.84017 240.14453 155.53906 C 240.14546 155.68024 239.8396 156.16009 239.46484 156.60547 C 239.09008 157.05085 237.70711 159.22455 236.39062 161.43359 C 234.45404 164.68316 233.39426 166.06806 230.8457 168.69336 C 229.1132 170.47806 227.48179 171.93855 227.2207 171.93555 C 226.84042 171.93355 226.76308 171.63968 226.83398 170.45508 C 226.91608 169.08242 227.05707 168.8445 228.80859 167.11914 C 229.84605 166.09719 230.54327 165.20417 230.35742 165.13477 C 230.17157 165.06537 229.26453 165.34302 228.33984 165.75195 C 227.41518 166.16088 226.60712 166.40228 226.54492 166.28906 C 226.33879 165.91361 225.34975 160.22997 225.47461 160.13867 C 225.54201 160.08937 227.79776 159.11693 230.48828 157.97852 C 234.02834 156.48065 235.87253 155.51142 237.16406 154.4707 C 238.14563 153.67973 239.07798 153.0332 239.23438 153.0332 z M 221.625 161.87891 C 221.7238 161.86991 221.78486 161.87293 221.80273 161.89062 C 222.02359 162.11148 222.75025 168.16121 222.60352 168.55859 C 222.43771 169.00766 220.2218 170.00888 215.80859 171.63281 C 214.01468 172.29293 212.4119 172.83398 212.24609 172.83398 C 212.08031 172.83398 211.94336 172.32773 211.94336 171.70898 C 211.94236 171.09023 211.74622 169.36781 211.50586 167.88281 C 211.2655 166.39781 211.02962 164.91817 210.98242 164.59375 C 210.90502 164.06197 211.2656 163.93991 214.64648 163.36328 C 216.70898 163.01153 219.13366 162.507 220.03516 162.24219 C 220.71127 162.04353 221.32866 161.90563 221.625 161.87891 z M 288.31445 229.30078 C 288.51413 229.50046 287.57343 230.95561 286.35156 232.33984 C 285.93573 232.81093 284.79537 233.7447 283.81641 234.41406 C 282.11955 235.57422 282.06641 235.58857 282.66992 234.75586 C 283.65638 233.39479 288.10724 229.09357 288.31445 229.30078 z M 281.68359 235.87305 C 281.76549 235.95505 281.2976 236.54793 280.64062 237.18945 C 279.98365 237.83097 279.44531 238.21884 279.44531 238.05273 C 279.44531 237.66402 281.48658 235.67604 281.68359 235.87305 z M 256.67773 394.83398 C 256.8241 394.83398 256.93748 395.74367 256.92578 396.85742 C 256.90368 398.98283 256.57814 400.40276 256.29688 399.61133 C 256.05599 398.93346 256.38277 394.83398 256.67773 394.83398 z M 245.09375 410.13281 L 245.0957 410.13281 C 245.6957 410.13281 245.8457 410.28281 245.8457 410.88281 C 245.8457 411.75185 245.8924 411.73842 245.02148 411.13086 C 244.13696 410.51385 244.16287 410.13281 245.09375 410.13281 z "
     id="path3354" />
  <path
     style="fill:#000000;fill-opacity:1;fill-rule:evenodd;stroke:#000000;stroke-width:0.99271226px;stroke-linecap:butt;stroke-linejoin:miter;stroke-opacity:1"
     d="m 326.10658,198.92038 -23.88522,39.903 1.27506,65.38835 14.67499,20.84972 -14.67499,23.82826 7.70797,63.43188 c 33.77638,-29.58744 56.20114,-53.01223 76.42862,-95.20288 0.69178,-16.84913 -61.52643,-118.19833 -61.52643,-118.19833 z"
     id="path3357-3"
     inkscape:connector-curvature="0"
     sodipodi:nodetypes="cccccccc" />
</svg>
